<?xml version="1.0" encoding="UTF-8" standalone="no"?>
<!DOCTYPE svg PUBLIC "-//W3C//DTD SVG 1.1//EN"
 "http://www.w3.org/Graphics/SVG/1.1/DTD/svg11.dtd">
<!-- Generated by graphviz version 2.26.3 (20100126.1600)
 -->
<!-- Title: _anonymous_0 Pages: 1 -->
<svg width="830pt" height="382pt"
 viewBox="0.00 0.00 830.00 382.00" xmlns="http://www.w3.org/2000/svg" xmlns:xlink="http://www.w3.org/1999/xlink">
<g id="graph1" class="graph" transform="scale(1 1) rotate(0) translate(4 378)">
<title>_anonymous_0</title>
<polygon fill="white" stroke="white" points="-4,5 -4,-378 827,-378 827,5 -4,5"/>
<!-- AdminUnit -->
<g id="node1" class="node"><title>AdminUnit</title>
<a xlink:href="./#AdminUnit" xlink:title="AdminUnit">
<ellipse fill="none" stroke="black" cx="588" cy="-92" rx="55.1765" ry="18"/>
<text text-anchor="middle" x="588" y="-87.4" font-family="Helvetica,sans-Serif" font-size="14.00">AdminUnit</text>
</a>
</g>
<!-- AdminUnit&#45;&gt;AdminUnit -->
<g id="edge32" class="edge"><title>AdminUnit&#45;&gt;AdminUnit</title>
<a xlink:href="./#inAdminUnit" xlink:title="inAdminUnit">
<path fill="none" stroke="darkslategray" d="M639.168,-85.3555C651.685,-85.8477 661,-88.0625 661,-92 661,-94.7686 656.395,-96.6855 649.309,-97.7507"/>
<polygon fill="darkslategray" stroke="darkslategray" points="648.822,-94.28 639.168,-98.6445 649.436,-101.253 648.822,-94.28"/>
</a>
<a xlink:href="./#inAdminUnit" xlink:title="inAdminUnit">
<text text-anchor="middle" x="699.5" y="-87.4" font-family="Helvetica,sans-Serif" font-size="14.00">inAdminUnit</text>
</a>
</g>
<!-- Feature -->
<g id="node3" class="node"><title>Feature</title>
<a xlink:href="./#Feature" xlink:title="Feature">
<ellipse fill="none" stroke="black" cx="387" cy="-180" rx="45.1145" ry="18"/>
<text text-anchor="middle" x="387" y="-175.4" font-family="Helvetica,sans-Serif" font-size="14.00">Feature</text>
</a>
</g>
<!-- AdminUnit&#45;&gt;Feature -->
<g id="edge2" class="edge"><title>AdminUnit&#45;&gt;Feature</title>
<path fill="none" stroke="red" stroke-dasharray="5,2" d="M573.862,-109.422C563.657,-120.881 548.918,-135.313 533,-144 504.506,-159.55 469.249,-168.487 440.52,-173.567"/>
<polygon fill="red" stroke="red" points="439.943,-170.115 430.653,-175.208 441.091,-177.02 439.943,-170.115"/>
</g>
<!-- AdminUnitLevel -->
<g id="node4" class="node"><title>AdminUnitLevel</title>
<a xlink:href="./#AdminUnitLevel" xlink:title="AdminUnitLevel">
<ellipse fill="none" stroke="black" cx="589" cy="-180" rx="77.8152" ry="18"/>
<text text-anchor="middle" x="589" y="-175.4" font-family="Helvetica,sans-Serif" font-size="14.00">AdminUnitLevel</text>
</a>
</g>
<!-- AdminUnit&#45;&gt;AdminUnitLevel -->
<g id="edge16" class="edge"><title>AdminUnit&#45;&gt;AdminUnitLevel</title>
<a xlink:href="./#atLevel" xlink:title="atLevel">
<path fill="none" stroke="darkslategray" d="M588.207,-110.234C588.343,-122.151 588.522,-137.962 588.676,-151.518"/>
<polygon fill="darkslategray" stroke="darkslategray" points="585.18,-151.83 588.793,-161.79 592.179,-151.751 585.18,-151.83"/>
</a>
<a xlink:href="./#atLevel" xlink:title="atLevel">
<text text-anchor="middle" x="612" y="-131.4" font-family="Helvetica,sans-Serif" font-size="14.00">atLevel</text>
</a>
</g>
<!-- Geometry -->
<g id="node8" class="node"><title>Geometry</title>
<a xlink:href="./#Geometry" xlink:title="Geometry">
<ellipse fill="none" stroke="black" cx="238" cy="-268" rx="53.838" ry="18"/>
<text text-anchor="middle" x="238" y="-263.4" font-family="Helvetica,sans-Serif" font-size="14.00">Geometry</text>
</a>
</g>
<!-- Feature&#45;&gt;Geometry -->
<g id="edge30" class="edge"><title>Feature&#45;&gt;Geometry</title>
<a xlink:href="./#hasGeometry" xlink:title="hasGeometry">
<path fill="none" stroke="darkslategray" d="M361.724,-194.928C337.481,-209.246 300.649,-230.999 273.473,-247.05"/>
<polygon fill="darkslategray" stroke="darkslategray" points="271.489,-244.156 264.658,-252.255 275.049,-250.184 271.489,-244.156"/>
</a>
<a xlink:href="./#hasGeometry" xlink:title="hasGeometry">
<text text-anchor="middle" x="369" y="-219.4" font-family="Helvetica,sans-Serif" font-size="14.00">hasGeometry</text>
</a>
</g>
<!-- BoundingBox -->
<g id="node5" class="node"><title>BoundingBox</title>
<a xlink:href="./#BoundingBox" xlink:title="BoundingBox">
<ellipse fill="none" stroke="black" cx="67" cy="-92" rx="67.082" ry="18"/>
<text text-anchor="middle" x="67" y="-87.4" font-family="Helvetica,sans-Serif" font-size="14.00">BoundingBox</text>
</a>
</g>
<!-- Polygon -->
<g id="node7" class="node"><title>Polygon</title>
<a xlink:href="./#Polygon" xlink:title="Polygon">
<ellipse fill="none" stroke="black" cx="67" cy="-180" rx="45.1145" ry="18"/>
<text text-anchor="middle" x="67" y="-175.4" font-family="Helvetica,sans-Serif" font-size="14.00">Polygon</text>
</a>
</g>
<!-- BoundingBox&#45;&gt;Polygon -->
<g id="edge4" class="edge"><title>BoundingBox&#45;&gt;Polygon</title>
<path fill="none" stroke="red" stroke-dasharray="5,2" d="M67,-110.234C67,-122.151 67,-137.962 67,-151.518"/>
<polygon fill="red" stroke="red" points="63.5001,-151.79 67,-161.79 70.5001,-151.79 63.5001,-151.79"/>
</g>
<!-- Polygon&#45;&gt;Geometry -->
<g id="edge10" class="edge"><title>Polygon&#45;&gt;Geometry</title>
<path fill="none" stroke="red" stroke-dasharray="5,2" d="M94.8547,-194.335C123.279,-208.963 167.615,-231.779 199.413,-248.142"/>
<polygon fill="red" stroke="red" points="197.942,-251.322 208.435,-252.785 201.145,-245.097 197.942,-251.322"/>
</g>
<!-- Geometry&#45;&gt;Geometry -->
<g id="edge24" class="edge"><title>Geometry&#45;&gt;Geometry</title>
<a xlink:href="./#contains" xlink:title="contains">
<path fill="none" stroke="darkslategray" d="M292.007,-266.567C302.529,-266.733 310,-267.211 310,-268 310,-268.493 307.081,-268.865 302.324,-269.115"/>
<polygon fill="darkslategray" stroke="darkslategray" points="301.894,-265.626 292.007,-269.433 302.111,-272.623 301.894,-265.626"/>
</a>
<a xlink:href="./#contains" xlink:title="contains">
<text text-anchor="middle" x="337.5" y="-263.4" font-family="Helvetica,sans-Serif" font-size="14.00">contains</text>
</a>
</g>
<!-- Geometry&#45;&gt;Geometry -->
<g id="edge26" class="edge"><title>Geometry&#45;&gt;Geometry</title>
<a xlink:href="./#crosses" xlink:title="crosses">
<path fill="none" stroke="darkslategray" d="M279.769,-256.519C318.368,-251.693 365,-255.52 365,-268 365,-279.408 326.038,-283.586 289.863,-280.534"/>
<polygon fill="darkslategray" stroke="darkslategray" points="290.078,-277.037 279.769,-279.481 289.352,-283.999 290.078,-277.037"/>
</a>
<a xlink:href="./#crosses" xlink:title="crosses">
<text text-anchor="middle" x="390" y="-263.4" font-family="Helvetica,sans-Serif" font-size="14.00">crosses</text>
</a>
</g>
<!-- Geometry&#45;&gt;Geometry -->
<g id="edge28" class="edge"><title>Geometry&#45;&gt;Geometry</title>
<a xlink:href="./#equals" xlink:title="equals">
<path fill="none" stroke="darkslategray" d="M280.416,-256.809C335.274,-249.231 415,-252.961 415,-268 415,-282.128 344.636,-286.276 290.631,-280.443"/>
<polygon fill="darkslategray" stroke="darkslategray" points="290.767,-276.934 280.416,-279.191 289.916,-283.882 290.767,-276.934"/>
</a>
<a xlink:href="./#equals" xlink:title="equals">
<text text-anchor="middle" x="436.5" y="-263.4" font-family="Helvetica,sans-Serif" font-size="14.00">equals</text>
</a>
</g>
<!-- Geometry&#45;&gt;Geometry -->
<g id="edge34" class="edge"><title>Geometry&#45;&gt;Geometry</title>
<a xlink:href="./#intersects" xlink:title="intersects">
<path fill="none" stroke="darkslategray" d="M280.537,-256.904C347.995,-247.006 458,-250.705 458,-268 458,-284.45 358.476,-288.6 290.705,-280.449"/>
<polygon fill="darkslategray" stroke="darkslategray" points="290.911,-276.946 280.537,-279.096 289.988,-283.885 290.911,-276.946"/>
</a>
<a xlink:href="./#intersects" xlink:title="intersects">
<text text-anchor="middle" x="490" y="-263.4" font-family="Helvetica,sans-Serif" font-size="14.00">intersects</text>
</a>
</g>
<!-- Geometry&#45;&gt;Geometry -->
<g id="edge36" class="edge"><title>Geometry&#45;&gt;Geometry</title>
<a xlink:href="./#near" xlink:title="near">
<path fill="none" stroke="darkslategray" d="M281.126,-257.164C365.078,-244.818 522,-248.43 522,-268 522,-286.806 377.098,-290.876 291.284,-280.21"/>
<polygon fill="darkslategray" stroke="darkslategray" points="291.504,-276.708 281.126,-278.836 290.566,-283.645 291.504,-276.708"/>
</a>
<a xlink:href="./#near" xlink:title="near">
<text text-anchor="middle" x="537" y="-263.4" font-family="Helvetica,sans-Serif" font-size="14.00">near</text>
</a>
</g>
<!-- Geometry&#45;&gt;Geometry -->
<g id="edge38" class="edge"><title>Geometry&#45;&gt;Geometry</title>
<a xlink:href="./#overlaps" xlink:title="overlaps">
<path fill="none" stroke="darkslategray" d="M281.085,-256.998C372.852,-242.751 552,-246.418 552,-268 552,-288.823 385.227,-292.969 291.076,-280.438"/>
<polygon fill="darkslategray" stroke="darkslategray" points="291.481,-276.96 281.085,-279.002 290.485,-283.889 291.481,-276.96"/>
</a>
<a xlink:href="./#overlaps" xlink:title="overlaps">
<text text-anchor="middle" x="579.5" y="-263.4" font-family="Helvetica,sans-Serif" font-size="14.00">overlaps</text>
</a>
</g>
<!-- Geometry&#45;&gt;Geometry -->
<g id="edge40" class="edge"><title>Geometry&#45;&gt;Geometry</title>
<a xlink:href="./#touches" xlink:title="touches">
<path fill="none" stroke="darkslategray" d="M281.146,-257.096C385.488,-240.658 607,-244.293 607,-268 607,-290.966 399.116,-295.095 291.261,-280.387"/>
<polygon fill="darkslategray" stroke="darkslategray" points="291.548,-276.891 281.146,-278.904 290.533,-283.817 291.548,-276.891"/>
</a>
<a xlink:href="./#touches" xlink:title="touches">
<text text-anchor="middle" x="633" y="-263.4" font-family="Helvetica,sans-Serif" font-size="14.00">touches</text>
</a>
</g>
<!-- Geometry&#45;&gt;Geometry -->
<g id="edge42" class="edge"><title>Geometry&#45;&gt;Geometry</title>
<a xlink:href="./#within" xlink:title="within">
<path fill="none" stroke="darkslategray" d="M281.198,-257.124C396.823,-238.593 659,-242.219 659,-268 659,-293.051 411.463,-297.184 291.365,-280.398"/>
<polygon fill="darkslategray" stroke="darkslategray" points="291.606,-276.895 281.198,-278.876 290.57,-283.818 291.606,-276.895"/>
</a>
<a xlink:href="./#within" xlink:title="within">
<text text-anchor="middle" x="677.5" y="-263.4" font-family="Helvetica,sans-Serif" font-size="14.00">within</text>
</a>
</g>
<!-- http://www.w3.org/2000/01/rdf&#45;schema#Literal -->
<g id="node16" class="node"><title>http://www.w3.org/2000/01/rdf&#45;schema#Literal</title>
<a xlink:href="./#http://www.w3.org/2000/01/rdf-schema#Literal" xlink:title="http://www.w3.org/2000/01/rdf&#45;schema#Literal">
<ellipse fill="none" stroke="gray" cx="238" cy="-356" rx="208.796" ry="18"/>
<text text-anchor="middle" x="238" y="-351.4" font-family="Helvetica,sans-Serif" font-size="14.00" fill="gray">http://www.w3.org/2000/01/rdf&#45;schema#Literal</text>
</a>
</g>
<!-- Geometry&#45;&gt;http://www.w3.org/2000/01/rdf&#45;schema#Literal -->
<g id="edge14" class="edge"><title>Geometry&#45;&gt;http://www.w3.org/2000/01/rdf&#45;schema#Literal</title>
<a xlink:href="./#asWKT" xlink:title="asWKT">
<path fill="none" stroke="darkslategray" d="M238,-286.234C238,-298.151 238,-313.962 238,-327.518"/>
<polygon fill="darkslategray" stroke="darkslategray" points="234.5,-327.79 238,-337.79 241.5,-327.79 234.5,-327.79"/>
</a>
<a xlink:href="./#asWKT" xlink:title="asWKT">
<text text-anchor="middle" x="262" y="-307.4" font-family="Helvetica,sans-Serif" font-size="14.00">asWKT</text>
</a>
</g>
<!-- LineString -->
<g id="node9" class="node"><title>LineString</title>
<a xlink:href="./#LineString" xlink:title="LineString">
<ellipse fill="none" stroke="black" cx="185" cy="-180" rx="55.0073" ry="18"/>
<text text-anchor="middle" x="185" y="-175.4" font-family="Helvetica,sans-Serif" font-size="14.00">LineString</text>
</a>
</g>
<!-- LineString&#45;&gt;Geometry -->
<g id="edge6" class="edge"><title>LineString&#45;&gt;Geometry</title>
<path fill="none" stroke="red" stroke-dasharray="5,2" d="M195.725,-197.808C203.268,-210.332 213.492,-227.308 221.996,-241.428"/>
<polygon fill="red" stroke="red" points="219.133,-243.458 227.291,-250.218 225.13,-239.846 219.133,-243.458"/>
</g>
<!-- Point -->
<g id="node11" class="node"><title>Point</title>
<a xlink:href="./#Point" xlink:title="Point">
<ellipse fill="none" stroke="black" cx="291" cy="-180" rx="33.0404" ry="18"/>
<text text-anchor="middle" x="291" y="-175.4" font-family="Helvetica,sans-Serif" font-size="14.00">Point</text>
</a>
</g>
<!-- Point&#45;&gt;Geometry -->
<g id="edge8" class="edge"><title>Point&#45;&gt;Geometry</title>
<path fill="none" stroke="red" stroke-dasharray="5,2" d="M280.529,-197.386C272.956,-209.959 262.587,-227.177 253.983,-241.463"/>
<polygon fill="red" stroke="red" points="250.792,-239.977 248.631,-250.349 256.788,-243.588 250.792,-239.977"/>
</g>
<!-- PopulatedPlace -->
<g id="node14" class="node"><title>PopulatedPlace</title>
<a xlink:href="./#PopulatedPlace" xlink:title="PopulatedPlace">
<ellipse fill="none" stroke="black" cx="588" cy="-18" rx="79.8276" ry="18"/>
<text text-anchor="middle" x="588" y="-13.4" font-family="Helvetica,sans-Serif" font-size="14.00">PopulatedPlace</text>
</a>
</g>
<!-- PopulatedPlace&#45;&gt;AdminUnit -->
<g id="edge12" class="edge"><title>PopulatedPlace&#45;&gt;AdminUnit</title>
<path fill="none" stroke="red" stroke-dasharray="5,2" d="M588,-36.2921C588,-44.5365 588,-54.4624 588,-63.6378"/>
<polygon fill="red" stroke="red" points="584.5,-63.9182 588,-73.9183 591.5,-63.9183 584.5,-63.9182"/>
</g>
<!-- Emergency -->
<g id="node19" class="node"><title>Emergency</title>
<a xlink:href="./#Emergency" xlink:title="Emergency">
<ellipse fill="none" stroke="gray" cx="236" cy="-92" rx="59.8749" ry="18"/>
<text text-anchor="middle" x="236" y="-87.4" font-family="Helvetica,sans-Serif" font-size="14.00" fill="gray">Emergency</text>
</a>
</g>
<!-- Emergency&#45;&gt;Feature -->
<g id="edge18" class="edge"><title>Emergency&#45;&gt;Feature</title>
<a xlink:href="./#atLocation" xlink:title="atLocation">
<path fill="none" stroke="darkslategray" d="M253.565,-109.322C265.392,-120.304 281.744,-134.231 298,-144 311.581,-152.162 327.348,-159.226 341.805,-164.883"/>
<polygon fill="darkslategray" stroke="darkslategray" points="340.97,-168.308 351.561,-168.57 343.444,-161.761 340.97,-168.308"/>
</a>
<a xlink:href="./#atLocation" xlink:title="atLocation">
<text text-anchor="middle" x="333" y="-131.4" font-family="Helvetica,sans-Serif" font-size="14.00">atLocation</text>
</a>
</g>
<!-- Situation -->
<g id="node21" class="node"><title>Situation</title>
<a xlink:href="./#Situation" xlink:title="Situation">
<ellipse fill="none" stroke="gray" cx="363" cy="-92" rx="49.1393" ry="18"/>
<text text-anchor="middle" x="363" y="-87.4" font-family="Helvetica,sans-Serif" font-size="14.00" fill="gray">Situation</text>
</a>
</g>
<!-- Situation&#45;&gt;Feature -->
<g id="edge20" class="edge"><title>Situation&#45;&gt;Feature</title>
<a xlink:href="./#atLocation" xlink:title="atLocation">
<path fill="none" stroke="darkslategray" d="M367.973,-110.234C371.277,-122.349 375.679,-138.489 379.416,-152.193"/>
<polygon fill="darkslategray" stroke="darkslategray" points="376.108,-153.364 382.116,-162.091 382.861,-151.522 376.108,-153.364"/>
</a>
<a xlink:href="./#atLocation" xlink:title="atLocation">
<text text-anchor="middle" x="412" y="-131.4" font-family="Helvetica,sans-Serif" font-size="14.00">atLocation</text>
</a>
</g>
<!-- Activity -->
<g id="node23" class="node"><title>Activity</title>
<a xlink:href="./#Activity" xlink:title="Activity">
<ellipse fill="none" stroke="gray" cx="472" cy="-92" rx="41.7645" ry="18"/>
<text text-anchor="middle" x="472" y="-87.4" font-family="Helvetica,sans-Serif" font-size="14.00" fill="gray">Activity</text>
</a>
</g>
<!-- Activity&#45;&gt;Feature -->
<g id="edge22" class="edge"><title>Activity&#45;&gt;Feature</title>
<a xlink:href="./#atLocation" xlink:title="atLocation">
<path fill="none" stroke="darkslategray" d="M467.159,-109.951C463.538,-120.773 457.695,-134.295 449,-144 442.778,-150.944 434.89,-156.906 426.842,-161.867"/>
<polygon fill="darkslategray" stroke="darkslategray" points="425.061,-158.854 418.118,-166.856 428.536,-164.93 425.061,-158.854"/>
</a>
<a xlink:href="./#atLocation" xlink:title="atLocation">
<text text-anchor="middle" x="494" y="-131.4" font-family="Helvetica,sans-Serif" font-size="14.00">atLocation</text>
</a>
</g>
</g>
</svg>
