<?xml version="1.0" encoding="UTF-8" standalone="no"?>
<!DOCTYPE svg PUBLIC "-//W3C//DTD SVG 1.1//EN"
 "http://www.w3.org/Graphics/SVG/1.1/DTD/svg11.dtd">
<!-- Generated by graphviz version 2.26.3 (20100126.1600)
 -->
<!-- Title: _anonymous_0 Pages: 1 -->
<svg width="714pt" height="206pt"
 viewBox="0.00 0.00 714.00 206.00" xmlns="http://www.w3.org/2000/svg" xmlns:xlink="http://www.w3.org/1999/xlink">
<g id="graph1" class="graph" transform="scale(1 1) rotate(0) translate(4 202)">
<title>_anonymous_0</title>
<polygon fill="white" stroke="white" points="-4,5 -4,-202 711,-202 711,5 -4,5"/>
<!-- ReportingPeriod -->
<g id="node1" class="node"><title>ReportingPeriod</title>
<a xlink:href="./#ReportingPeriod" xlink:title="ReportingPeriod">
<ellipse fill="none" stroke="black" cx="173" cy="-18" rx="82.0108" ry="18"/>
<text text-anchor="middle" x="173" y="-13.4" font-family="Helvetica,sans-Serif" font-size="14.00">ReportingPeriod</text>
</a>
</g>
<!-- http://purl.org/dc/terms/PeriodOfTime -->
<g id="node3" class="node"><title>http://purl.org/dc/terms/PeriodOfTime</title>
<a xlink:href="./#http://purl.org/dc/terms/PeriodOfTime" xlink:title="http://purl.org/dc/terms/PeriodOfTime">
<ellipse fill="none" stroke="black" cx="173" cy="-92" rx="173.242" ry="18"/>
<text text-anchor="middle" x="173" y="-87.4" font-family="Helvetica,sans-Serif" font-size="14.00">http://purl.org/dc/terms/PeriodOfTime</text>
</a>
</g>
<!-- ReportingPeriod&#45;&gt;http://purl.org/dc/terms/PeriodOfTime -->
<g id="edge2" class="edge"><title>ReportingPeriod&#45;&gt;http://purl.org/dc/terms/PeriodOfTime</title>
<path fill="none" stroke="red" stroke-dasharray="5,2" d="M173,-36.2921C173,-44.5365 173,-54.4624 173,-63.6378"/>
<polygon fill="red" stroke="red" points="169.5,-63.9182 173,-73.9183 176.5,-63.9183 169.5,-63.9182"/>
</g>
<!-- http://www.w3.org/2000/01/rdf&#45;schema#Literal -->
<g id="node6" class="node"><title>http://www.w3.org/2000/01/rdf&#45;schema#Literal</title>
<ellipse fill="none" stroke="black" cx="433" cy="-180" rx="208.796" ry="18"/>
<text text-anchor="middle" x="433" y="-175.4" font-family="Helvetica,sans-Serif" font-size="14.00">http://www.w3.org/2000/01/rdf&#45;schema#Literal</text>
</g>
<!-- http://purl.org/dc/terms/PeriodOfTime&#45;&gt;http://www.w3.org/2000/01/rdf&#45;schema#Literal -->
<g id="edge6" class="edge"><title>http://purl.org/dc/terms/PeriodOfTime&#45;&gt;http://www.w3.org/2000/01/rdf&#45;schema#Literal</title>
<a xlink:href="./#end" xlink:title="end">
<path fill="none" stroke="darkslategray" d="M195.502,-109.963C210.862,-121.355 232.137,-135.5 253,-144 271.642,-151.595 292.043,-157.634 312.199,-162.422"/>
<polygon fill="darkslategray" stroke="darkslategray" points="311.538,-165.861 322.066,-164.673 313.095,-159.036 311.538,-165.861"/>
</a>
<a xlink:href="./#end" xlink:title="end">
<text text-anchor="middle" x="265.5" y="-131.4" font-family="Helvetica,sans-Serif" font-size="14.00">end</text>
</a>
</g>
<!-- http://purl.org/dc/terms/PeriodOfTime&#45;&gt;http://www.w3.org/2000/01/rdf&#45;schema#Literal -->
<g id="edge10" class="edge"><title>http://purl.org/dc/terms/PeriodOfTime&#45;&gt;http://www.w3.org/2000/01/rdf&#45;schema#Literal</title>
<a xlink:href="./#start" xlink:title="start">
<path fill="none" stroke="darkslategray" d="M224.057,-109.281C266.356,-123.597 326.598,-143.987 371.538,-159.197"/>
<polygon fill="darkslategray" stroke="darkslategray" points="370.576,-162.567 381.17,-162.458 372.82,-155.936 370.576,-162.567"/>
</a>
<a xlink:href="./#start" xlink:title="start">
<text text-anchor="middle" x="342.5" y="-131.4" font-family="Helvetica,sans-Serif" font-size="14.00">start</text>
</a>
</g>
<!-- http://www.w3.org/2002/07/owl#Thing -->
<g id="node4" class="node"><title>http://www.w3.org/2002/07/owl#Thing</title>
<ellipse fill="none" stroke="black" cx="535" cy="-92" rx="171.059" ry="18"/>
<text text-anchor="middle" x="535" y="-87.4" font-family="Helvetica,sans-Serif" font-size="14.00">http://www.w3.org/2002/07/owl#Thing</text>
</g>
<!-- http://www.w3.org/2002/07/owl#Thing&#45;&gt;http://www.w3.org/2000/01/rdf&#45;schema#Literal -->
<g id="edge4" class="edge"><title>http://www.w3.org/2002/07/owl#Thing&#45;&gt;http://www.w3.org/2000/01/rdf&#45;schema#Literal</title>
<a xlink:href="./#end" xlink:title="end">
<path fill="none" stroke="darkslategray" d="M470.184,-108.745C453.61,-114.374 439.029,-121.012 434,-128 429.179,-134.699 427.673,-143.244 427.73,-151.462"/>
<polygon fill="darkslategray" stroke="darkslategray" points="424.248,-151.832 428.505,-161.533 431.227,-151.294 424.248,-151.832"/>
</a>
<a xlink:href="./#end" xlink:title="end">
<text text-anchor="middle" x="446.5" y="-131.4" font-family="Helvetica,sans-Serif" font-size="14.00">end</text>
</a>
</g>
<!-- http://www.w3.org/2002/07/owl#Thing&#45;&gt;http://www.w3.org/2000/01/rdf&#45;schema#Literal -->
<g id="edge8" class="edge"><title>http://www.w3.org/2002/07/owl#Thing&#45;&gt;http://www.w3.org/2000/01/rdf&#45;schema#Literal</title>
<a xlink:href="./#start" xlink:title="start">
<path fill="none" stroke="darkslategray" d="M506.382,-109.773C498.236,-115.27 489.534,-121.578 482,-128 472.749,-135.886 463.399,-145.354 455.383,-154.038"/>
<polygon fill="darkslategray" stroke="darkslategray" points="452.545,-151.959 448.437,-161.725 457.739,-156.652 452.545,-151.959"/>
</a>
<a xlink:href="./#start" xlink:title="start">
<text text-anchor="middle" x="497.5" y="-131.4" font-family="Helvetica,sans-Serif" font-size="14.00">start</text>
</a>
</g>
<!-- http://www.w3.org/2002/07/owl#Thing&#45;&gt;http://www.w3.org/2000/01/rdf&#45;schema#Literal -->
<g id="edge12" class="edge"><title>http://www.w3.org/2002/07/owl#Thing&#45;&gt;http://www.w3.org/2000/01/rdf&#45;schema#Literal</title>
<a xlink:href="./#http://purl.org/dc/terms/date" xlink:title="http://purl.org/dc/terms/date">
<path fill="none" stroke="darkslategray" d="M530.882,-110.269C527.612,-121.212 522.045,-134.748 513,-144 507.949,-149.166 502.023,-153.654 495.72,-157.537"/>
<polygon fill="darkslategray" stroke="darkslategray" points="493.946,-154.519 486.938,-162.465 497.371,-160.624 493.946,-154.519"/>
</a>
<a xlink:href="./#http://purl.org/dc/terms/date" xlink:title="http://purl.org/dc/terms/date">
<text text-anchor="middle" x="613.5" y="-131.4" font-family="Helvetica,sans-Serif" font-size="14.00">http://purl.org/dc/terms/date</text>
</a>
</g>
</g>
</svg>
