<?xml version="1.0" encoding="UTF-8" standalone="no"?>
<!DOCTYPE svg PUBLIC "-//W3C//DTD SVG 1.1//EN"
 "http://www.w3.org/Graphics/SVG/1.1/DTD/svg11.dtd">
<!-- Generated by graphviz version 2.26.3 (20100126.1600)
 -->
<!-- Title: _anonymous_0 Pages: 1 -->
<svg width="1074pt" height="308pt"
 viewBox="0.00 0.00 1074.00 308.00" xmlns="http://www.w3.org/2000/svg" xmlns:xlink="http://www.w3.org/1999/xlink">
<g id="graph1" class="graph" transform="scale(1 1) rotate(0) translate(4 304)">
<title>_anonymous_0</title>
<polygon fill="white" stroke="white" points="-4,5 -4,-304 1071,-304 1071,5 -4,5"/>
<!-- AdminUnit -->
<g id="node1" class="node"><title>AdminUnit</title>
<a xlink:href="./#AdminUnit" xlink:title="AdminUnit">
<ellipse fill="none" stroke="black" cx="207" cy="-18" rx="55.1765" ry="18"/>
<text text-anchor="middle" x="207" y="-13.4" font-family="Helvetica,sans-Serif" font-size="14.00">AdminUnit</text>
</a>
</g>
<!-- AdminUnit&#45;&gt;AdminUnit -->
<g id="edge22" class="edge"><title>AdminUnit&#45;&gt;AdminUnit</title>
<a xlink:href="./#inAdminUnit" xlink:title="inAdminUnit">
<path fill="none" stroke="darkslategray" d="M256.129,-9.80035C269.66,-10.1965 280,-12.9297 280,-18 280,-21.7235 274.424,-24.1866 266.102,-25.3893"/>
<polygon fill="darkslategray" stroke="darkslategray" points="265.813,-21.9012 256.129,-26.1996 266.38,-28.8782 265.813,-21.9012"/>
</a>
<a xlink:href="./#inAdminUnit" xlink:title="inAdminUnit">
<text text-anchor="middle" x="318.5" y="-13.4" font-family="Helvetica,sans-Serif" font-size="14.00">inAdminUnit</text>
</a>
</g>
<!-- Feature -->
<g id="node3" class="node"><title>Feature</title>
<a xlink:href="./#Feature" xlink:title="Feature">
<ellipse fill="none" stroke="black" cx="420" cy="-106" rx="45.1145" ry="18"/>
<text text-anchor="middle" x="420" y="-101.4" font-family="Helvetica,sans-Serif" font-size="14.00">Feature</text>
</a>
</g>
<!-- AdminUnit&#45;&gt;Feature -->
<g id="edge2" class="edge"><title>AdminUnit&#45;&gt;Feature</title>
<path fill="none" stroke="red" stroke-dasharray="5,2" d="M241.222,-32.1387C278.812,-47.6687 339.147,-72.5957 379.176,-89.1337"/>
<polygon fill="red" stroke="red" points="378.06,-92.4597 388.639,-93.0434 380.733,-85.9901 378.06,-92.4597"/>
</g>
<!-- AdminUnitLevel -->
<g id="node4" class="node"><title>AdminUnitLevel</title>
<a xlink:href="./#AdminUnitLevel" xlink:title="AdminUnitLevel">
<ellipse fill="none" stroke="black" cx="208" cy="-106" rx="77.8152" ry="18"/>
<text text-anchor="middle" x="208" y="-101.4" font-family="Helvetica,sans-Serif" font-size="14.00">AdminUnitLevel</text>
</a>
</g>
<!-- AdminUnit&#45;&gt;AdminUnitLevel -->
<g id="edge26" class="edge"><title>AdminUnit&#45;&gt;AdminUnitLevel</title>
<a xlink:href="./#level" xlink:title="level">
<path fill="none" stroke="darkslategray" d="M207.207,-36.2337C207.343,-48.1508 207.522,-63.9616 207.676,-77.5183"/>
<polygon fill="darkslategray" stroke="darkslategray" points="204.18,-77.8302 207.793,-87.7897 211.179,-77.7505 204.18,-77.8302"/>
</a>
<a xlink:href="./#level" xlink:title="level">
<text text-anchor="middle" x="222" y="-57.4" font-family="Helvetica,sans-Serif" font-size="14.00">level</text>
</a>
</g>
<!-- Geometry -->
<g id="node8" class="node"><title>Geometry</title>
<a xlink:href="./#Geometry" xlink:title="Geometry">
<ellipse fill="none" stroke="black" cx="482" cy="-194" rx="53.838" ry="18"/>
<text text-anchor="middle" x="482" y="-189.4" font-family="Helvetica,sans-Serif" font-size="14.00">Geometry</text>
</a>
</g>
<!-- Feature&#45;&gt;Geometry -->
<g id="edge20" class="edge"><title>Feature&#45;&gt;Geometry</title>
<a xlink:href="./#hasGeometry" xlink:title="hasGeometry">
<path fill="none" stroke="darkslategray" d="M418.828,-124.111C418.978,-134.73 420.684,-147.983 427,-158 430.721,-163.902 435.802,-169.039 441.381,-173.439"/>
<polygon fill="darkslategray" stroke="darkslategray" points="439.616,-176.476 449.811,-179.361 443.64,-170.748 439.616,-176.476"/>
</a>
<a xlink:href="./#hasGeometry" xlink:title="hasGeometry">
<text text-anchor="middle" x="471" y="-145.4" font-family="Helvetica,sans-Serif" font-size="14.00">hasGeometry</text>
</a>
</g>
<!-- BoundingBox -->
<g id="node5" class="node"><title>BoundingBox</title>
<a xlink:href="./#BoundingBox" xlink:title="BoundingBox">
<ellipse fill="none" stroke="black" cx="67" cy="-18" rx="67.082" ry="18"/>
<text text-anchor="middle" x="67" y="-13.4" font-family="Helvetica,sans-Serif" font-size="14.00">BoundingBox</text>
</a>
</g>
<!-- Polygon -->
<g id="node7" class="node"><title>Polygon</title>
<a xlink:href="./#Polygon" xlink:title="Polygon">
<ellipse fill="none" stroke="black" cx="67" cy="-106" rx="45.1145" ry="18"/>
<text text-anchor="middle" x="67" y="-101.4" font-family="Helvetica,sans-Serif" font-size="14.00">Polygon</text>
</a>
</g>
<!-- BoundingBox&#45;&gt;Polygon -->
<g id="edge4" class="edge"><title>BoundingBox&#45;&gt;Polygon</title>
<path fill="none" stroke="red" stroke-dasharray="5,2" d="M67,-36.2337C67,-48.1508 67,-63.9616 67,-77.5183"/>
<polygon fill="red" stroke="red" points="63.5001,-77.7897 67,-87.7897 70.5001,-77.7897 63.5001,-77.7897"/>
</g>
<!-- Polygon&#45;&gt;Geometry -->
<g id="edge10" class="edge"><title>Polygon&#45;&gt;Geometry</title>
<path fill="none" stroke="red" stroke-dasharray="5,2" d="M100.788,-118.011C107.442,-120.164 114.405,-122.269 121,-124 225.91,-151.531 350.569,-173.35 422.558,-184.914"/>
<polygon fill="red" stroke="red" points="422.362,-188.427 432.789,-186.545 423.464,-181.514 422.362,-188.427"/>
</g>
<!-- Geometry&#45;&gt;Geometry -->
<g id="edge24" class="edge"><title>Geometry&#45;&gt;Geometry</title>
<a xlink:href="./#intersects" xlink:title="intersects">
<path fill="none" stroke="darkslategray" d="M524.537,-182.904C591.995,-173.006 702,-176.705 702,-194 702,-210.45 602.476,-214.6 534.705,-206.449"/>
<polygon fill="darkslategray" stroke="darkslategray" points="534.911,-202.946 524.537,-205.096 533.988,-209.885 534.911,-202.946"/>
</a>
<a xlink:href="./#intersects" xlink:title="intersects">
<text text-anchor="middle" x="734" y="-189.4" font-family="Helvetica,sans-Serif" font-size="14.00">intersects</text>
</a>
</g>
<!-- Geometry&#45;&gt;Geometry -->
<g id="edge34" class="edge"><title>Geometry&#45;&gt;Geometry</title>
<a xlink:href="./#near" xlink:title="near">
<path fill="none" stroke="darkslategray" d="M525.126,-183.164C609.078,-170.818 766,-174.43 766,-194 766,-212.806 621.098,-216.876 535.284,-206.21"/>
<polygon fill="darkslategray" stroke="darkslategray" points="535.504,-202.708 525.126,-204.836 534.566,-209.645 535.504,-202.708"/>
</a>
<a xlink:href="./#near" xlink:title="near">
<text text-anchor="middle" x="781" y="-189.4" font-family="Helvetica,sans-Serif" font-size="14.00">near</text>
</a>
</g>
<!-- Geometry&#45;&gt;Geometry -->
<g id="edge36" class="edge"><title>Geometry&#45;&gt;Geometry</title>
<a xlink:href="./#overlaps" xlink:title="overlaps">
<path fill="none" stroke="darkslategray" d="M525.085,-182.998C616.852,-168.751 796,-172.418 796,-194 796,-214.823 629.227,-218.969 535.076,-206.438"/>
<polygon fill="darkslategray" stroke="darkslategray" points="535.481,-202.96 525.085,-205.002 534.485,-209.889 535.481,-202.96"/>
</a>
<a xlink:href="./#overlaps" xlink:title="overlaps">
<text text-anchor="middle" x="823.5" y="-189.4" font-family="Helvetica,sans-Serif" font-size="14.00">overlaps</text>
</a>
</g>
<!-- Geometry&#45;&gt;Geometry -->
<g id="edge38" class="edge"><title>Geometry&#45;&gt;Geometry</title>
<a xlink:href="./#touches" xlink:title="touches">
<path fill="none" stroke="darkslategray" d="M525.146,-183.096C629.488,-166.658 851,-170.293 851,-194 851,-216.966 643.116,-221.095 535.261,-206.387"/>
<polygon fill="darkslategray" stroke="darkslategray" points="535.548,-202.891 525.146,-204.904 534.533,-209.817 535.548,-202.891"/>
</a>
<a xlink:href="./#touches" xlink:title="touches">
<text text-anchor="middle" x="877" y="-189.4" font-family="Helvetica,sans-Serif" font-size="14.00">touches</text>
</a>
</g>
<!-- Geometry&#45;&gt;Geometry -->
<g id="edge40" class="edge"><title>Geometry&#45;&gt;Geometry</title>
<a xlink:href="./#within" xlink:title="within">
<path fill="none" stroke="darkslategray" d="M525.198,-183.124C640.823,-164.593 903,-168.219 903,-194 903,-219.051 655.463,-223.184 535.365,-206.398"/>
<polygon fill="darkslategray" stroke="darkslategray" points="535.606,-202.895 525.198,-204.876 534.57,-209.818 535.606,-202.895"/>
</a>
<a xlink:href="./#within" xlink:title="within">
<text text-anchor="middle" x="921.5" y="-189.4" font-family="Helvetica,sans-Serif" font-size="14.00">within</text>
</a>
</g>
<!-- Geometry&#45;&gt;Geometry -->
<g id="edge14" class="edge"><title>Geometry&#45;&gt;Geometry</title>
<a xlink:href="./#contains" xlink:title="contains">
<path fill="none" stroke="darkslategray" d="M536.007,-192.567C546.529,-192.733 554,-193.211 554,-194 554,-194.493 551.081,-194.865 546.324,-195.115"/>
<polygon fill="darkslategray" stroke="darkslategray" points="545.894,-191.626 536.007,-195.433 546.111,-198.623 545.894,-191.626"/>
</a>
<a xlink:href="./#contains" xlink:title="contains">
<text text-anchor="middle" x="581.5" y="-189.4" font-family="Helvetica,sans-Serif" font-size="14.00">contains</text>
</a>
</g>
<!-- Geometry&#45;&gt;Geometry -->
<g id="edge16" class="edge"><title>Geometry&#45;&gt;Geometry</title>
<a xlink:href="./#crosses" xlink:title="crosses">
<path fill="none" stroke="darkslategray" d="M523.769,-182.519C562.368,-177.693 609,-181.52 609,-194 609,-205.408 570.038,-209.586 533.863,-206.534"/>
<polygon fill="darkslategray" stroke="darkslategray" points="534.078,-203.037 523.769,-205.481 533.352,-209.999 534.078,-203.037"/>
</a>
<a xlink:href="./#crosses" xlink:title="crosses">
<text text-anchor="middle" x="634" y="-189.4" font-family="Helvetica,sans-Serif" font-size="14.00">crosses</text>
</a>
</g>
<!-- Geometry&#45;&gt;Geometry -->
<g id="edge18" class="edge"><title>Geometry&#45;&gt;Geometry</title>
<a xlink:href="./#equals" xlink:title="equals">
<path fill="none" stroke="darkslategray" d="M524.416,-182.809C579.274,-175.231 659,-178.961 659,-194 659,-208.128 588.636,-212.276 534.631,-206.443"/>
<polygon fill="darkslategray" stroke="darkslategray" points="534.767,-202.934 524.416,-205.191 533.916,-209.882 534.767,-202.934"/>
</a>
<a xlink:href="./#equals" xlink:title="equals">
<text text-anchor="middle" x="680.5" y="-189.4" font-family="Helvetica,sans-Serif" font-size="14.00">equals</text>
</a>
</g>
<!-- http://www.w3.org/2000/01/rdf&#45;schema#Literal -->
<g id="node15" class="node"><title>http://www.w3.org/2000/01/rdf&#45;schema#Literal</title>
<ellipse fill="none" stroke="black" cx="482" cy="-282" rx="208.796" ry="18"/>
<text text-anchor="middle" x="482" y="-277.4" font-family="Helvetica,sans-Serif" font-size="14.00">http://www.w3.org/2000/01/rdf&#45;schema#Literal</text>
</g>
<!-- Geometry&#45;&gt;http://www.w3.org/2000/01/rdf&#45;schema#Literal -->
<g id="edge12" class="edge"><title>Geometry&#45;&gt;http://www.w3.org/2000/01/rdf&#45;schema#Literal</title>
<a xlink:href="./#asWKT" xlink:title="asWKT">
<path fill="none" stroke="darkslategray" d="M482,-212.234C482,-224.151 482,-239.962 482,-253.518"/>
<polygon fill="darkslategray" stroke="darkslategray" points="478.5,-253.79 482,-263.79 485.5,-253.79 478.5,-253.79"/>
</a>
<a xlink:href="./#asWKT" xlink:title="asWKT">
<text text-anchor="middle" x="506" y="-233.4" font-family="Helvetica,sans-Serif" font-size="14.00">asWKT</text>
</a>
</g>
<!-- LineString -->
<g id="node9" class="node"><title>LineString</title>
<a xlink:href="./#LineString" xlink:title="LineString">
<ellipse fill="none" stroke="black" cx="538" cy="-106" rx="55.0073" ry="18"/>
<text text-anchor="middle" x="538" y="-101.4" font-family="Helvetica,sans-Serif" font-size="14.00">LineString</text>
</a>
</g>
<!-- LineString&#45;&gt;Geometry -->
<g id="edge6" class="edge"><title>LineString&#45;&gt;Geometry</title>
<path fill="none" stroke="red" stroke-dasharray="5,2" d="M533.516,-124.255C530.438,-134.674 525.688,-147.674 519,-158 516.339,-162.109 513.129,-166.104 509.725,-169.846"/>
<polygon fill="red" stroke="red" points="507.086,-167.538 502.581,-177.127 512.082,-172.441 507.086,-167.538"/>
</g>
<!-- Point -->
<g id="node11" class="node"><title>Point</title>
<a xlink:href="./#Point" xlink:title="Point">
<ellipse fill="none" stroke="black" cx="644" cy="-106" rx="33.0404" ry="18"/>
<text text-anchor="middle" x="644" y="-101.4" font-family="Helvetica,sans-Serif" font-size="14.00">Point</text>
</a>
</g>
<!-- Point&#45;&gt;Geometry -->
<g id="edge8" class="edge"><title>Point&#45;&gt;Geometry</title>
<path fill="none" stroke="red" stroke-dasharray="5,2" d="M620.444,-118.796C593.927,-133.2 550.488,-156.797 519.337,-173.718"/>
<polygon fill="red" stroke="red" points="517.616,-170.67 510.499,-178.519 520.957,-176.821 517.616,-170.67"/>
</g>
<!-- Emergency -->
<g id="node23" class="node"><title>Emergency</title>
<ellipse fill="none" stroke="black" cx="659" cy="-18" rx="59.8749" ry="18"/>
<text text-anchor="middle" x="659" y="-13.4" font-family="Helvetica,sans-Serif" font-size="14.00">Emergency</text>
</g>
<!-- Emergency&#45;&gt;Feature -->
<g id="edge28" class="edge"><title>Emergency&#45;&gt;Feature</title>
<a xlink:href="./#location" xlink:title="location">
<path fill="none" stroke="darkslategray" d="M629.819,-33.8245C608.043,-45.1278 577.293,-60.0374 549,-70 516.666,-81.3856 506.958,-78.5711 474,-88 470.669,-88.953 467.237,-89.9827 463.795,-91.0501"/>
<polygon fill="darkslategray" stroke="darkslategray" points="462.607,-87.7552 454.141,-94.1258 464.732,-94.4249 462.607,-87.7552"/>
</a>
<a xlink:href="./#location" xlink:title="location">
<text text-anchor="middle" x="612" y="-57.4" font-family="Helvetica,sans-Serif" font-size="14.00">location</text>
</a>
</g>
<!-- Incident -->
<g id="node25" class="node"><title>Incident</title>
<ellipse fill="none" stroke="black" cx="420" cy="-18" rx="45.1145" ry="18"/>
<text text-anchor="middle" x="420" y="-13.4" font-family="Helvetica,sans-Serif" font-size="14.00">Incident</text>
</g>
<!-- Incident&#45;&gt;Feature -->
<g id="edge30" class="edge"><title>Incident&#45;&gt;Feature</title>
<a xlink:href="./#location" xlink:title="location">
<path fill="none" stroke="darkslategray" d="M420,-36.2337C420,-48.1508 420,-63.9616 420,-77.5183"/>
<polygon fill="darkslategray" stroke="darkslategray" points="416.5,-77.7897 420,-87.7897 423.5,-77.7897 416.5,-77.7897"/>
</a>
<a xlink:href="./#location" xlink:title="location">
<text text-anchor="middle" x="446" y="-57.4" font-family="Helvetica,sans-Serif" font-size="14.00">location</text>
</a>
</g>
<!-- Situation -->
<g id="node27" class="node"><title>Situation</title>
<ellipse fill="none" stroke="black" cx="532" cy="-18" rx="49.1393" ry="18"/>
<text text-anchor="middle" x="532" y="-13.4" font-family="Helvetica,sans-Serif" font-size="14.00">Situation</text>
</g>
<!-- Situation&#45;&gt;Feature -->
<g id="edge32" class="edge"><title>Situation&#45;&gt;Feature</title>
<a xlink:href="./#location" xlink:title="location">
<path fill="none" stroke="darkslategray" d="M515.051,-35.2254C504.293,-45.7748 489.837,-59.2645 476,-70 469.108,-75.347 461.413,-80.67 453.987,-85.5186"/>
<polygon fill="darkslategray" stroke="darkslategray" points="452.002,-82.6334 445.458,-90.9654 455.77,-88.5331 452.002,-82.6334"/>
</a>
<a xlink:href="./#location" xlink:title="location">
<text text-anchor="middle" x="519" y="-57.4" font-family="Helvetica,sans-Serif" font-size="14.00">location</text>
</a>
</g>
</g>
</svg>
