<?xml version="1.0" encoding="UTF-8" standalone="no"?>
<!DOCTYPE svg PUBLIC "-//W3C//DTD SVG 1.1//EN"
 "http://www.w3.org/Graphics/SVG/1.1/DTD/svg11.dtd">
<!-- Generated by graphviz version 2.26.3 (20100126.1600)
 -->
<!-- Title: _anonymous_0 Pages: 1 -->
<svg width="524pt" height="396pt"
 viewBox="0.00 0.00 524.00 396.00" xmlns="http://www.w3.org/2000/svg" xmlns:xlink="http://www.w3.org/1999/xlink">
<g id="graph1" class="graph" transform="scale(1 1) rotate(0) translate(4 392)">
<title>_anonymous_0</title>
<polygon fill="white" stroke="white" points="-4,5 -4,-392 521,-392 521,5 -4,5"/>
<!-- Activity -->
<g id="node1" class="node"><title>Activity</title>
<a xlink:href="./#Activity" xlink:title="Activity">
<ellipse fill="none" stroke="black" cx="224" cy="-18" rx="41.7645" ry="18"/>
<text text-anchor="middle" x="224" y="-13.4" font-family="Helvetica,sans-Serif" font-size="14.00">Activity</text>
</a>
</g>
<!-- Activity&#45;&gt;Activity -->
<g id="edge26" class="edge"><title>Activity&#45;&gt;Activity</title>
<a xlink:href="./#partOf" xlink:title="partOf">
<path fill="none" stroke="darkslategray" d="M261.5,-9.75C274,-9.75 284,-12.5 284,-18 284,-21.8672 279.056,-24.3748 271.776,-25.5229"/>
<polygon fill="darkslategray" stroke="darkslategray" points="271.228,-22.0528 261.5,-26.25 271.722,-29.0353 271.228,-22.0528"/>
</a>
<a xlink:href="./#partOf" xlink:title="partOf">
<text text-anchor="middle" x="305.5" y="-13.4" font-family="Helvetica,sans-Serif" font-size="14.00">partOf</text>
</a>
</g>
<!-- Emergency -->
<g id="node2" class="node"><title>Emergency</title>
<a xlink:href="./#Emergency" xlink:title="Emergency">
<ellipse fill="none" stroke="black" cx="168" cy="-194" rx="59.8749" ry="18"/>
<text text-anchor="middle" x="168" y="-189.4" font-family="Helvetica,sans-Serif" font-size="14.00">Emergency</text>
</a>
</g>
<!-- Activity&#45;&gt;Emergency -->
<g id="edge8" class="edge"><title>Activity&#45;&gt;Emergency</title>
<a xlink:href="./#addresses" xlink:title="addresses">
<path fill="none" stroke="darkslategray" d="M182.814,-22.2628C142.557,-28.8652 83.3181,-45.6194 55,-88 31.1536,-123.688 80.939,-156.07 121.829,-175.402"/>
<polygon fill="darkslategray" stroke="darkslategray" points="120.633,-178.703 131.183,-179.677 123.543,-172.337 120.633,-178.703"/>
</a>
<a xlink:href="./#addresses" xlink:title="addresses">
<text text-anchor="middle" x="88.5" y="-101.4" font-family="Helvetica,sans-Serif" font-size="14.00">addresses</text>
</a>
</g>
<!-- Objective -->
<g id="node4" class="node"><title>Objective</title>
<a xlink:href="./#Objective" xlink:title="Objective">
<ellipse fill="none" stroke="black" cx="277" cy="-370" rx="51.1517" ry="18"/>
<text text-anchor="middle" x="277" y="-365.4" font-family="Helvetica,sans-Serif" font-size="14.00">Objective</text>
</a>
</g>
<!-- Activity&#45;&gt;Objective -->
<g id="edge16" class="edge"><title>Activity&#45;&gt;Objective</title>
<a xlink:href="./#hasObjective" xlink:title="hasObjective">
<path fill="none" stroke="darkslategray" d="M183.052,-22.4441C150.398,-27.1339 104.145,-36.3901 67,-54 32.9398,-70.1476 0,-68.306 0,-106 0,-106 0,-106 0,-282 0,-327.365 136.655,-352.417 217.997,-363.31"/>
<polygon fill="darkslategray" stroke="darkslategray" points="217.747,-366.807 228.116,-364.631 218.653,-359.866 217.747,-366.807"/>
</a>
<a xlink:href="./#hasObjective" xlink:title="hasObjective">
<text text-anchor="middle" x="42" y="-189.4" font-family="Helvetica,sans-Serif" font-size="14.00">hasObjective</text>
</a>
</g>
<!-- Priority -->
<g id="node8" class="node"><title>Priority</title>
<a xlink:href="./#Priority" xlink:title="Priority">
<ellipse fill="none" stroke="black" cx="173" cy="-106" rx="41.7645" ry="18"/>
<text text-anchor="middle" x="173" y="-101.4" font-family="Helvetica,sans-Serif" font-size="14.00">Priority</text>
</a>
</g>
<!-- Activity&#45;&gt;Priority -->
<g id="edge18" class="edge"><title>Activity&#45;&gt;Priority</title>
<a xlink:href="./#hasPriority" xlink:title="hasPriority">
<path fill="none" stroke="darkslategray" d="M201.908,-33.5049C195.227,-39.2261 188.482,-46.2309 184,-54 179.896,-61.1138 177.317,-69.5663 175.697,-77.5668"/>
<polygon fill="darkslategray" stroke="darkslategray" points="172.204,-77.2448 174.074,-87.6733 179.115,-78.355 172.204,-77.2448"/>
</a>
<a xlink:href="./#hasPriority" xlink:title="hasPriority">
<text text-anchor="middle" x="219" y="-57.4" font-family="Helvetica,sans-Serif" font-size="14.00">hasPriority</text>
</a>
</g>
<!-- Response -->
<g id="node9" class="node"><title>Response</title>
<a xlink:href="./#Response" xlink:title="Response">
<ellipse fill="none" stroke="black" cx="286" cy="-106" rx="53.1641" ry="18"/>
<text text-anchor="middle" x="286" y="-101.4" font-family="Helvetica,sans-Serif" font-size="14.00">Response</text>
</a>
</g>
<!-- Activity&#45;&gt;Response -->
<g id="edge24" class="edge"><title>Activity&#45;&gt;Response</title>
<a xlink:href="./#partOf" xlink:title="partOf">
<path fill="none" stroke="darkslategray" d="M239.166,-35.1773C244.083,-41.0099 249.442,-47.6579 254,-54 259.815,-62.0911 265.675,-71.2513 270.761,-79.6046"/>
<polygon fill="darkslategray" stroke="darkslategray" points="267.803,-81.477 275.939,-88.2633 273.811,-77.8844 267.803,-81.477"/>
</a>
<a xlink:href="./#partOf" xlink:title="partOf">
<text text-anchor="middle" x="285.5" y="-57.4" font-family="Helvetica,sans-Serif" font-size="14.00">partOf</text>
</a>
</g>
<!-- Status -->
<g id="node10" class="node"><title>Status</title>
<a xlink:href="./#Status" xlink:title="Status">
<ellipse fill="none" stroke="black" cx="396" cy="-106" rx="39.0774" ry="18"/>
<text text-anchor="middle" x="396" y="-101.4" font-family="Helvetica,sans-Serif" font-size="14.00">Status</text>
</a>
</g>
<!-- Activity&#45;&gt;Status -->
<g id="edge20" class="edge"><title>Activity&#45;&gt;Status</title>
<a xlink:href="./#hasStatus" xlink:title="hasStatus">
<path fill="none" stroke="darkslategray" d="M255.947,-29.8311C272.634,-36.3563 293.226,-44.9562 311,-54 329.431,-63.378 349.183,-75.3361 365.003,-85.4199"/>
<polygon fill="darkslategray" stroke="darkslategray" points="363.523,-88.6299 373.824,-91.1069 367.316,-82.7466 363.523,-88.6299"/>
</a>
<a xlink:href="./#hasStatus" xlink:title="hasStatus">
<text text-anchor="middle" x="372" y="-57.4" font-family="Helvetica,sans-Serif" font-size="14.00">hasStatus</text>
</a>
</g>
<!-- Need -->
<g id="node13" class="node"><title>Need</title>
<ellipse fill="none" stroke="black" cx="286" cy="-194" rx="34.2118" ry="18"/>
<text text-anchor="middle" x="286" y="-189.4" font-family="Helvetica,sans-Serif" font-size="14.00">Need</text>
</g>
<!-- Activity&#45;&gt;Need -->
<g id="edge10" class="edge"><title>Activity&#45;&gt;Need</title>
<a xlink:href="./#addresses" xlink:title="addresses">
<path fill="none" stroke="darkslategray" d="M264.673,-23.1538C311.289,-29.5386 384.423,-41.1565 409,-54 428.221,-64.0443 435.556,-68.0246 444,-88 450.23,-102.737 452.726,-110.589 444,-124 436.949,-134.835 367.775,-162.81 323.324,-179.934"/>
<polygon fill="darkslategray" stroke="darkslategray" points="322.058,-176.671 313.972,-183.517 324.563,-183.208 322.058,-176.671"/>
</a>
<a xlink:href="./#addresses" xlink:title="addresses">
<text text-anchor="middle" x="482.5" y="-101.4" font-family="Helvetica,sans-Serif" font-size="14.00">addresses</text>
</a>
</g>
<!-- Indicator -->
<g id="node3" class="node"><title>Indicator</title>
<a xlink:href="./#Indicator" xlink:title="Indicator">
<ellipse fill="none" stroke="black" cx="277" cy="-282" rx="49.1393" ry="18"/>
<text text-anchor="middle" x="277" y="-277.4" font-family="Helvetica,sans-Serif" font-size="14.00">Indicator</text>
</a>
</g>
<!-- Indicator&#45;&gt;Objective -->
<g id="edge22" class="edge"><title>Indicator&#45;&gt;Objective</title>
<a xlink:href="./#measures" xlink:title="measures">
<path fill="none" stroke="darkslategray" d="M277,-300.234C277,-312.151 277,-327.962 277,-341.518"/>
<polygon fill="darkslategray" stroke="darkslategray" points="273.5,-341.79 277,-351.79 280.5,-341.79 273.5,-341.79"/>
</a>
<a xlink:href="./#measures" xlink:title="measures">
<text text-anchor="middle" x="309" y="-321.4" font-family="Helvetica,sans-Serif" font-size="14.00">measures</text>
</a>
</g>
<!-- OutputPlanned -->
<g id="node5" class="node"><title>OutputPlanned</title>
<a xlink:href="./#OutputPlanned" xlink:title="OutputPlanned">
<ellipse fill="none" stroke="black" cx="420" cy="-282" rx="75.8027" ry="18"/>
<text text-anchor="middle" x="420" y="-277.4" font-family="Helvetica,sans-Serif" font-size="14.00">OutputPlanned</text>
</a>
</g>
<!-- OutputPlanned&#45;&gt;Objective -->
<g id="edge2" class="edge"><title>OutputPlanned&#45;&gt;Objective</title>
<path fill="none" stroke="red" stroke-dasharray="5,2" d="M396.501,-299.37C381.956,-309.848 362.732,-323.212 345,-334 335.747,-339.63 325.533,-345.305 315.896,-350.432"/>
<polygon fill="red" stroke="red" points="314.112,-347.415 306.883,-355.16 317.364,-353.614 314.112,-347.415"/>
</g>
<!-- OutputToDate -->
<g id="node7" class="node"><title>OutputToDate</title>
<a xlink:href="./#OutputToDate" xlink:title="OutputToDate">
<ellipse fill="none" stroke="black" cx="420" cy="-194" rx="73.7902" ry="18"/>
<text text-anchor="middle" x="420" y="-189.4" font-family="Helvetica,sans-Serif" font-size="14.00">OutputToDate</text>
</a>
</g>
<!-- OutputToDate&#45;&gt;OutputPlanned -->
<g id="edge14" class="edge"><title>OutputToDate&#45;&gt;OutputPlanned</title>
<a xlink:href="./#completedOf" xlink:title="completedOf">
<path fill="none" stroke="darkslategray" d="M420,-212.234C420,-224.151 420,-239.962 420,-253.518"/>
<polygon fill="darkslategray" stroke="darkslategray" points="416.5,-253.79 420,-263.79 423.5,-253.79 416.5,-253.79"/>
</a>
<a xlink:href="./#completedOf" xlink:title="completedOf">
<text text-anchor="middle" x="462.5" y="-233.4" font-family="Helvetica,sans-Serif" font-size="14.00">completedOf</text>
</a>
</g>
<!-- Response&#45;&gt;Emergency -->
<g id="edge4" class="edge"><title>Response&#45;&gt;Emergency</title>
<a xlink:href="./#addresses" xlink:title="addresses">
<path fill="none" stroke="darkslategray" d="M252.352,-119.944C240.013,-125.84 226.31,-133.356 215,-142 205.129,-149.544 195.656,-159.341 187.834,-168.394"/>
<polygon fill="darkslategray" stroke="darkslategray" points="185.137,-166.164 181.416,-176.084 190.511,-170.649 185.137,-166.164"/>
</a>
<a xlink:href="./#addresses" xlink:title="addresses">
<text text-anchor="middle" x="248.5" y="-145.4" font-family="Helvetica,sans-Serif" font-size="14.00">addresses</text>
</a>
</g>
<!-- Response&#45;&gt;Need -->
<g id="edge6" class="edge"><title>Response&#45;&gt;Need</title>
<a xlink:href="./#addresses" xlink:title="addresses">
<path fill="none" stroke="darkslategray" d="M286,-124.234C286,-136.151 286,-151.962 286,-165.518"/>
<polygon fill="darkslategray" stroke="darkslategray" points="282.5,-165.79 286,-175.79 289.5,-165.79 282.5,-165.79"/>
</a>
<a xlink:href="./#addresses" xlink:title="addresses">
<text text-anchor="middle" x="319.5" y="-145.4" font-family="Helvetica,sans-Serif" font-size="14.00">addresses</text>
</a>
</g>
<!-- Need&#45;&gt;Indicator -->
<g id="edge12" class="edge"><title>Need&#45;&gt;Indicator</title>
<a xlink:href="./#basedOn" xlink:title="basedOn">
<path fill="none" stroke="darkslategray" d="M284.135,-212.234C282.916,-224.151 281.299,-239.962 279.913,-253.518"/>
<polygon fill="darkslategray" stroke="darkslategray" points="276.398,-253.485 278.862,-263.79 283.362,-254.198 276.398,-253.485"/>
</a>
<a xlink:href="./#basedOn" xlink:title="basedOn">
<text text-anchor="middle" x="311" y="-233.4" font-family="Helvetica,sans-Serif" font-size="14.00">basedOn</text>
</a>
</g>
</g>
</svg>
