<?xml version="1.0" encoding="UTF-8" standalone="no"?>
<!DOCTYPE svg PUBLIC "-//W3C//DTD SVG 1.1//EN"
 "http://www.w3.org/Graphics/SVG/1.1/DTD/svg11.dtd">
<!-- Generated by graphviz version 2.26.3 (20100126.1600)
 -->
<!-- Title: _anonymous_0 Pages: 1 -->
<svg width="1018pt" height="206pt"
 viewBox="0.00 0.00 1018.00 206.00" xmlns="http://www.w3.org/2000/svg" xmlns:xlink="http://www.w3.org/1999/xlink">
<g id="graph1" class="graph" transform="scale(1 1) rotate(0) translate(4 202)">
<title>_anonymous_0</title>
<polygon fill="white" stroke="white" points="-4,5 -4,-202 1015,-202 1015,5 -4,5"/>
<!-- ReportingPeriod -->
<g id="node1" class="node"><title>ReportingPeriod</title>
<a xlink:href="./#ReportingPeriod" xlink:title="ReportingPeriod">
<ellipse fill="none" stroke="black" cx="173" cy="-18" rx="82.0108" ry="18"/>
<text text-anchor="middle" x="173" y="-13.4" font-family="Helvetica,sans-Serif" font-size="14.00">ReportingPeriod</text>
</a>
</g>
<!-- http://purl.org/dc/terms/PeriodOfTime -->
<g id="node3" class="node"><title>http://purl.org/dc/terms/PeriodOfTime</title>
<a xlink:href="./#http://purl.org/dc/terms/PeriodOfTime" xlink:title="http://purl.org/dc/terms/PeriodOfTime">
<ellipse fill="none" stroke="black" cx="173" cy="-92" rx="173.242" ry="18"/>
<text text-anchor="middle" x="173" y="-87.4" font-family="Helvetica,sans-Serif" font-size="14.00">http://purl.org/dc/terms/PeriodOfTime</text>
</a>
</g>
<!-- ReportingPeriod&#45;&gt;http://purl.org/dc/terms/PeriodOfTime -->
<g id="edge2" class="edge"><title>ReportingPeriod&#45;&gt;http://purl.org/dc/terms/PeriodOfTime</title>
<path fill="none" stroke="red" stroke-dasharray="5,2" d="M173,-36.2921C173,-44.5365 173,-54.4624 173,-63.6378"/>
<polygon fill="red" stroke="red" points="169.5,-63.9182 173,-73.9183 176.5,-63.9183 169.5,-63.9182"/>
</g>
<!-- http://www.w3.org/2000/01/rdf&#45;schema#Literal -->
<g id="node5" class="node"><title>http://www.w3.org/2000/01/rdf&#45;schema#Literal</title>
<a xlink:href="./#http://www.w3.org/2000/01/rdf-schema#Literal" xlink:title="http://www.w3.org/2000/01/rdf&#45;schema#Literal">
<ellipse fill="none" stroke="gray" cx="398" cy="-180" rx="208.796" ry="18"/>
<text text-anchor="middle" x="398" y="-175.4" font-family="Helvetica,sans-Serif" font-size="14.00" fill="gray">http://www.w3.org/2000/01/rdf&#45;schema#Literal</text>
</a>
</g>
<!-- http://purl.org/dc/terms/PeriodOfTime&#45;&gt;http://www.w3.org/2000/01/rdf&#45;schema#Literal -->
<g id="edge8" class="edge"><title>http://purl.org/dc/terms/PeriodOfTime&#45;&gt;http://www.w3.org/2000/01/rdf&#45;schema#Literal</title>
<a xlink:href="./#end" xlink:title="end">
<path fill="none" stroke="darkslategray" d="M161.167,-110.227C155.697,-121.153 151.99,-134.687 160,-144 166.872,-151.99 205.28,-159.272 249.305,-165.165"/>
<polygon fill="darkslategray" stroke="darkslategray" points="249.01,-168.656 259.379,-166.477 249.915,-161.714 249.01,-168.656"/>
</a>
<a xlink:href="./#end" xlink:title="end">
<text text-anchor="middle" x="172.5" y="-131.4" font-family="Helvetica,sans-Serif" font-size="14.00">end</text>
</a>
</g>
<!-- http://purl.org/dc/terms/PeriodOfTime&#45;&gt;http://www.w3.org/2000/01/rdf&#45;schema#Literal -->
<g id="edge14" class="edge"><title>http://purl.org/dc/terms/PeriodOfTime&#45;&gt;http://www.w3.org/2000/01/rdf&#45;schema#Literal</title>
<a xlink:href="./#start" xlink:title="start">
<path fill="none" stroke="darkslategray" d="M185.157,-110.16C193.805,-121.636 206.442,-135.799 221,-144 232.862,-150.682 257.043,-156.974 283.819,-162.37"/>
<polygon fill="darkslategray" stroke="darkslategray" points="283.298,-165.834 293.784,-164.317 284.641,-158.964 283.298,-165.834"/>
</a>
<a xlink:href="./#start" xlink:title="start">
<text text-anchor="middle" x="236.5" y="-131.4" font-family="Helvetica,sans-Serif" font-size="14.00">start</text>
</a>
</g>
<!-- Activity -->
<g id="node4" class="node"><title>Activity</title>
<a xlink:href="./#Activity" xlink:title="Activity">
<ellipse fill="none" stroke="gray" cx="433" cy="-92" rx="41.7645" ry="18"/>
<text text-anchor="middle" x="433" y="-87.4" font-family="Helvetica,sans-Serif" font-size="14.00" fill="gray">Activity</text>
</a>
</g>
<!-- Activity&#45;&gt;http://www.w3.org/2000/01/rdf&#45;schema#Literal -->
<g id="edge4" class="edge"><title>Activity&#45;&gt;http://www.w3.org/2000/01/rdf&#45;schema#Literal</title>
<a xlink:href="./#actualEnd" xlink:title="actualEnd">
<path fill="none" stroke="darkslategray" d="M396.159,-100.785C383.174,-103.807 368.459,-107.145 355,-110 313.816,-118.735 288.792,-95.525 262,-128 249.784,-142.807 256.782,-153.405 272.67,-160.988"/>
<polygon fill="darkslategray" stroke="darkslategray" points="271.763,-164.396 282.346,-164.898 274.386,-157.906 271.763,-164.396"/>
</a>
<a xlink:href="./#actualEnd" xlink:title="actualEnd">
<text text-anchor="middle" x="295" y="-131.4" font-family="Helvetica,sans-Serif" font-size="14.00">actualEnd</text>
</a>
</g>
<!-- Activity&#45;&gt;http://www.w3.org/2000/01/rdf&#45;schema#Literal -->
<g id="edge6" class="edge"><title>Activity&#45;&gt;http://www.w3.org/2000/01/rdf&#45;schema#Literal</title>
<a xlink:href="./#actualStart" xlink:title="actualStart">
<path fill="none" stroke="darkslategray" d="M394.246,-99.2437C378.013,-104.398 360.692,-113.16 351,-128 344.71,-137.631 349.474,-147.24 357.986,-155.53"/>
<polygon fill="darkslategray" stroke="darkslategray" points="355.952,-158.393 365.857,-162.154 360.46,-153.037 355.952,-158.393"/>
</a>
<a xlink:href="./#actualStart" xlink:title="actualStart">
<text text-anchor="middle" x="388" y="-131.4" font-family="Helvetica,sans-Serif" font-size="14.00">actualStart</text>
</a>
</g>
<!-- Activity&#45;&gt;http://www.w3.org/2000/01/rdf&#45;schema#Literal -->
<g id="edge10" class="edge"><title>Activity&#45;&gt;http://www.w3.org/2000/01/rdf&#45;schema#Literal</title>
<a xlink:href="./#plannedEnd" xlink:title="plannedEnd">
<path fill="none" stroke="darkslategray" d="M432.358,-110.402C431.469,-120.628 429.461,-133.391 425,-144 423.626,-147.268 421.891,-150.508 419.965,-153.628"/>
<polygon fill="darkslategray" stroke="darkslategray" points="416.971,-151.805 414.179,-162.025 422.735,-155.777 416.971,-151.805"/>
</a>
<a xlink:href="./#plannedEnd" xlink:title="plannedEnd">
<text text-anchor="middle" x="467" y="-131.4" font-family="Helvetica,sans-Serif" font-size="14.00">plannedEnd</text>
</a>
</g>
<!-- Activity&#45;&gt;http://www.w3.org/2000/01/rdf&#45;schema#Literal -->
<g id="edge12" class="edge"><title>Activity&#45;&gt;http://www.w3.org/2000/01/rdf&#45;schema#Literal</title>
<a xlink:href="./#plannedStart" xlink:title="plannedStart">
<path fill="none" stroke="darkslategray" d="M468.813,-101.473C494.774,-110.181 523.054,-124.667 509,-144 504.782,-149.802 494.405,-155.149 481.598,-159.848"/>
<polygon fill="darkslategray" stroke="darkslategray" points="480.234,-156.615 471.897,-163.153 482.491,-163.241 480.234,-156.615"/>
</a>
<a xlink:href="./#plannedStart" xlink:title="plannedStart">
<text text-anchor="middle" x="554.5" y="-131.4" font-family="Helvetica,sans-Serif" font-size="14.00">plannedStart</text>
</a>
</g>
<!-- OutcomeToDate -->
<g id="node12" class="node"><title>OutcomeToDate</title>
<a xlink:href="./#OutcomeToDate" xlink:title="OutcomeToDate">
<ellipse fill="none" stroke="gray" cx="654" cy="-92" rx="84.0232" ry="18"/>
<text text-anchor="middle" x="654" y="-87.4" font-family="Helvetica,sans-Serif" font-size="14.00" fill="gray">OutcomeToDate</text>
</a>
</g>
<!-- OutcomeToDate&#45;&gt;http://www.w3.org/2000/01/rdf&#45;schema#Literal -->
<g id="edge16" class="edge"><title>OutcomeToDate&#45;&gt;http://www.w3.org/2000/01/rdf&#45;schema#Literal</title>
<a xlink:href="./#http://purl.org/dc/terms/date" xlink:title="http://purl.org/dc/terms/date">
<path fill="none" stroke="darkslategray" d="M640.467,-110.02C630.774,-121.589 616.699,-135.912 601,-144 586.762,-151.335 557.671,-157.941 525.852,-163.431"/>
<polygon fill="darkslategray" stroke="darkslategray" points="525.186,-159.994 515.902,-165.099 526.343,-166.897 525.186,-159.994"/>
</a>
<a xlink:href="./#http://purl.org/dc/terms/date" xlink:title="http://purl.org/dc/terms/date">
<text text-anchor="middle" x="712.5" y="-131.4" font-family="Helvetica,sans-Serif" font-size="14.00">http://purl.org/dc/terms/date</text>
</a>
</g>
<!-- OutputToDate -->
<g id="node14" class="node"><title>OutputToDate</title>
<a xlink:href="./#OutputToDate" xlink:title="OutputToDate">
<ellipse fill="none" stroke="gray" cx="858" cy="-92" rx="73.7902" ry="18"/>
<text text-anchor="middle" x="858" y="-87.4" font-family="Helvetica,sans-Serif" font-size="14.00" fill="gray">OutputToDate</text>
</a>
</g>
<!-- OutputToDate&#45;&gt;http://www.w3.org/2000/01/rdf&#45;schema#Literal -->
<g id="edge18" class="edge"><title>OutputToDate&#45;&gt;http://www.w3.org/2000/01/rdf&#45;schema#Literal</title>
<a xlink:href="./#http://purl.org/dc/terms/date" xlink:title="http://purl.org/dc/terms/date">
<path fill="none" stroke="darkslategray" d="M845.737,-109.951C836.561,-121.805 822.892,-136.49 807,-144 786.146,-153.854 681.832,-162.947 583.781,-169.528"/>
<polygon fill="darkslategray" stroke="darkslategray" points="583.45,-166.042 573.704,-170.197 583.914,-173.027 583.45,-166.042"/>
</a>
<a xlink:href="./#http://purl.org/dc/terms/date" xlink:title="http://purl.org/dc/terms/date">
<text text-anchor="middle" x="919.5" y="-131.4" font-family="Helvetica,sans-Serif" font-size="14.00">http://purl.org/dc/terms/date</text>
</a>
</g>
</g>
</svg>
