<?xml version="1.0" encoding="UTF-8" standalone="no"?>
<!DOCTYPE svg PUBLIC "-//W3C//DTD SVG 1.1//EN"
 "http://www.w3.org/Graphics/SVG/1.1/DTD/svg11.dtd">
<!-- Generated by graphviz version 2.26.3 (20100126.1600)
 -->
<!-- Title: _anonymous_0 Pages: 1 -->
<svg width="1799pt" height="294pt"
 viewBox="0.00 0.00 1799.00 294.00" xmlns="http://www.w3.org/2000/svg" xmlns:xlink="http://www.w3.org/1999/xlink">
<g id="graph1" class="graph" transform="scale(1 1) rotate(0) translate(4 290)">
<title>_anonymous_0</title>
<polygon fill="white" stroke="white" points="-4,5 -4,-290 1796,-290 1796,5 -4,5"/>
<!-- Activity -->
<g id="node1" class="node"><title>Activity</title>
<a xlink:href="./#Activity" xlink:title="Activity">
<ellipse fill="none" stroke="black" cx="962" cy="-180" rx="41.7645" ry="18"/>
<text text-anchor="middle" x="962" y="-175.4" font-family="Helvetica,sans-Serif" font-size="14.00">Activity</text>
</a>
</g>
<!-- Activity&#45;&gt;Activity -->
<g id="edge34" class="edge"><title>Activity&#45;&gt;Activity</title>
<a xlink:href="./#hasPart" xlink:title="hasPart">
<path fill="none" stroke="darkslategray" d="M999.5,-171.75C1012,-171.75 1022,-174.5 1022,-180 1022,-183.867 1017.06,-186.375 1009.78,-187.523"/>
<polygon fill="darkslategray" stroke="darkslategray" points="1009.23,-184.053 999.5,-188.25 1009.72,-191.035 1009.23,-184.053"/>
</a>
<a xlink:href="./#hasPart" xlink:title="hasPart">
<text text-anchor="middle" x="1048" y="-175.4" font-family="Helvetica,sans-Serif" font-size="14.00">hasPart</text>
</a>
</g>
<!-- Objective -->
<g id="node11" class="node"><title>Objective</title>
<a xlink:href="./#Objective" xlink:title="Objective">
<ellipse fill="none" stroke="black" cx="409" cy="-268" rx="51.1517" ry="18"/>
<text text-anchor="middle" x="409" y="-263.4" font-family="Helvetica,sans-Serif" font-size="14.00">Objective</text>
</a>
</g>
<!-- Activity&#45;&gt;Objective -->
<g id="edge30" class="edge"><title>Activity&#45;&gt;Objective</title>
<a xlink:href="./#hasObjective" xlink:title="hasObjective">
<path fill="none" stroke="darkslategray" d="M930.758,-192.215C924.3,-194.402 917.488,-196.468 911,-198 848.227,-212.819 830.917,-207.364 767,-216 660.517,-230.387 536.466,-248.769 465.888,-259.381"/>
<polygon fill="darkslategray" stroke="darkslategray" points="465.238,-255.939 455.871,-260.888 466.28,-262.861 465.238,-255.939"/>
</a>
<a xlink:href="./#hasObjective" xlink:title="hasObjective">
<text text-anchor="middle" x="809" y="-219.4" font-family="Helvetica,sans-Serif" font-size="14.00">hasObjective</text>
</a>
</g>
<!-- Priority -->
<g id="node22" class="node"><title>Priority</title>
<a xlink:href="./#Priority" xlink:title="Priority">
<ellipse fill="none" stroke="black" cx="957" cy="-268" rx="41.7645" ry="18"/>
<text text-anchor="middle" x="957" y="-263.4" font-family="Helvetica,sans-Serif" font-size="14.00">Priority</text>
</a>
</g>
<!-- Activity&#45;&gt;Priority -->
<g id="edge36" class="edge"><title>Activity&#45;&gt;Priority</title>
<a xlink:href="./#hasPriority" xlink:title="hasPriority">
<path fill="none" stroke="darkslategray" d="M960.964,-198.234C960.287,-210.151 959.389,-225.962 958.618,-239.518"/>
<polygon fill="darkslategray" stroke="darkslategray" points="955.108,-239.607 958.035,-249.79 962.096,-240.004 955.108,-239.607"/>
</a>
<a xlink:href="./#hasPriority" xlink:title="hasPriority">
<text text-anchor="middle" x="995" y="-219.4" font-family="Helvetica,sans-Serif" font-size="14.00">hasPriority</text>
</a>
</g>
<!-- Status -->
<g id="node26" class="node"><title>Status</title>
<a xlink:href="./#Status" xlink:title="Status">
<ellipse fill="none" stroke="black" cx="1056" cy="-268" rx="39.0774" ry="18"/>
<text text-anchor="middle" x="1056" y="-263.4" font-family="Helvetica,sans-Serif" font-size="14.00">Status</text>
</a>
</g>
<!-- Activity&#45;&gt;Status -->
<g id="edge38" class="edge"><title>Activity&#45;&gt;Status</title>
<a xlink:href="./#hasStatus" xlink:title="hasStatus">
<path fill="none" stroke="darkslategray" d="M995.645,-190.991C1008.98,-196.717 1023.58,-204.892 1034,-216 1040.36,-222.781 1045.03,-231.678 1048.39,-240.192"/>
<polygon fill="darkslategray" stroke="darkslategray" points="1045.16,-241.562 1051.75,-249.859 1051.77,-239.264 1045.16,-241.562"/>
</a>
<a xlink:href="./#hasStatus" xlink:title="hasStatus">
<text text-anchor="middle" x="1078" y="-219.4" font-family="Helvetica,sans-Serif" font-size="14.00">hasStatus</text>
</a>
</g>
<!-- Need -->
<g id="node27" class="node"><title>Need</title>
<a xlink:href="./#Need" xlink:title="Need">
<ellipse fill="none" stroke="gray" cx="780" cy="-268" rx="34.2118" ry="18"/>
<text text-anchor="middle" x="780" y="-263.4" font-family="Helvetica,sans-Serif" font-size="14.00" fill="gray">Need</text>
</a>
</g>
<!-- Activity&#45;&gt;Need -->
<g id="edge22" class="edge"><title>Activity&#45;&gt;Need</title>
<a xlink:href="./#addresses" xlink:title="addresses">
<path fill="none" stroke="darkslategray" d="M933.961,-193.557C901.788,-209.114 849.019,-234.628 814.392,-251.371"/>
<polygon fill="darkslategray" stroke="darkslategray" points="812.618,-248.341 805.138,-255.845 815.665,-254.643 812.618,-248.341"/>
</a>
<a xlink:href="./#addresses" xlink:title="addresses">
<text text-anchor="middle" x="921.5" y="-219.4" font-family="Helvetica,sans-Serif" font-size="14.00">addresses</text>
</a>
</g>
<!-- BeneficiaryOrganisation -->
<g id="node2" class="node"><title>BeneficiaryOrganisation</title>
<a xlink:href="./#BeneficiaryOrganisation" xlink:title="BeneficiaryOrganisation">
<ellipse fill="none" stroke="black" cx="719" cy="-18" rx="114.209" ry="18"/>
<text text-anchor="middle" x="719" y="-13.4" font-family="Helvetica,sans-Serif" font-size="14.00">BeneficiaryOrganisation</text>
</a>
</g>
<!-- Organisation -->
<g id="node4" class="node"><title>Organisation</title>
<a xlink:href="./#Organisation" xlink:title="Organisation">
<ellipse fill="none" stroke="black" cx="1189" cy="-92" rx="65.9119" ry="18"/>
<text text-anchor="middle" x="1189" y="-87.4" font-family="Helvetica,sans-Serif" font-size="14.00">Organisation</text>
</a>
</g>
<!-- BeneficiaryOrganisation&#45;&gt;Organisation -->
<g id="edge2" class="edge"><title>BeneficiaryOrganisation&#45;&gt;Organisation</title>
<path fill="none" stroke="red" stroke-dasharray="5,2" d="M799.796,-30.7211C890.717,-45.0363 1036.78,-68.0328 1121.74,-81.4098"/>
<polygon fill="red" stroke="red" points="1121.37,-84.8942 1131.79,-82.9922 1122.45,-77.9794 1121.37,-84.8942"/>
</g>
<!-- Organisation&#45;&gt;Activity -->
<g id="edge40" class="edge"><title>Organisation&#45;&gt;Activity</title>
<a xlink:href="./#involvedIn" xlink:title="involvedIn">
<path fill="none" stroke="darkslategray" d="M1151.01,-106.729C1109.91,-122.662 1044.63,-147.966 1002.56,-164.277"/>
<polygon fill="darkslategray" stroke="darkslategray" points="1001.23,-161.038 993.172,-167.916 1003.76,-167.565 1001.23,-161.038"/>
</a>
<a xlink:href="./#involvedIn" xlink:title="involvedIn">
<text text-anchor="middle" x="1128" y="-131.4" font-family="Helvetica,sans-Serif" font-size="14.00">involvedIn</text>
</a>
</g>
<!-- http://xmlns.com/foaf/0.1/Organisation -->
<g id="node15" class="node"><title>http://xmlns.com/foaf/0.1/Organisation</title>
<a xlink:href="./#http://xmlns.com/foaf/0.1/Organisation" xlink:title="http://xmlns.com/foaf/0.1/Organisation">
<ellipse fill="none" stroke="black" cx="1267" cy="-180" rx="175.084" ry="18"/>
<text text-anchor="middle" x="1267" y="-175.4" font-family="Helvetica,sans-Serif" font-size="14.00">http://xmlns.com/foaf/0.1/Organisation</text>
</a>
</g>
<!-- Organisation&#45;&gt;http://xmlns.com/foaf/0.1/Organisation -->
<g id="edge12" class="edge"><title>Organisation&#45;&gt;http://xmlns.com/foaf/0.1/Organisation</title>
<path fill="none" stroke="red" stroke-dasharray="5,2" d="M1204.78,-109.808C1216.13,-122.605 1231.59,-140.05 1244.26,-154.347"/>
<polygon fill="red" stroke="red" points="1241.72,-156.754 1250.97,-161.916 1246.96,-152.111 1241.72,-156.754"/>
</g>
<!-- ExtendingOrganisation -->
<g id="node5" class="node"><title>ExtendingOrganisation</title>
<a xlink:href="./#ExtendingOrganisation" xlink:title="ExtendingOrganisation">
<ellipse fill="none" stroke="black" cx="961" cy="-18" rx="110.015" ry="18"/>
<text text-anchor="middle" x="961" y="-13.4" font-family="Helvetica,sans-Serif" font-size="14.00">ExtendingOrganisation</text>
</a>
</g>
<!-- ExtendingOrganisation&#45;&gt;Organisation -->
<g id="edge4" class="edge"><title>ExtendingOrganisation&#45;&gt;Organisation</title>
<path fill="none" stroke="red" stroke-dasharray="5,2" d="M1010.75,-34.1482C1047.92,-46.211 1098.61,-62.6642 1136.44,-74.9408"/>
<polygon fill="red" stroke="red" points="1135.66,-78.3677 1146.25,-78.1258 1137.82,-71.7096 1135.66,-78.3677"/>
</g>
<!-- FundingOrganisation -->
<g id="node7" class="node"><title>FundingOrganisation</title>
<a xlink:href="./#FundingOrganisation" xlink:title="FundingOrganisation">
<ellipse fill="none" stroke="black" cx="1189" cy="-18" rx="100.122" ry="18"/>
<text text-anchor="middle" x="1189" y="-13.4" font-family="Helvetica,sans-Serif" font-size="14.00">FundingOrganisation</text>
</a>
</g>
<!-- FundingOrganisation&#45;&gt;Organisation -->
<g id="edge6" class="edge"><title>FundingOrganisation&#45;&gt;Organisation</title>
<path fill="none" stroke="red" stroke-dasharray="5,2" d="M1189,-36.2921C1189,-44.5365 1189,-54.4624 1189,-63.6378"/>
<polygon fill="red" stroke="red" points="1185.5,-63.9182 1189,-73.9183 1192.5,-63.9183 1185.5,-63.9182"/>
</g>
<!-- ImpactPlanned -->
<g id="node9" class="node"><title>ImpactPlanned</title>
<a xlink:href="./#ImpactPlanned" xlink:title="ImpactPlanned">
<ellipse fill="none" stroke="black" cx="76" cy="-180" rx="75.8027" ry="18"/>
<text text-anchor="middle" x="76" y="-175.4" font-family="Helvetica,sans-Serif" font-size="14.00">ImpactPlanned</text>
</a>
</g>
<!-- ImpactPlanned&#45;&gt;Objective -->
<g id="edge8" class="edge"><title>ImpactPlanned&#45;&gt;Objective</title>
<path fill="none" stroke="red" stroke-dasharray="5,2" d="M126.938,-193.461C189.587,-210.017 295.308,-237.955 357.99,-254.52"/>
<polygon fill="red" stroke="red" points="357.481,-258.005 368.043,-257.177 359.269,-251.238 357.481,-258.005"/>
</g>
<!-- ImplementingOrganisation -->
<g id="node12" class="node"><title>ImplementingOrganisation</title>
<a xlink:href="./#ImplementingOrganisation" xlink:title="ImplementingOrganisation">
<ellipse fill="none" stroke="black" cx="1431" cy="-18" rx="124.102" ry="18"/>
<text text-anchor="middle" x="1431" y="-13.4" font-family="Helvetica,sans-Serif" font-size="14.00">ImplementingOrganisation</text>
</a>
</g>
<!-- ImplementingOrganisation&#45;&gt;Organisation -->
<g id="edge10" class="edge"><title>ImplementingOrganisation&#45;&gt;Organisation</title>
<path fill="none" stroke="red" stroke-dasharray="5,2" d="M1377.59,-34.3312C1337.47,-46.5993 1282.76,-63.331 1242.59,-75.6127"/>
<polygon fill="red" stroke="red" points="1241.51,-72.2836 1232.97,-78.5549 1243.56,-78.9777 1241.51,-72.2836"/>
</g>
<!-- OutcomePlanned -->
<g id="node16" class="node"><title>OutcomePlanned</title>
<a xlink:href="./#OutcomePlanned" xlink:title="OutcomePlanned">
<ellipse fill="none" stroke="black" cx="256" cy="-180" rx="86.0356" ry="18"/>
<text text-anchor="middle" x="256" y="-175.4" font-family="Helvetica,sans-Serif" font-size="14.00">OutcomePlanned</text>
</a>
</g>
<!-- OutcomePlanned&#45;&gt;Objective -->
<g id="edge14" class="edge"><title>OutcomePlanned&#45;&gt;Objective</title>
<path fill="none" stroke="red" stroke-dasharray="5,2" d="M285.5,-196.967C310.512,-211.353 346.469,-232.034 373.139,-247.374"/>
<polygon fill="red" stroke="red" points="371.739,-250.606 382.152,-252.558 375.229,-244.538 371.739,-250.606"/>
</g>
<!-- OutcomeToDate -->
<g id="node18" class="node"><title>OutcomeToDate</title>
<a xlink:href="./#OutcomeToDate" xlink:title="OutcomeToDate">
<ellipse fill="none" stroke="black" cx="186" cy="-92" rx="84.0232" ry="18"/>
<text text-anchor="middle" x="186" y="-87.4" font-family="Helvetica,sans-Serif" font-size="14.00">OutcomeToDate</text>
</a>
</g>
<!-- OutcomeToDate&#45;&gt;OutcomePlanned -->
<g id="edge24" class="edge"><title>OutcomeToDate&#45;&gt;OutcomePlanned</title>
<a xlink:href="./#completedOutcomeOf" xlink:title="completedOutcomeOf">
<path fill="none" stroke="darkslategray" d="M147.356,-108.235C130.505,-117.69 116.68,-130.406 127,-144 134.012,-153.237 155.145,-160.741 178.33,-166.461"/>
<polygon fill="darkslategray" stroke="darkslategray" points="177.823,-169.936 188.357,-168.802 179.415,-163.12 177.823,-169.936"/>
</a>
<a xlink:href="./#completedOutcomeOf" xlink:title="completedOutcomeOf">
<text text-anchor="middle" x="199.5" y="-131.4" font-family="Helvetica,sans-Serif" font-size="14.00">completedOutcomeOf</text>
</a>
</g>
<!-- Indicator -->
<g id="node40" class="node"><title>Indicator</title>
<a xlink:href="./#Indicator" xlink:title="Indicator">
<ellipse fill="none" stroke="gray" cx="409" cy="-180" rx="49.1393" ry="18"/>
<text text-anchor="middle" x="409" y="-175.4" font-family="Helvetica,sans-Serif" font-size="14.00" fill="gray">Indicator</text>
</a>
</g>
<!-- OutcomeToDate&#45;&gt;Indicator -->
<g id="edge44" class="edge"><title>OutcomeToDate&#45;&gt;Indicator</title>
<a xlink:href="./#measurementOf" xlink:title="measurementOf">
<path fill="none" stroke="darkslategray" d="M226.11,-108.011C240.673,-114.028 257.185,-121.089 272,-128 286.051,-134.554 288.731,-137.935 303,-144 314.073,-148.707 339.229,-157.281 362.257,-164.882"/>
<polygon fill="darkslategray" stroke="darkslategray" points="361.355,-168.27 371.948,-168.065 363.54,-161.619 361.355,-168.27"/>
</a>
<a xlink:href="./#measurementOf" xlink:title="measurementOf">
<text text-anchor="middle" x="356" y="-131.4" font-family="Helvetica,sans-Serif" font-size="14.00">measurementOf</text>
</a>
</g>
<!-- OutputPlanned -->
<g id="node19" class="node"><title>OutputPlanned</title>
<a xlink:href="./#OutputPlanned" xlink:title="OutputPlanned">
<ellipse fill="none" stroke="black" cx="552" cy="-180" rx="75.8027" ry="18"/>
<text text-anchor="middle" x="552" y="-175.4" font-family="Helvetica,sans-Serif" font-size="14.00">OutputPlanned</text>
</a>
</g>
<!-- OutputPlanned&#45;&gt;Objective -->
<g id="edge16" class="edge"><title>OutputPlanned&#45;&gt;Objective</title>
<path fill="none" stroke="red" stroke-dasharray="5,2" d="M528.501,-197.37C513.956,-207.848 494.732,-221.212 477,-232 467.747,-237.63 457.533,-243.305 447.896,-248.432"/>
<polygon fill="red" stroke="red" points="446.112,-245.415 438.883,-253.16 449.364,-251.614 446.112,-245.415"/>
</g>
<!-- OutputToDate -->
<g id="node21" class="node"><title>OutputToDate</title>
<a xlink:href="./#OutputToDate" xlink:title="OutputToDate">
<ellipse fill="none" stroke="black" cx="487" cy="-92" rx="73.7902" ry="18"/>
<text text-anchor="middle" x="487" y="-87.4" font-family="Helvetica,sans-Serif" font-size="14.00">OutputToDate</text>
</a>
</g>
<!-- OutputToDate&#45;&gt;OutputPlanned -->
<g id="edge26" class="edge"><title>OutputToDate&#45;&gt;OutputPlanned</title>
<a xlink:href="./#completedOutputOf" xlink:title="completedOutputOf">
<path fill="none" stroke="darkslategray" d="M511.666,-109.264C518.23,-114.706 524.904,-121.113 530,-128 535.306,-135.171 539.619,-143.814 542.976,-151.977"/>
<polygon fill="darkslategray" stroke="darkslategray" points="539.789,-153.447 546.597,-161.565 546.338,-150.973 539.789,-153.447"/>
</a>
<a xlink:href="./#completedOutputOf" xlink:title="completedOutputOf">
<text text-anchor="middle" x="605" y="-131.4" font-family="Helvetica,sans-Serif" font-size="14.00">completedOutputOf</text>
</a>
</g>
<!-- OutputToDate&#45;&gt;Indicator -->
<g id="edge42" class="edge"><title>OutputToDate&#45;&gt;Indicator</title>
<a xlink:href="./#measurementOf" xlink:title="measurementOf">
<path fill="none" stroke="darkslategray" d="M445.566,-107.085C435.926,-112.362 426.572,-119.229 420,-128 414.942,-134.75 412.094,-143.309 410.522,-151.525"/>
<polygon fill="darkslategray" stroke="darkslategray" points="407.033,-151.203 409.143,-161.586 413.968,-152.153 407.033,-151.203"/>
</a>
<a xlink:href="./#measurementOf" xlink:title="measurementOf">
<text text-anchor="middle" x="473" y="-131.4" font-family="Helvetica,sans-Serif" font-size="14.00">measurementOf</text>
</a>
</g>
<!-- ReportingOrganisation -->
<g id="node23" class="node"><title>ReportingOrganisation</title>
<a xlink:href="./#ReportingOrganisation" xlink:title="ReportingOrganisation">
<ellipse fill="none" stroke="black" cx="1682" cy="-18" rx="108.844" ry="18"/>
<text text-anchor="middle" x="1682" y="-13.4" font-family="Helvetica,sans-Serif" font-size="14.00">ReportingOrganisation</text>
</a>
</g>
<!-- ReportingOrganisation&#45;&gt;Organisation -->
<g id="edge18" class="edge"><title>ReportingOrganisation&#45;&gt;Organisation</title>
<path fill="none" stroke="red" stroke-dasharray="5,2" d="M1602.03,-30.2338C1589.31,-32.1697 1576.29,-34.1443 1564,-36 1456.92,-52.1622 1332.6,-70.6781 1257.42,-81.8482"/>
<polygon fill="red" stroke="red" points="1256.52,-78.4431 1247.15,-83.3745 1257.55,-85.3671 1256.52,-78.4431"/>
</g>
<!-- Response -->
<g id="node25" class="node"><title>Response</title>
<a xlink:href="./#Response" xlink:title="Response">
<ellipse fill="none" stroke="black" cx="842" cy="-92" rx="53.1641" ry="18"/>
<text text-anchor="middle" x="842" y="-87.4" font-family="Helvetica,sans-Serif" font-size="14.00">Response</text>
</a>
</g>
<!-- Response&#45;&gt;Activity -->
<g id="edge32" class="edge"><title>Response&#45;&gt;Activity</title>
<a xlink:href="./#hasPart" xlink:title="hasPart">
<path fill="none" stroke="darkslategray" d="M888.015,-101.369C905.341,-106.779 924.176,-115.158 938,-128 945.092,-134.588 950.261,-143.687 953.944,-152.433"/>
<polygon fill="darkslategray" stroke="darkslategray" points="950.735,-153.846 957.494,-162.005 957.299,-151.412 950.735,-153.846"/>
</a>
<a xlink:href="./#hasPart" xlink:title="hasPart">
<text text-anchor="middle" x="976" y="-131.4" font-family="Helvetica,sans-Serif" font-size="14.00">hasPart</text>
</a>
</g>
<!-- Response&#45;&gt;Need -->
<g id="edge20" class="edge"><title>Response&#45;&gt;Need</title>
<a xlink:href="./#addresses" xlink:title="addresses">
<path fill="none" stroke="darkslategray" d="M797.457,-101.927C765.893,-111.539 725.775,-129.581 706,-162 689.758,-188.628 692.929,-206.578 711,-232 718.278,-242.238 729.37,-249.788 740.546,-255.252"/>
<polygon fill="darkslategray" stroke="darkslategray" points="739.309,-258.532 749.871,-259.364 742.133,-252.127 739.309,-258.532"/>
</a>
<a xlink:href="./#addresses" xlink:title="addresses">
<text text-anchor="middle" x="739.5" y="-175.4" font-family="Helvetica,sans-Serif" font-size="14.00">addresses</text>
</a>
</g>
<!-- Emergency -->
<g id="node32" class="node"><title>Emergency</title>
<a xlink:href="./#Emergency" xlink:title="Emergency">
<ellipse fill="none" stroke="gray" cx="842" cy="-180" rx="59.8749" ry="18"/>
<text text-anchor="middle" x="842" y="-175.4" font-family="Helvetica,sans-Serif" font-size="14.00" fill="gray">Emergency</text>
</a>
</g>
<!-- Response&#45;&gt;Emergency -->
<g id="edge28" class="edge"><title>Response&#45;&gt;Emergency</title>
<a xlink:href="./#forEmergency" xlink:title="forEmergency">
<path fill="none" stroke="darkslategray" d="M842,-110.234C842,-122.151 842,-137.962 842,-151.518"/>
<polygon fill="darkslategray" stroke="darkslategray" points="838.5,-151.79 842,-161.79 845.5,-151.79 838.5,-151.79"/>
</a>
<a xlink:href="./#forEmergency" xlink:title="forEmergency">
<text text-anchor="middle" x="888.5" y="-131.4" font-family="Helvetica,sans-Serif" font-size="14.00">forEmergency</text>
</a>
</g>
<!-- Indicator&#45;&gt;Objective -->
<g id="edge46" class="edge"><title>Indicator&#45;&gt;Objective</title>
<a xlink:href="./#measures" xlink:title="measures">
<path fill="none" stroke="darkslategray" d="M409,-198.234C409,-210.151 409,-225.962 409,-239.518"/>
<polygon fill="darkslategray" stroke="darkslategray" points="405.5,-239.79 409,-249.79 412.5,-239.79 405.5,-239.79"/>
</a>
<a xlink:href="./#measures" xlink:title="measures">
<text text-anchor="middle" x="441" y="-219.4" font-family="Helvetica,sans-Serif" font-size="14.00">measures</text>
</a>
</g>
</g>
</svg>
