<?xml version="1.0" encoding="UTF-8" standalone="no"?>
<!DOCTYPE svg PUBLIC "-//W3C//DTD SVG 1.1//EN"
 "http://www.w3.org/Graphics/SVG/1.1/DTD/svg11.dtd">
<!-- Generated by graphviz version 2.26.3 (20100126.1600)
 -->
<!-- Title: _anonymous_0 Pages: 1 -->
<svg width="1413pt" height="456pt"
 viewBox="0.00 0.00 1413.00 456.00" xmlns="http://www.w3.org/2000/svg" xmlns:xlink="http://www.w3.org/1999/xlink">
<g id="graph1" class="graph" transform="scale(1 1) rotate(0) translate(4 452)">
<title>_anonymous_0</title>
<polygon fill="white" stroke="white" points="-4,5 -4,-452 1410,-452 1410,5 -4,5"/>
<!-- AffectedPopulation -->
<g id="node1" class="node"><title>AffectedPopulation</title>
<a xlink:href="./#AffectedPopulation" xlink:title="AffectedPopulation">
<ellipse fill="none" stroke="black" cx="998" cy="-166" rx="94.7578" ry="18"/>
<text text-anchor="middle" x="998" y="-161.4" font-family="Helvetica,sans-Serif" font-size="14.00">AffectedPopulation</text>
</a>
</g>
<!-- Population -->
<g id="node3" class="node"><title>Population</title>
<a xlink:href="./#Population" xlink:title="Population">
<ellipse fill="none" stroke="black" cx="784" cy="-254" rx="57.0197" ry="18"/>
<text text-anchor="middle" x="784" y="-249.4" font-family="Helvetica,sans-Serif" font-size="14.00">Population</text>
</a>
</g>
<!-- AffectedPopulation&#45;&gt;Population -->
<g id="edge2" class="edge"><title>AffectedPopulation&#45;&gt;Population</title>
<path fill="none" stroke="red" stroke-dasharray="5,2" d="M957.999,-182.449C921.085,-197.629 866.368,-220.129 828.18,-235.832"/>
<polygon fill="red" stroke="red" points="826.766,-232.63 818.848,-239.67 829.428,-239.104 826.766,-232.63"/>
</g>
<!-- Emergency -->
<g id="node12" class="node"><title>Emergency</title>
<a xlink:href="./#Emergency" xlink:title="Emergency">
<ellipse fill="none" stroke="black" cx="1013" cy="-254" rx="59.8749" ry="18"/>
<text text-anchor="middle" x="1013" y="-249.4" font-family="Helvetica,sans-Serif" font-size="14.00">Emergency</text>
</a>
</g>
<!-- AffectedPopulation&#45;&gt;Emergency -->
<g id="edge40" class="edge"><title>AffectedPopulation&#45;&gt;Emergency</title>
<a xlink:href="./#affectedBy" xlink:title="affectedBy">
<path fill="none" stroke="darkslategray" d="M1001.11,-184.234C1003.16,-196.269 1005.89,-212.275 1008.21,-225.92"/>
<polygon fill="darkslategray" stroke="darkslategray" points="1004.77,-226.52 1009.9,-235.79 1011.67,-225.344 1004.77,-226.52"/>
</a>
<a xlink:href="./#affectedBy" xlink:title="affectedBy">
<text text-anchor="middle" x="1042.5" y="-205.4" font-family="Helvetica,sans-Serif" font-size="14.00">affectedBy</text>
</a>
</g>
<!-- http://xmlns.com/foaf/0.1/Group -->
<g id="node37" class="node"><title>http://xmlns.com/foaf/0.1/Group</title>
<a xlink:href="./#http://xmlns.com/foaf/0.1/Group" xlink:title="http://xmlns.com/foaf/0.1/Group">
<ellipse fill="none" stroke="black" cx="778" cy="-342" rx="146.239" ry="18"/>
<text text-anchor="middle" x="778" y="-337.4" font-family="Helvetica,sans-Serif" font-size="14.00">http://xmlns.com/foaf/0.1/Group</text>
</a>
</g>
<!-- Population&#45;&gt;http://xmlns.com/foaf/0.1/Group -->
<g id="edge32" class="edge"><title>Population&#45;&gt;http://xmlns.com/foaf/0.1/Group</title>
<path fill="none" stroke="red" stroke-dasharray="5,2" d="M782.757,-272.234C781.944,-284.151 780.866,-299.962 779.942,-313.518"/>
<polygon fill="red" stroke="red" points="776.43,-313.575 779.242,-323.79 783.414,-314.051 776.43,-313.575"/>
</g>
<!-- http://www.w3.org/2000/01/rdf&#45;schema#Literal -->
<g id="node47" class="node"><title>http://www.w3.org/2000/01/rdf&#45;schema#Literal</title>
<a xlink:href="./#http://www.w3.org/2000/01/rdf-schema#Literal" xlink:title="http://www.w3.org/2000/01/rdf&#45;schema#Literal">
<ellipse fill="none" stroke="gray" cx="405" cy="-342" rx="208.796" ry="18"/>
<text text-anchor="middle" x="405" y="-337.4" font-family="Helvetica,sans-Serif" font-size="14.00" fill="gray">http://www.w3.org/2000/01/rdf&#45;schema#Literal</text>
</a>
</g>
<!-- Population&#45;&gt;http://www.w3.org/2000/01/rdf&#45;schema#Literal -->
<g id="edge46" class="edge"><title>Population&#45;&gt;http://www.w3.org/2000/01/rdf&#45;schema#Literal</title>
<a xlink:href="./#count" xlink:title="count">
<path fill="none" stroke="darkslategray" d="M742.31,-266.306C734.289,-268.408 725.92,-270.419 718,-272 656.48,-284.283 639.357,-276.927 578,-290 540.056,-298.085 498.387,-310.498 465.453,-321.169"/>
<polygon fill="darkslategray" stroke="darkslategray" points="463.942,-317.981 455.526,-324.418 466.119,-324.633 463.942,-317.981"/>
</a>
<a xlink:href="./#count" xlink:title="count">
<text text-anchor="middle" x="596.5" y="-293.4" font-family="Helvetica,sans-Serif" font-size="14.00">count</text>
</a>
</g>
<!-- Population&#45;&gt;http://www.w3.org/2000/01/rdf&#45;schema#Literal -->
<g id="edge56" class="edge"><title>Population&#45;&gt;http://www.w3.org/2000/01/rdf&#45;schema#Literal</title>
<a xlink:href="./#provenanceInfo" xlink:title="provenanceInfo">
<path fill="none" stroke="darkslategray" d="M745.459,-267.413C711.456,-278.872 660.387,-295.174 615,-306 585.017,-313.151 552.303,-319.461 521.812,-324.72"/>
<polygon fill="darkslategray" stroke="darkslategray" points="520.836,-321.336 511.565,-326.463 522.01,-328.237 520.836,-321.336"/>
</a>
<a xlink:href="./#provenanceInfo" xlink:title="provenanceInfo">
<text text-anchor="middle" x="721" y="-293.4" font-family="Helvetica,sans-Serif" font-size="14.00">provenanceInfo</text>
</a>
</g>
<!-- AgeGroup -->
<g id="node4" class="node"><title>AgeGroup</title>
<a xlink:href="./#AgeGroup" xlink:title="AgeGroup">
<ellipse fill="none" stroke="black" cx="605" cy="-166" rx="53.838" ry="18"/>
<text text-anchor="middle" x="605" y="-161.4" font-family="Helvetica,sans-Serif" font-size="14.00">AgeGroup</text>
</a>
</g>
<!-- AgeGroup&#45;&gt;Population -->
<g id="edge4" class="edge"><title>AgeGroup&#45;&gt;Population</title>
<path fill="none" stroke="red" stroke-dasharray="5,2" d="M635.365,-180.928C665.233,-195.612 711.004,-218.114 743.861,-234.267"/>
<polygon fill="red" stroke="red" points="742.668,-237.58 753.186,-238.851 745.756,-231.298 742.668,-237.58"/>
</g>
<!-- http://www.w3.org/2001/XMLSchema#int -->
<g id="node49" class="node"><title>http://www.w3.org/2001/XMLSchema#int</title>
<a xlink:href="./#http://www.w3.org/2001/XMLSchema#int" xlink:title="http://www.w3.org/2001/XMLSchema#int">
<ellipse fill="none" stroke="gray" cx="525" cy="-254" rx="183.805" ry="18"/>
<text text-anchor="middle" x="525" y="-249.4" font-family="Helvetica,sans-Serif" font-size="14.00" fill="gray">http://www.w3.org/2001/XMLSchema#int</text>
</a>
</g>
<!-- AgeGroup&#45;&gt;http://www.w3.org/2001/XMLSchema#int -->
<g id="edge48" class="edge"><title>AgeGroup&#45;&gt;http://www.w3.org/2001/XMLSchema#int</title>
<a xlink:href="./#fromAge" xlink:title="fromAge">
<path fill="none" stroke="darkslategray" d="M560.306,-176.437C547.04,-181.821 533.944,-189.907 526,-202 521.468,-208.898 520.045,-217.5 520.089,-225.709"/>
<polygon fill="darkslategray" stroke="darkslategray" points="516.602,-226.014 520.805,-235.739 523.584,-225.515 516.602,-226.014"/>
</a>
<a xlink:href="./#fromAge" xlink:title="fromAge">
<text text-anchor="middle" x="554.5" y="-205.4" font-family="Helvetica,sans-Serif" font-size="14.00">fromAge</text>
</a>
</g>
<!-- AgeGroup&#45;&gt;http://www.w3.org/2001/XMLSchema#int -->
<g id="edge58" class="edge"><title>AgeGroup&#45;&gt;http://www.w3.org/2001/XMLSchema#int</title>
<a xlink:href="./#toAge" xlink:title="toAge">
<path fill="none" stroke="darkslategray" d="M600.279,-184.354C596.829,-195.059 591.285,-208.318 583,-218 579.15,-222.5 574.593,-226.614 569.752,-230.323"/>
<polygon fill="darkslategray" stroke="darkslategray" points="567.586,-227.567 561.411,-236.177 571.607,-233.297 567.586,-227.567"/>
</a>
<a xlink:href="./#toAge" xlink:title="toAge">
<text text-anchor="middle" x="612" y="-205.4" font-family="Helvetica,sans-Serif" font-size="14.00">toAge</text>
</a>
</g>
<!-- Casualty -->
<g id="node6" class="node"><title>Casualty</title>
<a xlink:href="./#Casualty" xlink:title="Casualty">
<ellipse fill="none" stroke="black" cx="845" cy="-92" rx="48.9699" ry="18"/>
<text text-anchor="middle" x="845" y="-87.4" font-family="Helvetica,sans-Serif" font-size="14.00">Casualty</text>
</a>
</g>
<!-- Casualty&#45;&gt;AffectedPopulation -->
<g id="edge6" class="edge"><title>Casualty&#45;&gt;AffectedPopulation</title>
<path fill="none" stroke="red" stroke-dasharray="5,2" d="M874.863,-106.444C897.402,-117.345 928.674,-132.47 954.064,-144.75"/>
<polygon fill="red" stroke="red" points="952.598,-147.929 963.124,-149.132 955.646,-141.627 952.598,-147.929"/>
</g>
<!-- Dead -->
<g id="node8" class="node"><title>Dead</title>
<a xlink:href="./#Dead" xlink:title="Dead">
<ellipse fill="none" stroke="black" cx="686" cy="-18" rx="34.2118" ry="18"/>
<text text-anchor="middle" x="686" y="-13.4" font-family="Helvetica,sans-Serif" font-size="14.00">Dead</text>
</a>
</g>
<!-- Dead&#45;&gt;Casualty -->
<g id="edge8" class="edge"><title>Dead&#45;&gt;Casualty</title>
<path fill="none" stroke="red" stroke-dasharray="5,2" d="M711.546,-29.8894C736.894,-41.6864 776.097,-59.9319 805.466,-73.6003"/>
<polygon fill="red" stroke="red" points="804.082,-76.8169 814.625,-77.8633 807.036,-70.4706 804.082,-76.8169"/>
</g>
<!-- Displaced -->
<g id="node10" class="node"><title>Displaced</title>
<a xlink:href="./#Displaced" xlink:title="Displaced">
<ellipse fill="none" stroke="black" cx="998" cy="-92" rx="52.9948" ry="18"/>
<text text-anchor="middle" x="998" y="-87.4" font-family="Helvetica,sans-Serif" font-size="14.00">Displaced</text>
</a>
</g>
<!-- Displaced&#45;&gt;AffectedPopulation -->
<g id="edge10" class="edge"><title>Displaced&#45;&gt;AffectedPopulation</title>
<path fill="none" stroke="red" stroke-dasharray="5,2" d="M998,-110.292C998,-118.536 998,-128.462 998,-137.638"/>
<polygon fill="red" stroke="red" points="994.5,-137.918 998,-147.918 1001.5,-137.918 994.5,-137.918"/>
</g>
<!-- Situation -->
<g id="node14" class="node"><title>Situation</title>
<a xlink:href="./#Situation" xlink:title="Situation">
<ellipse fill="none" stroke="black" cx="1151" cy="-342" rx="49.1393" ry="18"/>
<text text-anchor="middle" x="1151" y="-337.4" font-family="Helvetica,sans-Serif" font-size="14.00">Situation</text>
</a>
</g>
<!-- Emergency&#45;&gt;Situation -->
<g id="edge12" class="edge"><title>Emergency&#45;&gt;Situation</title>
<path fill="none" stroke="red" stroke-dasharray="5,2" d="M1061.64,-264.737C1088.63,-271.521 1118.76,-280.731 1129,-290 1136.08,-296.405 1140.95,-305.459 1144.28,-314.221"/>
<polygon fill="red" stroke="red" points="1140.98,-315.409 1147.41,-323.833 1147.64,-313.241 1140.98,-315.409"/>
</g>
<!-- GLIDEnumber -->
<g id="node20" class="node"><title>GLIDEnumber</title>
<a xlink:href="./#GLIDEnumber" xlink:title="GLIDEnumber">
<ellipse fill="none" stroke="black" cx="1013" cy="-342" rx="71.107" ry="18"/>
<text text-anchor="middle" x="1013" y="-337.4" font-family="Helvetica,sans-Serif" font-size="14.00">GLIDEnumber</text>
</a>
</g>
<!-- Emergency&#45;&gt;GLIDEnumber -->
<g id="edge50" class="edge"><title>Emergency&#45;&gt;GLIDEnumber</title>
<a xlink:href="./#hasGLIDEnumber" xlink:title="hasGLIDEnumber">
<path fill="none" stroke="darkslategray" d="M1013,-272.234C1013,-284.151 1013,-299.962 1013,-313.518"/>
<polygon fill="darkslategray" stroke="darkslategray" points="1009.5,-313.79 1013,-323.79 1016.5,-313.79 1009.5,-313.79"/>
</a>
<a xlink:href="./#hasGLIDEnumber" xlink:title="hasGLIDEnumber">
<text text-anchor="middle" x="1069" y="-293.4" font-family="Helvetica,sans-Serif" font-size="14.00">hasGLIDEnumber</text>
</a>
</g>
<!-- http://www.w3.org/2001/XMLSchema#string -->
<g id="node45" class="node"><title>http://www.w3.org/2001/XMLSchema#string</title>
<a xlink:href="./#http://www.w3.org/2001/XMLSchema#string" xlink:title="http://www.w3.org/2001/XMLSchema#string">
<ellipse fill="none" stroke="gray" cx="1151" cy="-430" rx="197.221" ry="18"/>
<text text-anchor="middle" x="1151" y="-425.4" font-family="Helvetica,sans-Serif" font-size="14.00" fill="gray">http://www.w3.org/2001/XMLSchema#string</text>
</a>
</g>
<!-- Situation&#45;&gt;http://www.w3.org/2001/XMLSchema#string -->
<g id="edge44" class="edge"><title>Situation&#45;&gt;http://www.w3.org/2001/XMLSchema#string</title>
<a xlink:href="./#commonTitle" xlink:title="commonTitle">
<path fill="none" stroke="darkslategray" d="M1119.79,-356.08C1111.16,-361.608 1102.84,-368.858 1098,-378 1092.53,-388.324 1097.58,-397.855 1106.38,-405.86"/>
<polygon fill="darkslategray" stroke="darkslategray" points="1104.47,-408.811 1114.51,-412.21 1108.78,-403.295 1104.47,-408.811"/>
</a>
<a xlink:href="./#commonTitle" xlink:title="commonTitle">
<text text-anchor="middle" x="1140.5" y="-381.4" font-family="Helvetica,sans-Serif" font-size="14.00">commonTitle</text>
</a>
</g>
<!-- Situation&#45;&gt;http://www.w3.org/2001/XMLSchema#string -->
<g id="edge60" class="edge"><title>Situation&#45;&gt;http://www.w3.org/2001/XMLSchema#string</title>
<a xlink:href="./#http://purl.org/dc/terms/description" xlink:title="http://purl.org/dc/terms/description">
<path fill="none" stroke="darkslategray" d="M1170.54,-358.906C1175.58,-364.427 1180.33,-370.965 1183,-378 1186.32,-386.732 1183.56,-395.614 1178.52,-403.508"/>
<polygon fill="darkslategray" stroke="darkslategray" points="1175.6,-401.558 1172.33,-411.633 1181.17,-405.801 1175.6,-401.558"/>
</a>
<a xlink:href="./#http://purl.org/dc/terms/description" xlink:title="http://purl.org/dc/terms/description">
<text text-anchor="middle" x="1294.5" y="-381.4" font-family="Helvetica,sans-Serif" font-size="14.00">http://purl.org/dc/terms/description</text>
</a>
</g>
<!-- Female -->
<g id="node15" class="node"><title>Female</title>
<a xlink:href="./#Female" xlink:title="Female">
<ellipse fill="none" stroke="black" cx="135" cy="-342" rx="43.1021" ry="18"/>
<text text-anchor="middle" x="135" y="-337.4" font-family="Helvetica,sans-Serif" font-size="14.00">Female</text>
</a>
</g>
<!-- http://xmlns.com/foaf/0.1/Agent -->
<g id="node17" class="node"><title>http://xmlns.com/foaf/0.1/Agent</title>
<a xlink:href="./#http://xmlns.com/foaf/0.1/Agent" xlink:title="http://xmlns.com/foaf/0.1/Agent">
<ellipse fill="none" stroke="black" cx="249" cy="-430" rx="145.068" ry="18"/>
<text text-anchor="middle" x="249" y="-425.4" font-family="Helvetica,sans-Serif" font-size="14.00">http://xmlns.com/foaf/0.1/Agent</text>
</a>
</g>
<!-- Female&#45;&gt;http://xmlns.com/foaf/0.1/Agent -->
<g id="edge14" class="edge"><title>Female&#45;&gt;http://xmlns.com/foaf/0.1/Agent</title>
<path fill="none" stroke="red" stroke-dasharray="5,2" d="M155.645,-357.936C172.937,-371.284 197.89,-390.547 217.648,-405.799"/>
<polygon fill="red" stroke="red" points="215.706,-408.721 225.761,-412.061 219.984,-403.18 215.706,-408.721"/>
</g>
<!-- Gender -->
<g id="node19" class="node"><title>Gender</title>
<a xlink:href="./#Gender" xlink:title="Gender">
<ellipse fill="none" stroke="black" cx="43" cy="-430" rx="43.1021" ry="18"/>
<text text-anchor="middle" x="43" y="-425.4" font-family="Helvetica,sans-Serif" font-size="14.00">Gender</text>
</a>
</g>
<!-- Female&#45;&gt;Gender -->
<g id="edge16" class="edge"><title>Female&#45;&gt;Gender</title>
<path fill="none" stroke="red" stroke-dasharray="5,2" d="M117.696,-358.552C103.65,-371.987 83.6612,-391.107 67.8955,-406.187"/>
<polygon fill="red" stroke="red" points="65.3469,-403.781 60.5397,-413.223 70.1854,-408.84 65.3469,-403.781"/>
</g>
<!-- IDP -->
<g id="node21" class="node"><title>IDP</title>
<a xlink:href="./#IDP" xlink:title="IDP">
<ellipse fill="none" stroke="black" cx="965" cy="-18" rx="27" ry="18"/>
<text text-anchor="middle" x="965" y="-13.4" font-family="Helvetica,sans-Serif" font-size="14.00">IDP</text>
</a>
</g>
<!-- IDP&#45;&gt;Displaced -->
<g id="edge18" class="edge"><title>IDP&#45;&gt;Displaced</title>
<path fill="none" stroke="red" stroke-dasharray="5,2" d="M972.821,-35.537C976.709,-44.2559 981.496,-54.9906 985.848,-64.7505"/>
<polygon fill="red" stroke="red" points="982.737,-66.3673 990.006,-74.0749 989.13,-63.5163 982.737,-66.3673"/>
</g>
<!-- Indicator -->
<g id="node23" class="node"><title>Indicator</title>
<a xlink:href="./#Indicator" xlink:title="Indicator">
<ellipse fill="none" stroke="black" cx="274" cy="-254" rx="49.1393" ry="18"/>
<text text-anchor="middle" x="274" y="-249.4" font-family="Helvetica,sans-Serif" font-size="14.00">Indicator</text>
</a>
</g>
<!-- Indicator&#45;&gt;http://www.w3.org/2000/01/rdf&#45;schema#Literal -->
<g id="edge52" class="edge"><title>Indicator&#45;&gt;http://www.w3.org/2000/01/rdf&#45;schema#Literal</title>
<a xlink:href="./#hasStandard" xlink:title="hasStandard">
<path fill="none" stroke="darkslategray" d="M312.443,-265.429C328.37,-271.263 346.476,-279.4 361,-290 370.654,-297.045 379.543,-306.632 386.767,-315.656"/>
<polygon fill="darkslategray" stroke="darkslategray" points="384.055,-317.872 392.906,-323.695 389.618,-313.624 384.055,-317.872"/>
</a>
<a xlink:href="./#hasStandard" xlink:title="hasStandard">
<text text-anchor="middle" x="420" y="-293.4" font-family="Helvetica,sans-Serif" font-size="14.00">hasStandard</text>
</a>
</g>
<!-- Indicator&#45;&gt;http://www.w3.org/2000/01/rdf&#45;schema#Literal -->
<g id="edge54" class="edge"><title>Indicator&#45;&gt;http://www.w3.org/2000/01/rdf&#45;schema#Literal</title>
<a xlink:href="./#hasValue" xlink:title="hasValue">
<path fill="none" stroke="darkslategray" d="M278.401,-272.11C281.974,-283.27 288.085,-297.1 298,-306 304.518,-311.85 312.02,-316.754 319.964,-320.865"/>
<polygon fill="darkslategray" stroke="darkslategray" points="318.556,-324.071 329.093,-325.178 321.546,-317.742 318.556,-324.071"/>
</a>
<a xlink:href="./#hasValue" xlink:title="hasValue">
<text text-anchor="middle" x="327.5" y="-293.4" font-family="Helvetica,sans-Serif" font-size="14.00">hasValue</text>
</a>
</g>
<!-- Injured -->
<g id="node24" class="node"><title>Injured</title>
<a xlink:href="./#Injured" xlink:title="Injured">
<ellipse fill="none" stroke="black" cx="778" cy="-18" rx="40.2492" ry="18"/>
<text text-anchor="middle" x="778" y="-13.4" font-family="Helvetica,sans-Serif" font-size="14.00">Injured</text>
</a>
</g>
<!-- Injured&#45;&gt;Casualty -->
<g id="edge20" class="edge"><title>Injured&#45;&gt;Casualty</title>
<path fill="none" stroke="red" stroke-dasharray="5,2" d="M793.203,-34.7917C801.902,-44.3997 812.976,-56.6301 822.649,-67.3143"/>
<polygon fill="red" stroke="red" points="820.086,-69.6973 829.392,-74.7612 825.275,-64.999 820.086,-69.6973"/>
</g>
<!-- Male -->
<g id="node26" class="node"><title>Male</title>
<a xlink:href="./#Male" xlink:title="Male">
<ellipse fill="none" stroke="black" cx="43" cy="-342" rx="31.0281" ry="18"/>
<text text-anchor="middle" x="43" y="-337.4" font-family="Helvetica,sans-Serif" font-size="14.00">Male</text>
</a>
</g>
<!-- Male&#45;&gt;http://xmlns.com/foaf/0.1/Agent -->
<g id="edge22" class="edge"><title>Male&#45;&gt;http://xmlns.com/foaf/0.1/Agent</title>
<path fill="none" stroke="red" stroke-dasharray="5,2" d="M67.4976,-353.135C72.6105,-355.428 77.9736,-357.81 83,-360 121.362,-376.717 164.967,-395.08 197.857,-408.803"/>
<polygon fill="red" stroke="red" points="196.691,-412.109 207.268,-412.725 199.384,-405.648 196.691,-412.109"/>
</g>
<!-- Male&#45;&gt;Gender -->
<g id="edge24" class="edge"><title>Male&#45;&gt;Gender</title>
<path fill="none" stroke="red" stroke-dasharray="5,2" d="M43,-360.234C43,-372.151 43,-387.962 43,-401.518"/>
<polygon fill="red" stroke="red" points="39.5001,-401.79 43,-411.79 46.5001,-401.79 39.5001,-401.79"/>
</g>
<!-- Missing -->
<g id="node29" class="node"><title>Missing</title>
<a xlink:href="./#Missing" xlink:title="Missing">
<ellipse fill="none" stroke="black" cx="878" cy="-18" rx="41.7645" ry="18"/>
<text text-anchor="middle" x="878" y="-13.4" font-family="Helvetica,sans-Serif" font-size="14.00">Missing</text>
</a>
</g>
<!-- Missing&#45;&gt;Casualty -->
<g id="edge26" class="edge"><title>Missing&#45;&gt;Casualty</title>
<path fill="none" stroke="red" stroke-dasharray="5,2" d="M870.012,-35.9133C866.149,-44.5752 861.429,-55.1588 857.135,-64.7891"/>
<polygon fill="red" stroke="red" points="853.906,-63.4366 853.029,-73.9951 860.299,-66.2876 853.906,-63.4366"/>
</g>
<!-- Need -->
<g id="node31" class="node"><title>Need</title>
<a xlink:href="./#Need" xlink:title="Need">
<ellipse fill="none" stroke="black" cx="274" cy="-166" rx="34.2118" ry="18"/>
<text text-anchor="middle" x="274" y="-161.4" font-family="Helvetica,sans-Serif" font-size="14.00">Need</text>
</a>
</g>
<!-- Need&#45;&gt;Indicator -->
<g id="edge42" class="edge"><title>Need&#45;&gt;Indicator</title>
<a xlink:href="./#basedOn" xlink:title="basedOn">
<path fill="none" stroke="darkslategray" d="M274,-184.234C274,-196.151 274,-211.962 274,-225.518"/>
<polygon fill="darkslategray" stroke="darkslategray" points="270.5,-225.79 274,-235.79 277.5,-225.79 270.5,-225.79"/>
</a>
<a xlink:href="./#basedOn" xlink:title="basedOn">
<text text-anchor="middle" x="303" y="-205.4" font-family="Helvetica,sans-Serif" font-size="14.00">basedOn</text>
</a>
</g>
<!-- NonDisplaced -->
<g id="node32" class="node"><title>NonDisplaced</title>
<a xlink:href="./#NonDisplaced" xlink:title="NonDisplaced">
<ellipse fill="none" stroke="black" cx="1139" cy="-92" rx="69.7653" ry="18"/>
<text text-anchor="middle" x="1139" y="-87.4" font-family="Helvetica,sans-Serif" font-size="14.00">NonDisplaced</text>
</a>
</g>
<!-- NonDisplaced&#45;&gt;AffectedPopulation -->
<g id="edge28" class="edge"><title>NonDisplaced&#45;&gt;AffectedPopulation</title>
<path fill="none" stroke="red" stroke-dasharray="5,2" d="M1108.06,-108.24C1087.91,-118.812 1061.4,-132.728 1039.44,-144.252"/>
<polygon fill="red" stroke="red" points="1037.57,-141.281 1030.34,-149.027 1040.82,-147.479 1037.57,-141.281"/>
</g>
<!-- Others -->
<g id="node34" class="node"><title>Others</title>
<a xlink:href="./#Others" xlink:title="Others">
<ellipse fill="none" stroke="black" cx="1051" cy="-18" rx="40.92" ry="18"/>
<text text-anchor="middle" x="1051" y="-13.4" font-family="Helvetica,sans-Serif" font-size="14.00">Others</text>
</a>
</g>
<!-- Others&#45;&gt;Displaced -->
<g id="edge30" class="edge"><title>Others&#45;&gt;Displaced</title>
<path fill="none" stroke="red" stroke-dasharray="5,2" d="M1038.44,-35.537C1031.89,-44.686 1023.74,-56.0545 1016.49,-66.1873"/>
<polygon fill="red" stroke="red" points="1013.63,-64.1646 1010.65,-74.3325 1019.32,-68.2405 1013.63,-64.1646"/>
</g>
<!-- http://xmlns.com/foaf/0.1/Group&#45;&gt;http://xmlns.com/foaf/0.1/Agent -->
<g id="edge38" class="edge"><title>http://xmlns.com/foaf/0.1/Group&#45;&gt;http://xmlns.com/foaf/0.1/Agent</title>
<path fill="none" stroke="red" stroke-dasharray="5,2" d="M690.943,-356.482C596.095,-372.26 444.75,-397.437 346.117,-413.844"/>
<polygon fill="red" stroke="red" points="345.436,-410.41 336.146,-415.503 346.585,-417.315 345.436,-410.41"/>
</g>
<!-- RefugeesAsylumSeekers -->
<g id="node38" class="node"><title>RefugeesAsylumSeekers</title>
<a xlink:href="./#RefugeesAsylumSeekers" xlink:title="RefugeesAsylumSeekers">
<ellipse fill="none" stroke="black" cx="1229" cy="-18" rx="118.906" ry="18"/>
<text text-anchor="middle" x="1229" y="-13.4" font-family="Helvetica,sans-Serif" font-size="14.00">RefugeesAsylumSeekers</text>
</a>
</g>
<!-- RefugeesAsylumSeekers&#45;&gt;Displaced -->
<g id="edge34" class="edge"><title>RefugeesAsylumSeekers&#45;&gt;Displaced</title>
<path fill="none" stroke="red" stroke-dasharray="5,2" d="M1178.02,-34.3312C1138.87,-46.8731 1085.16,-64.0802 1046.61,-76.4284"/>
<polygon fill="red" stroke="red" points="1045.12,-73.2316 1036.66,-79.6155 1047.25,-79.8979 1045.12,-73.2316"/>
</g>
<!-- TotalPopulation -->
<g id="node40" class="node"><title>TotalPopulation</title>
<a xlink:href="./#TotalPopulation" xlink:title="TotalPopulation">
<ellipse fill="none" stroke="black" cx="784" cy="-166" rx="79.8276" ry="18"/>
<text text-anchor="middle" x="784" y="-161.4" font-family="Helvetica,sans-Serif" font-size="14.00">TotalPopulation</text>
</a>
</g>
<!-- TotalPopulation&#45;&gt;Population -->
<g id="edge36" class="edge"><title>TotalPopulation&#45;&gt;Population</title>
<path fill="none" stroke="red" stroke-dasharray="5,2" d="M784,-184.234C784,-196.151 784,-211.962 784,-225.518"/>
<polygon fill="red" stroke="red" points="780.5,-225.79 784,-235.79 787.5,-225.79 780.5,-225.79"/>
</g>
</g>
</svg>
