<?xml version="1.0" encoding="UTF-8" standalone="no"?>
<!DOCTYPE svg PUBLIC "-//W3C//DTD SVG 1.1//EN"
 "http://www.w3.org/Graphics/SVG/1.1/DTD/svg11.dtd">
<!-- Generated by graphviz version 2.26.3 (20100126.1600)
 -->
<!-- Title: _anonymous_0 Pages: 1 -->
<svg width="1634pt" height="382pt"
 viewBox="0.00 0.00 1634.00 382.00" xmlns="http://www.w3.org/2000/svg" xmlns:xlink="http://www.w3.org/1999/xlink">
<g id="graph1" class="graph" transform="scale(1 1) rotate(0) translate(4 378)">
<title>_anonymous_0</title>
<polygon fill="white" stroke="white" points="-4,5 -4,-378 1631,-378 1631,5 -4,5"/>
<!-- AdminUnit -->
<g id="node1" class="node"><title>AdminUnit</title>
<a xlink:href="./#AdminUnit" xlink:title="AdminUnit">
<ellipse fill="none" stroke="black" cx="408" cy="-92" rx="55.1765" ry="18"/>
<text text-anchor="middle" x="408" y="-87.4" font-family="Helvetica,sans-Serif" font-size="14.00">AdminUnit</text>
</a>
</g>
<!-- AdminUnit&#45;&gt;AdminUnit -->
<g id="edge40" class="edge"><title>AdminUnit&#45;&gt;AdminUnit</title>
<a xlink:href="./#inAdminUnit" xlink:title="inAdminUnit">
<path fill="none" stroke="darkslategray" d="M459.168,-85.3555C471.685,-85.8477 481,-88.0625 481,-92 481,-94.7686 476.395,-96.6855 469.309,-97.7507"/>
<polygon fill="darkslategray" stroke="darkslategray" points="468.822,-94.28 459.168,-98.6445 469.436,-101.253 468.822,-94.28"/>
</a>
<a xlink:href="./#inAdminUnit" xlink:title="inAdminUnit">
<text text-anchor="middle" x="519.5" y="-87.4" font-family="Helvetica,sans-Serif" font-size="14.00">inAdminUnit</text>
</a>
</g>
<!-- Feature -->
<g id="node3" class="node"><title>Feature</title>
<a xlink:href="./#Feature" xlink:title="Feature">
<ellipse fill="none" stroke="black" cx="717" cy="-180" rx="45.1145" ry="18"/>
<text text-anchor="middle" x="717" y="-175.4" font-family="Helvetica,sans-Serif" font-size="14.00">Feature</text>
</a>
</g>
<!-- AdminUnit&#45;&gt;Feature -->
<g id="edge2" class="edge"><title>AdminUnit&#45;&gt;Feature</title>
<path fill="none" stroke="red" stroke-dasharray="5,2" d="M449.673,-103.868C507.136,-120.233 610.382,-149.636 670.357,-166.717"/>
<polygon fill="red" stroke="red" points="669.738,-170.179 680.314,-169.552 671.655,-163.447 669.738,-170.179"/>
</g>
<!-- AdminUnitLevel -->
<g id="node4" class="node"><title>AdminUnitLevel</title>
<a xlink:href="./#AdminUnitLevel" xlink:title="AdminUnitLevel">
<ellipse fill="none" stroke="black" cx="225" cy="-180" rx="77.8152" ry="18"/>
<text text-anchor="middle" x="225" y="-175.4" font-family="Helvetica,sans-Serif" font-size="14.00">AdminUnitLevel</text>
</a>
</g>
<!-- AdminUnit&#45;&gt;AdminUnitLevel -->
<g id="edge26" class="edge"><title>AdminUnit&#45;&gt;AdminUnitLevel</title>
<a xlink:href="./#atLevel" xlink:title="atLevel">
<path fill="none" stroke="darkslategray" d="M376.957,-106.928C347.036,-121.316 301.504,-143.211 268.08,-159.284"/>
<polygon fill="darkslategray" stroke="darkslategray" points="266.492,-156.164 258.997,-163.652 269.526,-162.472 266.492,-156.164"/>
</a>
<a xlink:href="./#atLevel" xlink:title="atLevel">
<text text-anchor="middle" x="357" y="-131.4" font-family="Helvetica,sans-Serif" font-size="14.00">atLevel</text>
</a>
</g>
<!-- http://www.w3.org/2003/01/geo/wgs84_pos#SpatialThing -->
<g id="node10" class="node"><title>http://www.w3.org/2003/01/geo/wgs84_pos#SpatialThing</title>
<a xlink:href="./#Feature" xlink:title="http://www.w3.org/2003/01/geo/wgs84_pos#SpatialThing">
<ellipse fill="none" stroke="gray" cx="717" cy="-268" rx="253.07" ry="18"/>
<text text-anchor="middle" x="717" y="-263.4" font-family="Helvetica,sans-Serif" font-size="14.00" fill="gray">http://www.w3.org/2003/01/geo/wgs84_pos#SpatialThing</text>
</a>
</g>
<!-- Feature&#45;&gt;http://www.w3.org/2003/01/geo/wgs84_pos#SpatialThing -->
<g id="edge8" class="edge"><title>Feature&#45;&gt;http://www.w3.org/2003/01/geo/wgs84_pos#SpatialThing</title>
<path fill="none" stroke="red" stroke-dasharray="5,2" d="M717,-198.234C717,-210.151 717,-225.962 717,-239.518"/>
<polygon fill="red" stroke="red" points="713.5,-239.79 717,-249.79 720.5,-239.79 713.5,-239.79"/>
</g>
<!-- Geometry -->
<g id="node12" class="node"><title>Geometry</title>
<a xlink:href="./#Geometry" xlink:title="Geometry">
<ellipse fill="none" stroke="black" cx="1042" cy="-268" rx="53.838" ry="18"/>
<text text-anchor="middle" x="1042" y="-263.4" font-family="Helvetica,sans-Serif" font-size="14.00">Geometry</text>
</a>
</g>
<!-- Feature&#45;&gt;Geometry -->
<g id="edge38" class="edge"><title>Feature&#45;&gt;Geometry</title>
<a xlink:href="./#hasGeometry" xlink:title="hasGeometry">
<path fill="none" stroke="darkslategray" d="M753.377,-190.74C790.591,-201.606 850.142,-218.657 902,-232 936.036,-240.757 944.983,-241.17 979,-250 983.088,-251.061 987.315,-252.193 991.554,-253.353"/>
<polygon fill="darkslategray" stroke="darkslategray" points="990.84,-256.787 1001.41,-256.089 992.713,-250.042 990.84,-256.787"/>
</a>
<a xlink:href="./#hasGeometry" xlink:title="hasGeometry">
<text text-anchor="middle" x="946" y="-219.4" font-family="Helvetica,sans-Serif" font-size="14.00">hasGeometry</text>
</a>
</g>
<!-- Country -->
<g id="node8" class="node"><title>Country</title>
<a xlink:href="./#Country" xlink:title="Country">
<ellipse fill="none" stroke="black" cx="401" cy="-268" rx="45.1145" ry="18"/>
<text text-anchor="middle" x="401" y="-263.4" font-family="Helvetica,sans-Serif" font-size="14.00">Country</text>
</a>
</g>
<!-- AdminUnitLevel&#45;&gt;Country -->
<g id="edge18" class="edge"><title>AdminUnitLevel&#45;&gt;Country</title>
<a xlink:href="./#adminUnitLevelCountry" xlink:title="adminUnitLevelCountry">
<path fill="none" stroke="darkslategray" d="M226.7,-198.244C228.738,-209.604 233.208,-223.606 243,-232 276.953,-261.107 298.539,-239.457 342,-250 346.635,-251.124 351.442,-252.402 356.222,-253.746"/>
<polygon fill="darkslategray" stroke="darkslategray" points="355.351,-257.138 365.931,-256.569 357.306,-250.416 355.351,-257.138"/>
</a>
<a xlink:href="./#adminUnitLevelCountry" xlink:title="adminUnitLevelCountry">
<text text-anchor="middle" x="318.5" y="-219.4" font-family="Helvetica,sans-Serif" font-size="14.00">adminUnitLevelCountry</text>
</a>
</g>
<!-- http://www.w3.org/2000/01/rdf&#45;schema#Literal -->
<g id="node21" class="node"><title>http://www.w3.org/2000/01/rdf&#45;schema#Literal</title>
<a xlink:href="./#http://www.w3.org/2000/01/rdf-schema#Literal" xlink:title="http://www.w3.org/2000/01/rdf&#45;schema#Literal">
<ellipse fill="none" stroke="gray" cx="209" cy="-356" rx="208.796" ry="18"/>
<text text-anchor="middle" x="209" y="-351.4" font-family="Helvetica,sans-Serif" font-size="14.00" fill="gray">http://www.w3.org/2000/01/rdf&#45;schema#Literal</text>
</a>
</g>
<!-- AdminUnitLevel&#45;&gt;http://www.w3.org/2000/01/rdf&#45;schema#Literal -->
<g id="edge22" class="edge"><title>AdminUnitLevel&#45;&gt;http://www.w3.org/2000/01/rdf&#45;schema#Literal</title>
<a xlink:href="./#adminUnitLevelTitle" xlink:title="adminUnitLevelTitle">
<path fill="none" stroke="darkslategray" d="M223.113,-198.122C221.659,-212.251 219.63,-232.366 218,-250 215.557,-276.431 213.02,-306.593 211.265,-327.967"/>
<polygon fill="darkslategray" stroke="darkslategray" points="207.772,-327.736 210.447,-337.987 214.749,-328.306 207.772,-327.736"/>
</a>
<a xlink:href="./#adminUnitLevelTitle" xlink:title="adminUnitLevelTitle">
<text text-anchor="middle" x="282.5" y="-263.4" font-family="Helvetica,sans-Serif" font-size="14.00">adminUnitLevelTitle</text>
</a>
</g>
<!-- AdminUnitLevel&#45;&gt;http://www.w3.org/2000/01/rdf&#45;schema#Literal -->
<g id="edge20" class="edge"><title>AdminUnitLevel&#45;&gt;http://www.w3.org/2000/01/rdf&#45;schema#Literal</title>
<a xlink:href="./#adminUnitLevelNumber" xlink:title="adminUnitLevelNumber">
<path fill="none" stroke="darkslategray" d="M170.343,-192.986C120.632,-206.035 52.6983,-227.404 37,-250 8.33853,-291.256 65.5754,-319.526 121.572,-336.428"/>
<polygon fill="darkslategray" stroke="darkslategray" points="120.681,-339.814 131.261,-339.248 122.637,-333.093 120.681,-339.814"/>
</a>
<a xlink:href="./#adminUnitLevelNumber" xlink:title="adminUnitLevelNumber">
<text text-anchor="middle" x="112" y="-263.4" font-family="Helvetica,sans-Serif" font-size="14.00">adminUnitLevelNumber</text>
</a>
</g>
<!-- BoundingBox -->
<g id="node5" class="node"><title>BoundingBox</title>
<a xlink:href="./#BoundingBox" xlink:title="BoundingBox">
<ellipse fill="none" stroke="black" cx="1138" cy="-92" rx="67.082" ry="18"/>
<text text-anchor="middle" x="1138" y="-87.4" font-family="Helvetica,sans-Serif" font-size="14.00">BoundingBox</text>
</a>
</g>
<!-- Polygon -->
<g id="node7" class="node"><title>Polygon</title>
<a xlink:href="./#Polygon" xlink:title="Polygon">
<ellipse fill="none" stroke="black" cx="1138" cy="-180" rx="45.1145" ry="18"/>
<text text-anchor="middle" x="1138" y="-175.4" font-family="Helvetica,sans-Serif" font-size="14.00">Polygon</text>
</a>
</g>
<!-- BoundingBox&#45;&gt;Polygon -->
<g id="edge4" class="edge"><title>BoundingBox&#45;&gt;Polygon</title>
<path fill="none" stroke="red" stroke-dasharray="5,2" d="M1138,-110.234C1138,-122.151 1138,-137.962 1138,-151.518"/>
<polygon fill="red" stroke="red" points="1134.5,-151.79 1138,-161.79 1141.5,-151.79 1134.5,-151.79"/>
</g>
<!-- Polygon&#45;&gt;Geometry -->
<g id="edge14" class="edge"><title>Polygon&#45;&gt;Geometry</title>
<path fill="none" stroke="red" stroke-dasharray="5,2" d="M1119.94,-196.552C1105.38,-209.902 1084.69,-228.863 1068.29,-243.898"/>
<polygon fill="red" stroke="red" points="1065.64,-241.585 1060.63,-250.922 1070.37,-246.745 1065.64,-241.585"/>
</g>
<!-- Country&#45;&gt;AdminUnit -->
<g id="edge6" class="edge"><title>Country&#45;&gt;AdminUnit</title>
<path fill="none" stroke="red" stroke-dasharray="5,2" d="M401.719,-249.927C402.935,-219.351 405.407,-157.186 406.861,-120.631"/>
<polygon fill="red" stroke="red" points="410.377,-120.303 407.277,-110.172 403.383,-120.025 410.377,-120.303"/>
</g>
<!-- Geometry&#45;&gt;Geometry -->
<g id="edge32" class="edge"><title>Geometry&#45;&gt;Geometry</title>
<a xlink:href="./#contains" xlink:title="contains">
<path fill="none" stroke="darkslategray" d="M1096.01,-266.567C1106.53,-266.733 1114,-267.211 1114,-268 1114,-268.493 1111.08,-268.865 1106.32,-269.115"/>
<polygon fill="darkslategray" stroke="darkslategray" points="1105.89,-265.626 1096.01,-269.433 1106.11,-272.623 1105.89,-265.626"/>
</a>
<a xlink:href="./#contains" xlink:title="contains">
<text text-anchor="middle" x="1141.5" y="-263.4" font-family="Helvetica,sans-Serif" font-size="14.00">contains</text>
</a>
</g>
<!-- Geometry&#45;&gt;Geometry -->
<g id="edge34" class="edge"><title>Geometry&#45;&gt;Geometry</title>
<a xlink:href="./#crosses" xlink:title="crosses">
<path fill="none" stroke="darkslategray" d="M1083.77,-256.519C1122.37,-251.693 1169,-255.52 1169,-268 1169,-279.408 1130.04,-283.586 1093.86,-280.534"/>
<polygon fill="darkslategray" stroke="darkslategray" points="1094.08,-277.037 1083.77,-279.481 1093.35,-283.999 1094.08,-277.037"/>
</a>
<a xlink:href="./#crosses" xlink:title="crosses">
<text text-anchor="middle" x="1194" y="-263.4" font-family="Helvetica,sans-Serif" font-size="14.00">crosses</text>
</a>
</g>
<!-- Geometry&#45;&gt;Geometry -->
<g id="edge36" class="edge"><title>Geometry&#45;&gt;Geometry</title>
<a xlink:href="./#equals" xlink:title="equals">
<path fill="none" stroke="darkslategray" d="M1084.42,-256.809C1139.27,-249.231 1219,-252.961 1219,-268 1219,-282.128 1148.64,-286.276 1094.63,-280.443"/>
<polygon fill="darkslategray" stroke="darkslategray" points="1094.77,-276.934 1084.42,-279.191 1093.92,-283.882 1094.77,-276.934"/>
</a>
<a xlink:href="./#equals" xlink:title="equals">
<text text-anchor="middle" x="1240.5" y="-263.4" font-family="Helvetica,sans-Serif" font-size="14.00">equals</text>
</a>
</g>
<!-- Geometry&#45;&gt;Geometry -->
<g id="edge42" class="edge"><title>Geometry&#45;&gt;Geometry</title>
<a xlink:href="./#intersects" xlink:title="intersects">
<path fill="none" stroke="darkslategray" d="M1084.54,-256.904C1152,-247.006 1262,-250.705 1262,-268 1262,-284.45 1162.48,-288.6 1094.71,-280.449"/>
<polygon fill="darkslategray" stroke="darkslategray" points="1094.91,-276.946 1084.54,-279.096 1093.99,-283.885 1094.91,-276.946"/>
</a>
<a xlink:href="./#intersects" xlink:title="intersects">
<text text-anchor="middle" x="1294" y="-263.4" font-family="Helvetica,sans-Serif" font-size="14.00">intersects</text>
</a>
</g>
<!-- Geometry&#45;&gt;Geometry -->
<g id="edge44" class="edge"><title>Geometry&#45;&gt;Geometry</title>
<a xlink:href="./#near" xlink:title="near">
<path fill="none" stroke="darkslategray" d="M1085.13,-257.164C1169.08,-244.818 1326,-248.43 1326,-268 1326,-286.806 1181.1,-290.876 1095.28,-280.21"/>
<polygon fill="darkslategray" stroke="darkslategray" points="1095.5,-276.708 1085.13,-278.836 1094.57,-283.645 1095.5,-276.708"/>
</a>
<a xlink:href="./#near" xlink:title="near">
<text text-anchor="middle" x="1341" y="-263.4" font-family="Helvetica,sans-Serif" font-size="14.00">near</text>
</a>
</g>
<!-- Geometry&#45;&gt;Geometry -->
<g id="edge46" class="edge"><title>Geometry&#45;&gt;Geometry</title>
<a xlink:href="./#overlaps" xlink:title="overlaps">
<path fill="none" stroke="darkslategray" d="M1085.08,-256.998C1176.85,-242.751 1356,-246.418 1356,-268 1356,-288.823 1189.23,-292.969 1095.08,-280.438"/>
<polygon fill="darkslategray" stroke="darkslategray" points="1095.48,-276.96 1085.08,-279.002 1094.49,-283.889 1095.48,-276.96"/>
</a>
<a xlink:href="./#overlaps" xlink:title="overlaps">
<text text-anchor="middle" x="1383.5" y="-263.4" font-family="Helvetica,sans-Serif" font-size="14.00">overlaps</text>
</a>
</g>
<!-- Geometry&#45;&gt;Geometry -->
<g id="edge48" class="edge"><title>Geometry&#45;&gt;Geometry</title>
<a xlink:href="./#touches" xlink:title="touches">
<path fill="none" stroke="darkslategray" d="M1085.15,-257.096C1189.49,-240.658 1411,-244.293 1411,-268 1411,-290.966 1203.12,-295.095 1095.26,-280.387"/>
<polygon fill="darkslategray" stroke="darkslategray" points="1095.55,-276.891 1085.15,-278.904 1094.53,-283.817 1095.55,-276.891"/>
</a>
<a xlink:href="./#touches" xlink:title="touches">
<text text-anchor="middle" x="1437" y="-263.4" font-family="Helvetica,sans-Serif" font-size="14.00">touches</text>
</a>
</g>
<!-- Geometry&#45;&gt;Geometry -->
<g id="edge50" class="edge"><title>Geometry&#45;&gt;Geometry</title>
<a xlink:href="./#within" xlink:title="within">
<path fill="none" stroke="darkslategray" d="M1085.2,-257.124C1200.82,-238.593 1463,-242.219 1463,-268 1463,-293.051 1215.46,-297.184 1095.37,-280.398"/>
<polygon fill="darkslategray" stroke="darkslategray" points="1095.61,-276.895 1085.2,-278.876 1094.57,-283.818 1095.61,-276.895"/>
</a>
<a xlink:href="./#within" xlink:title="within">
<text text-anchor="middle" x="1481.5" y="-263.4" font-family="Helvetica,sans-Serif" font-size="14.00">within</text>
</a>
</g>
<!-- Geometry&#45;&gt;http://www.w3.org/2000/01/rdf&#45;schema#Literal -->
<g id="edge24" class="edge"><title>Geometry&#45;&gt;http://www.w3.org/2000/01/rdf&#45;schema#Literal</title>
<a xlink:href="./#asWKT" xlink:title="asWKT">
<path fill="none" stroke="darkslategray" d="M1002.61,-280.477C994.849,-282.589 986.716,-284.56 979,-286 787.742,-321.689 566.225,-339.404 410.023,-348.058"/>
<polygon fill="darkslategray" stroke="darkslategray" points="409.624,-344.575 399.83,-348.615 410.006,-351.564 409.624,-344.575"/>
</a>
<a xlink:href="./#asWKT" xlink:title="asWKT">
<text text-anchor="middle" x="878" y="-307.4" font-family="Helvetica,sans-Serif" font-size="14.00">asWKT</text>
</a>
</g>
<!-- Line -->
<g id="node13" class="node"><title>Line</title>
<a xlink:href="./#Line" xlink:title="Line">
<ellipse fill="none" stroke="black" cx="962" cy="-180" rx="28.8453" ry="18"/>
<text text-anchor="middle" x="962" y="-175.4" font-family="Helvetica,sans-Serif" font-size="14.00">Line</text>
</a>
</g>
<!-- Line&#45;&gt;Geometry -->
<g id="edge10" class="edge"><title>Line&#45;&gt;Geometry</title>
<path fill="none" stroke="red" stroke-dasharray="5,2" d="M976.302,-195.733C988.243,-208.868 1005.48,-227.831 1019.31,-243.036"/>
<polygon fill="red" stroke="red" points="1016.86,-245.549 1026.18,-250.594 1022.04,-240.841 1016.86,-245.549"/>
</g>
<!-- Point -->
<g id="node15" class="node"><title>Point</title>
<a xlink:href="./#Point" xlink:title="Point">
<ellipse fill="none" stroke="black" cx="1042" cy="-180" rx="33.0404" ry="18"/>
<text text-anchor="middle" x="1042" y="-175.4" font-family="Helvetica,sans-Serif" font-size="14.00">Point</text>
</a>
</g>
<!-- Point&#45;&gt;Geometry -->
<g id="edge12" class="edge"><title>Point&#45;&gt;Geometry</title>
<path fill="none" stroke="red" stroke-dasharray="5,2" d="M1042,-198.234C1042,-210.151 1042,-225.962 1042,-239.518"/>
<polygon fill="red" stroke="red" points="1038.5,-239.79 1042,-249.79 1045.5,-239.79 1038.5,-239.79"/>
</g>
<!-- PopulatedPlace -->
<g id="node18" class="node"><title>PopulatedPlace</title>
<a xlink:href="./#PopulatedPlace" xlink:title="PopulatedPlace">
<ellipse fill="none" stroke="black" cx="408" cy="-18" rx="79.8276" ry="18"/>
<text text-anchor="middle" x="408" y="-13.4" font-family="Helvetica,sans-Serif" font-size="14.00">PopulatedPlace</text>
</a>
</g>
<!-- PopulatedPlace&#45;&gt;AdminUnit -->
<g id="edge16" class="edge"><title>PopulatedPlace&#45;&gt;AdminUnit</title>
<path fill="none" stroke="red" stroke-dasharray="5,2" d="M408,-36.2921C408,-44.5365 408,-54.4624 408,-63.6378"/>
<polygon fill="red" stroke="red" points="404.5,-63.9182 408,-73.9183 411.5,-63.9183 404.5,-63.9182"/>
</g>
<!-- Situation -->
<g id="node26" class="node"><title>Situation</title>
<a xlink:href="./#Situation" xlink:title="Situation">
<ellipse fill="none" stroke="gray" cx="671" cy="-92" rx="49.1393" ry="18"/>
<text text-anchor="middle" x="671" y="-87.4" font-family="Helvetica,sans-Serif" font-size="14.00" fill="gray">Situation</text>
</a>
</g>
<!-- Situation&#45;&gt;Feature -->
<g id="edge28" class="edge"><title>Situation&#45;&gt;Feature</title>
<a xlink:href="./#atLocation" xlink:title="atLocation">
<path fill="none" stroke="darkslategray" d="M675.152,-109.985C677.953,-120.314 682.203,-133.314 688,-144 690.023,-147.73 692.448,-151.455 695.022,-155.018"/>
<polygon fill="darkslategray" stroke="darkslategray" points="692.288,-157.203 701.18,-162.963 697.821,-152.915 692.288,-157.203"/>
</a>
<a xlink:href="./#atLocation" xlink:title="atLocation">
<text text-anchor="middle" x="723" y="-131.4" font-family="Helvetica,sans-Serif" font-size="14.00">atLocation</text>
</a>
</g>
<!-- Activity -->
<g id="node28" class="node"><title>Activity</title>
<a xlink:href="./#Activity" xlink:title="Activity">
<ellipse fill="none" stroke="gray" cx="780" cy="-92" rx="41.7645" ry="18"/>
<text text-anchor="middle" x="780" y="-87.4" font-family="Helvetica,sans-Serif" font-size="14.00" fill="gray">Activity</text>
</a>
</g>
<!-- Activity&#45;&gt;Feature -->
<g id="edge30" class="edge"><title>Activity&#45;&gt;Feature</title>
<a xlink:href="./#atLocation" xlink:title="atLocation">
<path fill="none" stroke="darkslategray" d="M774.678,-109.882C771.015,-120.42 765.459,-133.667 758,-144 754.673,-148.608 750.654,-153.034 746.449,-157.11"/>
<polygon fill="darkslategray" stroke="darkslategray" points="743.863,-154.73 738.79,-164.031 748.556,-159.923 743.863,-154.73"/>
</a>
<a xlink:href="./#atLocation" xlink:title="atLocation">
<text text-anchor="middle" x="801" y="-131.4" font-family="Helvetica,sans-Serif" font-size="14.00">atLocation</text>
</a>
</g>
</g>
</svg>
