<?xml version="1.0" encoding="UTF-8" standalone="no"?>
<!DOCTYPE svg PUBLIC "-//W3C//DTD SVG 1.1//EN"
 "http://www.w3.org/Graphics/SVG/1.1/DTD/svg11.dtd">
<!-- Generated by graphviz version 2.26.3 (20100126.1600)
 -->
<!-- Title: _anonymous_0 Pages: 1 -->
<svg width="3242pt" height="116pt"
 viewBox="0.00 0.00 3242.00 116.00" xmlns="http://www.w3.org/2000/svg" xmlns:xlink="http://www.w3.org/1999/xlink">
<g id="graph1" class="graph" transform="scale(1 1) rotate(0) translate(4 112)">
<title>_anonymous_0</title>
<polygon fill="white" stroke="white" points="-4,5 -4,-112 3239,-112 3239,5 -4,5"/>
<!-- BoreholeDrilling -->
<g id="node1" class="node"><title>BoreholeDrilling</title>
<a xlink:href="./#BoreholeDrilling" xlink:title="BoreholeDrilling">
<ellipse fill="none" stroke="black" cx="78" cy="-18" rx="77.9861" ry="18"/>
<text text-anchor="middle" x="78" y="-13.4" font-family="Helvetica,sans-Serif" font-size="14.00">BoreholeDrilling</text>
</a>
</g>
<!-- Activity -->
<g id="node2" class="node"><title>Activity</title>
<a xlink:href="./#WaterTrucking" xlink:title="Activity">
<ellipse fill="none" stroke="gray" cx="1225" cy="-90" rx="41.7645" ry="18"/>
<text text-anchor="middle" x="1225" y="-85.4" font-family="Helvetica,sans-Serif" font-size="14.00" fill="gray">Activity</text>
</a>
</g>
<!-- BoreholeDrilling&#45;&gt;Activity -->
<g id="edge2" class="edge"><title>BoreholeDrilling&#45;&gt;Activity</title>
<path fill="none" stroke="red" stroke-dasharray="5,2" d="M133.481,-30.7986C143.906,-32.8274 154.75,-34.6864 165,-36 363.44,-61.4307 987.887,-82.5716 1172.87,-88.4032"/>
<polygon fill="red" stroke="red" points="1172.78,-91.902 1182.88,-88.7175 1173,-84.9054 1172.78,-91.902"/>
</g>
<!-- CommunalLatrineBuilding -->
<g id="node4" class="node"><title>CommunalLatrineBuilding</title>
<a xlink:href="./#CommunalLatrineBuilding" xlink:title="CommunalLatrineBuilding">
<ellipse fill="none" stroke="black" cx="294" cy="-18" rx="120.247" ry="18"/>
<text text-anchor="middle" x="294" y="-13.4" font-family="Helvetica,sans-Serif" font-size="14.00">CommunalLatrineBuilding</text>
</a>
</g>
<!-- CommunalLatrineBuilding&#45;&gt;Activity -->
<g id="edge4" class="edge"><title>CommunalLatrineBuilding&#45;&gt;Activity</title>
<path fill="none" stroke="red" stroke-dasharray="5,2" d="M378.898,-30.7241C393.583,-32.6736 408.717,-34.5246 423,-36 705.186,-65.1498 1044.93,-82.0555 1172.88,-87.7819"/>
<polygon fill="red" stroke="red" points="1173.02,-91.2914 1183.16,-88.2384 1173.33,-84.2982 1173.02,-91.2914"/>
</g>
<!-- CommunalLatrineRehabilitation -->
<g id="node6" class="node"><title>CommunalLatrineRehabilitation</title>
<a xlink:href="./#CommunalLatrineRehabilitation" xlink:title="CommunalLatrineRehabilitation">
<ellipse fill="none" stroke="black" cx="579" cy="-18" rx="146.91" ry="18"/>
<text text-anchor="middle" x="579" y="-13.4" font-family="Helvetica,sans-Serif" font-size="14.00">CommunalLatrineRehabilitation</text>
</a>
</g>
<!-- CommunalLatrineRehabilitation&#45;&gt;Activity -->
<g id="edge6" class="edge"><title>CommunalLatrineRehabilitation&#45;&gt;Activity</title>
<path fill="none" stroke="red" stroke-dasharray="5,2" d="M685.986,-30.4179C702.4,-32.3018 719.152,-34.2124 735,-36 895.136,-54.0623 1084.79,-74.7679 1173.91,-84.4567"/>
<polygon fill="red" stroke="red" points="1173.7,-87.9539 1184.02,-85.5549 1174.45,-80.9949 1173.7,-87.9539"/>
</g>
<!-- HygieneKit -->
<g id="node8" class="node"><title>HygieneKit</title>
<a xlink:href="./#HygieneKit" xlink:title="HygieneKit">
<ellipse fill="none" stroke="black" cx="2789" cy="-18" rx="57.1889" ry="18"/>
<text text-anchor="middle" x="2789" y="-13.4" font-family="Helvetica,sans-Serif" font-size="14.00">HygieneKit</text>
</a>
</g>
<!-- Kit -->
<g id="node9" class="node"><title>Kit</title>
<a xlink:href="./#HygieneKit" xlink:title="Kit">
<ellipse fill="none" stroke="gray" cx="2789" cy="-90" rx="27" ry="18"/>
<text text-anchor="middle" x="2789" y="-85.4" font-family="Helvetica,sans-Serif" font-size="14.00" fill="gray">Kit</text>
</a>
</g>
<!-- HygieneKit&#45;&gt;Kit -->
<g id="edge8" class="edge"><title>HygieneKit&#45;&gt;Kit</title>
<path fill="none" stroke="red" stroke-dasharray="5,2" d="M2789,-36.1686C2789,-43.869 2789,-53.0257 2789,-61.5834"/>
<polygon fill="red" stroke="red" points="2785.5,-61.5867 2789,-71.5867 2792.5,-61.5868 2785.5,-61.5867"/>
</g>
<!-- HygieneKitDistribution -->
<g id="node11" class="node"><title>HygieneKitDistribution</title>
<a xlink:href="./#HygieneKitDistribution" xlink:title="HygieneKitDistribution">
<ellipse fill="none" stroke="black" cx="2970" cy="-18" rx="105.99" ry="18"/>
<text text-anchor="middle" x="2970" y="-13.4" font-family="Helvetica,sans-Serif" font-size="14.00">HygieneKitDistribution</text>
</a>
</g>
<!-- Distribution -->
<g id="node12" class="node"><title>Distribution</title>
<a xlink:href="./#HygieneKitDistribution" xlink:title="Distribution">
<ellipse fill="none" stroke="gray" cx="2970" cy="-90" rx="59.2013" ry="18"/>
<text text-anchor="middle" x="2970" y="-85.4" font-family="Helvetica,sans-Serif" font-size="14.00" fill="gray">Distribution</text>
</a>
</g>
<!-- HygieneKitDistribution&#45;&gt;Distribution -->
<g id="edge10" class="edge"><title>HygieneKitDistribution&#45;&gt;Distribution</title>
<path fill="none" stroke="red" stroke-dasharray="5,2" d="M2970,-36.1686C2970,-43.869 2970,-53.0257 2970,-61.5834"/>
<polygon fill="red" stroke="red" points="2966.5,-61.5867 2970,-71.5867 2973.5,-61.5868 2966.5,-61.5867"/>
</g>
<!-- HygienePromotion -->
<g id="node14" class="node"><title>HygienePromotion</title>
<a xlink:href="./#HygienePromotion" xlink:title="HygienePromotion">
<ellipse fill="none" stroke="black" cx="835" cy="-18" rx="91.2316" ry="18"/>
<text text-anchor="middle" x="835" y="-13.4" font-family="Helvetica,sans-Serif" font-size="14.00">HygienePromotion</text>
</a>
</g>
<!-- HygienePromotion&#45;&gt;Activity -->
<g id="edge12" class="edge"><title>HygienePromotion&#45;&gt;Activity</title>
<path fill="none" stroke="red" stroke-dasharray="5,2" d="M901.6,-30.2954C979.511,-44.6789 1106.65,-68.1504 1176.03,-80.96"/>
<polygon fill="red" stroke="red" points="1175.78,-84.472 1186.25,-82.8458 1177.05,-77.5884 1175.78,-84.472"/>
</g>
<!-- PipeBuilding -->
<g id="node16" class="node"><title>PipeBuilding</title>
<a xlink:href="./#PipeBuilding" xlink:title="PipeBuilding">
<ellipse fill="none" stroke="black" cx="1007" cy="-18" rx="63.2261" ry="18"/>
<text text-anchor="middle" x="1007" y="-13.4" font-family="Helvetica,sans-Serif" font-size="14.00">PipeBuilding</text>
</a>
</g>
<!-- PipeBuilding&#45;&gt;Activity -->
<g id="edge14" class="edge"><title>PipeBuilding&#45;&gt;Activity</title>
<path fill="none" stroke="red" stroke-dasharray="5,2" d="M1048.26,-31.6273C1086.33,-44.2019 1142.67,-62.81 1181.46,-75.6188"/>
<polygon fill="red" stroke="red" points="1180.81,-79.0926 1191.41,-78.9053 1183.01,-72.4457 1180.81,-79.0926"/>
</g>
<!-- RainwaterCatchmentBuilding -->
<g id="node18" class="node"><title>RainwaterCatchmentBuilding</title>
<a xlink:href="./#RainwaterCatchmentBuilding" xlink:title="RainwaterCatchmentBuilding">
<ellipse fill="none" stroke="black" cx="1225" cy="-18" rx="136.847" ry="18"/>
<text text-anchor="middle" x="1225" y="-13.4" font-family="Helvetica,sans-Serif" font-size="14.00">RainwaterCatchmentBuilding</text>
</a>
</g>
<!-- RainwaterCatchmentBuilding&#45;&gt;Activity -->
<g id="edge16" class="edge"><title>RainwaterCatchmentBuilding&#45;&gt;Activity</title>
<path fill="none" stroke="red" stroke-dasharray="5,2" d="M1225,-36.1686C1225,-43.869 1225,-53.0257 1225,-61.5834"/>
<polygon fill="red" stroke="red" points="1221.5,-61.5867 1225,-71.5867 1228.5,-61.5868 1221.5,-61.5867"/>
</g>
<!-- RainwaterCatchmentRehabilitation -->
<g id="node20" class="node"><title>RainwaterCatchmentRehabilitation</title>
<a xlink:href="./#RainwaterCatchmentRehabilitation" xlink:title="RainwaterCatchmentRehabilitation">
<ellipse fill="none" stroke="black" cx="1543" cy="-18" rx="163.009" ry="18"/>
<text text-anchor="middle" x="1543" y="-13.4" font-family="Helvetica,sans-Serif" font-size="14.00">RainwaterCatchmentRehabilitation</text>
</a>
</g>
<!-- RainwaterCatchmentRehabilitation&#45;&gt;Activity -->
<g id="edge18" class="edge"><title>RainwaterCatchmentRehabilitation&#45;&gt;Activity</title>
<path fill="none" stroke="red" stroke-dasharray="5,2" d="M1471.24,-34.248C1410.44,-48.0128 1325,-67.3576 1272.41,-79.2651"/>
<polygon fill="red" stroke="red" points="1271.33,-75.9217 1262.35,-81.5436 1272.87,-82.7489 1271.33,-75.9217"/>
</g>
<!-- ShallowWellImprovement -->
<g id="node22" class="node"><title>ShallowWellImprovement</title>
<a xlink:href="./#ShallowWellImprovement" xlink:title="ShallowWellImprovement">
<ellipse fill="none" stroke="black" cx="1844" cy="-18" rx="120.077" ry="18"/>
<text text-anchor="middle" x="1844" y="-13.4" font-family="Helvetica,sans-Serif" font-size="14.00">ShallowWellImprovement</text>
</a>
</g>
<!-- ShallowWellImprovement&#45;&gt;Activity -->
<g id="edge20" class="edge"><title>ShallowWellImprovement&#45;&gt;Activity</title>
<path fill="none" stroke="red" stroke-dasharray="5,2" d="M1757.31,-30.4466C1743.18,-32.3748 1728.69,-34.2912 1715,-36 1555.09,-55.9636 1365.33,-75.7736 1276.14,-84.8557"/>
<polygon fill="red" stroke="red" points="1275.62,-81.3903 1266.02,-85.8834 1276.33,-88.3544 1275.62,-81.3903"/>
</g>
<!-- SolidWasteContainerInstallment -->
<g id="node24" class="node"><title>SolidWasteContainerInstallment</title>
<a xlink:href="./#SolidWasteContainerInstallment" xlink:title="SolidWasteContainerInstallment">
<ellipse fill="none" stroke="black" cx="2133" cy="-18" rx="150.935" ry="18"/>
<text text-anchor="middle" x="2133" y="-13.4" font-family="Helvetica,sans-Serif" font-size="14.00">SolidWasteContainerInstallment</text>
</a>
</g>
<!-- SolidWasteContainerInstallment&#45;&gt;Activity -->
<g id="edge22" class="edge"><title>SolidWasteContainerInstallment&#45;&gt;Activity</title>
<path fill="none" stroke="red" stroke-dasharray="5,2" d="M2025.48,-30.6929C2007.95,-32.5903 1989.98,-34.4327 1973,-36 1711.91,-60.1006 1398.72,-79.6996 1276.97,-86.9658"/>
<polygon fill="red" stroke="red" points="1276.59,-83.4819 1266.81,-87.5695 1277,-90.4696 1276.59,-83.4819"/>
</g>
<!-- WASHCluster -->
<g id="node26" class="node"><title>WASHCluster</title>
<a xlink:href="./#WASHCluster" xlink:title="WASHCluster">
<ellipse fill="none" stroke="black" cx="3164" cy="-18" rx="69.9366" ry="18"/>
<text text-anchor="middle" x="3164" y="-13.4" font-family="Helvetica,sans-Serif" font-size="14.00">WASHCluster</text>
</a>
</g>
<!-- Cluster -->
<g id="node27" class="node"><title>Cluster</title>
<a xlink:href="./#WASHCluster" xlink:title="Cluster">
<ellipse fill="none" stroke="gray" cx="3164" cy="-90" rx="41.7645" ry="18"/>
<text text-anchor="middle" x="3164" y="-85.4" font-family="Helvetica,sans-Serif" font-size="14.00" fill="gray">Cluster</text>
</a>
</g>
<!-- WASHCluster&#45;&gt;Cluster -->
<g id="edge24" class="edge"><title>WASHCluster&#45;&gt;Cluster</title>
<path fill="none" stroke="red" stroke-dasharray="5,2" d="M3164,-36.1686C3164,-43.869 3164,-53.0257 3164,-61.5834"/>
<polygon fill="red" stroke="red" points="3160.5,-61.5867 3164,-71.5867 3167.5,-61.5868 3160.5,-61.5867"/>
</g>
<!-- WaterSourceChlorination -->
<g id="node29" class="node"><title>WaterSourceChlorination</title>
<a xlink:href="./#WaterSourceChlorination" xlink:title="WaterSourceChlorination">
<ellipse fill="none" stroke="black" cx="2423" cy="-18" rx="120.919" ry="18"/>
<text text-anchor="middle" x="2423" y="-13.4" font-family="Helvetica,sans-Serif" font-size="14.00">WaterSourceChlorination</text>
</a>
</g>
<!-- WaterSourceChlorination&#45;&gt;Activity -->
<g id="edge26" class="edge"><title>WaterSourceChlorination&#45;&gt;Activity</title>
<path fill="none" stroke="red" stroke-dasharray="5,2" d="M2337.81,-30.8765C2322.9,-32.8208 2307.52,-34.6305 2293,-36 1903.86,-72.7082 1432.43,-85.5614 1277.27,-88.9689"/>
<polygon fill="red" stroke="red" points="1277,-85.4737 1267.08,-89.189 1277.15,-92.4721 1277,-85.4737"/>
</g>
<!-- WaterTrucking -->
<g id="node31" class="node"><title>WaterTrucking</title>
<a xlink:href="./#WaterTrucking" xlink:title="WaterTrucking">
<ellipse fill="none" stroke="black" cx="2638" cy="-18" rx="75.8027" ry="18"/>
<text text-anchor="middle" x="2638" y="-13.4" font-family="Helvetica,sans-Serif" font-size="14.00">WaterTrucking</text>
</a>
</g>
<!-- WaterTrucking&#45;&gt;Activity -->
<g id="edge28" class="edge"><title>WaterTrucking&#45;&gt;Activity</title>
<path fill="none" stroke="red" stroke-dasharray="5,2" d="M2584.27,-30.8012C2573.95,-32.8568 2563.18,-34.7246 2553,-36 2299.43,-67.7745 1490.49,-84.99 1277.05,-89.0533"/>
<polygon fill="red" stroke="red" points="1276.98,-85.5539 1267.04,-89.2423 1277.11,-92.5526 1276.98,-85.5539"/>
</g>
</g>
</svg>
