<?xml version="1.0" encoding="UTF-8" standalone="no"?>
<!DOCTYPE svg PUBLIC "-//W3C//DTD SVG 1.1//EN"
 "http://www.w3.org/Graphics/SVG/1.1/DTD/svg11.dtd">
<!-- Generated by graphviz version 2.26.3 (20100126.1600)
 -->
<!-- Title: _anonymous_0 Pages: 1 -->
<svg width="1206pt" height="382pt"
 viewBox="0.00 0.00 1206.00 382.00" xmlns="http://www.w3.org/2000/svg" xmlns:xlink="http://www.w3.org/1999/xlink">
<g id="graph1" class="graph" transform="scale(1 1) rotate(0) translate(4 378)">
<title>_anonymous_0</title>
<polygon fill="white" stroke="white" points="-4,5 -4,-378 1203,-378 1203,5 -4,5"/>
<!-- AdminUnit -->
<g id="node1" class="node"><title>AdminUnit</title>
<a xlink:href="./#AdminUnit" xlink:title="AdminUnit">
<ellipse fill="none" stroke="black" cx="223" cy="-92" rx="55.1765" ry="18"/>
<text text-anchor="middle" x="223" y="-87.4" font-family="Helvetica,sans-Serif" font-size="14.00">AdminUnit</text>
</a>
</g>
<!-- AdminUnit&#45;&gt;AdminUnit -->
<g id="edge38" class="edge"><title>AdminUnit&#45;&gt;AdminUnit</title>
<a xlink:href="./#inAdminUnit" xlink:title="inAdminUnit">
<path fill="none" stroke="darkslategray" d="M274.168,-85.3555C286.685,-85.8477 296,-88.0625 296,-92 296,-94.7686 291.395,-96.6855 284.309,-97.7507"/>
<polygon fill="darkslategray" stroke="darkslategray" points="283.822,-94.28 274.168,-98.6445 284.436,-101.253 283.822,-94.28"/>
</a>
<a xlink:href="./#inAdminUnit" xlink:title="inAdminUnit">
<text text-anchor="middle" x="334.5" y="-87.4" font-family="Helvetica,sans-Serif" font-size="14.00">inAdminUnit</text>
</a>
</g>
<!-- Feature -->
<g id="node3" class="node"><title>Feature</title>
<a xlink:href="./#Feature" xlink:title="Feature">
<ellipse fill="none" stroke="black" cx="440" cy="-180" rx="45.1145" ry="18"/>
<text text-anchor="middle" x="440" y="-175.4" font-family="Helvetica,sans-Serif" font-size="14.00">Feature</text>
</a>
</g>
<!-- AdminUnit&#45;&gt;Feature -->
<g id="edge2" class="edge"><title>AdminUnit&#45;&gt;Feature</title>
<path fill="none" stroke="red" stroke-dasharray="5,2" d="M257.865,-106.139C296.352,-121.746 358.245,-146.846 399.021,-163.382"/>
<polygon fill="red" stroke="red" points="397.815,-166.67 408.397,-167.184 400.446,-160.183 397.815,-166.67"/>
</g>
<!-- AdminUnitLevel -->
<g id="node4" class="node"><title>AdminUnitLevel</title>
<a xlink:href="./#AdminUnitLevel" xlink:title="AdminUnitLevel">
<ellipse fill="none" stroke="black" cx="226" cy="-180" rx="77.8152" ry="18"/>
<text text-anchor="middle" x="226" y="-175.4" font-family="Helvetica,sans-Serif" font-size="14.00">AdminUnitLevel</text>
</a>
</g>
<!-- AdminUnit&#45;&gt;AdminUnitLevel -->
<g id="edge24" class="edge"><title>AdminUnit&#45;&gt;AdminUnitLevel</title>
<a xlink:href="./#atLevel" xlink:title="atLevel">
<path fill="none" stroke="darkslategray" d="M223.622,-110.234C224.028,-122.151 224.567,-137.962 225.029,-151.518"/>
<polygon fill="darkslategray" stroke="darkslategray" points="221.54,-151.915 225.379,-161.79 228.536,-151.676 221.54,-151.915"/>
</a>
<a xlink:href="./#atLevel" xlink:title="atLevel">
<text text-anchor="middle" x="249" y="-131.4" font-family="Helvetica,sans-Serif" font-size="14.00">atLevel</text>
</a>
</g>
<!-- Geometry -->
<g id="node10" class="node"><title>Geometry</title>
<a xlink:href="./#Geometry" xlink:title="Geometry">
<ellipse fill="none" stroke="black" cx="614" cy="-268" rx="53.838" ry="18"/>
<text text-anchor="middle" x="614" y="-263.4" font-family="Helvetica,sans-Serif" font-size="14.00">Geometry</text>
</a>
</g>
<!-- Feature&#45;&gt;Geometry -->
<g id="edge36" class="edge"><title>Feature&#45;&gt;Geometry</title>
<a xlink:href="./#hasGeometry" xlink:title="hasGeometry">
<path fill="none" stroke="darkslategray" d="M448.238,-197.939C454.353,-209.322 463.747,-223.464 476,-232 502.358,-250.362 514.917,-241.89 546,-250 551.04,-251.315 556.289,-252.692 561.537,-254.073"/>
<polygon fill="darkslategray" stroke="darkslategray" points="561.01,-257.554 571.572,-256.719 562.795,-250.785 561.01,-257.554"/>
</a>
<a xlink:href="./#hasGeometry" xlink:title="hasGeometry">
<text text-anchor="middle" x="520" y="-219.4" font-family="Helvetica,sans-Serif" font-size="14.00">hasGeometry</text>
</a>
</g>
<!-- Country -->
<g id="node8" class="node"><title>Country</title>
<a xlink:href="./#Country" xlink:title="Country">
<ellipse fill="none" stroke="black" cx="45" cy="-268" rx="45.1145" ry="18"/>
<text text-anchor="middle" x="45" y="-263.4" font-family="Helvetica,sans-Serif" font-size="14.00">Country</text>
</a>
</g>
<!-- AdminUnitLevel&#45;&gt;Country -->
<g id="edge16" class="edge"><title>AdminUnitLevel&#45;&gt;Country</title>
<a xlink:href="./#adminUnitLevelCountry" xlink:title="adminUnitLevelCountry">
<path fill="none" stroke="darkslategray" d="M156.571,-188.272C118.446,-194.133 76.1041,-203.239 62,-216 55.1661,-222.183 51.0704,-231.15 48.619,-239.901"/>
<polygon fill="darkslategray" stroke="darkslategray" points="45.1505,-239.379 46.431,-249.896 51.9886,-240.876 45.1505,-239.379"/>
</a>
<a xlink:href="./#adminUnitLevelCountry" xlink:title="adminUnitLevelCountry">
<text text-anchor="middle" x="137.5" y="-219.4" font-family="Helvetica,sans-Serif" font-size="14.00">adminUnitLevelCountry</text>
</a>
</g>
<!-- http://www.w3.org/2000/01/rdf&#45;schema#Literal -->
<g id="node19" class="node"><title>http://www.w3.org/2000/01/rdf&#45;schema#Literal</title>
<a xlink:href="./#http://www.w3.org/2000/01/rdf-schema#Literal" xlink:title="http://www.w3.org/2000/01/rdf&#45;schema#Literal">
<ellipse fill="none" stroke="gray" cx="392" cy="-356" rx="208.796" ry="18"/>
<text text-anchor="middle" x="392" y="-351.4" font-family="Helvetica,sans-Serif" font-size="14.00" fill="gray">http://www.w3.org/2000/01/rdf&#45;schema#Literal</text>
</a>
</g>
<!-- AdminUnitLevel&#45;&gt;http://www.w3.org/2000/01/rdf&#45;schema#Literal -->
<g id="edge18" class="edge"><title>AdminUnitLevel&#45;&gt;http://www.w3.org/2000/01/rdf&#45;schema#Literal</title>
<a xlink:href="./#adminUnitLevelNumber" xlink:title="adminUnitLevelNumber">
<path fill="none" stroke="darkslategray" d="M273.663,-194.325C302.446,-205.262 337.745,-223.106 360,-250 378.303,-272.118 386.142,-304.506 389.496,-327.653"/>
<polygon fill="darkslategray" stroke="darkslategray" points="386.061,-328.39 390.776,-337.877 393.007,-327.52 386.061,-328.39"/>
</a>
<a xlink:href="./#adminUnitLevelNumber" xlink:title="adminUnitLevelNumber">
<text text-anchor="middle" x="454" y="-263.4" font-family="Helvetica,sans-Serif" font-size="14.00">adminUnitLevelNumber</text>
</a>
</g>
<!-- AdminUnitLevel&#45;&gt;http://www.w3.org/2000/01/rdf&#45;schema#Literal -->
<g id="edge20" class="edge"><title>AdminUnitLevel&#45;&gt;http://www.w3.org/2000/01/rdf&#45;schema#Literal</title>
<a xlink:href="./#adminUnitLevelTitle" xlink:title="adminUnitLevelTitle">
<path fill="none" stroke="darkslategray" d="M220.568,-198.25C215,-220.883 209.402,-259.688 227,-286 243.016,-309.947 269.029,-325.728 295.713,-336.118"/>
<polygon fill="darkslategray" stroke="darkslategray" points="294.57,-339.427 305.164,-339.573 296.974,-332.853 294.57,-339.427"/>
</a>
<a xlink:href="./#adminUnitLevelTitle" xlink:title="adminUnitLevelTitle">
<text text-anchor="middle" x="291.5" y="-263.4" font-family="Helvetica,sans-Serif" font-size="14.00">adminUnitLevelTitle</text>
</a>
</g>
<!-- BoundingBox -->
<g id="node5" class="node"><title>BoundingBox</title>
<a xlink:href="./#BoundingBox" xlink:title="BoundingBox">
<ellipse fill="none" stroke="black" cx="713" cy="-92" rx="67.082" ry="18"/>
<text text-anchor="middle" x="713" y="-87.4" font-family="Helvetica,sans-Serif" font-size="14.00">BoundingBox</text>
</a>
</g>
<!-- Polygon -->
<g id="node7" class="node"><title>Polygon</title>
<a xlink:href="./#Polygon" xlink:title="Polygon">
<ellipse fill="none" stroke="black" cx="713" cy="-180" rx="45.1145" ry="18"/>
<text text-anchor="middle" x="713" y="-175.4" font-family="Helvetica,sans-Serif" font-size="14.00">Polygon</text>
</a>
</g>
<!-- BoundingBox&#45;&gt;Polygon -->
<g id="edge4" class="edge"><title>BoundingBox&#45;&gt;Polygon</title>
<path fill="none" stroke="red" stroke-dasharray="5,2" d="M713,-110.234C713,-122.151 713,-137.962 713,-151.518"/>
<polygon fill="red" stroke="red" points="709.5,-151.79 713,-161.79 716.5,-151.79 709.5,-151.79"/>
</g>
<!-- Polygon&#45;&gt;Geometry -->
<g id="edge12" class="edge"><title>Polygon&#45;&gt;Geometry</title>
<path fill="none" stroke="red" stroke-dasharray="5,2" d="M694.379,-196.552C679.361,-209.902 658.029,-228.863 641.114,-243.898"/>
<polygon fill="red" stroke="red" points="638.362,-241.662 633.213,-250.922 643.012,-246.894 638.362,-241.662"/>
</g>
<!-- Country&#45;&gt;AdminUnit -->
<g id="edge6" class="edge"><title>Country&#45;&gt;AdminUnit</title>
<path fill="none" stroke="red" stroke-dasharray="5,2" d="M42.2926,-249.593C41.6401,-239.124 42.3901,-226.124 48,-216 76.5228,-164.524 136.528,-129.345 178.272,-109.961"/>
<polygon fill="red" stroke="red" points="179.736,-113.14 187.408,-105.834 176.854,-106.761 179.736,-113.14"/>
</g>
<!-- Geometry&#45;&gt;Geometry -->
<g id="edge30" class="edge"><title>Geometry&#45;&gt;Geometry</title>
<a xlink:href="./#contains" xlink:title="contains">
<path fill="none" stroke="darkslategray" d="M668.007,-266.567C678.529,-266.733 686,-267.211 686,-268 686,-268.493 683.081,-268.865 678.324,-269.115"/>
<polygon fill="darkslategray" stroke="darkslategray" points="677.894,-265.626 668.007,-269.433 678.111,-272.623 677.894,-265.626"/>
</a>
<a xlink:href="./#contains" xlink:title="contains">
<text text-anchor="middle" x="713.5" y="-263.4" font-family="Helvetica,sans-Serif" font-size="14.00">contains</text>
</a>
</g>
<!-- Geometry&#45;&gt;Geometry -->
<g id="edge32" class="edge"><title>Geometry&#45;&gt;Geometry</title>
<a xlink:href="./#crosses" xlink:title="crosses">
<path fill="none" stroke="darkslategray" d="M655.769,-256.519C694.368,-251.693 741,-255.52 741,-268 741,-279.408 702.038,-283.586 665.863,-280.534"/>
<polygon fill="darkslategray" stroke="darkslategray" points="666.078,-277.037 655.769,-279.481 665.352,-283.999 666.078,-277.037"/>
</a>
<a xlink:href="./#crosses" xlink:title="crosses">
<text text-anchor="middle" x="766" y="-263.4" font-family="Helvetica,sans-Serif" font-size="14.00">crosses</text>
</a>
</g>
<!-- Geometry&#45;&gt;Geometry -->
<g id="edge34" class="edge"><title>Geometry&#45;&gt;Geometry</title>
<a xlink:href="./#equals" xlink:title="equals">
<path fill="none" stroke="darkslategray" d="M656.416,-256.809C711.274,-249.231 791,-252.961 791,-268 791,-282.128 720.636,-286.276 666.631,-280.443"/>
<polygon fill="darkslategray" stroke="darkslategray" points="666.767,-276.934 656.416,-279.191 665.916,-283.882 666.767,-276.934"/>
</a>
<a xlink:href="./#equals" xlink:title="equals">
<text text-anchor="middle" x="812.5" y="-263.4" font-family="Helvetica,sans-Serif" font-size="14.00">equals</text>
</a>
</g>
<!-- Geometry&#45;&gt;Geometry -->
<g id="edge40" class="edge"><title>Geometry&#45;&gt;Geometry</title>
<a xlink:href="./#intersects" xlink:title="intersects">
<path fill="none" stroke="darkslategray" d="M656.537,-256.904C723.995,-247.006 834,-250.705 834,-268 834,-284.45 734.476,-288.6 666.705,-280.449"/>
<polygon fill="darkslategray" stroke="darkslategray" points="666.911,-276.946 656.537,-279.096 665.988,-283.885 666.911,-276.946"/>
</a>
<a xlink:href="./#intersects" xlink:title="intersects">
<text text-anchor="middle" x="866" y="-263.4" font-family="Helvetica,sans-Serif" font-size="14.00">intersects</text>
</a>
</g>
<!-- Geometry&#45;&gt;Geometry -->
<g id="edge42" class="edge"><title>Geometry&#45;&gt;Geometry</title>
<a xlink:href="./#near" xlink:title="near">
<path fill="none" stroke="darkslategray" d="M657.126,-257.164C741.078,-244.818 898,-248.43 898,-268 898,-286.806 753.098,-290.876 667.284,-280.21"/>
<polygon fill="darkslategray" stroke="darkslategray" points="667.504,-276.708 657.126,-278.836 666.566,-283.645 667.504,-276.708"/>
</a>
<a xlink:href="./#near" xlink:title="near">
<text text-anchor="middle" x="913" y="-263.4" font-family="Helvetica,sans-Serif" font-size="14.00">near</text>
</a>
</g>
<!-- Geometry&#45;&gt;Geometry -->
<g id="edge44" class="edge"><title>Geometry&#45;&gt;Geometry</title>
<a xlink:href="./#overlaps" xlink:title="overlaps">
<path fill="none" stroke="darkslategray" d="M657.085,-256.998C748.852,-242.751 928,-246.418 928,-268 928,-288.823 761.227,-292.969 667.076,-280.438"/>
<polygon fill="darkslategray" stroke="darkslategray" points="667.481,-276.96 657.085,-279.002 666.485,-283.889 667.481,-276.96"/>
</a>
<a xlink:href="./#overlaps" xlink:title="overlaps">
<text text-anchor="middle" x="955.5" y="-263.4" font-family="Helvetica,sans-Serif" font-size="14.00">overlaps</text>
</a>
</g>
<!-- Geometry&#45;&gt;Geometry -->
<g id="edge46" class="edge"><title>Geometry&#45;&gt;Geometry</title>
<a xlink:href="./#touches" xlink:title="touches">
<path fill="none" stroke="darkslategray" d="M657.146,-257.096C761.488,-240.658 983,-244.293 983,-268 983,-290.966 775.116,-295.095 667.261,-280.387"/>
<polygon fill="darkslategray" stroke="darkslategray" points="667.548,-276.891 657.146,-278.904 666.533,-283.817 667.548,-276.891"/>
</a>
<a xlink:href="./#touches" xlink:title="touches">
<text text-anchor="middle" x="1009" y="-263.4" font-family="Helvetica,sans-Serif" font-size="14.00">touches</text>
</a>
</g>
<!-- Geometry&#45;&gt;Geometry -->
<g id="edge48" class="edge"><title>Geometry&#45;&gt;Geometry</title>
<a xlink:href="./#within" xlink:title="within">
<path fill="none" stroke="darkslategray" d="M657.198,-257.124C772.823,-238.593 1035,-242.219 1035,-268 1035,-293.051 787.463,-297.184 667.365,-280.398"/>
<polygon fill="darkslategray" stroke="darkslategray" points="667.606,-276.895 657.198,-278.876 666.57,-283.818 667.606,-276.895"/>
</a>
<a xlink:href="./#within" xlink:title="within">
<text text-anchor="middle" x="1053.5" y="-263.4" font-family="Helvetica,sans-Serif" font-size="14.00">within</text>
</a>
</g>
<!-- Geometry&#45;&gt;http://www.w3.org/2000/01/rdf&#45;schema#Literal -->
<g id="edge22" class="edge"><title>Geometry&#45;&gt;http://www.w3.org/2000/01/rdf&#45;schema#Literal</title>
<a xlink:href="./#asWKT" xlink:title="asWKT">
<path fill="none" stroke="darkslategray" d="M578.823,-281.944C543.094,-296.107 487.288,-318.228 445.963,-334.609"/>
<polygon fill="darkslategray" stroke="darkslategray" points="444.593,-331.387 436.586,-338.326 447.172,-337.895 444.593,-331.387"/>
</a>
<a xlink:href="./#asWKT" xlink:title="asWKT">
<text text-anchor="middle" x="546" y="-307.4" font-family="Helvetica,sans-Serif" font-size="14.00">asWKT</text>
</a>
</g>
<!-- Line -->
<g id="node11" class="node"><title>Line</title>
<a xlink:href="./#Line" xlink:title="Line">
<ellipse fill="none" stroke="black" cx="537" cy="-180" rx="28.8453" ry="18"/>
<text text-anchor="middle" x="537" y="-175.4" font-family="Helvetica,sans-Serif" font-size="14.00">Line</text>
</a>
</g>
<!-- Line&#45;&gt;Geometry -->
<g id="edge8" class="edge"><title>Line&#45;&gt;Geometry</title>
<path fill="none" stroke="red" stroke-dasharray="5,2" d="M551.123,-196.141C562.479,-209.119 578.642,-227.591 591.737,-242.557"/>
<polygon fill="red" stroke="red" points="589.427,-245.232 598.646,-250.453 594.695,-240.622 589.427,-245.232"/>
</g>
<!-- Point -->
<g id="node13" class="node"><title>Point</title>
<a xlink:href="./#Point" xlink:title="Point">
<ellipse fill="none" stroke="black" cx="617" cy="-180" rx="33.0404" ry="18"/>
<text text-anchor="middle" x="617" y="-175.4" font-family="Helvetica,sans-Serif" font-size="14.00">Point</text>
</a>
</g>
<!-- Point&#45;&gt;Geometry -->
<g id="edge10" class="edge"><title>Point&#45;&gt;Geometry</title>
<path fill="none" stroke="red" stroke-dasharray="5,2" d="M616.378,-198.234C615.972,-210.151 615.433,-225.962 614.971,-239.518"/>
<polygon fill="red" stroke="red" points="611.464,-239.676 614.621,-249.79 618.46,-239.915 611.464,-239.676"/>
</g>
<!-- PopulatedPlace -->
<g id="node16" class="node"><title>PopulatedPlace</title>
<a xlink:href="./#PopulatedPlace" xlink:title="PopulatedPlace">
<ellipse fill="none" stroke="black" cx="223" cy="-18" rx="79.8276" ry="18"/>
<text text-anchor="middle" x="223" y="-13.4" font-family="Helvetica,sans-Serif" font-size="14.00">PopulatedPlace</text>
</a>
</g>
<!-- PopulatedPlace&#45;&gt;AdminUnit -->
<g id="edge14" class="edge"><title>PopulatedPlace&#45;&gt;AdminUnit</title>
<path fill="none" stroke="red" stroke-dasharray="5,2" d="M223,-36.2921C223,-44.5365 223,-54.4624 223,-63.6378"/>
<polygon fill="red" stroke="red" points="219.5,-63.9182 223,-73.9183 226.5,-63.9183 219.5,-63.9182"/>
</g>
<!-- Situation -->
<g id="node24" class="node"><title>Situation</title>
<a xlink:href="./#Situation" xlink:title="Situation">
<ellipse fill="none" stroke="gray" cx="440" cy="-92" rx="49.1393" ry="18"/>
<text text-anchor="middle" x="440" y="-87.4" font-family="Helvetica,sans-Serif" font-size="14.00" fill="gray">Situation</text>
</a>
</g>
<!-- Situation&#45;&gt;Feature -->
<g id="edge26" class="edge"><title>Situation&#45;&gt;Feature</title>
<a xlink:href="./#atLocation" xlink:title="atLocation">
<path fill="none" stroke="darkslategray" d="M440,-110.234C440,-122.151 440,-137.962 440,-151.518"/>
<polygon fill="darkslategray" stroke="darkslategray" points="436.5,-151.79 440,-161.79 443.5,-151.79 436.5,-151.79"/>
</a>
<a xlink:href="./#atLocation" xlink:title="atLocation">
<text text-anchor="middle" x="475" y="-131.4" font-family="Helvetica,sans-Serif" font-size="14.00">atLocation</text>
</a>
</g>
<!-- Activity -->
<g id="node26" class="node"><title>Activity</title>
<a xlink:href="./#Activity" xlink:title="Activity">
<ellipse fill="none" stroke="gray" cx="549" cy="-92" rx="41.7645" ry="18"/>
<text text-anchor="middle" x="549" y="-87.4" font-family="Helvetica,sans-Serif" font-size="14.00" fill="gray">Activity</text>
</a>
</g>
<!-- Activity&#45;&gt;Feature -->
<g id="edge28" class="edge"><title>Activity&#45;&gt;Feature</title>
<a xlink:href="./#atLocation" xlink:title="atLocation">
<path fill="none" stroke="darkslategray" d="M540.228,-109.655C534.079,-120.634 525.005,-134.433 514,-144 504.993,-151.829 493.986,-158.382 483.242,-163.658"/>
<polygon fill="darkslategray" stroke="darkslategray" points="481.533,-160.592 473.925,-167.965 484.471,-166.946 481.533,-160.592"/>
</a>
<a xlink:href="./#atLocation" xlink:title="atLocation">
<text text-anchor="middle" x="562" y="-131.4" font-family="Helvetica,sans-Serif" font-size="14.00">atLocation</text>
</a>
</g>
</g>
</svg>
