<?xml version="1.0" encoding="UTF-8" standalone="no"?>
<!DOCTYPE svg PUBLIC "-//W3C//DTD SVG 1.1//EN"
 "http://www.w3.org/Graphics/SVG/1.1/DTD/svg11.dtd">
<!-- Generated by graphviz version 2.26.3 (20100126.1600)
 -->
<!-- Title: _anonymous_0 Pages: 1 -->
<svg width="927pt" height="132pt"
 viewBox="0.00 0.00 927.00 132.00" xmlns="http://www.w3.org/2000/svg" xmlns:xlink="http://www.w3.org/1999/xlink">
<g id="graph1" class="graph" transform="scale(1 1) rotate(0) translate(4 128)">
<title>_anonymous_0</title>
<polygon fill="white" stroke="white" points="-4,5 -4,-128 924,-128 924,5 -4,5"/>
<!-- ApprovalLevel -->
<g id="node1" class="node"><title>ApprovalLevel</title>
<a xlink:href="./#ApprovalLevel" xlink:title="ApprovalLevel">
<ellipse fill="none" stroke="black" cx="71" cy="-106" rx="71.107" ry="18"/>
<text text-anchor="middle" x="71" y="-101.4" font-family="Helvetica,sans-Serif" font-size="14.00">ApprovalLevel</text>
</a>
</g>
<!-- DataContainer -->
<g id="node2" class="node"><title>DataContainer</title>
<a xlink:href="./#DataContainer" xlink:title="DataContainer">
<ellipse fill="none" stroke="black" cx="402" cy="-18" rx="75.1319" ry="18"/>
<text text-anchor="middle" x="402" y="-13.4" font-family="Helvetica,sans-Serif" font-size="14.00">DataContainer</text>
</a>
</g>
<!-- DataContainer&#45;&gt;ApprovalLevel -->
<g id="edge2" class="edge"><title>DataContainer&#45;&gt;ApprovalLevel</title>
<a xlink:href="./#approvedAtLevel" xlink:title="approvedAtLevel">
<path fill="none" stroke="darkslategray" d="M330.661,-23.6367C264.916,-29.5749 172.612,-40.0088 139,-54 123.504,-60.4502 108.446,-71.3296 96.4559,-81.475"/>
<polygon fill="darkslategray" stroke="darkslategray" points="93.8737,-79.085 88.6771,-88.3179 98.4972,-84.3408 93.8737,-79.085"/>
</a>
<a xlink:href="./#approvedAtLevel" xlink:title="approvedAtLevel">
<text text-anchor="middle" x="193.5" y="-57.4" font-family="Helvetica,sans-Serif" font-size="14.00">approvedAtLevel</text>
</a>
</g>
<!-- http://xmlns.com/foaf/0.1/Agent -->
<g id="node4" class="node"><title>http://xmlns.com/foaf/0.1/Agent</title>
<a xlink:href="./#http://xmlns.com/foaf/0.1/Agent" xlink:title="http://xmlns.com/foaf/0.1/Agent">
<ellipse fill="none" stroke="gray" cx="305" cy="-106" rx="145.068" ry="18"/>
<text text-anchor="middle" x="305" y="-101.4" font-family="Helvetica,sans-Serif" font-size="14.00" fill="gray">http://xmlns.com/foaf/0.1/Agent</text>
</a>
</g>
<!-- DataContainer&#45;&gt;http://xmlns.com/foaf/0.1/Agent -->
<g id="edge4" class="edge"><title>DataContainer&#45;&gt;http://xmlns.com/foaf/0.1/Agent</title>
<a xlink:href="./#approvedBy" xlink:title="approvedBy">
<path fill="none" stroke="darkslategray" d="M335.136,-26.4055C301.669,-32.1295 266.143,-41.0527 256,-54 248.441,-63.6489 254.018,-73.5964 263.716,-82.1744"/>
<polygon fill="darkslategray" stroke="darkslategray" points="261.741,-85.0719 271.786,-88.4394 266.033,-79.5425 261.741,-85.0719"/>
</a>
<a xlink:href="./#approvedBy" xlink:title="approvedBy">
<text text-anchor="middle" x="294" y="-57.4" font-family="Helvetica,sans-Serif" font-size="14.00">approvedBy</text>
</a>
</g>
<!-- DataContainer&#45;&gt;http://xmlns.com/foaf/0.1/Agent -->
<g id="edge12" class="edge"><title>DataContainer&#45;&gt;http://xmlns.com/foaf/0.1/Agent</title>
<a xlink:href="./#reportedBy" xlink:title="reportedBy">
<path fill="none" stroke="darkslategray" d="M378.011,-35.2687C370.454,-40.998 362.204,-47.5619 355,-54 345.755,-62.2621 336.183,-71.9107 327.919,-80.6378"/>
<polygon fill="darkslategray" stroke="darkslategray" points="325.301,-78.3136 321.035,-88.0118 330.418,-83.0904 325.301,-78.3136"/>
</a>
<a xlink:href="./#reportedBy" xlink:title="reportedBy">
<text text-anchor="middle" x="391.5" y="-57.4" font-family="Helvetica,sans-Serif" font-size="14.00">reportedBy</text>
</a>
</g>
<!-- http://www.w3.org/2000/01/rdf&#45;schema#Literal -->
<g id="node6" class="node"><title>http://www.w3.org/2000/01/rdf&#45;schema#Literal</title>
<a xlink:href="./#http://www.w3.org/2000/01/rdf-schema#Literal" xlink:title="http://www.w3.org/2000/01/rdf&#45;schema#Literal">
<ellipse fill="none" stroke="gray" cx="677" cy="-106" rx="208.796" ry="18"/>
<text text-anchor="middle" x="677" y="-101.4" font-family="Helvetica,sans-Serif" font-size="14.00" fill="gray">http://www.w3.org/2000/01/rdf&#45;schema#Literal</text>
</a>
</g>
<!-- DataContainer&#45;&gt;http://www.w3.org/2000/01/rdf&#45;schema#Literal -->
<g id="edge6" class="edge"><title>DataContainer&#45;&gt;http://www.w3.org/2000/01/rdf&#45;schema#Literal</title>
<a xlink:href="./#containsPrimaryData" xlink:title="containsPrimaryData">
<path fill="none" stroke="darkslategray" d="M413.99,-35.8578C422.812,-47.511 435.868,-61.9963 451,-70 466.65,-78.2778 498.793,-85.1551 534.05,-90.6038"/>
<polygon fill="darkslategray" stroke="darkslategray" points="533.657,-94.084 544.065,-92.1027 534.693,-87.1611 533.657,-94.084"/>
</a>
<a xlink:href="./#containsPrimaryData" xlink:title="containsPrimaryData">
<text text-anchor="middle" x="519" y="-57.4" font-family="Helvetica,sans-Serif" font-size="14.00">containsPrimaryData</text>
</a>
</g>
<!-- DataContainer&#45;&gt;http://www.w3.org/2000/01/rdf&#45;schema#Literal -->
<g id="edge8" class="edge"><title>DataContainer&#45;&gt;http://www.w3.org/2000/01/rdf&#45;schema#Literal</title>
<a xlink:href="./#containsSecondaryData" xlink:title="containsSecondaryData">
<path fill="none" stroke="darkslategray" d="M472.098,-24.6757C507.567,-29.7702 550.684,-38.646 587,-54 598.469,-58.8492 599.387,-63.4868 610,-70 617.361,-74.5174 625.334,-79.0765 633.126,-83.361"/>
<polygon fill="darkslategray" stroke="darkslategray" points="631.683,-86.5596 642.143,-88.2456 635.017,-80.4048 631.683,-86.5596"/>
</a>
<a xlink:href="./#containsSecondaryData" xlink:title="containsSecondaryData">
<text text-anchor="middle" x="688" y="-57.4" font-family="Helvetica,sans-Serif" font-size="14.00">containsSecondaryData</text>
</a>
</g>
<!-- DataContainer&#45;&gt;http://www.w3.org/2000/01/rdf&#45;schema#Literal -->
<g id="edge10" class="edge"><title>DataContainer&#45;&gt;http://www.w3.org/2000/01/rdf&#45;schema#Literal</title>
<a xlink:href="./#dataCollectionProcess" xlink:title="dataCollectionProcess">
<path fill="none" stroke="darkslategray" d="M476.65,-20.1262C577.511,-23.7821 746.974,-32.999 766,-54 777.202,-66.3648 768.44,-76.6204 752.769,-84.6631"/>
<polygon fill="darkslategray" stroke="darkslategray" points="751.093,-81.5804 743.436,-88.9029 753.988,-87.9537 751.093,-81.5804"/>
</a>
<a xlink:href="./#dataCollectionProcess" xlink:title="dataCollectionProcess">
<text text-anchor="middle" x="845" y="-57.4" font-family="Helvetica,sans-Serif" font-size="14.00">dataCollectionProcess</text>
</a>
</g>
</g>
</svg>
