<?xml version="1.0" encoding="UTF-8" standalone="no"?>
<!DOCTYPE svg PUBLIC "-//W3C//DTD SVG 1.1//EN"
 "http://www.w3.org/Graphics/SVG/1.1/DTD/svg11.dtd">
<!-- Generated by graphviz version 2.26.3 (20100126.1600)
 -->
<!-- Title: _anonymous_0 Pages: 1 -->
<svg width="1337pt" height="442pt"
 viewBox="0.00 0.00 1337.00 442.00" xmlns="http://www.w3.org/2000/svg" xmlns:xlink="http://www.w3.org/1999/xlink">
<g id="graph1" class="graph" transform="scale(1 1) rotate(0) translate(4 438)">
<title>_anonymous_0</title>
<polygon fill="white" stroke="white" points="-4,5 -4,-438 1334,-438 1334,5 -4,5"/>
<!-- AffectedPopulation -->
<g id="node1" class="node"><title>AffectedPopulation</title>
<a xlink:href="./#AffectedPopulation" xlink:title="AffectedPopulation">
<ellipse fill="none" stroke="black" cx="715" cy="-166" rx="94.7578" ry="18"/>
<text text-anchor="middle" x="715" y="-161.4" font-family="Helvetica,sans-Serif" font-size="14.00">AffectedPopulation</text>
</a>
</g>
<!-- Population -->
<g id="node3" class="node"><title>Population</title>
<a xlink:href="./#Population" xlink:title="Population">
<ellipse fill="none" stroke="black" cx="886" cy="-254" rx="57.0197" ry="18"/>
<text text-anchor="middle" x="886" y="-249.4" font-family="Helvetica,sans-Serif" font-size="14.00">Population</text>
</a>
</g>
<!-- AffectedPopulation&#45;&gt;Population -->
<g id="edge2" class="edge"><title>AffectedPopulation&#45;&gt;Population</title>
<path fill="none" stroke="red" stroke-dasharray="5,2" d="M752.063,-182.708C764.811,-188.619 779.115,-195.434 792,-202 811.068,-211.717 831.928,-223.171 849.143,-232.852"/>
<polygon fill="red" stroke="red" points="847.869,-236.153 858.297,-238.026 851.313,-230.059 847.869,-236.153"/>
</g>
<!-- Emergency -->
<g id="node43" class="node"><title>Emergency</title>
<a xlink:href="./#Emergency" xlink:title="Emergency">
<ellipse fill="none" stroke="gray" cx="715" cy="-254" rx="59.8749" ry="18"/>
<text text-anchor="middle" x="715" y="-249.4" font-family="Helvetica,sans-Serif" font-size="14.00" fill="gray">Emergency</text>
</a>
</g>
<!-- AffectedPopulation&#45;&gt;Emergency -->
<g id="edge44" class="edge"><title>AffectedPopulation&#45;&gt;Emergency</title>
<a xlink:href="./#affectedBy" xlink:title="affectedBy">
<path fill="none" stroke="darkslategray" d="M715,-184.234C715,-196.151 715,-211.962 715,-225.518"/>
<polygon fill="darkslategray" stroke="darkslategray" points="711.5,-225.79 715,-235.79 718.5,-225.79 711.5,-225.79"/>
</a>
<a xlink:href="./#affectedBy" xlink:title="affectedBy">
<text text-anchor="middle" x="751.5" y="-205.4" font-family="Helvetica,sans-Serif" font-size="14.00">affectedBy</text>
</a>
</g>
<!-- http://xmlns.com/foaf/0.1/Group -->
<g id="node36" class="node"><title>http://xmlns.com/foaf/0.1/Group</title>
<a xlink:href="./#http://xmlns.com/foaf/0.1/Group" xlink:title="http://xmlns.com/foaf/0.1/Group">
<ellipse fill="none" stroke="black" cx="1136" cy="-342" rx="146.239" ry="18"/>
<text text-anchor="middle" x="1136" y="-337.4" font-family="Helvetica,sans-Serif" font-size="14.00">http://xmlns.com/foaf/0.1/Group</text>
</a>
</g>
<!-- Population&#45;&gt;http://xmlns.com/foaf/0.1/Group -->
<g id="edge34" class="edge"><title>Population&#45;&gt;http://xmlns.com/foaf/0.1/Group</title>
<path fill="none" stroke="red" stroke-dasharray="5,2" d="M924.242,-267.461C965.191,-281.875 1030.65,-304.917 1077.96,-321.57"/>
<polygon fill="red" stroke="red" points="1076.87,-324.896 1087.46,-324.915 1079.19,-318.293 1076.87,-324.896"/>
</g>
<!-- http://www.w3.org/2000/01/rdf&#45;schema#Literal -->
<g id="node45" class="node"><title>http://www.w3.org/2000/01/rdf&#45;schema#Literal</title>
<a xlink:href="./#http://www.w3.org/2000/01/rdf-schema#Literal" xlink:title="http://www.w3.org/2000/01/rdf&#45;schema#Literal">
<ellipse fill="none" stroke="gray" cx="763" cy="-342" rx="208.796" ry="18"/>
<text text-anchor="middle" x="763" y="-337.4" font-family="Helvetica,sans-Serif" font-size="14.00" fill="gray">http://www.w3.org/2000/01/rdf&#45;schema#Literal</text>
</a>
</g>
<!-- Population&#45;&gt;http://www.w3.org/2000/01/rdf&#45;schema#Literal -->
<g id="edge46" class="edge"><title>Population&#45;&gt;http://www.w3.org/2000/01/rdf&#45;schema#Literal</title>
<a xlink:href="./#count" xlink:title="count">
<path fill="none" stroke="darkslategray" d="M882.282,-272.031C879.133,-283.16 873.553,-296.984 864,-306 857.918,-311.74 850.861,-316.573 843.358,-320.643"/>
<polygon fill="darkslategray" stroke="darkslategray" points="841.794,-317.511 834.377,-325.077 844.893,-323.788 841.794,-317.511"/>
</a>
<a xlink:href="./#count" xlink:title="count">
<text text-anchor="middle" x="892.5" y="-293.4" font-family="Helvetica,sans-Serif" font-size="14.00">count</text>
</a>
</g>
<!-- Population&#45;&gt;http://www.w3.org/2000/01/rdf&#45;schema#Literal -->
<g id="edge50" class="edge"><title>Population&#45;&gt;http://www.w3.org/2000/01/rdf&#45;schema#Literal</title>
<a xlink:href="./#provenanceInfo" xlink:title="provenanceInfo">
<path fill="none" stroke="darkslategray" d="M835.04,-262.173C804.294,-268.261 769.316,-277.649 760,-290 754.89,-296.775 753.929,-305.57 754.763,-313.995"/>
<polygon fill="darkslategray" stroke="darkslategray" points="751.33,-314.684 756.511,-323.926 758.224,-313.47 751.33,-314.684"/>
</a>
<a xlink:href="./#provenanceInfo" xlink:title="provenanceInfo">
<text text-anchor="middle" x="810" y="-293.4" font-family="Helvetica,sans-Serif" font-size="14.00">provenanceInfo</text>
</a>
</g>
<!-- AgeGroup -->
<g id="node4" class="node"><title>AgeGroup</title>
<a xlink:href="./#AgeGroup" xlink:title="AgeGroup">
<ellipse fill="none" stroke="black" cx="1082" cy="-166" rx="53.838" ry="18"/>
<text text-anchor="middle" x="1082" y="-161.4" font-family="Helvetica,sans-Serif" font-size="14.00">AgeGroup</text>
</a>
</g>
<!-- AgeGroup&#45;&gt;Population -->
<g id="edge4" class="edge"><title>AgeGroup&#45;&gt;Population</title>
<path fill="none" stroke="red" stroke-dasharray="5,2" d="M1049.63,-180.531C1016.5,-195.409 964.831,-218.606 928.436,-234.947"/>
<polygon fill="red" stroke="red" points="926.758,-231.864 919.069,-239.153 929.625,-238.25 926.758,-231.864"/>
</g>
<!-- http://www.w3.org/2001/XMLSchema#int -->
<g id="node47" class="node"><title>http://www.w3.org/2001/XMLSchema#int</title>
<a xlink:href="./#http://www.w3.org/2001/XMLSchema#int" xlink:title="http://www.w3.org/2001/XMLSchema#int">
<ellipse fill="none" stroke="gray" cx="1145" cy="-254" rx="183.805" ry="18"/>
<text text-anchor="middle" x="1145" y="-249.4" font-family="Helvetica,sans-Serif" font-size="14.00" fill="gray">http://www.w3.org/2001/XMLSchema#int</text>
</a>
</g>
<!-- AgeGroup&#45;&gt;http://www.w3.org/2001/XMLSchema#int -->
<g id="edge48" class="edge"><title>AgeGroup&#45;&gt;http://www.w3.org/2001/XMLSchema#int</title>
<a xlink:href="./#fromAge" xlink:title="fromAge">
<path fill="none" stroke="darkslategray" d="M1104.64,-182.694C1111.17,-188.297 1117.9,-194.934 1123,-202 1128.22,-209.233 1132.51,-217.894 1135.87,-226.054"/>
<polygon fill="darkslategray" stroke="darkslategray" points="1132.68,-227.525 1139.51,-235.63 1139.23,-225.039 1132.68,-227.525"/>
</a>
<a xlink:href="./#fromAge" xlink:title="fromAge">
<text text-anchor="middle" x="1159.5" y="-205.4" font-family="Helvetica,sans-Serif" font-size="14.00">fromAge</text>
</a>
</g>
<!-- AgeGroup&#45;&gt;http://www.w3.org/2001/XMLSchema#int -->
<g id="edge52" class="edge"><title>AgeGroup&#45;&gt;http://www.w3.org/2001/XMLSchema#int</title>
<a xlink:href="./#toAge" xlink:title="toAge">
<path fill="none" stroke="darkslategray" d="M1076.17,-184.044C1073.87,-194.64 1073,-207.891 1079,-218 1081.72,-222.582 1085.25,-226.619 1089.27,-230.167"/>
<polygon fill="darkslategray" stroke="darkslategray" points="1087.41,-233.153 1097.5,-236.403 1091.64,-227.574 1087.41,-233.153"/>
</a>
<a xlink:href="./#toAge" xlink:title="toAge">
<text text-anchor="middle" x="1099" y="-205.4" font-family="Helvetica,sans-Serif" font-size="14.00">toAge</text>
</a>
</g>
<!-- AsylumSeeker -->
<g id="node6" class="node"><title>AsylumSeeker</title>
<a xlink:href="./#AsylumSeeker" xlink:title="AsylumSeeker">
<ellipse fill="none" stroke="black" cx="373" cy="-18" rx="71.949" ry="18"/>
<text text-anchor="middle" x="373" y="-13.4" font-family="Helvetica,sans-Serif" font-size="14.00">AsylumSeeker</text>
</a>
</g>
<!-- Displaced -->
<g id="node8" class="node"><title>Displaced</title>
<a xlink:href="./#Displaced" xlink:title="Displaced">
<ellipse fill="none" stroke="black" cx="556" cy="-92" rx="52.9948" ry="18"/>
<text text-anchor="middle" x="556" y="-87.4" font-family="Helvetica,sans-Serif" font-size="14.00">Displaced</text>
</a>
</g>
<!-- AsylumSeeker&#45;&gt;Displaced -->
<g id="edge6" class="edge"><title>AsylumSeeker&#45;&gt;Displaced</title>
<path fill="none" stroke="red" stroke-dasharray="5,2" d="M410.918,-33.3328C440.392,-45.2512 481.318,-61.8007 512.191,-74.2848"/>
<polygon fill="red" stroke="red" points="511.251,-77.6801 521.834,-78.1842 513.875,-71.1906 511.251,-77.6801"/>
</g>
<!-- Displaced&#45;&gt;AffectedPopulation -->
<g id="edge12" class="edge"><title>Displaced&#45;&gt;AffectedPopulation</title>
<path fill="none" stroke="red" stroke-dasharray="5,2" d="M587.413,-106.62C610.869,-117.537 643.27,-132.616 669.551,-144.848"/>
<polygon fill="red" stroke="red" points="668.385,-148.165 678.928,-149.212 671.339,-141.819 668.385,-148.165"/>
</g>
<!-- Casualty -->
<g id="node9" class="node"><title>Casualty</title>
<a xlink:href="./#Casualty" xlink:title="Casualty">
<ellipse fill="none" stroke="black" cx="715" cy="-92" rx="48.9699" ry="18"/>
<text text-anchor="middle" x="715" y="-87.4" font-family="Helvetica,sans-Serif" font-size="14.00">Casualty</text>
</a>
</g>
<!-- Casualty&#45;&gt;AffectedPopulation -->
<g id="edge8" class="edge"><title>Casualty&#45;&gt;AffectedPopulation</title>
<path fill="none" stroke="red" stroke-dasharray="5,2" d="M715,-110.292C715,-118.536 715,-128.462 715,-137.638"/>
<polygon fill="red" stroke="red" points="711.5,-137.918 715,-147.918 718.5,-137.918 711.5,-137.918"/>
</g>
<!-- Death -->
<g id="node11" class="node"><title>Death</title>
<a xlink:href="./#Death" xlink:title="Death">
<ellipse fill="none" stroke="black" cx="688" cy="-18" rx="37.0651" ry="18"/>
<text text-anchor="middle" x="688" y="-13.4" font-family="Helvetica,sans-Serif" font-size="14.00">Death</text>
</a>
</g>
<!-- Death&#45;&gt;Casualty -->
<g id="edge10" class="edge"><title>Death&#45;&gt;Casualty</title>
<path fill="none" stroke="red" stroke-dasharray="5,2" d="M694.536,-35.9133C697.663,-44.4849 701.478,-54.9385 704.962,-64.4878"/>
<polygon fill="red" stroke="red" points="701.715,-65.8006 708.431,-73.9951 708.291,-63.4012 701.715,-65.8006"/>
</g>
<!-- Female -->
<g id="node14" class="node"><title>Female</title>
<a xlink:href="./#Female" xlink:title="Female">
<ellipse fill="none" stroke="black" cx="123" cy="-342" rx="43.1021" ry="18"/>
<text text-anchor="middle" x="123" y="-337.4" font-family="Helvetica,sans-Serif" font-size="14.00">Female</text>
</a>
</g>
<!-- http://xmlns.com/foaf/0.1/Agent -->
<g id="node16" class="node"><title>http://xmlns.com/foaf/0.1/Agent</title>
<a xlink:href="./#http://xmlns.com/foaf/0.1/Agent" xlink:title="http://xmlns.com/foaf/0.1/Agent">
<ellipse fill="none" stroke="black" cx="288" cy="-416" rx="145.068" ry="18"/>
<text text-anchor="middle" x="288" y="-411.4" font-family="Helvetica,sans-Serif" font-size="14.00">http://xmlns.com/foaf/0.1/Agent</text>
</a>
</g>
<!-- Female&#45;&gt;http://xmlns.com/foaf/0.1/Agent -->
<g id="edge14" class="edge"><title>Female&#45;&gt;http://xmlns.com/foaf/0.1/Agent</title>
<path fill="none" stroke="red" stroke-dasharray="5,2" d="M152.499,-355.23C176.733,-366.099 211.55,-381.713 239.822,-394.393"/>
<polygon fill="red" stroke="red" points="238.577,-397.671 249.134,-398.569 241.442,-391.283 238.577,-397.671"/>
</g>
<!-- Gender -->
<g id="node18" class="node"><title>Gender</title>
<a xlink:href="./#Gender" xlink:title="Gender">
<ellipse fill="none" stroke="black" cx="68" cy="-416" rx="43.1021" ry="18"/>
<text text-anchor="middle" x="68" y="-411.4" font-family="Helvetica,sans-Serif" font-size="14.00">Gender</text>
</a>
</g>
<!-- Female&#45;&gt;Gender -->
<g id="edge16" class="edge"><title>Female&#45;&gt;Gender</title>
<path fill="none" stroke="red" stroke-dasharray="5,2" d="M109.966,-359.537C103.116,-368.753 94.5928,-380.221 87.0203,-390.409"/>
<polygon fill="red" stroke="red" points="84.0969,-388.475 80.9407,-398.589 89.715,-392.651 84.0969,-388.475"/>
</g>
<!-- IDP -->
<g id="node19" class="node"><title>IDP</title>
<a xlink:href="./#IDP" xlink:title="IDP">
<ellipse fill="none" stroke="black" cx="490" cy="-18" rx="27" ry="18"/>
<text text-anchor="middle" x="490" y="-13.4" font-family="Helvetica,sans-Serif" font-size="14.00">IDP</text>
</a>
</g>
<!-- IDP&#45;&gt;Displaced -->
<g id="edge18" class="edge"><title>IDP&#45;&gt;Displaced</title>
<path fill="none" stroke="red" stroke-dasharray="5,2" d="M503.997,-33.6935C512.583,-43.3208 523.774,-55.8677 533.573,-66.855"/>
<polygon fill="red" stroke="red" points="531.138,-69.3824 540.406,-74.5158 536.362,-64.7231 531.138,-69.3824"/>
</g>
<!-- ImplementingPartner -->
<g id="node21" class="node"><title>ImplementingPartner</title>
<a xlink:href="./#ImplementingPartner" xlink:title="ImplementingPartner">
<ellipse fill="none" stroke="black" cx="360" cy="-166" rx="101.965" ry="18"/>
<text text-anchor="middle" x="360" y="-161.4" font-family="Helvetica,sans-Serif" font-size="14.00">ImplementingPartner</text>
</a>
</g>
<!-- Organization -->
<g id="node23" class="node"><title>Organization</title>
<a xlink:href="./#Organization" xlink:title="Organization">
<ellipse fill="none" stroke="black" cx="360" cy="-254" rx="67.082" ry="18"/>
<text text-anchor="middle" x="360" y="-249.4" font-family="Helvetica,sans-Serif" font-size="14.00">Organization</text>
</a>
</g>
<!-- ImplementingPartner&#45;&gt;Organization -->
<g id="edge20" class="edge"><title>ImplementingPartner&#45;&gt;Organization</title>
<path fill="none" stroke="red" stroke-dasharray="5,2" d="M360,-184.234C360,-196.151 360,-211.962 360,-225.518"/>
<polygon fill="red" stroke="red" points="356.5,-225.79 360,-235.79 363.5,-225.79 356.5,-225.79"/>
</g>
<!-- http://xmlns.com/foaf/0.1/Organization -->
<g id="node34" class="node"><title>http://xmlns.com/foaf/0.1/Organization</title>
<a xlink:href="./#http://xmlns.com/foaf/0.1/Organization" xlink:title="http://xmlns.com/foaf/0.1/Organization">
<ellipse fill="none" stroke="black" cx="360" cy="-342" rx="175.755" ry="18"/>
<text text-anchor="middle" x="360" y="-337.4" font-family="Helvetica,sans-Serif" font-size="14.00">http://xmlns.com/foaf/0.1/Organization</text>
</a>
</g>
<!-- Organization&#45;&gt;http://xmlns.com/foaf/0.1/Organization -->
<g id="edge32" class="edge"><title>Organization&#45;&gt;http://xmlns.com/foaf/0.1/Organization</title>
<path fill="none" stroke="red" stroke-dasharray="5,2" d="M360,-272.234C360,-284.151 360,-299.962 360,-313.518"/>
<polygon fill="red" stroke="red" points="356.5,-313.79 360,-323.79 363.5,-313.79 356.5,-313.79"/>
</g>
<!-- Injured -->
<g id="node24" class="node"><title>Injured</title>
<a xlink:href="./#Injured" xlink:title="Injured">
<ellipse fill="none" stroke="black" cx="783" cy="-18" rx="40.2492" ry="18"/>
<text text-anchor="middle" x="783" y="-13.4" font-family="Helvetica,sans-Serif" font-size="14.00">Injured</text>
</a>
</g>
<!-- Injured&#45;&gt;Casualty -->
<g id="edge22" class="edge"><title>Injured&#45;&gt;Casualty</title>
<path fill="none" stroke="red" stroke-dasharray="5,2" d="M767.57,-34.7917C758.741,-44.3997 747.502,-56.6301 737.684,-67.3143"/>
<polygon fill="red" stroke="red" points="735.03,-65.0297 730.841,-74.7612 740.185,-69.7661 735.03,-65.0297"/>
</g>
<!-- Male -->
<g id="node26" class="node"><title>Male</title>
<a xlink:href="./#Male" xlink:title="Male">
<ellipse fill="none" stroke="black" cx="31" cy="-342" rx="31.0281" ry="18"/>
<text text-anchor="middle" x="31" y="-337.4" font-family="Helvetica,sans-Serif" font-size="14.00">Male</text>
</a>
</g>
<!-- Male&#45;&gt;http://xmlns.com/foaf/0.1/Agent -->
<g id="edge24" class="edge"><title>Male&#45;&gt;http://xmlns.com/foaf/0.1/Agent</title>
<path fill="none" stroke="red" stroke-dasharray="5,2" d="M54.8433,-353.526C60.0977,-355.841 65.6831,-358.133 71,-360 114.41,-375.244 164.017,-388.353 204.833,-398.048"/>
<polygon fill="red" stroke="red" points="204.206,-401.496 214.742,-400.375 205.807,-394.681 204.206,-401.496"/>
</g>
<!-- Male&#45;&gt;Gender -->
<g id="edge26" class="edge"><title>Male&#45;&gt;Gender</title>
<path fill="none" stroke="red" stroke-dasharray="5,2" d="M39.7685,-359.537C44.2057,-368.411 49.6872,-379.374 54.6361,-389.272"/>
<polygon fill="red" stroke="red" points="51.5635,-390.953 59.1662,-398.332 57.8245,-387.823 51.5635,-390.953"/>
</g>
<!-- Missing -->
<g id="node29" class="node"><title>Missing</title>
<a xlink:href="./#Missing" xlink:title="Missing">
<ellipse fill="none" stroke="black" cx="883" cy="-18" rx="41.7645" ry="18"/>
<text text-anchor="middle" x="883" y="-13.4" font-family="Helvetica,sans-Serif" font-size="14.00">Missing</text>
</a>
</g>
<!-- Missing&#45;&gt;Casualty -->
<g id="edge28" class="edge"><title>Missing&#45;&gt;Casualty</title>
<path fill="none" stroke="red" stroke-dasharray="5,2" d="M853.352,-31.0594C826.322,-42.9653 786.134,-60.6672 756.026,-73.9288"/>
<polygon fill="red" stroke="red" points="754.376,-70.8314 746.635,-78.0655 757.197,-77.2375 754.376,-70.8314"/>
</g>
<!-- NonDisplaced -->
<g id="node31" class="node"><title>NonDisplaced</title>
<a xlink:href="./#NonDisplaced" xlink:title="NonDisplaced">
<ellipse fill="none" stroke="black" cx="852" cy="-92" rx="69.7653" ry="18"/>
<text text-anchor="middle" x="852" y="-87.4" font-family="Helvetica,sans-Serif" font-size="14.00">NonDisplaced</text>
</a>
</g>
<!-- NonDisplaced&#45;&gt;AffectedPopulation -->
<g id="edge30" class="edge"><title>NonDisplaced&#45;&gt;AffectedPopulation</title>
<path fill="none" stroke="red" stroke-dasharray="5,2" d="M821.595,-108.423C802.231,-118.883 776.91,-132.559 755.807,-143.958"/>
<polygon fill="red" stroke="red" points="753.883,-141.019 746.748,-148.851 757.21,-147.178 753.883,-141.019"/>
</g>
<!-- http://xmlns.com/foaf/0.1/Organization&#45;&gt;http://xmlns.com/foaf/0.1/Agent -->
<g id="edge42" class="edge"><title>http://xmlns.com/foaf/0.1/Organization&#45;&gt;http://xmlns.com/foaf/0.1/Agent</title>
<path fill="none" stroke="red" stroke-dasharray="5,2" d="M342.571,-359.913C333.616,-369.117 322.551,-380.489 312.73,-390.583"/>
<polygon fill="red" stroke="red" points="309.983,-388.387 305.518,-397.995 315,-393.269 309.983,-388.387"/>
</g>
<!-- http://xmlns.com/foaf/0.1/Group&#45;&gt;http://xmlns.com/foaf/0.1/Agent -->
<g id="edge40" class="edge"><title>http://xmlns.com/foaf/0.1/Group&#45;&gt;http://xmlns.com/foaf/0.1/Agent</title>
<path fill="none" stroke="red" stroke-dasharray="5,2" d="M1031.42,-354.65C1014.57,-356.542 997.311,-358.394 981,-360 788.074,-378.991 564.461,-396.195 424.599,-406.379"/>
<polygon fill="red" stroke="red" points="423.979,-402.914 414.258,-407.13 424.486,-409.896 423.979,-402.914"/>
</g>
<!-- Refugee -->
<g id="node37" class="node"><title>Refugee</title>
<a xlink:href="./#Refugee" xlink:title="Refugee">
<ellipse fill="none" stroke="black" cx="584" cy="-18" rx="48.9699" ry="18"/>
<text text-anchor="middle" x="584" y="-13.4" font-family="Helvetica,sans-Serif" font-size="14.00">Refugee</text>
</a>
</g>
<!-- Refugee&#45;&gt;Displaced -->
<g id="edge36" class="edge"><title>Refugee&#45;&gt;Displaced</title>
<path fill="none" stroke="red" stroke-dasharray="5,2" d="M577.222,-35.9133C573.979,-44.4849 570.023,-54.9385 566.41,-64.4878"/>
<polygon fill="red" stroke="red" points="563.078,-63.4036 562.813,-73.9951 569.625,-65.8809 563.078,-63.4036"/>
</g>
<!-- TotalPopulation -->
<g id="node39" class="node"><title>TotalPopulation</title>
<a xlink:href="./#TotalPopulation" xlink:title="TotalPopulation">
<ellipse fill="none" stroke="black" cx="908" cy="-166" rx="79.8276" ry="18"/>
<text text-anchor="middle" x="908" y="-161.4" font-family="Helvetica,sans-Serif" font-size="14.00">TotalPopulation</text>
</a>
</g>
<!-- TotalPopulation&#45;&gt;Population -->
<g id="edge38" class="edge"><title>TotalPopulation&#45;&gt;Population</title>
<path fill="none" stroke="red" stroke-dasharray="5,2" d="M903.442,-184.234C900.433,-196.269 896.431,-212.275 893.02,-225.92"/>
<polygon fill="red" stroke="red" points="889.583,-225.239 890.553,-235.79 896.374,-226.937 889.583,-225.239"/>
</g>
</g>
</svg>
