<?xml version="1.0" encoding="UTF-8" standalone="no"?>
<!DOCTYPE svg PUBLIC "-//W3C//DTD SVG 1.1//EN"
 "http://www.w3.org/Graphics/SVG/1.1/DTD/svg11.dtd">
<!-- Generated by graphviz version 2.26.3 (20100126.1600)
 -->
<!-- Title: _anonymous_0 Pages: 1 -->
<svg width="2954pt" height="396pt"
 viewBox="0.00 0.00 2954.00 396.00" xmlns="http://www.w3.org/2000/svg" xmlns:xlink="http://www.w3.org/1999/xlink">
<g id="graph1" class="graph" transform="scale(1 1) rotate(0) translate(4 392)">
<title>_anonymous_0</title>
<polygon fill="white" stroke="white" points="-4,5 -4,-392 2951,-392 2951,5 -4,5"/>
<!-- Activity -->
<g id="node1" class="node"><title>Activity</title>
<a xlink:href="./#Activity" xlink:title="Activity">
<ellipse fill="none" stroke="black" cx="1624" cy="-106" rx="41.7645" ry="18"/>
<text text-anchor="middle" x="1624" y="-101.4" font-family="Helvetica,sans-Serif" font-size="14.00">Activity</text>
</a>
</g>
<!-- Activity&#45;&gt;Activity -->
<g id="edge54" class="edge"><title>Activity&#45;&gt;Activity</title>
<a xlink:href="./#hasPart" xlink:title="hasPart">
<path fill="none" stroke="darkslategray" d="M1661.5,-97.75C1674,-97.75 1684,-100.5 1684,-106 1684,-109.867 1679.06,-112.375 1671.78,-113.523"/>
<polygon fill="darkslategray" stroke="darkslategray" points="1671.23,-110.053 1661.5,-114.25 1671.72,-117.035 1671.23,-110.053"/>
</a>
<a xlink:href="./#hasPart" xlink:title="hasPart">
<text text-anchor="middle" x="1710" y="-101.4" font-family="Helvetica,sans-Serif" font-size="14.00">hasPart</text>
</a>
</g>
<!-- Organisation -->
<g id="node4" class="node"><title>Organisation</title>
<a xlink:href="./#Organisation" xlink:title="Organisation">
<ellipse fill="none" stroke="black" cx="984" cy="-194" rx="65.9119" ry="18"/>
<text text-anchor="middle" x="984" y="-189.4" font-family="Helvetica,sans-Serif" font-size="14.00">Organisation</text>
</a>
</g>
<!-- Activity&#45;&gt;Organisation -->
<g id="edge44" class="edge"><title>Activity&#45;&gt;Organisation</title>
<a xlink:href="./#fundedBy" xlink:title="fundedBy">
<path fill="none" stroke="darkslategray" d="M1583.51,-110.885C1548.49,-114.95 1496.47,-120.601 1451,-124 1363.38,-130.549 1138.97,-113.069 1056,-142 1054.76,-142.434 1034.29,-157.245 1015.5,-170.948"/>
<polygon fill="darkslategray" stroke="darkslategray" points="1013.35,-168.185 1007.33,-176.908 1017.47,-173.839 1013.35,-168.185"/>
</a>
<a xlink:href="./#fundedBy" xlink:title="fundedBy">
<text text-anchor="middle" x="1086.5" y="-145.4" font-family="Helvetica,sans-Serif" font-size="14.00">fundedBy</text>
</a>
</g>
<!-- Activity&#45;&gt;Organisation -->
<g id="edge46" class="edge"><title>Activity&#45;&gt;Organisation</title>
<a xlink:href="./#hasBeneficiaryOrganisation" xlink:title="hasBeneficiaryOrganisation">
<path fill="none" stroke="darkslategray" d="M1583.15,-110.784C1548.13,-114.758 1496.3,-120.335 1451,-124 1382,-129.584 1205.43,-119.384 1140,-142 1128.23,-146.068 1128.29,-152.74 1117,-158 1095.47,-168.034 1070.63,-175.7 1048.29,-181.326"/>
<polygon fill="darkslategray" stroke="darkslategray" points="1047.44,-177.929 1038.55,-183.691 1049.09,-184.731 1047.44,-177.929"/>
</a>
<a xlink:href="./#hasBeneficiaryOrganisation" xlink:title="hasBeneficiaryOrganisation">
<text text-anchor="middle" x="1229" y="-145.4" font-family="Helvetica,sans-Serif" font-size="14.00">hasBeneficiaryOrganisation</text>
</a>
</g>
<!-- Activity&#45;&gt;Organisation -->
<g id="edge60" class="edge"><title>Activity&#45;&gt;Organisation</title>
<a xlink:href="./#implementedBy" xlink:title="implementedBy">
<path fill="none" stroke="darkslategray" d="M1583.09,-110.113C1510.13,-117.608 1363.1,-133.499 1341,-142 1329.38,-146.47 1329.66,-153.641 1318,-158 1272.18,-175.122 1142.99,-185.263 1059.37,-190.22"/>
<polygon fill="darkslategray" stroke="darkslategray" points="1058.93,-186.739 1049.15,-190.813 1059.34,-193.727 1058.93,-186.739"/>
</a>
<a xlink:href="./#implementedBy" xlink:title="implementedBy">
<text text-anchor="middle" x="1391" y="-145.4" font-family="Helvetica,sans-Serif" font-size="14.00">implementedBy</text>
</a>
</g>
<!-- Objective -->
<g id="node10" class="node"><title>Objective</title>
<a xlink:href="./#Objective" xlink:title="Objective">
<ellipse fill="none" stroke="black" cx="2050" cy="-282" rx="51.1517" ry="18"/>
<text text-anchor="middle" x="2050" y="-277.4" font-family="Helvetica,sans-Serif" font-size="14.00">Objective</text>
</a>
</g>
<!-- Activity&#45;&gt;Objective -->
<g id="edge50" class="edge"><title>Activity&#45;&gt;Objective</title>
<a xlink:href="./#hasObjective" xlink:title="hasObjective">
<path fill="none" stroke="darkslategray" d="M1662.52,-113.303C1706.28,-122.824 1778.66,-142.365 1833,-176 1852.24,-187.91 1850.04,-199.652 1869,-212 1909.3,-238.244 1960.93,-256.985 1998.73,-268.43"/>
<polygon fill="darkslategray" stroke="darkslategray" points="1997.93,-271.844 2008.51,-271.324 1999.92,-265.131 1997.93,-271.844"/>
</a>
<a xlink:href="./#hasObjective" xlink:title="hasObjective">
<text text-anchor="middle" x="1911" y="-189.4" font-family="Helvetica,sans-Serif" font-size="14.00">hasObjective</text>
</a>
</g>
<!-- Priority -->
<g id="node21" class="node"><title>Priority</title>
<a xlink:href="./#Priority" xlink:title="Priority">
<ellipse fill="none" stroke="black" cx="2004" cy="-194" rx="41.7645" ry="18"/>
<text text-anchor="middle" x="2004" y="-189.4" font-family="Helvetica,sans-Serif" font-size="14.00">Priority</text>
</a>
</g>
<!-- Activity&#45;&gt;Priority -->
<g id="edge56" class="edge"><title>Activity&#45;&gt;Priority</title>
<a xlink:href="./#hasPriority" xlink:title="hasPriority">
<path fill="none" stroke="darkslategray" d="M1665.75,-108.965C1715.89,-113.22 1802.21,-122.766 1874,-142 1906.17,-150.618 1941.14,-164.904 1966.7,-176.324"/>
<polygon fill="darkslategray" stroke="darkslategray" points="1965.45,-179.603 1976.01,-180.542 1968.34,-173.227 1965.45,-179.603"/>
</a>
<a xlink:href="./#hasPriority" xlink:title="hasPriority">
<text text-anchor="middle" x="1956" y="-145.4" font-family="Helvetica,sans-Serif" font-size="14.00">hasPriority</text>
</a>
</g>
<!-- Status -->
<g id="node28" class="node"><title>Status</title>
<a xlink:href="./#Status" xlink:title="Status">
<ellipse fill="none" stroke="black" cx="2559" cy="-194" rx="39.0774" ry="18"/>
<text text-anchor="middle" x="2559" y="-189.4" font-family="Helvetica,sans-Serif" font-size="14.00">Status</text>
</a>
</g>
<!-- Activity&#45;&gt;Status -->
<g id="edge58" class="edge"><title>Activity&#45;&gt;Status</title>
<a xlink:href="./#hasStatus" xlink:title="hasStatus">
<path fill="none" stroke="darkslategray" d="M1665.97,-107.754C1818.99,-114.391 2346.64,-139.459 2511,-176 2514.17,-176.705 2517.41,-177.575 2520.64,-178.548"/>
<polygon fill="darkslategray" stroke="darkslategray" points="2519.61,-181.894 2530.21,-181.718 2521.81,-175.249 2519.61,-181.894"/>
</a>
<a xlink:href="./#hasStatus" xlink:title="hasStatus">
<text text-anchor="middle" x="2417" y="-145.4" font-family="Helvetica,sans-Serif" font-size="14.00">hasStatus</text>
</a>
</g>
<!-- http://www.w3.org/2000/01/rdf&#45;schema#Literal -->
<g id="node31" class="node"><title>http://www.w3.org/2000/01/rdf&#45;schema#Literal</title>
<a xlink:href="./#http://www.w3.org/2000/01/rdf-schema#Literal" xlink:title="http://www.w3.org/2000/01/rdf&#45;schema#Literal">
<ellipse fill="none" stroke="gray" cx="1585" cy="-370" rx="208.796" ry="18"/>
<text text-anchor="middle" x="1585" y="-365.4" font-family="Helvetica,sans-Serif" font-size="14.00" fill="gray">http://www.w3.org/2000/01/rdf&#45;schema#Literal</text>
</a>
</g>
<!-- Activity&#45;&gt;http://www.w3.org/2000/01/rdf&#45;schema#Literal -->
<g id="edge26" class="edge"><title>Activity&#45;&gt;http://www.w3.org/2000/01/rdf&#45;schema#Literal</title>
<a xlink:href="./#activityDescription" xlink:title="activityDescription">
<path fill="none" stroke="darkslategray" d="M1666.13,-106.85C1812.6,-109.958 2299.21,-121.604 2454,-142 2523.06,-151.1 2563.41,-121.663 2607,-176 2712.35,-307.326 2122.16,-350.264 1793.68,-363.902"/>
<polygon fill="darkslategray" stroke="darkslategray" points="1793.4,-360.41 1783.55,-364.317 1793.69,-367.404 1793.4,-360.41"/>
</a>
<a xlink:href="./#activityDescription" xlink:title="activityDescription">
<text text-anchor="middle" x="2667" y="-233.4" font-family="Helvetica,sans-Serif" font-size="14.00">activityDescription</text>
</a>
</g>
<!-- Activity&#45;&gt;http://www.w3.org/2000/01/rdf&#45;schema#Literal -->
<g id="edge28" class="edge"><title>Activity&#45;&gt;http://www.w3.org/2000/01/rdf&#45;schema#Literal</title>
<a xlink:href="./#activityTitle" xlink:title="activityTitle">
<path fill="none" stroke="darkslategray" d="M1616.42,-123.819C1605.08,-150.049 1583.75,-197.512 1572,-212 1563.82,-222.082 1554.69,-218.331 1549,-230 1545.89,-236.393 1545.95,-239.574 1549,-246 1554.41,-257.416 1564.85,-252.963 1571,-264 1584.27,-287.831 1586.92,-319.231 1586.77,-341.658"/>
<polygon fill="darkslategray" stroke="darkslategray" points="1583.26,-341.786 1586.5,-351.874 1590.26,-341.968 1583.26,-341.786"/>
</a>
<a xlink:href="./#activityTitle" xlink:title="activityTitle">
<text text-anchor="middle" x="1587" y="-233.4" font-family="Helvetica,sans-Serif" font-size="14.00">activityTitle</text>
</a>
</g>
<!-- Activity&#45;&gt;http://www.w3.org/2000/01/rdf&#45;schema#Literal -->
<g id="edge68" class="edge"><title>Activity&#45;&gt;http://www.w3.org/2000/01/rdf&#45;schema#Literal</title>
<a xlink:href="./#numberOfBeneficiaries" xlink:title="numberOfBeneficiaries">
<path fill="none" stroke="darkslategray" d="M1624.19,-124.071C1624.44,-148.214 1624.85,-192.325 1625,-230 1625.03,-237.111 1625.98,-238.957 1625,-246 1619.39,-286.27 1613.4,-295.612 1600,-334 1599.04,-336.757 1597.97,-339.606 1596.87,-342.439"/>
<polygon fill="darkslategray" stroke="darkslategray" points="1593.57,-341.265 1593.05,-351.847 1600.06,-343.897 1593.57,-341.265"/>
</a>
<a xlink:href="./#numberOfBeneficiaries" xlink:title="numberOfBeneficiaries">
<text text-anchor="middle" x="1699" y="-233.4" font-family="Helvetica,sans-Serif" font-size="14.00">numberOfBeneficiaries</text>
</a>
</g>
<!-- Need -->
<g id="node35" class="node"><title>Need</title>
<a xlink:href="./#Need" xlink:title="Need">
<ellipse fill="none" stroke="gray" cx="2714" cy="-194" rx="34.2118" ry="18"/>
<text text-anchor="middle" x="2714" y="-189.4" font-family="Helvetica,sans-Serif" font-size="14.00" fill="gray">Need</text>
</a>
</g>
<!-- Activity&#45;&gt;Need -->
<g id="edge32" class="edge"><title>Activity&#45;&gt;Need</title>
<a xlink:href="./#addresses" xlink:title="addresses">
<path fill="none" stroke="darkslategray" d="M1666.12,-106.096C1845.9,-106.696 2544.03,-111.018 2637,-142 2648.81,-145.937 2649.71,-150.99 2660,-158 2667.78,-163.299 2676.24,-168.975 2684.09,-174.216"/>
<polygon fill="darkslategray" stroke="darkslategray" points="2682.38,-177.281 2692.65,-179.905 2686.26,-171.452 2682.38,-177.281"/>
</a>
<a xlink:href="./#addresses" xlink:title="addresses">
<text text-anchor="middle" x="2693.5" y="-145.4" font-family="Helvetica,sans-Serif" font-size="14.00">addresses</text>
</a>
</g>
<!-- BilateralOrganisation -->
<g id="node2" class="node"><title>BilateralOrganisation</title>
<a xlink:href="./#BilateralOrganisation" xlink:title="BilateralOrganisation">
<ellipse fill="none" stroke="black" cx="102" cy="-106" rx="101.965" ry="18"/>
<text text-anchor="middle" x="102" y="-101.4" font-family="Helvetica,sans-Serif" font-size="14.00">BilateralOrganisation</text>
</a>
</g>
<!-- BilateralOrganisation&#45;&gt;Organisation -->
<g id="edge2" class="edge"><title>BilateralOrganisation&#45;&gt;Organisation</title>
<path fill="none" stroke="red" stroke-dasharray="5,2" d="M175.037,-118.592C187.674,-120.556 200.701,-122.446 213,-124 467.976,-156.208 772.2,-179.355 909.848,-189.008"/>
<polygon fill="red" stroke="red" points="909.646,-192.502 919.866,-189.707 910.134,-185.519 909.646,-192.502"/>
</g>
<!-- Organisation&#45;&gt;Activity -->
<g id="edge62" class="edge"><title>Organisation&#45;&gt;Activity</title>
<a xlink:href="./#involvedIn" xlink:title="involvedIn">
<path fill="none" stroke="darkslategray" d="M1049.99,-193.031C1158.81,-190.728 1370.83,-183.074 1441,-158 1452.73,-153.81 1452.6,-147.016 1464,-142 1498.8,-126.685 1540.84,-117.551 1573.09,-112.318"/>
<polygon fill="darkslategray" stroke="darkslategray" points="1573.84,-115.742 1583.19,-110.753 1572.77,-108.825 1573.84,-115.742"/>
</a>
<a xlink:href="./#involvedIn" xlink:title="involvedIn">
<text text-anchor="middle" x="1496" y="-145.4" font-family="Helvetica,sans-Serif" font-size="14.00">involvedIn</text>
</a>
</g>
<!-- Organisation&#45;&gt;Organisation -->
<g id="edge48" class="edge"><title>Organisation&#45;&gt;Organisation</title>
<a xlink:href="./#hasChildOrg" xlink:title="hasChildOrg">
<path fill="none" stroke="darkslategray" d="M1043.26,-185.896C1057.47,-186.529 1068,-189.23 1068,-194 1068,-197.54 1062.2,-199.941 1053.4,-201.202"/>
<polygon fill="darkslategray" stroke="darkslategray" points="1052.91,-197.732 1043.26,-202.104 1053.53,-204.704 1052.91,-197.732"/>
</a>
<a xlink:href="./#hasChildOrg" xlink:title="hasChildOrg">
<text text-anchor="middle" x="1108" y="-189.4" font-family="Helvetica,sans-Serif" font-size="14.00">hasChildOrg</text>
</a>
</g>
<!-- Cluster -->
<g id="node5" class="node"><title>Cluster</title>
<a xlink:href="./#Cluster" xlink:title="Cluster">
<ellipse fill="none" stroke="black" cx="1400" cy="-282" rx="41.7645" ry="18"/>
<text text-anchor="middle" x="1400" y="-277.4" font-family="Helvetica,sans-Serif" font-size="14.00">Cluster</text>
</a>
</g>
<!-- Organisation&#45;&gt;Cluster -->
<g id="edge34" class="edge"><title>Organisation&#45;&gt;Cluster</title>
<a xlink:href="./#clusterLeadOf" xlink:title="clusterLeadOf">
<path fill="none" stroke="darkslategray" d="M1047.76,-198.871C1102.48,-203.927 1183.19,-213.473 1252,-230 1289.59,-239.028 1331,-254.033 1360.43,-265.61"/>
<polygon fill="darkslategray" stroke="darkslategray" points="1359.35,-268.945 1369.93,-269.391 1361.94,-262.441 1359.35,-268.945"/>
</a>
<a xlink:href="./#clusterLeadOf" xlink:title="clusterLeadOf">
<text text-anchor="middle" x="1352.5" y="-233.4" font-family="Helvetica,sans-Serif" font-size="14.00">clusterLeadOf</text>
</a>
</g>
<!-- http://xmlns.com/foaf/0.1/Organisation -->
<g id="node16" class="node"><title>http://xmlns.com/foaf/0.1/Organisation</title>
<a xlink:href="./#http://xmlns.com/foaf/0.1/Organisation" xlink:title="http://xmlns.com/foaf/0.1/Organisation">
<ellipse fill="none" stroke="black" cx="476" cy="-282" rx="175.084" ry="18"/>
<text text-anchor="middle" x="476" y="-277.4" font-family="Helvetica,sans-Serif" font-size="14.00">http://xmlns.com/foaf/0.1/Organisation</text>
</a>
</g>
<!-- Organisation&#45;&gt;http://xmlns.com/foaf/0.1/Organisation -->
<g id="edge12" class="edge"><title>Organisation&#45;&gt;http://xmlns.com/foaf/0.1/Organisation</title>
<path fill="none" stroke="red" stroke-dasharray="5,2" d="M920.461,-199.069C858.703,-204.573 762.428,-214.683 680,-230 634.285,-238.495 583.627,-251.389 544.228,-262.211"/>
<polygon fill="red" stroke="red" points="543.167,-258.873 534.464,-264.914 545.035,-265.619 543.167,-258.873"/>
</g>
<!-- Organisation&#45;&gt;http://www.w3.org/2000/01/rdf&#45;schema#Literal -->
<g id="edge24" class="edge"><title>Organisation&#45;&gt;http://www.w3.org/2000/01/rdf&#45;schema#Literal</title>
<a xlink:href="./#abbreviation" xlink:title="abbreviation">
<path fill="none" stroke="darkslategray" d="M1049.82,-195.46C1151.06,-198.411 1339.93,-206.904 1403,-230 1427.55,-238.989 1430.48,-247.798 1451,-264 1470.03,-279.029 1473.19,-284.698 1492,-300 1511.4,-315.781 1533.78,-332.662 1551.72,-345.892"/>
<polygon fill="darkslategray" stroke="darkslategray" points="1550,-348.976 1560.14,-352.073 1554.15,-343.334 1550,-348.976"/>
</a>
<a xlink:href="./#abbreviation" xlink:title="abbreviation">
<text text-anchor="middle" x="1531.5" y="-277.4" font-family="Helvetica,sans-Serif" font-size="14.00">abbreviation</text>
</a>
</g>
<!-- Organisation&#45;&gt;http://www.w3.org/2000/01/rdf&#45;schema#Literal -->
<g id="edge72" class="edge"><title>Organisation&#45;&gt;http://www.w3.org/2000/01/rdf&#45;schema#Literal</title>
<a xlink:href="./#orgDisplayName" xlink:title="orgDisplayName">
<path fill="none" stroke="darkslategray" d="M917.819,-194.799C735.307,-197.685 235.057,-210.451 186,-264 175.192,-275.798 174.938,-288.44 186,-300 231.367,-347.41 1300.51,-347.867 1366,-352 1386.04,-353.265 1407.1,-354.77 1427.91,-356.364"/>
<polygon fill="darkslategray" stroke="darkslategray" points="1427.86,-359.871 1438.1,-357.153 1428.4,-352.892 1427.86,-359.871"/>
</a>
<a xlink:href="./#orgDisplayName" xlink:title="orgDisplayName">
<text text-anchor="middle" x="239" y="-277.4" font-family="Helvetica,sans-Serif" font-size="14.00">orgDisplayName</text>
</a>
</g>
<!-- Organisation&#45;&gt;http://www.w3.org/2000/01/rdf&#45;schema#Literal -->
<g id="edge74" class="edge"><title>Organisation&#45;&gt;http://www.w3.org/2000/01/rdf&#45;schema#Literal</title>
<a xlink:href="./#orgName" xlink:title="orgName">
<path fill="none" stroke="darkslategray" d="M1040.18,-203.663C1072.58,-210.178 1109.33,-219.485 1122,-230 1148.47,-251.966 1130.89,-275.47 1155,-300 1178.96,-324.383 1191.13,-324.598 1224,-334 1243.75,-339.65 1337.14,-348.892 1423.97,-356.597"/>
<polygon fill="darkslategray" stroke="darkslategray" points="1423.71,-360.087 1433.98,-357.481 1424.33,-353.114 1423.71,-360.087"/>
</a>
<a xlink:href="./#orgName" xlink:title="orgName">
<text text-anchor="middle" x="1185.5" y="-277.4" font-family="Helvetica,sans-Serif" font-size="14.00">orgName</text>
</a>
</g>
<!-- Organisation&#45;&gt;http://www.w3.org/2000/01/rdf&#45;schema#Literal -->
<g id="edge76" class="edge"><title>Organisation&#45;&gt;http://www.w3.org/2000/01/rdf&#45;schema#Literal</title>
<a xlink:href="./#orgNativeName" xlink:title="orgNativeName">
<path fill="none" stroke="darkslategray" d="M1040,-203.646C1070.83,-209.709 1109.52,-218.56 1143,-230 1176.87,-241.573 1187.46,-242.4 1216,-264 1232.84,-276.743 1230.64,-286.655 1247,-300 1271.05,-319.617 1278.53,-324.27 1308,-334 1332.12,-341.962 1382.88,-349.436 1434.44,-355.488"/>
<polygon fill="darkslategray" stroke="darkslategray" points="1434.07,-358.969 1444.41,-356.64 1434.87,-352.015 1434.07,-358.969"/>
</a>
<a xlink:href="./#orgNativeName" xlink:title="orgNativeName">
<text text-anchor="middle" x="1298" y="-277.4" font-family="Helvetica,sans-Serif" font-size="14.00">orgNativeName</text>
</a>
</g>
<!-- Country -->
<g id="node54" class="node"><title>Country</title>
<a xlink:href="./#Country" xlink:title="Country">
<ellipse fill="none" stroke="gray" cx="714" cy="-282" rx="45.1145" ry="18"/>
<text text-anchor="middle" x="714" y="-277.4" font-family="Helvetica,sans-Serif" font-size="14.00" fill="gray">Country</text>
</a>
</g>
<!-- Organisation&#45;&gt;Country -->
<g id="edge64" class="edge"><title>Organisation&#45;&gt;Country</title>
<a xlink:href="./#locatedInCountry" xlink:title="locatedInCountry">
<path fill="none" stroke="darkslategray" d="M919.069,-197.397C836.584,-202.388 703.06,-212.998 688,-230 681.032,-237.867 684.033,-247.937 690.047,-257.117"/>
<polygon fill="darkslategray" stroke="darkslategray" points="687.37,-259.379 696.218,-265.208 692.936,-255.134 687.37,-259.379"/>
</a>
<a xlink:href="./#locatedInCountry" xlink:title="locatedInCountry">
<text text-anchor="middle" x="744" y="-233.4" font-family="Helvetica,sans-Serif" font-size="14.00">locatedInCountry</text>
</a>
</g>
<!-- Organisation&#45;&gt;Country -->
<g id="edge84" class="edge"><title>Organisation&#45;&gt;Country</title>
<a xlink:href="./#representedCountry" xlink:title="representedCountry">
<path fill="none" stroke="darkslategray" d="M925.1,-202.317C894.462,-207.881 856.857,-216.681 825,-230 812.829,-235.088 811.684,-239.875 800,-246 786.256,-253.206 770.744,-260.063 756.717,-265.823"/>
<polygon fill="darkslategray" stroke="darkslategray" points="755.249,-262.641 747.282,-269.626 757.866,-269.134 755.249,-262.641"/>
</a>
<a xlink:href="./#representedCountry" xlink:title="representedCountry">
<text text-anchor="middle" x="890" y="-233.4" font-family="Helvetica,sans-Serif" font-size="14.00">representedCountry</text>
</a>
</g>
<!-- http://xmlns.com/foaf/0.1/Document -->
<g id="node63" class="node"><title>http://xmlns.com/foaf/0.1/Document</title>
<a xlink:href="./#http://xmlns.com/foaf/0.1/Document" xlink:title="http://xmlns.com/foaf/0.1/Document">
<ellipse fill="none" stroke="gray" cx="941" cy="-282" rx="163.851" ry="18"/>
<text text-anchor="middle" x="941" y="-277.4" font-family="Helvetica,sans-Serif" font-size="14.00" fill="gray">http://xmlns.com/foaf/0.1/Document</text>
</a>
</g>
<!-- Organisation&#45;&gt;http://xmlns.com/foaf/0.1/Document -->
<g id="edge78" class="edge"><title>Organisation&#45;&gt;http://xmlns.com/foaf/0.1/Document</title>
<a xlink:href="./#organisationHomepage" xlink:title="organisationHomepage">
<path fill="none" stroke="darkslategray" d="M975.09,-212.234C969.094,-224.505 961.081,-240.904 954.33,-254.72"/>
<polygon fill="darkslategray" stroke="darkslategray" points="951.144,-253.268 949.898,-263.79 957.433,-256.342 951.144,-253.268"/>
</a>
<a xlink:href="./#organisationHomepage" xlink:title="organisationHomepage">
<text text-anchor="middle" x="1042.5" y="-233.4" font-family="Helvetica,sans-Serif" font-size="14.00">organisationHomepage</text>
</a>
</g>
<!-- Cluster&#45;&gt;Activity -->
<g id="edge38" class="edge"><title>Cluster&#45;&gt;Activity</title>
<a xlink:href="./#coordinates" xlink:title="coordinates">
<path fill="none" stroke="darkslategray" d="M1412.61,-264.545C1429.5,-242.045 1461.26,-202.655 1495,-176 1495.52,-175.587 1550.47,-145.811 1588.47,-125.231"/>
<polygon fill="darkslategray" stroke="darkslategray" points="1590.6,-128.06 1597.73,-120.221 1587.27,-121.904 1590.6,-128.06"/>
</a>
<a xlink:href="./#coordinates" xlink:title="coordinates">
<text text-anchor="middle" x="1533.5" y="-189.4" font-family="Helvetica,sans-Serif" font-size="14.00">coordinates</text>
</a>
</g>
<!-- Sector -->
<g id="node27" class="node"><title>Sector</title>
<a xlink:href="./#Sector" xlink:title="Sector">
<ellipse fill="none" stroke="black" cx="1316" cy="-370" rx="40.92" ry="18"/>
<text text-anchor="middle" x="1316" y="-365.4" font-family="Helvetica,sans-Serif" font-size="14.00">Sector</text>
</a>
</g>
<!-- Cluster&#45;&gt;Sector -->
<g id="edge40" class="edge"><title>Cluster&#45;&gt;Sector</title>
<a xlink:href="./#covers" xlink:title="covers">
<path fill="none" stroke="darkslategray" d="M1365.86,-292.622C1345.66,-299.663 1322.9,-309.193 1317,-318 1312.41,-324.856 1310.96,-333.446 1311.01,-341.657"/>
<polygon fill="darkslategray" stroke="darkslategray" points="1307.52,-341.976 1311.74,-351.696 1314.51,-341.469 1307.52,-341.976"/>
</a>
<a xlink:href="./#covers" xlink:title="covers">
<text text-anchor="middle" x="1338.5" y="-321.4" font-family="Helvetica,sans-Serif" font-size="14.00">covers</text>
</a>
</g>
<!-- Cluster&#45;&gt;http://www.w3.org/2000/01/rdf&#45;schema#Literal -->
<g id="edge36" class="edge"><title>Cluster&#45;&gt;http://www.w3.org/2000/01/rdf&#45;schema#Literal</title>
<a xlink:href="./#clusterName" xlink:title="clusterName">
<path fill="none" stroke="darkslategray" d="M1386.53,-299.525C1379.87,-310.453 1374.83,-324.243 1383,-334 1390.56,-343.029 1407.69,-349.795 1428.95,-354.866"/>
<polygon fill="darkslategray" stroke="darkslategray" points="1428.46,-358.343 1438.98,-357.078 1429.97,-351.507 1428.46,-358.343"/>
</a>
<a xlink:href="./#clusterName" xlink:title="clusterName">
<text text-anchor="middle" x="1424" y="-321.4" font-family="Helvetica,sans-Serif" font-size="14.00">clusterName</text>
</a>
</g>
<!-- GovernmentOrganisation -->
<g id="node6" class="node"><title>GovernmentOrganisation</title>
<a xlink:href="./#GovernmentOrganisation" xlink:title="GovernmentOrganisation">
<ellipse fill="none" stroke="black" cx="342" cy="-106" rx="120.077" ry="18"/>
<text text-anchor="middle" x="342" y="-101.4" font-family="Helvetica,sans-Serif" font-size="14.00">GovernmentOrganisation</text>
</a>
</g>
<!-- GovernmentOrganisation&#45;&gt;Organisation -->
<g id="edge4" class="edge"><title>GovernmentOrganisation&#45;&gt;Organisation</title>
<path fill="none" stroke="red" stroke-dasharray="5,2" d="M429.775,-118.284C443.57,-120.204 457.672,-122.161 471,-124 629.671,-145.896 816.005,-171.225 914.613,-184.6"/>
<polygon fill="red" stroke="red" points="914.368,-188.098 924.747,-185.974 915.308,-181.162 914.368,-188.098"/>
</g>
<!-- ImpactPlanned -->
<g id="node8" class="node"><title>ImpactPlanned</title>
<a xlink:href="./#ImpactPlanned" xlink:title="ImpactPlanned">
<ellipse fill="none" stroke="black" cx="2256" cy="-194" rx="75.8027" ry="18"/>
<text text-anchor="middle" x="2256" y="-189.4" font-family="Helvetica,sans-Serif" font-size="14.00">ImpactPlanned</text>
</a>
</g>
<!-- ImpactPlanned&#45;&gt;Objective -->
<g id="edge6" class="edge"><title>ImpactPlanned&#45;&gt;Objective</title>
<path fill="none" stroke="red" stroke-dasharray="5,2" d="M2226.49,-210.634C2206.64,-221.465 2179.67,-235.484 2155,-246 2136.9,-253.714 2116.54,-261 2098.6,-266.974"/>
<polygon fill="red" stroke="red" points="2097.32,-263.71 2088.91,-270.152 2099.5,-270.361 2097.32,-263.71"/>
</g>
<!-- Objective&#45;&gt;http://www.w3.org/2000/01/rdf&#45;schema#Literal -->
<g id="edge70" class="edge"><title>Objective&#45;&gt;http://www.w3.org/2000/01/rdf&#45;schema#Literal</title>
<a xlink:href="./#objectiveDescription" xlink:title="objectiveDescription">
<path fill="none" stroke="darkslategray" d="M2008.55,-292.543C1963.37,-303.798 1888.87,-321.671 1824,-334 1786.35,-341.157 1745.14,-347.789 1707.7,-353.36"/>
<polygon fill="darkslategray" stroke="darkslategray" points="1707.15,-349.905 1697.76,-354.828 1708.17,-356.83 1707.15,-349.905"/>
</a>
<a xlink:href="./#objectiveDescription" xlink:title="objectiveDescription">
<text text-anchor="middle" x="1963" y="-321.4" font-family="Helvetica,sans-Serif" font-size="14.00">objectiveDescription</text>
</a>
</g>
<!-- InterGovernmentalOrganisation -->
<g id="node11" class="node"><title>InterGovernmentalOrganisation</title>
<a xlink:href="./#InterGovernmentalOrganisation" xlink:title="InterGovernmentalOrganisation">
<ellipse fill="none" stroke="black" cx="627" cy="-106" rx="147.08" ry="18"/>
<text text-anchor="middle" x="627" y="-101.4" font-family="Helvetica,sans-Serif" font-size="14.00">InterGovernmentalOrganisation</text>
</a>
</g>
<!-- InterGovernmentalOrganisation&#45;&gt;Organisation -->
<g id="edge8" class="edge"><title>InterGovernmentalOrganisation&#45;&gt;Organisation</title>
<path fill="none" stroke="red" stroke-dasharray="5,2" d="M692.479,-122.141C758.973,-138.531 861.011,-163.683 925.052,-179.469"/>
<polygon fill="red" stroke="red" points="924.445,-182.925 934.993,-181.92 926.121,-176.128 924.445,-182.925"/>
</g>
<!-- NGO -->
<g id="node13" class="node"><title>NGO</title>
<a xlink:href="./#NGO" xlink:title="NGO">
<ellipse fill="none" stroke="black" cx="824" cy="-106" rx="32.1994" ry="18"/>
<text text-anchor="middle" x="824" y="-101.4" font-family="Helvetica,sans-Serif" font-size="14.00">NGO</text>
</a>
</g>
<!-- NGO&#45;&gt;Organisation -->
<g id="edge10" class="edge"><title>NGO&#45;&gt;Organisation</title>
<path fill="none" stroke="red" stroke-dasharray="5,2" d="M846.924,-118.608C872.609,-132.735 914.673,-155.87 945.44,-172.792"/>
<polygon fill="red" stroke="red" points="944.146,-176.075 954.595,-177.827 947.52,-169.941 944.146,-176.075"/>
</g>
<!-- OutcomePlanned -->
<g id="node17" class="node"><title>OutcomePlanned</title>
<a xlink:href="./#OutcomePlanned" xlink:title="OutcomePlanned">
<ellipse fill="none" stroke="black" cx="1738" cy="-194" rx="86.0356" ry="18"/>
<text text-anchor="middle" x="1738" y="-189.4" font-family="Helvetica,sans-Serif" font-size="14.00">OutcomePlanned</text>
</a>
</g>
<!-- OutcomePlanned&#45;&gt;Objective -->
<g id="edge14" class="edge"><title>OutcomePlanned&#45;&gt;Objective</title>
<path fill="none" stroke="red" stroke-dasharray="5,2" d="M1777.67,-210.157C1791.53,-216.077 1807.1,-223.038 1821,-230 1833.82,-236.417 1835.53,-241.11 1849,-246 1874.72,-255.336 1942.51,-266.502 1992.27,-273.897"/>
<polygon fill="red" stroke="red" points="1991.88,-277.377 2002.28,-275.37 1992.9,-270.452 1991.88,-277.377"/>
</g>
<!-- OutcomePlanned&#45;&gt;http://www.w3.org/2000/01/rdf&#45;schema#Literal -->
<g id="edge80" class="edge"><title>OutcomePlanned&#45;&gt;http://www.w3.org/2000/01/rdf&#45;schema#Literal</title>
<a xlink:href="./#outcomeToDate" xlink:title="outcomeToDate">
<path fill="none" stroke="darkslategray" d="M1776.26,-210.353C1791.47,-219.414 1803.73,-231.731 1796,-246 1767.49,-298.622 1706.47,-330.877 1657.35,-349.247"/>
<polygon fill="darkslategray" stroke="darkslategray" points="1655.91,-346.045 1647.7,-352.737 1658.29,-352.628 1655.91,-346.045"/>
</a>
<a xlink:href="./#outcomeToDate" xlink:title="outcomeToDate">
<text text-anchor="middle" x="1837.5" y="-277.4" font-family="Helvetica,sans-Serif" font-size="14.00">outcomeToDate</text>
</a>
</g>
<!-- OutputPlanned -->
<g id="node19" class="node"><title>OutputPlanned</title>
<a xlink:href="./#OutputPlanned" xlink:title="OutputPlanned">
<ellipse fill="none" stroke="black" cx="2426" cy="-194" rx="75.8027" ry="18"/>
<text text-anchor="middle" x="2426" y="-189.4" font-family="Helvetica,sans-Serif" font-size="14.00">OutputPlanned</text>
</a>
</g>
<!-- OutputPlanned&#45;&gt;Objective -->
<g id="edge16" class="edge"><title>OutputPlanned&#45;&gt;Objective</title>
<path fill="none" stroke="red" stroke-dasharray="5,2" d="M2371.73,-206.702C2299.81,-223.533 2173.77,-253.032 2102.67,-269.672"/>
<polygon fill="red" stroke="red" points="2101.53,-266.344 2092.59,-272.031 2103.13,-273.16 2101.53,-266.344"/>
</g>
<!-- OutputPlanned&#45;&gt;http://www.w3.org/2000/01/rdf&#45;schema#Literal -->
<g id="edge82" class="edge"><title>OutputPlanned&#45;&gt;http://www.w3.org/2000/01/rdf&#45;schema#Literal</title>
<a xlink:href="./#outputToDate" xlink:title="outputToDate">
<path fill="none" stroke="darkslategray" d="M2390.79,-210.051C2322.97,-240.16 2168.82,-304.71 2032,-334 1983.38,-344.409 1871.98,-353.394 1772.57,-359.783"/>
<polygon fill="darkslategray" stroke="darkslategray" points="1772.13,-356.304 1762.37,-360.433 1772.57,-363.29 1772.13,-356.304"/>
</a>
<a xlink:href="./#outputToDate" xlink:title="outputToDate">
<text text-anchor="middle" x="2299.5" y="-277.4" font-family="Helvetica,sans-Serif" font-size="14.00">outputToDate</text>
</a>
</g>
<!-- PrivateOrganisation -->
<g id="node22" class="node"><title>PrivateOrganisation</title>
<a xlink:href="./#PrivateOrganisation" xlink:title="PrivateOrganisation">
<ellipse fill="none" stroke="black" cx="972" cy="-106" rx="97.9398" ry="18"/>
<text text-anchor="middle" x="972" y="-101.4" font-family="Helvetica,sans-Serif" font-size="14.00">PrivateOrganisation</text>
</a>
</g>
<!-- PrivateOrganisation&#45;&gt;Organisation -->
<g id="edge18" class="edge"><title>PrivateOrganisation&#45;&gt;Organisation</title>
<path fill="none" stroke="red" stroke-dasharray="5,2" d="M974.486,-124.234C976.111,-136.151 978.267,-151.962 980.116,-165.518"/>
<polygon fill="red" stroke="red" points="976.698,-166.354 981.517,-175.79 983.633,-165.408 976.698,-166.354"/>
</g>
<!-- RedCrossRedCrescent -->
<g id="node24" class="node"><title>RedCrossRedCrescent</title>
<a xlink:href="./#RedCrossRedCrescent" xlink:title="RedCrossRedCrescent">
<ellipse fill="none" stroke="black" cx="1200" cy="-106" rx="112.027" ry="18"/>
<text text-anchor="middle" x="1200" y="-101.4" font-family="Helvetica,sans-Serif" font-size="14.00">RedCrossRedCrescent</text>
</a>
</g>
<!-- RedCrossRedCrescent&#45;&gt;Organisation -->
<g id="edge20" class="edge"><title>RedCrossRedCrescent&#45;&gt;Organisation</title>
<path fill="none" stroke="red" stroke-dasharray="5,2" d="M1117.73,-118.267C1070.96,-125.838 1019.94,-135.342 1011,-142 1002.85,-148.068 996.951,-157.316 992.786,-166.339"/>
<polygon fill="red" stroke="red" points="989.431,-165.298 988.922,-175.881 995.919,-167.925 989.431,-165.298"/>
</g>
<!-- Response -->
<g id="node26" class="node"><title>Response</title>
<a xlink:href="./#Response" xlink:title="Response">
<ellipse fill="none" stroke="black" cx="2741" cy="-18" rx="53.1641" ry="18"/>
<text text-anchor="middle" x="2741" y="-13.4" font-family="Helvetica,sans-Serif" font-size="14.00">Response</text>
</a>
</g>
<!-- Response&#45;&gt;Activity -->
<g id="edge52" class="edge"><title>Response&#45;&gt;Activity</title>
<a xlink:href="./#hasPart" xlink:title="hasPart">
<path fill="none" stroke="darkslategray" d="M2689.36,-22.0679C2502.5,-36.7895 1862.69,-87.1953 1675.71,-101.926"/>
<polygon fill="darkslategray" stroke="darkslategray" points="1675.29,-98.4484 1665.6,-102.723 1675.84,-105.427 1675.29,-98.4484"/>
</a>
<a xlink:href="./#hasPart" xlink:title="hasPart">
<text text-anchor="middle" x="2308" y="-57.4" font-family="Helvetica,sans-Serif" font-size="14.00">hasPart</text>
</a>
</g>
<!-- Response&#45;&gt;Need -->
<g id="edge30" class="edge"><title>Response&#45;&gt;Need</title>
<a xlink:href="./#addresses" xlink:title="addresses">
<path fill="none" stroke="darkslategray" d="M2740.6,-36.3531C2739.7,-63.327 2736.73,-115.122 2727,-158 2726.35,-160.855 2725.54,-163.794 2724.65,-166.704"/>
<polygon fill="darkslategray" stroke="darkslategray" points="2721.28,-165.72 2721.37,-176.315 2727.91,-167.979 2721.28,-165.72"/>
</a>
<a xlink:href="./#addresses" xlink:title="addresses">
<text text-anchor="middle" x="2770.5" y="-101.4" font-family="Helvetica,sans-Serif" font-size="14.00">addresses</text>
</a>
</g>
<!-- Emergency -->
<g id="node42" class="node"><title>Emergency</title>
<a xlink:href="./#Emergency" xlink:title="Emergency">
<ellipse fill="none" stroke="gray" cx="2886" cy="-106" rx="59.8749" ry="18"/>
<text text-anchor="middle" x="2886" y="-101.4" font-family="Helvetica,sans-Serif" font-size="14.00" fill="gray">Emergency</text>
</a>
</g>
<!-- Response&#45;&gt;Emergency -->
<g id="edge42" class="edge"><title>Response&#45;&gt;Emergency</title>
<a xlink:href="./#forEmergency" xlink:title="forEmergency">
<path fill="none" stroke="darkslategray" d="M2766.92,-33.7326C2790.24,-47.8841 2824.71,-68.8007 2850.56,-84.4946"/>
<polygon fill="darkslategray" stroke="darkslategray" points="2848.96,-87.612 2859.32,-89.8082 2852.59,-81.6278 2848.96,-87.612"/>
</a>
<a xlink:href="./#forEmergency" xlink:title="forEmergency">
<text text-anchor="middle" x="2872.5" y="-57.4" font-family="Helvetica,sans-Serif" font-size="14.00">forEmergency</text>
</a>
</g>
<!-- UNAgency -->
<g id="node29" class="node"><title>UNAgency</title>
<a xlink:href="./#UNAgency" xlink:title="UNAgency">
<ellipse fill="none" stroke="black" cx="1386" cy="-106" rx="55.8503" ry="18"/>
<text text-anchor="middle" x="1386" y="-101.4" font-family="Helvetica,sans-Serif" font-size="14.00">UNAgency</text>
</a>
</g>
<!-- UNAgency&#45;&gt;Organisation -->
<g id="edge22" class="edge"><title>UNAgency&#45;&gt;Organisation</title>
<path fill="none" stroke="red" stroke-dasharray="5,2" d="M1345.72,-118.546C1337.61,-120.679 1329.08,-122.641 1321,-124 1258.42,-134.524 1093.83,-115.878 1036,-142 1023.15,-147.805 1011.7,-158.283 1002.85,-168.32"/>
<polygon fill="red" stroke="red" points="1000.02,-166.249 996.321,-176.177 1005.4,-170.721 1000.02,-166.249"/>
</g>
<!-- Indicator -->
<g id="node56" class="node"><title>Indicator</title>
<a xlink:href="./#Indicator" xlink:title="Indicator">
<ellipse fill="none" stroke="gray" cx="2113" cy="-194" rx="49.1393" ry="18"/>
<text text-anchor="middle" x="2113" y="-189.4" font-family="Helvetica,sans-Serif" font-size="14.00" fill="gray">Indicator</text>
</a>
</g>
<!-- Indicator&#45;&gt;Objective -->
<g id="edge66" class="edge"><title>Indicator&#45;&gt;Objective</title>
<a xlink:href="./#measures" xlink:title="measures">
<path fill="none" stroke="darkslategray" d="M2100.25,-211.808C2091.14,-224.535 2078.74,-241.858 2068.53,-256.11"/>
<polygon fill="darkslategray" stroke="darkslategray" points="2065.49,-254.35 2062.52,-264.519 2071.18,-258.425 2065.49,-254.35"/>
</a>
<a xlink:href="./#measures" xlink:title="measures">
<text text-anchor="middle" x="2119" y="-233.4" font-family="Helvetica,sans-Serif" font-size="14.00">measures</text>
</a>
</g>
</g>
</svg>
