<?xml version="1.0" encoding="UTF-8" standalone="no"?>
<!DOCTYPE svg PUBLIC "-//W3C//DTD SVG 1.1//EN"
 "http://www.w3.org/Graphics/SVG/1.1/DTD/svg11.dtd">
<!-- Generated by graphviz version 2.26.3 (20100126.1600)
 -->
<!-- Title: _anonymous_0 Pages: 1 -->
<svg width="2059pt" height="294pt"
 viewBox="0.00 0.00 2059.00 294.00" xmlns="http://www.w3.org/2000/svg" xmlns:xlink="http://www.w3.org/1999/xlink">
<g id="graph1" class="graph" transform="scale(1 1) rotate(0) translate(4 290)">
<title>_anonymous_0</title>
<polygon fill="white" stroke="white" points="-4,5 -4,-290 2056,-290 2056,5 -4,5"/>
<!-- Bladder -->
<g id="node1" class="node"><title>Bladder</title>
<a xlink:href="./#Bladder" xlink:title="Bladder">
<ellipse fill="none" stroke="black" cx="45" cy="-180" rx="44.945" ry="18"/>
<text text-anchor="middle" x="45" y="-175.4" font-family="Helvetica,sans-Serif" font-size="14.00">Bladder</text>
</a>
</g>
<!-- NonFoodItem -->
<g id="node3" class="node"><title>NonFoodItem</title>
<a xlink:href="./#NonFoodItem" xlink:title="NonFoodItem">
<ellipse fill="none" stroke="black" cx="1137" cy="-268" rx="69.9366" ry="18"/>
<text text-anchor="middle" x="1137" y="-263.4" font-family="Helvetica,sans-Serif" font-size="14.00">NonFoodItem</text>
</a>
</g>
<!-- Bladder&#45;&gt;NonFoodItem -->
<g id="edge2" class="edge"><title>Bladder&#45;&gt;NonFoodItem</title>
<path fill="none" stroke="red" stroke-dasharray="5,2" d="M78.7763,-192.058C85.4306,-194.206 92.3971,-196.298 99,-198 179.531,-218.755 200.363,-222.67 283,-232 431.431,-248.758 874.547,-261.422 1057.07,-266.068"/>
<polygon fill="red" stroke="red" points="1057.06,-269.569 1067.14,-266.323 1057.23,-262.571 1057.06,-269.569"/>
</g>
<!-- Blanket -->
<g id="node4" class="node"><title>Blanket</title>
<a xlink:href="./#Blanket" xlink:title="Blanket">
<ellipse fill="none" stroke="black" cx="151" cy="-180" rx="43.1021" ry="18"/>
<text text-anchor="middle" x="151" y="-175.4" font-family="Helvetica,sans-Serif" font-size="14.00">Blanket</text>
</a>
</g>
<!-- Blanket&#45;&gt;NonFoodItem -->
<g id="edge4" class="edge"><title>Blanket&#45;&gt;NonFoodItem</title>
<path fill="none" stroke="red" stroke-dasharray="5,2" d="M183.182,-192.154C189.679,-194.32 196.508,-196.393 203,-198 299.894,-221.98 325.694,-221.911 425,-232 653.617,-255.226 925.126,-263.698 1057.06,-266.6"/>
<polygon fill="red" stroke="red" points="1057.02,-270.1 1067.09,-266.816 1057.17,-263.102 1057.02,-270.1"/>
</g>
<!-- Bucket -->
<g id="node6" class="node"><title>Bucket</title>
<a xlink:href="./#Bucket" xlink:title="Bucket">
<ellipse fill="none" stroke="black" cx="184" cy="-92" rx="40.92" ry="18"/>
<text text-anchor="middle" x="184" y="-87.4" font-family="Helvetica,sans-Serif" font-size="14.00">Bucket</text>
</a>
</g>
<!-- BucketJerryCan -->
<g id="node8" class="node"><title>BucketJerryCan</title>
<a xlink:href="./#BucketJerryCan" xlink:title="BucketJerryCan">
<ellipse fill="none" stroke="black" cx="292" cy="-180" rx="79.9985" ry="18"/>
<text text-anchor="middle" x="292" y="-175.4" font-family="Helvetica,sans-Serif" font-size="14.00">BucketJerryCan</text>
</a>
</g>
<!-- Bucket&#45;&gt;BucketJerryCan -->
<g id="edge6" class="edge"><title>Bucket&#45;&gt;BucketJerryCan</title>
<path fill="none" stroke="red" stroke-dasharray="5,2" d="M203.558,-107.936C219.973,-121.311 243.675,-140.624 262.411,-155.89"/>
<polygon fill="red" stroke="red" points="260.399,-158.766 270.363,-162.37 264.821,-153.339 260.399,-158.766"/>
</g>
<!-- BucketJerryCan&#45;&gt;NonFoodItem -->
<g id="edge8" class="edge"><title>BucketJerryCan&#45;&gt;NonFoodItem</title>
<path fill="none" stroke="red" stroke-dasharray="5,2" d="M340.143,-194.424C382.99,-206.618 447.587,-223.43 505,-232 609.224,-247.557 911.955,-260.008 1057.3,-265.277"/>
<polygon fill="red" stroke="red" points="1057.37,-268.781 1067.49,-265.644 1057.62,-261.786 1057.37,-268.781"/>
</g>
<!-- CommunityToolKit -->
<g id="node10" class="node"><title>CommunityToolKit</title>
<a xlink:href="./#CommunityToolKit" xlink:title="CommunityToolKit">
<ellipse fill="none" stroke="black" cx="1577" cy="-18" rx="91.2316" ry="18"/>
<text text-anchor="middle" x="1577" y="-13.4" font-family="Helvetica,sans-Serif" font-size="14.00">CommunityToolKit</text>
</a>
</g>
<!-- ToolKit -->
<g id="node12" class="node"><title>ToolKit</title>
<a xlink:href="./#ToolKit" xlink:title="ToolKit">
<ellipse fill="none" stroke="black" cx="1667" cy="-92" rx="41.7645" ry="18"/>
<text text-anchor="middle" x="1667" y="-87.4" font-family="Helvetica,sans-Serif" font-size="14.00">ToolKit</text>
</a>
</g>
<!-- CommunityToolKit&#45;&gt;ToolKit -->
<g id="edge10" class="edge"><title>CommunityToolKit&#45;&gt;ToolKit</title>
<path fill="none" stroke="red" stroke-dasharray="5,2" d="M1598.33,-35.537C1610.64,-45.6596 1626.26,-58.4994 1639.48,-69.3763"/>
<polygon fill="red" stroke="red" points="1637.41,-72.2057 1647.36,-75.8533 1641.86,-66.7987 1637.41,-72.2057"/>
</g>
<!-- Kit -->
<g id="node24" class="node"><title>Kit</title>
<a xlink:href="./#Kit" xlink:title="Kit">
<ellipse fill="none" stroke="black" cx="1667" cy="-180" rx="27" ry="18"/>
<text text-anchor="middle" x="1667" y="-175.4" font-family="Helvetica,sans-Serif" font-size="14.00">Kit</text>
</a>
</g>
<!-- ToolKit&#45;&gt;Kit -->
<g id="edge44" class="edge"><title>ToolKit&#45;&gt;Kit</title>
<path fill="none" stroke="red" stroke-dasharray="5,2" d="M1667,-110.234C1667,-122.151 1667,-137.962 1667,-151.518"/>
<polygon fill="red" stroke="red" points="1663.5,-151.79 1667,-161.79 1670.5,-151.79 1663.5,-151.79"/>
</g>
<!-- Cot -->
<g id="node13" class="node"><title>Cot</title>
<a xlink:href="./#Cot" xlink:title="Cot">
<ellipse fill="none" stroke="black" cx="417" cy="-180" rx="27.0036" ry="18"/>
<text text-anchor="middle" x="417" y="-175.4" font-family="Helvetica,sans-Serif" font-size="14.00">Cot</text>
</a>
</g>
<!-- Cot&#45;&gt;NonFoodItem -->
<g id="edge12" class="edge"><title>Cot&#45;&gt;NonFoodItem</title>
<path fill="none" stroke="red" stroke-dasharray="5,2" d="M437.978,-191.45C442.823,-193.823 448.019,-196.157 453,-198 511.435,-219.616 527.445,-222.364 589,-232 676.93,-245.765 928.058,-258.6 1057.59,-264.54"/>
<polygon fill="red" stroke="red" points="1057.69,-268.048 1067.84,-265.007 1058.01,-261.055 1057.69,-268.048"/>
</g>
<!-- DistributingPartner -->
<g id="node15" class="node"><title>DistributingPartner</title>
<a xlink:href="./#DistributingPartner" xlink:title="DistributingPartner">
<ellipse fill="none" stroke="black" cx="1245" cy="-92" rx="92.0728" ry="18"/>
<text text-anchor="middle" x="1245" y="-87.4" font-family="Helvetica,sans-Serif" font-size="14.00">DistributingPartner</text>
</a>
</g>
<!-- DistributingPartner&#45;&gt;NonFoodItem -->
<g id="edge50" class="edge"><title>DistributingPartner&#45;&gt;NonFoodItem</title>
<a xlink:href="./#distributes" xlink:title="distributes">
<path fill="none" stroke="darkslategray" d="M1160.52,-99.1573C1036.09,-110.564 815.648,-134.417 792,-162 781.586,-174.147 781.873,-185.612 792,-198 824.996,-238.363 967.235,-256.017 1058.46,-263.303"/>
<polygon fill="darkslategray" stroke="darkslategray" points="1058.25,-266.798 1068.49,-264.08 1058.79,-259.819 1058.25,-266.798"/>
</a>
<a xlink:href="./#distributes" xlink:title="distributes">
<text text-anchor="middle" x="825.5" y="-175.4" font-family="Helvetica,sans-Serif" font-size="14.00">distributes</text>
</a>
</g>
<!-- DistributingPartner&#45;&gt;Kit -->
<g id="edge52" class="edge"><title>DistributingPartner&#45;&gt;Kit</title>
<a xlink:href="./#distributes" xlink:title="distributes">
<path fill="none" stroke="darkslategray" d="M1312.11,-104.414C1369.65,-115.026 1454.75,-130.651 1529,-144 1574.31,-152.145 1587.29,-147.556 1631,-162 1632.89,-162.625 1634.81,-163.334 1636.72,-164.1"/>
<polygon fill="darkslategray" stroke="darkslategray" points="1635.55,-167.413 1646.11,-168.289 1638.41,-161.02 1635.55,-167.413"/>
</a>
<a xlink:href="./#distributes" xlink:title="distributes">
<text text-anchor="middle" x="1562.5" y="-131.4" font-family="Helvetica,sans-Serif" font-size="14.00">distributes</text>
</a>
</g>
<!-- Distribution -->
<g id="node16" class="node"><title>Distribution</title>
<a xlink:href="./#Distribution" xlink:title="Distribution">
<ellipse fill="none" stroke="black" cx="692" cy="-92" rx="59.2013" ry="18"/>
<text text-anchor="middle" x="692" y="-87.4" font-family="Helvetica,sans-Serif" font-size="14.00">Distribution</text>
</a>
</g>
<!-- Distribution&#45;&gt;NonFoodItem -->
<g id="edge54" class="edge"><title>Distribution&#45;&gt;NonFoodItem</title>
<a xlink:href="./#provides" xlink:title="provides">
<path fill="none" stroke="darkslategray" d="M693.142,-110.117C695.541,-133.332 702.972,-173.494 726,-198 769.996,-244.82 950.613,-260.366 1057.21,-265.498"/>
<polygon fill="darkslategray" stroke="darkslategray" points="1057.14,-268.998 1067.29,-265.963 1057.46,-262.006 1057.14,-268.998"/>
</a>
<a xlink:href="./#provides" xlink:title="provides">
<text text-anchor="middle" x="753.5" y="-175.4" font-family="Helvetica,sans-Serif" font-size="14.00">provides</text>
</a>
</g>
<!-- Distribution&#45;&gt;Kit -->
<g id="edge56" class="edge"><title>Distribution&#45;&gt;Kit</title>
<a xlink:href="./#provides" xlink:title="provides">
<path fill="none" stroke="darkslategray" d="M749.495,-96.3505C868.231,-105.327 1149.17,-126.524 1385,-144 1494.33,-152.101 1525.3,-132.934 1631,-162 1633.13,-162.587 1635.29,-163.305 1637.44,-164.111"/>
<polygon fill="darkslategray" stroke="darkslategray" points="1636.04,-167.323 1646.61,-168.091 1638.83,-160.901 1636.04,-167.323"/>
</a>
<a xlink:href="./#provides" xlink:title="provides">
<text text-anchor="middle" x="1412.5" y="-131.4" font-family="Helvetica,sans-Serif" font-size="14.00">provides</text>
</a>
</g>
<!-- Population -->
<g id="node57" class="node"><title>Population</title>
<a xlink:href="./#Population" xlink:title="Population">
<ellipse fill="none" stroke="gray" cx="599" cy="-180" rx="57.0197" ry="18"/>
<text text-anchor="middle" x="599" y="-175.4" font-family="Helvetica,sans-Serif" font-size="14.00" fill="gray">Population</text>
</a>
</g>
<!-- Distribution&#45;&gt;Population -->
<g id="edge58" class="edge"><title>Distribution&#45;&gt;Population</title>
<a xlink:href="./#reaches" xlink:title="reaches">
<path fill="none" stroke="darkslategray" d="M656.476,-106.475C645.766,-112.055 634.586,-119.236 626,-128 619.172,-134.968 613.671,-144.014 609.461,-152.602"/>
<polygon fill="darkslategray" stroke="darkslategray" points="606.158,-151.413 605.253,-161.969 612.543,-154.281 606.158,-151.413"/>
</a>
<a xlink:href="./#reaches" xlink:title="reaches">
<text text-anchor="middle" x="652" y="-131.4" font-family="Helvetica,sans-Serif" font-size="14.00">reaches</text>
</a>
</g>
<!-- FamilyTent -->
<g id="node17" class="node"><title>FamilyTent</title>
<a xlink:href="./#FamilyTent" xlink:title="FamilyTent">
<ellipse fill="none" stroke="black" cx="555" cy="-92" rx="59.2013" ry="18"/>
<text text-anchor="middle" x="555" y="-87.4" font-family="Helvetica,sans-Serif" font-size="14.00">FamilyTent</text>
</a>
</g>
<!-- Tent -->
<g id="node19" class="node"><title>Tent</title>
<a xlink:href="./#Tent" xlink:title="Tent">
<ellipse fill="none" stroke="black" cx="493" cy="-180" rx="31.0281" ry="18"/>
<text text-anchor="middle" x="493" y="-175.4" font-family="Helvetica,sans-Serif" font-size="14.00">Tent</text>
</a>
</g>
<!-- FamilyTent&#45;&gt;Tent -->
<g id="edge14" class="edge"><title>FamilyTent&#45;&gt;Tent</title>
<path fill="none" stroke="red" stroke-dasharray="5,2" d="M542.453,-109.808C533.37,-122.701 520.962,-140.312 510.848,-154.667"/>
<polygon fill="red" stroke="red" points="507.795,-152.923 504.897,-163.114 513.518,-156.955 507.795,-152.923"/>
</g>
<!-- Tent&#45;&gt;NonFoodItem -->
<g id="edge42" class="edge"><title>Tent&#45;&gt;NonFoodItem</title>
<path fill="none" stroke="red" stroke-dasharray="5,2" d="M516.812,-191.616C522.069,-193.925 527.663,-196.192 533,-198 595.694,-219.235 612.594,-221.827 678,-232 810.083,-252.543 965.47,-261.609 1057.35,-265.426"/>
<polygon fill="red" stroke="red" points="1057.28,-268.926 1067.41,-265.834 1057.56,-261.932 1057.28,-268.926"/>
</g>
<!-- FamilyToolKit -->
<g id="node20" class="node"><title>FamilyToolKit</title>
<a xlink:href="./#FamilyToolKit" xlink:title="FamilyToolKit">
<ellipse fill="none" stroke="black" cx="1756" cy="-18" rx="69.9366" ry="18"/>
<text text-anchor="middle" x="1756" y="-13.4" font-family="Helvetica,sans-Serif" font-size="14.00">FamilyToolKit</text>
</a>
</g>
<!-- FamilyToolKit&#45;&gt;ToolKit -->
<g id="edge16" class="edge"><title>FamilyToolKit&#45;&gt;ToolKit</title>
<path fill="none" stroke="red" stroke-dasharray="5,2" d="M1734.91,-35.537C1722.73,-45.6596 1707.29,-58.4994 1694.21,-69.3763"/>
<polygon fill="red" stroke="red" points="1691.87,-66.7686 1686.42,-75.8533 1696.35,-72.1511 1691.87,-66.7686"/>
</g>
<!-- HygieneKit -->
<g id="node22" class="node"><title>HygieneKit</title>
<a xlink:href="./#HygieneKit" xlink:title="HygieneKit">
<ellipse fill="none" stroke="black" cx="1784" cy="-92" rx="57.1889" ry="18"/>
<text text-anchor="middle" x="1784" y="-87.4" font-family="Helvetica,sans-Serif" font-size="14.00">HygieneKit</text>
</a>
</g>
<!-- HygieneKit&#45;&gt;Kit -->
<g id="edge18" class="edge"><title>HygieneKit&#45;&gt;Kit</title>
<path fill="none" stroke="red" stroke-dasharray="5,2" d="M1761.72,-108.759C1742.14,-123.486 1713.63,-144.925 1693.01,-160.433"/>
<polygon fill="red" stroke="red" points="1690.87,-157.665 1684.98,-166.473 1695.08,-163.259 1690.87,-157.665"/>
</g>
<!-- Kit&#45;&gt;NonFoodItem -->
<g id="edge48" class="edge"><title>Kit&#45;&gt;NonFoodItem</title>
<a xlink:href="./#containsItem" xlink:title="containsItem">
<path fill="none" stroke="darkslategray" d="M1646.11,-191.688C1641.26,-194.049 1636.04,-196.318 1631,-198 1555.06,-223.354 1331.2,-248.593 1212.65,-260.662"/>
<polygon fill="darkslategray" stroke="darkslategray" points="1212.15,-257.194 1202.55,-261.683 1212.86,-264.158 1212.15,-257.194"/>
</a>
<a xlink:href="./#containsItem" xlink:title="containsItem">
<text text-anchor="middle" x="1593" y="-219.4" font-family="Helvetica,sans-Serif" font-size="14.00">containsItem</text>
</a>
</g>
<!-- IndividualItem -->
<g id="node25" class="node"><title>IndividualItem</title>
<a xlink:href="./#IndividualItem" xlink:title="IndividualItem">
<ellipse fill="none" stroke="black" cx="938" cy="-180" rx="69.9366" ry="18"/>
<text text-anchor="middle" x="938" y="-175.4" font-family="Helvetica,sans-Serif" font-size="14.00">IndividualItem</text>
</a>
</g>
<!-- IndividualItem&#45;&gt;NonFoodItem -->
<g id="edge20" class="edge"><title>IndividualItem&#45;&gt;NonFoodItem</title>
<path fill="none" stroke="red" stroke-dasharray="5,2" d="M973.577,-195.733C1006.83,-210.436 1056.59,-232.444 1092.47,-248.307"/>
<polygon fill="red" stroke="red" points="1091.17,-251.56 1101.73,-252.404 1094,-245.158 1091.17,-251.56"/>
</g>
<!-- JerryCan -->
<g id="node27" class="node"><title>JerryCan</title>
<a xlink:href="./#JerryCan" xlink:title="JerryCan">
<ellipse fill="none" stroke="black" cx="294" cy="-92" rx="50.9823" ry="18"/>
<text text-anchor="middle" x="294" y="-87.4" font-family="Helvetica,sans-Serif" font-size="14.00">JerryCan</text>
</a>
</g>
<!-- JerryCan&#45;&gt;BucketJerryCan -->
<g id="edge22" class="edge"><title>JerryCan&#45;&gt;BucketJerryCan</title>
<path fill="none" stroke="red" stroke-dasharray="5,2" d="M293.586,-110.234C293.315,-122.151 292.955,-137.962 292.647,-151.518"/>
<polygon fill="red" stroke="red" points="289.142,-151.713 292.414,-161.79 296.14,-151.872 289.142,-151.713"/>
</g>
<!-- KitchenSet -->
<g id="node29" class="node"><title>KitchenSet</title>
<a xlink:href="./#KitchenSet" xlink:title="KitchenSet">
<ellipse fill="none" stroke="black" cx="1085" cy="-180" rx="59.0322" ry="18"/>
<text text-anchor="middle" x="1085" y="-175.4" font-family="Helvetica,sans-Serif" font-size="14.00">KitchenSet</text>
</a>
</g>
<!-- KitchenSet&#45;&gt;NonFoodItem -->
<g id="edge24" class="edge"><title>KitchenSet&#45;&gt;NonFoodItem</title>
<path fill="none" stroke="red" stroke-dasharray="5,2" d="M1095.52,-197.808C1102.87,-210.25 1112.82,-227.085 1121.13,-241.149"/>
<polygon fill="red" stroke="red" points="1118.21,-243.088 1126.31,-249.916 1124.24,-239.526 1118.21,-243.088"/>
</g>
<!-- LargeTent -->
<g id="node31" class="node"><title>LargeTent</title>
<a xlink:href="./#LargeTent" xlink:title="LargeTent">
<ellipse fill="none" stroke="black" cx="421" cy="-92" rx="57.0197" ry="18"/>
<text text-anchor="middle" x="421" y="-87.4" font-family="Helvetica,sans-Serif" font-size="14.00">LargeTent</text>
</a>
</g>
<!-- LargeTent&#45;&gt;Tent -->
<g id="edge26" class="edge"><title>LargeTent&#45;&gt;Tent</title>
<path fill="none" stroke="red" stroke-dasharray="5,2" d="M435.57,-109.808C446.356,-122.991 461.177,-141.105 473.061,-155.63"/>
<polygon fill="red" stroke="red" points="470.624,-158.179 479.666,-163.702 476.042,-153.746 470.624,-158.179"/>
</g>
<!-- Mat -->
<g id="node33" class="node"><title>Mat</title>
<a xlink:href="./#Mat" xlink:title="Mat">
<ellipse fill="none" stroke="black" cx="1189" cy="-180" rx="27.0036" ry="18"/>
<text text-anchor="middle" x="1189" y="-175.4" font-family="Helvetica,sans-Serif" font-size="14.00">Mat</text>
</a>
</g>
<!-- Mat&#45;&gt;NonFoodItem -->
<g id="edge28" class="edge"><title>Mat&#45;&gt;NonFoodItem</title>
<path fill="none" stroke="red" stroke-dasharray="5,2" d="M1178.97,-196.967C1171.57,-209.504 1161.33,-226.822 1152.83,-241.219"/>
<polygon fill="red" stroke="red" points="1149.6,-239.789 1147.53,-250.179 1155.63,-243.35 1149.6,-239.789"/>
</g>
<!-- MosquitoNet -->
<g id="node35" class="node"><title>MosquitoNet</title>
<a xlink:href="./#MosquitoNet" xlink:title="MosquitoNet">
<ellipse fill="none" stroke="black" cx="1299" cy="-180" rx="65.2386" ry="18"/>
<text text-anchor="middle" x="1299" y="-175.4" font-family="Helvetica,sans-Serif" font-size="14.00">MosquitoNet</text>
</a>
</g>
<!-- MosquitoNet&#45;&gt;NonFoodItem -->
<g id="edge30" class="edge"><title>MosquitoNet&#45;&gt;NonFoodItem</title>
<path fill="none" stroke="red" stroke-dasharray="5,2" d="M1269.29,-196.141C1243.08,-210.378 1204.69,-231.228 1176.02,-246.806"/>
<polygon fill="red" stroke="red" points="1174.19,-243.815 1167.07,-251.664 1177.53,-249.966 1174.19,-243.815"/>
</g>
<!-- Pole -->
<g id="node37" class="node"><title>Pole</title>
<a xlink:href="./#Pole" xlink:title="Pole">
<ellipse fill="none" stroke="black" cx="1413" cy="-180" rx="30.8577" ry="18"/>
<text text-anchor="middle" x="1413" y="-175.4" font-family="Helvetica,sans-Serif" font-size="14.00">Pole</text>
</a>
</g>
<!-- Pole&#45;&gt;NonFoodItem -->
<g id="edge32" class="edge"><title>Pole&#45;&gt;NonFoodItem</title>
<path fill="none" stroke="red" stroke-dasharray="5,2" d="M1388.68,-191.571C1383.55,-193.832 1378.14,-196.091 1373,-198 1314.09,-219.878 1245,-239.717 1196.85,-252.642"/>
<polygon fill="red" stroke="red" points="1195.67,-249.335 1186.9,-255.293 1197.47,-256.099 1195.67,-249.335"/>
</g>
<!-- Rope -->
<g id="node39" class="node"><title>Rope</title>
<a xlink:href="./#Rope" xlink:title="Rope">
<ellipse fill="none" stroke="black" cx="1496" cy="-180" rx="34.2118" ry="18"/>
<text text-anchor="middle" x="1496" y="-175.4" font-family="Helvetica,sans-Serif" font-size="14.00">Rope</text>
</a>
</g>
<!-- Rope&#45;&gt;NonFoodItem -->
<g id="edge34" class="edge"><title>Rope&#45;&gt;NonFoodItem</title>
<path fill="none" stroke="red" stroke-dasharray="5,2" d="M1469.88,-191.745C1464.37,-193.994 1458.54,-196.204 1453,-198 1369.91,-224.925 1271.23,-244.96 1206.52,-256.545"/>
<polygon fill="red" stroke="red" points="1205.67,-253.141 1196.43,-258.332 1206.89,-260.034 1205.67,-253.141"/>
</g>
<!-- Sheet -->
<g id="node41" class="node"><title>Sheet</title>
<a xlink:href="./#Sheet" xlink:title="Sheet">
<ellipse fill="none" stroke="black" cx="1585" cy="-180" rx="37.0651" ry="18"/>
<text text-anchor="middle" x="1585" y="-175.4" font-family="Helvetica,sans-Serif" font-size="14.00">Sheet</text>
</a>
</g>
<!-- Sheet&#45;&gt;NonFoodItem -->
<g id="edge36" class="edge"><title>Sheet&#45;&gt;NonFoodItem</title>
<path fill="none" stroke="red" stroke-dasharray="5,2" d="M1557.05,-191.816C1551.15,-194.059 1544.92,-196.249 1539,-198 1427.6,-230.942 1293.96,-250.404 1212.29,-260.138"/>
<polygon fill="red" stroke="red" points="1211.63,-256.692 1202.1,-261.334 1212.44,-263.644 1211.63,-256.692"/>
</g>
<!-- ShelterKit -->
<g id="node43" class="node"><title>ShelterKit</title>
<a xlink:href="./#ShelterKit" xlink:title="ShelterKit">
<ellipse fill="none" stroke="black" cx="1553" cy="-92" rx="53.838" ry="18"/>
<text text-anchor="middle" x="1553" y="-87.4" font-family="Helvetica,sans-Serif" font-size="14.00">ShelterKit</text>
</a>
</g>
<!-- ShelterKit&#45;&gt;Kit -->
<g id="edge38" class="edge"><title>ShelterKit&#45;&gt;Kit</title>
<path fill="none" stroke="red" stroke-dasharray="5,2" d="M1574.44,-108.552C1593.29,-123.103 1620.78,-144.321 1640.9,-159.854"/>
<polygon fill="red" stroke="red" points="1638.97,-162.787 1649.03,-166.127 1643.25,-157.246 1638.97,-162.787"/>
</g>
<!-- SupplyingAgency -->
<g id="node45" class="node"><title>SupplyingAgency</title>
<a xlink:href="./#SupplyingAgency" xlink:title="SupplyingAgency">
<ellipse fill="none" stroke="black" cx="1967" cy="-92" rx="83.8525" ry="18"/>
<text text-anchor="middle" x="1967" y="-87.4" font-family="Helvetica,sans-Serif" font-size="14.00">SupplyingAgency</text>
</a>
</g>
<!-- SupplyingAgency&#45;&gt;NonFoodItem -->
<g id="edge60" class="edge"><title>SupplyingAgency&#45;&gt;NonFoodItem</title>
<a xlink:href="./#supplies" xlink:title="supplies">
<path fill="none" stroke="darkslategray" d="M1972.62,-110.32C1978.56,-133.754 1984.4,-174.154 1963,-198 1913.81,-252.806 1415.2,-264.721 1217.31,-267.296"/>
<polygon fill="darkslategray" stroke="darkslategray" points="1217.22,-263.797 1207.27,-267.422 1217.31,-270.796 1217.22,-263.797"/>
</a>
<a xlink:href="./#supplies" xlink:title="supplies">
<text text-anchor="middle" x="2003.5" y="-175.4" font-family="Helvetica,sans-Serif" font-size="14.00">supplies</text>
</a>
</g>
<!-- SupplyingAgency&#45;&gt;Kit -->
<g id="edge62" class="edge"><title>SupplyingAgency&#45;&gt;Kit</title>
<a xlink:href="./#supplies" xlink:title="supplies">
<path fill="none" stroke="darkslategray" d="M1906.14,-104.418C1851.91,-116.354 1770.86,-136.347 1703,-162 1701.14,-162.704 1699.24,-163.475 1697.35,-164.288"/>
<polygon fill="darkslategray" stroke="darkslategray" points="1695.61,-161.234 1688,-168.602 1698.54,-167.59 1695.61,-161.234"/>
</a>
<a xlink:href="./#supplies" xlink:title="supplies">
<text text-anchor="middle" x="1828.5" y="-131.4" font-family="Helvetica,sans-Serif" font-size="14.00">supplies</text>
</a>
</g>
<!-- Tarpaulin -->
<g id="node46" class="node"><title>Tarpaulin</title>
<a xlink:href="./#Tarpaulin" xlink:title="Tarpaulin">
<ellipse fill="none" stroke="black" cx="1763" cy="-180" rx="51.1517" ry="18"/>
<text text-anchor="middle" x="1763" y="-175.4" font-family="Helvetica,sans-Serif" font-size="14.00">Tarpaulin</text>
</a>
</g>
<!-- Tarpaulin&#45;&gt;NonFoodItem -->
<g id="edge40" class="edge"><title>Tarpaulin&#45;&gt;NonFoodItem</title>
<path fill="none" stroke="red" stroke-dasharray="5,2" d="M1734.35,-195.181C1709.78,-207.414 1673.06,-223.869 1639,-232 1561.17,-250.58 1337.73,-261.002 1216.89,-265.428"/>
<polygon fill="red" stroke="red" points="1216.46,-261.941 1206.59,-265.8 1216.71,-268.936 1216.46,-261.941"/>
</g>
<!-- WaterFilter -->
<g id="node50" class="node"><title>WaterFilter</title>
<a xlink:href="./#WaterFilter" xlink:title="WaterFilter">
<ellipse fill="none" stroke="black" cx="1893" cy="-180" rx="61.0447" ry="18"/>
<text text-anchor="middle" x="1893" y="-175.4" font-family="Helvetica,sans-Serif" font-size="14.00">WaterFilter</text>
</a>
</g>
<!-- WaterFilter&#45;&gt;NonFoodItem -->
<g id="edge46" class="edge"><title>WaterFilter&#45;&gt;NonFoodItem</title>
<path fill="none" stroke="red" stroke-dasharray="5,2" d="M1849.8,-192.851C1806.7,-205.1 1738.39,-222.973 1678,-232 1515.6,-256.276 1323.33,-264.184 1217.29,-266.758"/>
<polygon fill="red" stroke="red" points="1216.91,-263.266 1206.99,-266.998 1217.07,-270.264 1216.91,-263.266"/>
</g>
</g>
</svg>
