<?xml version="1.0" encoding="UTF-8" standalone="no"?>
<!DOCTYPE svg PUBLIC "-//W3C//DTD SVG 1.1//EN"
 "http://www.w3.org/Graphics/SVG/1.1/DTD/svg11.dtd">
<!-- Generated by graphviz version 2.26.3 (20100126.1600)
 -->
<!-- Title: _anonymous_0 Pages: 1 -->
<svg width="2848pt" height="530pt"
 viewBox="0.00 0.00 2848.00 530.00" xmlns="http://www.w3.org/2000/svg" xmlns:xlink="http://www.w3.org/1999/xlink">
<g id="graph1" class="graph" transform="scale(1 1) rotate(0) translate(4 526)">
<title>_anonymous_0</title>
<polygon fill="white" stroke="white" points="-4,5 -4,-526 2845,-526 2845,5 -4,5"/>
<!-- AffectedPopulation -->
<g id="node1" class="node"><title>AffectedPopulation</title>
<a xlink:href="./#AffectedPopulation" xlink:title="AffectedPopulation">
<ellipse fill="none" stroke="black" cx="414" cy="-166" rx="94.7578" ry="18"/>
<text text-anchor="middle" x="414" y="-161.4" font-family="Helvetica,sans-Serif" font-size="14.00">AffectedPopulation</text>
</a>
</g>
<!-- Population -->
<g id="node3" class="node"><title>Population</title>
<a xlink:href="./#Population" xlink:title="Population">
<ellipse fill="none" stroke="black" cx="423" cy="-342" rx="57.0197" ry="18"/>
<text text-anchor="middle" x="423" y="-337.4" font-family="Helvetica,sans-Serif" font-size="14.00">Population</text>
</a>
</g>
<!-- AffectedPopulation&#45;&gt;Population -->
<g id="edge2" class="edge"><title>AffectedPopulation&#45;&gt;Population</title>
<path fill="none" stroke="red" stroke-dasharray="5,2" d="M414.196,-184.019C414.499,-205.12 415.241,-241.121 417,-272 417.786,-285.795 419.051,-301.088 420.217,-313.852"/>
<polygon fill="red" stroke="red" points="416.741,-314.262 421.161,-323.891 423.71,-313.607 416.741,-314.262"/>
</g>
<!-- Emergency -->
<g id="node12" class="node"><title>Emergency</title>
<a xlink:href="./#Emergency" xlink:title="Emergency">
<ellipse fill="none" stroke="black" cx="854" cy="-254" rx="59.8749" ry="18"/>
<text text-anchor="middle" x="854" y="-249.4" font-family="Helvetica,sans-Serif" font-size="14.00">Emergency</text>
</a>
</g>
<!-- AffectedPopulation&#45;&gt;Emergency -->
<g id="edge50" class="edge"><title>AffectedPopulation&#45;&gt;Emergency</title>
<a xlink:href="./#affectedBy" xlink:title="affectedBy">
<path fill="none" stroke="darkslategray" d="M479.397,-179.079C564.427,-196.085 711.76,-225.552 794.034,-242.007"/>
<polygon fill="darkslategray" stroke="darkslategray" points="793.488,-245.467 803.98,-243.996 794.86,-238.603 793.488,-245.467"/>
</a>
<a xlink:href="./#affectedBy" xlink:title="affectedBy">
<text text-anchor="middle" x="709.5" y="-205.4" font-family="Helvetica,sans-Serif" font-size="14.00">affectedBy</text>
</a>
</g>
<!-- http://xmlns.com/foaf/0.1/Group -->
<g id="node44" class="node"><title>http://xmlns.com/foaf/0.1/Group</title>
<a xlink:href="./#http://xmlns.com/foaf/0.1/Group" xlink:title="http://xmlns.com/foaf/0.1/Group">
<ellipse fill="none" stroke="black" cx="330" cy="-430" rx="146.239" ry="18"/>
<text text-anchor="middle" x="330" y="-425.4" font-family="Helvetica,sans-Serif" font-size="14.00">http://xmlns.com/foaf/0.1/Group</text>
</a>
</g>
<!-- Population&#45;&gt;http://xmlns.com/foaf/0.1/Group -->
<g id="edge38" class="edge"><title>Population&#45;&gt;http://xmlns.com/foaf/0.1/Group</title>
<path fill="none" stroke="red" stroke-dasharray="5,2" d="M379.549,-353.846C366.524,-359.304 353.258,-367.077 344,-378 338.327,-384.693 334.932,-393.467 332.907,-401.896"/>
<polygon fill="red" stroke="red" points="329.444,-401.373 331.056,-411.845 336.326,-402.654 329.444,-401.373"/>
</g>
<!-- http://www.w3.org/2000/01/rdf&#45;schema#Literal -->
<g id="node56" class="node"><title>http://www.w3.org/2000/01/rdf&#45;schema#Literal</title>
<a xlink:href="./#http://www.w3.org/2000/01/rdf-schema#Literal" xlink:title="http://www.w3.org/2000/01/rdf&#45;schema#Literal">
<ellipse fill="none" stroke="gray" cx="1230" cy="-430" rx="208.796" ry="18"/>
<text text-anchor="middle" x="1230" y="-425.4" font-family="Helvetica,sans-Serif" font-size="14.00" fill="gray">http://www.w3.org/2000/01/rdf&#45;schema#Literal</text>
</a>
</g>
<!-- Population&#45;&gt;http://www.w3.org/2000/01/rdf&#45;schema#Literal -->
<g id="edge58" class="edge"><title>Population&#45;&gt;http://www.w3.org/2000/01/rdf&#45;schema#Literal</title>
<a xlink:href="./#count" xlink:title="count">
<path fill="none" stroke="darkslategray" d="M388.212,-356.512C368.858,-366.558 351.051,-380.501 364,-394 375.255,-405.733 766.236,-418.037 1018.95,-424.789"/>
<polygon fill="darkslategray" stroke="darkslategray" points="1018.91,-428.29 1029,-425.057 1019.1,-421.292 1018.91,-428.29"/>
</a>
<a xlink:href="./#count" xlink:title="count">
<text text-anchor="middle" x="382.5" y="-381.4" font-family="Helvetica,sans-Serif" font-size="14.00">count</text>
</a>
</g>
<!-- Population&#45;&gt;http://www.w3.org/2000/01/rdf&#45;schema#Literal -->
<g id="edge92" class="edge"><title>Population&#45;&gt;http://www.w3.org/2000/01/rdf&#45;schema#Literal</title>
<a xlink:href="./#populationDescription" xlink:title="populationDescription">
<path fill="none" stroke="darkslategray" d="M417.756,-360.02C415.678,-371.288 415.491,-385.272 424,-394 444.391,-414.915 780.511,-423.859 1012.19,-427.552"/>
<polygon fill="darkslategray" stroke="darkslategray" points="1012.39,-431.056 1022.45,-427.714 1012.5,-424.057 1012.39,-431.056"/>
</a>
<a xlink:href="./#populationDescription" xlink:title="populationDescription">
<text text-anchor="middle" x="493.5" y="-381.4" font-family="Helvetica,sans-Serif" font-size="14.00">populationDescription</text>
</a>
</g>
<!-- Population&#45;&gt;http://www.w3.org/2000/01/rdf&#45;schema#Literal -->
<g id="edge94" class="edge"><title>Population&#45;&gt;http://www.w3.org/2000/01/rdf&#45;schema#Literal</title>
<a xlink:href="./#provenanceInfo" xlink:title="provenanceInfo">
<path fill="none" stroke="darkslategray" d="M473.387,-350.433C500.707,-356.112 534.596,-364.982 563,-378 574.32,-383.188 574.227,-389.943 586,-394 626.516,-407.96 848.839,-418.097 1021.06,-423.991"/>
<polygon fill="darkslategray" stroke="darkslategray" points="1021.18,-427.497 1031.29,-424.339 1021.41,-420.501 1021.18,-427.497"/>
</a>
<a xlink:href="./#provenanceInfo" xlink:title="provenanceInfo">
<text text-anchor="middle" x="636" y="-381.4" font-family="Helvetica,sans-Serif" font-size="14.00">provenanceInfo</text>
</a>
</g>
<!-- AgeGroup -->
<g id="node4" class="node"><title>AgeGroup</title>
<a xlink:href="./#AgeGroup" xlink:title="AgeGroup">
<ellipse fill="none" stroke="black" cx="658" cy="-254" rx="53.838" ry="18"/>
<text text-anchor="middle" x="658" y="-249.4" font-family="Helvetica,sans-Serif" font-size="14.00">AgeGroup</text>
</a>
</g>
<!-- AgeGroup&#45;&gt;Population -->
<g id="edge4" class="edge"><title>AgeGroup&#45;&gt;Population</title>
<path fill="none" stroke="red" stroke-dasharray="5,2" d="M622.053,-267.461C581.206,-282.757 514.413,-307.769 469.598,-324.55"/>
<polygon fill="red" stroke="red" points="468.245,-321.32 460.107,-328.105 470.7,-327.875 468.245,-321.32"/>
</g>
<!-- AgeGroup&#45;&gt;http://www.w3.org/2000/01/rdf&#45;schema#Literal -->
<g id="edge66" class="edge"><title>AgeGroup&#45;&gt;http://www.w3.org/2000/01/rdf&#45;schema#Literal</title>
<a xlink:href="./#fromAge" xlink:title="fromAge">
<path fill="none" stroke="darkslategray" d="M649.385,-272.108C640.066,-294.595 628.704,-333.25 646,-360 656.585,-376.371 668.628,-369.154 686,-378 698.772,-384.504 700.284,-389.841 714,-394 769.843,-410.932 901.972,-419.951 1018.54,-424.727"/>
<polygon fill="darkslategray" stroke="darkslategray" points="1018.56,-428.23 1028.69,-425.134 1018.84,-421.236 1018.56,-428.23"/>
</a>
<a xlink:href="./#fromAge" xlink:title="fromAge">
<text text-anchor="middle" x="674.5" y="-337.4" font-family="Helvetica,sans-Serif" font-size="14.00">fromAge</text>
</a>
</g>
<!-- AgeGroup&#45;&gt;http://www.w3.org/2000/01/rdf&#45;schema#Literal -->
<g id="edge104" class="edge"><title>AgeGroup&#45;&gt;http://www.w3.org/2000/01/rdf&#45;schema#Literal</title>
<a xlink:href="./#toAge" xlink:title="toAge">
<path fill="none" stroke="darkslategray" d="M669.673,-271.709C678.88,-285.784 691.964,-306.024 703,-324 721.864,-354.726 713.403,-374.926 744,-394 768.18,-409.074 901.49,-418.252 1022.38,-423.565"/>
<polygon fill="darkslategray" stroke="darkslategray" points="1022.4,-427.069 1032.54,-424.004 1022.71,-420.076 1022.4,-427.069"/>
</a>
<a xlink:href="./#toAge" xlink:title="toAge">
<text text-anchor="middle" x="737" y="-337.4" font-family="Helvetica,sans-Serif" font-size="14.00">toAge</text>
</a>
</g>
<!-- Casualty -->
<g id="node6" class="node"><title>Casualty</title>
<a xlink:href="./#Casualty" xlink:title="Casualty">
<ellipse fill="none" stroke="black" cx="261" cy="-92" rx="48.9699" ry="18"/>
<text text-anchor="middle" x="261" y="-87.4" font-family="Helvetica,sans-Serif" font-size="14.00">Casualty</text>
</a>
</g>
<!-- Casualty&#45;&gt;AffectedPopulation -->
<g id="edge6" class="edge"><title>Casualty&#45;&gt;AffectedPopulation</title>
<path fill="none" stroke="red" stroke-dasharray="5,2" d="M290.863,-106.444C313.402,-117.345 344.674,-132.47 370.064,-144.75"/>
<polygon fill="red" stroke="red" points="368.598,-147.929 379.124,-149.132 371.646,-141.627 368.598,-147.929"/>
</g>
<!-- Dead -->
<g id="node8" class="node"><title>Dead</title>
<a xlink:href="./#Dead" xlink:title="Dead">
<ellipse fill="none" stroke="black" cx="102" cy="-18" rx="34.2118" ry="18"/>
<text text-anchor="middle" x="102" y="-13.4" font-family="Helvetica,sans-Serif" font-size="14.00">Dead</text>
</a>
</g>
<!-- Dead&#45;&gt;Casualty -->
<g id="edge8" class="edge"><title>Dead&#45;&gt;Casualty</title>
<path fill="none" stroke="red" stroke-dasharray="5,2" d="M127.546,-29.8894C152.894,-41.6864 192.097,-59.9319 221.466,-73.6003"/>
<polygon fill="red" stroke="red" points="220.082,-76.8169 230.625,-77.8633 223.036,-70.4706 220.082,-76.8169"/>
</g>
<!-- Displaced -->
<g id="node10" class="node"><title>Displaced</title>
<a xlink:href="./#Displaced" xlink:title="Displaced">
<ellipse fill="none" stroke="black" cx="414" cy="-92" rx="52.9948" ry="18"/>
<text text-anchor="middle" x="414" y="-87.4" font-family="Helvetica,sans-Serif" font-size="14.00">Displaced</text>
</a>
</g>
<!-- Displaced&#45;&gt;AffectedPopulation -->
<g id="edge10" class="edge"><title>Displaced&#45;&gt;AffectedPopulation</title>
<path fill="none" stroke="red" stroke-dasharray="5,2" d="M414,-110.292C414,-118.536 414,-128.462 414,-137.638"/>
<polygon fill="red" stroke="red" points="410.5,-137.918 414,-147.918 417.5,-137.918 410.5,-137.918"/>
</g>
<!-- Situation -->
<g id="node14" class="node"><title>Situation</title>
<a xlink:href="./#Situation" xlink:title="Situation">
<ellipse fill="none" stroke="black" cx="992" cy="-342" rx="49.1393" ry="18"/>
<text text-anchor="middle" x="992" y="-337.4" font-family="Helvetica,sans-Serif" font-size="14.00">Situation</text>
</a>
</g>
<!-- Emergency&#45;&gt;Situation -->
<g id="edge12" class="edge"><title>Emergency&#45;&gt;Situation</title>
<path fill="none" stroke="red" stroke-dasharray="5,2" d="M902.638,-264.737C929.626,-271.521 959.761,-280.731 970,-290 977.075,-296.405 981.951,-305.459 985.276,-314.221"/>
<polygon fill="red" stroke="red" points="981.982,-315.409 988.408,-323.833 988.638,-313.241 981.982,-315.409"/>
</g>
<!-- GLIDEnumber -->
<g id="node20" class="node"><title>GLIDEnumber</title>
<a xlink:href="./#GLIDEnumber" xlink:title="GLIDEnumber">
<ellipse fill="none" stroke="black" cx="854" cy="-342" rx="71.107" ry="18"/>
<text text-anchor="middle" x="854" y="-337.4" font-family="Helvetica,sans-Serif" font-size="14.00">GLIDEnumber</text>
</a>
</g>
<!-- Emergency&#45;&gt;GLIDEnumber -->
<g id="edge68" class="edge"><title>Emergency&#45;&gt;GLIDEnumber</title>
<a xlink:href="./#hasGLIDEnumber" xlink:title="hasGLIDEnumber">
<path fill="none" stroke="darkslategray" d="M854,-272.234C854,-284.151 854,-299.962 854,-313.518"/>
<polygon fill="darkslategray" stroke="darkslategray" points="850.5,-313.79 854,-323.79 857.5,-313.79 850.5,-313.79"/>
</a>
<a xlink:href="./#hasGLIDEnumber" xlink:title="hasGLIDEnumber">
<text text-anchor="middle" x="910" y="-293.4" font-family="Helvetica,sans-Serif" font-size="14.00">hasGLIDEnumber</text>
</a>
</g>
<!-- Situation&#45;&gt;http://www.w3.org/2000/01/rdf&#45;schema#Literal -->
<g id="edge56" class="edge"><title>Situation&#45;&gt;http://www.w3.org/2000/01/rdf&#45;schema#Literal</title>
<a xlink:href="./#commonTitle" xlink:title="commonTitle">
<path fill="none" stroke="darkslategray" d="M956.089,-354.357C948.844,-356.506 941.231,-358.521 934,-360 856.374,-375.874 705.152,-335.879 759,-394 768.785,-404.561 909.596,-414.37 1034.72,-421.073"/>
<polygon fill="darkslategray" stroke="darkslategray" points="1034.68,-424.575 1044.85,-421.61 1035.05,-417.585 1034.68,-424.575"/>
</a>
<a xlink:href="./#commonTitle" xlink:title="commonTitle">
<text text-anchor="middle" x="801.5" y="-381.4" font-family="Helvetica,sans-Serif" font-size="14.00">commonTitle</text>
</a>
</g>
<!-- Situation&#45;&gt;http://www.w3.org/2000/01/rdf&#45;schema#Literal -->
<g id="edge100" class="edge"><title>Situation&#45;&gt;http://www.w3.org/2000/01/rdf&#45;schema#Literal</title>
<a xlink:href="./#situationDescription" xlink:title="situationDescription">
<path fill="none" stroke="darkslategray" d="M954.623,-353.831C947.777,-355.932 940.684,-358.066 934,-360 904.382,-368.571 885.762,-353.532 867,-378 862.673,-383.643 862.226,-388.729 867,-394 879.193,-407.462 953.352,-416.088 1031.49,-421.509"/>
<polygon fill="darkslategray" stroke="darkslategray" points="1031.32,-425.005 1041.54,-422.187 1031.8,-418.021 1031.32,-425.005"/>
</a>
<a xlink:href="./#situationDescription" xlink:title="situationDescription">
<text text-anchor="middle" x="930.5" y="-381.4" font-family="Helvetica,sans-Serif" font-size="14.00">situationDescription</text>
</a>
</g>
<!-- Female -->
<g id="node15" class="node"><title>Female</title>
<a xlink:href="./#Female" xlink:title="Female">
<ellipse fill="none" stroke="black" cx="43" cy="-430" rx="43.1021" ry="18"/>
<text text-anchor="middle" x="43" y="-425.4" font-family="Helvetica,sans-Serif" font-size="14.00">Female</text>
</a>
</g>
<!-- http://xmlns.com/foaf/0.1/Agent -->
<g id="node17" class="node"><title>http://xmlns.com/foaf/0.1/Agent</title>
<a xlink:href="./#http://xmlns.com/foaf/0.1/Agent" xlink:title="http://xmlns.com/foaf/0.1/Agent">
<ellipse fill="none" stroke="black" cx="233" cy="-504" rx="145.068" ry="18"/>
<text text-anchor="middle" x="233" y="-499.4" font-family="Helvetica,sans-Serif" font-size="14.00">http://xmlns.com/foaf/0.1/Agent</text>
</a>
</g>
<!-- Female&#45;&gt;http://xmlns.com/foaf/0.1/Agent -->
<g id="edge14" class="edge"><title>Female&#45;&gt;http://xmlns.com/foaf/0.1/Agent</title>
<path fill="none" stroke="red" stroke-dasharray="5,2" d="M74.8017,-442.386C103.166,-453.433 145.286,-469.838 178.935,-482.943"/>
<polygon fill="red" stroke="red" points="178.042,-486.351 188.631,-486.719 180.583,-479.829 178.042,-486.351"/>
</g>
<!-- Sex -->
<g id="node19" class="node"><title>Sex</title>
<a xlink:href="./#Sex" xlink:title="Sex">
<ellipse fill="none" stroke="black" cx="43" cy="-504" rx="27.0036" ry="18"/>
<text text-anchor="middle" x="43" y="-499.4" font-family="Helvetica,sans-Serif" font-size="14.00">Sex</text>
</a>
</g>
<!-- Female&#45;&gt;Sex -->
<g id="edge16" class="edge"><title>Female&#45;&gt;Sex</title>
<path fill="none" stroke="red" stroke-dasharray="5,2" d="M43,-448.292C43,-456.536 43,-466.462 43,-475.638"/>
<polygon fill="red" stroke="red" points="39.5001,-475.918 43,-485.918 46.5001,-475.918 39.5001,-475.918"/>
</g>
<!-- IDP -->
<g id="node21" class="node"><title>IDP</title>
<a xlink:href="./#IDP" xlink:title="IDP">
<ellipse fill="none" stroke="black" cx="381" cy="-18" rx="27" ry="18"/>
<text text-anchor="middle" x="381" y="-13.4" font-family="Helvetica,sans-Serif" font-size="14.00">IDP</text>
</a>
</g>
<!-- IDP&#45;&gt;Displaced -->
<g id="edge18" class="edge"><title>IDP&#45;&gt;Displaced</title>
<path fill="none" stroke="red" stroke-dasharray="5,2" d="M388.821,-35.537C392.709,-44.2559 397.496,-54.9906 401.848,-64.7505"/>
<polygon fill="red" stroke="red" points="398.737,-66.3673 406.006,-74.0749 405.13,-63.5163 398.737,-66.3673"/>
</g>
<!-- Indicator -->
<g id="node23" class="node"><title>Indicator</title>
<a xlink:href="./#Indicator" xlink:title="Indicator">
<ellipse fill="none" stroke="black" cx="1832" cy="-342" rx="49.1393" ry="18"/>
<text text-anchor="middle" x="1832" y="-337.4" font-family="Helvetica,sans-Serif" font-size="14.00">Indicator</text>
</a>
</g>
<!-- Indicator&#45;&gt;Indicator -->
<g id="edge98" class="edge"><title>Indicator&#45;&gt;Indicator</title>
<a xlink:href="./#relatedIndicator" xlink:title="relatedIndicator">
<path fill="none" stroke="darkslategray" d="M1875.82,-333.768C1888.86,-334.014 1899,-336.758 1899,-342 1899,-345.768 1893.76,-348.245 1885.97,-349.432"/>
<polygon fill="darkslategray" stroke="darkslategray" points="1885.51,-345.957 1875.82,-350.232 1886.06,-352.935 1885.51,-345.957"/>
</a>
<a xlink:href="./#relatedIndicator" xlink:title="relatedIndicator">
<text text-anchor="middle" x="1951" y="-337.4" font-family="Helvetica,sans-Serif" font-size="14.00">relatedIndicator</text>
</a>
</g>
<!-- IndicatorUnit -->
<g id="node24" class="node"><title>IndicatorUnit</title>
<a xlink:href="./#IndicatorUnit" xlink:title="IndicatorUnit">
<ellipse fill="none" stroke="black" cx="2177" cy="-430" rx="67.082" ry="18"/>
<text text-anchor="middle" x="2177" y="-425.4" font-family="Helvetica,sans-Serif" font-size="14.00">IndicatorUnit</text>
</a>
</g>
<!-- Indicator&#45;&gt;IndicatorUnit -->
<g id="edge78" class="edge"><title>Indicator&#45;&gt;IndicatorUnit</title>
<a xlink:href="./#inUnit" xlink:title="inUnit">
<path fill="none" stroke="darkslategray" d="M1881.17,-343.663C2006.36,-348.133 2328.35,-361.216 2344,-378 2348.85,-383.202 2348.51,-388.505 2344,-394 2317.83,-425.856 2293.29,-403.248 2253,-412 2247.7,-413.151 2242.2,-414.382 2236.69,-415.64"/>
<polygon fill="darkslategray" stroke="darkslategray" points="2235.77,-412.261 2226.81,-417.921 2237.35,-419.082 2235.77,-412.261"/>
</a>
<a xlink:href="./#inUnit" xlink:title="inUnit">
<text text-anchor="middle" x="2365.5" y="-381.4" font-family="Helvetica,sans-Serif" font-size="14.00">inUnit</text>
</a>
</g>
<!-- Indicator&#45;&gt;http://www.w3.org/2000/01/rdf&#45;schema#Literal -->
<g id="edge54" class="edge"><title>Indicator&#45;&gt;http://www.w3.org/2000/01/rdf&#45;schema#Literal</title>
<a xlink:href="./#benchmark" xlink:title="benchmark">
<path fill="none" stroke="darkslategray" d="M1810.99,-358.291C1791.73,-373.152 1765.79,-392.959 1763,-394 1731.81,-405.619 1568.05,-415.526 1430.17,-421.988"/>
<polygon fill="darkslategray" stroke="darkslategray" points="1429.7,-418.506 1419.87,-422.466 1430.02,-425.498 1429.7,-418.506"/>
</a>
<a xlink:href="./#benchmark" xlink:title="benchmark">
<text text-anchor="middle" x="1818.5" y="-381.4" font-family="Helvetica,sans-Serif" font-size="14.00">benchmark</text>
</a>
</g>
<!-- Indicator&#45;&gt;http://www.w3.org/2000/01/rdf&#45;schema#Literal -->
<g id="edge62" class="edge"><title>Indicator&#45;&gt;http://www.w3.org/2000/01/rdf&#45;schema#Literal</title>
<a xlink:href="./#dataSource" xlink:title="dataSource">
<path fill="none" stroke="darkslategray" d="M1849.49,-359.036C1858.71,-370.038 1866.35,-384.095 1857,-394 1842.55,-409.298 1617.52,-419.237 1441.13,-424.717"/>
<polygon fill="darkslategray" stroke="darkslategray" points="1440.81,-421.226 1430.92,-425.032 1441.02,-428.222 1440.81,-421.226"/>
</a>
<a xlink:href="./#dataSource" xlink:title="dataSource">
<text text-anchor="middle" x="1899.5" y="-381.4" font-family="Helvetica,sans-Serif" font-size="14.00">dataSource</text>
</a>
</g>
<!-- Indicator&#45;&gt;http://www.w3.org/2000/01/rdf&#45;schema#Literal -->
<g id="edge64" class="edge"><title>Indicator&#45;&gt;http://www.w3.org/2000/01/rdf&#45;schema#Literal</title>
<a xlink:href="./#denominator" xlink:title="denominator">
<path fill="none" stroke="darkslategray" d="M1878.13,-348.393C1917.71,-355.673 1965,-369.812 1942,-394 1924.87,-412.014 1648.81,-421.597 1445.57,-426.236"/>
<polygon fill="darkslategray" stroke="darkslategray" points="1445.26,-422.742 1435.34,-426.466 1445.41,-429.74 1445.26,-422.742"/>
</a>
<a xlink:href="./#denominator" xlink:title="denominator">
<text text-anchor="middle" x="1989" y="-381.4" font-family="Helvetica,sans-Serif" font-size="14.00">denominator</text>
</a>
</g>
<!-- Indicator&#45;&gt;http://www.w3.org/2000/01/rdf&#45;schema#Literal -->
<g id="edge70" class="edge"><title>Indicator&#45;&gt;http://www.w3.org/2000/01/rdf&#45;schema#Literal</title>
<a xlink:href="./#hasStandard" xlink:title="hasStandard">
<path fill="none" stroke="darkslategray" d="M1880.86,-343.732C1934.28,-346.775 2014.84,-355.129 2034,-378 2038.57,-383.452 2038.91,-388.86 2034,-394 2013.88,-415.044 1679.01,-423.946 1447.86,-427.597"/>
<polygon fill="darkslategray" stroke="darkslategray" points="1447.56,-424.101 1437.62,-427.756 1447.67,-431.1 1447.56,-424.101"/>
</a>
<a xlink:href="./#hasStandard" xlink:title="hasStandard">
<text text-anchor="middle" x="2079" y="-381.4" font-family="Helvetica,sans-Serif" font-size="14.00">hasStandard</text>
</a>
</g>
<!-- Indicator&#45;&gt;http://www.w3.org/2000/01/rdf&#45;schema#Literal -->
<g id="edge72" class="edge"><title>Indicator&#45;&gt;http://www.w3.org/2000/01/rdf&#45;schema#Literal</title>
<a xlink:href="./#hasValue" xlink:title="hasValue">
<path fill="none" stroke="darkslategray" d="M1880.99,-343.301C1973.07,-346.603 2159.76,-357.813 2125,-394 2101.85,-418.097 1706.28,-426.064 1448.85,-428.699"/>
<polygon fill="darkslategray" stroke="darkslategray" points="1448.58,-425.201 1438.61,-428.802 1448.65,-432.201 1448.58,-425.201"/>
</a>
<a xlink:href="./#hasValue" xlink:title="hasValue">
<text text-anchor="middle" x="2158.5" y="-381.4" font-family="Helvetica,sans-Serif" font-size="14.00">hasValue</text>
</a>
</g>
<!-- Indicator&#45;&gt;http://www.w3.org/2000/01/rdf&#45;schema#Literal -->
<g id="edge80" class="edge"><title>Indicator&#45;&gt;http://www.w3.org/2000/01/rdf&#45;schema#Literal</title>
<a xlink:href="./#indicatorID" xlink:title="indicatorID">
<path fill="none" stroke="darkslategray" d="M1881.16,-343.326C1974.85,-346.362 2171.53,-355.384 2192,-378 2196.77,-383.273 2196.93,-388.879 2192,-394 2179.16,-407.33 1723.25,-419.453 1443.75,-425.655"/>
<polygon fill="darkslategray" stroke="darkslategray" points="1443.39,-422.162 1433.47,-425.882 1443.55,-429.16 1443.39,-422.162"/>
</a>
<a xlink:href="./#indicatorID" xlink:title="indicatorID">
<text text-anchor="middle" x="2230" y="-381.4" font-family="Helvetica,sans-Serif" font-size="14.00">indicatorID</text>
</a>
</g>
<!-- Indicator&#45;&gt;http://www.w3.org/2000/01/rdf&#45;schema#Literal -->
<g id="edge82" class="edge"><title>Indicator&#45;&gt;http://www.w3.org/2000/01/rdf&#45;schema#Literal</title>
<a xlink:href="./#indicatorNote" xlink:title="indicatorNote">
<path fill="none" stroke="darkslategray" d="M1782.92,-342.391C1614.31,-343.97 1067.65,-351.151 1042,-378 1037.09,-383.141 1037.47,-388.519 1042,-394 1049.01,-402.474 1064.95,-408.973 1084.75,-413.951"/>
<polygon fill="darkslategray" stroke="darkslategray" points="1084.22,-417.422 1094.75,-416.275 1085.8,-410.603 1084.22,-417.422"/>
</a>
<a xlink:href="./#indicatorNote" xlink:title="indicatorNote">
<text text-anchor="middle" x="1086" y="-381.4" font-family="Helvetica,sans-Serif" font-size="14.00">indicatorNote</text>
</a>
</g>
<!-- Indicator&#45;&gt;http://www.w3.org/2000/01/rdf&#45;schema#Literal -->
<g id="edge84" class="edge"><title>Indicator&#45;&gt;http://www.w3.org/2000/01/rdf&#45;schema#Literal</title>
<a xlink:href="./#indicatorReferences" xlink:title="indicatorReferences">
<path fill="none" stroke="darkslategray" d="M1782.8,-342.776C1630.32,-345.417 1174.63,-355.195 1153,-378 1142.24,-389.35 1150.67,-399.562 1165.31,-407.87"/>
<polygon fill="darkslategray" stroke="darkslategray" points="1164.05,-411.151 1174.55,-412.536 1167.2,-404.903 1164.05,-411.151"/>
</a>
<a xlink:href="./#indicatorReferences" xlink:title="indicatorReferences">
<text text-anchor="middle" x="1219.5" y="-381.4" font-family="Helvetica,sans-Serif" font-size="14.00">indicatorReferences</text>
</a>
</g>
<!-- Indicator&#45;&gt;http://www.w3.org/2000/01/rdf&#45;schema#Literal -->
<g id="edge86" class="edge"><title>Indicator&#45;&gt;http://www.w3.org/2000/01/rdf&#45;schema#Literal</title>
<a xlink:href="./#indicatorTitle" xlink:title="indicatorTitle">
<path fill="none" stroke="darkslategray" d="M1783.24,-343.874C1661.91,-348.748 1353,-362.521 1309,-378 1297.25,-382.132 1296.35,-387.076 1286,-394 1279.86,-398.109 1273.29,-402.411 1266.89,-406.553"/>
<polygon fill="darkslategray" stroke="darkslategray" points="1264.84,-403.711 1258.33,-412.07 1268.63,-409.595 1264.84,-403.711"/>
</a>
<a xlink:href="./#indicatorTitle" xlink:title="indicatorTitle">
<text text-anchor="middle" x="1352" y="-381.4" font-family="Helvetica,sans-Serif" font-size="14.00">indicatorTitle</text>
</a>
</g>
<!-- Indicator&#45;&gt;http://www.w3.org/2000/01/rdf&#45;schema#Literal -->
<g id="edge88" class="edge"><title>Indicator&#45;&gt;http://www.w3.org/2000/01/rdf&#45;schema#Literal</title>
<a xlink:href="./#measurementMethodology" xlink:title="measurementMethodology">
<path fill="none" stroke="darkslategray" d="M1782.86,-343.111C1688.15,-345.768 1483.89,-354.152 1418,-378 1406.29,-382.238 1406.41,-389.021 1395,-394 1378.45,-401.22 1360.31,-407.05 1342.3,-411.741"/>
<polygon fill="darkslategray" stroke="darkslategray" points="1341.18,-408.413 1332.33,-414.231 1342.88,-415.205 1341.18,-408.413"/>
</a>
<a xlink:href="./#measurementMethodology" xlink:title="measurementMethodology">
<text text-anchor="middle" x="1504.5" y="-381.4" font-family="Helvetica,sans-Serif" font-size="14.00">measurementMethodology</text>
</a>
</g>
<!-- Indicator&#45;&gt;http://www.w3.org/2000/01/rdf&#45;schema#Literal -->
<g id="edge90" class="edge"><title>Indicator&#45;&gt;http://www.w3.org/2000/01/rdf&#45;schema#Literal</title>
<a xlink:href="./#numerator" xlink:title="numerator">
<path fill="none" stroke="darkslategray" d="M1784.95,-347.305C1730.43,-353.883 1644.21,-365.732 1614,-378 1602.46,-382.685 1602.68,-389.688 1591,-394 1558.83,-405.875 1488.71,-414.161 1418.74,-419.763"/>
<polygon fill="darkslategray" stroke="darkslategray" points="1418.12,-416.301 1408.43,-420.57 1418.67,-423.28 1418.12,-416.301"/>
</a>
<a xlink:href="./#numerator" xlink:title="numerator">
<text text-anchor="middle" x="1648" y="-381.4" font-family="Helvetica,sans-Serif" font-size="14.00">numerator</text>
</a>
</g>
<!-- Indicator&#45;&gt;http://www.w3.org/2000/01/rdf&#45;schema#Literal -->
<g id="edge96" class="edge"><title>Indicator&#45;&gt;http://www.w3.org/2000/01/rdf&#45;schema#Literal</title>
<a xlink:href="./#rationale" xlink:title="rationale">
<path fill="none" stroke="darkslategray" d="M1787.15,-349.335C1760.98,-354.81 1727.93,-363.841 1701,-378 1691.23,-383.137 1692.21,-389.806 1682,-394 1657.39,-404.106 1532.76,-413.576 1420.58,-420.265"/>
<polygon fill="darkslategray" stroke="darkslategray" points="1420.24,-416.779 1410.46,-420.863 1420.65,-423.767 1420.24,-416.779"/>
</a>
<a xlink:href="./#rationale" xlink:title="rationale">
<text text-anchor="middle" x="1730" y="-381.4" font-family="Helvetica,sans-Serif" font-size="14.00">rationale</text>
</a>
</g>
<!-- http://xmlns.com/foaf/0.1/Document -->
<g id="node60" class="node"><title>http://xmlns.com/foaf/0.1/Document</title>
<a xlink:href="./#http://xmlns.com/foaf/0.1/Document" xlink:title="http://xmlns.com/foaf/0.1/Document">
<ellipse fill="none" stroke="gray" cx="2426" cy="-430" rx="163.851" ry="18"/>
<text text-anchor="middle" x="2426" y="-425.4" font-family="Helvetica,sans-Serif" font-size="14.00" fill="gray">http://xmlns.com/foaf/0.1/Document</text>
</a>
</g>
<!-- Indicator&#45;&gt;http://xmlns.com/foaf/0.1/Document -->
<g id="edge60" class="edge"><title>Indicator&#45;&gt;http://xmlns.com/foaf/0.1/Document</title>
<a xlink:href="./#dataSource" xlink:title="dataSource">
<path fill="none" stroke="darkslategray" d="M1880.95,-342.812C2008.49,-345.259 2344.18,-353.934 2388,-378 2398.36,-383.687 2406.64,-393.537 2412.79,-403.145"/>
<polygon fill="darkslategray" stroke="darkslategray" points="2409.77,-404.914 2417.84,-411.775 2415.81,-401.377 2409.77,-404.914"/>
</a>
<a xlink:href="./#dataSource" xlink:title="dataSource">
<text text-anchor="middle" x="2444.5" y="-381.4" font-family="Helvetica,sans-Serif" font-size="14.00">dataSource</text>
</a>
</g>
<!-- Sector -->
<g id="node69" class="node"><title>Sector</title>
<a xlink:href="./#Sector" xlink:title="Sector">
<ellipse fill="none" stroke="gray" cx="2649" cy="-430" rx="40.92" ry="18"/>
<text text-anchor="middle" x="2649" y="-425.4" font-family="Helvetica,sans-Serif" font-size="14.00" fill="gray">Sector</text>
</a>
</g>
<!-- Indicator&#45;&gt;Sector -->
<g id="edge76" class="edge"><title>Indicator&#45;&gt;Sector</title>
<a xlink:href="./#inSector" xlink:title="inSector">
<path fill="none" stroke="darkslategray" d="M1881.09,-343.174C2012.59,-346.562 2370.64,-357.449 2487,-378 2529.84,-385.566 2577,-401.635 2609.33,-413.92"/>
<polygon fill="darkslategray" stroke="darkslategray" points="2608.28,-417.266 2618.87,-417.598 2610.8,-410.735 2608.28,-417.266"/>
</a>
<a xlink:href="./#inSector" xlink:title="inSector">
<text text-anchor="middle" x="2577.5" y="-381.4" font-family="Helvetica,sans-Serif" font-size="14.00">inSector</text>
</a>
</g>
<!-- Organisation -->
<g id="node83" class="node"><title>Organisation</title>
<a xlink:href="./#Organisation" xlink:title="Organisation">
<ellipse fill="none" stroke="gray" cx="2774" cy="-430" rx="65.9119" ry="18"/>
<text text-anchor="middle" x="2774" y="-425.4" font-family="Helvetica,sans-Serif" font-size="14.00" fill="gray">Organisation</text>
</a>
</g>
<!-- Indicator&#45;&gt;Organisation -->
<g id="edge102" class="edge"><title>Indicator&#45;&gt;Organisation</title>
<a xlink:href="./#submittingOrganization" xlink:title="submittingOrganization">
<path fill="none" stroke="darkslategray" d="M1881,-342.614C2028.73,-344.725 2468.23,-352.995 2609,-378 2649.6,-385.212 2694.11,-399.645 2726.66,-411.48"/>
<polygon fill="darkslategray" stroke="darkslategray" points="2725.77,-414.88 2736.36,-415.058 2728.19,-408.313 2725.77,-414.88"/>
</a>
<a xlink:href="./#submittingOrganization" xlink:title="submittingOrganization">
<text text-anchor="middle" x="2748" y="-381.4" font-family="Helvetica,sans-Serif" font-size="14.00">submittingOrganization</text>
</a>
</g>
<!-- Injured -->
<g id="node25" class="node"><title>Injured</title>
<a xlink:href="./#Injured" xlink:title="Injured">
<ellipse fill="none" stroke="black" cx="194" cy="-18" rx="40.2492" ry="18"/>
<text text-anchor="middle" x="194" y="-13.4" font-family="Helvetica,sans-Serif" font-size="14.00">Injured</text>
</a>
</g>
<!-- Injured&#45;&gt;Casualty -->
<g id="edge20" class="edge"><title>Injured&#45;&gt;Casualty</title>
<path fill="none" stroke="red" stroke-dasharray="5,2" d="M209.203,-34.7917C217.902,-44.3997 228.976,-56.6301 238.649,-67.3143"/>
<polygon fill="red" stroke="red" points="236.086,-69.6973 245.392,-74.7612 241.275,-64.999 236.086,-69.6973"/>
</g>
<!-- InputIndicator -->
<g id="node27" class="node"><title>InputIndicator</title>
<a xlink:href="./#InputIndicator" xlink:title="InputIndicator">
<ellipse fill="none" stroke="black" cx="1052" cy="-254" rx="69.9366" ry="18"/>
<text text-anchor="middle" x="1052" y="-249.4" font-family="Helvetica,sans-Serif" font-size="14.00">InputIndicator</text>
</a>
</g>
<!-- InputIndicator&#45;&gt;Indicator -->
<g id="edge22" class="edge"><title>InputIndicator&#45;&gt;Indicator</title>
<path fill="none" stroke="red" stroke-dasharray="5,2" d="M1112.5,-263.122C1132.68,-266.074 1155.29,-269.284 1176,-272 1396.25,-300.891 1659.29,-326.184 1773.87,-336.748"/>
<polygon fill="red" stroke="red" points="1773.89,-340.263 1784.17,-337.694 1774.53,-333.293 1773.89,-340.263"/>
</g>
<!-- Male -->
<g id="node29" class="node"><title>Male</title>
<a xlink:href="./#Male" xlink:title="Male">
<ellipse fill="none" stroke="black" cx="135" cy="-430" rx="31.0281" ry="18"/>
<text text-anchor="middle" x="135" y="-425.4" font-family="Helvetica,sans-Serif" font-size="14.00">Male</text>
</a>
</g>
<!-- Male&#45;&gt;http://xmlns.com/foaf/0.1/Agent -->
<g id="edge24" class="edge"><title>Male&#45;&gt;http://xmlns.com/foaf/0.1/Agent</title>
<path fill="none" stroke="red" stroke-dasharray="5,2" d="M154.362,-444.62C167.634,-454.642 185.554,-468.173 200.935,-479.788"/>
<polygon fill="red" stroke="red" points="199.084,-482.776 209.173,-486.008 203.302,-477.189 199.084,-482.776"/>
</g>
<!-- Male&#45;&gt;Sex -->
<g id="edge26" class="edge"><title>Male&#45;&gt;Sex</title>
<path fill="none" stroke="red" stroke-dasharray="5,2" d="M116.824,-444.62C103.038,-455.708 83.9126,-471.092 68.5825,-483.423"/>
<polygon fill="red" stroke="red" points="66.1128,-480.918 60.5143,-489.912 70.5001,-486.372 66.1128,-480.918"/>
</g>
<!-- Missing -->
<g id="node32" class="node"><title>Missing</title>
<a xlink:href="./#Missing" xlink:title="Missing">
<ellipse fill="none" stroke="black" cx="294" cy="-18" rx="41.7645" ry="18"/>
<text text-anchor="middle" x="294" y="-13.4" font-family="Helvetica,sans-Serif" font-size="14.00">Missing</text>
</a>
</g>
<!-- Missing&#45;&gt;Casualty -->
<g id="edge28" class="edge"><title>Missing&#45;&gt;Casualty</title>
<path fill="none" stroke="red" stroke-dasharray="5,2" d="M286.012,-35.9133C282.149,-44.5752 277.429,-55.1588 273.135,-64.7891"/>
<polygon fill="red" stroke="red" points="269.906,-63.4366 269.029,-73.9951 276.299,-66.2876 269.906,-63.4366"/>
</g>
<!-- Need -->
<g id="node34" class="node"><title>Need</title>
<a xlink:href="./#Need" xlink:title="Need">
<ellipse fill="none" stroke="black" cx="1219" cy="-254" rx="34.2118" ry="18"/>
<text text-anchor="middle" x="1219" y="-249.4" font-family="Helvetica,sans-Serif" font-size="14.00">Need</text>
</a>
</g>
<!-- Need&#45;&gt;Indicator -->
<g id="edge52" class="edge"><title>Need&#45;&gt;Indicator</title>
<a xlink:href="./#basedOn" xlink:title="basedOn">
<path fill="none" stroke="darkslategray" d="M1251.96,-258.731C1351.61,-273.038 1650.6,-315.959 1775.85,-333.939"/>
<polygon fill="darkslategray" stroke="darkslategray" points="1775.59,-337.438 1785.99,-335.395 1776.59,-330.509 1775.59,-337.438"/>
</a>
<a xlink:href="./#basedOn" xlink:title="basedOn">
<text text-anchor="middle" x="1609" y="-293.4" font-family="Helvetica,sans-Serif" font-size="14.00">basedOn</text>
</a>
</g>
<!-- Need&#45;&gt;http://www.w3.org/2000/01/rdf&#45;schema#Literal -->
<g id="edge74" class="edge"><title>Need&#45;&gt;http://www.w3.org/2000/01/rdf&#45;schema#Literal</title>
<a xlink:href="./#identifiedAt" xlink:title="identifiedAt">
<path fill="none" stroke="darkslategray" d="M1196.2,-267.611C1148.75,-296.171 1043.01,-361.114 1034,-378 1030.65,-384.274 1029.45,-388.536 1034,-394 1041.35,-402.817 1058.05,-409.482 1078.76,-414.518"/>
<polygon fill="darkslategray" stroke="darkslategray" points="1078.02,-417.938 1088.54,-416.719 1079.55,-411.109 1078.02,-417.938"/>
</a>
<a xlink:href="./#identifiedAt" xlink:title="identifiedAt">
<text text-anchor="middle" x="1141.5" y="-337.4" font-family="Helvetica,sans-Serif" font-size="14.00">identifiedAt</text>
</a>
</g>
<!-- NonDisplaced -->
<g id="node35" class="node"><title>NonDisplaced</title>
<a xlink:href="./#NonDisplaced" xlink:title="NonDisplaced">
<ellipse fill="none" stroke="black" cx="555" cy="-92" rx="69.7653" ry="18"/>
<text text-anchor="middle" x="555" y="-87.4" font-family="Helvetica,sans-Serif" font-size="14.00">NonDisplaced</text>
</a>
</g>
<!-- NonDisplaced&#45;&gt;AffectedPopulation -->
<g id="edge30" class="edge"><title>NonDisplaced&#45;&gt;AffectedPopulation</title>
<path fill="none" stroke="red" stroke-dasharray="5,2" d="M524.057,-108.24C503.912,-118.812 477.396,-132.728 455.439,-144.252"/>
<polygon fill="red" stroke="red" points="453.568,-141.281 446.34,-149.027 456.821,-147.479 453.568,-141.281"/>
</g>
<!-- Others -->
<g id="node37" class="node"><title>Others</title>
<a xlink:href="./#Others" xlink:title="Others">
<ellipse fill="none" stroke="black" cx="467" cy="-18" rx="40.92" ry="18"/>
<text text-anchor="middle" x="467" y="-13.4" font-family="Helvetica,sans-Serif" font-size="14.00">Others</text>
</a>
</g>
<!-- Others&#45;&gt;Displaced -->
<g id="edge32" class="edge"><title>Others&#45;&gt;Displaced</title>
<path fill="none" stroke="red" stroke-dasharray="5,2" d="M454.44,-35.537C447.887,-44.686 439.745,-56.0545 432.487,-66.1873"/>
<polygon fill="red" stroke="red" points="429.631,-64.1646 426.654,-74.3325 435.322,-68.2405 429.631,-64.1646"/>
</g>
<!-- OutcomeIndicator -->
<g id="node39" class="node"><title>OutcomeIndicator</title>
<a xlink:href="./#OutcomeIndicator" xlink:title="OutcomeIndicator">
<ellipse fill="none" stroke="black" cx="1549" cy="-254" rx="89.8899" ry="18"/>
<text text-anchor="middle" x="1549" y="-249.4" font-family="Helvetica,sans-Serif" font-size="14.00">OutcomeIndicator</text>
</a>
</g>
<!-- OutcomeIndicator&#45;&gt;Indicator -->
<g id="edge34" class="edge"><title>OutcomeIndicator&#45;&gt;Indicator</title>
<path fill="none" stroke="red" stroke-dasharray="5,2" d="M1597.97,-269.228C1650.44,-285.542 1733.12,-311.252 1784.86,-327.343"/>
<polygon fill="red" stroke="red" points="1783.88,-330.701 1794.47,-330.329 1785.96,-324.017 1783.88,-330.701"/>
</g>
<!-- OutputIndicator -->
<g id="node41" class="node"><title>OutputIndicator</title>
<a xlink:href="./#OutputIndicator" xlink:title="OutputIndicator">
<ellipse fill="none" stroke="black" cx="1736" cy="-254" rx="79.1568" ry="18"/>
<text text-anchor="middle" x="1736" y="-249.4" font-family="Helvetica,sans-Serif" font-size="14.00">OutputIndicator</text>
</a>
</g>
<!-- OutputIndicator&#45;&gt;Indicator -->
<g id="edge36" class="edge"><title>OutputIndicator&#45;&gt;Indicator</title>
<path fill="none" stroke="red" stroke-dasharray="5,2" d="M1755.43,-271.808C1770.02,-285.188 1790.16,-303.647 1806.12,-318.278"/>
<polygon fill="red" stroke="red" points="1803.84,-320.937 1813.58,-325.114 1808.57,-315.777 1803.84,-320.937"/>
</g>
<!-- http://xmlns.com/foaf/0.1/Group&#45;&gt;http://xmlns.com/foaf/0.1/Agent -->
<g id="edge48" class="edge"><title>http://xmlns.com/foaf/0.1/Group&#45;&gt;http://xmlns.com/foaf/0.1/Agent</title>
<path fill="none" stroke="red" stroke-dasharray="5,2" d="M306.519,-447.913C293.982,-457.477 278.374,-469.385 264.768,-479.764"/>
<polygon fill="red" stroke="red" points="262.429,-477.147 256.601,-485.995 266.674,-482.712 262.429,-477.147"/>
</g>
<!-- ProxyInputIndicator -->
<g id="node45" class="node"><title>ProxyInputIndicator</title>
<a xlink:href="./#ProxyInputIndicator" xlink:title="ProxyInputIndicator">
<ellipse fill="none" stroke="black" cx="1928" cy="-254" rx="94.7578" ry="18"/>
<text text-anchor="middle" x="1928" y="-249.4" font-family="Helvetica,sans-Serif" font-size="14.00">ProxyInputIndicator</text>
</a>
</g>
<!-- ProxyInputIndicator&#45;&gt;Indicator -->
<g id="edge40" class="edge"><title>ProxyInputIndicator&#45;&gt;Indicator</title>
<path fill="none" stroke="red" stroke-dasharray="5,2" d="M1908.57,-271.808C1893.98,-285.188 1873.84,-303.647 1857.88,-318.278"/>
<polygon fill="red" stroke="red" points="1855.43,-315.777 1850.42,-325.114 1860.16,-320.937 1855.43,-315.777"/>
</g>
<!-- ProxyOutcomeIndicator -->
<g id="node47" class="node"><title>ProxyOutcomeIndicator</title>
<a xlink:href="./#ProxyOutcomeIndicator" xlink:title="ProxyOutcomeIndicator">
<ellipse fill="none" stroke="black" cx="2155" cy="-254" rx="114.039" ry="18"/>
<text text-anchor="middle" x="2155" y="-249.4" font-family="Helvetica,sans-Serif" font-size="14.00">ProxyOutcomeIndicator</text>
</a>
</g>
<!-- ProxyOutcomeIndicator&#45;&gt;Indicator -->
<g id="edge42" class="edge"><title>ProxyOutcomeIndicator&#45;&gt;Indicator</title>
<path fill="none" stroke="red" stroke-dasharray="5,2" d="M2097.63,-269.631C2036.1,-286.393 1939.44,-312.729 1881.25,-328.583"/>
<polygon fill="red" stroke="red" points="1880.28,-325.219 1871.55,-331.225 1882.12,-331.973 1880.28,-325.219"/>
</g>
<!-- RefugeesAsylumSeekers -->
<g id="node49" class="node"><title>RefugeesAsylumSeekers</title>
<a xlink:href="./#RefugeesAsylumSeekers" xlink:title="RefugeesAsylumSeekers">
<ellipse fill="none" stroke="black" cx="645" cy="-18" rx="118.906" ry="18"/>
<text text-anchor="middle" x="645" y="-13.4" font-family="Helvetica,sans-Serif" font-size="14.00">RefugeesAsylumSeekers</text>
</a>
</g>
<!-- RefugeesAsylumSeekers&#45;&gt;Displaced -->
<g id="edge44" class="edge"><title>RefugeesAsylumSeekers&#45;&gt;Displaced</title>
<path fill="none" stroke="red" stroke-dasharray="5,2" d="M594.02,-34.3312C554.869,-46.8731 501.155,-64.0802 462.609,-76.4284"/>
<polygon fill="red" stroke="red" points="461.115,-73.2316 452.66,-79.6155 463.251,-79.8979 461.115,-73.2316"/>
</g>
<!-- TotalPopulation -->
<g id="node51" class="node"><title>TotalPopulation</title>
<a xlink:href="./#TotalPopulation" xlink:title="TotalPopulation">
<ellipse fill="none" stroke="black" cx="506" cy="-254" rx="79.8276" ry="18"/>
<text text-anchor="middle" x="506" y="-249.4" font-family="Helvetica,sans-Serif" font-size="14.00">TotalPopulation</text>
</a>
</g>
<!-- TotalPopulation&#45;&gt;Population -->
<g id="edge46" class="edge"><title>TotalPopulation&#45;&gt;Population</title>
<path fill="none" stroke="red" stroke-dasharray="5,2" d="M489.204,-271.808C476.974,-284.775 460.243,-302.513 446.661,-316.913"/>
<polygon fill="red" stroke="red" points="443.803,-314.842 439.488,-324.519 448.896,-319.645 443.803,-314.842"/>
</g>
</g>
</svg>
