<?xml version="1.0" encoding="UTF-8" standalone="no"?>
<!DOCTYPE svg PUBLIC "-//W3C//DTD SVG 1.1//EN"
 "http://www.w3.org/Graphics/SVG/1.1/DTD/svg11.dtd">
<!-- Generated by graphviz version 2.26.3 (20100126.1600)
 -->
<!-- Title: _anonymous_0 Pages: 1 -->
<svg width="1033pt" height="206pt"
 viewBox="0.00 0.00 1033.00 206.00" xmlns="http://www.w3.org/2000/svg" xmlns:xlink="http://www.w3.org/1999/xlink">
<g id="graph1" class="graph" transform="scale(1 1) rotate(0) translate(4 202)">
<title>_anonymous_0</title>
<polygon fill="white" stroke="white" points="-4,5 -4,-202 1030,-202 1030,5 -4,5"/>
<!-- ReportingPeriod -->
<g id="node1" class="node"><title>ReportingPeriod</title>
<a xlink:href="./#ReportingPeriod" xlink:title="ReportingPeriod">
<ellipse fill="none" stroke="black" cx="173" cy="-18" rx="82.0108" ry="18"/>
<text text-anchor="middle" x="173" y="-13.4" font-family="Helvetica,sans-Serif" font-size="14.00">ReportingPeriod</text>
</a>
</g>
<!-- http://purl.org/dc/terms/PeriodOfTime -->
<g id="node3" class="node"><title>http://purl.org/dc/terms/PeriodOfTime</title>
<a xlink:href="./#http://purl.org/dc/terms/PeriodOfTime" xlink:title="http://purl.org/dc/terms/PeriodOfTime">
<ellipse fill="none" stroke="black" cx="173" cy="-92" rx="173.242" ry="18"/>
<text text-anchor="middle" x="173" y="-87.4" font-family="Helvetica,sans-Serif" font-size="14.00">http://purl.org/dc/terms/PeriodOfTime</text>
</a>
</g>
<!-- ReportingPeriod&#45;&gt;http://purl.org/dc/terms/PeriodOfTime -->
<g id="edge2" class="edge"><title>ReportingPeriod&#45;&gt;http://purl.org/dc/terms/PeriodOfTime</title>
<path fill="none" stroke="red" stroke-dasharray="5,2" d="M173,-36.2921C173,-44.5365 173,-54.4624 173,-63.6378"/>
<polygon fill="red" stroke="red" points="169.5,-63.9182 173,-73.9183 176.5,-63.9183 169.5,-63.9182"/>
</g>
<!-- http://www.w3.org/2000/01/rdf&#45;schema#Literal -->
<g id="node5" class="node"><title>http://www.w3.org/2000/01/rdf&#45;schema#Literal</title>
<a xlink:href="./#http://www.w3.org/2000/01/rdf-schema#Literal" xlink:title="http://www.w3.org/2000/01/rdf&#45;schema#Literal">
<ellipse fill="none" stroke="gray" cx="364" cy="-180" rx="208.796" ry="18"/>
<text text-anchor="middle" x="364" y="-175.4" font-family="Helvetica,sans-Serif" font-size="14.00" fill="gray">http://www.w3.org/2000/01/rdf&#45;schema#Literal</text>
</a>
</g>
<!-- http://purl.org/dc/terms/PeriodOfTime&#45;&gt;http://www.w3.org/2000/01/rdf&#45;schema#Literal -->
<g id="edge8" class="edge"><title>http://purl.org/dc/terms/PeriodOfTime&#45;&gt;http://www.w3.org/2000/01/rdf&#45;schema#Literal</title>
<a xlink:href="./#duration" xlink:title="duration">
<path fill="none" stroke="darkslategray" d="M118.721,-109.118C99.2542,-118.052 84.794,-130.038 97,-144 104.955,-153.099 150.01,-160.719 200.911,-166.571"/>
<polygon fill="darkslategray" stroke="darkslategray" points="200.833,-170.084 211.16,-167.718 201.611,-163.128 200.833,-170.084"/>
</a>
<a xlink:href="./#duration" xlink:title="duration">
<text text-anchor="middle" x="124" y="-131.4" font-family="Helvetica,sans-Serif" font-size="14.00">duration</text>
</a>
</g>
<!-- http://purl.org/dc/terms/PeriodOfTime&#45;&gt;http://www.w3.org/2000/01/rdf&#45;schema#Literal -->
<g id="edge10" class="edge"><title>http://purl.org/dc/terms/PeriodOfTime&#45;&gt;http://www.w3.org/2000/01/rdf&#45;schema#Literal</title>
<a xlink:href="./#end" xlink:title="end">
<path fill="none" stroke="darkslategray" d="M168.063,-110.373C166.284,-121.354 166.309,-134.895 174,-144 181.2,-152.524 197.472,-159.049 217.618,-164.038"/>
<polygon fill="darkslategray" stroke="darkslategray" points="216.931,-167.471 227.46,-166.295 218.496,-160.648 216.931,-167.471"/>
</a>
<a xlink:href="./#end" xlink:title="end">
<text text-anchor="middle" x="186.5" y="-131.4" font-family="Helvetica,sans-Serif" font-size="14.00">end</text>
</a>
</g>
<!-- http://purl.org/dc/terms/PeriodOfTime&#45;&gt;http://www.w3.org/2000/01/rdf&#45;schema#Literal -->
<g id="edge16" class="edge"><title>http://purl.org/dc/terms/PeriodOfTime&#45;&gt;http://www.w3.org/2000/01/rdf&#45;schema#Literal</title>
<a xlink:href="./#start" xlink:title="start">
<path fill="none" stroke="darkslategray" d="M191.154,-110.146C203.24,-121.321 219.977,-135.154 237,-144 249.191,-150.335 262.637,-155.678 276.081,-160.145"/>
<polygon fill="darkslategray" stroke="darkslategray" points="275.262,-163.557 285.852,-163.244 277.379,-156.884 275.262,-163.557"/>
</a>
<a xlink:href="./#start" xlink:title="start">
<text text-anchor="middle" x="252.5" y="-131.4" font-family="Helvetica,sans-Serif" font-size="14.00">start</text>
</a>
</g>
<!-- Activity -->
<g id="node4" class="node"><title>Activity</title>
<a xlink:href="./#Activity" xlink:title="Activity">
<ellipse fill="none" stroke="gray" cx="433" cy="-92" rx="41.7645" ry="18"/>
<text text-anchor="middle" x="433" y="-87.4" font-family="Helvetica,sans-Serif" font-size="14.00" fill="gray">Activity</text>
</a>
</g>
<!-- Activity&#45;&gt;http://www.w3.org/2000/01/rdf&#45;schema#Literal -->
<g id="edge4" class="edge"><title>Activity&#45;&gt;http://www.w3.org/2000/01/rdf&#45;schema#Literal</title>
<a xlink:href="./#actualEnd" xlink:title="actualEnd">
<path fill="none" stroke="darkslategray" d="M395.71,-100.627C382.817,-103.605 368.275,-106.956 355,-110 319.9,-118.049 298.458,-99.8497 276,-128 266.055,-140.466 273.935,-150.588 288.352,-158.475"/>
<polygon fill="darkslategray" stroke="darkslategray" points="286.98,-161.698 297.51,-162.861 290.003,-155.385 286.98,-161.698"/>
</a>
<a xlink:href="./#actualEnd" xlink:title="actualEnd">
<text text-anchor="middle" x="309" y="-131.4" font-family="Helvetica,sans-Serif" font-size="14.00">actualEnd</text>
</a>
</g>
<!-- Activity&#45;&gt;http://www.w3.org/2000/01/rdf&#45;schema#Literal -->
<g id="edge6" class="edge"><title>Activity&#45;&gt;http://www.w3.org/2000/01/rdf&#45;schema#Literal</title>
<a xlink:href="./#actualStart" xlink:title="actualStart">
<path fill="none" stroke="darkslategray" d="M397.963,-102.174C385.354,-107.695 372.42,-115.94 365,-128 360.675,-135.03 359.311,-143.669 359.345,-151.872"/>
<polygon fill="darkslategray" stroke="darkslategray" points="355.855,-152.133 360.018,-161.875 362.839,-151.663 355.855,-152.133"/>
</a>
<a xlink:href="./#actualStart" xlink:title="actualStart">
<text text-anchor="middle" x="402" y="-131.4" font-family="Helvetica,sans-Serif" font-size="14.00">actualStart</text>
</a>
</g>
<!-- Activity&#45;&gt;http://www.w3.org/2000/01/rdf&#45;schema#Literal -->
<g id="edge12" class="edge"><title>Activity&#45;&gt;http://www.w3.org/2000/01/rdf&#45;schema#Literal</title>
<a xlink:href="./#plannedEnd" xlink:title="plannedEnd">
<path fill="none" stroke="darkslategray" d="M440.502,-110.124C443.646,-120.748 445.292,-134.001 439,-144 435.971,-148.813 432.1,-152.998 427.717,-156.633"/>
<polygon fill="darkslategray" stroke="darkslategray" points="425.458,-153.945 419.346,-162.599 429.521,-159.645 425.458,-153.945"/>
</a>
<a xlink:href="./#plannedEnd" xlink:title="plannedEnd">
<text text-anchor="middle" x="481" y="-131.4" font-family="Helvetica,sans-Serif" font-size="14.00">plannedEnd</text>
</a>
</g>
<!-- Activity&#45;&gt;http://www.w3.org/2000/01/rdf&#45;schema#Literal -->
<g id="edge14" class="edge"><title>Activity&#45;&gt;http://www.w3.org/2000/01/rdf&#45;schema#Literal</title>
<a xlink:href="./#plannedStart" xlink:title="plannedStart">
<path fill="none" stroke="darkslategray" d="M471.513,-99.5367C503.307,-107.508 540.571,-122.006 523,-144 517.075,-151.416 503.339,-157.418 486.291,-162.237"/>
<polygon fill="darkslategray" stroke="darkslategray" points="485.298,-158.879 476.508,-164.794 487.068,-165.651 485.298,-158.879"/>
</a>
<a xlink:href="./#plannedStart" xlink:title="plannedStart">
<text text-anchor="middle" x="569.5" y="-131.4" font-family="Helvetica,sans-Serif" font-size="14.00">plannedStart</text>
</a>
</g>
<!-- OutcomeToDate -->
<g id="node13" class="node"><title>OutcomeToDate</title>
<a xlink:href="./#OutcomeToDate" xlink:title="OutcomeToDate">
<ellipse fill="none" stroke="gray" cx="668" cy="-92" rx="84.0232" ry="18"/>
<text text-anchor="middle" x="668" y="-87.4" font-family="Helvetica,sans-Serif" font-size="14.00" fill="gray">OutcomeToDate</text>
</a>
</g>
<!-- OutcomeToDate&#45;&gt;http://www.w3.org/2000/01/rdf&#45;schema#Literal -->
<g id="edge18" class="edge"><title>OutcomeToDate&#45;&gt;http://www.w3.org/2000/01/rdf&#45;schema#Literal</title>
<a xlink:href="./#http://purl.org/dc/terms/date" xlink:title="http://purl.org/dc/terms/date">
<path fill="none" stroke="darkslategray" d="M655.085,-109.937C645.638,-121.626 631.759,-136.121 616,-144 597.878,-153.061 560.411,-160.249 519.78,-165.744"/>
<polygon fill="darkslategray" stroke="darkslategray" points="519.134,-162.299 509.674,-167.069 520.044,-169.24 519.134,-162.299"/>
</a>
<a xlink:href="./#http://purl.org/dc/terms/date" xlink:title="http://purl.org/dc/terms/date">
<text text-anchor="middle" x="727.5" y="-131.4" font-family="Helvetica,sans-Serif" font-size="14.00">http://purl.org/dc/terms/date</text>
</a>
</g>
<!-- OutputToDate -->
<g id="node15" class="node"><title>OutputToDate</title>
<a xlink:href="./#OutputToDate" xlink:title="OutputToDate">
<ellipse fill="none" stroke="gray" cx="872" cy="-92" rx="73.7902" ry="18"/>
<text text-anchor="middle" x="872" y="-87.4" font-family="Helvetica,sans-Serif" font-size="14.00" fill="gray">OutputToDate</text>
</a>
</g>
<!-- OutputToDate&#45;&gt;http://www.w3.org/2000/01/rdf&#45;schema#Literal -->
<g id="edge20" class="edge"><title>OutputToDate&#45;&gt;http://www.w3.org/2000/01/rdf&#45;schema#Literal</title>
<a xlink:href="./#http://purl.org/dc/terms/date" xlink:title="http://purl.org/dc/terms/date">
<path fill="none" stroke="darkslategray" d="M860.076,-109.993C851.126,-121.867 837.738,-136.558 822,-144 797.787,-155.45 672.895,-164.795 559.64,-171.092"/>
<polygon fill="darkslategray" stroke="darkslategray" points="559.214,-167.61 549.421,-171.654 559.598,-174.6 559.214,-167.61"/>
</a>
<a xlink:href="./#http://purl.org/dc/terms/date" xlink:title="http://purl.org/dc/terms/date">
<text text-anchor="middle" x="934.5" y="-131.4" font-family="Helvetica,sans-Serif" font-size="14.00">http://purl.org/dc/terms/date</text>
</a>
</g>
</g>
</svg>
