<?xml version="1.0" encoding="UTF-8" standalone="no"?>
<!DOCTYPE svg PUBLIC "-//W3C//DTD SVG 1.1//EN"
 "http://www.w3.org/Graphics/SVG/1.1/DTD/svg11.dtd">
<!-- Generated by graphviz version 2.26.3 (20100126.1600)
 -->
<!-- Title: _anonymous_0 Pages: 1 -->
<svg width="801pt" height="382pt"
 viewBox="0.00 0.00 801.00 382.00" xmlns="http://www.w3.org/2000/svg" xmlns:xlink="http://www.w3.org/1999/xlink">
<g id="graph1" class="graph" transform="scale(1 1) rotate(0) translate(4 378)">
<title>_anonymous_0</title>
<polygon fill="white" stroke="white" points="-4,5 -4,-378 798,-378 798,5 -4,5"/>
<!-- AdminUnit -->
<g id="node1" class="node"><title>AdminUnit</title>
<a xlink:href="./#AdminUnit" xlink:title="AdminUnit">
<ellipse fill="none" stroke="black" cx="571" cy="-92" rx="55.1765" ry="18"/>
<text text-anchor="middle" x="571" y="-87.4" font-family="Helvetica,sans-Serif" font-size="14.00">AdminUnit</text>
</a>
</g>
<!-- AdminUnit&#45;&gt;AdminUnit -->
<g id="edge32" class="edge"><title>AdminUnit&#45;&gt;AdminUnit</title>
<a xlink:href="./#inAdminUnit" xlink:title="inAdminUnit">
<path fill="none" stroke="darkslategray" d="M622.168,-85.3555C634.685,-85.8477 644,-88.0625 644,-92 644,-94.7686 639.395,-96.6855 632.309,-97.7507"/>
<polygon fill="darkslategray" stroke="darkslategray" points="631.822,-94.28 622.168,-98.6445 632.436,-101.253 631.822,-94.28"/>
</a>
<a xlink:href="./#inAdminUnit" xlink:title="inAdminUnit">
<text text-anchor="middle" x="682.5" y="-87.4" font-family="Helvetica,sans-Serif" font-size="14.00">inAdminUnit</text>
</a>
</g>
<!-- Feature -->
<g id="node3" class="node"><title>Feature</title>
<a xlink:href="./#Feature" xlink:title="Feature">
<ellipse fill="none" stroke="black" cx="346" cy="-180" rx="45.1145" ry="18"/>
<text text-anchor="middle" x="346" y="-175.4" font-family="Helvetica,sans-Serif" font-size="14.00">Feature</text>
</a>
</g>
<!-- AdminUnit&#45;&gt;Feature -->
<g id="edge2" class="edge"><title>AdminUnit&#45;&gt;Feature</title>
<path fill="none" stroke="red" stroke-dasharray="5,2" d="M554.337,-109.22C542.238,-120.739 524.909,-135.324 507,-144 473.391,-160.283 432.252,-169.318 399.972,-174.264"/>
<polygon fill="red" stroke="red" points="399.221,-170.836 389.824,-175.731 400.222,-177.764 399.221,-170.836"/>
</g>
<!-- AdminUnitLevel -->
<g id="node4" class="node"><title>AdminUnitLevel</title>
<a xlink:href="./#AdminUnitLevel" xlink:title="AdminUnitLevel">
<ellipse fill="none" stroke="black" cx="572" cy="-180" rx="77.8152" ry="18"/>
<text text-anchor="middle" x="572" y="-175.4" font-family="Helvetica,sans-Serif" font-size="14.00">AdminUnitLevel</text>
</a>
</g>
<!-- AdminUnit&#45;&gt;AdminUnitLevel -->
<g id="edge16" class="edge"><title>AdminUnit&#45;&gt;AdminUnitLevel</title>
<a xlink:href="./#atLevel" xlink:title="atLevel">
<path fill="none" stroke="darkslategray" d="M571.207,-110.234C571.343,-122.151 571.522,-137.962 571.676,-151.518"/>
<polygon fill="darkslategray" stroke="darkslategray" points="568.18,-151.83 571.793,-161.79 575.179,-151.751 568.18,-151.83"/>
</a>
<a xlink:href="./#atLevel" xlink:title="atLevel">
<text text-anchor="middle" x="595" y="-131.4" font-family="Helvetica,sans-Serif" font-size="14.00">atLevel</text>
</a>
</g>
<!-- Geometry -->
<g id="node8" class="node"><title>Geometry</title>
<a xlink:href="./#Geometry" xlink:title="Geometry">
<ellipse fill="none" stroke="black" cx="209" cy="-268" rx="53.838" ry="18"/>
<text text-anchor="middle" x="209" y="-263.4" font-family="Helvetica,sans-Serif" font-size="14.00">Geometry</text>
</a>
</g>
<!-- Feature&#45;&gt;Geometry -->
<g id="edge30" class="edge"><title>Feature&#45;&gt;Geometry</title>
<a xlink:href="./#hasGeometry" xlink:title="hasGeometry">
<path fill="none" stroke="darkslategray" d="M322.136,-195.328C300.151,-209.45 267.3,-230.552 242.653,-246.384"/>
<polygon fill="darkslategray" stroke="darkslategray" points="240.501,-243.606 233.979,-251.955 244.284,-249.496 240.501,-243.606"/>
</a>
<a xlink:href="./#hasGeometry" xlink:title="hasGeometry">
<text text-anchor="middle" x="333" y="-219.4" font-family="Helvetica,sans-Serif" font-size="14.00">hasGeometry</text>
</a>
</g>
<!-- BoundingBox -->
<g id="node5" class="node"><title>BoundingBox</title>
<a xlink:href="./#BoundingBox" xlink:title="BoundingBox">
<ellipse fill="none" stroke="black" cx="74" cy="-92" rx="67.082" ry="18"/>
<text text-anchor="middle" x="74" y="-87.4" font-family="Helvetica,sans-Serif" font-size="14.00">BoundingBox</text>
</a>
</g>
<!-- Polygon -->
<g id="node7" class="node"><title>Polygon</title>
<a xlink:href="./#Polygon" xlink:title="Polygon">
<ellipse fill="none" stroke="black" cx="75" cy="-180" rx="45.1145" ry="18"/>
<text text-anchor="middle" x="75" y="-175.4" font-family="Helvetica,sans-Serif" font-size="14.00">Polygon</text>
</a>
</g>
<!-- BoundingBox&#45;&gt;Polygon -->
<g id="edge4" class="edge"><title>BoundingBox&#45;&gt;Polygon</title>
<path fill="none" stroke="red" stroke-dasharray="5,2" d="M74.2072,-110.234C74.3426,-122.151 74.5223,-137.962 74.6763,-151.518"/>
<polygon fill="red" stroke="red" points="71.1796,-151.83 74.7931,-161.79 78.1791,-151.751 71.1796,-151.83"/>
</g>
<!-- Polygon&#45;&gt;Geometry -->
<g id="edge10" class="edge"><title>Polygon&#45;&gt;Geometry</title>
<path fill="none" stroke="red" stroke-dasharray="5,2" d="M98.6481,-195.53C120.061,-209.593 151.828,-230.454 175.787,-246.188"/>
<polygon fill="red" stroke="red" points="173.947,-249.167 184.227,-251.731 177.79,-243.316 173.947,-249.167"/>
</g>
<!-- Geometry&#45;&gt;Geometry -->
<g id="edge24" class="edge"><title>Geometry&#45;&gt;Geometry</title>
<a xlink:href="./#contains" xlink:title="contains">
<path fill="none" stroke="darkslategray" d="M263.007,-266.567C273.529,-266.733 281,-267.211 281,-268 281,-268.493 278.081,-268.865 273.324,-269.115"/>
<polygon fill="darkslategray" stroke="darkslategray" points="272.894,-265.626 263.007,-269.433 273.111,-272.623 272.894,-265.626"/>
</a>
<a xlink:href="./#contains" xlink:title="contains">
<text text-anchor="middle" x="308.5" y="-263.4" font-family="Helvetica,sans-Serif" font-size="14.00">contains</text>
</a>
</g>
<!-- Geometry&#45;&gt;Geometry -->
<g id="edge26" class="edge"><title>Geometry&#45;&gt;Geometry</title>
<a xlink:href="./#crosses" xlink:title="crosses">
<path fill="none" stroke="darkslategray" d="M250.769,-256.519C289.368,-251.693 336,-255.52 336,-268 336,-279.408 297.038,-283.586 260.863,-280.534"/>
<polygon fill="darkslategray" stroke="darkslategray" points="261.078,-277.037 250.769,-279.481 260.352,-283.999 261.078,-277.037"/>
</a>
<a xlink:href="./#crosses" xlink:title="crosses">
<text text-anchor="middle" x="361" y="-263.4" font-family="Helvetica,sans-Serif" font-size="14.00">crosses</text>
</a>
</g>
<!-- Geometry&#45;&gt;Geometry -->
<g id="edge28" class="edge"><title>Geometry&#45;&gt;Geometry</title>
<a xlink:href="./#equals" xlink:title="equals">
<path fill="none" stroke="darkslategray" d="M251.416,-256.809C306.274,-249.231 386,-252.961 386,-268 386,-282.128 315.636,-286.276 261.631,-280.443"/>
<polygon fill="darkslategray" stroke="darkslategray" points="261.767,-276.934 251.416,-279.191 260.916,-283.882 261.767,-276.934"/>
</a>
<a xlink:href="./#equals" xlink:title="equals">
<text text-anchor="middle" x="407.5" y="-263.4" font-family="Helvetica,sans-Serif" font-size="14.00">equals</text>
</a>
</g>
<!-- Geometry&#45;&gt;Geometry -->
<g id="edge34" class="edge"><title>Geometry&#45;&gt;Geometry</title>
<a xlink:href="./#intersects" xlink:title="intersects">
<path fill="none" stroke="darkslategray" d="M251.537,-256.904C318.995,-247.006 429,-250.705 429,-268 429,-284.45 329.476,-288.6 261.705,-280.449"/>
<polygon fill="darkslategray" stroke="darkslategray" points="261.911,-276.946 251.537,-279.096 260.988,-283.885 261.911,-276.946"/>
</a>
<a xlink:href="./#intersects" xlink:title="intersects">
<text text-anchor="middle" x="461" y="-263.4" font-family="Helvetica,sans-Serif" font-size="14.00">intersects</text>
</a>
</g>
<!-- Geometry&#45;&gt;Geometry -->
<g id="edge36" class="edge"><title>Geometry&#45;&gt;Geometry</title>
<a xlink:href="./#near" xlink:title="near">
<path fill="none" stroke="darkslategray" d="M252.126,-257.164C336.078,-244.818 493,-248.43 493,-268 493,-286.806 348.098,-290.876 262.284,-280.21"/>
<polygon fill="darkslategray" stroke="darkslategray" points="262.504,-276.708 252.126,-278.836 261.566,-283.645 262.504,-276.708"/>
</a>
<a xlink:href="./#near" xlink:title="near">
<text text-anchor="middle" x="508" y="-263.4" font-family="Helvetica,sans-Serif" font-size="14.00">near</text>
</a>
</g>
<!-- Geometry&#45;&gt;Geometry -->
<g id="edge38" class="edge"><title>Geometry&#45;&gt;Geometry</title>
<a xlink:href="./#overlaps" xlink:title="overlaps">
<path fill="none" stroke="darkslategray" d="M252.085,-256.998C343.852,-242.751 523,-246.418 523,-268 523,-288.823 356.227,-292.969 262.076,-280.438"/>
<polygon fill="darkslategray" stroke="darkslategray" points="262.481,-276.96 252.085,-279.002 261.485,-283.889 262.481,-276.96"/>
</a>
<a xlink:href="./#overlaps" xlink:title="overlaps">
<text text-anchor="middle" x="550.5" y="-263.4" font-family="Helvetica,sans-Serif" font-size="14.00">overlaps</text>
</a>
</g>
<!-- Geometry&#45;&gt;Geometry -->
<g id="edge40" class="edge"><title>Geometry&#45;&gt;Geometry</title>
<a xlink:href="./#touches" xlink:title="touches">
<path fill="none" stroke="darkslategray" d="M252.146,-257.096C356.488,-240.658 578,-244.293 578,-268 578,-290.966 370.116,-295.095 262.261,-280.387"/>
<polygon fill="darkslategray" stroke="darkslategray" points="262.548,-276.891 252.146,-278.904 261.533,-283.817 262.548,-276.891"/>
</a>
<a xlink:href="./#touches" xlink:title="touches">
<text text-anchor="middle" x="604" y="-263.4" font-family="Helvetica,sans-Serif" font-size="14.00">touches</text>
</a>
</g>
<!-- Geometry&#45;&gt;Geometry -->
<g id="edge42" class="edge"><title>Geometry&#45;&gt;Geometry</title>
<a xlink:href="./#within" xlink:title="within">
<path fill="none" stroke="darkslategray" d="M252.198,-257.124C367.823,-238.593 630,-242.219 630,-268 630,-293.051 382.463,-297.184 262.365,-280.398"/>
<polygon fill="darkslategray" stroke="darkslategray" points="262.606,-276.895 252.198,-278.876 261.57,-283.818 262.606,-276.895"/>
</a>
<a xlink:href="./#within" xlink:title="within">
<text text-anchor="middle" x="648.5" y="-263.4" font-family="Helvetica,sans-Serif" font-size="14.00">within</text>
</a>
</g>
<!-- http://www.w3.org/2000/01/rdf&#45;schema#Literal -->
<g id="node16" class="node"><title>http://www.w3.org/2000/01/rdf&#45;schema#Literal</title>
<a xlink:href="./#http://www.w3.org/2000/01/rdf-schema#Literal" xlink:title="http://www.w3.org/2000/01/rdf&#45;schema#Literal">
<ellipse fill="none" stroke="gray" cx="209" cy="-356" rx="208.796" ry="18"/>
<text text-anchor="middle" x="209" y="-351.4" font-family="Helvetica,sans-Serif" font-size="14.00" fill="gray">http://www.w3.org/2000/01/rdf&#45;schema#Literal</text>
</a>
</g>
<!-- Geometry&#45;&gt;http://www.w3.org/2000/01/rdf&#45;schema#Literal -->
<g id="edge14" class="edge"><title>Geometry&#45;&gt;http://www.w3.org/2000/01/rdf&#45;schema#Literal</title>
<a xlink:href="./#asWKT" xlink:title="asWKT">
<path fill="none" stroke="darkslategray" d="M209,-286.234C209,-298.151 209,-313.962 209,-327.518"/>
<polygon fill="darkslategray" stroke="darkslategray" points="205.5,-327.79 209,-337.79 212.5,-327.79 205.5,-327.79"/>
</a>
<a xlink:href="./#asWKT" xlink:title="asWKT">
<text text-anchor="middle" x="233" y="-307.4" font-family="Helvetica,sans-Serif" font-size="14.00">asWKT</text>
</a>
</g>
<!-- Line -->
<g id="node9" class="node"><title>Line</title>
<a xlink:href="./#Line" xlink:title="Line">
<ellipse fill="none" stroke="black" cx="169" cy="-180" rx="28.8453" ry="18"/>
<text text-anchor="middle" x="169" y="-175.4" font-family="Helvetica,sans-Serif" font-size="14.00">Line</text>
</a>
</g>
<!-- Line&#45;&gt;Geometry -->
<g id="edge6" class="edge"><title>Line&#45;&gt;Geometry</title>
<path fill="none" stroke="red" stroke-dasharray="5,2" d="M176.903,-197.386C182.526,-209.758 190.194,-226.627 196.625,-240.775"/>
<polygon fill="red" stroke="red" points="193.515,-242.391 200.839,-250.046 199.887,-239.494 193.515,-242.391"/>
</g>
<!-- Point -->
<g id="node11" class="node"><title>Point</title>
<a xlink:href="./#Point" xlink:title="Point">
<ellipse fill="none" stroke="black" cx="249" cy="-180" rx="33.0404" ry="18"/>
<text text-anchor="middle" x="249" y="-175.4" font-family="Helvetica,sans-Serif" font-size="14.00">Point</text>
</a>
</g>
<!-- Point&#45;&gt;Geometry -->
<g id="edge8" class="edge"><title>Point&#45;&gt;Geometry</title>
<path fill="none" stroke="red" stroke-dasharray="5,2" d="M240.905,-197.808C235.304,-210.131 227.743,-226.764 221.388,-240.746"/>
<polygon fill="red" stroke="red" points="218.172,-239.364 217.22,-249.916 224.544,-242.261 218.172,-239.364"/>
</g>
<!-- PopulatedPlace -->
<g id="node14" class="node"><title>PopulatedPlace</title>
<a xlink:href="./#PopulatedPlace" xlink:title="PopulatedPlace">
<ellipse fill="none" stroke="black" cx="571" cy="-18" rx="79.8276" ry="18"/>
<text text-anchor="middle" x="571" y="-13.4" font-family="Helvetica,sans-Serif" font-size="14.00">PopulatedPlace</text>
</a>
</g>
<!-- PopulatedPlace&#45;&gt;AdminUnit -->
<g id="edge12" class="edge"><title>PopulatedPlace&#45;&gt;AdminUnit</title>
<path fill="none" stroke="red" stroke-dasharray="5,2" d="M571,-36.2921C571,-44.5365 571,-54.4624 571,-63.6378"/>
<polygon fill="red" stroke="red" points="567.5,-63.9182 571,-73.9183 574.5,-63.9183 567.5,-63.9182"/>
</g>
<!-- Emergency -->
<g id="node19" class="node"><title>Emergency</title>
<a xlink:href="./#Emergency" xlink:title="Emergency">
<ellipse fill="none" stroke="gray" cx="219" cy="-92" rx="59.8749" ry="18"/>
<text text-anchor="middle" x="219" y="-87.4" font-family="Helvetica,sans-Serif" font-size="14.00" fill="gray">Emergency</text>
</a>
</g>
<!-- Emergency&#45;&gt;Feature -->
<g id="edge18" class="edge"><title>Emergency&#45;&gt;Feature</title>
<a xlink:href="./#atLocation" xlink:title="atLocation">
<path fill="none" stroke="darkslategray" d="M234.471,-109.878C244.439,-120.673 258.096,-134.192 272,-144 282.124,-151.141 293.881,-157.575 305.002,-162.962"/>
<polygon fill="darkslategray" stroke="darkslategray" points="303.603,-166.171 314.144,-167.233 306.566,-159.829 303.603,-166.171"/>
</a>
<a xlink:href="./#atLocation" xlink:title="atLocation">
<text text-anchor="middle" x="307" y="-131.4" font-family="Helvetica,sans-Serif" font-size="14.00">atLocation</text>
</a>
</g>
<!-- Situation -->
<g id="node21" class="node"><title>Situation</title>
<a xlink:href="./#Situation" xlink:title="Situation">
<ellipse fill="none" stroke="gray" cx="346" cy="-92" rx="49.1393" ry="18"/>
<text text-anchor="middle" x="346" y="-87.4" font-family="Helvetica,sans-Serif" font-size="14.00" fill="gray">Situation</text>
</a>
</g>
<!-- Situation&#45;&gt;Feature -->
<g id="edge20" class="edge"><title>Situation&#45;&gt;Feature</title>
<a xlink:href="./#atLocation" xlink:title="atLocation">
<path fill="none" stroke="darkslategray" d="M346,-110.234C346,-122.151 346,-137.962 346,-151.518"/>
<polygon fill="darkslategray" stroke="darkslategray" points="342.5,-151.79 346,-161.79 349.5,-151.79 342.5,-151.79"/>
</a>
<a xlink:href="./#atLocation" xlink:title="atLocation">
<text text-anchor="middle" x="381" y="-131.4" font-family="Helvetica,sans-Serif" font-size="14.00">atLocation</text>
</a>
</g>
<!-- Activity -->
<g id="node23" class="node"><title>Activity</title>
<a xlink:href="./#Activity" xlink:title="Activity">
<ellipse fill="none" stroke="gray" cx="455" cy="-92" rx="41.7645" ry="18"/>
<text text-anchor="middle" x="455" y="-87.4" font-family="Helvetica,sans-Serif" font-size="14.00" fill="gray">Activity</text>
</a>
</g>
<!-- Activity&#45;&gt;Feature -->
<g id="edge22" class="edge"><title>Activity&#45;&gt;Feature</title>
<a xlink:href="./#atLocation" xlink:title="atLocation">
<path fill="none" stroke="darkslategray" d="M446.228,-109.655C440.079,-120.634 431.005,-134.433 420,-144 410.993,-151.829 399.986,-158.382 389.242,-163.658"/>
<polygon fill="darkslategray" stroke="darkslategray" points="387.533,-160.592 379.925,-167.965 390.471,-166.946 387.533,-160.592"/>
</a>
<a xlink:href="./#atLocation" xlink:title="atLocation">
<text text-anchor="middle" x="468" y="-131.4" font-family="Helvetica,sans-Serif" font-size="14.00">atLocation</text>
</a>
</g>
</g>
</svg>
