<?xml version="1.0" encoding="UTF-8" standalone="no"?>
<!DOCTYPE svg PUBLIC "-//W3C//DTD SVG 1.1//EN"
 "http://www.w3.org/Graphics/SVG/1.1/DTD/svg11.dtd">
<!-- Generated by graphviz version 2.26.3 (20100126.1600)
 -->
<!-- Title: _anonymous_0 Pages: 1 -->
<svg width="1326pt" height="132pt"
 viewBox="0.00 0.00 1326.00 132.00" xmlns="http://www.w3.org/2000/svg" xmlns:xlink="http://www.w3.org/1999/xlink">
<g id="graph1" class="graph" transform="scale(1 1) rotate(0) translate(4 128)">
<title>_anonymous_0</title>
<polygon fill="white" stroke="white" points="-4,5 -4,-128 1323,-128 1323,5 -4,5"/>
<!-- ApprovalLevel -->
<g id="node1" class="node"><title>ApprovalLevel</title>
<a xlink:href="./#ApprovalLevel" xlink:title="ApprovalLevel">
<ellipse fill="none" stroke="black" cx="71" cy="-106" rx="71.107" ry="18"/>
<text text-anchor="middle" x="71" y="-101.4" font-family="Helvetica,sans-Serif" font-size="14.00">ApprovalLevel</text>
</a>
</g>
<!-- DataContainer -->
<g id="node2" class="node"><title>DataContainer</title>
<a xlink:href="./#DataContainer" xlink:title="DataContainer">
<ellipse fill="none" stroke="black" cx="457" cy="-18" rx="75.1319" ry="18"/>
<text text-anchor="middle" x="457" y="-13.4" font-family="Helvetica,sans-Serif" font-size="14.00">DataContainer</text>
</a>
</g>
<!-- DataContainer&#45;&gt;ApprovalLevel -->
<g id="edge2" class="edge"><title>DataContainer&#45;&gt;ApprovalLevel</title>
<a xlink:href="./#approvedAtLevel" xlink:title="approvedAtLevel">
<path fill="none" stroke="darkslategray" d="M383.937,-22.3571C329.643,-26.9105 254.184,-36.0293 190,-54 162.834,-61.6061 133.795,-74.1995 111.204,-85.0879"/>
<polygon fill="darkslategray" stroke="darkslategray" points="109.379,-82.0848 101.941,-89.6304 112.461,-88.3698 109.379,-82.0848"/>
</a>
<a xlink:href="./#approvedAtLevel" xlink:title="approvedAtLevel">
<text text-anchor="middle" x="244.5" y="-57.4" font-family="Helvetica,sans-Serif" font-size="14.00">approvedAtLevel</text>
</a>
</g>
<!-- http://xmlns.com/foaf/0.1/Agent -->
<g id="node4" class="node"><title>http://xmlns.com/foaf/0.1/Agent</title>
<a xlink:href="./#http://xmlns.com/foaf/0.1/Agent" xlink:title="http://xmlns.com/foaf/0.1/Agent">
<ellipse fill="none" stroke="gray" cx="305" cy="-106" rx="145.068" ry="18"/>
<text text-anchor="middle" x="305" y="-101.4" font-family="Helvetica,sans-Serif" font-size="14.00" fill="gray">http://xmlns.com/foaf/0.1/Agent</text>
</a>
</g>
<!-- DataContainer&#45;&gt;http://xmlns.com/foaf/0.1/Agent -->
<g id="edge4" class="edge"><title>DataContainer&#45;&gt;http://xmlns.com/foaf/0.1/Agent</title>
<a xlink:href="./#approvedBy" xlink:title="approvedBy">
<path fill="none" stroke="darkslategray" d="M390.417,-26.4646C356.384,-32.2457 319.875,-41.2056 309,-54 303.557,-60.4032 301.536,-68.9984 301.169,-77.3545"/>
<polygon fill="darkslategray" stroke="darkslategray" points="297.678,-77.7305 301.458,-87.6282 304.676,-77.5338 297.678,-77.7305"/>
</a>
<a xlink:href="./#approvedBy" xlink:title="approvedBy">
<text text-anchor="middle" x="347" y="-57.4" font-family="Helvetica,sans-Serif" font-size="14.00">approvedBy</text>
</a>
</g>
<!-- DataContainer&#45;&gt;http://xmlns.com/foaf/0.1/Agent -->
<g id="edge12" class="edge"><title>DataContainer&#45;&gt;http://xmlns.com/foaf/0.1/Agent</title>
<a xlink:href="./#reportedBy" xlink:title="reportedBy">
<path fill="none" stroke="darkslategray" d="M435.404,-35.3691C421.494,-46.1016 402.754,-59.7361 385,-70 376.199,-75.0882 366.548,-79.9704 357.09,-84.4083"/>
<polygon fill="darkslategray" stroke="darkslategray" points="355.371,-81.3457 347.734,-88.6891 358.283,-87.711 355.371,-81.3457"/>
</a>
<a xlink:href="./#reportedBy" xlink:title="reportedBy">
<text text-anchor="middle" x="446.5" y="-57.4" font-family="Helvetica,sans-Serif" font-size="14.00">reportedBy</text>
</a>
</g>
<!-- http://www.w3.org/2001/XMLSchema#boolean -->
<g id="node6" class="node"><title>http://www.w3.org/2001/XMLSchema#boolean</title>
<a xlink:href="./#http://www.w3.org/2001/XMLSchema#boolean" xlink:title="http://www.w3.org/2001/XMLSchema#boolean">
<ellipse fill="none" stroke="gray" cx="675" cy="-106" rx="206.784" ry="18"/>
<text text-anchor="middle" x="675" y="-101.4" font-family="Helvetica,sans-Serif" font-size="14.00" fill="gray">http://www.w3.org/2001/XMLSchema#boolean</text>
</a>
</g>
<!-- DataContainer&#45;&gt;http://www.w3.org/2001/XMLSchema#boolean -->
<g id="edge6" class="edge"><title>DataContainer&#45;&gt;http://www.w3.org/2001/XMLSchema#boolean</title>
<a xlink:href="./#containsPrimaryData" xlink:title="containsPrimaryData">
<path fill="none" stroke="darkslategray" d="M472.839,-35.9945C483.848,-47.4008 499.466,-61.5484 516,-70 530.087,-77.2009 545.603,-82.9735 561.252,-87.5982"/>
<polygon fill="darkslategray" stroke="darkslategray" points="560.428,-91.0021 571.002,-90.332 562.318,-84.262 560.428,-91.0021"/>
</a>
<a xlink:href="./#containsPrimaryData" xlink:title="containsPrimaryData">
<text text-anchor="middle" x="584" y="-57.4" font-family="Helvetica,sans-Serif" font-size="14.00">containsPrimaryData</text>
</a>
</g>
<!-- DataContainer&#45;&gt;http://www.w3.org/2001/XMLSchema#boolean -->
<g id="edge8" class="edge"><title>DataContainer&#45;&gt;http://www.w3.org/2001/XMLSchema#boolean</title>
<a xlink:href="./#containsSecondaryData" xlink:title="containsSecondaryData">
<path fill="none" stroke="darkslategray" d="M527.661,-24.1034C575.326,-29.4979 632.885,-38.9043 652,-54 659.737,-60.1104 664.938,-69.3678 668.404,-78.3866"/>
<polygon fill="darkslategray" stroke="darkslategray" points="665.086,-79.5026 671.522,-87.9191 671.74,-77.3265 665.086,-79.5026"/>
</a>
<a xlink:href="./#containsSecondaryData" xlink:title="containsSecondaryData">
<text text-anchor="middle" x="742" y="-57.4" font-family="Helvetica,sans-Serif" font-size="14.00">containsSecondaryData</text>
</a>
</g>
<!-- http://www.w3.org/2000/01/rdf&#45;schema#Literal -->
<g id="node9" class="node"><title>http://www.w3.org/2000/01/rdf&#45;schema#Literal</title>
<a xlink:href="./#http://www.w3.org/2000/01/rdf-schema#Literal" xlink:title="http://www.w3.org/2000/01/rdf&#45;schema#Literal">
<ellipse fill="none" stroke="gray" cx="1109" cy="-106" rx="208.796" ry="18"/>
<text text-anchor="middle" x="1109" y="-101.4" font-family="Helvetica,sans-Serif" font-size="14.00" fill="gray">http://www.w3.org/2000/01/rdf&#45;schema#Literal</text>
</a>
</g>
<!-- DataContainer&#45;&gt;http://www.w3.org/2000/01/rdf&#45;schema#Literal -->
<g id="edge10" class="edge"><title>DataContainer&#45;&gt;http://www.w3.org/2000/01/rdf&#45;schema#Literal</title>
<a xlink:href="./#dataCollectionProcess" xlink:title="dataCollectionProcess">
<path fill="none" stroke="darkslategray" d="M528.938,-23.288C603.082,-29.1524 721.922,-39.706 824,-54 889.197,-63.1295 962.229,-76.5172 1018.04,-87.4221"/>
<polygon fill="darkslategray" stroke="darkslategray" points="1017.42,-90.866 1027.9,-89.358 1018.76,-83.9971 1017.42,-90.866"/>
</a>
<a xlink:href="./#dataCollectionProcess" xlink:title="dataCollectionProcess">
<text text-anchor="middle" x="992" y="-57.4" font-family="Helvetica,sans-Serif" font-size="14.00">dataCollectionProcess</text>
</a>
</g>
</g>
</svg>
