<?xml version="1.0" encoding="UTF-8" standalone="no"?>
<!DOCTYPE svg PUBLIC "-//W3C//DTD SVG 1.1//EN"
 "http://www.w3.org/Graphics/SVG/1.1/DTD/svg11.dtd">
<!-- Generated by graphviz version 2.26.3 (20100126.1600)
 -->
<!-- Title: _anonymous_0 Pages: 1 -->
<svg width="1487pt" height="294pt"
 viewBox="0.00 0.00 1487.00 294.00" xmlns="http://www.w3.org/2000/svg" xmlns:xlink="http://www.w3.org/1999/xlink">
<g id="graph1" class="graph" transform="scale(1 1) rotate(0) translate(4 290)">
<title>_anonymous_0</title>
<polygon fill="white" stroke="white" points="-4,5 -4,-290 1484,-290 1484,5 -4,5"/>
<!-- Activity -->
<g id="node1" class="node"><title>Activity</title>
<a xlink:href="./#Activity" xlink:title="Activity">
<ellipse fill="none" stroke="black" cx="923" cy="-106" rx="41.7645" ry="18"/>
<text text-anchor="middle" x="923" y="-101.4" font-family="Helvetica,sans-Serif" font-size="14.00">Activity</text>
</a>
</g>
<!-- Activity&#45;&gt;Activity -->
<g id="edge28" class="edge"><title>Activity&#45;&gt;Activity</title>
<a xlink:href="./#hasPart" xlink:title="hasPart">
<path fill="none" stroke="darkslategray" d="M960.5,-97.75C973,-97.75 983,-100.5 983,-106 983,-109.867 978.056,-112.375 970.776,-113.523"/>
<polygon fill="darkslategray" stroke="darkslategray" points="970.228,-110.053 960.5,-114.25 970.722,-117.035 970.228,-110.053"/>
</a>
<a xlink:href="./#hasPart" xlink:title="hasPart">
<text text-anchor="middle" x="1009" y="-101.4" font-family="Helvetica,sans-Serif" font-size="14.00">hasPart</text>
</a>
</g>
<!-- Objective -->
<g id="node5" class="node"><title>Objective</title>
<a xlink:href="./#Objective" xlink:title="Objective">
<ellipse fill="none" stroke="black" cx="379" cy="-194" rx="51.1517" ry="18"/>
<text text-anchor="middle" x="379" y="-189.4" font-family="Helvetica,sans-Serif" font-size="14.00">Objective</text>
</a>
</g>
<!-- Activity&#45;&gt;Objective -->
<g id="edge24" class="edge"><title>Activity&#45;&gt;Objective</title>
<a xlink:href="./#hasObjective" xlink:title="hasObjective">
<path fill="none" stroke="darkslategray" d="M881.226,-108.903C783.13,-115.825 543.624,-133.361 508,-142 489.792,-146.416 486.364,-150.965 469,-158 453.902,-164.116 437.355,-170.754 422.612,-176.645"/>
<polygon fill="darkslategray" stroke="darkslategray" points="421.208,-173.437 413.218,-180.395 423.803,-179.938 421.208,-173.437"/>
</a>
<a xlink:href="./#hasObjective" xlink:title="hasObjective">
<text text-anchor="middle" x="550" y="-145.4" font-family="Helvetica,sans-Serif" font-size="14.00">hasObjective</text>
</a>
</g>
<!-- Organisation -->
<g id="node6" class="node"><title>Organisation</title>
<a xlink:href="./#Organisation" xlink:title="Organisation">
<ellipse fill="none" stroke="black" cx="777" cy="-194" rx="65.9119" ry="18"/>
<text text-anchor="middle" x="777" y="-189.4" font-family="Helvetica,sans-Serif" font-size="14.00">Organisation</text>
</a>
</g>
<!-- Activity&#45;&gt;Organisation -->
<g id="edge22" class="edge"><title>Activity&#45;&gt;Organisation</title>
<a xlink:href="./#hasBeneficiary" xlink:title="hasBeneficiary">
<path fill="none" stroke="darkslategray" d="M880.997,-107.6C797.592,-111.211 617.495,-121.336 599,-142 594.257,-147.299 594.498,-152.496 599,-158 612.306,-174.267 660.024,-183.354 702.706,-188.328"/>
<polygon fill="darkslategray" stroke="darkslategray" points="702.53,-191.83 712.854,-189.447 703.297,-184.872 702.53,-191.83"/>
</a>
<a xlink:href="./#hasBeneficiary" xlink:title="hasBeneficiary">
<text text-anchor="middle" x="646.5" y="-145.4" font-family="Helvetica,sans-Serif" font-size="14.00">hasBeneficiary</text>
</a>
</g>
<!-- Activity&#45;&gt;Organisation -->
<g id="edge34" class="edge"><title>Activity&#45;&gt;Organisation</title>
<a xlink:href="./#implementedBy" xlink:title="implementedBy">
<path fill="none" stroke="darkslategray" d="M881.98,-110.231C824.215,-116.608 724.705,-129.294 714,-142 703.823,-154.08 714.426,-165.491 729.653,-174.529"/>
<polygon fill="darkslategray" stroke="darkslategray" points="728.024,-177.627 738.486,-179.295 731.348,-171.466 728.024,-177.627"/>
</a>
<a xlink:href="./#implementedBy" xlink:title="implementedBy">
<text text-anchor="middle" x="764" y="-145.4" font-family="Helvetica,sans-Serif" font-size="14.00">implementedBy</text>
</a>
</g>
<!-- Activity&#45;&gt;Organisation -->
<g id="edge20" class="edge"><title>Activity&#45;&gt;Organisation</title>
<a xlink:href="./#fundedBy" xlink:title="fundedBy">
<path fill="none" stroke="darkslategray" d="M890.424,-117.665C874.673,-123.913 855.804,-132.318 840,-142 826.96,-149.988 813.728,-160.473 802.779,-169.933"/>
<polygon fill="darkslategray" stroke="darkslategray" points="800.422,-167.346 795.246,-176.591 805.057,-172.591 800.422,-167.346"/>
</a>
<a xlink:href="./#fundedBy" xlink:title="fundedBy">
<text text-anchor="middle" x="870.5" y="-145.4" font-family="Helvetica,sans-Serif" font-size="14.00">fundedBy</text>
</a>
</g>
<!-- Priority -->
<g id="node15" class="node"><title>Priority</title>
<a xlink:href="./#Priority" xlink:title="Priority">
<ellipse fill="none" stroke="black" cx="1007" cy="-194" rx="41.7645" ry="18"/>
<text text-anchor="middle" x="1007" y="-189.4" font-family="Helvetica,sans-Serif" font-size="14.00">Priority</text>
</a>
</g>
<!-- Activity&#45;&gt;Priority -->
<g id="edge30" class="edge"><title>Activity&#45;&gt;Priority</title>
<a xlink:href="./#hasPriority" xlink:title="hasPriority">
<path fill="none" stroke="darkslategray" d="M954.641,-117.893C966.439,-123.651 979.111,-131.609 988,-142 993.928,-148.929 998.072,-157.865 1000.94,-166.367"/>
<polygon fill="darkslategray" stroke="darkslategray" points="997.59,-167.384 1003.75,-176.004 1004.31,-165.424 997.59,-167.384"/>
</a>
<a xlink:href="./#hasPriority" xlink:title="hasPriority">
<text text-anchor="middle" x="1032" y="-145.4" font-family="Helvetica,sans-Serif" font-size="14.00">hasPriority</text>
</a>
</g>
<!-- Status -->
<g id="node17" class="node"><title>Status</title>
<a xlink:href="./#Status" xlink:title="Status">
<ellipse fill="none" stroke="black" cx="1106" cy="-194" rx="39.0774" ry="18"/>
<text text-anchor="middle" x="1106" y="-189.4" font-family="Helvetica,sans-Serif" font-size="14.00">Status</text>
</a>
</g>
<!-- Activity&#45;&gt;Status -->
<g id="edge32" class="edge"><title>Activity&#45;&gt;Status</title>
<a xlink:href="./#hasStatus" xlink:title="hasStatus">
<path fill="none" stroke="darkslategray" d="M962.505,-112.289C1000.17,-118.868 1053.64,-129.907 1071,-142 1080.11,-148.345 1087.51,-157.889 1093.13,-167.075"/>
<polygon fill="darkslategray" stroke="darkslategray" points="1090.2,-169.003 1098.14,-176.011 1096.3,-165.577 1090.2,-169.003"/>
</a>
<a xlink:href="./#hasStatus" xlink:title="hasStatus">
<text text-anchor="middle" x="1119" y="-145.4" font-family="Helvetica,sans-Serif" font-size="14.00">hasStatus</text>
</a>
</g>
<!-- Need -->
<g id="node18" class="node"><title>Need</title>
<a xlink:href="./#Need" xlink:title="Need">
<ellipse fill="none" stroke="gray" cx="1237" cy="-194" rx="34.2118" ry="18"/>
<text text-anchor="middle" x="1237" y="-189.4" font-family="Helvetica,sans-Serif" font-size="14.00" fill="gray">Need</text>
</a>
</g>
<!-- Activity&#45;&gt;Need -->
<g id="edge12" class="edge"><title>Activity&#45;&gt;Need</title>
<a xlink:href="./#addresses" xlink:title="addresses">
<path fill="none" stroke="darkslategray" d="M964.259,-110.29C1021.48,-116.595 1121.74,-129.026 1156,-142 1175.33,-149.322 1194.9,-161.712 1209.96,-172.561"/>
<polygon fill="darkslategray" stroke="darkslategray" points="1208.15,-175.577 1218.26,-178.721 1212.32,-169.954 1208.15,-175.577"/>
</a>
<a xlink:href="./#addresses" xlink:title="addresses">
<text text-anchor="middle" x="1219.5" y="-145.4" font-family="Helvetica,sans-Serif" font-size="14.00">addresses</text>
</a>
</g>
<!-- Cluster -->
<g id="node2" class="node"><title>Cluster</title>
<a xlink:href="./#Cluster" xlink:title="Cluster">
<ellipse fill="none" stroke="black" cx="1387" cy="-18" rx="41.7645" ry="18"/>
<text text-anchor="middle" x="1387" y="-13.4" font-family="Helvetica,sans-Serif" font-size="14.00">Cluster</text>
</a>
</g>
<!-- ImpactPlanned -->
<g id="node3" class="node"><title>ImpactPlanned</title>
<a xlink:href="./#ImpactPlanned" xlink:title="ImpactPlanned">
<ellipse fill="none" stroke="black" cx="76" cy="-106" rx="75.8027" ry="18"/>
<text text-anchor="middle" x="76" y="-101.4" font-family="Helvetica,sans-Serif" font-size="14.00">ImpactPlanned</text>
</a>
</g>
<!-- ImpactPlanned&#45;&gt;Objective -->
<g id="edge2" class="edge"><title>ImpactPlanned&#45;&gt;Objective</title>
<path fill="none" stroke="red" stroke-dasharray="5,2" d="M124.346,-120.041C180.616,-136.383 273.04,-163.226 329.71,-179.685"/>
<polygon fill="red" stroke="red" points="328.936,-183.104 339.515,-182.532 330.888,-176.382 328.936,-183.104"/>
</g>
<!-- Organisation&#45;&gt;Activity -->
<g id="edge36" class="edge"><title>Organisation&#45;&gt;Activity</title>
<a xlink:href="./#involvedIn" xlink:title="involvedIn">
<path fill="none" stroke="darkslategray" d="M830.294,-183.303C858.791,-176.671 890.193,-167.605 901,-158 908.187,-151.613 913.096,-142.486 916.418,-133.657"/>
<polygon fill="darkslategray" stroke="darkslategray" points="919.801,-134.569 919.531,-123.978 913.137,-132.426 919.801,-134.569"/>
</a>
<a xlink:href="./#involvedIn" xlink:title="involvedIn">
<text text-anchor="middle" x="944" y="-145.4" font-family="Helvetica,sans-Serif" font-size="14.00">involvedIn</text>
</a>
</g>
<!-- http://xmlns.com/foaf/0.1/Organisation -->
<g id="node8" class="node"><title>http://xmlns.com/foaf/0.1/Organisation</title>
<a xlink:href="./#http://xmlns.com/foaf/0.1/Organisation" xlink:title="http://xmlns.com/foaf/0.1/Organisation">
<ellipse fill="none" stroke="black" cx="777" cy="-268" rx="175.084" ry="18"/>
<text text-anchor="middle" x="777" y="-263.4" font-family="Helvetica,sans-Serif" font-size="14.00">http://xmlns.com/foaf/0.1/Organisation</text>
</a>
</g>
<!-- Organisation&#45;&gt;http://xmlns.com/foaf/0.1/Organisation -->
<g id="edge4" class="edge"><title>Organisation&#45;&gt;http://xmlns.com/foaf/0.1/Organisation</title>
<path fill="none" stroke="red" stroke-dasharray="5,2" d="M777,-212.292C777,-220.536 777,-230.462 777,-239.638"/>
<polygon fill="red" stroke="red" points="773.5,-239.918 777,-249.918 780.5,-239.918 773.5,-239.918"/>
</g>
<!-- OutcomePlanned -->
<g id="node9" class="node"><title>OutcomePlanned</title>
<a xlink:href="./#OutcomePlanned" xlink:title="OutcomePlanned">
<ellipse fill="none" stroke="black" cx="256" cy="-106" rx="86.0356" ry="18"/>
<text text-anchor="middle" x="256" y="-101.4" font-family="Helvetica,sans-Serif" font-size="14.00">OutcomePlanned</text>
</a>
</g>
<!-- OutcomePlanned&#45;&gt;Objective -->
<g id="edge6" class="edge"><title>OutcomePlanned&#45;&gt;Objective</title>
<path fill="none" stroke="red" stroke-dasharray="5,2" d="M280.301,-123.386C299.745,-137.298 327.137,-156.895 348.132,-171.916"/>
<polygon fill="red" stroke="red" points="346.239,-174.865 356.409,-177.837 350.312,-169.172 346.239,-174.865"/>
</g>
<!-- OutcomeToDate -->
<g id="node11" class="node"><title>OutcomeToDate</title>
<a xlink:href="./#OutcomeToDate" xlink:title="OutcomeToDate">
<ellipse fill="none" stroke="black" cx="298" cy="-18" rx="84.0232" ry="18"/>
<text text-anchor="middle" x="298" y="-13.4" font-family="Helvetica,sans-Serif" font-size="14.00">OutcomeToDate</text>
</a>
</g>
<!-- OutcomeToDate&#45;&gt;OutcomePlanned -->
<g id="edge14" class="edge"><title>OutcomeToDate&#45;&gt;OutcomePlanned</title>
<a xlink:href="./#completedOutcomeOf" xlink:title="completedOutcomeOf">
<path fill="none" stroke="darkslategray" d="M237.42,-30.5215C214.283,-36.6372 191.804,-44.6914 185,-54 175.73,-66.6828 185.359,-77.5662 200.203,-86.0496"/>
<polygon fill="darkslategray" stroke="darkslategray" points="198.943,-89.336 209.441,-90.7627 202.124,-83.1005 198.943,-89.336"/>
</a>
<a xlink:href="./#completedOutcomeOf" xlink:title="completedOutcomeOf">
<text text-anchor="middle" x="257.5" y="-57.4" font-family="Helvetica,sans-Serif" font-size="14.00">completedOutcomeOf</text>
</a>
</g>
<!-- Indicator -->
<g id="node34" class="node"><title>Indicator</title>
<a xlink:href="./#Indicator" xlink:title="Indicator">
<ellipse fill="none" stroke="gray" cx="409" cy="-106" rx="49.1393" ry="18"/>
<text text-anchor="middle" x="409" y="-101.4" font-family="Helvetica,sans-Serif" font-size="14.00" fill="gray">Indicator</text>
</a>
</g>
<!-- OutcomeToDate&#45;&gt;Indicator -->
<g id="edge40" class="edge"><title>OutcomeToDate&#45;&gt;Indicator</title>
<a xlink:href="./#measurementOf" xlink:title="measurementOf">
<path fill="none" stroke="darkslategray" d="M315.081,-35.7363C325.578,-46.2227 339.55,-59.4676 353,-70 359.59,-75.1608 366.933,-80.2827 374.076,-84.9748"/>
<polygon fill="darkslategray" stroke="darkslategray" points="372.637,-88.2095 382.945,-90.6588 376.414,-82.316 372.637,-88.2095"/>
</a>
<a xlink:href="./#measurementOf" xlink:title="measurementOf">
<text text-anchor="middle" x="406" y="-57.4" font-family="Helvetica,sans-Serif" font-size="14.00">measurementOf</text>
</a>
</g>
<!-- OutputPlanned -->
<g id="node12" class="node"><title>OutputPlanned</title>
<a xlink:href="./#OutputPlanned" xlink:title="OutputPlanned">
<ellipse fill="none" stroke="black" cx="581" cy="-106" rx="75.8027" ry="18"/>
<text text-anchor="middle" x="581" y="-101.4" font-family="Helvetica,sans-Serif" font-size="14.00">OutputPlanned</text>
</a>
</g>
<!-- OutputPlanned&#45;&gt;Objective -->
<g id="edge8" class="edge"><title>OutputPlanned&#45;&gt;Objective</title>
<path fill="none" stroke="red" stroke-dasharray="5,2" d="M532.191,-119.827C513.094,-125.827 491.206,-133.445 472,-142 458.907,-147.832 456.492,-150.972 444,-158 434.809,-163.171 424.86,-168.71 415.574,-173.856"/>
<polygon fill="red" stroke="red" points="413.617,-170.938 406.561,-178.842 417.006,-177.063 413.617,-170.938"/>
</g>
<!-- OutputToDate -->
<g id="node14" class="node"><title>OutputToDate</title>
<a xlink:href="./#OutputToDate" xlink:title="OutputToDate">
<ellipse fill="none" stroke="black" cx="534" cy="-18" rx="73.7902" ry="18"/>
<text text-anchor="middle" x="534" y="-13.4" font-family="Helvetica,sans-Serif" font-size="14.00">OutputToDate</text>
</a>
</g>
<!-- OutputToDate&#45;&gt;OutputPlanned -->
<g id="edge16" class="edge"><title>OutputToDate&#45;&gt;OutputPlanned</title>
<a xlink:href="./#completedOutputOf" xlink:title="completedOutputOf">
<path fill="none" stroke="darkslategray" d="M568.886,-33.9957C576.533,-39.2329 583.64,-45.854 588,-54 591.868,-61.2282 592.152,-69.8011 590.892,-77.8798"/>
<polygon fill="darkslategray" stroke="darkslategray" points="587.462,-77.1794 588.626,-87.7101 594.283,-78.7519 587.462,-77.1794"/>
</a>
<a xlink:href="./#completedOutputOf" xlink:title="completedOutputOf">
<text text-anchor="middle" x="657" y="-57.4" font-family="Helvetica,sans-Serif" font-size="14.00">completedOutputOf</text>
</a>
</g>
<!-- OutputToDate&#45;&gt;Indicator -->
<g id="edge38" class="edge"><title>OutputToDate&#45;&gt;Indicator</title>
<a xlink:href="./#measurementOf" xlink:title="measurementOf">
<path fill="none" stroke="darkslategray" d="M506.468,-34.7087C497.247,-40.5638 487.022,-47.3443 478,-54 469.116,-60.554 467.708,-63.2143 459,-70 453.025,-74.6557 446.53,-79.4903 440.26,-84.0485"/>
<polygon fill="darkslategray" stroke="darkslategray" points="437.992,-81.3687 431.919,-90.0503 442.08,-87.0508 437.992,-81.3687"/>
</a>
<a xlink:href="./#measurementOf" xlink:title="measurementOf">
<text text-anchor="middle" x="531" y="-57.4" font-family="Helvetica,sans-Serif" font-size="14.00">measurementOf</text>
</a>
</g>
<!-- Response -->
<g id="node16" class="node"><title>Response</title>
<a xlink:href="./#Response" xlink:title="Response">
<ellipse fill="none" stroke="black" cx="1274" cy="-18" rx="53.1641" ry="18"/>
<text text-anchor="middle" x="1274" y="-13.4" font-family="Helvetica,sans-Serif" font-size="14.00">Response</text>
</a>
</g>
<!-- Response&#45;&gt;Activity -->
<g id="edge26" class="edge"><title>Response&#45;&gt;Activity</title>
<a xlink:href="./#hasPart" xlink:title="hasPart">
<path fill="none" stroke="darkslategray" d="M1231.31,-28.7025C1165.01,-45.3239 1037.83,-77.2119 969.358,-94.3775"/>
<polygon fill="darkslategray" stroke="darkslategray" points="968.143,-91.0738 959.294,-96.9006 969.845,-97.8636 968.143,-91.0738"/>
</a>
<a xlink:href="./#hasPart" xlink:title="hasPart">
<text text-anchor="middle" x="1155" y="-57.4" font-family="Helvetica,sans-Serif" font-size="14.00">hasPart</text>
</a>
</g>
<!-- Response&#45;&gt;Need -->
<g id="edge10" class="edge"><title>Response&#45;&gt;Need</title>
<a xlink:href="./#addresses" xlink:title="addresses">
<path fill="none" stroke="darkslategray" d="M1274,-36.1548C1273.52,-63.3178 1270.69,-115.85 1257,-158 1255.96,-161.196 1254.63,-164.432 1253.15,-167.586"/>
<polygon fill="darkslategray" stroke="darkslategray" points="1249.93,-166.193 1248.4,-176.676 1256.13,-169.436 1249.93,-166.193"/>
</a>
<a xlink:href="./#addresses" xlink:title="addresses">
<text text-anchor="middle" x="1303.5" y="-101.4" font-family="Helvetica,sans-Serif" font-size="14.00">addresses</text>
</a>
</g>
<!-- Emergency -->
<g id="node23" class="node"><title>Emergency</title>
<a xlink:href="./#Emergency" xlink:title="Emergency">
<ellipse fill="none" stroke="gray" cx="1419" cy="-106" rx="59.8749" ry="18"/>
<text text-anchor="middle" x="1419" y="-101.4" font-family="Helvetica,sans-Serif" font-size="14.00" fill="gray">Emergency</text>
</a>
</g>
<!-- Response&#45;&gt;Emergency -->
<g id="edge18" class="edge"><title>Response&#45;&gt;Emergency</title>
<a xlink:href="./#forEmergency" xlink:title="forEmergency">
<path fill="none" stroke="darkslategray" d="M1299.92,-33.7326C1323.24,-47.8841 1357.71,-68.8007 1383.56,-84.4946"/>
<polygon fill="darkslategray" stroke="darkslategray" points="1381.96,-87.612 1392.32,-89.8082 1385.59,-81.6278 1381.96,-87.612"/>
</a>
<a xlink:href="./#forEmergency" xlink:title="forEmergency">
<text text-anchor="middle" x="1405.5" y="-57.4" font-family="Helvetica,sans-Serif" font-size="14.00">forEmergency</text>
</a>
</g>
<!-- Indicator&#45;&gt;Objective -->
<g id="edge42" class="edge"><title>Indicator&#45;&gt;Objective</title>
<a xlink:href="./#measures" xlink:title="measures">
<path fill="none" stroke="darkslategray" d="M391.65,-122.85C386.977,-128.46 382.523,-135.061 380,-142 377.328,-149.351 376.349,-157.681 376.225,-165.486"/>
<polygon fill="darkslategray" stroke="darkslategray" points="372.731,-165.763 376.505,-175.663 379.728,-165.57 372.731,-165.763"/>
</a>
<a xlink:href="./#measures" xlink:title="measures">
<text text-anchor="middle" x="412" y="-145.4" font-family="Helvetica,sans-Serif" font-size="14.00">measures</text>
</a>
</g>
</g>
</svg>
