<?xml version="1.0" encoding="UTF-8" standalone="no"?>
<!DOCTYPE svg PUBLIC "-//W3C//DTD SVG 1.1//EN"
 "http://www.w3.org/Graphics/SVG/1.1/DTD/svg11.dtd">
<!-- Generated by graphviz version 2.26.3 (20100126.1600)
 -->
<!-- Title: _anonymous_0 Pages: 1 -->
<svg width="1476pt" height="456pt"
 viewBox="0.00 0.00 1476.00 456.00" xmlns="http://www.w3.org/2000/svg" xmlns:xlink="http://www.w3.org/1999/xlink">
<g id="graph1" class="graph" transform="scale(1 1) rotate(0) translate(4 452)">
<title>_anonymous_0</title>
<polygon fill="white" stroke="white" points="-4,5 -4,-452 1473,-452 1473,5 -4,5"/>
<!-- AffectedPopulation -->
<g id="node1" class="node"><title>AffectedPopulation</title>
<a xlink:href="./#AffectedPopulation" xlink:title="AffectedPopulation">
<ellipse fill="none" stroke="black" cx="1118" cy="-166" rx="94.7578" ry="18"/>
<text text-anchor="middle" x="1118" y="-161.4" font-family="Helvetica,sans-Serif" font-size="14.00">AffectedPopulation</text>
</a>
</g>
<!-- Population -->
<g id="node3" class="node"><title>Population</title>
<a xlink:href="./#Population" xlink:title="Population">
<ellipse fill="none" stroke="black" cx="927" cy="-254" rx="57.0197" ry="18"/>
<text text-anchor="middle" x="927" y="-249.4" font-family="Helvetica,sans-Serif" font-size="14.00">Population</text>
</a>
</g>
<!-- AffectedPopulation&#45;&gt;Population -->
<g id="edge2" class="edge"><title>AffectedPopulation&#45;&gt;Population</title>
<path fill="none" stroke="red" stroke-dasharray="5,2" d="M1081.62,-182.759C1049.37,-197.619 1002.29,-219.313 968.558,-234.853"/>
<polygon fill="red" stroke="red" points="967.04,-231.698 959.423,-239.062 969.97,-238.056 967.04,-231.698"/>
</g>
<!-- Emergency -->
<g id="node12" class="node"><title>Emergency</title>
<a xlink:href="./#Emergency" xlink:title="Emergency">
<ellipse fill="none" stroke="black" cx="1118" cy="-254" rx="59.8749" ry="18"/>
<text text-anchor="middle" x="1118" y="-249.4" font-family="Helvetica,sans-Serif" font-size="14.00">Emergency</text>
</a>
</g>
<!-- AffectedPopulation&#45;&gt;Emergency -->
<g id="edge40" class="edge"><title>AffectedPopulation&#45;&gt;Emergency</title>
<a xlink:href="./#affectedBy" xlink:title="affectedBy">
<path fill="none" stroke="darkslategray" d="M1118,-184.234C1118,-196.151 1118,-211.962 1118,-225.518"/>
<polygon fill="darkslategray" stroke="darkslategray" points="1114.5,-225.79 1118,-235.79 1121.5,-225.79 1114.5,-225.79"/>
</a>
<a xlink:href="./#affectedBy" xlink:title="affectedBy">
<text text-anchor="middle" x="1154.5" y="-205.4" font-family="Helvetica,sans-Serif" font-size="14.00">affectedBy</text>
</a>
</g>
<!-- http://xmlns.com/foaf/0.1/Group -->
<g id="node37" class="node"><title>http://xmlns.com/foaf/0.1/Group</title>
<a xlink:href="./#http://xmlns.com/foaf/0.1/Group" xlink:title="http://xmlns.com/foaf/0.1/Group">
<ellipse fill="none" stroke="black" cx="774" cy="-342" rx="146.239" ry="18"/>
<text text-anchor="middle" x="774" y="-337.4" font-family="Helvetica,sans-Serif" font-size="14.00">http://xmlns.com/foaf/0.1/Group</text>
</a>
</g>
<!-- Population&#45;&gt;http://xmlns.com/foaf/0.1/Group -->
<g id="edge32" class="edge"><title>Population&#45;&gt;http://xmlns.com/foaf/0.1/Group</title>
<path fill="none" stroke="red" stroke-dasharray="5,2" d="M899.293,-269.936C875.309,-283.731 840.343,-303.842 813.44,-319.316"/>
<polygon fill="red" stroke="red" points="811.576,-316.35 804.653,-324.37 815.066,-322.418 811.576,-316.35"/>
</g>
<!-- http://www.w3.org/2000/01/rdf&#45;schema#Literal -->
<g id="node47" class="node"><title>http://www.w3.org/2000/01/rdf&#45;schema#Literal</title>
<a xlink:href="./#http://www.w3.org/2000/01/rdf-schema#Literal" xlink:title="http://www.w3.org/2000/01/rdf&#45;schema#Literal">
<ellipse fill="none" stroke="gray" cx="393" cy="-342" rx="208.796" ry="18"/>
<text text-anchor="middle" x="393" y="-337.4" font-family="Helvetica,sans-Serif" font-size="14.00" fill="gray">http://www.w3.org/2000/01/rdf&#45;schema#Literal</text>
</a>
</g>
<!-- Population&#45;&gt;http://www.w3.org/2000/01/rdf&#45;schema#Literal -->
<g id="edge46" class="edge"><title>Population&#45;&gt;http://www.w3.org/2000/01/rdf&#45;schema#Literal</title>
<a xlink:href="./#count" xlink:title="count">
<path fill="none" stroke="darkslategray" d="M886.1,-266.577C877.858,-268.707 869.205,-270.66 861,-272 723.48,-294.454 684.819,-263.607 548,-290 512.945,-296.762 474.919,-309.433 445.304,-320.573"/>
<polygon fill="darkslategray" stroke="darkslategray" points="443.691,-317.443 435.6,-324.282 446.19,-323.981 443.691,-317.443"/>
</a>
<a xlink:href="./#count" xlink:title="count">
<text text-anchor="middle" x="566.5" y="-293.4" font-family="Helvetica,sans-Serif" font-size="14.00">count</text>
</a>
</g>
<!-- Population&#45;&gt;http://www.w3.org/2000/01/rdf&#45;schema#Literal -->
<g id="edge58" class="edge"><title>Population&#45;&gt;http://www.w3.org/2000/01/rdf&#45;schema#Literal</title>
<a xlink:href="./#provenanceInfo" xlink:title="provenanceInfo">
<path fill="none" stroke="darkslategray" d="M884.942,-266.33C877.031,-268.405 868.795,-270.4 861,-272 804.293,-283.639 789.278,-281.611 732,-290 655.789,-301.162 570.039,-314.321 503.849,-324.609"/>
<polygon fill="darkslategray" stroke="darkslategray" points="503.158,-321.174 493.815,-326.17 504.234,-328.091 503.158,-321.174"/>
</a>
<a xlink:href="./#provenanceInfo" xlink:title="provenanceInfo">
<text text-anchor="middle" x="782" y="-293.4" font-family="Helvetica,sans-Serif" font-size="14.00">provenanceInfo</text>
</a>
</g>
<!-- AgeGroup -->
<g id="node4" class="node"><title>AgeGroup</title>
<a xlink:href="./#AgeGroup" xlink:title="AgeGroup">
<ellipse fill="none" stroke="black" cx="748" cy="-166" rx="53.838" ry="18"/>
<text text-anchor="middle" x="748" y="-161.4" font-family="Helvetica,sans-Serif" font-size="14.00">AgeGroup</text>
</a>
</g>
<!-- AgeGroup&#45;&gt;Population -->
<g id="edge4" class="edge"><title>AgeGroup&#45;&gt;Population</title>
<path fill="none" stroke="red" stroke-dasharray="5,2" d="M778.365,-180.928C808.233,-195.612 854.004,-218.114 886.861,-234.267"/>
<polygon fill="red" stroke="red" points="885.668,-237.58 896.186,-238.851 888.756,-231.298 885.668,-237.58"/>
</g>
<!-- http://www.w3.org/2001/XMLSchema#int -->
<g id="node49" class="node"><title>http://www.w3.org/2001/XMLSchema#int</title>
<a xlink:href="./#http://www.w3.org/2001/XMLSchema#int" xlink:title="http://www.w3.org/2001/XMLSchema#int">
<ellipse fill="none" stroke="gray" cx="668" cy="-254" rx="183.805" ry="18"/>
<text text-anchor="middle" x="668" y="-249.4" font-family="Helvetica,sans-Serif" font-size="14.00" fill="gray">http://www.w3.org/2001/XMLSchema#int</text>
</a>
</g>
<!-- AgeGroup&#45;&gt;http://www.w3.org/2001/XMLSchema#int -->
<g id="edge48" class="edge"><title>AgeGroup&#45;&gt;http://www.w3.org/2001/XMLSchema#int</title>
<a xlink:href="./#fromAge" xlink:title="fromAge">
<path fill="none" stroke="darkslategray" d="M703.306,-176.437C690.04,-181.821 676.944,-189.907 669,-202 664.468,-208.898 663.045,-217.5 663.089,-225.709"/>
<polygon fill="darkslategray" stroke="darkslategray" points="659.602,-226.014 663.805,-235.739 666.584,-225.515 659.602,-226.014"/>
</a>
<a xlink:href="./#fromAge" xlink:title="fromAge">
<text text-anchor="middle" x="697.5" y="-205.4" font-family="Helvetica,sans-Serif" font-size="14.00">fromAge</text>
</a>
</g>
<!-- AgeGroup&#45;&gt;http://www.w3.org/2001/XMLSchema#int -->
<g id="edge60" class="edge"><title>AgeGroup&#45;&gt;http://www.w3.org/2001/XMLSchema#int</title>
<a xlink:href="./#toAge" xlink:title="toAge">
<path fill="none" stroke="darkslategray" d="M743.279,-184.354C739.829,-195.059 734.285,-208.318 726,-218 722.15,-222.5 717.593,-226.614 712.752,-230.323"/>
<polygon fill="darkslategray" stroke="darkslategray" points="710.586,-227.567 704.411,-236.177 714.607,-233.297 710.586,-227.567"/>
</a>
<a xlink:href="./#toAge" xlink:title="toAge">
<text text-anchor="middle" x="755" y="-205.4" font-family="Helvetica,sans-Serif" font-size="14.00">toAge</text>
</a>
</g>
<!-- Casualty -->
<g id="node6" class="node"><title>Casualty</title>
<a xlink:href="./#Casualty" xlink:title="Casualty">
<ellipse fill="none" stroke="black" cx="965" cy="-92" rx="48.9699" ry="18"/>
<text text-anchor="middle" x="965" y="-87.4" font-family="Helvetica,sans-Serif" font-size="14.00">Casualty</text>
</a>
</g>
<!-- Casualty&#45;&gt;AffectedPopulation -->
<g id="edge6" class="edge"><title>Casualty&#45;&gt;AffectedPopulation</title>
<path fill="none" stroke="red" stroke-dasharray="5,2" d="M994.863,-106.444C1017.4,-117.345 1048.67,-132.47 1074.06,-144.75"/>
<polygon fill="red" stroke="red" points="1072.6,-147.929 1083.12,-149.132 1075.65,-141.627 1072.6,-147.929"/>
</g>
<!-- Dead -->
<g id="node8" class="node"><title>Dead</title>
<a xlink:href="./#Dead" xlink:title="Dead">
<ellipse fill="none" stroke="black" cx="806" cy="-18" rx="34.2118" ry="18"/>
<text text-anchor="middle" x="806" y="-13.4" font-family="Helvetica,sans-Serif" font-size="14.00">Dead</text>
</a>
</g>
<!-- Dead&#45;&gt;Casualty -->
<g id="edge8" class="edge"><title>Dead&#45;&gt;Casualty</title>
<path fill="none" stroke="red" stroke-dasharray="5,2" d="M831.546,-29.8894C856.894,-41.6864 896.097,-59.9319 925.466,-73.6003"/>
<polygon fill="red" stroke="red" points="924.082,-76.8169 934.625,-77.8633 927.036,-70.4706 924.082,-76.8169"/>
</g>
<!-- Displaced -->
<g id="node10" class="node"><title>Displaced</title>
<a xlink:href="./#Displaced" xlink:title="Displaced">
<ellipse fill="none" stroke="black" cx="1118" cy="-92" rx="52.9948" ry="18"/>
<text text-anchor="middle" x="1118" y="-87.4" font-family="Helvetica,sans-Serif" font-size="14.00">Displaced</text>
</a>
</g>
<!-- Displaced&#45;&gt;AffectedPopulation -->
<g id="edge10" class="edge"><title>Displaced&#45;&gt;AffectedPopulation</title>
<path fill="none" stroke="red" stroke-dasharray="5,2" d="M1118,-110.292C1118,-118.536 1118,-128.462 1118,-137.638"/>
<polygon fill="red" stroke="red" points="1114.5,-137.918 1118,-147.918 1121.5,-137.918 1114.5,-137.918"/>
</g>
<!-- Situation -->
<g id="node14" class="node"><title>Situation</title>
<a xlink:href="./#Situation" xlink:title="Situation">
<ellipse fill="none" stroke="black" cx="991" cy="-342" rx="49.1393" ry="18"/>
<text text-anchor="middle" x="991" y="-337.4" font-family="Helvetica,sans-Serif" font-size="14.00">Situation</text>
</a>
</g>
<!-- Emergency&#45;&gt;Situation -->
<g id="edge12" class="edge"><title>Emergency&#45;&gt;Situation</title>
<path fill="none" stroke="red" stroke-dasharray="5,2" d="M1094.11,-270.552C1073.94,-284.529 1044.89,-304.659 1022.76,-319.992"/>
<polygon fill="red" stroke="red" points="1020.58,-317.247 1014.35,-325.819 1024.56,-323.001 1020.58,-317.247"/>
</g>
<!-- GLIDEnumber -->
<g id="node20" class="node"><title>GLIDEnumber</title>
<a xlink:href="./#GLIDEnumber" xlink:title="GLIDEnumber">
<ellipse fill="none" stroke="black" cx="1129" cy="-342" rx="71.107" ry="18"/>
<text text-anchor="middle" x="1129" y="-337.4" font-family="Helvetica,sans-Serif" font-size="14.00">GLIDEnumber</text>
</a>
</g>
<!-- Emergency&#45;&gt;GLIDEnumber -->
<g id="edge50" class="edge"><title>Emergency&#45;&gt;GLIDEnumber</title>
<a xlink:href="./#hasGLIDEnumber" xlink:title="hasGLIDEnumber">
<path fill="none" stroke="darkslategray" d="M1120.28,-272.234C1121.77,-284.151 1123.75,-299.962 1125.44,-313.518"/>
<polygon fill="darkslategray" stroke="darkslategray" points="1122.01,-314.301 1126.72,-323.79 1128.96,-313.433 1122.01,-314.301"/>
</a>
<a xlink:href="./#hasGLIDEnumber" xlink:title="hasGLIDEnumber">
<text text-anchor="middle" x="1180" y="-293.4" font-family="Helvetica,sans-Serif" font-size="14.00">hasGLIDEnumber</text>
</a>
</g>
<!-- http://www.w3.org/2001/XMLSchema#string -->
<g id="node45" class="node"><title>http://www.w3.org/2001/XMLSchema#string</title>
<a xlink:href="./#http://www.w3.org/2001/XMLSchema#string" xlink:title="http://www.w3.org/2001/XMLSchema#string">
<ellipse fill="none" stroke="gray" cx="991" cy="-430" rx="197.221" ry="18"/>
<text text-anchor="middle" x="991" y="-425.4" font-family="Helvetica,sans-Serif" font-size="14.00" fill="gray">http://www.w3.org/2001/XMLSchema#string</text>
</a>
</g>
<!-- Situation&#45;&gt;http://www.w3.org/2001/XMLSchema#string -->
<g id="edge44" class="edge"><title>Situation&#45;&gt;http://www.w3.org/2001/XMLSchema#string</title>
<a xlink:href="./#commonTitle" xlink:title="commonTitle">
<path fill="none" stroke="darkslategray" d="M1027.49,-354.043C1055.25,-363.375 1089.02,-375.179 1091,-378 1100.41,-391.383 1093.01,-401.57 1078.77,-409.222"/>
<polygon fill="darkslategray" stroke="darkslategray" points="1077.28,-406.057 1069.68,-413.44 1080.22,-412.408 1077.28,-406.057"/>
</a>
<a xlink:href="./#commonTitle" xlink:title="commonTitle">
<text text-anchor="middle" x="1137.5" y="-381.4" font-family="Helvetica,sans-Serif" font-size="14.00">commonTitle</text>
</a>
</g>
<!-- Situation&#45;&gt;http://www.w3.org/2001/XMLSchema#string -->
<g id="edge62" class="edge"><title>Situation&#45;&gt;http://www.w3.org/2001/XMLSchema#string</title>
<a xlink:href="./#http://purl.org/dc/terms/description" xlink:title="http://purl.org/dc/terms/description">
<path fill="none" stroke="darkslategray" d="M952.312,-353.26C944.591,-355.499 936.539,-357.829 929,-360 901.017,-368.06 883.536,-354.752 866,-378 854.953,-392.645 862.26,-403.194 877.757,-410.782"/>
<polygon fill="darkslategray" stroke="darkslategray" points="876.568,-414.079 887.144,-414.701 879.264,-407.619 876.568,-414.079"/>
</a>
<a xlink:href="./#http://purl.org/dc/terms/description" xlink:title="http://purl.org/dc/terms/description">
<text text-anchor="middle" x="976.5" y="-381.4" font-family="Helvetica,sans-Serif" font-size="14.00">http://purl.org/dc/terms/description</text>
</a>
</g>
<!-- Female -->
<g id="node15" class="node"><title>Female</title>
<a xlink:href="./#Female" xlink:title="Female">
<ellipse fill="none" stroke="black" cx="43" cy="-342" rx="43.1021" ry="18"/>
<text text-anchor="middle" x="43" y="-337.4" font-family="Helvetica,sans-Serif" font-size="14.00">Female</text>
</a>
</g>
<!-- http://xmlns.com/foaf/0.1/Agent -->
<g id="node17" class="node"><title>http://xmlns.com/foaf/0.1/Agent</title>
<a xlink:href="./#http://xmlns.com/foaf/0.1/Agent" xlink:title="http://xmlns.com/foaf/0.1/Agent">
<ellipse fill="none" stroke="black" cx="233" cy="-430" rx="145.068" ry="18"/>
<text text-anchor="middle" x="233" y="-425.4" font-family="Helvetica,sans-Serif" font-size="14.00">http://xmlns.com/foaf/0.1/Agent</text>
</a>
</g>
<!-- Female&#45;&gt;http://xmlns.com/foaf/0.1/Agent -->
<g id="edge14" class="edge"><title>Female&#45;&gt;http://xmlns.com/foaf/0.1/Agent</title>
<path fill="none" stroke="red" stroke-dasharray="5,2" d="M71.8569,-355.365C102.161,-369.401 150.292,-391.693 186.071,-408.264"/>
<polygon fill="red" stroke="red" points="184.8,-411.533 195.345,-412.56 187.742,-405.181 184.8,-411.533"/>
</g>
<!-- Sex -->
<g id="node19" class="node"><title>Sex</title>
<a xlink:href="./#Sex" xlink:title="Sex">
<ellipse fill="none" stroke="black" cx="43" cy="-430" rx="27.0036" ry="18"/>
<text text-anchor="middle" x="43" y="-425.4" font-family="Helvetica,sans-Serif" font-size="14.00">Sex</text>
</a>
</g>
<!-- Female&#45;&gt;Sex -->
<g id="edge16" class="edge"><title>Female&#45;&gt;Sex</title>
<path fill="none" stroke="red" stroke-dasharray="5,2" d="M43,-360.234C43,-372.151 43,-387.962 43,-401.518"/>
<polygon fill="red" stroke="red" points="39.5001,-401.79 43,-411.79 46.5001,-401.79 39.5001,-401.79"/>
</g>
<!-- IDP -->
<g id="node21" class="node"><title>IDP</title>
<a xlink:href="./#IDP" xlink:title="IDP">
<ellipse fill="none" stroke="black" cx="1085" cy="-18" rx="27" ry="18"/>
<text text-anchor="middle" x="1085" y="-13.4" font-family="Helvetica,sans-Serif" font-size="14.00">IDP</text>
</a>
</g>
<!-- IDP&#45;&gt;Displaced -->
<g id="edge18" class="edge"><title>IDP&#45;&gt;Displaced</title>
<path fill="none" stroke="red" stroke-dasharray="5,2" d="M1092.82,-35.537C1096.71,-44.2559 1101.5,-54.9906 1105.85,-64.7505"/>
<polygon fill="red" stroke="red" points="1102.74,-66.3673 1110.01,-74.0749 1109.13,-63.5163 1102.74,-66.3673"/>
</g>
<!-- Indicator -->
<g id="node23" class="node"><title>Indicator</title>
<a xlink:href="./#Indicator" xlink:title="Indicator">
<ellipse fill="none" stroke="black" cx="306" cy="-254" rx="49.1393" ry="18"/>
<text text-anchor="middle" x="306" y="-249.4" font-family="Helvetica,sans-Serif" font-size="14.00">Indicator</text>
</a>
</g>
<!-- Indicator&#45;&gt;http://www.w3.org/2000/01/rdf&#45;schema#Literal -->
<g id="edge52" class="edge"><title>Indicator&#45;&gt;http://www.w3.org/2000/01/rdf&#45;schema#Literal</title>
<a xlink:href="./#hasStandard" xlink:title="hasStandard">
<path fill="none" stroke="darkslategray" d="M262.069,-261.996C229.268,-269.913 192.977,-284.063 211,-306 217.734,-314.197 233.053,-320.559 252.092,-325.488"/>
<polygon fill="darkslategray" stroke="darkslategray" points="251.498,-328.944 262.037,-327.865 253.125,-322.136 251.498,-328.944"/>
</a>
<a xlink:href="./#hasStandard" xlink:title="hasStandard">
<text text-anchor="middle" x="253" y="-293.4" font-family="Helvetica,sans-Serif" font-size="14.00">hasStandard</text>
</a>
</g>
<!-- Indicator&#45;&gt;http://www.w3.org/2000/01/rdf&#45;schema#Literal -->
<g id="edge54" class="edge"><title>Indicator&#45;&gt;http://www.w3.org/2000/01/rdf&#45;schema#Literal</title>
<a xlink:href="./#hasValue" xlink:title="hasValue">
<path fill="none" stroke="darkslategray" d="M306.339,-272.061C307.406,-282.926 310.357,-296.452 318,-306 321.969,-310.958 326.786,-315.274 332.045,-319.024"/>
<polygon fill="darkslategray" stroke="darkslategray" points="330.292,-322.057 340.611,-324.46 334.043,-316.147 330.292,-322.057"/>
</a>
<a xlink:href="./#hasValue" xlink:title="hasValue">
<text text-anchor="middle" x="347.5" y="-293.4" font-family="Helvetica,sans-Serif" font-size="14.00">hasValue</text>
</a>
</g>
<!-- Injured -->
<g id="node24" class="node"><title>Injured</title>
<a xlink:href="./#Injured" xlink:title="Injured">
<ellipse fill="none" stroke="black" cx="898" cy="-18" rx="40.2492" ry="18"/>
<text text-anchor="middle" x="898" y="-13.4" font-family="Helvetica,sans-Serif" font-size="14.00">Injured</text>
</a>
</g>
<!-- Injured&#45;&gt;Casualty -->
<g id="edge20" class="edge"><title>Injured&#45;&gt;Casualty</title>
<path fill="none" stroke="red" stroke-dasharray="5,2" d="M913.203,-34.7917C921.902,-44.3997 932.976,-56.6301 942.649,-67.3143"/>
<polygon fill="red" stroke="red" points="940.086,-69.6973 949.392,-74.7612 945.275,-64.999 940.086,-69.6973"/>
</g>
<!-- Male -->
<g id="node26" class="node"><title>Male</title>
<a xlink:href="./#Male" xlink:title="Male">
<ellipse fill="none" stroke="black" cx="135" cy="-342" rx="31.0281" ry="18"/>
<text text-anchor="middle" x="135" y="-337.4" font-family="Helvetica,sans-Serif" font-size="14.00">Male</text>
</a>
</g>
<!-- Male&#45;&gt;http://xmlns.com/foaf/0.1/Agent -->
<g id="edge22" class="edge"><title>Male&#45;&gt;http://xmlns.com/foaf/0.1/Agent</title>
<path fill="none" stroke="red" stroke-dasharray="5,2" d="M152.07,-357.328C166.813,-370.566 188.385,-389.937 205.551,-405.351"/>
<polygon fill="red" stroke="red" points="203.308,-408.042 213.087,-412.119 207.985,-402.834 203.308,-408.042"/>
</g>
<!-- Male&#45;&gt;Sex -->
<g id="edge24" class="edge"><title>Male&#45;&gt;Sex</title>
<path fill="none" stroke="red" stroke-dasharray="5,2" d="M118.552,-357.733C103.984,-371.668 82.557,-392.163 66.239,-407.771"/>
<polygon fill="red" stroke="red" points="63.4984,-405.549 58.6913,-414.991 68.337,-410.608 63.4984,-405.549"/>
</g>
<!-- Missing -->
<g id="node29" class="node"><title>Missing</title>
<a xlink:href="./#Missing" xlink:title="Missing">
<ellipse fill="none" stroke="black" cx="998" cy="-18" rx="41.7645" ry="18"/>
<text text-anchor="middle" x="998" y="-13.4" font-family="Helvetica,sans-Serif" font-size="14.00">Missing</text>
</a>
</g>
<!-- Missing&#45;&gt;Casualty -->
<g id="edge26" class="edge"><title>Missing&#45;&gt;Casualty</title>
<path fill="none" stroke="red" stroke-dasharray="5,2" d="M990.012,-35.9133C986.149,-44.5752 981.429,-55.1588 977.135,-64.7891"/>
<polygon fill="red" stroke="red" points="973.906,-63.4366 973.029,-73.9951 980.299,-66.2876 973.906,-63.4366"/>
</g>
<!-- Need -->
<g id="node31" class="node"><title>Need</title>
<a xlink:href="./#Need" xlink:title="Need">
<ellipse fill="none" stroke="black" cx="348" cy="-166" rx="34.2118" ry="18"/>
<text text-anchor="middle" x="348" y="-161.4" font-family="Helvetica,sans-Serif" font-size="14.00">Need</text>
</a>
</g>
<!-- Need&#45;&gt;Indicator -->
<g id="edge42" class="edge"><title>Need&#45;&gt;Indicator</title>
<a xlink:href="./#basedOn" xlink:title="basedOn">
<path fill="none" stroke="darkslategray" d="M332.498,-182.165C327.573,-188.032 322.503,-194.958 319,-202 315.312,-209.415 312.617,-217.96 310.67,-225.952"/>
<polygon fill="darkslategray" stroke="darkslategray" points="307.19,-225.488 308.522,-235.999 314.036,-226.952 307.19,-225.488"/>
</a>
<a xlink:href="./#basedOn" xlink:title="basedOn">
<text text-anchor="middle" x="348" y="-205.4" font-family="Helvetica,sans-Serif" font-size="14.00">basedOn</text>
</a>
</g>
<!-- Need&#45;&gt;http://www.w3.org/2000/01/rdf&#45;schema#Literal -->
<g id="edge56" class="edge"><title>Need&#45;&gt;http://www.w3.org/2000/01/rdf&#45;schema#Literal</title>
<a xlink:href="./#identifiedAt" xlink:title="identifiedAt">
<path fill="none" stroke="darkslategray" d="M364.038,-181.92C369.006,-187.767 373.966,-194.743 377,-202 392.227,-238.426 394.614,-284.563 394.299,-313.691"/>
<polygon fill="darkslategray" stroke="darkslategray" points="390.794,-313.89 394.067,-323.966 397.792,-314.048 390.794,-313.89"/>
</a>
<a xlink:href="./#identifiedAt" xlink:title="identifiedAt">
<text text-anchor="middle" x="430.5" y="-249.4" font-family="Helvetica,sans-Serif" font-size="14.00">identifiedAt</text>
</a>
</g>
<!-- NonDisplaced -->
<g id="node32" class="node"><title>NonDisplaced</title>
<a xlink:href="./#NonDisplaced" xlink:title="NonDisplaced">
<ellipse fill="none" stroke="black" cx="1259" cy="-92" rx="69.7653" ry="18"/>
<text text-anchor="middle" x="1259" y="-87.4" font-family="Helvetica,sans-Serif" font-size="14.00">NonDisplaced</text>
</a>
</g>
<!-- NonDisplaced&#45;&gt;AffectedPopulation -->
<g id="edge28" class="edge"><title>NonDisplaced&#45;&gt;AffectedPopulation</title>
<path fill="none" stroke="red" stroke-dasharray="5,2" d="M1228.06,-108.24C1207.91,-118.812 1181.4,-132.728 1159.44,-144.252"/>
<polygon fill="red" stroke="red" points="1157.57,-141.281 1150.34,-149.027 1160.82,-147.479 1157.57,-141.281"/>
</g>
<!-- Others -->
<g id="node34" class="node"><title>Others</title>
<a xlink:href="./#Others" xlink:title="Others">
<ellipse fill="none" stroke="black" cx="1171" cy="-18" rx="40.92" ry="18"/>
<text text-anchor="middle" x="1171" y="-13.4" font-family="Helvetica,sans-Serif" font-size="14.00">Others</text>
</a>
</g>
<!-- Others&#45;&gt;Displaced -->
<g id="edge30" class="edge"><title>Others&#45;&gt;Displaced</title>
<path fill="none" stroke="red" stroke-dasharray="5,2" d="M1158.44,-35.537C1151.89,-44.686 1143.74,-56.0545 1136.49,-66.1873"/>
<polygon fill="red" stroke="red" points="1133.63,-64.1646 1130.65,-74.3325 1139.32,-68.2405 1133.63,-64.1646"/>
</g>
<!-- http://xmlns.com/foaf/0.1/Group&#45;&gt;http://xmlns.com/foaf/0.1/Agent -->
<g id="edge38" class="edge"><title>http://xmlns.com/foaf/0.1/Group&#45;&gt;http://xmlns.com/foaf/0.1/Agent</title>
<path fill="none" stroke="red" stroke-dasharray="5,2" d="M685.573,-356.384C588.155,-372.23 431.931,-397.642 330.89,-414.077"/>
<polygon fill="red" stroke="red" points="330.292,-410.628 320.984,-415.688 331.416,-417.537 330.292,-410.628"/>
</g>
<!-- RefugeesAsylumSeekers -->
<g id="node38" class="node"><title>RefugeesAsylumSeekers</title>
<a xlink:href="./#RefugeesAsylumSeekers" xlink:title="RefugeesAsylumSeekers">
<ellipse fill="none" stroke="black" cx="1349" cy="-18" rx="118.906" ry="18"/>
<text text-anchor="middle" x="1349" y="-13.4" font-family="Helvetica,sans-Serif" font-size="14.00">RefugeesAsylumSeekers</text>
</a>
</g>
<!-- RefugeesAsylumSeekers&#45;&gt;Displaced -->
<g id="edge34" class="edge"><title>RefugeesAsylumSeekers&#45;&gt;Displaced</title>
<path fill="none" stroke="red" stroke-dasharray="5,2" d="M1298.02,-34.3312C1258.87,-46.8731 1205.16,-64.0802 1166.61,-76.4284"/>
<polygon fill="red" stroke="red" points="1165.12,-73.2316 1156.66,-79.6155 1167.25,-79.8979 1165.12,-73.2316"/>
</g>
<!-- TotalPopulation -->
<g id="node40" class="node"><title>TotalPopulation</title>
<a xlink:href="./#TotalPopulation" xlink:title="TotalPopulation">
<ellipse fill="none" stroke="black" cx="925" cy="-166" rx="79.8276" ry="18"/>
<text text-anchor="middle" x="925" y="-161.4" font-family="Helvetica,sans-Serif" font-size="14.00">TotalPopulation</text>
</a>
</g>
<!-- TotalPopulation&#45;&gt;Population -->
<g id="edge36" class="edge"><title>TotalPopulation&#45;&gt;Population</title>
<path fill="none" stroke="red" stroke-dasharray="5,2" d="M925.414,-184.234C925.685,-196.151 926.045,-211.962 926.353,-225.518"/>
<polygon fill="red" stroke="red" points="922.86,-225.872 926.586,-235.79 929.858,-225.713 922.86,-225.872"/>
</g>
</g>
</svg>
