<?xml version="1.0" encoding="UTF-8" standalone="no"?>
<!DOCTYPE svg PUBLIC "-//W3C//DTD SVG 1.1//EN"
 "http://www.w3.org/Graphics/SVG/1.1/DTD/svg11.dtd">
<!-- Generated by graphviz version 2.26.3 (20100126.1600)
 -->
<!-- Title: _anonymous_0 Pages: 1 -->
<svg width="907pt" height="206pt"
 viewBox="0.00 0.00 907.00 206.00" xmlns="http://www.w3.org/2000/svg" xmlns:xlink="http://www.w3.org/1999/xlink">
<g id="graph1" class="graph" transform="scale(1 1) rotate(0) translate(4 202)">
<title>_anonymous_0</title>
<polygon fill="white" stroke="white" points="-4,5 -4,-202 904,-202 904,5 -4,5"/>
<!-- ReportingPeriod -->
<g id="node1" class="node"><title>ReportingPeriod</title>
<a xlink:href="./#ReportingPeriod" xlink:title="ReportingPeriod">
<ellipse fill="none" stroke="black" cx="173" cy="-18" rx="82.0108" ry="18"/>
<text text-anchor="middle" x="173" y="-13.4" font-family="Helvetica,sans-Serif" font-size="14.00">ReportingPeriod</text>
</a>
</g>
<!-- http://purl.org/dc/terms/PeriodOfTime -->
<g id="node3" class="node"><title>http://purl.org/dc/terms/PeriodOfTime</title>
<a xlink:href="./#http://purl.org/dc/terms/PeriodOfTime" xlink:title="http://purl.org/dc/terms/PeriodOfTime">
<ellipse fill="none" stroke="black" cx="173" cy="-92" rx="173.242" ry="18"/>
<text text-anchor="middle" x="173" y="-87.4" font-family="Helvetica,sans-Serif" font-size="14.00">http://purl.org/dc/terms/PeriodOfTime</text>
</a>
</g>
<!-- ReportingPeriod&#45;&gt;http://purl.org/dc/terms/PeriodOfTime -->
<g id="edge2" class="edge"><title>ReportingPeriod&#45;&gt;http://purl.org/dc/terms/PeriodOfTime</title>
<path fill="none" stroke="red" stroke-dasharray="5,2" d="M173,-36.2921C173,-44.5365 173,-54.4624 173,-63.6378"/>
<polygon fill="red" stroke="red" points="169.5,-63.9182 173,-73.9183 176.5,-63.9183 169.5,-63.9182"/>
</g>
<!-- http://www.w3.org/2000/01/rdf&#45;schema#Literal -->
<g id="node5" class="node"><title>http://www.w3.org/2000/01/rdf&#45;schema#Literal</title>
<a xlink:href="./#http://www.w3.org/2000/01/rdf-schema#Literal" xlink:title="http://www.w3.org/2000/01/rdf&#45;schema#Literal">
<ellipse fill="none" stroke="gray" cx="437" cy="-180" rx="208.796" ry="18"/>
<text text-anchor="middle" x="437" y="-175.4" font-family="Helvetica,sans-Serif" font-size="14.00" fill="gray">http://www.w3.org/2000/01/rdf&#45;schema#Literal</text>
</a>
</g>
<!-- http://purl.org/dc/terms/PeriodOfTime&#45;&gt;http://www.w3.org/2000/01/rdf&#45;schema#Literal -->
<g id="edge10" class="edge"><title>http://purl.org/dc/terms/PeriodOfTime&#45;&gt;http://www.w3.org/2000/01/rdf&#45;schema#Literal</title>
<a xlink:href="./#end" xlink:title="end">
<path fill="none" stroke="darkslategray" d="M155.599,-110.398C147.573,-121.119 141.509,-134.378 150,-144 158.737,-153.901 208.746,-161.744 264.636,-167.548"/>
<polygon fill="darkslategray" stroke="darkslategray" points="264.458,-171.047 274.759,-168.571 265.162,-164.083 264.458,-171.047"/>
</a>
<a xlink:href="./#end" xlink:title="end">
<text text-anchor="middle" x="162.5" y="-131.4" font-family="Helvetica,sans-Serif" font-size="14.00">end</text>
</a>
</g>
<!-- http://purl.org/dc/terms/PeriodOfTime&#45;&gt;http://www.w3.org/2000/01/rdf&#45;schema#Literal -->
<g id="edge18" class="edge"><title>http://purl.org/dc/terms/PeriodOfTime&#45;&gt;http://www.w3.org/2000/01/rdf&#45;schema#Literal</title>
<a xlink:href="./#start" xlink:title="start">
<path fill="none" stroke="darkslategray" d="M182.541,-110.087C189.636,-121.685 200.423,-136.016 214,-144 228.499,-152.526 258.321,-159.381 291.568,-164.726"/>
<polygon fill="darkslategray" stroke="darkslategray" points="291.084,-168.193 301.502,-166.265 292.156,-161.276 291.084,-168.193"/>
</a>
<a xlink:href="./#start" xlink:title="start">
<text text-anchor="middle" x="229.5" y="-131.4" font-family="Helvetica,sans-Serif" font-size="14.00">start</text>
</a>
</g>
<!-- Activity -->
<g id="node4" class="node"><title>Activity</title>
<a xlink:href="./#Activity" xlink:title="Activity">
<ellipse fill="none" stroke="gray" cx="434" cy="-92" rx="41.7645" ry="18"/>
<text text-anchor="middle" x="434" y="-87.4" font-family="Helvetica,sans-Serif" font-size="14.00" fill="gray">Activity</text>
</a>
</g>
<!-- Activity&#45;&gt;http://www.w3.org/2000/01/rdf&#45;schema#Literal -->
<g id="edge4" class="edge"><title>Activity&#45;&gt;http://www.w3.org/2000/01/rdf&#45;schema#Literal</title>
<a xlink:href="./#actualEnd" xlink:title="actualEnd">
<path fill="none" stroke="darkslategray" d="M397.109,-100.816C383.862,-103.872 368.791,-107.226 355,-110 332.221,-114.582 266.949,-110.212 252,-128 247.425,-133.444 247.477,-138.512 252,-144 258.885,-152.354 274.572,-158.795 294.049,-163.753"/>
<polygon fill="darkslategray" stroke="darkslategray" points="293.358,-167.186 303.894,-166.07 294.961,-160.372 293.358,-167.186"/>
</a>
<a xlink:href="./#actualEnd" xlink:title="actualEnd">
<text text-anchor="middle" x="285" y="-131.4" font-family="Helvetica,sans-Serif" font-size="14.00">actualEnd</text>
</a>
</g>
<!-- Activity&#45;&gt;http://www.w3.org/2000/01/rdf&#45;schema#Literal -->
<g id="edge6" class="edge"><title>Activity&#45;&gt;http://www.w3.org/2000/01/rdf&#45;schema#Literal</title>
<a xlink:href="./#actualStart" xlink:title="actualStart">
<path fill="none" stroke="darkslategray" d="M394.99,-98.7473C362.693,-106.16 324.563,-120.281 341,-144 344.66,-149.281 353.891,-154.447 365.261,-159.143"/>
<polygon fill="darkslategray" stroke="darkslategray" points="364.181,-162.477 374.771,-162.801 366.694,-155.944 364.181,-162.477"/>
</a>
<a xlink:href="./#actualStart" xlink:title="actualStart">
<text text-anchor="middle" x="378" y="-131.4" font-family="Helvetica,sans-Serif" font-size="14.00">actualStart</text>
</a>
</g>
<!-- Activity&#45;&gt;http://www.w3.org/2000/01/rdf&#45;schema#Literal -->
<g id="edge12" class="edge"><title>Activity&#45;&gt;http://www.w3.org/2000/01/rdf&#45;schema#Literal</title>
<a xlink:href="./#plannedEnd" xlink:title="plannedEnd">
<path fill="none" stroke="darkslategray" d="M434.622,-110.234C435.028,-122.151 435.567,-137.962 436.029,-151.518"/>
<polygon fill="darkslategray" stroke="darkslategray" points="432.54,-151.915 436.379,-161.79 439.536,-151.676 432.54,-151.915"/>
</a>
<a xlink:href="./#plannedEnd" xlink:title="plannedEnd">
<text text-anchor="middle" x="474" y="-131.4" font-family="Helvetica,sans-Serif" font-size="14.00">plannedEnd</text>
</a>
</g>
<!-- Activity&#45;&gt;http://www.w3.org/2000/01/rdf&#45;schema#Literal -->
<g id="edge14" class="edge"><title>Activity&#45;&gt;http://www.w3.org/2000/01/rdf&#45;schema#Literal</title>
<a xlink:href="./#plannedStart" xlink:title="plannedStart">
<path fill="none" stroke="darkslategray" d="M472.252,-99.621C487.973,-104.84 504.655,-113.548 514,-128 517.861,-133.972 517.818,-138.001 514,-144 510.93,-148.824 507.025,-153.013 502.609,-156.648"/>
<polygon fill="darkslategray" stroke="darkslategray" points="500.32,-153.979 494.176,-162.61 504.362,-159.695 500.32,-153.979"/>
</a>
<a xlink:href="./#plannedStart" xlink:title="plannedStart">
<text text-anchor="middle" x="558.5" y="-131.4" font-family="Helvetica,sans-Serif" font-size="14.00">plannedStart</text>
</a>
</g>
<!-- http://www.w3.org/2002/07/owl#Thing -->
<g id="node8" class="node"><title>http://www.w3.org/2002/07/owl#Thing</title>
<a xlink:href="./#http://www.w3.org/2002/07/owl#Thing" xlink:title="http://www.w3.org/2002/07/owl#Thing">
<ellipse fill="none" stroke="gray" cx="692" cy="-92" rx="171.059" ry="18"/>
<text text-anchor="middle" x="692" y="-87.4" font-family="Helvetica,sans-Serif" font-size="14.00" fill="gray">http://www.w3.org/2002/07/owl#Thing</text>
</a>
</g>
<!-- http://www.w3.org/2002/07/owl#Thing&#45;&gt;http://www.w3.org/2000/01/rdf&#45;schema#Literal -->
<g id="edge8" class="edge"><title>http://www.w3.org/2002/07/owl#Thing&#45;&gt;http://www.w3.org/2000/01/rdf&#45;schema#Literal</title>
<a xlink:href="./#end" xlink:title="end">
<path fill="none" stroke="darkslategray" d="M666.88,-110.039C650.09,-121.316 627.105,-135.301 605,-144 586.716,-151.195 566.719,-157.071 547.1,-161.83"/>
<polygon fill="darkslategray" stroke="darkslategray" points="546.138,-158.461 537.199,-164.148 547.733,-165.276 546.138,-158.461"/>
</a>
<a xlink:href="./#end" xlink:title="end">
<text text-anchor="middle" x="649.5" y="-131.4" font-family="Helvetica,sans-Serif" font-size="14.00">end</text>
</a>
</g>
<!-- http://www.w3.org/2002/07/owl#Thing&#45;&gt;http://www.w3.org/2000/01/rdf&#45;schema#Literal -->
<g id="edge16" class="edge"><title>http://www.w3.org/2002/07/owl#Thing&#45;&gt;http://www.w3.org/2000/01/rdf&#45;schema#Literal</title>
<a xlink:href="./#start" xlink:title="start">
<path fill="none" stroke="darkslategray" d="M687.52,-110.224C683.725,-121.726 677.079,-135.896 666,-144 653.14,-153.407 626.328,-160.439 595.424,-165.664"/>
<polygon fill="darkslategray" stroke="darkslategray" points="594.577,-162.256 585.259,-167.299 595.688,-169.167 594.577,-162.256"/>
</a>
<a xlink:href="./#start" xlink:title="start">
<text text-anchor="middle" x="694.5" y="-131.4" font-family="Helvetica,sans-Serif" font-size="14.00">start</text>
</a>
</g>
<!-- http://www.w3.org/2002/07/owl#Thing&#45;&gt;http://www.w3.org/2000/01/rdf&#45;schema#Literal -->
<g id="edge20" class="edge"><title>http://www.w3.org/2002/07/owl#Thing&#45;&gt;http://www.w3.org/2000/01/rdf&#45;schema#Literal</title>
<a xlink:href="./#http://purl.org/dc/terms/date" xlink:title="http://purl.org/dc/terms/date">
<path fill="none" stroke="darkslategray" d="M708.495,-109.939C716.424,-120.757 722.54,-134.279 714,-144 705.658,-153.497 658.165,-161.229 604.796,-167.059"/>
<polygon fill="darkslategray" stroke="darkslategray" points="604.344,-163.587 594.77,-168.126 605.084,-170.548 604.344,-163.587"/>
</a>
<a xlink:href="./#http://purl.org/dc/terms/date" xlink:title="http://purl.org/dc/terms/date">
<text text-anchor="middle" x="808.5" y="-131.4" font-family="Helvetica,sans-Serif" font-size="14.00">http://purl.org/dc/terms/date</text>
</a>
</g>
</g>
</svg>
