<?xml version="1.0" encoding="UTF-8" standalone="no"?>
<!DOCTYPE svg PUBLIC "-//W3C//DTD SVG 1.1//EN"
 "http://www.w3.org/Graphics/SVG/1.1/DTD/svg11.dtd">
<!-- Generated by graphviz version 2.26.3 (20100126.1600)
 -->
<!-- Title: _anonymous_0 Pages: 1 -->
<svg width="1234pt" height="220pt"
 viewBox="0.00 0.00 1234.00 220.00" xmlns="http://www.w3.org/2000/svg" xmlns:xlink="http://www.w3.org/1999/xlink">
<g id="graph1" class="graph" transform="scale(1 1) rotate(0) translate(4 216)">
<title>_anonymous_0</title>
<polygon fill="white" stroke="white" points="-4,5 -4,-216 1231,-216 1231,5 -4,5"/>
<!-- Activity -->
<g id="node1" class="node"><title>Activity</title>
<a xlink:href="./#Activity" xlink:title="Activity">
<ellipse fill="none" stroke="black" cx="643" cy="-106" rx="41.7645" ry="18"/>
<text text-anchor="middle" x="643" y="-101.4" font-family="Helvetica,sans-Serif" font-size="14.00">Activity</text>
</a>
</g>
<!-- Activity&#45;&gt;Activity -->
<g id="edge20" class="edge"><title>Activity&#45;&gt;Activity</title>
<a xlink:href="./#hasPart" xlink:title="hasPart">
<path fill="none" stroke="darkslategray" d="M680.5,-97.75C693,-97.75 703,-100.5 703,-106 703,-109.867 698.056,-112.375 690.776,-113.523"/>
<polygon fill="darkslategray" stroke="darkslategray" points="690.228,-110.053 680.5,-114.25 690.722,-117.035 690.228,-110.053"/>
</a>
<a xlink:href="./#hasPart" xlink:title="hasPart">
<text text-anchor="middle" x="729" y="-101.4" font-family="Helvetica,sans-Serif" font-size="14.00">hasPart</text>
</a>
</g>
<!-- Objective -->
<g id="node4" class="node"><title>Objective</title>
<a xlink:href="./#Objective" xlink:title="Objective">
<ellipse fill="none" stroke="black" cx="302" cy="-194" rx="51.1517" ry="18"/>
<text text-anchor="middle" x="302" y="-189.4" font-family="Helvetica,sans-Serif" font-size="14.00">Objective</text>
</a>
</g>
<!-- Activity&#45;&gt;Objective -->
<g id="edge16" class="edge"><title>Activity&#45;&gt;Objective</title>
<a xlink:href="./#hasObjective" xlink:title="hasObjective">
<path fill="none" stroke="darkslategray" d="M603.936,-112.79C568.093,-119.304 513.645,-129.914 467,-142 455.411,-145.003 394.254,-164.436 349.768,-178.669"/>
<polygon fill="darkslategray" stroke="darkslategray" points="348.446,-175.417 339.989,-181.799 350.58,-182.084 348.446,-175.417"/>
</a>
<a xlink:href="./#hasObjective" xlink:title="hasObjective">
<text text-anchor="middle" x="509" y="-145.4" font-family="Helvetica,sans-Serif" font-size="14.00">hasObjective</text>
</a>
</g>
<!-- Priority -->
<g id="node8" class="node"><title>Priority</title>
<a xlink:href="./#Priority" xlink:title="Priority">
<ellipse fill="none" stroke="black" cx="541" cy="-194" rx="41.7645" ry="18"/>
<text text-anchor="middle" x="541" y="-189.4" font-family="Helvetica,sans-Serif" font-size="14.00">Priority</text>
</a>
</g>
<!-- Activity&#45;&gt;Priority -->
<g id="edge22" class="edge"><title>Activity&#45;&gt;Priority</title>
<a xlink:href="./#hasPriority" xlink:title="hasPriority">
<path fill="none" stroke="darkslategray" d="M607.937,-116.146C593.218,-121.821 576.812,-130.188 565,-142 558.257,-148.743 553.198,-157.732 549.508,-166.337"/>
<polygon fill="darkslategray" stroke="darkslategray" points="546.211,-165.16 545.906,-175.751 552.748,-167.662 546.211,-165.16"/>
</a>
<a xlink:href="./#hasPriority" xlink:title="hasPriority">
<text text-anchor="middle" x="600" y="-145.4" font-family="Helvetica,sans-Serif" font-size="14.00">hasPriority</text>
</a>
</g>
<!-- Status -->
<g id="node10" class="node"><title>Status</title>
<a xlink:href="./#Status" xlink:title="Status">
<ellipse fill="none" stroke="black" cx="640" cy="-194" rx="39.0774" ry="18"/>
<text text-anchor="middle" x="640" y="-189.4" font-family="Helvetica,sans-Serif" font-size="14.00">Status</text>
</a>
</g>
<!-- Activity&#45;&gt;Status -->
<g id="edge24" class="edge"><title>Activity&#45;&gt;Status</title>
<a xlink:href="./#hasStatus" xlink:title="hasStatus">
<path fill="none" stroke="darkslategray" d="M641.179,-124.296C640.695,-129.964 640.24,-136.235 640,-142 639.684,-149.602 639.576,-157.835 639.573,-165.459"/>
<polygon fill="darkslategray" stroke="darkslategray" points="636.074,-165.722 639.629,-175.703 643.074,-165.684 636.074,-165.722"/>
</a>
<a xlink:href="./#hasStatus" xlink:title="hasStatus">
<text text-anchor="middle" x="673" y="-145.4" font-family="Helvetica,sans-Serif" font-size="14.00">hasStatus</text>
</a>
</g>
<!-- Emergency -->
<g id="node11" class="node"><title>Emergency</title>
<a xlink:href="./#Emergency" xlink:title="Emergency">
<ellipse fill="none" stroke="gray" cx="784" cy="-194" rx="59.8749" ry="18"/>
<text text-anchor="middle" x="784" y="-189.4" font-family="Helvetica,sans-Serif" font-size="14.00" fill="gray">Emergency</text>
</a>
</g>
<!-- Activity&#45;&gt;Emergency -->
<g id="edge10" class="edge"><title>Activity&#45;&gt;Emergency</title>
<a xlink:href="./#addresses" xlink:title="addresses">
<path fill="none" stroke="darkslategray" d="M669.053,-120.204C680.523,-126.631 694.072,-134.464 706,-142 716.527,-148.651 718.678,-151.034 729,-158 735.784,-162.579 743.084,-167.417 750.078,-172.011"/>
<polygon fill="darkslategray" stroke="darkslategray" points="748.427,-175.114 758.711,-177.661 752.26,-169.256 748.427,-175.114"/>
</a>
<a xlink:href="./#addresses" xlink:title="addresses">
<text text-anchor="middle" x="762.5" y="-145.4" font-family="Helvetica,sans-Serif" font-size="14.00">addresses</text>
</a>
</g>
<!-- Need -->
<g id="node13" class="node"><title>Need</title>
<a xlink:href="./#Need" xlink:title="Need">
<ellipse fill="none" stroke="gray" cx="911" cy="-194" rx="34.2118" ry="18"/>
<text text-anchor="middle" x="911" y="-189.4" font-family="Helvetica,sans-Serif" font-size="14.00" fill="gray">Need</text>
</a>
</g>
<!-- Activity&#45;&gt;Need -->
<g id="edge12" class="edge"><title>Activity&#45;&gt;Need</title>
<a xlink:href="./#addresses" xlink:title="addresses">
<path fill="none" stroke="darkslategray" d="M682.358,-112.618C714.51,-118.594 760.87,-128.52 800,-142 826.991,-151.298 856.174,-165.13 877.841,-176.192"/>
<polygon fill="darkslategray" stroke="darkslategray" points="876.445,-179.41 886.935,-180.896 879.661,-173.193 876.445,-179.41"/>
</a>
<a xlink:href="./#addresses" xlink:title="addresses">
<text text-anchor="middle" x="870.5" y="-145.4" font-family="Helvetica,sans-Serif" font-size="14.00">addresses</text>
</a>
</g>
<!-- ImpactPlanned -->
<g id="node2" class="node"><title>ImpactPlanned</title>
<a xlink:href="./#ImpactPlanned" xlink:title="ImpactPlanned">
<ellipse fill="none" stroke="black" cx="76" cy="-106" rx="75.8027" ry="18"/>
<text text-anchor="middle" x="76" y="-101.4" font-family="Helvetica,sans-Serif" font-size="14.00">ImpactPlanned</text>
</a>
</g>
<!-- ImpactPlanned&#45;&gt;Objective -->
<g id="edge2" class="edge"><title>ImpactPlanned&#45;&gt;Objective</title>
<path fill="none" stroke="red" stroke-dasharray="5,2" d="M115.625,-121.429C155.472,-136.945 216.766,-160.811 258.076,-176.897"/>
<polygon fill="red" stroke="red" points="257.016,-180.24 267.604,-180.607 259.556,-173.717 257.016,-180.24"/>
</g>
<!-- OutcomePlanned -->
<g id="node5" class="node"><title>OutcomePlanned</title>
<a xlink:href="./#OutcomePlanned" xlink:title="OutcomePlanned">
<ellipse fill="none" stroke="black" cx="256" cy="-106" rx="86.0356" ry="18"/>
<text text-anchor="middle" x="256" y="-101.4" font-family="Helvetica,sans-Serif" font-size="14.00">OutcomePlanned</text>
</a>
</g>
<!-- OutcomePlanned&#45;&gt;Objective -->
<g id="edge4" class="edge"><title>OutcomePlanned&#45;&gt;Objective</title>
<path fill="none" stroke="red" stroke-dasharray="5,2" d="M265.531,-124.234C271.988,-136.587 280.633,-153.123 287.884,-166.996"/>
<polygon fill="red" stroke="red" points="284.904,-168.85 292.638,-176.091 291.108,-165.607 284.904,-168.85"/>
</g>
<!-- OutcomeToDate -->
<g id="node7" class="node"><title>OutcomeToDate</title>
<a xlink:href="./#OutcomeToDate" xlink:title="OutcomeToDate">
<ellipse fill="none" stroke="black" cx="965" cy="-18" rx="84.0232" ry="18"/>
<text text-anchor="middle" x="965" y="-13.4" font-family="Helvetica,sans-Serif" font-size="14.00">OutcomeToDate</text>
</a>
</g>
<!-- Response -->
<g id="node9" class="node"><title>Response</title>
<a xlink:href="./#Response" xlink:title="Response">
<ellipse fill="none" stroke="black" cx="810" cy="-18" rx="53.1641" ry="18"/>
<text text-anchor="middle" x="810" y="-13.4" font-family="Helvetica,sans-Serif" font-size="14.00">Response</text>
</a>
</g>
<!-- Response&#45;&gt;Activity -->
<g id="edge18" class="edge"><title>Response&#45;&gt;Activity</title>
<a xlink:href="./#hasPart" xlink:title="hasPart">
<path fill="none" stroke="darkslategray" d="M780.911,-33.3284C752.455,-48.323 709.067,-71.1862 678.573,-87.255"/>
<polygon fill="darkslategray" stroke="darkslategray" points="676.769,-84.2492 669.554,-92.0075 680.032,-90.442 676.769,-84.2492"/>
</a>
<a xlink:href="./#hasPart" xlink:title="hasPart">
<text text-anchor="middle" x="767" y="-57.4" font-family="Helvetica,sans-Serif" font-size="14.00">hasPart</text>
</a>
</g>
<!-- Response&#45;&gt;Emergency -->
<g id="edge6" class="edge"><title>Response&#45;&gt;Emergency</title>
<a xlink:href="./#addresses" xlink:title="addresses">
<path fill="none" stroke="darkslategray" d="M809.462,-36.3221C808.382,-63.2574 805.196,-115.004 796,-158 795.426,-160.686 794.72,-163.451 793.941,-166.2"/>
<polygon fill="darkslategray" stroke="darkslategray" points="790.551,-165.315 790.904,-175.904 797.231,-167.406 790.551,-165.315"/>
</a>
<a xlink:href="./#addresses" xlink:title="addresses">
<text text-anchor="middle" x="839.5" y="-101.4" font-family="Helvetica,sans-Serif" font-size="14.00">addresses</text>
</a>
</g>
<!-- Response&#45;&gt;Need -->
<g id="edge8" class="edge"><title>Response&#45;&gt;Need</title>
<a xlink:href="./#addresses" xlink:title="addresses">
<path fill="none" stroke="darkslategray" d="M830.379,-34.6802C854.923,-56.3401 894.532,-96.7667 908,-142 910.235,-149.508 911.301,-157.888 911.734,-165.692"/>
<polygon fill="darkslategray" stroke="darkslategray" points="908.238,-165.927 911.98,-175.839 915.236,-165.757 908.238,-165.927"/>
</a>
<a xlink:href="./#addresses" xlink:title="addresses">
<text text-anchor="middle" x="933.5" y="-101.4" font-family="Helvetica,sans-Serif" font-size="14.00">addresses</text>
</a>
</g>
<!-- OutputToDate -->
<g id="node17" class="node"><title>OutputToDate</title>
<a xlink:href="./#OutputToDate" xlink:title="OutputToDate">
<ellipse fill="none" stroke="gray" cx="1141" cy="-18" rx="73.7902" ry="18"/>
<text text-anchor="middle" x="1141" y="-13.4" font-family="Helvetica,sans-Serif" font-size="14.00" fill="gray">OutputToDate</text>
</a>
</g>
<!-- OutputPlanned -->
<g id="node18" class="node"><title>OutputPlanned</title>
<a xlink:href="./#OutputPlanned" xlink:title="OutputPlanned">
<ellipse fill="none" stroke="gray" cx="1141" cy="-106" rx="75.8027" ry="18"/>
<text text-anchor="middle" x="1141" y="-101.4" font-family="Helvetica,sans-Serif" font-size="14.00" fill="gray">OutputPlanned</text>
</a>
</g>
<!-- OutputToDate&#45;&gt;OutputPlanned -->
<g id="edge14" class="edge"><title>OutputToDate&#45;&gt;OutputPlanned</title>
<a xlink:href="./#completedOf" xlink:title="completedOf">
<path fill="none" stroke="darkslategray" d="M1141,-36.2337C1141,-48.1508 1141,-63.9616 1141,-77.5183"/>
<polygon fill="darkslategray" stroke="darkslategray" points="1137.5,-77.7897 1141,-87.7897 1144.5,-77.7897 1137.5,-77.7897"/>
</a>
<a xlink:href="./#completedOf" xlink:title="completedOf">
<text text-anchor="middle" x="1183.5" y="-57.4" font-family="Helvetica,sans-Serif" font-size="14.00">completedOf</text>
</a>
</g>
<!-- Organization -->
<g id="node25" class="node"><title>Organization</title>
<a xlink:href="./#Organization" xlink:title="Organization">
<ellipse fill="none" stroke="gray" cx="643" cy="-18" rx="67.082" ry="18"/>
<text text-anchor="middle" x="643" y="-13.4" font-family="Helvetica,sans-Serif" font-size="14.00" fill="gray">Organization</text>
</a>
</g>
<!-- Organization&#45;&gt;Activity -->
<g id="edge26" class="edge"><title>Organization&#45;&gt;Activity</title>
<a xlink:href="./#involvedIn" xlink:title="involvedIn">
<path fill="none" stroke="darkslategray" d="M643,-36.2337C643,-48.1508 643,-63.9616 643,-77.5183"/>
<polygon fill="darkslategray" stroke="darkslategray" points="639.5,-77.7897 643,-87.7897 646.5,-77.7897 639.5,-77.7897"/>
</a>
<a xlink:href="./#involvedIn" xlink:title="involvedIn">
<text text-anchor="middle" x="675" y="-57.4" font-family="Helvetica,sans-Serif" font-size="14.00">involvedIn</text>
</a>
</g>
<!-- Indicator -->
<g id="node27" class="node"><title>Indicator</title>
<a xlink:href="./#Indicator" xlink:title="Indicator">
<ellipse fill="none" stroke="gray" cx="409" cy="-106" rx="49.1393" ry="18"/>
<text text-anchor="middle" x="409" y="-101.4" font-family="Helvetica,sans-Serif" font-size="14.00" fill="gray">Indicator</text>
</a>
</g>
<!-- Indicator&#45;&gt;Objective -->
<g id="edge28" class="edge"><title>Indicator&#45;&gt;Objective</title>
<a xlink:href="./#measures" xlink:title="measures">
<path fill="none" stroke="darkslategray" d="M380.912,-120.986C370.755,-126.95 359.466,-134.241 350,-142 340.299,-149.951 330.702,-159.831 322.668,-168.836"/>
<polygon fill="darkslategray" stroke="darkslategray" points="319.965,-166.611 316.047,-176.455 325.249,-171.202 319.965,-166.611"/>
</a>
<a xlink:href="./#measures" xlink:title="measures">
<text text-anchor="middle" x="382" y="-145.4" font-family="Helvetica,sans-Serif" font-size="14.00">measures</text>
</a>
</g>
</g>
</svg>
