<?xml version="1.0" encoding="UTF-8" standalone="no"?>
<!DOCTYPE svg PUBLIC "-//W3C//DTD SVG 1.1//EN"
 "http://www.w3.org/Graphics/SVG/1.1/DTD/svg11.dtd">
<!-- Generated by graphviz version 2.26.3 (20100126.1600)
 -->
<!-- Title: _anonymous_0 Pages: 1 -->
<svg width="838pt" height="220pt"
 viewBox="0.00 0.00 838.00 220.00" xmlns="http://www.w3.org/2000/svg" xmlns:xlink="http://www.w3.org/1999/xlink">
<g id="graph1" class="graph" transform="scale(1 1) rotate(0) translate(4 216)">
<title>_anonymous_0</title>
<polygon fill="white" stroke="white" points="-4,5 -4,-216 835,-216 835,5 -4,5"/>
<!-- Emergency -->
<g id="node1" class="node"><title>Emergency</title>
<a xlink:href="./#Emergency" xlink:title="Emergency">
<ellipse fill="none" stroke="black" cx="300" cy="-18" rx="59.8749" ry="18"/>
<text text-anchor="middle" x="300" y="-13.4" font-family="Helvetica,sans-Serif" font-size="14.00">Emergency</text>
</a>
</g>
<!-- Situation -->
<g id="node3" class="node"><title>Situation</title>
<a xlink:href="./#Situation" xlink:title="Situation">
<ellipse fill="none" stroke="black" cx="197" cy="-106" rx="49.1393" ry="18"/>
<text text-anchor="middle" x="197" y="-101.4" font-family="Helvetica,sans-Serif" font-size="14.00">Situation</text>
</a>
</g>
<!-- Emergency&#45;&gt;Situation -->
<g id="edge2" class="edge"><title>Emergency&#45;&gt;Situation</title>
<path fill="none" stroke="red" stroke-dasharray="5,2" d="M279.651,-35.386C263.788,-48.9383 241.61,-67.8865 224.221,-82.7432"/>
<polygon fill="red" stroke="red" points="221.938,-80.0904 216.608,-89.2472 226.485,-85.4125 221.938,-80.0904"/>
</g>
<!-- GLIDEnumber -->
<g id="node4" class="node"><title>GLIDEnumber</title>
<a xlink:href="./#GLIDEnumber" xlink:title="GLIDEnumber">
<ellipse fill="none" stroke="black" cx="335" cy="-106" rx="71.107" ry="18"/>
<text text-anchor="middle" x="335" y="-101.4" font-family="Helvetica,sans-Serif" font-size="14.00">GLIDEnumber</text>
</a>
</g>
<!-- Emergency&#45;&gt;GLIDEnumber -->
<g id="edge6" class="edge"><title>Emergency&#45;&gt;GLIDEnumber</title>
<a xlink:href="./#hasGLIDEnumber" xlink:title="hasGLIDEnumber">
<path fill="none" stroke="darkslategray" d="M307.252,-36.2337C312.118,-48.4679 318.616,-64.8055 324.1,-78.5952"/>
<polygon fill="darkslategray" stroke="darkslategray" points="320.929,-80.0923 327.877,-88.0908 327.433,-77.5052 320.929,-80.0923"/>
</a>
<a xlink:href="./#hasGLIDEnumber" xlink:title="hasGLIDEnumber">
<text text-anchor="middle" x="377" y="-57.4" font-family="Helvetica,sans-Serif" font-size="14.00">hasGLIDEnumber</text>
</a>
</g>
<!-- http://www.w3.org/2001/XMLSchema#string -->
<g id="node12" class="node"><title>http://www.w3.org/2001/XMLSchema#string</title>
<a xlink:href="./#http://www.w3.org/2001/XMLSchema#string" xlink:title="http://www.w3.org/2001/XMLSchema#string">
<ellipse fill="none" stroke="gray" cx="197" cy="-194" rx="197.221" ry="18"/>
<text text-anchor="middle" x="197" y="-189.4" font-family="Helvetica,sans-Serif" font-size="14.00" fill="gray">http://www.w3.org/2001/XMLSchema#string</text>
</a>
</g>
<!-- Situation&#45;&gt;http://www.w3.org/2001/XMLSchema#string -->
<g id="edge12" class="edge"><title>Situation&#45;&gt;http://www.w3.org/2001/XMLSchema#string</title>
<a xlink:href="./#http://purl.org/dc/terms/description" xlink:title="http://purl.org/dc/terms/description">
<path fill="none" stroke="darkslategray" d="M197,-124.234C197,-136.151 197,-151.962 197,-165.518"/>
<polygon fill="darkslategray" stroke="darkslategray" points="193.5,-165.79 197,-175.79 200.5,-165.79 193.5,-165.79"/>
</a>
<a xlink:href="./#http://purl.org/dc/terms/description" xlink:title="http://purl.org/dc/terms/description">
<text text-anchor="middle" x="307.5" y="-145.4" font-family="Helvetica,sans-Serif" font-size="14.00">http://purl.org/dc/terms/description</text>
</a>
</g>
<!-- Indicator -->
<g id="node5" class="node"><title>Indicator</title>
<a xlink:href="./#Indicator" xlink:title="Indicator">
<ellipse fill="none" stroke="black" cx="620" cy="-106" rx="49.1393" ry="18"/>
<text text-anchor="middle" x="620" y="-101.4" font-family="Helvetica,sans-Serif" font-size="14.00">Indicator</text>
</a>
</g>
<!-- http://www.w3.org/2000/01/rdf&#45;schema#Literal -->
<g id="node9" class="node"><title>http://www.w3.org/2000/01/rdf&#45;schema#Literal</title>
<a xlink:href="./#http://www.w3.org/2000/01/rdf-schema#Literal" xlink:title="http://www.w3.org/2000/01/rdf&#45;schema#Literal">
<ellipse fill="none" stroke="gray" cx="621" cy="-194" rx="208.796" ry="18"/>
<text text-anchor="middle" x="621" y="-189.4" font-family="Helvetica,sans-Serif" font-size="14.00" fill="gray">http://www.w3.org/2000/01/rdf&#45;schema#Literal</text>
</a>
</g>
<!-- Indicator&#45;&gt;http://www.w3.org/2000/01/rdf&#45;schema#Literal -->
<g id="edge8" class="edge"><title>Indicator&#45;&gt;http://www.w3.org/2000/01/rdf&#45;schema#Literal</title>
<a xlink:href="./#hasStandard" xlink:title="hasStandard">
<path fill="none" stroke="darkslategray" d="M589.667,-120.299C574.184,-129.747 560.112,-143.107 568,-158 570.257,-162.261 573.268,-166.11 576.715,-169.566"/>
<polygon fill="darkslategray" stroke="darkslategray" points="574.441,-172.227 584.297,-176.113 579.015,-166.929 574.441,-172.227"/>
</a>
<a xlink:href="./#hasStandard" xlink:title="hasStandard">
<text text-anchor="middle" x="610" y="-145.4" font-family="Helvetica,sans-Serif" font-size="14.00">hasStandard</text>
</a>
</g>
<!-- Indicator&#45;&gt;http://www.w3.org/2000/01/rdf&#45;schema#Literal -->
<g id="edge10" class="edge"><title>Indicator&#45;&gt;http://www.w3.org/2000/01/rdf&#45;schema#Literal</title>
<a xlink:href="./#hasValue" xlink:title="hasValue">
<path fill="none" stroke="darkslategray" d="M639.542,-122.906C644.576,-128.427 649.325,-134.965 652,-142 655.346,-150.802 652.554,-159.812 647.509,-167.806"/>
<polygon fill="darkslategray" stroke="darkslategray" points="644.543,-165.927 641.335,-176.025 650.139,-170.132 644.543,-165.927"/>
</a>
<a xlink:href="./#hasValue" xlink:title="hasValue">
<text text-anchor="middle" x="682.5" y="-145.4" font-family="Helvetica,sans-Serif" font-size="14.00">hasValue</text>
</a>
</g>
<!-- Need -->
<g id="node6" class="node"><title>Need</title>
<a xlink:href="./#Need" xlink:title="Need">
<ellipse fill="none" stroke="black" cx="620" cy="-18" rx="34.2118" ry="18"/>
<text text-anchor="middle" x="620" y="-13.4" font-family="Helvetica,sans-Serif" font-size="14.00">Need</text>
</a>
</g>
<!-- Need&#45;&gt;Indicator -->
<g id="edge4" class="edge"><title>Need&#45;&gt;Indicator</title>
<a xlink:href="./#basedOn" xlink:title="basedOn">
<path fill="none" stroke="darkslategray" d="M620,-36.2337C620,-48.1508 620,-63.9616 620,-77.5183"/>
<polygon fill="darkslategray" stroke="darkslategray" points="616.5,-77.7897 620,-87.7897 623.5,-77.7897 616.5,-77.7897"/>
</a>
<a xlink:href="./#basedOn" xlink:title="basedOn">
<text text-anchor="middle" x="649" y="-57.4" font-family="Helvetica,sans-Serif" font-size="14.00">basedOn</text>
</a>
</g>
</g>
</svg>
