<?xml version="1.0" encoding="UTF-8" standalone="no"?>
<!DOCTYPE svg PUBLIC "-//W3C//DTD SVG 1.1//EN"
 "http://www.w3.org/Graphics/SVG/1.1/DTD/svg11.dtd">
<!-- Generated by graphviz version 2.26.3 (20100126.1600)
 -->
<!-- Title: _anonymous_0 Pages: 1 -->
<svg width="621pt" height="206pt"
 viewBox="0.00 0.00 621.00 206.00" xmlns="http://www.w3.org/2000/svg" xmlns:xlink="http://www.w3.org/1999/xlink">
<g id="graph1" class="graph" transform="scale(1 1) rotate(0) translate(4 202)">
<title>_anonymous_0</title>
<polygon fill="white" stroke="white" points="-4,5 -4,-202 618,-202 618,5 -4,5"/>
<!-- ReportingPeriod -->
<g id="node1" class="node"><title>ReportingPeriod</title>
<a xlink:href="./#ReportingPeriod" xlink:title="ReportingPeriod">
<ellipse fill="none" stroke="black" cx="173" cy="-18" rx="82.0108" ry="18"/>
<text text-anchor="middle" x="173" y="-13.4" font-family="Helvetica,sans-Serif" font-size="14.00">ReportingPeriod</text>
</a>
</g>
<!-- http://purl.org/dc/terms/PeriodOfTime -->
<g id="node3" class="node"><title>http://purl.org/dc/terms/PeriodOfTime</title>
<a xlink:href="./#http://purl.org/dc/terms/PeriodOfTime" xlink:title="http://purl.org/dc/terms/PeriodOfTime">
<ellipse fill="none" stroke="black" cx="173" cy="-92" rx="173.242" ry="18"/>
<text text-anchor="middle" x="173" y="-87.4" font-family="Helvetica,sans-Serif" font-size="14.00">http://purl.org/dc/terms/PeriodOfTime</text>
</a>
</g>
<!-- ReportingPeriod&#45;&gt;http://purl.org/dc/terms/PeriodOfTime -->
<g id="edge2" class="edge"><title>ReportingPeriod&#45;&gt;http://purl.org/dc/terms/PeriodOfTime</title>
<path fill="none" stroke="red" stroke-dasharray="5,2" d="M173,-36.2921C173,-44.5365 173,-54.4624 173,-63.6378"/>
<polygon fill="red" stroke="red" points="169.5,-63.9182 173,-73.9183 176.5,-63.9183 169.5,-63.9182"/>
</g>
<!-- http://www.w3.org/2000/01/rdf&#45;schema#Literal -->
<g id="node5" class="node"><title>http://www.w3.org/2000/01/rdf&#45;schema#Literal</title>
<a xlink:href="./#http://www.w3.org/2000/01/rdf-schema#Literal" xlink:title="http://www.w3.org/2000/01/rdf&#45;schema#Literal">
<ellipse fill="none" stroke="gray" cx="275" cy="-180" rx="208.796" ry="18"/>
<text text-anchor="middle" x="275" y="-175.4" font-family="Helvetica,sans-Serif" font-size="14.00" fill="gray">http://www.w3.org/2000/01/rdf&#45;schema#Literal</text>
</a>
</g>
<!-- http://purl.org/dc/terms/PeriodOfTime&#45;&gt;http://www.w3.org/2000/01/rdf&#45;schema#Literal -->
<g id="edge8" class="edge"><title>http://purl.org/dc/terms/PeriodOfTime&#45;&gt;http://www.w3.org/2000/01/rdf&#45;schema#Literal</title>
<a xlink:href="./#duration" xlink:title="duration">
<path fill="none" stroke="darkslategray" d="M118.139,-109.227C99.2693,-118.038 85.4604,-129.893 97,-144 103.617,-152.09 118.746,-158.404 137.533,-163.319"/>
<polygon fill="darkslategray" stroke="darkslategray" points="136.803,-166.744 147.345,-165.693 138.449,-159.94 136.803,-166.744"/>
</a>
<a xlink:href="./#duration" xlink:title="duration">
<text text-anchor="middle" x="124" y="-131.4" font-family="Helvetica,sans-Serif" font-size="14.00">duration</text>
</a>
</g>
<!-- http://purl.org/dc/terms/PeriodOfTime&#45;&gt;http://www.w3.org/2000/01/rdf&#45;schema#Literal -->
<g id="edge10" class="edge"><title>http://purl.org/dc/terms/PeriodOfTime&#45;&gt;http://www.w3.org/2000/01/rdf&#45;schema#Literal</title>
<a xlink:href="./#end" xlink:title="end">
<path fill="none" stroke="darkslategray" d="M168.505,-110.467C166.993,-121.212 167.143,-134.473 174,-144 177.921,-149.448 187.648,-154.684 199.599,-159.394"/>
<polygon fill="darkslategray" stroke="darkslategray" points="198.518,-162.726 209.112,-162.888 200.932,-156.155 198.518,-162.726"/>
</a>
<a xlink:href="./#end" xlink:title="end">
<text text-anchor="middle" x="186.5" y="-131.4" font-family="Helvetica,sans-Serif" font-size="14.00">end</text>
</a>
</g>
<!-- http://purl.org/dc/terms/PeriodOfTime&#45;&gt;http://www.w3.org/2000/01/rdf&#45;schema#Literal -->
<g id="edge16" class="edge"><title>http://purl.org/dc/terms/PeriodOfTime&#45;&gt;http://www.w3.org/2000/01/rdf&#45;schema#Literal</title>
<a xlink:href="./#start" xlink:title="start">
<path fill="none" stroke="darkslategray" d="M188.437,-110.275C197.666,-120.7 209.916,-133.7 222,-144 226.889,-148.167 232.269,-152.286 237.67,-156.167"/>
<polygon fill="darkslategray" stroke="darkslategray" points="235.901,-159.199 246.107,-162.041 239.9,-153.455 235.901,-159.199"/>
</a>
<a xlink:href="./#start" xlink:title="start">
<text text-anchor="middle" x="237.5" y="-131.4" font-family="Helvetica,sans-Serif" font-size="14.00">start</text>
</a>
</g>
<!-- Activity -->
<g id="node4" class="node"><title>Activity</title>
<a xlink:href="./#Activity" xlink:title="Activity">
<ellipse fill="none" stroke="gray" cx="433" cy="-92" rx="41.7645" ry="18"/>
<text text-anchor="middle" x="433" y="-87.4" font-family="Helvetica,sans-Serif" font-size="14.00" fill="gray">Activity</text>
</a>
</g>
<!-- Activity&#45;&gt;http://www.w3.org/2000/01/rdf&#45;schema#Literal -->
<g id="edge4" class="edge"><title>Activity&#45;&gt;http://www.w3.org/2000/01/rdf&#45;schema#Literal</title>
<a xlink:href="./#actualEnd" xlink:title="actualEnd">
<path fill="none" stroke="darkslategray" d="M395.71,-100.627C382.817,-103.605 368.275,-106.956 355,-110 319.9,-118.049 298.727,-100.067 276,-128 270.652,-134.573 269.091,-143.314 269.258,-151.752"/>
<polygon fill="darkslategray" stroke="darkslategray" points="265.775,-152.091 270.182,-161.726 272.745,-151.446 265.775,-152.091"/>
</a>
<a xlink:href="./#actualEnd" xlink:title="actualEnd">
<text text-anchor="middle" x="309" y="-131.4" font-family="Helvetica,sans-Serif" font-size="14.00">actualEnd</text>
</a>
</g>
<!-- Activity&#45;&gt;http://www.w3.org/2000/01/rdf&#45;schema#Literal -->
<g id="edge6" class="edge"><title>Activity&#45;&gt;http://www.w3.org/2000/01/rdf&#45;schema#Literal</title>
<a xlink:href="./#actualStart" xlink:title="actualStart">
<path fill="none" stroke="darkslategray" d="M405.447,-105.626C392.91,-112.069 378.003,-120.075 365,-128 354.367,-134.481 352.613,-137.487 342,-144 334.639,-148.517 326.666,-153.076 318.874,-157.361"/>
<polygon fill="darkslategray" stroke="darkslategray" points="316.983,-154.405 309.857,-162.246 320.317,-160.56 316.983,-154.405"/>
</a>
<a xlink:href="./#actualStart" xlink:title="actualStart">
<text text-anchor="middle" x="402" y="-131.4" font-family="Helvetica,sans-Serif" font-size="14.00">actualStart</text>
</a>
</g>
<!-- Activity&#45;&gt;http://www.w3.org/2000/01/rdf&#45;schema#Literal -->
<g id="edge12" class="edge"><title>Activity&#45;&gt;http://www.w3.org/2000/01/rdf&#45;schema#Literal</title>
<a xlink:href="./#plannedEnd" xlink:title="plannedEnd">
<path fill="none" stroke="darkslategray" d="M440.989,-109.708C444.63,-120.708 446.632,-134.511 439,-144 432.911,-151.57 418.875,-157.639 401.442,-162.475"/>
<polygon fill="darkslategray" stroke="darkslategray" points="400.256,-159.166 391.437,-165.036 401.992,-165.947 400.256,-159.166"/>
</a>
<a xlink:href="./#plannedEnd" xlink:title="plannedEnd">
<text text-anchor="middle" x="482" y="-131.4" font-family="Helvetica,sans-Serif" font-size="14.00">plannedEnd</text>
</a>
</g>
<!-- Activity&#45;&gt;http://www.w3.org/2000/01/rdf&#45;schema#Literal -->
<g id="edge14" class="edge"><title>Activity&#45;&gt;http://www.w3.org/2000/01/rdf&#45;schema#Literal</title>
<a xlink:href="./#plannedStart" xlink:title="plannedStart">
<path fill="none" stroke="darkslategray" d="M471.381,-99.5482C503.991,-107.644 542.759,-122.334 524,-144 516.726,-152.401 475.891,-159.811 429.324,-165.691"/>
<polygon fill="darkslategray" stroke="darkslategray" points="428.809,-162.228 419.31,-166.923 429.663,-169.176 428.809,-162.228"/>
</a>
<a xlink:href="./#plannedStart" xlink:title="plannedStart">
<text text-anchor="middle" x="570.5" y="-131.4" font-family="Helvetica,sans-Serif" font-size="14.00">plannedStart</text>
</a>
</g>
</g>
</svg>
