<?xml version="1.0" encoding="UTF-8" standalone="no"?>
<!DOCTYPE svg PUBLIC "-//W3C//DTD SVG 1.1//EN"
 "http://www.w3.org/Graphics/SVG/1.1/DTD/svg11.dtd">
<!-- Generated by graphviz version 2.26.3 (20100126.1600)
 -->
<!-- Title: _anonymous_0 Pages: 1 -->
<svg width="2934pt" height="396pt"
 viewBox="0.00 0.00 2934.00 396.00" xmlns="http://www.w3.org/2000/svg" xmlns:xlink="http://www.w3.org/1999/xlink">
<g id="graph1" class="graph" transform="scale(1 1) rotate(0) translate(4 392)">
<title>_anonymous_0</title>
<polygon fill="white" stroke="white" points="-4,5 -4,-392 2931,-392 2931,5 -4,5"/>
<!-- Activity -->
<g id="node1" class="node"><title>Activity</title>
<a xlink:href="./#Activity" xlink:title="Activity">
<ellipse fill="none" stroke="black" cx="1717" cy="-106" rx="41.7645" ry="18"/>
<text text-anchor="middle" x="1717" y="-101.4" font-family="Helvetica,sans-Serif" font-size="14.00">Activity</text>
</a>
</g>
<!-- Activity&#45;&gt;Activity -->
<g id="edge58" class="edge"><title>Activity&#45;&gt;Activity</title>
<a xlink:href="./#hasPart" xlink:title="hasPart">
<path fill="none" stroke="darkslategray" d="M1754.5,-97.75C1767,-97.75 1777,-100.5 1777,-106 1777,-109.867 1772.06,-112.375 1764.78,-113.523"/>
<polygon fill="darkslategray" stroke="darkslategray" points="1764.23,-110.053 1754.5,-114.25 1764.72,-117.035 1764.23,-110.053"/>
</a>
<a xlink:href="./#hasPart" xlink:title="hasPart">
<text text-anchor="middle" x="1803" y="-101.4" font-family="Helvetica,sans-Serif" font-size="14.00">hasPart</text>
</a>
</g>
<!-- Organisation -->
<g id="node4" class="node"><title>Organisation</title>
<a xlink:href="./#Organisation" xlink:title="Organisation">
<ellipse fill="none" stroke="black" cx="984" cy="-194" rx="65.9119" ry="18"/>
<text text-anchor="middle" x="984" y="-189.4" font-family="Helvetica,sans-Serif" font-size="14.00">Organisation</text>
</a>
</g>
<!-- Activity&#45;&gt;Organisation -->
<g id="edge48" class="edge"><title>Activity&#45;&gt;Organisation</title>
<a xlink:href="./#fundedBy" xlink:title="fundedBy">
<path fill="none" stroke="darkslategray" d="M1675.47,-108.725C1567.52,-115.887 1285.11,-135.159 1266,-142 1254.28,-146.196 1254.6,-153.463 1243,-158 1210.14,-170.856 1121.71,-181.372 1057.29,-187.65"/>
<polygon fill="darkslategray" stroke="darkslategray" points="1056.79,-184.182 1047.17,-188.621 1057.46,-191.15 1056.79,-184.182"/>
</a>
<a xlink:href="./#fundedBy" xlink:title="fundedBy">
<text text-anchor="middle" x="1296.5" y="-145.4" font-family="Helvetica,sans-Serif" font-size="14.00">fundedBy</text>
</a>
</g>
<!-- Activity&#45;&gt;Organisation -->
<g id="edge50" class="edge"><title>Activity&#45;&gt;Organisation</title>
<a xlink:href="./#hasBeneficiaryOrganisation" xlink:title="hasBeneficiaryOrganisation">
<path fill="none" stroke="darkslategray" d="M1675.3,-108.899C1585.59,-115.307 1379.93,-130.981 1350,-142 1338.31,-146.303 1338.67,-153.658 1327,-158 1279.61,-175.631 1145.47,-185.667 1059.66,-190.456"/>
<polygon fill="darkslategray" stroke="darkslategray" points="1059.24,-186.973 1049.45,-191.014 1059.62,-193.963 1059.24,-186.973"/>
</a>
<a xlink:href="./#hasBeneficiaryOrganisation" xlink:title="hasBeneficiaryOrganisation">
<text text-anchor="middle" x="1439" y="-145.4" font-family="Helvetica,sans-Serif" font-size="14.00">hasBeneficiaryOrganisation</text>
</a>
</g>
<!-- Activity&#45;&gt;Organisation -->
<g id="edge64" class="edge"><title>Activity&#45;&gt;Organisation</title>
<a xlink:href="./#implementedBy" xlink:title="implementedBy">
<path fill="none" stroke="darkslategray" d="M1675.55,-109.089C1623.24,-112.921 1530.48,-119.5 1451,-124 1407.14,-126.483 1097.48,-127.534 1056,-142 1054.76,-142.434 1034.29,-157.245 1015.5,-170.948"/>
<polygon fill="darkslategray" stroke="darkslategray" points="1013.35,-168.185 1007.33,-176.908 1017.47,-173.839 1013.35,-168.185"/>
</a>
<a xlink:href="./#implementedBy" xlink:title="implementedBy">
<text text-anchor="middle" x="1106" y="-145.4" font-family="Helvetica,sans-Serif" font-size="14.00">implementedBy</text>
</a>
</g>
<!-- Objective -->
<g id="node10" class="node"><title>Objective</title>
<a xlink:href="./#Objective" xlink:title="Objective">
<ellipse fill="none" stroke="black" cx="2172" cy="-282" rx="51.1517" ry="18"/>
<text text-anchor="middle" x="2172" y="-277.4" font-family="Helvetica,sans-Serif" font-size="14.00">Objective</text>
</a>
</g>
<!-- Activity&#45;&gt;Objective -->
<g id="edge54" class="edge"><title>Activity&#45;&gt;Objective</title>
<a xlink:href="./#hasObjective" xlink:title="hasObjective">
<path fill="none" stroke="darkslategray" d="M1758.27,-110.088C1812.84,-116.95 1910.54,-134.378 1983,-176 2002.62,-187.27 2000.42,-199.089 2019,-212 2052.15,-235.035 2094.1,-253.6 2125.69,-265.808"/>
<polygon fill="darkslategray" stroke="darkslategray" points="2124.54,-269.118 2135.13,-269.39 2127.02,-262.572 2124.54,-269.118"/>
</a>
<a xlink:href="./#hasObjective" xlink:title="hasObjective">
<text text-anchor="middle" x="2061" y="-189.4" font-family="Helvetica,sans-Serif" font-size="14.00">hasObjective</text>
</a>
</g>
<!-- Priority -->
<g id="node21" class="node"><title>Priority</title>
<a xlink:href="./#Priority" xlink:title="Priority">
<ellipse fill="none" stroke="black" cx="2494" cy="-194" rx="41.7645" ry="18"/>
<text text-anchor="middle" x="2494" y="-189.4" font-family="Helvetica,sans-Serif" font-size="14.00">Priority</text>
</a>
</g>
<!-- Activity&#45;&gt;Priority -->
<g id="edge60" class="edge"><title>Activity&#45;&gt;Priority</title>
<a xlink:href="./#hasPriority" xlink:title="hasPriority">
<path fill="none" stroke="darkslategray" d="M1759,-108.702C1893.25,-117.55 2310.86,-146.77 2443,-176 2446.4,-176.753 2449.89,-177.666 2453.37,-178.677"/>
<polygon fill="darkslategray" stroke="darkslategray" points="2452.47,-182.064 2463.06,-181.734 2454.58,-175.388 2452.47,-182.064"/>
</a>
<a xlink:href="./#hasPriority" xlink:title="hasPriority">
<text text-anchor="middle" x="2358" y="-145.4" font-family="Helvetica,sans-Serif" font-size="14.00">hasPriority</text>
</a>
</g>
<!-- Status -->
<g id="node28" class="node"><title>Status</title>
<a xlink:href="./#Status" xlink:title="Status">
<ellipse fill="none" stroke="black" cx="2593" cy="-194" rx="39.0774" ry="18"/>
<text text-anchor="middle" x="2593" y="-189.4" font-family="Helvetica,sans-Serif" font-size="14.00">Status</text>
</a>
</g>
<!-- Activity&#45;&gt;Status -->
<g id="edge62" class="edge"><title>Activity&#45;&gt;Status</title>
<a xlink:href="./#hasStatus" xlink:title="hasStatus">
<path fill="none" stroke="darkslategray" d="M1758.91,-107.268C1887.09,-111.297 2272.75,-124.573 2397,-142 2463.84,-151.375 2480.37,-156.553 2545,-176 2547.8,-176.841 2550.66,-177.763 2553.54,-178.73"/>
<polygon fill="darkslategray" stroke="darkslategray" points="2552.66,-182.13 2563.25,-182.144 2554.98,-175.526 2552.66,-182.13"/>
</a>
<a xlink:href="./#hasStatus" xlink:title="hasStatus">
<text text-anchor="middle" x="2514" y="-145.4" font-family="Helvetica,sans-Serif" font-size="14.00">hasStatus</text>
</a>
</g>
<!-- http://www.w3.org/2000/01/rdf&#45;schema#Literal -->
<g id="node33" class="node"><title>http://www.w3.org/2000/01/rdf&#45;schema#Literal</title>
<a xlink:href="./#http://www.w3.org/2000/01/rdf-schema#Literal" xlink:title="http://www.w3.org/2000/01/rdf&#45;schema#Literal">
<ellipse fill="none" stroke="gray" cx="1656" cy="-370" rx="208.796" ry="18"/>
<text text-anchor="middle" x="1656" y="-365.4" font-family="Helvetica,sans-Serif" font-size="14.00" fill="gray">http://www.w3.org/2000/01/rdf&#45;schema#Literal</text>
</a>
</g>
<!-- Activity&#45;&gt;http://www.w3.org/2000/01/rdf&#45;schema#Literal -->
<g id="edge28" class="edge"><title>Activity&#45;&gt;http://www.w3.org/2000/01/rdf&#45;schema#Literal</title>
<a xlink:href="./#activityDescription" xlink:title="activityDescription">
<path fill="none" stroke="darkslategray" d="M1699.24,-122.423C1676.34,-143.483 1635.17,-180.989 1599,-212 1589.41,-220.223 1582.41,-218.584 1577,-230 1573.95,-236.426 1572.69,-240.34 1577,-246 1595.15,-269.858 1622.32,-241.384 1642,-264 1660.38,-285.132 1661.96,-318.178 1660.16,-341.753"/>
<polygon fill="darkslategray" stroke="darkslategray" points="1656.66,-341.54 1659.14,-351.841 1663.62,-342.243 1656.66,-341.54"/>
</a>
<a xlink:href="./#activityDescription" xlink:title="activityDescription">
<text text-anchor="middle" x="1636" y="-233.4" font-family="Helvetica,sans-Serif" font-size="14.00">activityDescription</text>
</a>
</g>
<!-- Activity&#45;&gt;http://www.w3.org/2000/01/rdf&#45;schema#Literal -->
<g id="edge30" class="edge"><title>Activity&#45;&gt;http://www.w3.org/2000/01/rdf&#45;schema#Literal</title>
<a xlink:href="./#activityTitle" xlink:title="activityTitle">
<path fill="none" stroke="darkslategray" d="M1715.58,-124.265C1712.08,-163.647 1701.27,-259.05 1674,-334 1672.99,-336.77 1671.83,-339.605 1670.59,-342.408"/>
<polygon fill="darkslategray" stroke="darkslategray" points="1667.31,-341.141 1666.18,-351.675 1673.63,-344.148 1667.31,-341.141"/>
</a>
<a xlink:href="./#activityTitle" xlink:title="activityTitle">
<text text-anchor="middle" x="1739" y="-233.4" font-family="Helvetica,sans-Serif" font-size="14.00">activityTitle</text>
</a>
</g>
<!-- Activity&#45;&gt;http://www.w3.org/2000/01/rdf&#45;schema#Literal -->
<g id="edge72" class="edge"><title>Activity&#45;&gt;http://www.w3.org/2000/01/rdf&#45;schema#Literal</title>
<a xlink:href="./#numberOfBeneficiaries" xlink:title="numberOfBeneficiaries">
<path fill="none" stroke="darkslategray" d="M1734.23,-122.646C1759.02,-148.712 1799.81,-200.854 1781,-246 1763.22,-288.687 1722.8,-324.224 1692.71,-346.156"/>
<polygon fill="darkslategray" stroke="darkslategray" points="1690.65,-343.328 1684.53,-351.975 1694.7,-349.034 1690.65,-343.328"/>
</a>
<a xlink:href="./#numberOfBeneficiaries" xlink:title="numberOfBeneficiaries">
<text text-anchor="middle" x="1859" y="-233.4" font-family="Helvetica,sans-Serif" font-size="14.00">numberOfBeneficiaries</text>
</a>
</g>
<!-- Need -->
<g id="node37" class="node"><title>Need</title>
<a xlink:href="./#Need" xlink:title="Need">
<ellipse fill="none" stroke="gray" cx="2684" cy="-194" rx="34.2118" ry="18"/>
<text text-anchor="middle" x="2684" y="-189.4" font-family="Helvetica,sans-Serif" font-size="14.00" fill="gray">Need</text>
</a>
</g>
<!-- Activity&#45;&gt;Need -->
<g id="edge34" class="edge"><title>Activity&#45;&gt;Need</title>
<a xlink:href="./#addresses" xlink:title="addresses">
<path fill="none" stroke="darkslategray" d="M1759.09,-107.033C1917.55,-111.032 2473.22,-126.058 2551,-142 2586.04,-149.183 2623.83,-164.786 2650.14,-177.038"/>
<polygon fill="darkslategray" stroke="darkslategray" points="2648.75,-180.253 2659.29,-181.378 2651.75,-173.929 2648.75,-180.253"/>
</a>
<a xlink:href="./#addresses" xlink:title="addresses">
<text text-anchor="middle" x="2636.5" y="-145.4" font-family="Helvetica,sans-Serif" font-size="14.00">addresses</text>
</a>
</g>
<!-- BilateralOrganisation -->
<g id="node2" class="node"><title>BilateralOrganisation</title>
<a xlink:href="./#BilateralOrganisation" xlink:title="BilateralOrganisation">
<ellipse fill="none" stroke="black" cx="102" cy="-106" rx="101.965" ry="18"/>
<text text-anchor="middle" x="102" y="-101.4" font-family="Helvetica,sans-Serif" font-size="14.00">BilateralOrganisation</text>
</a>
</g>
<!-- BilateralOrganisation&#45;&gt;Organisation -->
<g id="edge2" class="edge"><title>BilateralOrganisation&#45;&gt;Organisation</title>
<path fill="none" stroke="red" stroke-dasharray="5,2" d="M175.037,-118.592C187.674,-120.556 200.701,-122.446 213,-124 467.976,-156.208 772.2,-179.355 909.848,-189.008"/>
<polygon fill="red" stroke="red" points="909.646,-192.502 919.866,-189.707 910.134,-185.519 909.646,-192.502"/>
</g>
<!-- Organisation&#45;&gt;Activity -->
<g id="edge66" class="edge"><title>Organisation&#45;&gt;Activity</title>
<a xlink:href="./#involvedIn" xlink:title="involvedIn">
<path fill="none" stroke="darkslategray" d="M1046.9,-188.365C1080.57,-183.524 1121.99,-174.561 1156,-158 1165.93,-153.167 1164.76,-146.121 1175,-142 1232.02,-119.059 1389.67,-128.075 1451,-124 1525.26,-119.066 1611.16,-113.23 1664.79,-109.57"/>
<polygon fill="darkslategray" stroke="darkslategray" points="1665.34,-113.042 1675.08,-108.869 1664.86,-106.058 1665.34,-113.042"/>
</a>
<a xlink:href="./#involvedIn" xlink:title="involvedIn">
<text text-anchor="middle" x="1207" y="-145.4" font-family="Helvetica,sans-Serif" font-size="14.00">involvedIn</text>
</a>
</g>
<!-- Organisation&#45;&gt;Organisation -->
<g id="edge52" class="edge"><title>Organisation&#45;&gt;Organisation</title>
<a xlink:href="./#hasChildOrg" xlink:title="hasChildOrg">
<path fill="none" stroke="darkslategray" d="M1043.26,-185.896C1057.47,-186.529 1068,-189.23 1068,-194 1068,-197.54 1062.2,-199.941 1053.4,-201.202"/>
<polygon fill="darkslategray" stroke="darkslategray" points="1052.91,-197.732 1043.26,-202.104 1053.53,-204.704 1052.91,-197.732"/>
</a>
<a xlink:href="./#hasChildOrg" xlink:title="hasChildOrg">
<text text-anchor="middle" x="1108" y="-189.4" font-family="Helvetica,sans-Serif" font-size="14.00">hasChildOrg</text>
</a>
</g>
<!-- Cluster -->
<g id="node5" class="node"><title>Cluster</title>
<a xlink:href="./#Cluster" xlink:title="Cluster">
<ellipse fill="none" stroke="black" cx="864" cy="-282" rx="41.7645" ry="18"/>
<text text-anchor="middle" x="864" y="-277.4" font-family="Helvetica,sans-Serif" font-size="14.00">Cluster</text>
</a>
</g>
<!-- Organisation&#45;&gt;Cluster -->
<g id="edge36" class="edge"><title>Organisation&#45;&gt;Cluster</title>
<a xlink:href="./#clusterLeadOf" xlink:title="clusterLeadOf">
<path fill="none" stroke="darkslategray" d="M920.333,-198.831C850.044,-204.825 745.146,-215.987 733,-230 728.342,-235.373 728.597,-240.416 733,-246 754.223,-272.92 774.992,-254.748 808,-264 812.264,-265.195 816.689,-266.502 821.1,-267.848"/>
<polygon fill="darkslategray" stroke="darkslategray" points="820.075,-271.194 830.663,-270.83 822.158,-264.511 820.075,-271.194"/>
</a>
<a xlink:href="./#clusterLeadOf" xlink:title="clusterLeadOf">
<text text-anchor="middle" x="779.5" y="-233.4" font-family="Helvetica,sans-Serif" font-size="14.00">clusterLeadOf</text>
</a>
</g>
<!-- Organisation&#45;&gt;Cluster -->
<g id="edge38" class="edge"><title>Organisation&#45;&gt;Cluster</title>
<a xlink:href="./#clusterMemberOf" xlink:title="clusterMemberOf">
<path fill="none" stroke="darkslategray" d="M928.594,-203.991C901.146,-210.184 872.147,-219.05 864,-230 858.998,-236.722 857.623,-245.405 857.903,-253.744"/>
<polygon fill="darkslategray" stroke="darkslategray" points="854.45,-254.376 858.993,-263.948 861.411,-253.632 854.45,-254.376"/>
</a>
<a xlink:href="./#clusterMemberOf" xlink:title="clusterMemberOf">
<text text-anchor="middle" x="920.5" y="-233.4" font-family="Helvetica,sans-Serif" font-size="14.00">clusterMemberOf</text>
</a>
</g>
<!-- http://xmlns.com/foaf/0.1/Organisation -->
<g id="node16" class="node"><title>http://xmlns.com/foaf/0.1/Organisation</title>
<a xlink:href="./#http://xmlns.com/foaf/0.1/Organisation" xlink:title="http://xmlns.com/foaf/0.1/Organisation">
<ellipse fill="none" stroke="black" cx="376" cy="-282" rx="175.084" ry="18"/>
<text text-anchor="middle" x="376" y="-277.4" font-family="Helvetica,sans-Serif" font-size="14.00">http://xmlns.com/foaf/0.1/Organisation</text>
</a>
</g>
<!-- Organisation&#45;&gt;http://xmlns.com/foaf/0.1/Organisation -->
<g id="edge12" class="edge"><title>Organisation&#45;&gt;http://xmlns.com/foaf/0.1/Organisation</title>
<path fill="none" stroke="red" stroke-dasharray="5,2" d="M918.421,-196.293C836.925,-199.932 693.837,-208.919 573,-230 528.217,-237.813 478.75,-250.886 440.587,-261.97"/>
<polygon fill="red" stroke="red" points="439.249,-258.715 430.639,-264.888 441.22,-265.432 439.249,-258.715"/>
</g>
<!-- Organisation&#45;&gt;http://www.w3.org/2000/01/rdf&#45;schema#Literal -->
<g id="edge26" class="edge"><title>Organisation&#45;&gt;http://www.w3.org/2000/01/rdf&#45;schema#Literal</title>
<a xlink:href="./#abbreviation" xlink:title="abbreviation">
<path fill="none" stroke="darkslategray" d="M920.166,-198.575C847.928,-204.415 738.599,-215.521 726,-230 713.782,-244.041 704.023,-271.377 734,-300 759.864,-324.695 1196.51,-348.93 1459.5,-361.378"/>
<polygon fill="darkslategray" stroke="darkslategray" points="1459.4,-364.877 1469.55,-361.852 1459.73,-357.885 1459.4,-364.877"/>
</a>
<a xlink:href="./#abbreviation" xlink:title="abbreviation">
<text text-anchor="middle" x="773.5" y="-277.4" font-family="Helvetica,sans-Serif" font-size="14.00">abbreviation</text>
</a>
</g>
<!-- Organisation&#45;&gt;http://www.w3.org/2000/01/rdf&#45;schema#Literal -->
<g id="edge76" class="edge"><title>Organisation&#45;&gt;http://www.w3.org/2000/01/rdf&#45;schema#Literal</title>
<a xlink:href="./#orgDisplayName" xlink:title="orgDisplayName">
<path fill="none" stroke="darkslategray" d="M1049.51,-196.555C1158.08,-201.26 1366.27,-212.447 1395,-230 1426.36,-249.16 1409.99,-277.446 1439,-300 1470.84,-324.757 1511.72,-340.896 1549.39,-351.355"/>
<polygon fill="darkslategray" stroke="darkslategray" points="1548.83,-354.83 1559.4,-354.025 1550.64,-348.066 1548.83,-354.83"/>
</a>
<a xlink:href="./#orgDisplayName" xlink:title="orgDisplayName">
<text text-anchor="middle" x="1492" y="-277.4" font-family="Helvetica,sans-Serif" font-size="14.00">orgDisplayName</text>
</a>
</g>
<!-- Organisation&#45;&gt;http://www.w3.org/2000/01/rdf&#45;schema#Literal -->
<g id="edge78" class="edge"><title>Organisation&#45;&gt;http://www.w3.org/2000/01/rdf&#45;schema#Literal</title>
<a xlink:href="./#orgName" xlink:title="orgName">
<path fill="none" stroke="darkslategray" d="M1049.75,-195.89C1179.23,-200.623 1461.92,-216.26 1545,-264 1564.62,-275.274 1564.73,-284.278 1581,-300 1596.67,-315.14 1614.49,-331.797 1628.83,-345.063"/>
<polygon fill="darkslategray" stroke="darkslategray" points="1626.68,-347.841 1636.4,-352.052 1631.43,-342.697 1626.68,-347.841"/>
</a>
<a xlink:href="./#orgName" xlink:title="orgName">
<text text-anchor="middle" x="1611.5" y="-277.4" font-family="Helvetica,sans-Serif" font-size="14.00">orgName</text>
</a>
</g>
<!-- Organisation&#45;&gt;http://www.w3.org/2000/01/rdf&#45;schema#Literal -->
<g id="edge80" class="edge"><title>Organisation&#45;&gt;http://www.w3.org/2000/01/rdf&#45;schema#Literal</title>
<a xlink:href="./#orgNativeName" xlink:title="orgNativeName">
<path fill="none" stroke="darkslategray" d="M920.442,-199.114C865.147,-204.351 783.108,-214.026 713,-230 665.586,-240.803 637.548,-224.632 609,-264 599.607,-276.953 599.164,-287.38 609,-300 647.035,-348.802 682.759,-325.177 744,-334 873.186,-352.612 1213.77,-362.178 1440.18,-366.633"/>
<polygon fill="darkslategray" stroke="darkslategray" points="1440.14,-370.132 1450.2,-366.828 1440.27,-363.134 1440.14,-370.132"/>
</a>
<a xlink:href="./#orgNativeName" xlink:title="orgNativeName">
<text text-anchor="middle" x="660" y="-277.4" font-family="Helvetica,sans-Serif" font-size="14.00">orgNativeName</text>
</a>
</g>
<!-- Country -->
<g id="node57" class="node"><title>Country</title>
<a xlink:href="./#Country" xlink:title="Country">
<ellipse fill="none" stroke="gray" cx="991" cy="-282" rx="45.1145" ry="18"/>
<text text-anchor="middle" x="991" y="-277.4" font-family="Helvetica,sans-Serif" font-size="14.00" fill="gray">Country</text>
</a>
</g>
<!-- Organisation&#45;&gt;Country -->
<g id="edge68" class="edge"><title>Organisation&#45;&gt;Country</title>
<a xlink:href="./#locatedInCountry" xlink:title="locatedInCountry">
<path fill="none" stroke="darkslategray" d="M1041.92,-202.856C1072.59,-208.854 1105.78,-217.901 1115,-230 1119.31,-235.655 1119.28,-240.323 1115,-246 1097.46,-269.248 1079.97,-255.879 1052,-264 1047.15,-265.407 1042.09,-266.886 1037.05,-268.365"/>
<polygon fill="darkslategray" stroke="darkslategray" points="1036.04,-265.014 1027.43,-271.193 1038.02,-271.73 1036.04,-265.014"/>
</a>
<a xlink:href="./#locatedInCountry" xlink:title="locatedInCountry">
<text text-anchor="middle" x="1175" y="-233.4" font-family="Helvetica,sans-Serif" font-size="14.00">locatedInCountry</text>
</a>
</g>
<!-- Organisation&#45;&gt;Country -->
<g id="edge88" class="edge"><title>Organisation&#45;&gt;Country</title>
<a xlink:href="./#representedCountry" xlink:title="representedCountry">
<path fill="none" stroke="darkslategray" d="M981.222,-212.357C980.142,-222.342 979.486,-234.89 981,-246 981.365,-248.679 981.877,-251.441 982.477,-254.186"/>
<polygon fill="darkslategray" stroke="darkslategray" points="979.086,-255.055 984.939,-263.887 985.871,-253.333 979.086,-255.055"/>
</a>
<a xlink:href="./#representedCountry" xlink:title="representedCountry">
<text text-anchor="middle" x="1046" y="-233.4" font-family="Helvetica,sans-Serif" font-size="14.00">representedCountry</text>
</a>
</g>
<!-- http://xmlns.com/foaf/0.1/Document -->
<g id="node66" class="node"><title>http://xmlns.com/foaf/0.1/Document</title>
<a xlink:href="./#http://xmlns.com/foaf/0.1/Document" xlink:title="http://xmlns.com/foaf/0.1/Document">
<ellipse fill="none" stroke="gray" cx="1225" cy="-282" rx="163.851" ry="18"/>
<text text-anchor="middle" x="1225" y="-277.4" font-family="Helvetica,sans-Serif" font-size="14.00" fill="gray">http://xmlns.com/foaf/0.1/Document</text>
</a>
</g>
<!-- Organisation&#45;&gt;http://xmlns.com/foaf/0.1/Document -->
<g id="edge82" class="edge"><title>Organisation&#45;&gt;http://xmlns.com/foaf/0.1/Document</title>
<a xlink:href="./#organisationHomepage" xlink:title="organisationHomepage">
<path fill="none" stroke="darkslategray" d="M1047.67,-198.831C1117.96,-204.825 1222.85,-215.987 1235,-230 1240.71,-236.591 1240.82,-245.438 1238.69,-253.965"/>
<polygon fill="darkslategray" stroke="darkslategray" points="1235.29,-253.078 1235.36,-263.672 1241.91,-255.347 1235.29,-253.078"/>
</a>
<a xlink:href="./#organisationHomepage" xlink:title="organisationHomepage">
<text text-anchor="middle" x="1315.5" y="-233.4" font-family="Helvetica,sans-Serif" font-size="14.00">organisationHomepage</text>
</a>
</g>
<!-- Cluster&#45;&gt;Activity -->
<g id="edge42" class="edge"><title>Cluster&#45;&gt;Activity</title>
<a xlink:href="./#coordinates" xlink:title="coordinates">
<path fill="none" stroke="darkslategray" d="M898.992,-271.847C910.946,-268.787 924.463,-265.773 937,-264 1037.85,-249.735 1296.88,-273.317 1395,-246 1457.09,-228.715 1464.24,-204.6 1522,-176 1555.52,-159.399 1563.94,-155.037 1599,-142 1622.59,-133.229 1649.38,-124.926 1671.47,-118.508"/>
<polygon fill="darkslategray" stroke="darkslategray" points="1672.62,-121.821 1681.26,-115.697 1670.68,-115.093 1672.62,-121.821"/>
</a>
<a xlink:href="./#coordinates" xlink:title="coordinates">
<text text-anchor="middle" x="1560.5" y="-189.4" font-family="Helvetica,sans-Serif" font-size="14.00">coordinates</text>
</a>
</g>
<!-- Sector -->
<g id="node27" class="node"><title>Sector</title>
<a xlink:href="./#Sector" xlink:title="Sector">
<ellipse fill="none" stroke="black" cx="667" cy="-370" rx="40.92" ry="18"/>
<text text-anchor="middle" x="667" y="-365.4" font-family="Helvetica,sans-Serif" font-size="14.00">Sector</text>
</a>
</g>
<!-- Cluster&#45;&gt;Sector -->
<g id="edge44" class="edge"><title>Cluster&#45;&gt;Sector</title>
<a xlink:href="./#covers" xlink:title="covers">
<path fill="none" stroke="darkslategray" d="M834.507,-295.174C800.072,-310.557 743.025,-336.04 705.222,-352.926"/>
<polygon fill="darkslategray" stroke="darkslategray" points="703.754,-349.748 696.051,-357.023 706.609,-356.14 703.754,-349.748"/>
</a>
<a xlink:href="./#covers" xlink:title="covers">
<text text-anchor="middle" x="805.5" y="-321.4" font-family="Helvetica,sans-Serif" font-size="14.00">covers</text>
</a>
</g>
<!-- Cluster&#45;&gt;http://www.w3.org/2000/01/rdf&#45;schema#Literal -->
<g id="edge40" class="edge"><title>Cluster&#45;&gt;http://www.w3.org/2000/01/rdf&#45;schema#Literal</title>
<a xlink:href="./#clusterName" xlink:title="clusterName">
<path fill="none" stroke="darkslategray" d="M899.428,-291.829C911.295,-294.828 924.648,-297.887 937,-300 1117.18,-330.818 1325.26,-349.235 1471.06,-359.382"/>
<polygon fill="darkslategray" stroke="darkslategray" points="1471.23,-362.902 1481.45,-360.098 1471.71,-355.918 1471.23,-362.902"/>
</a>
<a xlink:href="./#clusterName" xlink:title="clusterName">
<text text-anchor="middle" x="1214" y="-321.4" font-family="Helvetica,sans-Serif" font-size="14.00">clusterName</text>
</a>
</g>
<!-- GovernmentOrganisation -->
<g id="node6" class="node"><title>GovernmentOrganisation</title>
<a xlink:href="./#GovernmentOrganisation" xlink:title="GovernmentOrganisation">
<ellipse fill="none" stroke="black" cx="342" cy="-106" rx="120.077" ry="18"/>
<text text-anchor="middle" x="342" y="-101.4" font-family="Helvetica,sans-Serif" font-size="14.00">GovernmentOrganisation</text>
</a>
</g>
<!-- GovernmentOrganisation&#45;&gt;Organisation -->
<g id="edge4" class="edge"><title>GovernmentOrganisation&#45;&gt;Organisation</title>
<path fill="none" stroke="red" stroke-dasharray="5,2" d="M429.775,-118.284C443.57,-120.204 457.672,-122.161 471,-124 629.671,-145.896 816.005,-171.225 914.613,-184.6"/>
<polygon fill="red" stroke="red" points="914.368,-188.098 924.747,-185.974 915.308,-181.162 914.368,-188.098"/>
</g>
<!-- ImpactPlanned -->
<g id="node8" class="node"><title>ImpactPlanned</title>
<a xlink:href="./#ImpactPlanned" xlink:title="ImpactPlanned">
<ellipse fill="none" stroke="black" cx="2188" cy="-194" rx="75.8027" ry="18"/>
<text text-anchor="middle" x="2188" y="-189.4" font-family="Helvetica,sans-Serif" font-size="14.00">ImpactPlanned</text>
</a>
</g>
<!-- ImpactPlanned&#45;&gt;Objective -->
<g id="edge6" class="edge"><title>ImpactPlanned&#45;&gt;Objective</title>
<path fill="none" stroke="red" stroke-dasharray="5,2" d="M2184.68,-212.234C2182.5,-224.269 2179.59,-240.275 2177.11,-253.92"/>
<polygon fill="red" stroke="red" points="2173.66,-253.325 2175.31,-263.79 2180.54,-254.577 2173.66,-253.325"/>
</g>
<!-- Objective&#45;&gt;http://www.w3.org/2000/01/rdf&#45;schema#Literal -->
<g id="edge74" class="edge"><title>Objective&#45;&gt;http://www.w3.org/2000/01/rdf&#45;schema#Literal</title>
<a xlink:href="./#objectiveDescription" xlink:title="objectiveDescription">
<path fill="none" stroke="darkslategray" d="M2135.44,-294.681C2099.59,-306.623 2043.17,-324.114 1993,-334 1939.71,-344.501 1881.04,-352.109 1827.8,-357.546"/>
<polygon fill="darkslategray" stroke="darkslategray" points="1827.18,-354.091 1817.58,-358.57 1827.87,-361.056 1827.18,-354.091"/>
</a>
<a xlink:href="./#objectiveDescription" xlink:title="objectiveDescription">
<text text-anchor="middle" x="2122" y="-321.4" font-family="Helvetica,sans-Serif" font-size="14.00">objectiveDescription</text>
</a>
</g>
<!-- InterGovernmentalOrganisation -->
<g id="node11" class="node"><title>InterGovernmentalOrganisation</title>
<a xlink:href="./#InterGovernmentalOrganisation" xlink:title="InterGovernmentalOrganisation">
<ellipse fill="none" stroke="black" cx="627" cy="-106" rx="147.08" ry="18"/>
<text text-anchor="middle" x="627" y="-101.4" font-family="Helvetica,sans-Serif" font-size="14.00">InterGovernmentalOrganisation</text>
</a>
</g>
<!-- InterGovernmentalOrganisation&#45;&gt;Organisation -->
<g id="edge8" class="edge"><title>InterGovernmentalOrganisation&#45;&gt;Organisation</title>
<path fill="none" stroke="red" stroke-dasharray="5,2" d="M692.479,-122.141C758.973,-138.531 861.011,-163.683 925.052,-179.469"/>
<polygon fill="red" stroke="red" points="924.445,-182.925 934.993,-181.92 926.121,-176.128 924.445,-182.925"/>
</g>
<!-- NGO -->
<g id="node13" class="node"><title>NGO</title>
<a xlink:href="./#NGO" xlink:title="NGO">
<ellipse fill="none" stroke="black" cx="824" cy="-106" rx="32.1994" ry="18"/>
<text text-anchor="middle" x="824" y="-101.4" font-family="Helvetica,sans-Serif" font-size="14.00">NGO</text>
</a>
</g>
<!-- NGO&#45;&gt;Organisation -->
<g id="edge10" class="edge"><title>NGO&#45;&gt;Organisation</title>
<path fill="none" stroke="red" stroke-dasharray="5,2" d="M846.924,-118.608C872.609,-132.735 914.673,-155.87 945.44,-172.792"/>
<polygon fill="red" stroke="red" points="944.146,-176.075 954.595,-177.827 947.52,-169.941 944.146,-176.075"/>
</g>
<!-- http://xmlns.com/foaf/0.1/Agent -->
<g id="node31" class="node"><title>http://xmlns.com/foaf/0.1/Agent</title>
<a xlink:href="./#http://xmlns.com/foaf/0.1/Organisation" xlink:title="http://xmlns.com/foaf/0.1/Agent">
<ellipse fill="none" stroke="gray" cx="376" cy="-370" rx="145.068" ry="18"/>
<text text-anchor="middle" x="376" y="-365.4" font-family="Helvetica,sans-Serif" font-size="14.00" fill="gray">http://xmlns.com/foaf/0.1/Agent</text>
</a>
</g>
<!-- http://xmlns.com/foaf/0.1/Organisation&#45;&gt;http://xmlns.com/foaf/0.1/Agent -->
<g id="edge24" class="edge"><title>http://xmlns.com/foaf/0.1/Organisation&#45;&gt;http://xmlns.com/foaf/0.1/Agent</title>
<path fill="none" stroke="red" stroke-dasharray="5,2" d="M376,-300.234C376,-312.151 376,-327.962 376,-341.518"/>
<polygon fill="red" stroke="red" points="372.5,-341.79 376,-351.79 379.5,-341.79 372.5,-341.79"/>
</g>
<!-- OutcomePlanned -->
<g id="node17" class="node"><title>OutcomePlanned</title>
<a xlink:href="./#OutcomePlanned" xlink:title="OutcomePlanned">
<ellipse fill="none" stroke="black" cx="1888" cy="-194" rx="86.0356" ry="18"/>
<text text-anchor="middle" x="1888" y="-189.4" font-family="Helvetica,sans-Serif" font-size="14.00">OutcomePlanned</text>
</a>
</g>
<!-- OutcomePlanned&#45;&gt;Objective -->
<g id="edge14" class="edge"><title>OutcomePlanned&#45;&gt;Objective</title>
<path fill="none" stroke="red" stroke-dasharray="5,2" d="M1936.19,-209.018C1953.43,-214.91 1972.84,-222.146 1990,-230 2003.03,-235.965 2004.66,-240.758 2018,-246 2027.5,-249.734 2077.95,-261.281 2118.55,-270.302"/>
<polygon fill="red" stroke="red" points="2117.85,-273.731 2128.37,-272.476 2119.36,-266.896 2117.85,-273.731"/>
</g>
<!-- OutcomePlanned&#45;&gt;http://www.w3.org/2000/01/rdf&#45;schema#Literal -->
<g id="edge84" class="edge"><title>OutcomePlanned&#45;&gt;http://www.w3.org/2000/01/rdf&#45;schema#Literal</title>
<a xlink:href="./#outcomeToDate" xlink:title="outcomeToDate">
<path fill="none" stroke="darkslategray" d="M1939.4,-208.667C1958.68,-217.119 1973.99,-229.406 1965,-246 1930.88,-308.972 1896.22,-306.714 1830,-334 1811.94,-341.44 1792.18,-347.401 1772.65,-352.161"/>
<polygon fill="darkslategray" stroke="darkslategray" points="1771.72,-348.784 1762.79,-354.472 1773.32,-355.599 1771.72,-348.784"/>
</a>
<a xlink:href="./#outcomeToDate" xlink:title="outcomeToDate">
<text text-anchor="middle" x="2006.5" y="-277.4" font-family="Helvetica,sans-Serif" font-size="14.00">outcomeToDate</text>
</a>
</g>
<!-- OutputPlanned -->
<g id="node19" class="node"><title>OutputPlanned</title>
<a xlink:href="./#OutputPlanned" xlink:title="OutputPlanned">
<ellipse fill="none" stroke="black" cx="2358" cy="-194" rx="75.8027" ry="18"/>
<text text-anchor="middle" x="2358" y="-189.4" font-family="Helvetica,sans-Serif" font-size="14.00">OutputPlanned</text>
</a>
</g>
<!-- OutputPlanned&#45;&gt;Objective -->
<g id="edge16" class="edge"><title>OutputPlanned&#45;&gt;Objective</title>
<path fill="none" stroke="red" stroke-dasharray="5,2" d="M2311.43,-208.349C2294.03,-214.292 2274.3,-221.734 2257,-230 2238.86,-238.666 2219.68,-250.177 2204.13,-260.167"/>
<polygon fill="red" stroke="red" points="2201.9,-257.444 2195.44,-265.839 2205.73,-263.307 2201.9,-257.444"/>
</g>
<!-- OutputPlanned&#45;&gt;http://www.w3.org/2000/01/rdf&#45;schema#Literal -->
<g id="edge86" class="edge"><title>OutputPlanned&#45;&gt;http://www.w3.org/2000/01/rdf&#45;schema#Literal</title>
<a xlink:href="./#outputToDate" xlink:title="outputToDate">
<path fill="none" stroke="darkslategray" d="M2356.55,-212.391C2354.91,-223.109 2351.41,-236.368 2344,-246 2296.16,-308.167 2266.07,-311.225 2191,-334 2132.19,-351.843 1991.72,-360.857 1869.48,-365.403"/>
<polygon fill="darkslategray" stroke="darkslategray" points="1869.08,-361.915 1859.21,-365.776 1869.33,-368.91 1869.08,-361.915"/>
</a>
<a xlink:href="./#outputToDate" xlink:title="outputToDate">
<text text-anchor="middle" x="2373.5" y="-277.4" font-family="Helvetica,sans-Serif" font-size="14.00">outputToDate</text>
</a>
</g>
<!-- PrivateOrganisation -->
<g id="node22" class="node"><title>PrivateOrganisation</title>
<a xlink:href="./#PrivateOrganisation" xlink:title="PrivateOrganisation">
<ellipse fill="none" stroke="black" cx="972" cy="-106" rx="97.9398" ry="18"/>
<text text-anchor="middle" x="972" y="-101.4" font-family="Helvetica,sans-Serif" font-size="14.00">PrivateOrganisation</text>
</a>
</g>
<!-- PrivateOrganisation&#45;&gt;Organisation -->
<g id="edge18" class="edge"><title>PrivateOrganisation&#45;&gt;Organisation</title>
<path fill="none" stroke="red" stroke-dasharray="5,2" d="M974.486,-124.234C976.111,-136.151 978.267,-151.962 980.116,-165.518"/>
<polygon fill="red" stroke="red" points="976.698,-166.354 981.517,-175.79 983.633,-165.408 976.698,-166.354"/>
</g>
<!-- RedCrossRedCrescent -->
<g id="node24" class="node"><title>RedCrossRedCrescent</title>
<a xlink:href="./#RedCrossRedCrescent" xlink:title="RedCrossRedCrescent">
<ellipse fill="none" stroke="black" cx="1200" cy="-106" rx="112.027" ry="18"/>
<text text-anchor="middle" x="1200" y="-101.4" font-family="Helvetica,sans-Serif" font-size="14.00">RedCrossRedCrescent</text>
</a>
</g>
<!-- RedCrossRedCrescent&#45;&gt;Organisation -->
<g id="edge20" class="edge"><title>RedCrossRedCrescent&#45;&gt;Organisation</title>
<path fill="none" stroke="red" stroke-dasharray="5,2" d="M1117.73,-118.267C1070.96,-125.838 1019.94,-135.342 1011,-142 1002.85,-148.068 996.951,-157.316 992.786,-166.339"/>
<polygon fill="red" stroke="red" points="989.431,-165.298 988.922,-175.881 995.919,-167.925 989.431,-165.298"/>
</g>
<!-- Response -->
<g id="node26" class="node"><title>Response</title>
<a xlink:href="./#Response" xlink:title="Response">
<ellipse fill="none" stroke="black" cx="2721" cy="-18" rx="53.1641" ry="18"/>
<text text-anchor="middle" x="2721" y="-13.4" font-family="Helvetica,sans-Serif" font-size="14.00">Response</text>
</a>
</g>
<!-- Response&#45;&gt;Activity -->
<g id="edge56" class="edge"><title>Response&#45;&gt;Activity</title>
<a xlink:href="./#hasPart" xlink:title="hasPart">
<path fill="none" stroke="darkslategray" d="M2669.48,-22.5154C2496.96,-37.6374 1940.68,-86.3948 1768.37,-101.498"/>
<polygon fill="darkslategray" stroke="darkslategray" points="1767.95,-98.0206 1758.3,-102.38 1768.56,-104.994 1767.95,-98.0206"/>
</a>
<a xlink:href="./#hasPart" xlink:title="hasPart">
<text text-anchor="middle" x="2334" y="-57.4" font-family="Helvetica,sans-Serif" font-size="14.00">hasPart</text>
</a>
</g>
<!-- Response&#45;&gt;Need -->
<g id="edge32" class="edge"><title>Response&#45;&gt;Need</title>
<a xlink:href="./#addresses" xlink:title="addresses">
<path fill="none" stroke="darkslategray" d="M2717.18,-36.1722C2710.71,-66.9479 2697.55,-129.524 2689.9,-165.957"/>
<polygon fill="darkslategray" stroke="darkslategray" points="2686.43,-165.42 2687.8,-175.927 2693.28,-166.861 2686.43,-165.42"/>
</a>
<a xlink:href="./#addresses" xlink:title="addresses">
<text text-anchor="middle" x="2739.5" y="-101.4" font-family="Helvetica,sans-Serif" font-size="14.00">addresses</text>
</a>
</g>
<!-- Emergency -->
<g id="node45" class="node"><title>Emergency</title>
<a xlink:href="./#Emergency" xlink:title="Emergency">
<ellipse fill="none" stroke="gray" cx="2866" cy="-106" rx="59.8749" ry="18"/>
<text text-anchor="middle" x="2866" y="-101.4" font-family="Helvetica,sans-Serif" font-size="14.00" fill="gray">Emergency</text>
</a>
</g>
<!-- Response&#45;&gt;Emergency -->
<g id="edge46" class="edge"><title>Response&#45;&gt;Emergency</title>
<a xlink:href="./#forEmergency" xlink:title="forEmergency">
<path fill="none" stroke="darkslategray" d="M2746.92,-33.7326C2770.24,-47.8841 2804.71,-68.8007 2830.56,-84.4946"/>
<polygon fill="darkslategray" stroke="darkslategray" points="2828.96,-87.612 2839.32,-89.8082 2832.59,-81.6278 2828.96,-87.612"/>
</a>
<a xlink:href="./#forEmergency" xlink:title="forEmergency">
<text text-anchor="middle" x="2852.5" y="-57.4" font-family="Helvetica,sans-Serif" font-size="14.00">forEmergency</text>
</a>
</g>
<!-- UNAgency -->
<g id="node29" class="node"><title>UNAgency</title>
<a xlink:href="./#UNAgency" xlink:title="UNAgency">
<ellipse fill="none" stroke="black" cx="1386" cy="-106" rx="55.8503" ry="18"/>
<text text-anchor="middle" x="1386" y="-101.4" font-family="Helvetica,sans-Serif" font-size="14.00">UNAgency</text>
</a>
</g>
<!-- UNAgency&#45;&gt;Organisation -->
<g id="edge22" class="edge"><title>UNAgency&#45;&gt;Organisation</title>
<path fill="none" stroke="red" stroke-dasharray="5,2" d="M1345.72,-118.546C1337.61,-120.679 1329.08,-122.641 1321,-124 1258.42,-134.524 1093.83,-115.878 1036,-142 1023.15,-147.805 1011.7,-158.283 1002.85,-168.32"/>
<polygon fill="red" stroke="red" points="1000.02,-166.249 996.321,-176.177 1005.4,-170.721 1000.02,-166.249"/>
</g>
<!-- Indicator -->
<g id="node59" class="node"><title>Indicator</title>
<a xlink:href="./#Indicator" xlink:title="Indicator">
<ellipse fill="none" stroke="gray" cx="2785" cy="-194" rx="49.1393" ry="18"/>
<text text-anchor="middle" x="2785" y="-189.4" font-family="Helvetica,sans-Serif" font-size="14.00" fill="gray">Indicator</text>
</a>
</g>
<!-- Indicator&#45;&gt;Objective -->
<g id="edge70" class="edge"><title>Indicator&#45;&gt;Objective</title>
<a xlink:href="./#measures" xlink:title="measures">
<path fill="none" stroke="darkslategray" d="M2748.75,-206.318C2741.6,-208.444 2734.11,-210.461 2727,-212 2679.24,-222.339 2363.56,-259.685 2230.73,-275.184"/>
<polygon fill="darkslategray" stroke="darkslategray" points="2230.26,-271.716 2220.73,-276.35 2231.07,-278.669 2230.26,-271.716"/>
</a>
<a xlink:href="./#measures" xlink:title="measures">
<text text-anchor="middle" x="2626" y="-233.4" font-family="Helvetica,sans-Serif" font-size="14.00">measures</text>
</a>
</g>
</g>
</svg>
