<?xml version="1.0" encoding="UTF-8" standalone="no"?>
<!DOCTYPE svg PUBLIC "-//W3C//DTD SVG 1.1//EN"
 "http://www.w3.org/Graphics/SVG/1.1/DTD/svg11.dtd">
<!-- Generated by graphviz version 2.28.0 (20121022.1408)
 -->
<!-- Title: _anonymous_0 Pages: 1 -->
<svg width="1620pt" height="646pt"
 viewBox="0.00 0.00 1620.00 646.00" xmlns="http://www.w3.org/2000/svg" xmlns:xlink="http://www.w3.org/1999/xlink">
<g id="graph1" class="graph" transform="scale(1 1) rotate(0) translate(4 642)">
<title>_anonymous_0</title>
<polygon fill="white" stroke="white" points="-4,5 -4,-642 1617,-642 1617,5 -4,5"/>
<!-- APL -->
<g id="node1" class="node"><title>APL</title>
<a xlink:href="./#APL" xlink:title="APL">
<ellipse fill="none" stroke="black" cx="896" cy="-268" rx="29.4969" ry="18"/>
<text text-anchor="middle" x="896" y="-264.3" font-family="Helvetica,sans-Serif" font-size="14.00">APL</text>
</a>
</g>
<!-- http://www.opengis.net/ont/geosparql#Feature -->
<g id="node2" class="node"><title>http://www.opengis.net/ont/geosparql#Feature</title>
<a xlink:href="./#http://www.opengis.net/ont/geosparql#Feature" xlink:title="http://www.opengis.net/ont/geosparql#Feature">
<ellipse fill="none" stroke="gray" cx="858" cy="-532" rx="203.364" ry="18"/>
<text text-anchor="middle" x="858" y="-528.3" font-family="Helvetica,sans-Serif" font-size="14.00" fill="gray">http://www.opengis.net/ont/geosparql#Feature</text>
</a>
</g>
<!-- APL&#45;&gt;http://www.opengis.net/ont/geosparql#Feature -->
<g id="edge2" class="edge"><title>APL&#45;&gt;http://www.opengis.net/ont/geosparql#Feature</title>
<path fill="none" stroke="red" stroke-dasharray="5,2" d="M893.507,-286.191C887.065,-330.604 869.825,-449.467 861.983,-503.539"/>
<polygon fill="red" stroke="red" points="858.474,-503.347 860.502,-513.746 865.402,-504.352 858.474,-503.347"/>
</g>
<!-- BaseClass -->
<g id="node4" class="node"><title>BaseClass</title>
<a xlink:href="./#BaseClass" xlink:title="BaseClass">
<ellipse fill="none" stroke="gray" cx="942" cy="-444" rx="55.7903" ry="18"/>
<text text-anchor="middle" x="942" y="-440.3" font-family="Helvetica,sans-Serif" font-size="14.00" fill="gray">BaseClass</text>
</a>
</g>
<!-- APL&#45;&gt;BaseClass -->
<g id="edge4" class="edge"><title>APL&#45;&gt;BaseClass</title>
<path fill="none" stroke="red" stroke-dasharray="5,2" d="M898.038,-285.96C900.79,-306.911 906.367,-343.521 915,-374 919.066,-388.356 924.99,-403.868 930.254,-416.541"/>
<polygon fill="red" stroke="red" points="927.151,-418.188 934.286,-426.02 933.593,-415.448 927.151,-418.188"/>
</g>
<!-- DisplacedLocationType -->
<g id="node13" class="node"><title>DisplacedLocationType</title>
<a xlink:href="./#DisplacedLocationType" xlink:title="DisplacedLocationType">
<ellipse fill="none" stroke="black" cx="1034" cy="-356" rx="110.48" ry="18"/>
<text text-anchor="middle" x="1034" y="-352.3" font-family="Helvetica,sans-Serif" font-size="14.00">DisplacedLocationType</text>
</a>
</g>
<!-- APL&#45;&gt;DisplacedLocationType -->
<g id="edge34" class="edge"><title>APL&#45;&gt;DisplacedLocationType</title>
<a xlink:href="./#displacedLocationType" xlink:title="displacedLocationType">
<path fill="none" stroke="darkslategray" d="M915.772,-281.322C937.333,-294.758 972.274,-316.533 998.592,-332.934"/>
<polygon fill="darkslategray" stroke="darkslategray" points="996.816,-335.952 1007.15,-338.27 1000.52,-330.011 996.816,-335.952"/>
</a>
<a xlink:href="./#displacedLocationType" xlink:title="displacedLocationType">
<text text-anchor="middle" x="1053.5" y="-308.3" font-family="Helvetica,sans-Serif" font-size="14.00">displacedLocationType</text>
</a>
</g>
<!-- http://www.w3.org/2000/01/rdf&#45;schema#Literal -->
<g id="node27" class="node"><title>http://www.w3.org/2000/01/rdf&#45;schema#Literal</title>
<a xlink:href="./#http://www.w3.org/2000/01/rdf-schema#Literal" xlink:title="http://www.w3.org/2000/01/rdf&#45;schema#Literal">
<ellipse fill="none" stroke="gray" cx="858" cy="-620" rx="200.365" ry="18"/>
<text text-anchor="middle" x="858" y="-616.3" font-family="Helvetica,sans-Serif" font-size="14.00" fill="gray">http://www.w3.org/2000/01/rdf&#45;schema#Literal</text>
</a>
</g>
<!-- http://www.opengis.net/ont/geosparql#Feature&#45;&gt;http://www.w3.org/2000/01/rdf&#45;schema#Literal -->
<g id="edge36" class="edge"><title>http://www.opengis.net/ont/geosparql#Feature&#45;&gt;http://www.w3.org/2000/01/rdf&#45;schema#Literal</title>
<a xlink:href="./#featureAltName" xlink:title="featureAltName">
<path fill="none" stroke="darkslategray" d="M732.879,-546.251C708.969,-551.359 688.904,-558.379 681,-568 666.519,-585.624 673.849,-597.387 691.959,-605.186"/>
<polygon fill="darkslategray" stroke="darkslategray" points="691.073,-608.587 701.667,-608.704 693.458,-602.006 691.073,-608.587"/>
</a>
<a xlink:href="./#featureAltName" xlink:title="featureAltName">
<text text-anchor="middle" x="732" y="-572.3" font-family="Helvetica,sans-Serif" font-size="14.00">featureAltName</text>
</a>
</g>
<!-- http://www.opengis.net/ont/geosparql#Feature&#45;&gt;http://www.w3.org/2000/01/rdf&#45;schema#Literal -->
<g id="edge38" class="edge"><title>http://www.opengis.net/ont/geosparql#Feature&#45;&gt;http://www.w3.org/2000/01/rdf&#45;schema#Literal</title>
<a xlink:href="./#featureName" xlink:title="featureName">
<path fill="none" stroke="darkslategray" d="M822.792,-549.75C816.048,-554.649 809.886,-560.699 806,-568 800.421,-578.481 805.93,-588.135 815.144,-596.158"/>
<polygon fill="darkslategray" stroke="darkslategray" points="813.097,-598.997 823.187,-602.227 817.313,-593.41 813.097,-598.997"/>
</a>
<a xlink:href="./#featureName" xlink:title="featureName">
<text text-anchor="middle" x="848" y="-572.3" font-family="Helvetica,sans-Serif" font-size="14.00">featureName</text>
</a>
</g>
<!-- http://www.opengis.net/ont/geosparql#Feature&#45;&gt;http://www.w3.org/2000/01/rdf&#45;schema#Literal -->
<g id="edge40" class="edge"><title>http://www.opengis.net/ont/geosparql#Feature&#45;&gt;http://www.w3.org/2000/01/rdf&#45;schema#Literal</title>
<a xlink:href="./#featureRefName" xlink:title="featureRefName">
<path fill="none" stroke="darkslategray" d="M878.202,-550.072C882.985,-555.284 887.437,-561.399 890,-568 893.482,-576.968 890.324,-586.079 884.852,-594.071"/>
<polygon fill="darkslategray" stroke="darkslategray" points="882.054,-591.965 878.491,-601.942 887.499,-596.364 882.054,-591.965"/>
</a>
<a xlink:href="./#featureRefName" xlink:title="featureRefName">
<text text-anchor="middle" x="945" y="-572.3" font-family="Helvetica,sans-Serif" font-size="14.00">featureRefName</text>
</a>
</g>
<!-- http://www.opengis.net/ont/geosparql#Feature&#45;&gt;http://www.w3.org/2000/01/rdf&#45;schema#Literal -->
<g id="edge44" class="edge"><title>http://www.opengis.net/ont/geosparql#Feature&#45;&gt;http://www.w3.org/2000/01/rdf&#45;schema#Literal</title>
<a xlink:href="./#pcode" xlink:title="pcode">
<path fill="none" stroke="darkslategray" d="M956.992,-547.755C977.734,-552.896 995.362,-559.555 1002,-568 1014.35,-583.714 1006.95,-594.596 990.359,-602.129"/>
<polygon fill="darkslategray" stroke="darkslategray" points="988.974,-598.911 980.899,-605.771 991.489,-605.444 988.974,-598.911"/>
</a>
<a xlink:href="./#pcode" xlink:title="pcode">
<text text-anchor="middle" x="1029.5" y="-572.3" font-family="Helvetica,sans-Serif" font-size="14.00">pcode</text>
</a>
</g>
<!-- BaseClass&#45;&gt;http://www.opengis.net/ont/geosparql#Feature -->
<g id="edge32" class="edge"><title>BaseClass&#45;&gt;http://www.opengis.net/ont/geosparql#Feature</title>
<a xlink:href="./#atLocation" xlink:title="atLocation">
<path fill="none" stroke="darkslategray" d="M925.804,-461.582C913.3,-474.384 895.814,-492.286 881.731,-506.704"/>
<polygon fill="darkslategray" stroke="darkslategray" points="879.205,-504.281 874.721,-513.881 884.213,-509.172 879.205,-504.281"/>
</a>
<a xlink:href="./#atLocation" xlink:title="atLocation">
<text text-anchor="middle" x="941.5" y="-484.3" font-family="Helvetica,sans-Serif" font-size="14.00">atLocation</text>
</a>
</g>
<!-- AdminUnit -->
<g id="node6" class="node"><title>AdminUnit</title>
<a xlink:href="./#AdminUnit" xlink:title="AdminUnit">
<ellipse fill="none" stroke="black" cx="733" cy="-268" rx="54.6905" ry="18"/>
<text text-anchor="middle" x="733" y="-264.3" font-family="Helvetica,sans-Serif" font-size="14.00">AdminUnit</text>
</a>
</g>
<!-- AdminUnit&#45;&gt;http://www.opengis.net/ont/geosparql#Feature -->
<g id="edge6" class="edge"><title>AdminUnit&#45;&gt;http://www.opengis.net/ont/geosparql#Feature</title>
<path fill="none" stroke="red" stroke-dasharray="5,2" d="M741.202,-286.191C762.524,-330.882 819.812,-450.958 845.379,-504.547"/>
<polygon fill="red" stroke="red" points="842.303,-506.228 849.768,-513.746 848.621,-503.214 842.303,-506.228"/>
</g>
<!-- AdminUnit&#45;&gt;BaseClass -->
<g id="edge8" class="edge"><title>AdminUnit&#45;&gt;BaseClass</title>
<path fill="none" stroke="red" stroke-dasharray="5,2" d="M759.507,-283.849C769.354,-289.731 780.447,-296.802 790,-304 838.764,-340.742 890.096,-390.305 918.878,-419.243"/>
<polygon fill="red" stroke="red" points="916.516,-421.833 926.036,-426.483 921.494,-416.911 916.516,-421.833"/>
</g>
<!-- AdminUnitLevel -->
<g id="node9" class="node"><title>AdminUnitLevel</title>
<a xlink:href="./#AdminUnitLevel" xlink:title="AdminUnitLevel">
<ellipse fill="none" stroke="black" cx="604" cy="-356" rx="77.9862" ry="18"/>
<text text-anchor="middle" x="604" y="-352.3" font-family="Helvetica,sans-Serif" font-size="14.00">AdminUnitLevel</text>
</a>
</g>
<!-- AdminUnit&#45;&gt;AdminUnitLevel -->
<g id="edge30" class="edge"><title>AdminUnit&#45;&gt;AdminUnitLevel</title>
<a xlink:href="./#atLevel" xlink:title="atLevel">
<path fill="none" stroke="darkslategray" d="M709.937,-284.375C689.502,-297.998 659.444,-318.037 636.56,-333.293"/>
<polygon fill="darkslategray" stroke="darkslategray" points="634.555,-330.423 628.176,-338.882 638.438,-336.248 634.555,-330.423"/>
</a>
<a xlink:href="./#atLevel" xlink:title="atLevel">
<text text-anchor="middle" x="705.5" y="-308.3" font-family="Helvetica,sans-Serif" font-size="14.00">atLevel</text>
</a>
</g>
<!-- AdminUnitLevel&#45;&gt;BaseClass -->
<g id="edge10" class="edge"><title>AdminUnitLevel&#45;&gt;BaseClass</title>
<path fill="none" stroke="red" stroke-dasharray="5,2" d="M659.795,-368.635C689.633,-375.078 726.937,-383.491 760,-392 784.654,-398.345 790.506,-401.062 815,-408 840.031,-415.09 867.891,-422.789 891.125,-429.157"/>
<polygon fill="red" stroke="red" points="890.209,-432.534 900.778,-431.798 892.056,-425.783 890.209,-432.534"/>
</g>
<!-- http://www.w3.org/2001/XMLSchema#date -->
<g id="node23" class="node"><title>http://www.w3.org/2001/XMLSchema#date</title>
<a xlink:href="./#http://www.w3.org/2001/XMLSchema#date" xlink:title="http://www.w3.org/2001/XMLSchema#date">
<ellipse fill="none" stroke="gray" cx="604" cy="-444" rx="188.467" ry="18"/>
<text text-anchor="middle" x="604" y="-440.3" font-family="Helvetica,sans-Serif" font-size="14.00" fill="gray">http://www.w3.org/2001/XMLSchema#date</text>
</a>
</g>
<!-- AdminUnitLevel&#45;&gt;http://www.w3.org/2001/XMLSchema#date -->
<g id="edge24" class="edge"><title>AdminUnitLevel&#45;&gt;http://www.w3.org/2001/XMLSchema#date</title>
<a xlink:href="./#adminUnitLevelCountry" xlink:title="adminUnitLevelCountry">
<path fill="none" stroke="darkslategray" d="M604,-374.403C604,-386.254 604,-402.183 604,-415.708"/>
<polygon fill="darkslategray" stroke="darkslategray" points="600.5,-415.916 604,-425.916 607.5,-415.916 600.5,-415.916"/>
</a>
<a xlink:href="./#adminUnitLevelCountry" xlink:title="adminUnitLevelCountry">
<text text-anchor="middle" x="680" y="-396.3" font-family="Helvetica,sans-Serif" font-size="14.00">adminUnitLevelCountry</text>
</a>
</g>
<!-- http://www.w3.org/2001/XMLSchema#int -->
<g id="node25" class="node"><title>http://www.w3.org/2001/XMLSchema#int</title>
<a xlink:href="./#http://www.w3.org/2001/XMLSchema#int" xlink:title="http://www.w3.org/2001/XMLSchema#int">
<ellipse fill="none" stroke="gray" cx="180" cy="-444" rx="180.068" ry="18"/>
<text text-anchor="middle" x="180" y="-440.3" font-family="Helvetica,sans-Serif" font-size="14.00" fill="gray">http://www.w3.org/2001/XMLSchema#int</text>
</a>
</g>
<!-- AdminUnitLevel&#45;&gt;http://www.w3.org/2001/XMLSchema#int -->
<g id="edge26" class="edge"><title>AdminUnitLevel&#45;&gt;http://www.w3.org/2001/XMLSchema#int</title>
<a xlink:href="./#adminUnitLevelNumber" xlink:title="adminUnitLevelNumber">
<path fill="none" stroke="darkslategray" d="M526.627,-357.025C430.274,-358.256 272.115,-364.578 221,-392 210.27,-397.757 201.337,-407.634 194.578,-417.171"/>
<polygon fill="darkslategray" stroke="darkslategray" points="191.539,-415.423 188.993,-425.707 197.397,-419.255 191.539,-415.423"/>
</a>
<a xlink:href="./#adminUnitLevelNumber" xlink:title="adminUnitLevelNumber">
<text text-anchor="middle" x="297.5" y="-396.3" font-family="Helvetica,sans-Serif" font-size="14.00">adminUnitLevelNumber</text>
</a>
</g>
<!-- AdminUnitLevel&#45;&gt;http://www.w3.org/2000/01/rdf&#45;schema#Literal -->
<g id="edge28" class="edge"><title>AdminUnitLevel&#45;&gt;http://www.w3.org/2000/01/rdf&#45;schema#Literal</title>
<a xlink:href="./#adminUnitLevelTitle" xlink:title="adminUnitLevelTitle">
<path fill="none" stroke="darkslategray" d="M539.306,-365.954C469.185,-378.635 371.701,-406.713 407,-462 465.182,-553.127 581.119,-592.154 680.872,-608.513"/>
<polygon fill="darkslategray" stroke="darkslategray" points="680.358,-611.975 690.781,-610.073 681.447,-605.06 680.358,-611.975"/>
</a>
<a xlink:href="./#adminUnitLevelTitle" xlink:title="adminUnitLevelTitle">
<text text-anchor="middle" x="496" y="-484.3" font-family="Helvetica,sans-Serif" font-size="14.00">adminUnitLevelTitle</text>
</a>
</g>
<!-- Country -->
<g id="node11" class="node"><title>Country</title>
<a xlink:href="./#Country" xlink:title="Country">
<ellipse fill="none" stroke="black" cx="733" cy="-194" rx="44.393" ry="18"/>
<text text-anchor="middle" x="733" y="-190.3" font-family="Helvetica,sans-Serif" font-size="14.00">Country</text>
</a>
</g>
<!-- Country&#45;&gt;AdminUnit -->
<g id="edge12" class="edge"><title>Country&#45;&gt;AdminUnit</title>
<path fill="none" stroke="red" stroke-dasharray="5,2" d="M733,-212.063C733,-220.193 733,-230.124 733,-239.295"/>
<polygon fill="red" stroke="red" points="729.5,-239.559 733,-249.559 736.5,-239.559 729.5,-239.559"/>
</g>
<!-- DisplacedLocationType&#45;&gt;BaseClass -->
<g id="edge14" class="edge"><title>DisplacedLocationType&#45;&gt;BaseClass</title>
<path fill="none" stroke="red" stroke-dasharray="5,2" d="M1015.82,-373.991C1001.91,-386.997 982.558,-405.087 967.158,-419.483"/>
<polygon fill="red" stroke="red" points="964.429,-417.242 959.514,-426.628 969.21,-422.356 964.429,-417.242"/>
</g>
<!-- DisplacedLocationTypeSet -->
<g id="node15" class="node"><title>DisplacedLocationTypeSet</title>
<a xlink:href="./#DisplacedLocationTypeSet" xlink:title="DisplacedLocationTypeSet">
<ellipse fill="none" stroke="black" cx="1325" cy="-356" rx="124.578" ry="18"/>
<text text-anchor="middle" x="1325" y="-352.3" font-family="Helvetica,sans-Serif" font-size="14.00">DisplacedLocationTypeSet</text>
</a>
</g>
<!-- DisplacedLocationTypeSet&#45;&gt;BaseClass -->
<g id="edge16" class="edge"><title>DisplacedLocationTypeSet&#45;&gt;BaseClass</title>
<path fill="none" stroke="red" stroke-dasharray="5,2" d="M1288.29,-373.258C1260.69,-384.788 1221.66,-399.644 1186,-408 1114.18,-424.829 1093.82,-414.225 1021,-426 1012.74,-427.336 1004.04,-428.972 995.549,-430.697"/>
<polygon fill="red" stroke="red" points="994.797,-427.278 985.723,-432.749 996.228,-434.131 994.797,-427.278"/>
</g>
<!-- http://www.w3.org/1999/02/22&#45;rdf&#45;syntax&#45;ns#Bag -->
<g id="node17" class="node"><title>http://www.w3.org/1999/02/22&#45;rdf&#45;syntax&#45;ns#Bag</title>
<a xlink:href="./#DisplacedLocationTypeSet" xlink:title="http://www.w3.org/1999/02/22&#45;rdf&#45;syntax&#45;ns#Bag">
<ellipse fill="none" stroke="gray" cx="1244" cy="-444" rx="213.662" ry="18"/>
<text text-anchor="middle" x="1244" y="-440.3" font-family="Helvetica,sans-Serif" font-size="14.00" fill="gray">http://www.w3.org/1999/02/22&#45;rdf&#45;syntax&#45;ns#Bag</text>
</a>
</g>
<!-- DisplacedLocationTypeSet&#45;&gt;http://www.w3.org/1999/02/22&#45;rdf&#45;syntax&#45;ns#Bag -->
<g id="edge18" class="edge"><title>DisplacedLocationTypeSet&#45;&gt;http://www.w3.org/1999/02/22&#45;rdf&#45;syntax&#45;ns#Bag</title>
<path fill="none" stroke="red" stroke-dasharray="5,2" d="M1309,-373.991C1297.02,-386.712 1280.45,-404.298 1267.04,-418.533"/>
<polygon fill="red" stroke="red" points="1264.28,-416.365 1259.97,-426.044 1269.37,-421.165 1264.28,-416.365"/>
</g>
<!-- PopPlaceClass -->
<g id="node19" class="node"><title>PopPlaceClass</title>
<a xlink:href="./#PopPlaceClass" xlink:title="PopPlaceClass">
<ellipse fill="none" stroke="black" cx="733" cy="-106" rx="74.9875" ry="18"/>
<text text-anchor="middle" x="733" y="-102.3" font-family="Helvetica,sans-Serif" font-size="14.00">PopPlaceClass</text>
</a>
</g>
<!-- PopPlaceClass&#45;&gt;BaseClass -->
<g id="edge20" class="edge"><title>PopPlaceClass&#45;&gt;BaseClass</title>
<path fill="none" stroke="red" stroke-dasharray="5,2" d="M807.47,-106.507C932.719,-107.709 1172,-119.608 1172,-193 1172,-193 1172,-193 1172,-357 1172,-368.331 1162.82,-368.341 1153,-374 1104.06,-402.217 1041.98,-420.742 997.865,-431.424"/>
<polygon fill="red" stroke="red" points="996.824,-428.073 987.896,-433.778 998.433,-434.886 996.824,-428.073"/>
</g>
<!-- PopPlaceClass&#45;&gt;Country -->
<g id="edge46" class="edge"><title>PopPlaceClass&#45;&gt;Country</title>
<a xlink:href="./#popPlaceClassCountry" xlink:title="popPlaceClassCountry">
<path fill="none" stroke="darkslategray" d="M733,-124.403C733,-136.254 733,-152.183 733,-165.708"/>
<polygon fill="darkslategray" stroke="darkslategray" points="729.5,-165.916 733,-175.916 736.5,-165.916 729.5,-165.916"/>
</a>
<a xlink:href="./#popPlaceClassCountry" xlink:title="popPlaceClassCountry">
<text text-anchor="middle" x="807" y="-146.3" font-family="Helvetica,sans-Serif" font-size="14.00">popPlaceClassCountry</text>
</a>
</g>
<!-- PopPlaceClass&#45;&gt;http://www.w3.org/2001/XMLSchema#int -->
<g id="edge48" class="edge"><title>PopPlaceClass&#45;&gt;http://www.w3.org/2001/XMLSchema#int</title>
<a xlink:href="./#popPlaceClassNumber" xlink:title="popPlaceClassNumber">
<path fill="none" stroke="darkslategray" d="M661.34,-110.946C513.208,-120.063 187,-145.53 187,-193 187,-193 187,-193 187,-357 187,-376.661 185.16,-398.768 183.367,-415.644"/>
<polygon fill="darkslategray" stroke="darkslategray" points="179.853,-415.572 182.215,-425.901 186.809,-416.354 179.853,-415.572"/>
</a>
<a xlink:href="./#popPlaceClassNumber" xlink:title="popPlaceClassNumber">
<text text-anchor="middle" x="261.5" y="-264.3" font-family="Helvetica,sans-Serif" font-size="14.00">popPlaceClassNumber</text>
</a>
</g>
<!-- PopPlaceClass&#45;&gt;http://www.w3.org/2000/01/rdf&#45;schema#Literal -->
<g id="edge50" class="edge"><title>PopPlaceClass&#45;&gt;http://www.w3.org/2000/01/rdf&#45;schema#Literal</title>
<a xlink:href="./#popPlaceClassTitle" xlink:title="popPlaceClassTitle">
<path fill="none" stroke="darkslategray" d="M807.261,-107.795C997.232,-110.808 1486,-125.155 1486,-193 1486,-193 1486,-193 1486,-533 1486,-577.945 1230.25,-600.549 1045.16,-611.023"/>
<polygon fill="darkslategray" stroke="darkslategray" points="1044.81,-607.537 1035.02,-611.589 1045.2,-614.526 1044.81,-607.537"/>
</a>
<a xlink:href="./#popPlaceClassTitle" xlink:title="popPlaceClassTitle">
<text text-anchor="middle" x="1549" y="-352.3" font-family="Helvetica,sans-Serif" font-size="14.00">popPlaceClassTitle</text>
</a>
</g>
<!-- PopulatedPlace -->
<g id="node21" class="node"><title>PopulatedPlace</title>
<a xlink:href="./#PopulatedPlace" xlink:title="PopulatedPlace">
<ellipse fill="none" stroke="black" cx="303" cy="-18" rx="76.8869" ry="18"/>
<text text-anchor="middle" x="303" y="-14.3" font-family="Helvetica,sans-Serif" font-size="14.00">PopulatedPlace</text>
</a>
</g>
<!-- PopulatedPlace&#45;&gt;AdminUnit -->
<g id="edge22" class="edge"><title>PopulatedPlace&#45;&gt;AdminUnit</title>
<path fill="none" stroke="red" stroke-dasharray="5,2" d="M269.577,-34.2596C219.327,-59.2442 134.125,-110.828 173,-158 235.313,-233.612 535.784,-257.455 669.081,-264.387"/>
<polygon fill="red" stroke="red" points="668.988,-267.886 679.152,-264.894 669.341,-260.895 668.988,-267.886"/>
</g>
<!-- PopulatedPlace&#45;&gt;PopPlaceClass -->
<g id="edge42" class="edge"><title>PopulatedPlace&#45;&gt;PopPlaceClass</title>
<a xlink:href="./#inClass" xlink:title="inClass">
<path fill="none" stroke="darkslategray" d="M359.215,-30.243C438.624,-46.1248 583.326,-75.0652 667.496,-91.8993"/>
<polygon fill="darkslategray" stroke="darkslategray" points="666.96,-95.3613 677.453,-93.8905 668.333,-88.4972 666.96,-95.3613"/>
</a>
<a xlink:href="./#inClass" xlink:title="inClass">
<text text-anchor="middle" x="580.5" y="-58.3" font-family="Helvetica,sans-Serif" font-size="14.00">inClass</text>
</a>
</g>
</g>
</svg>
