<?xml version="1.0" encoding="UTF-8" standalone="no"?>
<!DOCTYPE svg PUBLIC "-//W3C//DTD SVG 1.1//EN"
 "http://www.w3.org/Graphics/SVG/1.1/DTD/svg11.dtd">
<!-- Generated by graphviz version 2.28.0 (20110507.0327)
 -->
<!-- Title: _anonymous_0 Pages: 1 -->
<svg width="1416pt" height="470pt"
 viewBox="0.00 0.00 1416.04 470.00" xmlns="http://www.w3.org/2000/svg" xmlns:xlink="http://www.w3.org/1999/xlink">
<g id="graph1" class="graph" transform="scale(1 1) rotate(0) translate(4 466)">
<title>_anonymous_0</title>
<polygon fill="white" stroke="white" points="-4,5 -4,-466 1413.04,-466 1413.04,5 -4,5"/>
<!-- APL -->
<g id="node1" class="node"><title>APL</title>
<a xlink:href="./#APL" xlink:title="APL">
<ellipse fill="none" stroke="black" cx="1020.27" cy="-92" rx="28.6953" ry="18"/>
<text text-anchor="middle" x="1020.27" y="-88.3" font-family="Helvetica,sans-Serif" font-size="14.00">APL</text>
</a>
</g>
<!-- http://www.opengis.net/geosparql#Feature -->
<g id="node2" class="node"><title>http://www.opengis.net/geosparql#Feature</title>
<a xlink:href="./#http://www.opengis.net/geosparql#Feature" xlink:title="http://www.opengis.net/geosparql#Feature">
<ellipse fill="none" stroke="gray" cx="421.274" cy="-356" rx="183.867" ry="18"/>
<text text-anchor="middle" x="421.274" y="-352.3" font-family="Helvetica,sans-Serif" font-size="14.00" fill="gray">http://www.opengis.net/geosparql#Feature</text>
</a>
</g>
<!-- APL&#45;&gt;http://www.opengis.net/geosparql#Feature -->
<g id="edge2" class="edge"><title>APL&#45;&gt;http://www.opengis.net/geosparql#Feature</title>
<path fill="none" stroke="red" stroke-dasharray="5,2" d="M1047.79,-96.6988C1149.75,-111.405 1494.71,-170.618 1387.27,-286 1335.86,-341.221 881.597,-352.926 614.712,-354.991"/>
<polygon fill="red" stroke="red" points="614.485,-351.492 604.511,-355.066 614.537,-358.492 614.485,-351.492"/>
</g>
<!-- BaseClass -->
<g id="node4" class="node"><title>BaseClass</title>
<a xlink:href="./#BaseClass" xlink:title="BaseClass">
<ellipse fill="none" stroke="gray" cx="885.274" cy="-268" rx="55.7903" ry="18"/>
<text text-anchor="middle" x="885.274" y="-264.3" font-family="Helvetica,sans-Serif" font-size="14.00" fill="gray">BaseClass</text>
</a>
</g>
<!-- APL&#45;&gt;BaseClass -->
<g id="edge4" class="edge"><title>APL&#45;&gt;BaseClass</title>
<path fill="none" stroke="red" stroke-dasharray="5,2" d="M1021.12,-110.267C1021.35,-132.53 1018.75,-171.521 1000.27,-198 983.512,-222.02 955.453,-239.095 931.248,-250.25"/>
<polygon fill="red" stroke="red" points="929.595,-247.154 921.848,-254.382 932.411,-253.562 929.595,-247.154"/>
</g>
<!-- DisplacedLocationType -->
<g id="node13" class="node"><title>DisplacedLocationType</title>
<a xlink:href="./#DisplacedLocationType" xlink:title="DisplacedLocationType">
<ellipse fill="none" stroke="black" cx="883.274" cy="-180" rx="108.581" ry="18"/>
<text text-anchor="middle" x="883.274" y="-176.3" font-family="Helvetica,sans-Serif" font-size="14.00">DisplacedLocationType</text>
</a>
</g>
<!-- APL&#45;&gt;DisplacedLocationType -->
<g id="edge32" class="edge"><title>APL&#45;&gt;DisplacedLocationType</title>
<a xlink:href="./#displacedLocationType" xlink:title="displacedLocationType">
<path fill="none" stroke="darkslategray" d="M992.302,-94.9169C950.487,-98.4301 874.809,-107.512 858.274,-128 852.143,-135.597 854.493,-144.945 859.681,-153.554"/>
<polygon fill="darkslategray" stroke="darkslategray" points="856.937,-155.734 865.606,-161.824 862.628,-151.657 856.937,-155.734"/>
</a>
<a xlink:href="./#displacedLocationType" xlink:title="displacedLocationType">
<text text-anchor="middle" x="932.274" y="-132.3" font-family="Helvetica,sans-Serif" font-size="14.00">displacedLocationType</text>
</a>
</g>
<!-- http://www.w3.org/2000/01/rdf&#45;schema#Literal -->
<g id="node25" class="node"><title>http://www.w3.org/2000/01/rdf&#45;schema#Literal</title>
<a xlink:href="./#http://www.w3.org/2000/01/rdf-schema#Literal" xlink:title="http://www.w3.org/2000/01/rdf&#45;schema#Literal">
<ellipse fill="none" stroke="gray" cx="357.274" cy="-444" rx="198.765" ry="18"/>
<text text-anchor="middle" x="357.274" y="-440.3" font-family="Helvetica,sans-Serif" font-size="14.00" fill="gray">http://www.w3.org/2000/01/rdf&#45;schema#Literal</text>
</a>
</g>
<!-- http://www.opengis.net/geosparql#Feature&#45;&gt;http://www.w3.org/2000/01/rdf&#45;schema#Literal -->
<g id="edge34" class="edge"><title>http://www.opengis.net/geosparql#Feature&#45;&gt;http://www.w3.org/2000/01/rdf&#45;schema#Literal</title>
<a xlink:href="./#featureAltName" xlink:title="featureAltName">
<path fill="none" stroke="darkslategray" d="M416.152,-374.128C412.504,-384.562 406.893,-397.803 399.274,-408 396.373,-411.883 392.959,-415.609 389.351,-419.087"/>
<polygon fill="darkslategray" stroke="darkslategray" points="386.906,-416.577 381.776,-425.847 391.567,-421.8 386.906,-416.577"/>
</a>
<a xlink:href="./#featureAltName" xlink:title="featureAltName">
<text text-anchor="middle" x="458.774" y="-396.3" font-family="Helvetica,sans-Serif" font-size="14.00">featureAltName</text>
</a>
</g>
<!-- http://www.opengis.net/geosparql#Feature&#45;&gt;http://www.w3.org/2000/01/rdf&#45;schema#Literal -->
<g id="edge36" class="edge"><title>http://www.opengis.net/geosparql#Feature&#45;&gt;http://www.w3.org/2000/01/rdf&#45;schema#Literal</title>
<a xlink:href="./#featureName" xlink:title="featureName">
<path fill="none" stroke="darkslategray" d="M488.735,-372.771C509.797,-380.94 524.657,-392.51 512.274,-408 506.279,-415.5 492.084,-421.509 474.592,-426.283"/>
<polygon fill="darkslategray" stroke="darkslategray" points="473.407,-422.972 464.566,-428.81 475.118,-429.76 473.407,-422.972"/>
</a>
<a xlink:href="./#featureName" xlink:title="featureName">
<text text-anchor="middle" x="558.274" y="-396.3" font-family="Helvetica,sans-Serif" font-size="14.00">featureName</text>
</a>
</g>
<!-- http://www.opengis.net/geosparql#Feature&#45;&gt;http://www.w3.org/2000/01/rdf&#45;schema#Literal -->
<g id="edge38" class="edge"><title>http://www.opengis.net/geosparql#Feature&#45;&gt;http://www.w3.org/2000/01/rdf&#45;schema#Literal</title>
<a xlink:href="./#featureRefName" xlink:title="featureRefName">
<path fill="none" stroke="darkslategray" d="M289.075,-368.555C261.631,-373.727 238.282,-381.202 229.274,-392 216.813,-406.938 225.186,-417.533 242.414,-425.035"/>
<polygon fill="darkslategray" stroke="darkslategray" points="241.574,-428.458 252.167,-428.683 244.027,-421.901 241.574,-428.458"/>
</a>
<a xlink:href="./#featureRefName" xlink:title="featureRefName">
<text text-anchor="middle" x="282.274" y="-396.3" font-family="Helvetica,sans-Serif" font-size="14.00">featureRefName</text>
</a>
</g>
<!-- http://www.opengis.net/geosparql#Feature&#45;&gt;http://www.w3.org/2000/01/rdf&#45;schema#Literal -->
<g id="edge40" class="edge"><title>http://www.opengis.net/geosparql#Feature&#45;&gt;http://www.w3.org/2000/01/rdf&#45;schema#Literal</title>
<a xlink:href="./#pcode" xlink:title="pcode">
<path fill="none" stroke="darkslategray" d="M373.426,-373.555C365.793,-378.32 358.898,-384.368 354.274,-392 350.009,-399.041 349.231,-407.68 349.972,-415.833"/>
<polygon fill="darkslategray" stroke="darkslategray" points="346.523,-416.43 351.575,-425.743 353.433,-415.312 346.523,-416.43"/>
</a>
<a xlink:href="./#pcode" xlink:title="pcode">
<text text-anchor="middle" x="374.774" y="-396.3" font-family="Helvetica,sans-Serif" font-size="14.00">pcode</text>
</a>
</g>
<!-- BaseClass&#45;&gt;http://www.opengis.net/geosparql#Feature -->
<g id="edge30" class="edge"><title>BaseClass&#45;&gt;http://www.opengis.net/geosparql#Feature</title>
<a xlink:href="./#atLocation" xlink:title="atLocation">
<path fill="none" stroke="darkslategray" d="M844.203,-280.123C835.976,-282.198 827.372,-284.258 819.274,-286 720.817,-307.179 607.578,-326.31 527.124,-339.026"/>
<polygon fill="darkslategray" stroke="darkslategray" points="526.319,-335.609 516.985,-340.622 527.407,-342.524 526.319,-335.609"/>
</a>
<a xlink:href="./#atLocation" xlink:title="atLocation">
<text text-anchor="middle" x="755.274" y="-308.3" font-family="Helvetica,sans-Serif" font-size="14.00">atLocation</text>
</a>
</g>
<!-- AdminUnit -->
<g id="node6" class="node"><title>AdminUnit</title>
<a xlink:href="./#AdminUnit" xlink:title="AdminUnit">
<ellipse fill="none" stroke="black" cx="406.274" cy="-92" rx="52.7911" ry="18"/>
<text text-anchor="middle" x="406.274" y="-88.3" font-family="Helvetica,sans-Serif" font-size="14.00">AdminUnit</text>
</a>
</g>
<!-- AdminUnit&#45;&gt;http://www.opengis.net/geosparql#Feature -->
<g id="edge6" class="edge"><title>AdminUnit&#45;&gt;http://www.opengis.net/geosparql#Feature</title>
<path fill="none" stroke="red" stroke-dasharray="5,2" d="M353.754,-93.0448C269.934,-96.2397 107.237,-115.858 27.2743,-216 -1.65245,-252.227 -12.0524,-285.827 19.2743,-320 34.6638,-336.788 138.139,-345.551 236.244,-350.111"/>
<polygon fill="red" stroke="red" points="236.181,-353.611 246.329,-350.566 236.496,-346.619 236.181,-353.611"/>
</g>
<!-- AdminUnit&#45;&gt;BaseClass -->
<g id="edge8" class="edge"><title>AdminUnit&#45;&gt;BaseClass</title>
<path fill="none" stroke="red" stroke-dasharray="5,2" d="M441.109,-105.654C526.255,-136.584 744.892,-216.005 839.978,-250.546"/>
<polygon fill="red" stroke="red" points="839.003,-253.916 849.598,-254.04 841.394,-247.336 839.003,-253.916"/>
</g>
<!-- AdminUnitLevel -->
<g id="node9" class="node"><title>AdminUnitLevel</title>
<a xlink:href="./#AdminUnitLevel" xlink:title="AdminUnitLevel">
<ellipse fill="none" stroke="black" cx="406.274" cy="-180" rx="75.2868" ry="18"/>
<text text-anchor="middle" x="406.274" y="-176.3" font-family="Helvetica,sans-Serif" font-size="14.00">AdminUnitLevel</text>
</a>
</g>
<!-- AdminUnit&#45;&gt;AdminUnitLevel -->
<g id="edge28" class="edge"><title>AdminUnit&#45;&gt;AdminUnitLevel</title>
<a xlink:href="./#atLevel" xlink:title="atLevel">
<path fill="none" stroke="darkslategray" d="M406.274,-110.403C406.274,-122.254 406.274,-138.183 406.274,-151.708"/>
<polygon fill="darkslategray" stroke="darkslategray" points="402.774,-151.916 406.274,-161.916 409.774,-151.916 402.774,-151.916"/>
</a>
<a xlink:href="./#atLevel" xlink:title="atLevel">
<text text-anchor="middle" x="429.274" y="-132.3" font-family="Helvetica,sans-Serif" font-size="14.00">atLevel</text>
</a>
</g>
<!-- AdminUnitLevel&#45;&gt;BaseClass -->
<g id="edge10" class="edge"><title>AdminUnitLevel&#45;&gt;BaseClass</title>
<path fill="none" stroke="red" stroke-dasharray="5,2" d="M478.804,-184.967C537.363,-189.331 621.527,-198.239 693.274,-216 712.664,-220.8 716.119,-226.335 735.274,-232 771.888,-242.828 782.113,-241.236 819.274,-250 823.992,-251.113 828.891,-252.305 833.791,-253.522"/>
<polygon fill="red" stroke="red" points="833.242,-256.993 843.794,-256.039 834.95,-250.204 833.242,-256.993"/>
</g>
<!-- http://www.w3.org/2001/XMLSchema#date -->
<g id="node21" class="node"><title>http://www.w3.org/2001/XMLSchema#date</title>
<a xlink:href="./#http://www.w3.org/2001/XMLSchema#date" xlink:title="http://www.w3.org/2001/XMLSchema#date">
<ellipse fill="none" stroke="gray" cx="254.274" cy="-268" rx="185.467" ry="18"/>
<text text-anchor="middle" x="254.274" y="-264.3" font-family="Helvetica,sans-Serif" font-size="14.00" fill="gray">http://www.w3.org/2001/XMLSchema#date</text>
</a>
</g>
<!-- AdminUnitLevel&#45;&gt;http://www.w3.org/2001/XMLSchema#date -->
<g id="edge22" class="edge"><title>AdminUnitLevel&#45;&gt;http://www.w3.org/2001/XMLSchema#date</title>
<a xlink:href="./#adminUnitLevelCountry" xlink:title="adminUnitLevelCountry">
<path fill="none" stroke="darkslategray" d="M378.395,-196.774C354.371,-210.366 319.449,-230.125 292.762,-245.224"/>
<polygon fill="darkslategray" stroke="darkslategray" points="291.035,-242.18 284.055,-250.15 294.482,-248.272 291.035,-242.18"/>
</a>
<a xlink:href="./#adminUnitLevelCountry" xlink:title="adminUnitLevelCountry">
<text text-anchor="middle" x="417.274" y="-220.3" font-family="Helvetica,sans-Serif" font-size="14.00">adminUnitLevelCountry</text>
</a>
</g>
<!-- http://www.w3.org/2001/XMLSchema#int -->
<g id="node23" class="node"><title>http://www.w3.org/2001/XMLSchema#int</title>
<a xlink:href="./#http://www.w3.org/2001/XMLSchema#int" xlink:title="http://www.w3.org/2001/XMLSchema#int">
<ellipse fill="none" stroke="gray" cx="634.274" cy="-268" rx="176.569" ry="18"/>
<text text-anchor="middle" x="634.274" y="-264.3" font-family="Helvetica,sans-Serif" font-size="14.00" fill="gray">http://www.w3.org/2001/XMLSchema#int</text>
</a>
</g>
<!-- AdminUnitLevel&#45;&gt;http://www.w3.org/2001/XMLSchema#int -->
<g id="edge24" class="edge"><title>AdminUnitLevel&#45;&gt;http://www.w3.org/2001/XMLSchema#int</title>
<a xlink:href="./#adminUnitLevelNumber" xlink:title="adminUnitLevelNumber">
<path fill="none" stroke="darkslategray" d="M444.694,-195.491C482.135,-209.614 539.372,-231.204 581.161,-246.966"/>
<polygon fill="darkslategray" stroke="darkslategray" points="580.037,-250.283 590.629,-250.537 582.507,-243.733 580.037,-250.283"/>
</a>
<a xlink:href="./#adminUnitLevelNumber" xlink:title="adminUnitLevelNumber">
<text text-anchor="middle" x="615.274" y="-220.3" font-family="Helvetica,sans-Serif" font-size="14.00">adminUnitLevelNumber</text>
</a>
</g>
<!-- AdminUnitLevel&#45;&gt;http://www.w3.org/2000/01/rdf&#45;schema#Literal -->
<g id="edge26" class="edge"><title>AdminUnitLevel&#45;&gt;http://www.w3.org/2000/01/rdf&#45;schema#Literal</title>
<a xlink:href="./#adminUnitLevelTitle" xlink:title="adminUnitLevelTitle">
<path fill="none" stroke="darkslategray" d="M333.704,-184.964C242.618,-191.631 94.1678,-208.68 60.2743,-250 -9.85508,-335.496 165.081,-396.11 275.401,-424.613"/>
<polygon fill="darkslategray" stroke="darkslategray" points="274.651,-428.034 285.205,-427.106 276.376,-421.25 274.651,-428.034"/>
</a>
<a xlink:href="./#adminUnitLevelTitle" xlink:title="adminUnitLevelTitle">
<text text-anchor="middle" x="117.274" y="-308.3" font-family="Helvetica,sans-Serif" font-size="14.00">adminUnitLevelTitle</text>
</a>
</g>
<!-- Country -->
<g id="node11" class="node"><title>Country</title>
<a xlink:href="./#Country" xlink:title="Country">
<ellipse fill="none" stroke="black" cx="338.274" cy="-18" rx="42.4939" ry="18"/>
<text text-anchor="middle" x="338.274" y="-14.3" font-family="Helvetica,sans-Serif" font-size="14.00">Country</text>
</a>
</g>
<!-- Country&#45;&gt;AdminUnit -->
<g id="edge12" class="edge"><title>Country&#45;&gt;AdminUnit</title>
<path fill="none" stroke="red" stroke-dasharray="5,2" d="M353.366,-34.9791C362.308,-44.447 373.808,-56.6239 383.801,-67.2051"/>
<polygon fill="red" stroke="red" points="381.343,-69.6994 390.754,-74.5664 386.432,-64.893 381.343,-69.6994"/>
</g>
<!-- DisplacedLocationType&#45;&gt;BaseClass -->
<g id="edge14" class="edge"><title>DisplacedLocationType&#45;&gt;BaseClass</title>
<path fill="none" stroke="red" stroke-dasharray="5,2" d="M883.679,-198.403C883.955,-210.254 884.325,-226.183 884.64,-239.708"/>
<polygon fill="red" stroke="red" points="881.145,-240 884.877,-249.916 888.143,-239.837 881.145,-240"/>
</g>
<!-- DisplacedLocationTypeSet -->
<g id="node15" class="node"><title>DisplacedLocationTypeSet</title>
<a xlink:href="./#DisplacedLocationTypeSet" xlink:title="DisplacedLocationTypeSet">
<ellipse fill="none" stroke="black" cx="1170.27" cy="-180" rx="122.379" ry="18"/>
<text text-anchor="middle" x="1170.27" y="-176.3" font-family="Helvetica,sans-Serif" font-size="14.00">DisplacedLocationTypeSet</text>
</a>
</g>
<!-- DisplacedLocationTypeSet&#45;&gt;BaseClass -->
<g id="edge16" class="edge"><title>DisplacedLocationTypeSet&#45;&gt;BaseClass</title>
<path fill="none" stroke="red" stroke-dasharray="5,2" d="M1131.81,-197.165C1104.85,-208.061 1067.79,-222.183 1034.27,-232 997.633,-242.732 987.419,-241.167 950.274,-250 945.693,-251.089 940.939,-252.258 936.182,-253.454"/>
<polygon fill="red" stroke="red" points="935.293,-250.069 926.467,-255.93 937.022,-256.852 935.293,-250.069"/>
</g>
<!-- http://www.w3.org/1999/02/22&#45;rdf&#45;syntax&#45;ns#Bag -->
<g id="node17" class="node"><title>http://www.w3.org/1999/02/22&#45;rdf&#45;syntax&#45;ns#Bag</title>
<a xlink:href="./#DisplacedLocationTypeSet" xlink:title="http://www.w3.org/1999/02/22&#45;rdf&#45;syntax&#45;ns#Bag">
<ellipse fill="none" stroke="gray" cx="1169.27" cy="-268" rx="209.863" ry="18"/>
<text text-anchor="middle" x="1169.27" y="-264.3" font-family="Helvetica,sans-Serif" font-size="14.00" fill="gray">http://www.w3.org/1999/02/22&#45;rdf&#45;syntax&#45;ns#Bag</text>
</a>
</g>
<!-- DisplacedLocationTypeSet&#45;&gt;http://www.w3.org/1999/02/22&#45;rdf&#45;syntax&#45;ns#Bag -->
<g id="edge18" class="edge"><title>DisplacedLocationTypeSet&#45;&gt;http://www.w3.org/1999/02/22&#45;rdf&#45;syntax&#45;ns#Bag</title>
<path fill="none" stroke="red" stroke-dasharray="5,2" d="M1170.07,-198.403C1169.93,-210.254 1169.75,-226.183 1169.59,-239.708"/>
<polygon fill="red" stroke="red" points="1166.09,-239.876 1169.47,-249.916 1173.09,-239.957 1166.09,-239.876"/>
</g>
<!-- PopulatedPlace -->
<g id="node19" class="node"><title>PopulatedPlace</title>
<a xlink:href="./#PopulatedPlace" xlink:title="PopulatedPlace">
<ellipse fill="none" stroke="black" cx="474.274" cy="-18" rx="76.0865" ry="18"/>
<text text-anchor="middle" x="474.274" y="-14.3" font-family="Helvetica,sans-Serif" font-size="14.00">PopulatedPlace</text>
</a>
</g>
<!-- PopulatedPlace&#45;&gt;AdminUnit -->
<g id="edge20" class="edge"><title>PopulatedPlace&#45;&gt;AdminUnit</title>
<path fill="none" stroke="red" stroke-dasharray="5,2" d="M458.503,-35.6992C449.749,-44.9683 438.706,-56.661 429.031,-66.9046"/>
<polygon fill="red" stroke="red" points="426.282,-64.718 421.96,-74.3913 431.371,-69.5244 426.282,-64.718"/>
</g>
</g>
</svg>
