<?xml version="1.0" encoding="UTF-8" standalone="no"?>
<!DOCTYPE svg PUBLIC "-//W3C//DTD SVG 1.1//EN"
 "http://www.w3.org/Graphics/SVG/1.1/DTD/svg11.dtd">
<!-- Generated by graphviz version 2.28.0 (20110507.0327)
 -->
<!-- Title: _anonymous_0 Pages: 1 -->
<svg width="1597pt" height="646pt"
 viewBox="0.00 0.00 1597.00 646.00" xmlns="http://www.w3.org/2000/svg" xmlns:xlink="http://www.w3.org/1999/xlink">
<g id="graph1" class="graph" transform="scale(1 1) rotate(0) translate(4 642)">
<title>_anonymous_0</title>
<polygon fill="white" stroke="white" points="-4,5 -4,-642 1594,-642 1594,5 -4,5"/>
<!-- APL -->
<g id="node1" class="node"><title>APL</title>
<a xlink:href="./#APL" xlink:title="APL">
<ellipse fill="none" stroke="black" cx="883" cy="-268" rx="28.6953" ry="18"/>
<text text-anchor="middle" x="883" y="-264.3" font-family="Helvetica,sans-Serif" font-size="14.00">APL</text>
</a>
</g>
<!-- http://www.opengis.net/geosparql#Feature -->
<g id="node2" class="node"><title>http://www.opengis.net/geosparql#Feature</title>
<a xlink:href="./#http://www.opengis.net/geosparql#Feature" xlink:title="http://www.opengis.net/geosparql#Feature">
<ellipse fill="none" stroke="gray" cx="845" cy="-532" rx="183.867" ry="18"/>
<text text-anchor="middle" x="845" y="-528.3" font-family="Helvetica,sans-Serif" font-size="14.00" fill="gray">http://www.opengis.net/geosparql#Feature</text>
</a>
</g>
<!-- APL&#45;&gt;http://www.opengis.net/geosparql#Feature -->
<g id="edge2" class="edge"><title>APL&#45;&gt;http://www.opengis.net/geosparql#Feature</title>
<path fill="none" stroke="red" stroke-dasharray="5,2" d="M880.507,-286.191C874.065,-330.604 856.825,-449.467 848.983,-503.539"/>
<polygon fill="red" stroke="red" points="845.474,-503.347 847.502,-513.746 852.402,-504.352 845.474,-503.347"/>
</g>
<!-- BaseClass -->
<g id="node4" class="node"><title>BaseClass</title>
<a xlink:href="./#BaseClass" xlink:title="BaseClass">
<ellipse fill="none" stroke="gray" cx="929" cy="-444" rx="55.7903" ry="18"/>
<text text-anchor="middle" x="929" y="-440.3" font-family="Helvetica,sans-Serif" font-size="14.00" fill="gray">BaseClass</text>
</a>
</g>
<!-- APL&#45;&gt;BaseClass -->
<g id="edge4" class="edge"><title>APL&#45;&gt;BaseClass</title>
<path fill="none" stroke="red" stroke-dasharray="5,2" d="M885.038,-285.96C887.79,-306.911 893.367,-343.521 902,-374 906.066,-388.356 911.99,-403.868 917.254,-416.541"/>
<polygon fill="red" stroke="red" points="914.151,-418.188 921.286,-426.02 920.593,-415.448 914.151,-418.188"/>
</g>
<!-- DisplacedLocationType -->
<g id="node13" class="node"><title>DisplacedLocationType</title>
<a xlink:href="./#DisplacedLocationType" xlink:title="DisplacedLocationType">
<ellipse fill="none" stroke="black" cx="1020" cy="-356" rx="108.581" ry="18"/>
<text text-anchor="middle" x="1020" y="-352.3" font-family="Helvetica,sans-Serif" font-size="14.00">DisplacedLocationType</text>
</a>
</g>
<!-- APL&#45;&gt;DisplacedLocationType -->
<g id="edge34" class="edge"><title>APL&#45;&gt;DisplacedLocationType</title>
<a xlink:href="./#displacedLocationType" xlink:title="displacedLocationType">
<path fill="none" stroke="darkslategray" d="M902.629,-281.322C924.033,-294.758 958.721,-316.533 984.848,-332.934"/>
<polygon fill="darkslategray" stroke="darkslategray" points="983.018,-335.918 993.349,-338.27 986.74,-329.989 983.018,-335.918"/>
</a>
<a xlink:href="./#displacedLocationType" xlink:title="displacedLocationType">
<text text-anchor="middle" x="1038" y="-308.3" font-family="Helvetica,sans-Serif" font-size="14.00">displacedLocationType</text>
</a>
</g>
<!-- http://www.w3.org/2000/01/rdf&#45;schema#Literal -->
<g id="node27" class="node"><title>http://www.w3.org/2000/01/rdf&#45;schema#Literal</title>
<a xlink:href="./#http://www.w3.org/2000/01/rdf-schema#Literal" xlink:title="http://www.w3.org/2000/01/rdf&#45;schema#Literal">
<ellipse fill="none" stroke="gray" cx="844" cy="-620" rx="198.765" ry="18"/>
<text text-anchor="middle" x="844" y="-616.3" font-family="Helvetica,sans-Serif" font-size="14.00" fill="gray">http://www.w3.org/2000/01/rdf&#45;schema#Literal</text>
</a>
</g>
<!-- http://www.opengis.net/geosparql#Feature&#45;&gt;http://www.w3.org/2000/01/rdf&#45;schema#Literal -->
<g id="edge36" class="edge"><title>http://www.opengis.net/geosparql#Feature&#45;&gt;http://www.w3.org/2000/01/rdf&#45;schema#Literal</title>
<a xlink:href="./#featureAltName" xlink:title="featureAltName">
<path fill="none" stroke="darkslategray" d="M725.561,-545.701C700.496,-550.863 679.151,-558.047 671,-568 656.764,-585.384 664.102,-597.03 682.037,-604.788"/>
<polygon fill="darkslategray" stroke="darkslategray" points="681.051,-608.154 691.645,-608.292 683.45,-601.578 681.051,-608.154"/>
</a>
<a xlink:href="./#featureAltName" xlink:title="featureAltName">
<text text-anchor="middle" x="720.5" y="-572.3" font-family="Helvetica,sans-Serif" font-size="14.00">featureAltName</text>
</a>
</g>
<!-- http://www.opengis.net/geosparql#Feature&#45;&gt;http://www.w3.org/2000/01/rdf&#45;schema#Literal -->
<g id="edge38" class="edge"><title>http://www.opengis.net/geosparql#Feature&#45;&gt;http://www.w3.org/2000/01/rdf&#45;schema#Literal</title>
<a xlink:href="./#featureName" xlink:title="featureName">
<path fill="none" stroke="darkslategray" d="M809.792,-549.75C803.048,-554.649 796.886,-560.699 793,-568 787.53,-578.276 792.759,-587.814 801.637,-595.796"/>
<polygon fill="darkslategray" stroke="darkslategray" points="799.75,-598.761 809.799,-602.116 804.035,-593.226 799.75,-598.761"/>
</a>
<a xlink:href="./#featureName" xlink:title="featureName">
<text text-anchor="middle" x="834" y="-572.3" font-family="Helvetica,sans-Serif" font-size="14.00">featureName</text>
</a>
</g>
<!-- http://www.opengis.net/geosparql#Feature&#45;&gt;http://www.w3.org/2000/01/rdf&#45;schema#Literal -->
<g id="edge40" class="edge"><title>http://www.opengis.net/geosparql#Feature&#45;&gt;http://www.w3.org/2000/01/rdf&#45;schema#Literal</title>
<a xlink:href="./#featureRefName" xlink:title="featureRefName">
<path fill="none" stroke="darkslategray" d="M864.305,-550.195C872.619,-559.752 879.516,-572.09 875,-584 873.724,-587.366 871.96,-590.615 869.915,-593.689"/>
<polygon fill="darkslategray" stroke="darkslategray" points="866.958,-591.789 863.581,-601.831 872.483,-596.087 866.958,-591.789"/>
</a>
<a xlink:href="./#featureRefName" xlink:title="featureRefName">
<text text-anchor="middle" x="930" y="-572.3" font-family="Helvetica,sans-Serif" font-size="14.00">featureRefName</text>
</a>
</g>
<!-- http://www.opengis.net/geosparql#Feature&#45;&gt;http://www.w3.org/2000/01/rdf&#45;schema#Literal -->
<g id="edge44" class="edge"><title>http://www.opengis.net/geosparql#Feature&#45;&gt;http://www.w3.org/2000/01/rdf&#45;schema#Literal</title>
<a xlink:href="./#pcode" xlink:title="pcode">
<path fill="none" stroke="darkslategray" d="M963.875,-545.755C987.876,-553.253 1001.8,-565.145 987,-584 981.46,-591.059 968.2,-596.879 951.873,-601.609"/>
<polygon fill="darkslategray" stroke="darkslategray" points="950.694,-598.301 941.94,-604.268 952.505,-605.063 950.694,-598.301"/>
</a>
<a xlink:href="./#pcode" xlink:title="pcode">
<text text-anchor="middle" x="1013.5" y="-572.3" font-family="Helvetica,sans-Serif" font-size="14.00">pcode</text>
</a>
</g>
<!-- BaseClass&#45;&gt;http://www.opengis.net/geosparql#Feature -->
<g id="edge32" class="edge"><title>BaseClass&#45;&gt;http://www.opengis.net/geosparql#Feature</title>
<a xlink:href="./#atLocation" xlink:title="atLocation">
<path fill="none" stroke="darkslategray" d="M912.804,-461.582C900.3,-474.384 882.814,-492.286 868.731,-506.704"/>
<polygon fill="darkslategray" stroke="darkslategray" points="866.205,-504.281 861.721,-513.881 871.213,-509.172 866.205,-504.281"/>
</a>
<a xlink:href="./#atLocation" xlink:title="atLocation">
<text text-anchor="middle" x="928" y="-484.3" font-family="Helvetica,sans-Serif" font-size="14.00">atLocation</text>
</a>
</g>
<!-- AdminUnit -->
<g id="node6" class="node"><title>AdminUnit</title>
<a xlink:href="./#AdminUnit" xlink:title="AdminUnit">
<ellipse fill="none" stroke="black" cx="706" cy="-268" rx="52.7911" ry="18"/>
<text text-anchor="middle" x="706" y="-264.3" font-family="Helvetica,sans-Serif" font-size="14.00">AdminUnit</text>
</a>
</g>
<!-- AdminUnit&#45;&gt;http://www.opengis.net/geosparql#Feature -->
<g id="edge6" class="edge"><title>AdminUnit&#45;&gt;http://www.opengis.net/geosparql#Feature</title>
<path fill="none" stroke="red" stroke-dasharray="5,2" d="M714.907,-285.788C738.534,-330.323 802.933,-451.708 831.287,-505.152"/>
<polygon fill="red" stroke="red" points="828.209,-506.819 835.988,-514.013 834.393,-503.539 828.209,-506.819"/>
</g>
<!-- AdminUnit&#45;&gt;BaseClass -->
<g id="edge8" class="edge"><title>AdminUnit&#45;&gt;BaseClass</title>
<path fill="none" stroke="red" stroke-dasharray="5,2" d="M737.819,-282.338C750.463,-288.229 764.859,-295.705 777,-304 827.684,-338.629 878.741,-389.316 906.88,-418.956"/>
<polygon fill="red" stroke="red" points="904.457,-421.487 913.859,-426.371 909.554,-416.69 904.457,-421.487"/>
</g>
<!-- AdminUnitLevel -->
<g id="node9" class="node"><title>AdminUnitLevel</title>
<a xlink:href="./#AdminUnitLevel" xlink:title="AdminUnitLevel">
<ellipse fill="none" stroke="black" cx="594" cy="-356" rx="75.2868" ry="18"/>
<text text-anchor="middle" x="594" y="-352.3" font-family="Helvetica,sans-Serif" font-size="14.00">AdminUnitLevel</text>
</a>
</g>
<!-- AdminUnit&#45;&gt;AdminUnitLevel -->
<g id="edge30" class="edge"><title>AdminUnit&#45;&gt;AdminUnitLevel</title>
<a xlink:href="./#atLevel" xlink:title="atLevel">
<path fill="none" stroke="darkslategray" d="M685.457,-284.774C668.107,-298.097 643.041,-317.343 623.537,-332.32"/>
<polygon fill="darkslategray" stroke="darkslategray" points="621.357,-329.581 615.557,-338.447 625.621,-335.133 621.357,-329.581"/>
</a>
<a xlink:href="./#atLevel" xlink:title="atLevel">
<text text-anchor="middle" x="684" y="-308.3" font-family="Helvetica,sans-Serif" font-size="14.00">atLevel</text>
</a>
</g>
<!-- AdminUnitLevel&#45;&gt;BaseClass -->
<g id="edge10" class="edge"><title>AdminUnitLevel&#45;&gt;BaseClass</title>
<path fill="none" stroke="red" stroke-dasharray="5,2" d="M646.884,-368.797C675.668,-375.355 711.865,-383.822 744,-392 769.915,-398.595 776.221,-400.892 802,-408 827.176,-414.942 855.16,-422.654 878.438,-429.069"/>
<polygon fill="red" stroke="red" points="877.534,-432.45 888.105,-431.732 879.394,-425.702 877.534,-432.45"/>
</g>
<!-- http://www.w3.org/2001/XMLSchema#date -->
<g id="node23" class="node"><title>http://www.w3.org/2001/XMLSchema#date</title>
<a xlink:href="./#http://www.w3.org/2001/XMLSchema#date" xlink:title="http://www.w3.org/2001/XMLSchema#date">
<ellipse fill="none" stroke="gray" cx="594" cy="-444" rx="185.467" ry="18"/>
<text text-anchor="middle" x="594" y="-440.3" font-family="Helvetica,sans-Serif" font-size="14.00" fill="gray">http://www.w3.org/2001/XMLSchema#date</text>
</a>
</g>
<!-- AdminUnitLevel&#45;&gt;http://www.w3.org/2001/XMLSchema#date -->
<g id="edge24" class="edge"><title>AdminUnitLevel&#45;&gt;http://www.w3.org/2001/XMLSchema#date</title>
<a xlink:href="./#adminUnitLevelCountry" xlink:title="adminUnitLevelCountry">
<path fill="none" stroke="darkslategray" d="M594,-374.403C594,-386.254 594,-402.183 594,-415.708"/>
<polygon fill="darkslategray" stroke="darkslategray" points="590.5,-415.916 594,-425.916 597.5,-415.916 590.5,-415.916"/>
</a>
<a xlink:href="./#adminUnitLevelCountry" xlink:title="adminUnitLevelCountry">
<text text-anchor="middle" x="667" y="-396.3" font-family="Helvetica,sans-Serif" font-size="14.00">adminUnitLevelCountry</text>
</a>
</g>
<!-- http://www.w3.org/2001/XMLSchema#int -->
<g id="node25" class="node"><title>http://www.w3.org/2001/XMLSchema#int</title>
<a xlink:href="./#http://www.w3.org/2001/XMLSchema#int" xlink:title="http://www.w3.org/2001/XMLSchema#int">
<ellipse fill="none" stroke="gray" cx="176" cy="-444" rx="176.569" ry="18"/>
<text text-anchor="middle" x="176" y="-440.3" font-family="Helvetica,sans-Serif" font-size="14.00" fill="gray">http://www.w3.org/2001/XMLSchema#int</text>
</a>
</g>
<!-- AdminUnitLevel&#45;&gt;http://www.w3.org/2001/XMLSchema#int -->
<g id="edge26" class="edge"><title>AdminUnitLevel&#45;&gt;http://www.w3.org/2001/XMLSchema#int</title>
<a xlink:href="./#adminUnitLevelNumber" xlink:title="adminUnitLevelNumber">
<path fill="none" stroke="darkslategray" d="M518.74,-357.361C424.537,-358.948 269.414,-365.646 219,-392 207.886,-397.81 198.481,-407.829 191.328,-417.457"/>
<polygon fill="darkslategray" stroke="darkslategray" points="188.437,-415.485 185.635,-425.702 194.197,-419.462 188.437,-415.485"/>
</a>
<a xlink:href="./#adminUnitLevelNumber" xlink:title="adminUnitLevelNumber">
<text text-anchor="middle" x="293" y="-396.3" font-family="Helvetica,sans-Serif" font-size="14.00">adminUnitLevelNumber</text>
</a>
</g>
<!-- AdminUnitLevel&#45;&gt;http://www.w3.org/2000/01/rdf&#45;schema#Literal -->
<g id="edge28" class="edge"><title>AdminUnitLevel&#45;&gt;http://www.w3.org/2000/01/rdf&#45;schema#Literal</title>
<a xlink:href="./#adminUnitLevelTitle" xlink:title="adminUnitLevelTitle">
<path fill="none" stroke="darkslategray" d="M531.208,-365.983C462.091,-378.777 365.085,-407.049 400,-462 457.546,-552.569 572.784,-591.538 671.435,-608.011"/>
<polygon fill="darkslategray" stroke="darkslategray" points="671.109,-611.503 681.537,-609.63 672.217,-604.592 671.109,-611.503"/>
</a>
<a xlink:href="./#adminUnitLevelTitle" xlink:title="adminUnitLevelTitle">
<text text-anchor="middle" x="489" y="-484.3" font-family="Helvetica,sans-Serif" font-size="14.00">adminUnitLevelTitle</text>
</a>
</g>
<!-- Country -->
<g id="node11" class="node"><title>Country</title>
<a xlink:href="./#Country" xlink:title="Country">
<ellipse fill="none" stroke="black" cx="706" cy="-194" rx="42.4939" ry="18"/>
<text text-anchor="middle" x="706" y="-190.3" font-family="Helvetica,sans-Serif" font-size="14.00">Country</text>
</a>
</g>
<!-- Country&#45;&gt;AdminUnit -->
<g id="edge12" class="edge"><title>Country&#45;&gt;AdminUnit</title>
<path fill="none" stroke="red" stroke-dasharray="5,2" d="M706,-212.063C706,-220.193 706,-230.124 706,-239.295"/>
<polygon fill="red" stroke="red" points="702.5,-239.559 706,-249.559 709.5,-239.559 702.5,-239.559"/>
</g>
<!-- DisplacedLocationType&#45;&gt;BaseClass -->
<g id="edge14" class="edge"><title>DisplacedLocationType&#45;&gt;BaseClass</title>
<path fill="none" stroke="red" stroke-dasharray="5,2" d="M1002.02,-373.991C988.259,-386.997 969.117,-405.087 953.884,-419.483"/>
<polygon fill="red" stroke="red" points="951.188,-417.216 946.324,-426.628 955.996,-422.303 951.188,-417.216"/>
</g>
<!-- DisplacedLocationTypeSet -->
<g id="node15" class="node"><title>DisplacedLocationTypeSet</title>
<a xlink:href="./#DisplacedLocationTypeSet" xlink:title="DisplacedLocationTypeSet">
<ellipse fill="none" stroke="black" cx="1307" cy="-356" rx="122.379" ry="18"/>
<text text-anchor="middle" x="1307" y="-352.3" font-family="Helvetica,sans-Serif" font-size="14.00">DisplacedLocationTypeSet</text>
</a>
</g>
<!-- DisplacedLocationTypeSet&#45;&gt;BaseClass -->
<g id="edge16" class="edge"><title>DisplacedLocationTypeSet&#45;&gt;BaseClass</title>
<path fill="none" stroke="red" stroke-dasharray="5,2" d="M1271.12,-373.264C1244.13,-384.798 1205.95,-399.655 1171,-408 1100.11,-424.927 1079.94,-414.318 1008,-426 999.739,-427.341 991.038,-428.981 982.551,-430.706"/>
<polygon fill="red" stroke="red" points="981.798,-427.288 972.725,-432.759 983.229,-434.14 981.798,-427.288"/>
</g>
<!-- http://www.w3.org/1999/02/22&#45;rdf&#45;syntax&#45;ns#Bag -->
<g id="node17" class="node"><title>http://www.w3.org/1999/02/22&#45;rdf&#45;syntax&#45;ns#Bag</title>
<a xlink:href="./#DisplacedLocationTypeSet" xlink:title="http://www.w3.org/1999/02/22&#45;rdf&#45;syntax&#45;ns#Bag">
<ellipse fill="none" stroke="gray" cx="1227" cy="-444" rx="209.863" ry="18"/>
<text text-anchor="middle" x="1227" y="-440.3" font-family="Helvetica,sans-Serif" font-size="14.00" fill="gray">http://www.w3.org/1999/02/22&#45;rdf&#45;syntax&#45;ns#Bag</text>
</a>
</g>
<!-- DisplacedLocationTypeSet&#45;&gt;http://www.w3.org/1999/02/22&#45;rdf&#45;syntax&#45;ns#Bag -->
<g id="edge18" class="edge"><title>DisplacedLocationTypeSet&#45;&gt;http://www.w3.org/1999/02/22&#45;rdf&#45;syntax&#45;ns#Bag</title>
<path fill="none" stroke="red" stroke-dasharray="5,2" d="M1291.19,-373.991C1279.36,-386.712 1263,-404.298 1249.76,-418.533"/>
<polygon fill="red" stroke="red" points="1247.02,-416.339 1242.77,-426.044 1252.15,-421.106 1247.02,-416.339"/>
</g>
<!-- PopPlaceClass -->
<g id="node19" class="node"><title>PopPlaceClass</title>
<a xlink:href="./#PopPlaceClass" xlink:title="PopPlaceClass">
<ellipse fill="none" stroke="black" cx="706" cy="-106" rx="74.9875" ry="18"/>
<text text-anchor="middle" x="706" y="-102.3" font-family="Helvetica,sans-Serif" font-size="14.00">PopPlaceClass</text>
</a>
</g>
<!-- PopPlaceClass&#45;&gt;BaseClass -->
<g id="edge20" class="edge"><title>PopPlaceClass&#45;&gt;BaseClass</title>
<path fill="none" stroke="red" stroke-dasharray="5,2" d="M780.473,-106.102C908.57,-106.582 1157,-117.276 1157,-193 1157,-193 1157,-193 1157,-357 1157,-375.787 1047.23,-409.908 980.018,-429.038"/>
<polygon fill="red" stroke="red" points="978.697,-425.774 970.025,-431.861 980.6,-432.511 978.697,-425.774"/>
</g>
<!-- PopPlaceClass&#45;&gt;Country -->
<g id="edge46" class="edge"><title>PopPlaceClass&#45;&gt;Country</title>
<a xlink:href="./#popPlaceClassCountry" xlink:title="popPlaceClassCountry">
<path fill="none" stroke="darkslategray" d="M706,-124.403C706,-136.254 706,-152.183 706,-165.708"/>
<polygon fill="darkslategray" stroke="darkslategray" points="702.5,-165.916 706,-175.916 709.5,-165.916 702.5,-165.916"/>
</a>
<a xlink:href="./#popPlaceClassCountry" xlink:title="popPlaceClassCountry">
<text text-anchor="middle" x="779" y="-146.3" font-family="Helvetica,sans-Serif" font-size="14.00">popPlaceClassCountry</text>
</a>
</g>
<!-- PopPlaceClass&#45;&gt;http://www.w3.org/2001/XMLSchema#int -->
<g id="edge48" class="edge"><title>PopPlaceClass&#45;&gt;http://www.w3.org/2001/XMLSchema#int</title>
<a xlink:href="./#popPlaceClassNumber" xlink:title="popPlaceClassNumber">
<path fill="none" stroke="darkslategray" d="M634.922,-111.46C492.351,-121.363 185,-147.936 185,-193 185,-193 185,-193 185,-357 185,-376.703 182.634,-398.809 180.329,-415.674"/>
<polygon fill="darkslategray" stroke="darkslategray" points="176.814,-415.524 178.848,-425.922 183.742,-416.526 176.814,-415.524"/>
</a>
<a xlink:href="./#popPlaceClassNumber" xlink:title="popPlaceClassNumber">
<text text-anchor="middle" x="259" y="-264.3" font-family="Helvetica,sans-Serif" font-size="14.00">popPlaceClassNumber</text>
</a>
</g>
<!-- PopPlaceClass&#45;&gt;http://www.w3.org/2000/01/rdf&#45;schema#Literal -->
<g id="edge50" class="edge"><title>PopPlaceClass&#45;&gt;http://www.w3.org/2000/01/rdf&#45;schema#Literal</title>
<a xlink:href="./#popPlaceClassTitle" xlink:title="popPlaceClassTitle">
<path fill="none" stroke="darkslategray" d="M780.158,-107.724C971.142,-110.567 1465,-124.538 1465,-193 1465,-193 1465,-193 1465,-533 1465,-577.487 1211.72,-600.228 1028.67,-610.854"/>
<polygon fill="darkslategray" stroke="darkslategray" points="1028.42,-607.362 1018.64,-611.428 1028.82,-614.35 1028.42,-607.362"/>
</a>
<a xlink:href="./#popPlaceClassTitle" xlink:title="popPlaceClassTitle">
<text text-anchor="middle" x="1527" y="-352.3" font-family="Helvetica,sans-Serif" font-size="14.00">popPlaceClassTitle</text>
</a>
</g>
<!-- PopulatedPlace -->
<g id="node21" class="node"><title>PopulatedPlace</title>
<a xlink:href="./#PopulatedPlace" xlink:title="PopulatedPlace">
<ellipse fill="none" stroke="black" cx="295" cy="-18" rx="76.0865" ry="18"/>
<text text-anchor="middle" x="295" y="-14.3" font-family="Helvetica,sans-Serif" font-size="14.00">PopulatedPlace</text>
</a>
</g>
<!-- PopulatedPlace&#45;&gt;AdminUnit -->
<g id="edge22" class="edge"><title>PopulatedPlace&#45;&gt;AdminUnit</title>
<path fill="none" stroke="red" stroke-dasharray="5,2" d="M262.943,-34.4527C214.764,-59.7085 133.154,-111.665 171,-158 230.259,-230.549 516.916,-256.046 644.518,-263.9"/>
<polygon fill="red" stroke="red" points="644.336,-267.395 654.528,-264.5 644.755,-260.408 644.336,-267.395"/>
</g>
<!-- PopulatedPlace&#45;&gt;PopPlaceClass -->
<g id="edge42" class="edge"><title>PopulatedPlace&#45;&gt;PopPlaceClass</title>
<a xlink:href="./#inClass" xlink:title="inClass">
<path fill="none" stroke="darkslategray" d="M350.003,-30.5091C425.624,-46.3324 561.431,-74.7495 641.669,-91.5389"/>
<polygon fill="darkslategray" stroke="darkslategray" points="641.145,-95.0051 651.65,-93.6275 642.579,-88.1535 641.145,-95.0051"/>
</a>
<a xlink:href="./#inClass" xlink:title="inClass">
<text text-anchor="middle" x="561.5" y="-58.3" font-family="Helvetica,sans-Serif" font-size="14.00">inClass</text>
</a>
</g>
</g>
</svg>
