<?xml version="1.0" encoding="UTF-8" standalone="no"?>
<!DOCTYPE svg PUBLIC "-//W3C//DTD SVG 1.1//EN"
 "http://www.w3.org/Graphics/SVG/1.1/DTD/svg11.dtd">
<!-- Generated by graphviz version 2.28.0 (20121022.1408)
 -->
<!-- Title: _anonymous_0 Pages: 1 -->
<svg width="2083pt" height="558pt"
 viewBox="0.00 0.00 2083.00 558.00" xmlns="http://www.w3.org/2000/svg" xmlns:xlink="http://www.w3.org/1999/xlink">
<g id="graph1" class="graph" transform="scale(1 1) rotate(0) translate(4 554)">
<title>_anonymous_0</title>
<polygon fill="white" stroke="white" points="-4,5 -4,-554 2080,-554 2080,5 -4,5"/>
<!-- APL -->
<g id="node1" class="node"><title>APL</title>
<a xlink:href="./#APL" xlink:title="APL">
<ellipse fill="none" stroke="black" cx="453" cy="-268" rx="29.4969" ry="18"/>
<text text-anchor="middle" x="453" y="-264.3" font-family="Helvetica,sans-Serif" font-size="14.00">APL</text>
</a>
</g>
<!-- http://www.opengis.net/ont/geosparql#Feature -->
<g id="node2" class="node"><title>http://www.opengis.net/ont/geosparql#Feature</title>
<a xlink:href="./#http://www.opengis.net/ont/geosparql#Feature" xlink:title="http://www.opengis.net/ont/geosparql#Feature">
<ellipse fill="none" stroke="gray" cx="203" cy="-444" rx="203.364" ry="18"/>
<text text-anchor="middle" x="203" y="-440.3" font-family="Helvetica,sans-Serif" font-size="14.00" fill="gray">http://www.opengis.net/ont/geosparql#Feature</text>
</a>
</g>
<!-- APL&#45;&gt;http://www.opengis.net/ont/geosparql#Feature -->
<g id="edge2" class="edge"><title>APL&#45;&gt;http://www.opengis.net/ont/geosparql#Feature</title>
<path fill="none" stroke="red" stroke-dasharray="5,2" d="M450.954,-285.996C447.398,-308.676 438.099,-348.888 415,-374 391.27,-399.798 357.799,-415.979 324.449,-426.118"/>
<polygon fill="red" stroke="red" points="323.233,-422.825 314.585,-428.947 325.163,-429.554 323.233,-422.825"/>
</g>
<!-- LocatedBaseClass -->
<g id="node4" class="node"><title>LocatedBaseClass</title>
<a xlink:href="./#LocatedBaseClass" xlink:title="LocatedBaseClass">
<ellipse fill="none" stroke="gray" cx="316" cy="-356" rx="90.1842" ry="18"/>
<text text-anchor="middle" x="316" y="-352.3" font-family="Helvetica,sans-Serif" font-size="14.00" fill="gray">LocatedBaseClass</text>
</a>
</g>
<!-- APL&#45;&gt;LocatedBaseClass -->
<g id="edge4" class="edge"><title>APL&#45;&gt;LocatedBaseClass</title>
<path fill="none" stroke="red" stroke-dasharray="5,2" d="M430.107,-279.582C424.867,-281.834 419.283,-284.103 414,-286 386.592,-295.84 374.636,-286.99 351,-304 341.979,-310.492 334.531,-320.071 328.859,-329.18"/>
<polygon fill="red" stroke="red" points="325.738,-327.586 323.787,-338 331.806,-331.076 325.738,-327.586"/>
</g>
<!-- DisplacedLocationType -->
<g id="node14" class="node"><title>DisplacedLocationType</title>
<a xlink:href="./#DisplacedLocationType" xlink:title="DisplacedLocationType">
<ellipse fill="none" stroke="black" cx="1019" cy="-356" rx="110.48" ry="18"/>
<text text-anchor="middle" x="1019" y="-352.3" font-family="Helvetica,sans-Serif" font-size="14.00">DisplacedLocationType</text>
</a>
</g>
<!-- APL&#45;&gt;DisplacedLocationType -->
<g id="edge34" class="edge"><title>APL&#45;&gt;DisplacedLocationType</title>
<a xlink:href="./#displacedLocationType" xlink:title="displacedLocationType">
<path fill="none" stroke="darkslategray" d="M481.068,-273.265C562.429,-285.627 800.873,-321.857 931.298,-341.674"/>
<polygon fill="darkslategray" stroke="darkslategray" points="930.854,-345.147 941.267,-343.189 931.906,-338.226 930.854,-345.147"/>
</a>
<a xlink:href="./#displacedLocationType" xlink:title="displacedLocationType">
<text text-anchor="middle" x="862.5" y="-308.3" font-family="Helvetica,sans-Serif" font-size="14.00">displacedLocationType</text>
</a>
</g>
<!-- http://www.w3.org/2000/01/rdf&#45;schema#Literal -->
<g id="node28" class="node"><title>http://www.w3.org/2000/01/rdf&#45;schema#Literal</title>
<a xlink:href="./#http://www.w3.org/2000/01/rdf-schema#Literal" xlink:title="http://www.w3.org/2000/01/rdf&#45;schema#Literal">
<ellipse fill="none" stroke="gray" cx="321" cy="-532" rx="200.365" ry="18"/>
<text text-anchor="middle" x="321" y="-528.3" font-family="Helvetica,sans-Serif" font-size="14.00" fill="gray">http://www.w3.org/2000/01/rdf&#45;schema#Literal</text>
</a>
</g>
<!-- http://www.opengis.net/ont/geosparql#Feature&#45;&gt;http://www.w3.org/2000/01/rdf&#45;schema#Literal -->
<g id="edge36" class="edge"><title>http://www.opengis.net/ont/geosparql#Feature&#45;&gt;http://www.w3.org/2000/01/rdf&#45;schema#Literal</title>
<a xlink:href="./#featureAltName" xlink:title="featureAltName">
<path fill="none" stroke="darkslategray" d="M47.4169,-455.665C21.3955,-463.229 7.94687,-475.678 26,-496 35.4095,-506.592 91.0916,-514.539 151.59,-520.161"/>
<polygon fill="darkslategray" stroke="darkslategray" points="151.456,-523.663 161.731,-521.079 152.087,-516.692 151.456,-523.663"/>
</a>
<a xlink:href="./#featureAltName" xlink:title="featureAltName">
<text text-anchor="middle" x="77" y="-484.3" font-family="Helvetica,sans-Serif" font-size="14.00">featureAltName</text>
</a>
</g>
<!-- http://www.opengis.net/ont/geosparql#Feature&#45;&gt;http://www.w3.org/2000/01/rdf&#45;schema#Literal -->
<g id="edge38" class="edge"><title>http://www.opengis.net/ont/geosparql#Feature&#45;&gt;http://www.w3.org/2000/01/rdf&#45;schema#Literal</title>
<a xlink:href="./#featureName" xlink:title="featureName">
<path fill="none" stroke="darkslategray" d="M168.241,-461.772C153.177,-471.302 141.014,-483.748 151,-496 157.555,-504.042 172.886,-510.291 191.795,-515.128"/>
<polygon fill="darkslategray" stroke="darkslategray" points="191.124,-518.566 201.661,-517.461 192.735,-511.754 191.124,-518.566"/>
</a>
<a xlink:href="./#featureName" xlink:title="featureName">
<text text-anchor="middle" x="193" y="-484.3" font-family="Helvetica,sans-Serif" font-size="14.00">featureName</text>
</a>
</g>
<!-- http://www.opengis.net/ont/geosparql#Feature&#45;&gt;http://www.w3.org/2000/01/rdf&#45;schema#Literal -->
<g id="edge40" class="edge"><title>http://www.opengis.net/ont/geosparql#Feature&#45;&gt;http://www.w3.org/2000/01/rdf&#45;schema#Literal</title>
<a xlink:href="./#featureRefName" xlink:title="featureRefName">
<path fill="none" stroke="darkslategray" d="M219.417,-462.203C229.896,-472.665 244.084,-485.909 258,-496 264.339,-500.596 271.343,-505.037 278.309,-509.123"/>
<polygon fill="darkslategray" stroke="darkslategray" points="276.635,-512.198 287.058,-514.095 280.093,-506.112 276.635,-512.198"/>
</a>
<a xlink:href="./#featureRefName" xlink:title="featureRefName">
<text text-anchor="middle" x="311" y="-484.3" font-family="Helvetica,sans-Serif" font-size="14.00">featureRefName</text>
</a>
</g>
<!-- http://www.opengis.net/ont/geosparql#Feature&#45;&gt;http://www.w3.org/2000/01/rdf&#45;schema#Literal -->
<g id="edge44" class="edge"><title>http://www.opengis.net/ont/geosparql#Feature&#45;&gt;http://www.w3.org/2000/01/rdf&#45;schema#Literal</title>
<a xlink:href="./#pcode" xlink:title="pcode">
<path fill="none" stroke="darkslategray" d="M315.654,-459.061C337.943,-464.164 356.73,-470.98 364,-480 371.34,-489.107 366.195,-498.967 357.274,-507.567"/>
<polygon fill="darkslategray" stroke="darkslategray" points="354.856,-505.029 349.477,-514.156 359.374,-510.375 354.856,-505.029"/>
</a>
<a xlink:href="./#pcode" xlink:title="pcode">
<text text-anchor="middle" x="388.5" y="-484.3" font-family="Helvetica,sans-Serif" font-size="14.00">pcode</text>
</a>
</g>
<!-- LocatedBaseClass&#45;&gt;http://www.opengis.net/ont/geosparql#Feature -->
<g id="edge32" class="edge"><title>LocatedBaseClass&#45;&gt;http://www.opengis.net/ont/geosparql#Feature</title>
<a xlink:href="./#atLocation" xlink:title="atLocation">
<path fill="none" stroke="darkslategray" d="M294.212,-373.582C277.006,-386.677 252.786,-405.11 233.628,-419.691"/>
<polygon fill="darkslategray" stroke="darkslategray" points="231.332,-417.039 225.494,-425.881 235.571,-422.61 231.332,-417.039"/>
</a>
<a xlink:href="./#atLocation" xlink:title="atLocation">
<text text-anchor="middle" x="303.5" y="-396.3" font-family="Helvetica,sans-Serif" font-size="14.00">atLocation</text>
</a>
</g>
<!-- AdminUnit -->
<g id="node6" class="node"><title>AdminUnit</title>
<a xlink:href="./#AdminUnit" xlink:title="AdminUnit">
<ellipse fill="none" stroke="black" cx="351" cy="-268" rx="54.6905" ry="18"/>
<text text-anchor="middle" x="351" y="-264.3" font-family="Helvetica,sans-Serif" font-size="14.00">AdminUnit</text>
</a>
</g>
<!-- AdminUnit&#45;&gt;http://www.opengis.net/ont/geosparql#Feature -->
<g id="edge6" class="edge"><title>AdminUnit&#45;&gt;http://www.opengis.net/ont/geosparql#Feature</title>
<path fill="none" stroke="red" stroke-dasharray="5,2" d="M308.643,-279.482C278.116,-289.343 238.631,-307.307 217,-338 201.086,-360.58 199.028,-392.812 200.044,-415.596"/>
<polygon fill="red" stroke="red" points="196.555,-415.889 200.715,-425.633 203.54,-415.422 196.555,-415.889"/>
</g>
<!-- AdminUnit&#45;&gt;LocatedBaseClass -->
<g id="edge8" class="edge"><title>AdminUnit&#45;&gt;LocatedBaseClass</title>
<path fill="none" stroke="red" stroke-dasharray="5,2" d="M336.974,-285.565C332.887,-291.123 328.778,-297.554 326,-304 322.772,-311.49 320.577,-320.049 319.088,-327.988"/>
<polygon fill="red" stroke="red" points="315.621,-327.501 317.509,-337.926 322.534,-328.599 315.621,-327.501"/>
</g>
<!-- AdminUnitLevel -->
<g id="node9" class="node"><title>AdminUnitLevel</title>
<a xlink:href="./#AdminUnitLevel" xlink:title="AdminUnitLevel">
<ellipse fill="none" stroke="black" cx="778" cy="-356" rx="77.9862" ry="18"/>
<text text-anchor="middle" x="778" y="-352.3" font-family="Helvetica,sans-Serif" font-size="14.00">AdminUnitLevel</text>
</a>
</g>
<!-- AdminUnit&#45;&gt;AdminUnitLevel -->
<g id="edge30" class="edge"><title>AdminUnit&#45;&gt;AdminUnitLevel</title>
<a xlink:href="./#atLevel" xlink:title="atLevel">
<path fill="none" stroke="darkslategray" d="M391.177,-280.143C399.051,-282.194 407.265,-284.24 415,-286 515.812,-308.939 633.565,-330.343 706.971,-343.053"/>
<polygon fill="darkslategray" stroke="darkslategray" points="706.579,-346.537 717.028,-344.788 707.769,-339.639 706.579,-346.537"/>
</a>
<a xlink:href="./#atLevel" xlink:title="atLevel">
<text text-anchor="middle" x="598.5" y="-308.3" font-family="Helvetica,sans-Serif" font-size="14.00">atLevel</text>
</a>
</g>
<!-- BaseClass -->
<g id="node10" class="node"><title>BaseClass</title>
<a xlink:href="./#PopPlaceClass" xlink:title="BaseClass">
<ellipse fill="none" stroke="gray" cx="1419" cy="-444" rx="55.7903" ry="18"/>
<text text-anchor="middle" x="1419" y="-440.3" font-family="Helvetica,sans-Serif" font-size="14.00" fill="gray">BaseClass</text>
</a>
</g>
<!-- AdminUnitLevel&#45;&gt;BaseClass -->
<g id="edge10" class="edge"><title>AdminUnitLevel&#45;&gt;BaseClass</title>
<path fill="none" stroke="red" stroke-dasharray="5,2" d="M841.242,-366.446C860.119,-369.094 880.875,-371.837 900,-374 991.762,-384.376 1015.47,-379.727 1107,-392 1146.4,-397.283 1155.67,-402.205 1195,-408 1265.36,-418.367 1284.09,-412.969 1354,-426 1358.77,-426.888 1363.7,-427.936 1368.62,-429.069"/>
<polygon fill="red" stroke="red" points="1368.09,-432.543 1378.63,-431.487 1369.73,-425.738 1368.09,-432.543"/>
</g>
<!-- http://www.w3.org/2001/XMLSchema#date -->
<g id="node24" class="node"><title>http://www.w3.org/2001/XMLSchema#date</title>
<a xlink:href="./#http://www.w3.org/2001/XMLSchema#date" xlink:title="http://www.w3.org/2001/XMLSchema#date">
<ellipse fill="none" stroke="gray" cx="778" cy="-444" rx="188.467" ry="18"/>
<text text-anchor="middle" x="778" y="-440.3" font-family="Helvetica,sans-Serif" font-size="14.00" fill="gray">http://www.w3.org/2001/XMLSchema#date</text>
</a>
</g>
<!-- AdminUnitLevel&#45;&gt;http://www.w3.org/2001/XMLSchema#date -->
<g id="edge24" class="edge"><title>AdminUnitLevel&#45;&gt;http://www.w3.org/2001/XMLSchema#date</title>
<a xlink:href="./#adminUnitLevelCountry" xlink:title="adminUnitLevelCountry">
<path fill="none" stroke="darkslategray" d="M778,-374.403C778,-386.254 778,-402.183 778,-415.708"/>
<polygon fill="darkslategray" stroke="darkslategray" points="774.5,-415.916 778,-425.916 781.5,-415.916 774.5,-415.916"/>
</a>
<a xlink:href="./#adminUnitLevelCountry" xlink:title="adminUnitLevelCountry">
<text text-anchor="middle" x="854" y="-396.3" font-family="Helvetica,sans-Serif" font-size="14.00">adminUnitLevelCountry</text>
</a>
</g>
<!-- http://www.w3.org/2001/XMLSchema#int -->
<g id="node26" class="node"><title>http://www.w3.org/2001/XMLSchema#int</title>
<a xlink:href="./#http://www.w3.org/2001/XMLSchema#int" xlink:title="http://www.w3.org/2001/XMLSchema#int">
<ellipse fill="none" stroke="gray" cx="1165" cy="-444" rx="180.068" ry="18"/>
<text text-anchor="middle" x="1165" y="-440.3" font-family="Helvetica,sans-Serif" font-size="14.00" fill="gray">http://www.w3.org/2001/XMLSchema#int</text>
</a>
</g>
<!-- AdminUnitLevel&#45;&gt;http://www.w3.org/2001/XMLSchema#int -->
<g id="edge26" class="edge"><title>AdminUnitLevel&#45;&gt;http://www.w3.org/2001/XMLSchema#int</title>
<a xlink:href="./#adminUnitLevelNumber" xlink:title="adminUnitLevelNumber">
<path fill="none" stroke="darkslategray" d="M842.651,-366.121C870.607,-371.489 903.213,-379.713 931,-392 942.389,-397.036 942.464,-403.311 954,-408 977.156,-417.413 1002.72,-424.295 1027.83,-429.327"/>
<polygon fill="darkslategray" stroke="darkslategray" points="1027.32,-432.793 1037.8,-431.235 1028.64,-425.918 1027.32,-432.793"/>
</a>
<a xlink:href="./#adminUnitLevelNumber" xlink:title="adminUnitLevelNumber">
<text text-anchor="middle" x="1030.5" y="-396.3" font-family="Helvetica,sans-Serif" font-size="14.00">adminUnitLevelNumber</text>
</a>
</g>
<!-- AdminUnitLevel&#45;&gt;http://www.w3.org/2000/01/rdf&#45;schema#Literal -->
<g id="edge28" class="edge"><title>AdminUnitLevel&#45;&gt;http://www.w3.org/2000/01/rdf&#45;schema#Literal</title>
<a xlink:href="./#adminUnitLevelTitle" xlink:title="adminUnitLevelTitle">
<path fill="none" stroke="darkslategray" d="M709.857,-364.595C626.424,-375.036 491.234,-395.999 451,-426 422.621,-447.161 439.649,-472.698 413,-496 406.62,-501.579 399.259,-506.309 391.537,-510.311"/>
<polygon fill="darkslategray" stroke="darkslategray" points="389.872,-507.228 382.343,-514.682 392.877,-513.55 389.872,-507.228"/>
</a>
<a xlink:href="./#adminUnitLevelTitle" xlink:title="adminUnitLevelTitle">
<text text-anchor="middle" x="516" y="-440.3" font-family="Helvetica,sans-Serif" font-size="14.00">adminUnitLevelTitle</text>
</a>
</g>
<!-- Country -->
<g id="node12" class="node"><title>Country</title>
<a xlink:href="./#Country" xlink:title="Country">
<ellipse fill="none" stroke="black" cx="791" cy="-194" rx="44.393" ry="18"/>
<text text-anchor="middle" x="791" y="-190.3" font-family="Helvetica,sans-Serif" font-size="14.00">Country</text>
</a>
</g>
<!-- Country&#45;&gt;AdminUnit -->
<g id="edge12" class="edge"><title>Country&#45;&gt;AdminUnit</title>
<path fill="none" stroke="red" stroke-dasharray="5,2" d="M748.998,-199.554C679.224,-207.474 535.203,-225.328 415,-250 410.319,-250.961 405.472,-252.058 400.634,-253.221"/>
<polygon fill="red" stroke="red" points="399.632,-249.864 390.777,-255.68 401.327,-256.655 399.632,-249.864"/>
</g>
<!-- DisplacedLocationType&#45;&gt;BaseClass -->
<g id="edge14" class="edge"><title>DisplacedLocationType&#45;&gt;BaseClass</title>
<path fill="none" stroke="red" stroke-dasharray="5,2" d="M1087.88,-370.086C1155.77,-383.243 1262.35,-404.592 1354,-426 1358.59,-427.071 1363.34,-428.227 1368.1,-429.415"/>
<polygon fill="red" stroke="red" points="1367.27,-432.814 1377.82,-431.88 1368.99,-426.029 1367.27,-432.814"/>
</g>
<!-- DisplacedLocationTypeSet -->
<g id="node16" class="node"><title>DisplacedLocationTypeSet</title>
<a xlink:href="./#DisplacedLocationTypeSet" xlink:title="DisplacedLocationTypeSet">
<ellipse fill="none" stroke="black" cx="1640" cy="-356" rx="124.578" ry="18"/>
<text text-anchor="middle" x="1640" y="-352.3" font-family="Helvetica,sans-Serif" font-size="14.00">DisplacedLocationTypeSet</text>
</a>
</g>
<!-- DisplacedLocationTypeSet&#45;&gt;BaseClass -->
<g id="edge16" class="edge"><title>DisplacedLocationTypeSet&#45;&gt;BaseClass</title>
<path fill="none" stroke="red" stroke-dasharray="5,2" d="M1598.69,-373.075C1559.99,-388.134 1502.35,-410.565 1462.85,-425.936"/>
<polygon fill="red" stroke="red" points="1461.27,-422.795 1453.22,-429.683 1463.81,-429.319 1461.27,-422.795"/>
</g>
<!-- http://www.w3.org/1999/02/22&#45;rdf&#45;syntax&#45;ns#Bag -->
<g id="node18" class="node"><title>http://www.w3.org/1999/02/22&#45;rdf&#45;syntax&#45;ns#Bag</title>
<a xlink:href="./#DisplacedLocationTypeSet" xlink:title="http://www.w3.org/1999/02/22&#45;rdf&#45;syntax&#45;ns#Bag">
<ellipse fill="none" stroke="gray" cx="1707" cy="-444" rx="213.662" ry="18"/>
<text text-anchor="middle" x="1707" y="-440.3" font-family="Helvetica,sans-Serif" font-size="14.00" fill="gray">http://www.w3.org/1999/02/22&#45;rdf&#45;syntax&#45;ns#Bag</text>
</a>
</g>
<!-- DisplacedLocationTypeSet&#45;&gt;http://www.w3.org/1999/02/22&#45;rdf&#45;syntax&#45;ns#Bag -->
<g id="edge18" class="edge"><title>DisplacedLocationTypeSet&#45;&gt;http://www.w3.org/1999/02/22&#45;rdf&#45;syntax&#45;ns#Bag</title>
<path fill="none" stroke="red" stroke-dasharray="5,2" d="M1653.24,-373.991C1662.99,-386.512 1676.42,-403.747 1687.41,-417.86"/>
<polygon fill="red" stroke="red" points="1684.65,-420.013 1693.56,-425.75 1690.18,-415.71 1684.65,-420.013"/>
</g>
<!-- PopPlaceClass -->
<g id="node20" class="node"><title>PopPlaceClass</title>
<a xlink:href="./#PopPlaceClass" xlink:title="PopPlaceClass">
<ellipse fill="none" stroke="black" cx="1171" cy="-106" rx="74.9875" ry="18"/>
<text text-anchor="middle" x="1171" y="-102.3" font-family="Helvetica,sans-Serif" font-size="14.00">PopPlaceClass</text>
</a>
</g>
<!-- PopPlaceClass&#45;&gt;BaseClass -->
<g id="edge20" class="edge"><title>PopPlaceClass&#45;&gt;BaseClass</title>
<path fill="none" stroke="red" stroke-dasharray="5,2" d="M1231.16,-116.702C1301.08,-129.718 1407,-155.606 1407,-193 1407,-193 1407,-193 1407,-357 1407,-376.786 1410.15,-398.889 1413.23,-415.733"/>
<polygon fill="red" stroke="red" points="1409.87,-416.809 1415.2,-425.965 1416.74,-415.483 1409.87,-416.809"/>
</g>
<!-- PopPlaceClass&#45;&gt;Country -->
<g id="edge46" class="edge"><title>PopPlaceClass&#45;&gt;Country</title>
<a xlink:href="./#popPlaceClassCountry" xlink:title="popPlaceClassCountry">
<path fill="none" stroke="darkslategray" d="M1116.95,-118.437C1085.43,-125.166 1044.93,-133.916 1009,-142 949.896,-155.297 881.954,-171.307 837.844,-181.798"/>
<polygon fill="darkslategray" stroke="darkslategray" points="836.903,-178.424 827.986,-184.145 838.524,-185.234 836.903,-178.424"/>
</a>
<a xlink:href="./#popPlaceClassCountry" xlink:title="popPlaceClassCountry">
<text text-anchor="middle" x="1083" y="-146.3" font-family="Helvetica,sans-Serif" font-size="14.00">popPlaceClassCountry</text>
</a>
</g>
<!-- PopPlaceClass&#45;&gt;http://www.w3.org/2001/XMLSchema#int -->
<g id="edge48" class="edge"><title>PopPlaceClass&#45;&gt;http://www.w3.org/2001/XMLSchema#int</title>
<a xlink:href="./#popPlaceClassNumber" xlink:title="popPlaceClassNumber">
<path fill="none" stroke="darkslategray" d="M1171,-124.133C1171,-141.49 1171,-169.111 1171,-193 1171,-193 1171,-193 1171,-357 1171,-376.644 1169.42,-398.751 1167.89,-415.632"/>
<polygon fill="darkslategray" stroke="darkslategray" points="1164.37,-415.602 1166.9,-425.892 1171.34,-416.273 1164.37,-415.602"/>
</a>
<a xlink:href="./#popPlaceClassNumber" xlink:title="popPlaceClassNumber">
<text text-anchor="middle" x="1245.5" y="-264.3" font-family="Helvetica,sans-Serif" font-size="14.00">popPlaceClassNumber</text>
</a>
</g>
<!-- PopPlaceClass&#45;&gt;http://www.w3.org/2000/01/rdf&#45;schema#Literal -->
<g id="edge50" class="edge"><title>PopPlaceClass&#45;&gt;http://www.w3.org/2000/01/rdf&#45;schema#Literal</title>
<a xlink:href="./#popPlaceClassTitle" xlink:title="popPlaceClassTitle">
<path fill="none" stroke="darkslategray" d="M1245.25,-107.513C1439.71,-109.835 1949,-122.633 1949,-193 1949,-193 1949,-193 1949,-445 1949,-456.666 1939.86,-457.741 1929,-462 1802.19,-511.725 935.64,-525.732 529.83,-529.584"/>
<polygon fill="darkslategray" stroke="darkslategray" points="529.704,-526.085 519.738,-529.678 529.77,-533.084 529.704,-526.085"/>
</a>
<a xlink:href="./#popPlaceClassTitle" xlink:title="popPlaceClassTitle">
<text text-anchor="middle" x="2012" y="-308.3" font-family="Helvetica,sans-Serif" font-size="14.00">popPlaceClassTitle</text>
</a>
</g>
<!-- PopulatedPlace -->
<g id="node22" class="node"><title>PopulatedPlace</title>
<a xlink:href="./#PopulatedPlace" xlink:title="PopulatedPlace">
<ellipse fill="none" stroke="black" cx="622" cy="-18" rx="76.8869" ry="18"/>
<text text-anchor="middle" x="622" y="-14.3" font-family="Helvetica,sans-Serif" font-size="14.00">PopulatedPlace</text>
</a>
</g>
<!-- PopulatedPlace&#45;&gt;AdminUnit -->
<g id="edge22" class="edge"><title>PopulatedPlace&#45;&gt;AdminUnit</title>
<path fill="none" stroke="red" stroke-dasharray="5,2" d="M603.798,-35.6571C556.63,-78.8216 430.356,-194.379 376.215,-243.925"/>
<polygon fill="red" stroke="red" points="373.783,-241.406 368.769,-250.739 378.509,-246.57 373.783,-241.406"/>
</g>
<!-- PopulatedPlace&#45;&gt;PopPlaceClass -->
<g id="edge42" class="edge"><title>PopulatedPlace&#45;&gt;PopPlaceClass</title>
<a xlink:href="./#inClass" xlink:title="inClass">
<path fill="none" stroke="darkslategray" d="M683.644,-28.6565C786.355,-44.7459 991.906,-76.9453 1100.32,-93.9282"/>
<polygon fill="darkslategray" stroke="darkslategray" points="1100.08,-97.4333 1110.5,-95.5231 1101.16,-90.5176 1100.08,-97.4333"/>
</a>
<a xlink:href="./#inClass" xlink:title="inClass">
<text text-anchor="middle" x="969.5" y="-58.3" font-family="Helvetica,sans-Serif" font-size="14.00">inClass</text>
</a>
</g>
</g>
</svg>
