<?xml version="1.0" encoding="UTF-8" standalone="no"?>
<!DOCTYPE svg PUBLIC "-//W3C//DTD SVG 1.1//EN"
 "http://www.w3.org/Graphics/SVG/1.1/DTD/svg11.dtd">
<!-- Generated by graphviz version 2.28.0 (20121022.1408)
 -->
<!-- Title: _anonymous_0 Pages: 1 -->
<svg width="1437pt" height="470pt"
 viewBox="0.00 0.00 1437.34 470.00" xmlns="http://www.w3.org/2000/svg" xmlns:xlink="http://www.w3.org/1999/xlink">
<g id="graph1" class="graph" transform="scale(1 1) rotate(0) translate(4 466)">
<title>_anonymous_0</title>
<polygon fill="white" stroke="white" points="-4,5 -4,-466 1434.34,-466 1434.34,5 -4,5"/>
<!-- APL -->
<g id="node1" class="node"><title>APL</title>
<a xlink:href="./#APL" xlink:title="APL">
<ellipse fill="none" stroke="black" cx="1034.3" cy="-92" rx="29.4969" ry="18"/>
<text text-anchor="middle" x="1034.3" y="-88.3" font-family="Helvetica,sans-Serif" font-size="14.00">APL</text>
</a>
</g>
<!-- http://www.opengis.net/geosparql#Feature -->
<g id="node2" class="node"><title>http://www.opengis.net/geosparql#Feature</title>
<a xlink:href="./#http://www.opengis.net/geosparql#Feature" xlink:title="http://www.opengis.net/geosparql#Feature">
<ellipse fill="none" stroke="gray" cx="425.302" cy="-356" rx="187.667" ry="18"/>
<text text-anchor="middle" x="425.302" y="-352.3" font-family="Helvetica,sans-Serif" font-size="14.00" fill="gray">http://www.opengis.net/geosparql#Feature</text>
</a>
</g>
<!-- APL&#45;&gt;http://www.opengis.net/geosparql#Feature -->
<g id="edge2" class="edge"><title>APL&#45;&gt;http://www.opengis.net/geosparql#Feature</title>
<path fill="none" stroke="red" stroke-dasharray="5,2" d="M1062.68,-96.644C1166.94,-111.057 1517.29,-169.091 1408.3,-286 1356,-342.098 894.66,-353.461 622.976,-355.236"/>
<polygon fill="red" stroke="red" points="622.57,-351.738 612.591,-355.3 622.613,-358.738 622.57,-351.738"/>
</g>
<!-- BaseClass -->
<g id="node4" class="node"><title>BaseClass</title>
<a xlink:href="./#BaseClass" xlink:title="BaseClass">
<ellipse fill="none" stroke="gray" cx="898.302" cy="-268" rx="55.7903" ry="18"/>
<text text-anchor="middle" x="898.302" y="-264.3" font-family="Helvetica,sans-Serif" font-size="14.00" fill="gray">BaseClass</text>
</a>
</g>
<!-- APL&#45;&gt;BaseClass -->
<g id="edge4" class="edge"><title>APL&#45;&gt;BaseClass</title>
<path fill="none" stroke="red" stroke-dasharray="5,2" d="M1035.37,-110.277C1035.88,-132.549 1033.73,-171.552 1015.3,-198 998.269,-222.449 969.546,-239.573 944.823,-250.646"/>
<polygon fill="red" stroke="red" points="943.397,-247.45 935.576,-254.597 946.147,-253.887 943.397,-247.45"/>
</g>
<!-- DisplacedLocationType -->
<g id="node13" class="node"><title>DisplacedLocationType</title>
<a xlink:href="./#DisplacedLocationType" xlink:title="DisplacedLocationType">
<ellipse fill="none" stroke="black" cx="896.302" cy="-180" rx="110.48" ry="18"/>
<text text-anchor="middle" x="896.302" y="-176.3" font-family="Helvetica,sans-Serif" font-size="14.00">DisplacedLocationType</text>
</a>
</g>
<!-- APL&#45;&gt;DisplacedLocationType -->
<g id="edge32" class="edge"><title>APL&#45;&gt;DisplacedLocationType</title>
<a xlink:href="./#displacedLocationType" xlink:title="displacedLocationType">
<path fill="none" stroke="darkslategray" d="M1005.47,-94.8642C962.815,-98.2903 886.122,-107.237 869.302,-128 862.993,-135.787 865.737,-145.275 871.423,-153.946"/>
<polygon fill="darkslategray" stroke="darkslategray" points="868.698,-156.144 877.575,-161.927 874.242,-151.871 868.698,-156.144"/>
</a>
<a xlink:href="./#displacedLocationType" xlink:title="displacedLocationType">
<text text-anchor="middle" x="944.802" y="-132.3" font-family="Helvetica,sans-Serif" font-size="14.00">displacedLocationType</text>
</a>
</g>
<!-- http://www.w3.org/2000/01/rdf&#45;schema#Literal -->
<g id="node25" class="node"><title>http://www.w3.org/2000/01/rdf&#45;schema#Literal</title>
<a xlink:href="./#http://www.w3.org/2000/01/rdf-schema#Literal" xlink:title="http://www.w3.org/2000/01/rdf&#45;schema#Literal">
<ellipse fill="none" stroke="gray" cx="361.302" cy="-444" rx="200.365" ry="18"/>
<text text-anchor="middle" x="361.302" y="-440.3" font-family="Helvetica,sans-Serif" font-size="14.00" fill="gray">http://www.w3.org/2000/01/rdf&#45;schema#Literal</text>
</a>
</g>
<!-- http://www.opengis.net/geosparql#Feature&#45;&gt;http://www.w3.org/2000/01/rdf&#45;schema#Literal -->
<g id="edge34" class="edge"><title>http://www.opengis.net/geosparql#Feature&#45;&gt;http://www.w3.org/2000/01/rdf&#45;schema#Literal</title>
<a xlink:href="./#featureAltName" xlink:title="featureAltName">
<path fill="none" stroke="darkslategray" d="M420.179,-374.128C416.531,-384.562 410.92,-397.803 403.302,-408 400.401,-411.883 396.986,-415.609 393.378,-419.087"/>
<polygon fill="darkslategray" stroke="darkslategray" points="390.934,-416.577 385.803,-425.847 395.595,-421.8 390.934,-416.577"/>
</a>
<a xlink:href="./#featureAltName" xlink:title="featureAltName">
<text text-anchor="middle" x="464.302" y="-396.3" font-family="Helvetica,sans-Serif" font-size="14.00">featureAltName</text>
</a>
</g>
<!-- http://www.opengis.net/geosparql#Feature&#45;&gt;http://www.w3.org/2000/01/rdf&#45;schema#Literal -->
<g id="edge36" class="edge"><title>http://www.opengis.net/geosparql#Feature&#45;&gt;http://www.w3.org/2000/01/rdf&#45;schema#Literal</title>
<a xlink:href="./#featureName" xlink:title="featureName">
<path fill="none" stroke="darkslategray" d="M495.814,-372.749C517.085,-380.843 531.854,-392.363 519.302,-408 513.218,-415.579 498.881,-421.618 481.198,-426.396"/>
<polygon fill="darkslategray" stroke="darkslategray" points="479.917,-423.108 471.061,-428.922 481.61,-429.9 479.917,-423.108"/>
</a>
<a xlink:href="./#featureName" xlink:title="featureName">
<text text-anchor="middle" x="566.302" y="-396.3" font-family="Helvetica,sans-Serif" font-size="14.00">featureName</text>
</a>
</g>
<!-- http://www.opengis.net/geosparql#Feature&#45;&gt;http://www.w3.org/2000/01/rdf&#45;schema#Literal -->
<g id="edge38" class="edge"><title>http://www.opengis.net/geosparql#Feature&#45;&gt;http://www.w3.org/2000/01/rdf&#45;schema#Literal</title>
<a xlink:href="./#featureRefName" xlink:title="featureRefName">
<path fill="none" stroke="darkslategray" d="M292.113,-368.743C265.098,-373.908 242.2,-381.332 233.302,-392 220.84,-406.938 229.213,-417.533 246.441,-425.035"/>
<polygon fill="darkslategray" stroke="darkslategray" points="245.602,-428.458 256.194,-428.683 248.054,-421.901 245.602,-428.458"/>
</a>
<a xlink:href="./#featureRefName" xlink:title="featureRefName">
<text text-anchor="middle" x="286.302" y="-396.3" font-family="Helvetica,sans-Serif" font-size="14.00">featureRefName</text>
</a>
</g>
<!-- http://www.opengis.net/geosparql#Feature&#45;&gt;http://www.w3.org/2000/01/rdf&#45;schema#Literal -->
<g id="edge40" class="edge"><title>http://www.opengis.net/geosparql#Feature&#45;&gt;http://www.w3.org/2000/01/rdf&#45;schema#Literal</title>
<a xlink:href="./#pcode" xlink:title="pcode">
<path fill="none" stroke="darkslategray" d="M377.454,-373.555C369.821,-378.32 362.926,-384.368 358.302,-392 354.036,-399.041 353.258,-407.68 353.999,-415.833"/>
<polygon fill="darkslategray" stroke="darkslategray" points="350.55,-416.43 355.602,-425.743 357.46,-415.312 350.55,-416.43"/>
</a>
<a xlink:href="./#pcode" xlink:title="pcode">
<text text-anchor="middle" x="378.802" y="-396.3" font-family="Helvetica,sans-Serif" font-size="14.00">pcode</text>
</a>
</g>
<!-- BaseClass&#45;&gt;http://www.opengis.net/geosparql#Feature -->
<g id="edge30" class="edge"><title>BaseClass&#45;&gt;http://www.opengis.net/geosparql#Feature</title>
<a xlink:href="./#atLocation" xlink:title="atLocation">
<path fill="none" stroke="darkslategray" d="M857.518,-280.254C849.519,-282.295 841.17,-284.309 833.302,-286 732.841,-307.588 617.272,-326.593 534.84,-339.161"/>
<polygon fill="darkslategray" stroke="darkslategray" points="534.063,-335.739 524.702,-340.7 535.114,-342.66 534.063,-335.739"/>
</a>
<a xlink:href="./#atLocation" xlink:title="atLocation">
<text text-anchor="middle" x="766.802" y="-308.3" font-family="Helvetica,sans-Serif" font-size="14.00">atLocation</text>
</a>
</g>
<!-- AdminUnit -->
<g id="node6" class="node"><title>AdminUnit</title>
<a xlink:href="./#AdminUnit" xlink:title="AdminUnit">
<ellipse fill="none" stroke="black" cx="411.302" cy="-92" rx="54.6905" ry="18"/>
<text text-anchor="middle" x="411.302" y="-88.3" font-family="Helvetica,sans-Serif" font-size="14.00">AdminUnit</text>
</a>
</g>
<!-- AdminUnit&#45;&gt;http://www.opengis.net/geosparql#Feature -->
<g id="edge6" class="edge"><title>AdminUnit&#45;&gt;http://www.opengis.net/geosparql#Feature</title>
<path fill="none" stroke="red" stroke-dasharray="5,2" d="M356.729,-92.854C271.438,-95.8735 107.975,-115.363 27.3017,-216 -1.69437,-252.171 -12.0396,-285.841 19.3017,-320 34.7348,-336.821 137.806,-345.577 236.223,-350.125"/>
<polygon fill="red" stroke="red" points="236.196,-353.627 246.343,-350.579 236.51,-346.634 236.196,-353.627"/>
</g>
<!-- AdminUnit&#45;&gt;BaseClass -->
<g id="edge8" class="edge"><title>AdminUnit&#45;&gt;BaseClass</title>
<path fill="none" stroke="red" stroke-dasharray="5,2" d="M446.718,-105.654C533.479,-136.653 756.568,-216.36 852.895,-250.777"/>
<polygon fill="red" stroke="red" points="851.766,-254.09 862.36,-254.158 854.121,-247.498 851.766,-254.09"/>
</g>
<!-- AdminUnitLevel -->
<g id="node9" class="node"><title>AdminUnitLevel</title>
<a xlink:href="./#AdminUnitLevel" xlink:title="AdminUnitLevel">
<ellipse fill="none" stroke="black" cx="411.302" cy="-180" rx="77.9862" ry="18"/>
<text text-anchor="middle" x="411.302" y="-176.3" font-family="Helvetica,sans-Serif" font-size="14.00">AdminUnitLevel</text>
</a>
</g>
<!-- AdminUnit&#45;&gt;AdminUnitLevel -->
<g id="edge28" class="edge"><title>AdminUnit&#45;&gt;AdminUnitLevel</title>
<a xlink:href="./#atLevel" xlink:title="atLevel">
<path fill="none" stroke="darkslategray" d="M411.302,-110.403C411.302,-122.254 411.302,-138.183 411.302,-151.708"/>
<polygon fill="darkslategray" stroke="darkslategray" points="407.802,-151.916 411.302,-161.916 414.802,-151.916 407.802,-151.916"/>
</a>
<a xlink:href="./#atLevel" xlink:title="atLevel">
<text text-anchor="middle" x="435.802" y="-132.3" font-family="Helvetica,sans-Serif" font-size="14.00">atLevel</text>
</a>
</g>
<!-- AdminUnitLevel&#45;&gt;BaseClass -->
<g id="edge10" class="edge"><title>AdminUnitLevel&#45;&gt;BaseClass</title>
<path fill="none" stroke="red" stroke-dasharray="5,2" d="M486.2,-184.628C546.401,-188.795 632.753,-197.605 706.302,-216 725.278,-220.746 728.553,-226.422 747.302,-232 784.731,-243.136 795.289,-241.057 833.302,-250 837.886,-251.079 842.641,-252.24 847.399,-253.431"/>
<polygon fill="red" stroke="red" points="846.562,-256.829 857.116,-255.9 848.286,-250.045 846.562,-256.829"/>
</g>
<!-- http://www.w3.org/2001/XMLSchema#date -->
<g id="node21" class="node"><title>http://www.w3.org/2001/XMLSchema#date</title>
<a xlink:href="./#http://www.w3.org/2001/XMLSchema#date" xlink:title="http://www.w3.org/2001/XMLSchema#date">
<ellipse fill="none" stroke="gray" cx="257.302" cy="-268" rx="188.467" ry="18"/>
<text text-anchor="middle" x="257.302" y="-264.3" font-family="Helvetica,sans-Serif" font-size="14.00" fill="gray">http://www.w3.org/2001/XMLSchema#date</text>
</a>
</g>
<!-- AdminUnitLevel&#45;&gt;http://www.w3.org/2001/XMLSchema#date -->
<g id="edge22" class="edge"><title>AdminUnitLevel&#45;&gt;http://www.w3.org/2001/XMLSchema#date</title>
<a xlink:href="./#adminUnitLevelCountry" xlink:title="adminUnitLevelCountry">
<path fill="none" stroke="darkslategray" d="M383.056,-196.774C358.715,-210.366 323.333,-230.125 296.296,-245.224"/>
<polygon fill="darkslategray" stroke="darkslategray" points="294.499,-242.219 287.475,-250.15 297.912,-248.33 294.499,-242.219"/>
</a>
<a xlink:href="./#adminUnitLevelCountry" xlink:title="adminUnitLevelCountry">
<text text-anchor="middle" x="424.302" y="-220.3" font-family="Helvetica,sans-Serif" font-size="14.00">adminUnitLevelCountry</text>
</a>
</g>
<!-- http://www.w3.org/2001/XMLSchema#int -->
<g id="node23" class="node"><title>http://www.w3.org/2001/XMLSchema#int</title>
<a xlink:href="./#http://www.w3.org/2001/XMLSchema#int" xlink:title="http://www.w3.org/2001/XMLSchema#int">
<ellipse fill="none" stroke="gray" cx="644.302" cy="-268" rx="180.068" ry="18"/>
<text text-anchor="middle" x="644.302" y="-264.3" font-family="Helvetica,sans-Serif" font-size="14.00" fill="gray">http://www.w3.org/2001/XMLSchema#int</text>
</a>
</g>
<!-- AdminUnitLevel&#45;&gt;http://www.w3.org/2001/XMLSchema#int -->
<g id="edge24" class="edge"><title>AdminUnitLevel&#45;&gt;http://www.w3.org/2001/XMLSchema#int</title>
<a xlink:href="./#adminUnitLevelNumber" xlink:title="adminUnitLevelNumber">
<path fill="none" stroke="darkslategray" d="M450.827,-195.589C489.091,-209.712 547.408,-231.237 590.014,-246.963"/>
<polygon fill="darkslategray" stroke="darkslategray" points="588.803,-250.246 599.396,-250.425 591.227,-243.679 588.803,-250.246"/>
</a>
<a xlink:href="./#adminUnitLevelNumber" xlink:title="adminUnitLevelNumber">
<text text-anchor="middle" x="625.802" y="-220.3" font-family="Helvetica,sans-Serif" font-size="14.00">adminUnitLevelNumber</text>
</a>
</g>
<!-- AdminUnitLevel&#45;&gt;http://www.w3.org/2000/01/rdf&#45;schema#Literal -->
<g id="edge26" class="edge"><title>AdminUnitLevel&#45;&gt;http://www.w3.org/2000/01/rdf&#45;schema#Literal</title>
<a xlink:href="./#adminUnitLevelTitle" xlink:title="adminUnitLevelTitle">
<path fill="none" stroke="darkslategray" d="M336.5,-184.887C244.013,-191.441 94.5757,-208.332 60.3017,-250 -10.5153,-336.094 166.138,-396.372 277.916,-424.688"/>
<polygon fill="darkslategray" stroke="darkslategray" points="277.301,-428.142 287.851,-427.165 278.994,-421.35 277.301,-428.142"/>
</a>
<a xlink:href="./#adminUnitLevelTitle" xlink:title="adminUnitLevelTitle">
<text text-anchor="middle" x="120.302" y="-308.3" font-family="Helvetica,sans-Serif" font-size="14.00">adminUnitLevelTitle</text>
</a>
</g>
<!-- Country -->
<g id="node11" class="node"><title>Country</title>
<a xlink:href="./#Country" xlink:title="Country">
<ellipse fill="none" stroke="black" cx="342.302" cy="-18" rx="44.393" ry="18"/>
<text text-anchor="middle" x="342.302" y="-14.3" font-family="Helvetica,sans-Serif" font-size="14.00">Country</text>
</a>
</g>
<!-- Country&#45;&gt;AdminUnit -->
<g id="edge12" class="edge"><title>Country&#45;&gt;AdminUnit</title>
<path fill="none" stroke="red" stroke-dasharray="5,2" d="M357.615,-34.9791C366.688,-44.447 378.358,-56.6239 388.498,-67.2051"/>
<polygon fill="red" stroke="red" points="386.107,-69.7681 395.553,-74.5664 391.161,-64.9248 386.107,-69.7681"/>
</g>
<!-- DisplacedLocationType&#45;&gt;BaseClass -->
<g id="edge14" class="edge"><title>DisplacedLocationType&#45;&gt;BaseClass</title>
<path fill="none" stroke="red" stroke-dasharray="5,2" d="M896.706,-198.403C896.982,-210.254 897.352,-226.183 897.667,-239.708"/>
<polygon fill="red" stroke="red" points="894.173,-240 897.904,-249.916 901.171,-239.837 894.173,-240"/>
</g>
<!-- DisplacedLocationTypeSet -->
<g id="node15" class="node"><title>DisplacedLocationTypeSet</title>
<a xlink:href="./#DisplacedLocationTypeSet" xlink:title="DisplacedLocationTypeSet">
<ellipse fill="none" stroke="black" cx="1187.3" cy="-180" rx="124.578" ry="18"/>
<text text-anchor="middle" x="1187.3" y="-176.3" font-family="Helvetica,sans-Serif" font-size="14.00">DisplacedLocationTypeSet</text>
</a>
</g>
<!-- DisplacedLocationTypeSet&#45;&gt;BaseClass -->
<g id="edge16" class="edge"><title>DisplacedLocationTypeSet&#45;&gt;BaseClass</title>
<path fill="none" stroke="red" stroke-dasharray="5,2" d="M1147.96,-197.148C1120.39,-208.036 1082.51,-222.156 1048.3,-232 1011.19,-242.678 1000.88,-241.112 963.302,-250 958.719,-251.084 953.964,-252.249 949.207,-253.442"/>
<polygon fill="red" stroke="red" points="948.319,-250.057 939.491,-255.915 950.046,-256.84 948.319,-250.057"/>
</g>
<!-- http://www.w3.org/1999/02/22&#45;rdf&#45;syntax&#45;ns#Bag -->
<g id="node17" class="node"><title>http://www.w3.org/1999/02/22&#45;rdf&#45;syntax&#45;ns#Bag</title>
<a xlink:href="./#DisplacedLocationTypeSet" xlink:title="http://www.w3.org/1999/02/22&#45;rdf&#45;syntax&#45;ns#Bag">
<ellipse fill="none" stroke="gray" cx="1186.3" cy="-268" rx="213.662" ry="18"/>
<text text-anchor="middle" x="1186.3" y="-264.3" font-family="Helvetica,sans-Serif" font-size="14.00" fill="gray">http://www.w3.org/1999/02/22&#45;rdf&#45;syntax&#45;ns#Bag</text>
</a>
</g>
<!-- DisplacedLocationTypeSet&#45;&gt;http://www.w3.org/1999/02/22&#45;rdf&#45;syntax&#45;ns#Bag -->
<g id="edge18" class="edge"><title>DisplacedLocationTypeSet&#45;&gt;http://www.w3.org/1999/02/22&#45;rdf&#45;syntax&#45;ns#Bag</title>
<path fill="none" stroke="red" stroke-dasharray="5,2" d="M1187.1,-198.403C1186.96,-210.254 1186.78,-226.183 1186.62,-239.708"/>
<polygon fill="red" stroke="red" points="1183.12,-239.876 1186.5,-249.916 1190.12,-239.957 1183.12,-239.876"/>
</g>
<!-- PopulatedPlace -->
<g id="node19" class="node"><title>PopulatedPlace</title>
<a xlink:href="./#PopulatedPlace" xlink:title="PopulatedPlace">
<ellipse fill="none" stroke="black" cx="481.302" cy="-18" rx="76.8869" ry="18"/>
<text text-anchor="middle" x="481.302" y="-14.3" font-family="Helvetica,sans-Serif" font-size="14.00">PopulatedPlace</text>
</a>
</g>
<!-- PopulatedPlace&#45;&gt;AdminUnit -->
<g id="edge20" class="edge"><title>PopulatedPlace&#45;&gt;AdminUnit</title>
<path fill="none" stroke="red" stroke-dasharray="5,2" d="M465.066,-35.6992C455.966,-45.0592 444.464,-56.8905 434.435,-67.2055"/>
<polygon fill="red" stroke="red" points="431.91,-64.7816 427.449,-74.3913 436.929,-69.6611 431.91,-64.7816"/>
</g>
</g>
</svg>
