<?xml version="1.0" encoding="UTF-8" standalone="no"?>
<!DOCTYPE svg PUBLIC "-//W3C//DTD SVG 1.1//EN"
 "http://www.w3.org/Graphics/SVG/1.1/DTD/svg11.dtd">
<!-- Generated by graphviz version 2.28.0 (20121022.1408)
 -->
<!-- Title: _anonymous_0 Pages: 1 -->
<svg width="1604pt" height="646pt"
 viewBox="0.00 0.00 1604.17 646.00" xmlns="http://www.w3.org/2000/svg" xmlns:xlink="http://www.w3.org/1999/xlink">
<g id="graph1" class="graph" transform="scale(1 1) rotate(0) translate(4 642)">
<title>_anonymous_0</title>
<polygon fill="white" stroke="white" points="-4,5 -4,-642 1601.17,-642 1601.17,5 -4,5"/>
<!-- APL -->
<g id="node1" class="node"><title>APL</title>
<a xlink:href="./#APL" xlink:title="APL">
<ellipse fill="none" stroke="black" cx="452.167" cy="-268" rx="29.4969" ry="18"/>
<text text-anchor="middle" x="452.167" y="-264.3" font-family="Helvetica,sans-Serif" font-size="14.00">APL</text>
</a>
</g>
<!-- http://www.opengis.net/ont/geosparql#Feature -->
<g id="node2" class="node"><title>http://www.opengis.net/ont/geosparql#Feature</title>
<a xlink:href="./#http://www.opengis.net/ont/geosparql#Feature" xlink:title="http://www.opengis.net/ont/geosparql#Feature">
<ellipse fill="none" stroke="gray" cx="622.167" cy="-532" rx="203.364" ry="18"/>
<text text-anchor="middle" x="622.167" y="-528.3" font-family="Helvetica,sans-Serif" font-size="14.00" fill="gray">http://www.opengis.net/ont/geosparql#Feature</text>
</a>
</g>
<!-- APL&#45;&gt;http://www.opengis.net/ont/geosparql#Feature -->
<g id="edge2" class="edge"><title>APL&#45;&gt;http://www.opengis.net/ont/geosparql#Feature</title>
<path fill="none" stroke="red" stroke-dasharray="5,2" d="M423.059,-269.069C335.67,-269.953 78.4495,-277.72 27.1671,-338 -8.54352,-379.976 -9.48911,-420.847 27.1671,-462 54.4786,-492.662 274.574,-511.754 439.175,-521.881"/>
<polygon fill="red" stroke="red" points="439.245,-525.391 449.439,-522.505 439.67,-518.404 439.245,-525.391"/>
</g>
<!-- LocatedBaseClass -->
<g id="node4" class="node"><title>LocatedBaseClass</title>
<a xlink:href="./#AdminUnit" xlink:title="LocatedBaseClass">
<ellipse fill="none" stroke="gray" cx="671.167" cy="-356" rx="90.1842" ry="18"/>
<text text-anchor="middle" x="671.167" y="-352.3" font-family="Helvetica,sans-Serif" font-size="14.00" fill="gray">LocatedBaseClass</text>
</a>
</g>
<!-- APL&#45;&gt;LocatedBaseClass -->
<g id="edge4" class="edge"><title>APL&#45;&gt;LocatedBaseClass</title>
<path fill="none" stroke="red" stroke-dasharray="5,2" d="M480.861,-271.589C512.965,-275.352 565.881,-284.186 607.167,-304 621.494,-310.876 635.519,-321.479 646.771,-331.24"/>
<polygon fill="red" stroke="red" points="644.662,-334.051 654.439,-338.133 649.342,-328.845 644.662,-334.051"/>
</g>
<!-- DisplacedLocationType -->
<g id="node14" class="node"><title>DisplacedLocationType</title>
<a xlink:href="./#DisplacedLocationType" xlink:title="DisplacedLocationType">
<ellipse fill="none" stroke="black" cx="452.167" cy="-356" rx="110.48" ry="18"/>
<text text-anchor="middle" x="452.167" y="-352.3" font-family="Helvetica,sans-Serif" font-size="14.00">DisplacedLocationType</text>
</a>
</g>
<!-- APL&#45;&gt;DisplacedLocationType -->
<g id="edge34" class="edge"><title>APL&#45;&gt;DisplacedLocationType</title>
<a xlink:href="./#displacedLocationType" xlink:title="displacedLocationType">
<path fill="none" stroke="darkslategray" d="M452.167,-286.403C452.167,-298.254 452.167,-314.183 452.167,-327.708"/>
<polygon fill="darkslategray" stroke="darkslategray" points="448.667,-327.916 452.167,-337.916 455.667,-327.916 448.667,-327.916"/>
</a>
<a xlink:href="./#displacedLocationType" xlink:title="displacedLocationType">
<text text-anchor="middle" x="527.667" y="-308.3" font-family="Helvetica,sans-Serif" font-size="14.00">displacedLocationType</text>
</a>
</g>
<!-- http://www.w3.org/2000/01/rdf&#45;schema#Literal -->
<g id="node28" class="node"><title>http://www.w3.org/2000/01/rdf&#45;schema#Literal</title>
<a xlink:href="./#http://www.w3.org/2000/01/rdf-schema#Literal" xlink:title="http://www.w3.org/2000/01/rdf&#45;schema#Literal">
<ellipse fill="none" stroke="gray" cx="813.167" cy="-620" rx="200.365" ry="18"/>
<text text-anchor="middle" x="813.167" y="-616.3" font-family="Helvetica,sans-Serif" font-size="14.00" fill="gray">http://www.w3.org/2000/01/rdf&#45;schema#Literal</text>
</a>
</g>
<!-- http://www.opengis.net/ont/geosparql#Feature&#45;&gt;http://www.w3.org/2000/01/rdf&#45;schema#Literal -->
<g id="edge36" class="edge"><title>http://www.opengis.net/ont/geosparql#Feature&#45;&gt;http://www.w3.org/2000/01/rdf&#45;schema#Literal</title>
<a xlink:href="./#featureAltName" xlink:title="featureAltName">
<path fill="none" stroke="darkslategray" d="M682.263,-549.258C697.898,-554.399 714.47,-560.682 729.167,-568 740.314,-573.55 741.646,-577.34 752.167,-584 758.986,-588.316 766.349,-592.737 773.522,-596.92"/>
<polygon fill="darkslategray" stroke="darkslategray" points="772.039,-600.105 782.451,-602.066 775.535,-594.04 772.039,-600.105"/>
</a>
<a xlink:href="./#featureAltName" xlink:title="featureAltName">
<text text-anchor="middle" x="803.167" y="-572.3" font-family="Helvetica,sans-Serif" font-size="14.00">featureAltName</text>
</a>
</g>
<!-- http://www.opengis.net/ont/geosparql#Feature&#45;&gt;http://www.w3.org/2000/01/rdf&#45;schema#Literal -->
<g id="edge38" class="edge"><title>http://www.opengis.net/ont/geosparql#Feature&#45;&gt;http://www.w3.org/2000/01/rdf&#45;schema#Literal</title>
<a xlink:href="./#featureName" xlink:title="featureName">
<path fill="none" stroke="darkslategray" d="M786.768,-542.617C817.727,-547.852 843.706,-555.842 854.167,-568 861.71,-576.766 856.772,-586.623 848.087,-595.319"/>
<polygon fill="darkslategray" stroke="darkslategray" points="845.685,-592.77 840.484,-602.001 850.306,-598.028 845.685,-592.77"/>
</a>
<a xlink:href="./#featureName" xlink:title="featureName">
<text text-anchor="middle" x="900.167" y="-572.3" font-family="Helvetica,sans-Serif" font-size="14.00">featureName</text>
</a>
</g>
<!-- http://www.opengis.net/ont/geosparql#Feature&#45;&gt;http://www.w3.org/2000/01/rdf&#45;schema#Literal -->
<g id="edge40" class="edge"><title>http://www.opengis.net/ont/geosparql#Feature&#45;&gt;http://www.w3.org/2000/01/rdf&#45;schema#Literal</title>
<a xlink:href="./#featureRefName" xlink:title="featureRefName">
<path fill="none" stroke="darkslategray" d="M579.182,-549.654C561.666,-558.869 547.886,-571.058 559.167,-584 569.922,-596.339 595.459,-604.477 626.397,-609.809"/>
<polygon fill="darkslategray" stroke="darkslategray" points="626.193,-613.321 636.62,-611.444 627.298,-606.409 626.193,-613.321"/>
</a>
<a xlink:href="./#featureRefName" xlink:title="featureRefName">
<text text-anchor="middle" x="612.167" y="-572.3" font-family="Helvetica,sans-Serif" font-size="14.00">featureRefName</text>
</a>
</g>
<!-- http://www.opengis.net/ont/geosparql#Feature&#45;&gt;http://www.w3.org/2000/01/rdf&#45;schema#Literal -->
<g id="edge44" class="edge"><title>http://www.opengis.net/ont/geosparql#Feature&#45;&gt;http://www.w3.org/2000/01/rdf&#45;schema#Literal</title>
<a xlink:href="./#pcode" xlink:title="pcode">
<path fill="none" stroke="darkslategray" d="M643.221,-550.02C650.223,-555.712 658.049,-562.107 665.167,-568 673.671,-575.04 674.387,-578.878 684.167,-584 696.694,-590.56 710.567,-595.98 724.435,-600.432"/>
<polygon fill="darkslategray" stroke="darkslategray" points="723.432,-603.785 734.018,-603.361 725.478,-597.091 723.432,-603.785"/>
</a>
<a xlink:href="./#pcode" xlink:title="pcode">
<text text-anchor="middle" x="704.667" y="-572.3" font-family="Helvetica,sans-Serif" font-size="14.00">pcode</text>
</a>
</g>
<!-- AdminUnit -->
<g id="node6" class="node"><title>AdminUnit</title>
<a xlink:href="./#AdminUnit" xlink:title="AdminUnit">
<ellipse fill="none" stroke="black" cx="753.167" cy="-268" rx="54.6905" ry="18"/>
<text text-anchor="middle" x="753.167" y="-264.3" font-family="Helvetica,sans-Serif" font-size="14.00">AdminUnit</text>
</a>
</g>
<!-- AdminUnit&#45;&gt;http://www.opengis.net/ont/geosparql#Feature -->
<g id="edge6" class="edge"><title>AdminUnit&#45;&gt;http://www.opengis.net/ont/geosparql#Feature</title>
<path fill="none" stroke="red" stroke-dasharray="5,2" d="M762.627,-285.839C773.665,-307.984 788.249,-347.216 770.167,-374 735.58,-425.234 680.196,-378.063 641.167,-426 623.497,-447.703 620.066,-480.358 620.221,-503.48"/>
<polygon fill="red" stroke="red" points="616.728,-503.775 620.522,-513.667 623.725,-503.568 616.728,-503.775"/>
</g>
<!-- AdminUnit&#45;&gt;LocatedBaseClass -->
<g id="edge8" class="edge"><title>AdminUnit&#45;&gt;LocatedBaseClass</title>
<path fill="none" stroke="red" stroke-dasharray="5,2" d="M737.357,-285.582C725.184,-298.348 708.174,-316.188 694.446,-330.585"/>
<polygon fill="red" stroke="red" points="691.577,-328.523 687.209,-338.176 696.643,-333.354 691.577,-328.523"/>
</g>
<!-- AdminUnitLevel -->
<g id="node9" class="node"><title>AdminUnitLevel</title>
<a xlink:href="./#AdminUnitLevel" xlink:title="AdminUnitLevel">
<ellipse fill="none" stroke="black" cx="895.167" cy="-356" rx="77.9862" ry="18"/>
<text text-anchor="middle" x="895.167" y="-352.3" font-family="Helvetica,sans-Serif" font-size="14.00">AdminUnitLevel</text>
</a>
</g>
<!-- AdminUnit&#45;&gt;AdminUnitLevel -->
<g id="edge30" class="edge"><title>AdminUnit&#45;&gt;AdminUnitLevel</title>
<a xlink:href="./#atLevel" xlink:title="atLevel">
<path fill="none" stroke="darkslategray" d="M778.227,-284.177C800.876,-297.894 834.455,-318.23 859.827,-333.597"/>
<polygon fill="darkslategray" stroke="darkslategray" points="858.061,-336.619 868.428,-338.806 861.688,-330.632 858.061,-336.619"/>
</a>
<a xlink:href="./#atLevel" xlink:title="atLevel">
<text text-anchor="middle" x="861.667" y="-308.3" font-family="Helvetica,sans-Serif" font-size="14.00">atLevel</text>
</a>
</g>
<!-- BaseClass -->
<g id="node10" class="node"><title>BaseClass</title>
<a xlink:href="./#BaseClass" xlink:title="BaseClass">
<ellipse fill="none" stroke="gray" cx="538.167" cy="-444" rx="55.7903" ry="18"/>
<text text-anchor="middle" x="538.167" y="-440.3" font-family="Helvetica,sans-Serif" font-size="14.00" fill="gray">BaseClass</text>
</a>
</g>
<!-- AdminUnitLevel&#45;&gt;BaseClass -->
<g id="edge10" class="edge"><title>AdminUnitLevel&#45;&gt;BaseClass</title>
<path fill="none" stroke="red" stroke-dasharray="5,2" d="M843.256,-369.505C775.933,-385.723 659.113,-413.864 591.231,-430.217"/>
<polygon fill="red" stroke="red" points="590.079,-426.894 581.177,-432.639 591.719,-433.7 590.079,-426.894"/>
</g>
<!-- http://www.w3.org/2001/XMLSchema#date -->
<g id="node24" class="node"><title>http://www.w3.org/2001/XMLSchema#date</title>
<a xlink:href="./#http://www.w3.org/2001/XMLSchema#date" xlink:title="http://www.w3.org/2001/XMLSchema#date">
<ellipse fill="none" stroke="gray" cx="838.167" cy="-444" rx="188.467" ry="18"/>
<text text-anchor="middle" x="838.167" y="-440.3" font-family="Helvetica,sans-Serif" font-size="14.00" fill="gray">http://www.w3.org/2001/XMLSchema#date</text>
</a>
</g>
<!-- AdminUnitLevel&#45;&gt;http://www.w3.org/2001/XMLSchema#date -->
<g id="edge24" class="edge"><title>AdminUnitLevel&#45;&gt;http://www.w3.org/2001/XMLSchema#date</title>
<a xlink:href="./#adminUnitLevelCountry" xlink:title="adminUnitLevelCountry">
<path fill="none" stroke="darkslategray" d="M883.906,-373.991C875.762,-386.278 864.609,-403.105 855.356,-417.066"/>
<polygon fill="darkslategray" stroke="darkslategray" points="852.207,-415.481 849.6,-425.75 858.042,-419.348 852.207,-415.481"/>
</a>
<a xlink:href="./#adminUnitLevelCountry" xlink:title="adminUnitLevelCountry">
<text text-anchor="middle" x="948.167" y="-396.3" font-family="Helvetica,sans-Serif" font-size="14.00">adminUnitLevelCountry</text>
</a>
</g>
<!-- http://www.w3.org/2001/XMLSchema#int -->
<g id="node26" class="node"><title>http://www.w3.org/2001/XMLSchema#int</title>
<a xlink:href="./#http://www.w3.org/2001/XMLSchema#int" xlink:title="http://www.w3.org/2001/XMLSchema#int">
<ellipse fill="none" stroke="gray" cx="1262.17" cy="-444" rx="180.068" ry="18"/>
<text text-anchor="middle" x="1262.17" y="-440.3" font-family="Helvetica,sans-Serif" font-size="14.00" fill="gray">http://www.w3.org/2001/XMLSchema#int</text>
</a>
</g>
<!-- AdminUnitLevel&#45;&gt;http://www.w3.org/2001/XMLSchema#int -->
<g id="edge26" class="edge"><title>AdminUnitLevel&#45;&gt;http://www.w3.org/2001/XMLSchema#int</title>
<a xlink:href="./#adminUnitLevelNumber" xlink:title="adminUnitLevelNumber">
<path fill="none" stroke="darkslategray" d="M962.978,-364.79C995.607,-370.014 1034.79,-378.496 1068.17,-392 1080.4,-396.948 1080.95,-403.024 1093.17,-408 1112.13,-415.721 1133,-421.814 1153.42,-426.598"/>
<polygon fill="darkslategray" stroke="darkslategray" points="1152.87,-430.062 1163.4,-428.843 1154.41,-423.233 1152.87,-430.062"/>
</a>
<a xlink:href="./#adminUnitLevelNumber" xlink:title="adminUnitLevelNumber">
<text text-anchor="middle" x="1169.67" y="-396.3" font-family="Helvetica,sans-Serif" font-size="14.00">adminUnitLevelNumber</text>
</a>
</g>
<!-- AdminUnitLevel&#45;&gt;http://www.w3.org/2000/01/rdf&#45;schema#Literal -->
<g id="edge28" class="edge"><title>AdminUnitLevel&#45;&gt;http://www.w3.org/2000/01/rdf&#45;schema#Literal</title>
<a xlink:href="./#adminUnitLevelTitle" xlink:title="adminUnitLevelTitle">
<path fill="none" stroke="darkslategray" d="M968.999,-361.733C990.702,-366.658 1012.73,-375.705 1028.17,-392 1049.67,-414.7 1044.86,-432.273 1035.17,-462 1014.36,-525.812 1001.6,-546.162 946.167,-584 936.384,-590.678 925.398,-596.082 914.043,-600.455"/>
<polygon fill="darkslategray" stroke="darkslategray" points="912.672,-597.228 904.435,-603.891 915.03,-603.819 912.672,-597.228"/>
</a>
<a xlink:href="./#adminUnitLevelTitle" xlink:title="adminUnitLevelTitle">
<text text-anchor="middle" x="1094.17" y="-484.3" font-family="Helvetica,sans-Serif" font-size="14.00">adminUnitLevelTitle</text>
</a>
</g>
<!-- BaseClass&#45;&gt;http://www.opengis.net/ont/geosparql#Feature -->
<g id="edge32" class="edge"><title>BaseClass&#45;&gt;http://www.opengis.net/ont/geosparql#Feature</title>
<a xlink:href="./#atLocation" xlink:title="atLocation">
<path fill="none" stroke="darkslategray" d="M534.917,-462.075C533.848,-472.747 534.35,-486.264 541.167,-496 544.657,-500.984 549.014,-505.264 553.884,-508.939"/>
<polygon fill="darkslategray" stroke="darkslategray" points="552.218,-512.031 562.504,-514.569 556.046,-506.17 552.218,-512.031"/>
</a>
<a xlink:href="./#atLocation" xlink:title="atLocation">
<text text-anchor="middle" x="574.667" y="-484.3" font-family="Helvetica,sans-Serif" font-size="14.00">atLocation</text>
</a>
</g>
<!-- Country -->
<g id="node12" class="node"><title>Country</title>
<a xlink:href="./#Country" xlink:title="Country">
<ellipse fill="none" stroke="black" cx="753.167" cy="-194" rx="44.393" ry="18"/>
<text text-anchor="middle" x="753.167" y="-190.3" font-family="Helvetica,sans-Serif" font-size="14.00">Country</text>
</a>
</g>
<!-- Country&#45;&gt;AdminUnit -->
<g id="edge12" class="edge"><title>Country&#45;&gt;AdminUnit</title>
<path fill="none" stroke="red" stroke-dasharray="5,2" d="M753.167,-212.063C753.167,-220.193 753.167,-230.124 753.167,-239.295"/>
<polygon fill="red" stroke="red" points="749.667,-239.559 753.167,-249.559 756.667,-239.559 749.667,-239.559"/>
</g>
<!-- DisplacedLocationType&#45;&gt;BaseClass -->
<g id="edge14" class="edge"><title>DisplacedLocationType&#45;&gt;BaseClass</title>
<path fill="none" stroke="red" stroke-dasharray="5,2" d="M469.158,-373.991C482.164,-386.997 500.254,-405.087 514.65,-419.483"/>
<polygon fill="red" stroke="red" points="512.249,-422.032 521.795,-426.628 517.199,-417.082 512.249,-422.032"/>
</g>
<!-- DisplacedLocationTypeSet -->
<g id="node16" class="node"><title>DisplacedLocationTypeSet</title>
<a xlink:href="./#DisplacedLocationTypeSet" xlink:title="DisplacedLocationTypeSet">
<ellipse fill="none" stroke="black" cx="161.167" cy="-356" rx="124.578" ry="18"/>
<text text-anchor="middle" x="161.167" y="-352.3" font-family="Helvetica,sans-Serif" font-size="14.00">DisplacedLocationTypeSet</text>
</a>
</g>
<!-- DisplacedLocationTypeSet&#45;&gt;BaseClass -->
<g id="edge16" class="edge"><title>DisplacedLocationTypeSet&#45;&gt;BaseClass</title>
<path fill="none" stroke="red" stroke-dasharray="5,2" d="M197.866,-373.304C225.458,-384.857 264.485,-399.722 300.167,-408 375.041,-425.37 396.522,-412.377 472.167,-426 477.276,-426.92 482.573,-428.024 487.843,-429.222"/>
<polygon fill="red" stroke="red" points="487.348,-432.702 497.887,-431.618 488.972,-425.893 487.348,-432.702"/>
</g>
<!-- http://www.w3.org/1999/02/22&#45;rdf&#45;syntax&#45;ns#Bag -->
<g id="node18" class="node"><title>http://www.w3.org/1999/02/22&#45;rdf&#45;syntax&#45;ns#Bag</title>
<a xlink:href="./#DisplacedLocationTypeSet" xlink:title="http://www.w3.org/1999/02/22&#45;rdf&#45;syntax&#45;ns#Bag">
<ellipse fill="none" stroke="gray" cx="250.167" cy="-444" rx="213.662" ry="18"/>
<text text-anchor="middle" x="250.167" y="-440.3" font-family="Helvetica,sans-Serif" font-size="14.00" fill="gray">http://www.w3.org/1999/02/22&#45;rdf&#45;syntax&#45;ns#Bag</text>
</a>
</g>
<!-- DisplacedLocationTypeSet&#45;&gt;http://www.w3.org/1999/02/22&#45;rdf&#45;syntax&#45;ns#Bag -->
<g id="edge18" class="edge"><title>DisplacedLocationTypeSet&#45;&gt;http://www.w3.org/1999/02/22&#45;rdf&#45;syntax&#45;ns#Bag</title>
<path fill="none" stroke="red" stroke-dasharray="5,2" d="M178.751,-373.991C192.038,-386.83 210.453,-404.624 225.255,-418.928"/>
<polygon fill="red" stroke="red" points="222.997,-421.613 232.62,-426.044 227.861,-416.579 222.997,-421.613"/>
</g>
<!-- PopPlaceClass -->
<g id="node20" class="node"><title>PopPlaceClass</title>
<a xlink:href="./#PopPlaceClass" xlink:title="PopPlaceClass">
<ellipse fill="none" stroke="black" cx="753.167" cy="-106" rx="74.9875" ry="18"/>
<text text-anchor="middle" x="753.167" y="-102.3" font-family="Helvetica,sans-Serif" font-size="14.00">PopPlaceClass</text>
</a>
</g>
<!-- PopPlaceClass&#45;&gt;BaseClass -->
<g id="edge20" class="edge"><title>PopPlaceClass&#45;&gt;BaseClass</title>
<path fill="none" stroke="red" stroke-dasharray="5,2" d="M678.697,-106.507C553.448,-107.709 314.167,-119.608 314.167,-193 314.167,-193 314.167,-193 314.167,-357 314.167,-368.331 323.375,-368.298 333.167,-374 359.767,-389.488 436.364,-413.435 488.018,-428.656"/>
<polygon fill="red" stroke="red" points="487.093,-432.032 497.674,-431.486 489.061,-425.315 487.093,-432.032"/>
</g>
<!-- PopPlaceClass&#45;&gt;Country -->
<g id="edge46" class="edge"><title>PopPlaceClass&#45;&gt;Country</title>
<a xlink:href="./#popPlaceClassCountry" xlink:title="popPlaceClassCountry">
<path fill="none" stroke="darkslategray" d="M753.167,-124.403C753.167,-136.254 753.167,-152.183 753.167,-165.708"/>
<polygon fill="darkslategray" stroke="darkslategray" points="749.667,-165.916 753.167,-175.916 756.667,-165.916 749.667,-165.916"/>
</a>
<a xlink:href="./#popPlaceClassCountry" xlink:title="popPlaceClassCountry">
<text text-anchor="middle" x="827.167" y="-146.3" font-family="Helvetica,sans-Serif" font-size="14.00">popPlaceClassCountry</text>
</a>
</g>
<!-- PopPlaceClass&#45;&gt;http://www.w3.org/2001/XMLSchema#int -->
<g id="edge48" class="edge"><title>PopPlaceClass&#45;&gt;http://www.w3.org/2001/XMLSchema#int</title>
<a xlink:href="./#popPlaceClassNumber" xlink:title="popPlaceClassNumber">
<path fill="none" stroke="darkslategray" d="M823.663,-111.749C962.973,-122.082 1260.17,-149.254 1260.17,-193 1260.17,-193 1260.17,-193 1260.17,-357 1260.17,-376.602 1260.69,-398.71 1261.21,-415.602"/>
<polygon fill="darkslategray" stroke="darkslategray" points="1257.72,-415.987 1261.53,-425.87 1264.71,-415.763 1257.72,-415.987"/>
</a>
<a xlink:href="./#popPlaceClassNumber" xlink:title="popPlaceClassNumber">
<text text-anchor="middle" x="1334.67" y="-264.3" font-family="Helvetica,sans-Serif" font-size="14.00">popPlaceClassNumber</text>
</a>
</g>
<!-- PopPlaceClass&#45;&gt;http://www.w3.org/2000/01/rdf&#45;schema#Literal -->
<g id="edge50" class="edge"><title>PopPlaceClass&#45;&gt;http://www.w3.org/2000/01/rdf&#45;schema#Literal</title>
<a xlink:href="./#popPlaceClassTitle" xlink:title="popPlaceClassTitle">
<path fill="none" stroke="darkslategray" d="M827.198,-108.229C1010.39,-112.252 1470.17,-128.747 1470.17,-193 1470.17,-193 1470.17,-193 1470.17,-533 1470.17,-580.277 1199.24,-602.299 1005.35,-612.006"/>
<polygon fill="darkslategray" stroke="darkslategray" points="1005.12,-608.513 995.306,-612.501 1005.47,-615.504 1005.12,-608.513"/>
</a>
<a xlink:href="./#popPlaceClassTitle" xlink:title="popPlaceClassTitle">
<text text-anchor="middle" x="1533.17" y="-352.3" font-family="Helvetica,sans-Serif" font-size="14.00">popPlaceClassTitle</text>
</a>
</g>
<!-- PopulatedPlace -->
<g id="node22" class="node"><title>PopulatedPlace</title>
<a xlink:href="./#PopulatedPlace" xlink:title="PopulatedPlace">
<ellipse fill="none" stroke="black" cx="403.167" cy="-18" rx="76.8869" ry="18"/>
<text text-anchor="middle" x="403.167" y="-14.3" font-family="Helvetica,sans-Serif" font-size="14.00">PopulatedPlace</text>
</a>
</g>
<!-- PopulatedPlace&#45;&gt;AdminUnit -->
<g id="edge22" class="edge"><title>PopulatedPlace&#45;&gt;AdminUnit</title>
<path fill="none" stroke="red" stroke-dasharray="5,2" d="M376.19,-34.8621C335.256,-60.913 265.685,-114.237 300.167,-158 348.168,-218.921 578.441,-249.734 690.981,-261.363"/>
<polygon fill="red" stroke="red" points="690.866,-264.869 701.168,-262.396 691.572,-257.904 690.866,-264.869"/>
</g>
<!-- PopulatedPlace&#45;&gt;PopPlaceClass -->
<g id="edge42" class="edge"><title>PopulatedPlace&#45;&gt;PopPlaceClass</title>
<a xlink:href="./#inClass" xlink:title="inClass">
<path fill="none" stroke="darkslategray" d="M454.06,-31.5051C517.448,-47.0805 625.594,-73.6534 693.014,-90.2195"/>
<polygon fill="darkslategray" stroke="darkslategray" points="692.517,-93.7015 703.064,-92.6888 694.188,-86.9037 692.517,-93.7015"/>
</a>
<a xlink:href="./#inClass" xlink:title="inClass">
<text text-anchor="middle" x="633.667" y="-58.3" font-family="Helvetica,sans-Serif" font-size="14.00">inClass</text>
</a>
</g>
</g>
</svg>
