<?xml version="1.0" encoding="UTF-8" standalone="no"?>
<!DOCTYPE svg PUBLIC "-//W3C//DTD SVG 1.1//EN"
 "http://www.w3.org/Graphics/SVG/1.1/DTD/svg11.dtd">
<!-- Generated by graphviz version 2.28.0 (20121022.1408)
 -->
<!-- Title: _anonymous_0 Pages: 1 -->
<svg width="1902pt" height="470pt"
 viewBox="0.00 0.00 1902.00 470.00" xmlns="http://www.w3.org/2000/svg" xmlns:xlink="http://www.w3.org/1999/xlink">
<g id="graph1" class="graph" transform="scale(1 1) rotate(0) translate(4 466)">
<title>_anonymous_0</title>
<polygon fill="white" stroke="white" points="-4,5 -4,-466 1899,-466 1899,5 -4,5"/>
<!-- AffectedPopulation -->
<g id="node1" class="node"><title>AffectedPopulation</title>
<a xlink:href="./#AffectedPopulation" xlink:title="AffectedPopulation">
<ellipse fill="none" stroke="black" cx="990" cy="-180" rx="90.1842" ry="18"/>
<text text-anchor="middle" x="990" y="-176.3" font-family="Helvetica,sans-Serif" font-size="14.00">AffectedPopulation</text>
</a>
</g>
<!-- Population -->
<g id="node3" class="node"><title>Population</title>
<a xlink:href="./#Population" xlink:title="Population">
<ellipse fill="none" stroke="black" cx="891" cy="-268" rx="54.6905" ry="18"/>
<text text-anchor="middle" x="891" y="-264.3" font-family="Helvetica,sans-Serif" font-size="14.00">Population</text>
</a>
</g>
<!-- AffectedPopulation&#45;&gt;Population -->
<g id="edge2" class="edge"><title>AffectedPopulation&#45;&gt;Population</title>
<path fill="none" stroke="red" stroke-dasharray="5,2" d="M970.441,-197.991C955.235,-211.2 933.991,-229.654 917.297,-244.156"/>
<polygon fill="red" stroke="red" points="914.768,-241.717 909.514,-250.917 919.359,-247.001 914.768,-241.717"/>
</g>
<!-- Emergency -->
<g id="node38" class="node"><title>Emergency</title>
<a xlink:href="./#Emergency" xlink:title="Emergency">
<ellipse fill="none" stroke="gray" cx="1023" cy="-268" rx="59.2899" ry="18"/>
<text text-anchor="middle" x="1023" y="-264.3" font-family="Helvetica,sans-Serif" font-size="14.00" fill="gray">Emergency</text>
</a>
</g>
<!-- AffectedPopulation&#45;&gt;Emergency -->
<g id="edge38" class="edge"><title>AffectedPopulation&#45;&gt;Emergency</title>
<a xlink:href="./#affectedBy" xlink:title="affectedBy">
<path fill="none" stroke="darkslategray" d="M996.52,-197.991C1001.18,-210.123 1007.53,-226.68 1012.84,-240.535"/>
<polygon fill="darkslategray" stroke="darkslategray" points="1009.64,-241.962 1016.49,-250.044 1016.18,-239.454 1009.64,-241.962"/>
</a>
<a xlink:href="./#affectedBy" xlink:title="affectedBy">
<text text-anchor="middle" x="1045.5" y="-220.3" font-family="Helvetica,sans-Serif" font-size="14.00">affectedBy</text>
</a>
</g>
<!-- AgeGroup -->
<g id="node4" class="node"><title>AgeGroup</title>
<a xlink:href="./#AgeGroup" xlink:title="AgeGroup">
<ellipse fill="none" stroke="black" cx="655" cy="-356" rx="53.8905" ry="18"/>
<text text-anchor="middle" x="655" y="-352.3" font-family="Helvetica,sans-Serif" font-size="14.00">AgeGroup</text>
</a>
</g>
<!-- Population&#45;&gt;AgeGroup -->
<g id="edge40" class="edge"><title>Population&#45;&gt;AgeGroup</title>
<a xlink:href="./#ageGroup" xlink:title="ageGroup">
<path fill="none" stroke="darkslategray" d="M837.607,-271.284C780.959,-274.769 696.328,-283.352 672,-304 664.942,-309.99 660.801,-318.995 658.377,-327.778"/>
<polygon fill="darkslategray" stroke="darkslategray" points="654.904,-327.285 656.247,-337.794 661.75,-328.741 654.904,-327.285"/>
</a>
<a xlink:href="./#ageGroup" xlink:title="ageGroup">
<text text-anchor="middle" x="704" y="-308.3" font-family="Helvetica,sans-Serif" font-size="14.00">ageGroup</text>
</a>
</g>
<!-- BaseClass -->
<g id="node5" class="node"><title>BaseClass</title>
<a xlink:href="./#SexCategory" xlink:title="BaseClass">
<ellipse fill="none" stroke="gray" cx="501" cy="-444" rx="55.7903" ry="18"/>
<text text-anchor="middle" x="501" y="-440.3" font-family="Helvetica,sans-Serif" font-size="14.00" fill="gray">BaseClass</text>
</a>
</g>
<!-- Population&#45;&gt;BaseClass -->
<g id="edge30" class="edge"><title>Population&#45;&gt;BaseClass</title>
<path fill="none" stroke="red" stroke-dasharray="5,2" d="M838.057,-272.021C790.086,-275.906 717.945,-284.639 658,-304 626.6,-314.141 617.941,-317.608 592,-338 562.403,-361.266 535.073,-395.187 518.245,-418.125"/>
<polygon fill="red" stroke="red" points="515.336,-416.175 512.327,-426.334 521.015,-420.269 515.336,-416.175"/>
</g>
<!-- http://xmlns.com/foaf/0.1/Group -->
<g id="node32" class="node"><title>http://xmlns.com/foaf/0.1/Group</title>
<a xlink:href="./#Population" xlink:title="http://xmlns.com/foaf/0.1/Group">
<ellipse fill="none" stroke="gray" cx="1132" cy="-356" rx="139.976" ry="18"/>
<text text-anchor="middle" x="1132" y="-352.3" font-family="Helvetica,sans-Serif" font-size="14.00" fill="gray">http://xmlns.com/foaf/0.1/Group</text>
</a>
</g>
<!-- Population&#45;&gt;http://xmlns.com/foaf/0.1/Group -->
<g id="edge32" class="edge"><title>Population&#45;&gt;http://xmlns.com/foaf/0.1/Group</title>
<path fill="none" stroke="red" stroke-dasharray="5,2" d="M926.56,-281.69C966.288,-295.866 1031.08,-318.986 1077.27,-335.471"/>
<polygon fill="red" stroke="red" points="1076.24,-338.818 1086.83,-338.882 1078.59,-332.225 1076.24,-338.818"/>
</g>
<!-- SexCategory -->
<g id="node36" class="node"><title>SexCategory</title>
<a xlink:href="./#SexCategory" xlink:title="SexCategory">
<ellipse fill="none" stroke="black" cx="467" cy="-356" rx="66.0889" ry="18"/>
<text text-anchor="middle" x="467" y="-352.3" font-family="Helvetica,sans-Serif" font-size="14.00">SexCategory</text>
</a>
</g>
<!-- Population&#45;&gt;SexCategory -->
<g id="edge54" class="edge"><title>Population&#45;&gt;SexCategory</title>
<a xlink:href="./#sexCategory" xlink:title="sexCategory">
<path fill="none" stroke="darkslategray" d="M836.663,-269.448C727.47,-270.916 489.699,-277.188 465,-304 459.195,-310.301 458.06,-319.118 458.896,-327.651"/>
<polygon fill="darkslategray" stroke="darkslategray" points="455.494,-328.509 460.711,-337.73 462.384,-327.268 455.494,-328.509"/>
</a>
<a xlink:href="./#sexCategory" xlink:title="sexCategory">
<text text-anchor="middle" x="507" y="-308.3" font-family="Helvetica,sans-Serif" font-size="14.00">sexCategory</text>
</a>
</g>
<!-- http://www.w3.org/2001/XMLSchema#int -->
<g id="node41" class="node"><title>http://www.w3.org/2001/XMLSchema#int</title>
<a xlink:href="./#http://www.w3.org/2001/XMLSchema#int" xlink:title="http://www.w3.org/2001/XMLSchema#int">
<ellipse fill="none" stroke="gray" cx="755" cy="-444" rx="180.068" ry="18"/>
<text text-anchor="middle" x="755" y="-440.3" font-family="Helvetica,sans-Serif" font-size="14.00" fill="gray">http://www.w3.org/2001/XMLSchema#int</text>
</a>
</g>
<!-- Population&#45;&gt;http://www.w3.org/2001/XMLSchema#int -->
<g id="edge44" class="edge"><title>Population&#45;&gt;http://www.w3.org/2001/XMLSchema#int</title>
<a xlink:href="./#householdCount" xlink:title="householdCount">
<path fill="none" stroke="darkslategray" d="M850.093,-279.911C820.969,-289.961 783.644,-307.972 764,-338 748.955,-360.999 748.467,-393.158 750.633,-415.81"/>
<polygon fill="darkslategray" stroke="darkslategray" points="747.162,-416.264 751.814,-425.783 754.113,-415.44 747.162,-416.264"/>
</a>
<a xlink:href="./#householdCount" xlink:title="householdCount">
<text text-anchor="middle" x="816.5" y="-352.3" font-family="Helvetica,sans-Serif" font-size="14.00">householdCount</text>
</a>
</g>
<!-- Population&#45;&gt;http://www.w3.org/2001/XMLSchema#int -->
<g id="edge50" class="edge"><title>Population&#45;&gt;http://www.w3.org/2001/XMLSchema#int</title>
<a xlink:href="./#personCount" xlink:title="personCount">
<path fill="none" stroke="darkslategray" d="M891.442,-286.279C891.168,-308.554 887.738,-347.559 869,-374 854.077,-395.058 830.51,-410.866 808.668,-422.001"/>
<polygon fill="darkslategray" stroke="darkslategray" points="806.904,-418.967 799.443,-426.489 809.966,-425.262 806.904,-418.967"/>
</a>
<a xlink:href="./#personCount" xlink:title="personCount">
<text text-anchor="middle" x="926.5" y="-352.3" font-family="Helvetica,sans-Serif" font-size="14.00">personCount</text>
</a>
</g>
<!-- http://www.w3.org/2000/01/rdf&#45;schema#Literal -->
<g id="node44" class="node"><title>http://www.w3.org/2000/01/rdf&#45;schema#Literal</title>
<a xlink:href="./#http://www.w3.org/2000/01/rdf-schema#Literal" xlink:title="http://www.w3.org/2000/01/rdf&#45;schema#Literal">
<ellipse fill="none" stroke="gray" cx="1490" cy="-356" rx="200.365" ry="18"/>
<text text-anchor="middle" x="1490" y="-352.3" font-family="Helvetica,sans-Serif" font-size="14.00" fill="gray">http://www.w3.org/2000/01/rdf&#45;schema#Literal</text>
</a>
</g>
<!-- Population&#45;&gt;http://www.w3.org/2000/01/rdf&#45;schema#Literal -->
<g id="edge46" class="edge"><title>Population&#45;&gt;http://www.w3.org/2000/01/rdf&#45;schema#Literal</title>
<a xlink:href="./#method" xlink:title="method">
<path fill="none" stroke="darkslategray" d="M930.756,-280.426C938.74,-282.475 947.103,-284.449 955,-286 1086.22,-311.774 1237.5,-330.262 1345.65,-341.574"/>
<polygon fill="darkslategray" stroke="darkslategray" points="1345.34,-345.061 1355.65,-342.613 1346.06,-338.099 1345.34,-345.061"/>
</a>
<a xlink:href="./#method" xlink:title="method">
<text text-anchor="middle" x="1184.5" y="-308.3" font-family="Helvetica,sans-Serif" font-size="14.00">method</text>
</a>
</g>
<!-- Country -->
<g id="node46" class="node"><title>Country</title>
<a xlink:href="./#Country" xlink:title="Country">
<ellipse fill="none" stroke="gray" cx="1752" cy="-356" rx="44.393" ry="18"/>
<text text-anchor="middle" x="1752" y="-352.3" font-family="Helvetica,sans-Serif" font-size="14.00" fill="gray">Country</text>
</a>
</g>
<!-- Population&#45;&gt;Country -->
<g id="edge48" class="edge"><title>Population&#45;&gt;Country</title>
<a xlink:href="./#nationality" xlink:title="nationality">
<path fill="none" stroke="darkslategray" d="M930.005,-280.62C938.2,-282.705 946.835,-284.643 955,-286 1068.39,-304.839 1098.33,-295.989 1213,-304 1429,-319.091 1486.37,-297.082 1699,-338 1702.68,-338.708 1706.46,-339.592 1710.23,-340.582"/>
<polygon fill="darkslategray" stroke="darkslategray" points="1709.51,-344.017 1720.09,-343.402 1711.44,-337.287 1709.51,-344.017"/>
</a>
<a xlink:href="./#nationality" xlink:title="nationality">
<text text-anchor="middle" x="1609.5" y="-308.3" font-family="Helvetica,sans-Serif" font-size="14.00">nationality</text>
</a>
</g>
<!-- Source -->
<g id="node52" class="node"><title>Source</title>
<a xlink:href="./#Source" xlink:title="Source">
<ellipse fill="none" stroke="gray" cx="1854" cy="-356" rx="40.0939" ry="18"/>
<text text-anchor="middle" x="1854" y="-352.3" font-family="Helvetica,sans-Serif" font-size="14.00" fill="gray">Source</text>
</a>
</g>
<!-- Population&#45;&gt;Source -->
<g id="edge56" class="edge"><title>Population&#45;&gt;Source</title>
<a xlink:href="./#source" xlink:title="source">
<path fill="none" stroke="darkslategray" d="M929.621,-280.81C937.92,-282.91 946.693,-284.805 955,-286 1259.09,-329.732 1340.93,-267.725 1646,-304 1717.76,-312.533 1735.4,-318.564 1805,-338 1807.98,-338.833 1811.05,-339.749 1814.12,-340.71"/>
<polygon fill="darkslategray" stroke="darkslategray" points="1813.27,-344.115 1823.86,-343.891 1815.44,-337.46 1813.27,-344.115"/>
</a>
<a xlink:href="./#source" xlink:title="source">
<text text-anchor="middle" x="1758" y="-308.3" font-family="Helvetica,sans-Serif" font-size="14.00">source</text>
</a>
</g>
<!-- AgeGroup&#45;&gt;BaseClass -->
<g id="edge4" class="edge"><title>AgeGroup&#45;&gt;BaseClass</title>
<path fill="none" stroke="red" stroke-dasharray="5,2" d="M632.032,-372.452C616.045,-382.961 594.076,-396.915 574,-408 563.627,-413.727 552.169,-419.478 541.466,-424.616"/>
<polygon fill="red" stroke="red" points="539.84,-421.513 532.301,-428.957 542.837,-427.84 539.84,-421.513"/>
</g>
<!-- AgeGroup&#45;&gt;http://www.w3.org/2001/XMLSchema#int -->
<g id="edge42" class="edge"><title>AgeGroup&#45;&gt;http://www.w3.org/2001/XMLSchema#int</title>
<a xlink:href="./#fromAge" xlink:title="fromAge">
<path fill="none" stroke="darkslategray" d="M634.273,-372.625C623.104,-382.957 613.243,-396.641 622,-408 627.362,-414.955 640.624,-420.803 656.804,-425.606"/>
<polygon fill="darkslategray" stroke="darkslategray" points="656.059,-429.031 666.63,-428.314 657.919,-422.283 656.059,-429.031"/>
</a>
<a xlink:href="./#fromAge" xlink:title="fromAge">
<text text-anchor="middle" x="650" y="-396.3" font-family="Helvetica,sans-Serif" font-size="14.00">fromAge</text>
</a>
</g>
<!-- AgeGroup&#45;&gt;http://www.w3.org/2001/XMLSchema#int -->
<g id="edge58" class="edge"><title>AgeGroup&#45;&gt;http://www.w3.org/2001/XMLSchema#int</title>
<a xlink:href="./#toAge" xlink:title="toAge">
<path fill="none" stroke="darkslategray" d="M668.1,-373.646C676.808,-384.146 688.841,-397.634 701,-408 706.141,-412.383 711.866,-416.648 717.612,-420.606"/>
<polygon fill="darkslategray" stroke="darkslategray" points="715.715,-423.548 725.981,-426.165 719.587,-417.717 715.715,-423.548"/>
</a>
<a xlink:href="./#toAge" xlink:title="toAge">
<text text-anchor="middle" x="721" y="-396.3" font-family="Helvetica,sans-Serif" font-size="14.00">toAge</text>
</a>
</g>
<!-- AgeGroupSet -->
<g id="node7" class="node"><title>AgeGroupSet</title>
<a xlink:href="./#AgeGroupSet" xlink:title="AgeGroupSet">
<ellipse fill="none" stroke="black" cx="263" cy="-356" rx="68.7879" ry="18"/>
<text text-anchor="middle" x="263" y="-352.3" font-family="Helvetica,sans-Serif" font-size="14.00">AgeGroupSet</text>
</a>
</g>
<!-- AgeGroupSet&#45;&gt;BaseClass -->
<g id="edge6" class="edge"><title>AgeGroupSet&#45;&gt;BaseClass</title>
<path fill="none" stroke="red" stroke-dasharray="5,2" d="M301.503,-370.913C343.667,-386.148 411.21,-410.555 455.841,-426.682"/>
<polygon fill="red" stroke="red" points="454.682,-429.985 465.276,-430.091 457.061,-423.401 454.682,-429.985"/>
</g>
<!-- http://www.w3.org/1999/02/22&#45;rdf&#45;syntax&#45;ns#Bag -->
<g id="node9" class="node"><title>http://www.w3.org/1999/02/22&#45;rdf&#45;syntax&#45;ns#Bag</title>
<a xlink:href="./#AgeGroupSet" xlink:title="http://www.w3.org/1999/02/22&#45;rdf&#45;syntax&#45;ns#Bag">
<ellipse fill="none" stroke="gray" cx="213" cy="-444" rx="213.662" ry="18"/>
<text text-anchor="middle" x="213" y="-440.3" font-family="Helvetica,sans-Serif" font-size="14.00" fill="gray">http://www.w3.org/1999/02/22&#45;rdf&#45;syntax&#45;ns#Bag</text>
</a>
</g>
<!-- AgeGroupSet&#45;&gt;http://www.w3.org/1999/02/22&#45;rdf&#45;syntax&#45;ns#Bag -->
<g id="edge8" class="edge"><title>AgeGroupSet&#45;&gt;http://www.w3.org/1999/02/22&#45;rdf&#45;syntax&#45;ns#Bag</title>
<path fill="none" stroke="red" stroke-dasharray="5,2" d="M253.122,-373.991C245.978,-386.278 236.195,-403.105 228.078,-417.066"/>
<polygon fill="red" stroke="red" points="225.029,-415.346 223.029,-425.75 231.081,-418.864 225.029,-415.346"/>
</g>
<!-- Casualty -->
<g id="node11" class="node"><title>Casualty</title>
<a xlink:href="./#Casualty" xlink:title="Casualty">
<ellipse fill="none" stroke="black" cx="1206" cy="-92" rx="47.3916" ry="18"/>
<text text-anchor="middle" x="1206" y="-88.3" font-family="Helvetica,sans-Serif" font-size="14.00">Casualty</text>
</a>
</g>
<!-- Casualty&#45;&gt;AffectedPopulation -->
<g id="edge10" class="edge"><title>Casualty&#45;&gt;AffectedPopulation</title>
<path fill="none" stroke="red" stroke-dasharray="5,2" d="M1174.59,-105.505C1138.77,-119.767 1079.79,-143.251 1038.15,-159.829"/>
<polygon fill="red" stroke="red" points="1036.75,-156.619 1028.75,-163.57 1039.34,-163.122 1036.75,-156.619"/>
</g>
<!-- Dead -->
<g id="node13" class="node"><title>Dead</title>
<a xlink:href="./#Dead" xlink:title="Dead">
<ellipse fill="none" stroke="black" cx="1253" cy="-18" rx="33.2948" ry="18"/>
<text text-anchor="middle" x="1253" y="-14.3" font-family="Helvetica,sans-Serif" font-size="14.00">Dead</text>
</a>
</g>
<!-- Dead&#45;&gt;Casualty -->
<g id="edge12" class="edge"><title>Dead&#45;&gt;Casualty</title>
<path fill="none" stroke="red" stroke-dasharray="5,2" d="M1242.33,-35.3379C1236.47,-44.3232 1229.07,-55.6657 1222.47,-65.7638"/>
<polygon fill="red" stroke="red" points="1219.48,-63.9401 1216.95,-74.2271 1225.35,-67.7665 1219.48,-63.9401"/>
</g>
<!-- Displaced -->
<g id="node15" class="node"><title>Displaced</title>
<a xlink:href="./#Displaced" xlink:title="Displaced">
<ellipse fill="none" stroke="black" cx="645" cy="-92" rx="51.9908" ry="18"/>
<text text-anchor="middle" x="645" y="-88.3" font-family="Helvetica,sans-Serif" font-size="14.00">Displaced</text>
</a>
</g>
<!-- Displaced&#45;&gt;AffectedPopulation -->
<g id="edge14" class="edge"><title>Displaced&#45;&gt;AffectedPopulation</title>
<path fill="none" stroke="red" stroke-dasharray="5,2" d="M685.59,-103.118C744.841,-117.888 855.592,-145.495 925.916,-163.026"/>
<polygon fill="red" stroke="red" points="925.438,-166.513 935.988,-165.536 927.131,-159.721 925.438,-166.513"/>
</g>
<!-- http://www.opengis.net/ont/geosparql#Feature -->
<g id="node49" class="node"><title>http://www.opengis.net/ont/geosparql#Feature</title>
<a xlink:href="./#http://www.opengis.net/ont/geosparql#Feature" xlink:title="http://www.opengis.net/ont/geosparql#Feature">
<ellipse fill="none" stroke="gray" cx="645" cy="-180" rx="203.364" ry="18"/>
<text text-anchor="middle" x="645" y="-176.3" font-family="Helvetica,sans-Serif" font-size="14.00" fill="gray">http://www.opengis.net/ont/geosparql#Feature</text>
</a>
</g>
<!-- Displaced&#45;&gt;http://www.opengis.net/ont/geosparql#Feature -->
<g id="edge52" class="edge"><title>Displaced&#45;&gt;http://www.opengis.net/ont/geosparql#Feature</title>
<a xlink:href="./#placeOfOrigin" xlink:title="placeOfOrigin">
<path fill="none" stroke="darkslategray" d="M645,-110.403C645,-122.254 645,-138.183 645,-151.708"/>
<polygon fill="darkslategray" stroke="darkslategray" points="641.5,-151.916 645,-161.916 648.5,-151.916 641.5,-151.916"/>
</a>
<a xlink:href="./#placeOfOrigin" xlink:title="placeOfOrigin">
<text text-anchor="middle" x="689" y="-132.3" font-family="Helvetica,sans-Serif" font-size="14.00">placeOfOrigin</text>
</a>
</g>
<!-- HostPopulation -->
<g id="node17" class="node"><title>HostPopulation</title>
<a xlink:href="./#HostPopulation" xlink:title="HostPopulation">
<ellipse fill="none" stroke="black" cx="1023" cy="-18" rx="75.2868" ry="18"/>
<text text-anchor="middle" x="1023" y="-14.3" font-family="Helvetica,sans-Serif" font-size="14.00">HostPopulation</text>
</a>
</g>
<!-- NonDisplaced -->
<g id="node19" class="node"><title>NonDisplaced</title>
<a xlink:href="./#NonDisplaced" xlink:title="NonDisplaced">
<ellipse fill="none" stroke="black" cx="990" cy="-92" rx="69.5877" ry="18"/>
<text text-anchor="middle" x="990" y="-88.3" font-family="Helvetica,sans-Serif" font-size="14.00">NonDisplaced</text>
</a>
</g>
<!-- HostPopulation&#45;&gt;NonDisplaced -->
<g id="edge16" class="edge"><title>HostPopulation&#45;&gt;NonDisplaced</title>
<path fill="none" stroke="red" stroke-dasharray="5,2" d="M1015.18,-36.063C1011.23,-44.671 1006.36,-55.2984 1001.96,-64.9053"/>
<polygon fill="red" stroke="red" points="998.749,-63.5105 997.764,-74.0595 1005.11,-66.4271 998.749,-63.5105"/>
</g>
<!-- NonDisplaced&#45;&gt;AffectedPopulation -->
<g id="edge24" class="edge"><title>NonDisplaced&#45;&gt;AffectedPopulation</title>
<path fill="none" stroke="red" stroke-dasharray="5,2" d="M990,-110.403C990,-122.254 990,-138.183 990,-151.708"/>
<polygon fill="red" stroke="red" points="986.5,-151.916 990,-161.916 993.5,-151.916 986.5,-151.916"/>
</g>
<!-- IDP -->
<g id="node20" class="node"><title>IDP</title>
<a xlink:href="./#IDP" xlink:title="IDP">
<ellipse fill="none" stroke="black" cx="603" cy="-18" rx="27" ry="18"/>
<text text-anchor="middle" x="603" y="-14.3" font-family="Helvetica,sans-Serif" font-size="14.00">IDP</text>
</a>
</g>
<!-- IDP&#45;&gt;Displaced -->
<g id="edge18" class="edge"><title>IDP&#45;&gt;Displaced</title>
<path fill="none" stroke="red" stroke-dasharray="5,2" d="M612.321,-34.9791C617.539,-43.924 624.167,-55.2867 630.089,-65.4376"/>
<polygon fill="red" stroke="red" points="627.205,-67.4407 635.267,-74.3149 633.252,-63.9136 627.205,-67.4407"/>
</g>
<!-- Injured -->
<g id="node22" class="node"><title>Injured</title>
<a xlink:href="./#Injured" xlink:title="Injured">
<ellipse fill="none" stroke="black" cx="1343" cy="-18" rx="38.9931" ry="18"/>
<text text-anchor="middle" x="1343" y="-14.3" font-family="Helvetica,sans-Serif" font-size="14.00">Injured</text>
</a>
</g>
<!-- Injured&#45;&gt;Casualty -->
<g id="edge20" class="edge"><title>Injured&#45;&gt;Casualty</title>
<path fill="none" stroke="red" stroke-dasharray="5,2" d="M1318.19,-32.0387C1296.82,-43.2721 1265.7,-59.6249 1241.66,-72.2608"/>
<polygon fill="red" stroke="red" points="1239.72,-69.3253 1232.49,-77.0757 1242.98,-75.5217 1239.72,-69.3253"/>
</g>
<!-- Missing -->
<g id="node24" class="node"><title>Missing</title>
<a xlink:href="./#Missing" xlink:title="Missing">
<ellipse fill="none" stroke="black" cx="1159" cy="-18" rx="42.7926" ry="18"/>
<text text-anchor="middle" x="1159" y="-14.3" font-family="Helvetica,sans-Serif" font-size="14.00">Missing</text>
</a>
</g>
<!-- Missing&#45;&gt;Casualty -->
<g id="edge22" class="edge"><title>Missing&#45;&gt;Casualty</title>
<path fill="none" stroke="red" stroke-dasharray="5,2" d="M1169.9,-35.6992C1175.77,-44.6957 1183.14,-55.9753 1189.68,-65.9971"/>
<polygon fill="red" stroke="red" points="1186.76,-67.9307 1195.16,-74.3913 1192.62,-64.1043 1186.76,-67.9307"/>
</g>
<!-- NonHostPopulation -->
<g id="node27" class="node"><title>NonHostPopulation</title>
<a xlink:href="./#NonHostPopulation" xlink:title="NonHostPopulation">
<ellipse fill="none" stroke="black" cx="837" cy="-18" rx="92.8835" ry="18"/>
<text text-anchor="middle" x="837" y="-14.3" font-family="Helvetica,sans-Serif" font-size="14.00">NonHostPopulation</text>
</a>
</g>
<!-- NonHostPopulation&#45;&gt;NonDisplaced -->
<g id="edge26" class="edge"><title>NonHostPopulation&#45;&gt;NonDisplaced</title>
<path fill="none" stroke="red" stroke-dasharray="5,2" d="M870.576,-34.8007C893.665,-45.6657 924.465,-60.16 949.003,-71.7073"/>
<polygon fill="red" stroke="red" points="947.533,-74.8838 958.072,-75.9749 950.514,-68.55 947.533,-74.8838"/>
</g>
<!-- Others -->
<g id="node29" class="node"><title>Others</title>
<a xlink:href="./#Others" xlink:title="Others">
<ellipse fill="none" stroke="black" cx="687" cy="-18" rx="38.9931" ry="18"/>
<text text-anchor="middle" x="687" y="-14.3" font-family="Helvetica,sans-Serif" font-size="14.00">Others</text>
</a>
</g>
<!-- Others&#45;&gt;Displaced -->
<g id="edge28" class="edge"><title>Others&#45;&gt;Displaced</title>
<path fill="none" stroke="red" stroke-dasharray="5,2" d="M677.259,-35.6992C672.19,-44.388 665.88,-55.2064 660.187,-64.9646"/>
<polygon fill="red" stroke="red" points="656.996,-63.49 654.98,-73.8914 663.042,-67.0171 656.996,-63.49"/>
</g>
<!-- RefugeesAsylumSeekers -->
<g id="node34" class="node"><title>RefugeesAsylumSeekers</title>
<a xlink:href="./#RefugeesAsylumSeekers" xlink:title="RefugeesAsylumSeekers">
<ellipse fill="none" stroke="black" cx="440" cy="-18" rx="117.779" ry="18"/>
<text text-anchor="middle" x="440" y="-14.3" font-family="Helvetica,sans-Serif" font-size="14.00">RefugeesAsylumSeekers</text>
</a>
</g>
<!-- RefugeesAsylumSeekers&#45;&gt;Displaced -->
<g id="edge34" class="edge"><title>RefugeesAsylumSeekers&#45;&gt;Displaced</title>
<path fill="none" stroke="red" stroke-dasharray="5,2" d="M484.735,-34.7117C518.94,-46.7252 565.888,-63.2143 600.127,-75.2398"/>
<polygon fill="red" stroke="red" points="599.276,-78.6504 609.871,-78.6619 601.596,-72.0459 599.276,-78.6504"/>
</g>
<!-- SexCategory&#45;&gt;BaseClass -->
<g id="edge36" class="edge"><title>SexCategory&#45;&gt;BaseClass</title>
<path fill="none" stroke="red" stroke-dasharray="5,2" d="M473.717,-373.991C478.514,-386.123 485.06,-402.68 490.537,-416.535"/>
<polygon fill="red" stroke="red" points="487.365,-418.032 494.297,-426.044 493.875,-415.458 487.365,-418.032"/>
</g>
</g>
</svg>
