<?xml version="1.0" encoding="UTF-8" standalone="no"?>
<!DOCTYPE svg PUBLIC "-//W3C//DTD SVG 1.1//EN"
 "http://www.w3.org/Graphics/SVG/1.1/DTD/svg11.dtd">
<!-- Generated by graphviz version 2.28.0 (20121022.1408)
 -->
<!-- Title: _anonymous_0 Pages: 1 -->
<svg width="2103pt" height="470pt"
 viewBox="0.00 0.00 2103.00 470.00" xmlns="http://www.w3.org/2000/svg" xmlns:xlink="http://www.w3.org/1999/xlink">
<g id="graph1" class="graph" transform="scale(1 1) rotate(0) translate(4 466)">
<title>_anonymous_0</title>
<polygon fill="white" stroke="white" points="-4,5 -4,-466 2100,-466 2100,5 -4,5"/>
<!-- AffectedPopulation -->
<g id="node1" class="node"><title>AffectedPopulation</title>
<a xlink:href="./#AffectedPopulation" xlink:title="AffectedPopulation">
<ellipse fill="none" stroke="black" cx="1184" cy="-180" rx="90.1842" ry="18"/>
<text text-anchor="middle" x="1184" y="-176.3" font-family="Helvetica,sans-Serif" font-size="14.00">AffectedPopulation</text>
</a>
</g>
<!-- Population -->
<g id="node3" class="node"><title>Population</title>
<a xlink:href="./#Population" xlink:title="Population">
<ellipse fill="none" stroke="black" cx="1085" cy="-268" rx="54.6905" ry="18"/>
<text text-anchor="middle" x="1085" y="-264.3" font-family="Helvetica,sans-Serif" font-size="14.00">Population</text>
</a>
</g>
<!-- AffectedPopulation&#45;&gt;Population -->
<g id="edge2" class="edge"><title>AffectedPopulation&#45;&gt;Population</title>
<path fill="none" stroke="red" stroke-dasharray="5,2" d="M1164.44,-197.991C1149.23,-211.2 1127.99,-229.654 1111.3,-244.156"/>
<polygon fill="red" stroke="red" points="1108.77,-241.717 1103.51,-250.917 1113.36,-247.001 1108.77,-241.717"/>
</g>
<!-- Emergency -->
<g id="node39" class="node"><title>Emergency</title>
<a xlink:href="./#Emergency" xlink:title="Emergency">
<ellipse fill="none" stroke="gray" cx="1217" cy="-268" rx="59.2899" ry="18"/>
<text text-anchor="middle" x="1217" y="-264.3" font-family="Helvetica,sans-Serif" font-size="14.00" fill="gray">Emergency</text>
</a>
</g>
<!-- AffectedPopulation&#45;&gt;Emergency -->
<g id="edge38" class="edge"><title>AffectedPopulation&#45;&gt;Emergency</title>
<a xlink:href="./#affectedBy" xlink:title="affectedBy">
<path fill="none" stroke="darkslategray" d="M1190.52,-197.991C1195.18,-210.123 1201.53,-226.68 1206.84,-240.535"/>
<polygon fill="darkslategray" stroke="darkslategray" points="1203.64,-241.962 1210.49,-250.044 1210.18,-239.454 1203.64,-241.962"/>
</a>
<a xlink:href="./#affectedBy" xlink:title="affectedBy">
<text text-anchor="middle" x="1239.5" y="-220.3" font-family="Helvetica,sans-Serif" font-size="14.00">affectedBy</text>
</a>
</g>
<!-- AgeGroup -->
<g id="node4" class="node"><title>AgeGroup</title>
<a xlink:href="./#AgeGroup" xlink:title="AgeGroup">
<ellipse fill="none" stroke="black" cx="657" cy="-356" rx="53.8905" ry="18"/>
<text text-anchor="middle" x="657" y="-352.3" font-family="Helvetica,sans-Serif" font-size="14.00">AgeGroup</text>
</a>
</g>
<!-- Population&#45;&gt;AgeGroup -->
<g id="edge40" class="edge"><title>Population&#45;&gt;AgeGroup</title>
<a xlink:href="./#ageGroup" xlink:title="ageGroup">
<path fill="none" stroke="darkslategray" d="M1030.95,-270.385C926.017,-273.538 702.548,-282.693 675,-304 667.553,-309.76 663.178,-318.831 660.612,-327.736"/>
<polygon fill="darkslategray" stroke="darkslategray" points="657.187,-327.011 658.415,-337.535 664.018,-328.543 657.187,-327.011"/>
</a>
<a xlink:href="./#ageGroup" xlink:title="ageGroup">
<text text-anchor="middle" x="707" y="-308.3" font-family="Helvetica,sans-Serif" font-size="14.00">ageGroup</text>
</a>
</g>
<!-- LocatedBaseClass -->
<g id="node31" class="node"><title>LocatedBaseClass</title>
<a xlink:href="./#Population" xlink:title="LocatedBaseClass">
<ellipse fill="none" stroke="gray" cx="1085" cy="-356" rx="90.1842" ry="18"/>
<text text-anchor="middle" x="1085" y="-352.3" font-family="Helvetica,sans-Serif" font-size="14.00" fill="gray">LocatedBaseClass</text>
</a>
</g>
<!-- Population&#45;&gt;LocatedBaseClass -->
<g id="edge30" class="edge"><title>Population&#45;&gt;LocatedBaseClass</title>
<path fill="none" stroke="red" stroke-dasharray="5,2" d="M1085,-286.403C1085,-298.254 1085,-314.183 1085,-327.708"/>
<polygon fill="red" stroke="red" points="1081.5,-327.916 1085,-337.916 1088.5,-327.916 1081.5,-327.916"/>
</g>
<!-- http://xmlns.com/foaf/0.1/Group -->
<g id="node33" class="node"><title>http://xmlns.com/foaf/0.1/Group</title>
<a xlink:href="./#Population" xlink:title="http://xmlns.com/foaf/0.1/Group">
<ellipse fill="none" stroke="gray" cx="1333" cy="-356" rx="139.976" ry="18"/>
<text text-anchor="middle" x="1333" y="-352.3" font-family="Helvetica,sans-Serif" font-size="14.00" fill="gray">http://xmlns.com/foaf/0.1/Group</text>
</a>
</g>
<!-- Population&#45;&gt;http://xmlns.com/foaf/0.1/Group -->
<g id="edge32" class="edge"><title>Population&#45;&gt;http://xmlns.com/foaf/0.1/Group</title>
<path fill="none" stroke="red" stroke-dasharray="5,2" d="M1121.06,-281.505C1162.03,-295.713 1229.4,-319.073 1277.17,-335.64"/>
<polygon fill="red" stroke="red" points="1276.16,-338.992 1286.75,-338.962 1278.45,-332.379 1276.16,-338.992"/>
</g>
<!-- SexCategory -->
<g id="node37" class="node"><title>SexCategory</title>
<a xlink:href="./#SexCategory" xlink:title="SexCategory">
<ellipse fill="none" stroke="black" cx="506" cy="-356" rx="66.0889" ry="18"/>
<text text-anchor="middle" x="506" y="-352.3" font-family="Helvetica,sans-Serif" font-size="14.00">SexCategory</text>
</a>
</g>
<!-- Population&#45;&gt;SexCategory -->
<g id="edge54" class="edge"><title>Population&#45;&gt;SexCategory</title>
<a xlink:href="./#sexCategory" xlink:title="sexCategory">
<path fill="none" stroke="darkslategray" d="M1030.72,-268.958C917.169,-269.481 658.296,-274.039 576,-304 559.31,-310.076 543.119,-321.404 530.519,-331.842"/>
<polygon fill="darkslategray" stroke="darkslategray" points="528.075,-329.328 522.789,-338.51 532.647,-334.629 528.075,-329.328"/>
</a>
<a xlink:href="./#sexCategory" xlink:title="sexCategory">
<text text-anchor="middle" x="618" y="-308.3" font-family="Helvetica,sans-Serif" font-size="14.00">sexCategory</text>
</a>
</g>
<!-- http://www.w3.org/2001/XMLSchema#int -->
<g id="node42" class="node"><title>http://www.w3.org/2001/XMLSchema#int</title>
<a xlink:href="./#http://www.w3.org/2001/XMLSchema#int" xlink:title="http://www.w3.org/2001/XMLSchema#int">
<ellipse fill="none" stroke="gray" cx="755" cy="-444" rx="180.068" ry="18"/>
<text text-anchor="middle" x="755" y="-440.3" font-family="Helvetica,sans-Serif" font-size="14.00" fill="gray">http://www.w3.org/2001/XMLSchema#int</text>
</a>
</g>
<!-- Population&#45;&gt;http://www.w3.org/2001/XMLSchema#int -->
<g id="edge44" class="edge"><title>Population&#45;&gt;http://www.w3.org/2001/XMLSchema#int</title>
<a xlink:href="./#householdCount" xlink:title="householdCount">
<path fill="none" stroke="darkslategray" d="M1032.59,-272.754C951.249,-279.774 800.465,-297.958 767,-338 749.042,-359.487 748.232,-392.675 750.505,-415.974"/>
<polygon fill="darkslategray" stroke="darkslategray" points="747.031,-416.403 751.716,-425.906 753.98,-415.556 747.031,-416.403"/>
</a>
<a xlink:href="./#householdCount" xlink:title="householdCount">
<text text-anchor="middle" x="819.5" y="-352.3" font-family="Helvetica,sans-Serif" font-size="14.00">householdCount</text>
</a>
</g>
<!-- Population&#45;&gt;http://www.w3.org/2001/XMLSchema#int -->
<g id="edge50" class="edge"><title>Population&#45;&gt;http://www.w3.org/2001/XMLSchema#int</title>
<a xlink:href="./#personCount" xlink:title="personCount">
<path fill="none" stroke="darkslategray" d="M1041.64,-278.912C1002.82,-289.236 945.62,-308.14 903,-338 885.707,-350.115 888.199,-360.456 872,-374 849.72,-392.628 821.8,-409.302 798.822,-421.59"/>
<polygon fill="darkslategray" stroke="darkslategray" points="797.183,-418.498 789.958,-426.247 800.438,-424.695 797.183,-418.498"/>
</a>
<a xlink:href="./#personCount" xlink:title="personCount">
<text text-anchor="middle" x="944.5" y="-352.3" font-family="Helvetica,sans-Serif" font-size="14.00">personCount</text>
</a>
</g>
<!-- http://www.w3.org/2000/01/rdf&#45;schema#Literal -->
<g id="node45" class="node"><title>http://www.w3.org/2000/01/rdf&#45;schema#Literal</title>
<a xlink:href="./#http://www.w3.org/2000/01/rdf-schema#Literal" xlink:title="http://www.w3.org/2000/01/rdf&#45;schema#Literal">
<ellipse fill="none" stroke="gray" cx="1691" cy="-356" rx="200.365" ry="18"/>
<text text-anchor="middle" x="1691" y="-352.3" font-family="Helvetica,sans-Serif" font-size="14.00" fill="gray">http://www.w3.org/2000/01/rdf&#45;schema#Literal</text>
</a>
</g>
<!-- Population&#45;&gt;http://www.w3.org/2000/01/rdf&#45;schema#Literal -->
<g id="edge46" class="edge"><title>Population&#45;&gt;http://www.w3.org/2000/01/rdf&#45;schema#Literal</title>
<a xlink:href="./#method" xlink:title="method">
<path fill="none" stroke="darkslategray" d="M1124.75,-280.436C1132.74,-282.485 1141.1,-284.455 1149,-286 1282.04,-312.018 1435.46,-330.491 1545.03,-341.734"/>
<polygon fill="darkslategray" stroke="darkslategray" points="1544.86,-345.234 1555.16,-342.766 1545.57,-338.27 1544.86,-345.234"/>
</a>
<a xlink:href="./#method" xlink:title="method">
<text text-anchor="middle" x="1381.5" y="-308.3" font-family="Helvetica,sans-Serif" font-size="14.00">method</text>
</a>
</g>
<!-- Country -->
<g id="node47" class="node"><title>Country</title>
<a xlink:href="./#Country" xlink:title="Country">
<ellipse fill="none" stroke="gray" cx="1953" cy="-356" rx="44.393" ry="18"/>
<text text-anchor="middle" x="1953" y="-352.3" font-family="Helvetica,sans-Serif" font-size="14.00" fill="gray">Country</text>
</a>
</g>
<!-- Population&#45;&gt;Country -->
<g id="edge48" class="edge"><title>Population&#45;&gt;Country</title>
<a xlink:href="./#nationality" xlink:title="nationality">
<path fill="none" stroke="darkslategray" d="M1124,-280.625C1132.2,-282.71 1140.83,-284.647 1149,-286 1263.71,-305.012 1294,-295.976 1410,-304 1627.78,-319.065 1685.62,-296.808 1900,-338 1903.68,-338.707 1907.46,-339.59 1911.23,-340.58"/>
<polygon fill="darkslategray" stroke="darkslategray" points="1910.51,-344.015 1921.09,-343.399 1912.44,-337.285 1910.51,-344.015"/>
</a>
<a xlink:href="./#nationality" xlink:title="nationality">
<text text-anchor="middle" x="1809.5" y="-308.3" font-family="Helvetica,sans-Serif" font-size="14.00">nationality</text>
</a>
</g>
<!-- Source -->
<g id="node53" class="node"><title>Source</title>
<a xlink:href="./#Source" xlink:title="Source">
<ellipse fill="none" stroke="gray" cx="2055" cy="-356" rx="40.0939" ry="18"/>
<text text-anchor="middle" x="2055" y="-352.3" font-family="Helvetica,sans-Serif" font-size="14.00" fill="gray">Source</text>
</a>
</g>
<!-- Population&#45;&gt;Source -->
<g id="edge56" class="edge"><title>Population&#45;&gt;Source</title>
<a xlink:href="./#source" xlink:title="source">
<path fill="none" stroke="darkslategray" d="M1123.62,-280.811C1131.92,-282.911 1140.69,-284.806 1149,-286 1455.73,-330.078 1538.26,-267.641 1846,-304 1918.2,-312.53 1935.97,-318.492 2006,-338 2009.12,-338.87 2012.34,-339.831 2015.55,-340.841"/>
<polygon fill="darkslategray" stroke="darkslategray" points="2014.53,-344.19 2025.13,-343.974 2016.71,-337.537 2014.53,-344.19"/>
</a>
<a xlink:href="./#source" xlink:title="source">
<text text-anchor="middle" x="1959" y="-308.3" font-family="Helvetica,sans-Serif" font-size="14.00">source</text>
</a>
</g>
<!-- BaseClass -->
<g id="node5" class="node"><title>BaseClass</title>
<a xlink:href="./#SexCategory" xlink:title="BaseClass">
<ellipse fill="none" stroke="gray" cx="501" cy="-444" rx="55.7903" ry="18"/>
<text text-anchor="middle" x="501" y="-440.3" font-family="Helvetica,sans-Serif" font-size="14.00" fill="gray">BaseClass</text>
</a>
</g>
<!-- AgeGroup&#45;&gt;BaseClass -->
<g id="edge4" class="edge"><title>AgeGroup&#45;&gt;BaseClass</title>
<path fill="none" stroke="red" stroke-dasharray="5,2" d="M630.183,-371.784C604.399,-385.998 565.258,-407.576 536.817,-423.255"/>
<polygon fill="red" stroke="red" points="535.057,-420.228 527.989,-428.121 538.437,-426.358 535.057,-420.228"/>
</g>
<!-- AgeGroup&#45;&gt;http://www.w3.org/2001/XMLSchema#int -->
<g id="edge42" class="edge"><title>AgeGroup&#45;&gt;http://www.w3.org/2001/XMLSchema#int</title>
<a xlink:href="./#fromAge" xlink:title="fromAge">
<path fill="none" stroke="darkslategray" d="M634.231,-372.357C621.907,-382.576 610.896,-396.234 620,-408 625.419,-415.003 638.762,-420.862 655.059,-425.658"/>
<polygon fill="darkslategray" stroke="darkslategray" points="654.39,-429.103 664.958,-428.36 656.233,-422.35 654.39,-429.103"/>
</a>
<a xlink:href="./#fromAge" xlink:title="fromAge">
<text text-anchor="middle" x="648" y="-396.3" font-family="Helvetica,sans-Serif" font-size="14.00">fromAge</text>
</a>
</g>
<!-- AgeGroup&#45;&gt;http://www.w3.org/2001/XMLSchema#int -->
<g id="edge58" class="edge"><title>AgeGroup&#45;&gt;http://www.w3.org/2001/XMLSchema#int</title>
<a xlink:href="./#toAge" xlink:title="toAge">
<path fill="none" stroke="darkslategray" d="M668.653,-373.801C676.481,-384.364 687.447,-397.863 699,-408 704.095,-412.471 709.824,-416.744 715.622,-420.671"/>
<polygon fill="darkslategray" stroke="darkslategray" points="713.804,-423.664 724.1,-426.161 717.609,-417.788 713.804,-423.664"/>
</a>
<a xlink:href="./#toAge" xlink:title="toAge">
<text text-anchor="middle" x="719" y="-396.3" font-family="Helvetica,sans-Serif" font-size="14.00">toAge</text>
</a>
</g>
<!-- AgeGroupSet -->
<g id="node7" class="node"><title>AgeGroupSet</title>
<a xlink:href="./#AgeGroupSet" xlink:title="AgeGroupSet">
<ellipse fill="none" stroke="black" cx="280" cy="-356" rx="68.7879" ry="18"/>
<text text-anchor="middle" x="280" y="-352.3" font-family="Helvetica,sans-Serif" font-size="14.00">AgeGroupSet</text>
</a>
</g>
<!-- AgeGroupSet&#45;&gt;BaseClass -->
<g id="edge6" class="edge"><title>AgeGroupSet&#45;&gt;BaseClass</title>
<path fill="none" stroke="red" stroke-dasharray="5,2" d="M316.99,-371.394C355.668,-386.445 416.336,-410.054 457.338,-426.009"/>
<polygon fill="red" stroke="red" points="456.21,-429.326 466.798,-429.691 458.748,-422.802 456.21,-429.326"/>
</g>
<!-- http://www.w3.org/1999/02/22&#45;rdf&#45;syntax&#45;ns#Bag -->
<g id="node9" class="node"><title>http://www.w3.org/1999/02/22&#45;rdf&#45;syntax&#45;ns#Bag</title>
<a xlink:href="./#AgeGroupSet" xlink:title="http://www.w3.org/1999/02/22&#45;rdf&#45;syntax&#45;ns#Bag">
<ellipse fill="none" stroke="gray" cx="213" cy="-444" rx="213.662" ry="18"/>
<text text-anchor="middle" x="213" y="-440.3" font-family="Helvetica,sans-Serif" font-size="14.00" fill="gray">http://www.w3.org/1999/02/22&#45;rdf&#45;syntax&#45;ns#Bag</text>
</a>
</g>
<!-- AgeGroupSet&#45;&gt;http://www.w3.org/1999/02/22&#45;rdf&#45;syntax&#45;ns#Bag -->
<g id="edge8" class="edge"><title>AgeGroupSet&#45;&gt;http://www.w3.org/1999/02/22&#45;rdf&#45;syntax&#45;ns#Bag</title>
<path fill="none" stroke="red" stroke-dasharray="5,2" d="M266.763,-373.991C257.008,-386.512 243.581,-403.747 232.585,-417.86"/>
<polygon fill="red" stroke="red" points="229.824,-415.71 226.439,-425.75 235.346,-420.013 229.824,-415.71"/>
</g>
<!-- Casualty -->
<g id="node11" class="node"><title>Casualty</title>
<a xlink:href="./#Casualty" xlink:title="Casualty">
<ellipse fill="none" stroke="black" cx="1400" cy="-92" rx="47.3916" ry="18"/>
<text text-anchor="middle" x="1400" y="-88.3" font-family="Helvetica,sans-Serif" font-size="14.00">Casualty</text>
</a>
</g>
<!-- Casualty&#45;&gt;AffectedPopulation -->
<g id="edge10" class="edge"><title>Casualty&#45;&gt;AffectedPopulation</title>
<path fill="none" stroke="red" stroke-dasharray="5,2" d="M1368.59,-105.505C1332.77,-119.767 1273.79,-143.251 1232.15,-159.829"/>
<polygon fill="red" stroke="red" points="1230.75,-156.619 1222.75,-163.57 1233.34,-163.122 1230.75,-156.619"/>
</g>
<!-- Dead -->
<g id="node13" class="node"><title>Dead</title>
<a xlink:href="./#Dead" xlink:title="Dead">
<ellipse fill="none" stroke="black" cx="1447" cy="-18" rx="33.2948" ry="18"/>
<text text-anchor="middle" x="1447" y="-14.3" font-family="Helvetica,sans-Serif" font-size="14.00">Dead</text>
</a>
</g>
<!-- Dead&#45;&gt;Casualty -->
<g id="edge12" class="edge"><title>Dead&#45;&gt;Casualty</title>
<path fill="none" stroke="red" stroke-dasharray="5,2" d="M1436.33,-35.3379C1430.47,-44.3232 1423.07,-55.6657 1416.47,-65.7638"/>
<polygon fill="red" stroke="red" points="1413.48,-63.9401 1410.95,-74.2271 1419.35,-67.7665 1413.48,-63.9401"/>
</g>
<!-- Displaced -->
<g id="node15" class="node"><title>Displaced</title>
<a xlink:href="./#Displaced" xlink:title="Displaced">
<ellipse fill="none" stroke="black" cx="839" cy="-92" rx="51.9908" ry="18"/>
<text text-anchor="middle" x="839" y="-88.3" font-family="Helvetica,sans-Serif" font-size="14.00">Displaced</text>
</a>
</g>
<!-- Displaced&#45;&gt;AffectedPopulation -->
<g id="edge14" class="edge"><title>Displaced&#45;&gt;AffectedPopulation</title>
<path fill="none" stroke="red" stroke-dasharray="5,2" d="M879.59,-103.118C938.841,-117.888 1049.59,-145.495 1119.92,-163.026"/>
<polygon fill="red" stroke="red" points="1119.44,-166.513 1129.99,-165.536 1121.13,-159.721 1119.44,-166.513"/>
</g>
<!-- http://www.opengis.net/ont/geosparql#Feature -->
<g id="node50" class="node"><title>http://www.opengis.net/ont/geosparql#Feature</title>
<a xlink:href="./#http://www.opengis.net/ont/geosparql#Feature" xlink:title="http://www.opengis.net/ont/geosparql#Feature">
<ellipse fill="none" stroke="gray" cx="839" cy="-180" rx="203.364" ry="18"/>
<text text-anchor="middle" x="839" y="-176.3" font-family="Helvetica,sans-Serif" font-size="14.00" fill="gray">http://www.opengis.net/ont/geosparql#Feature</text>
</a>
</g>
<!-- Displaced&#45;&gt;http://www.opengis.net/ont/geosparql#Feature -->
<g id="edge52" class="edge"><title>Displaced&#45;&gt;http://www.opengis.net/ont/geosparql#Feature</title>
<a xlink:href="./#placeOfOrigin" xlink:title="placeOfOrigin">
<path fill="none" stroke="darkslategray" d="M839,-110.403C839,-122.254 839,-138.183 839,-151.708"/>
<polygon fill="darkslategray" stroke="darkslategray" points="835.5,-151.916 839,-161.916 842.5,-151.916 835.5,-151.916"/>
</a>
<a xlink:href="./#placeOfOrigin" xlink:title="placeOfOrigin">
<text text-anchor="middle" x="883" y="-132.3" font-family="Helvetica,sans-Serif" font-size="14.00">placeOfOrigin</text>
</a>
</g>
<!-- HostPopulation -->
<g id="node17" class="node"><title>HostPopulation</title>
<a xlink:href="./#HostPopulation" xlink:title="HostPopulation">
<ellipse fill="none" stroke="black" cx="1217" cy="-18" rx="75.2868" ry="18"/>
<text text-anchor="middle" x="1217" y="-14.3" font-family="Helvetica,sans-Serif" font-size="14.00">HostPopulation</text>
</a>
</g>
<!-- NonDisplaced -->
<g id="node19" class="node"><title>NonDisplaced</title>
<a xlink:href="./#NonDisplaced" xlink:title="NonDisplaced">
<ellipse fill="none" stroke="black" cx="1184" cy="-92" rx="69.5877" ry="18"/>
<text text-anchor="middle" x="1184" y="-88.3" font-family="Helvetica,sans-Serif" font-size="14.00">NonDisplaced</text>
</a>
</g>
<!-- HostPopulation&#45;&gt;NonDisplaced -->
<g id="edge16" class="edge"><title>HostPopulation&#45;&gt;NonDisplaced</title>
<path fill="none" stroke="red" stroke-dasharray="5,2" d="M1209.18,-36.063C1205.23,-44.671 1200.36,-55.2984 1195.96,-64.9053"/>
<polygon fill="red" stroke="red" points="1192.75,-63.5105 1191.76,-74.0595 1199.11,-66.4271 1192.75,-63.5105"/>
</g>
<!-- NonDisplaced&#45;&gt;AffectedPopulation -->
<g id="edge24" class="edge"><title>NonDisplaced&#45;&gt;AffectedPopulation</title>
<path fill="none" stroke="red" stroke-dasharray="5,2" d="M1184,-110.403C1184,-122.254 1184,-138.183 1184,-151.708"/>
<polygon fill="red" stroke="red" points="1180.5,-151.916 1184,-161.916 1187.5,-151.916 1180.5,-151.916"/>
</g>
<!-- IDP -->
<g id="node20" class="node"><title>IDP</title>
<a xlink:href="./#IDP" xlink:title="IDP">
<ellipse fill="none" stroke="black" cx="797" cy="-18" rx="27" ry="18"/>
<text text-anchor="middle" x="797" y="-14.3" font-family="Helvetica,sans-Serif" font-size="14.00">IDP</text>
</a>
</g>
<!-- IDP&#45;&gt;Displaced -->
<g id="edge18" class="edge"><title>IDP&#45;&gt;Displaced</title>
<path fill="none" stroke="red" stroke-dasharray="5,2" d="M806.321,-34.9791C811.539,-43.924 818.167,-55.2867 824.089,-65.4376"/>
<polygon fill="red" stroke="red" points="821.205,-67.4407 829.267,-74.3149 827.252,-63.9136 821.205,-67.4407"/>
</g>
<!-- Injured -->
<g id="node22" class="node"><title>Injured</title>
<a xlink:href="./#Injured" xlink:title="Injured">
<ellipse fill="none" stroke="black" cx="1537" cy="-18" rx="38.9931" ry="18"/>
<text text-anchor="middle" x="1537" y="-14.3" font-family="Helvetica,sans-Serif" font-size="14.00">Injured</text>
</a>
</g>
<!-- Injured&#45;&gt;Casualty -->
<g id="edge20" class="edge"><title>Injured&#45;&gt;Casualty</title>
<path fill="none" stroke="red" stroke-dasharray="5,2" d="M1512.19,-32.0387C1490.82,-43.2721 1459.7,-59.6249 1435.66,-72.2608"/>
<polygon fill="red" stroke="red" points="1433.72,-69.3253 1426.49,-77.0757 1436.98,-75.5217 1433.72,-69.3253"/>
</g>
<!-- Missing -->
<g id="node24" class="node"><title>Missing</title>
<a xlink:href="./#Missing" xlink:title="Missing">
<ellipse fill="none" stroke="black" cx="1353" cy="-18" rx="42.7926" ry="18"/>
<text text-anchor="middle" x="1353" y="-14.3" font-family="Helvetica,sans-Serif" font-size="14.00">Missing</text>
</a>
</g>
<!-- Missing&#45;&gt;Casualty -->
<g id="edge22" class="edge"><title>Missing&#45;&gt;Casualty</title>
<path fill="none" stroke="red" stroke-dasharray="5,2" d="M1363.9,-35.6992C1369.77,-44.6957 1377.14,-55.9753 1383.68,-65.9971"/>
<polygon fill="red" stroke="red" points="1380.76,-67.9307 1389.16,-74.3913 1386.62,-64.1043 1380.76,-67.9307"/>
</g>
<!-- NonHostPopulation -->
<g id="node27" class="node"><title>NonHostPopulation</title>
<a xlink:href="./#NonHostPopulation" xlink:title="NonHostPopulation">
<ellipse fill="none" stroke="black" cx="1031" cy="-18" rx="92.8835" ry="18"/>
<text text-anchor="middle" x="1031" y="-14.3" font-family="Helvetica,sans-Serif" font-size="14.00">NonHostPopulation</text>
</a>
</g>
<!-- NonHostPopulation&#45;&gt;NonDisplaced -->
<g id="edge26" class="edge"><title>NonHostPopulation&#45;&gt;NonDisplaced</title>
<path fill="none" stroke="red" stroke-dasharray="5,2" d="M1064.58,-34.8007C1087.66,-45.6657 1118.46,-60.16 1143,-71.7073"/>
<polygon fill="red" stroke="red" points="1141.53,-74.8838 1152.07,-75.9749 1144.51,-68.55 1141.53,-74.8838"/>
</g>
<!-- Others -->
<g id="node29" class="node"><title>Others</title>
<a xlink:href="./#Others" xlink:title="Others">
<ellipse fill="none" stroke="black" cx="881" cy="-18" rx="38.9931" ry="18"/>
<text text-anchor="middle" x="881" y="-14.3" font-family="Helvetica,sans-Serif" font-size="14.00">Others</text>
</a>
</g>
<!-- Others&#45;&gt;Displaced -->
<g id="edge28" class="edge"><title>Others&#45;&gt;Displaced</title>
<path fill="none" stroke="red" stroke-dasharray="5,2" d="M871.259,-35.6992C866.19,-44.388 859.88,-55.2064 854.187,-64.9646"/>
<polygon fill="red" stroke="red" points="850.996,-63.49 848.98,-73.8914 857.042,-67.0171 850.996,-63.49"/>
</g>
<!-- RefugeesAsylumSeekers -->
<g id="node35" class="node"><title>RefugeesAsylumSeekers</title>
<a xlink:href="./#RefugeesAsylumSeekers" xlink:title="RefugeesAsylumSeekers">
<ellipse fill="none" stroke="black" cx="634" cy="-18" rx="117.779" ry="18"/>
<text text-anchor="middle" x="634" y="-14.3" font-family="Helvetica,sans-Serif" font-size="14.00">RefugeesAsylumSeekers</text>
</a>
</g>
<!-- RefugeesAsylumSeekers&#45;&gt;Displaced -->
<g id="edge34" class="edge"><title>RefugeesAsylumSeekers&#45;&gt;Displaced</title>
<path fill="none" stroke="red" stroke-dasharray="5,2" d="M678.735,-34.7117C712.94,-46.7252 759.888,-63.2143 794.127,-75.2398"/>
<polygon fill="red" stroke="red" points="793.276,-78.6504 803.871,-78.6619 795.596,-72.0459 793.276,-78.6504"/>
</g>
<!-- SexCategory&#45;&gt;BaseClass -->
<g id="edge36" class="edge"><title>SexCategory&#45;&gt;BaseClass</title>
<path fill="none" stroke="red" stroke-dasharray="5,2" d="M504.988,-374.403C504.299,-386.254 503.373,-402.183 502.587,-415.708"/>
<polygon fill="red" stroke="red" points="499.08,-415.73 501.993,-425.916 506.068,-416.136 499.08,-415.73"/>
</g>
</g>
</svg>
