<?xml version="1.0" encoding="UTF-8" standalone="no"?>
<!DOCTYPE svg PUBLIC "-//W3C//DTD SVG 1.1//EN"
 "http://www.w3.org/Graphics/SVG/1.1/DTD/svg11.dtd">
<!-- Generated by graphviz version 2.28.0 (20110507.0327)
 -->
<!-- Title: _anonymous_0 Pages: 1 -->
<svg width="1928pt" height="470pt"
 viewBox="0.00 0.00 1928.00 470.00" xmlns="http://www.w3.org/2000/svg" xmlns:xlink="http://www.w3.org/1999/xlink">
<g id="graph1" class="graph" transform="scale(1 1) rotate(0) translate(4 466)">
<title>_anonymous_0</title>
<polygon fill="white" stroke="white" points="-4,5 -4,-466 1925,-466 1925,5 -4,5"/>
<!-- AffectedPopulation -->
<g id="node1" class="node"><title>AffectedPopulation</title>
<a xlink:href="./#AffectedPopulation" xlink:title="AffectedPopulation">
<ellipse fill="none" stroke="black" cx="1035" cy="-180" rx="89.8845" ry="18"/>
<text text-anchor="middle" x="1035" y="-176.3" font-family="Helvetica,sans-Serif" font-size="14.00">AffectedPopulation</text>
</a>
</g>
<!-- Population -->
<g id="node3" class="node"><title>Population</title>
<a xlink:href="./#Population" xlink:title="Population">
<ellipse fill="none" stroke="black" cx="879" cy="-268" rx="53.8905" ry="18"/>
<text text-anchor="middle" x="879" y="-264.3" font-family="Helvetica,sans-Serif" font-size="14.00">Population</text>
</a>
</g>
<!-- AffectedPopulation&#45;&gt;Population -->
<g id="edge2" class="edge"><title>AffectedPopulation&#45;&gt;Population</title>
<path fill="none" stroke="red" stroke-dasharray="5,2" d="M1005.66,-197.176C979.807,-211.427 942.084,-232.223 914.532,-247.412"/>
<polygon fill="red" stroke="red" points="912.677,-244.438 905.61,-252.331 916.057,-250.568 912.677,-244.438"/>
</g>
<!-- Emergency -->
<g id="node40" class="node"><title>Emergency</title>
<a xlink:href="./#Emergency" xlink:title="Emergency">
<ellipse fill="none" stroke="gray" cx="1035" cy="-268" rx="57.6901" ry="18"/>
<text text-anchor="middle" x="1035" y="-264.3" font-family="Helvetica,sans-Serif" font-size="14.00" fill="gray">Emergency</text>
</a>
</g>
<!-- AffectedPopulation&#45;&gt;Emergency -->
<g id="edge40" class="edge"><title>AffectedPopulation&#45;&gt;Emergency</title>
<a xlink:href="./#affectedBy" xlink:title="affectedBy">
<path fill="none" stroke="darkslategray" d="M1035,-198.403C1035,-210.254 1035,-226.183 1035,-239.708"/>
<polygon fill="darkslategray" stroke="darkslategray" points="1031.5,-239.916 1035,-249.916 1038.5,-239.916 1031.5,-239.916"/>
</a>
<a xlink:href="./#affectedBy" xlink:title="affectedBy">
<text text-anchor="middle" x="1070" y="-220.3" font-family="Helvetica,sans-Serif" font-size="14.00">affectedBy</text>
</a>
</g>
<!-- AgeGroup -->
<g id="node4" class="node"><title>AgeGroup</title>
<a xlink:href="./#AgeGroup" xlink:title="AgeGroup">
<ellipse fill="none" stroke="black" cx="644" cy="-356" rx="53.8905" ry="18"/>
<text text-anchor="middle" x="644" y="-352.3" font-family="Helvetica,sans-Serif" font-size="14.00">AgeGroup</text>
</a>
</g>
<!-- Population&#45;&gt;AgeGroup -->
<g id="edge42" class="edge"><title>Population&#45;&gt;AgeGroup</title>
<a xlink:href="./#ageGroup" xlink:title="ageGroup">
<path fill="none" stroke="darkslategray" d="M826.359,-271.283C769.967,-274.776 685.286,-283.373 661,-304 653.944,-309.993 649.804,-318.998 647.379,-327.781"/>
<polygon fill="darkslategray" stroke="darkslategray" points="643.906,-327.287 645.249,-337.797 650.753,-328.744 643.906,-327.287"/>
</a>
<a xlink:href="./#ageGroup" xlink:title="ageGroup">
<text text-anchor="middle" x="693" y="-308.3" font-family="Helvetica,sans-Serif" font-size="14.00">ageGroup</text>
</a>
</g>
<!-- BaseClass -->
<g id="node5" class="node"><title>BaseClass</title>
<a xlink:href="./#SexCategory" xlink:title="BaseClass">
<ellipse fill="none" stroke="gray" cx="493" cy="-444" rx="55.7903" ry="18"/>
<text text-anchor="middle" x="493" y="-440.3" font-family="Helvetica,sans-Serif" font-size="14.00" fill="gray">BaseClass</text>
</a>
</g>
<!-- Population&#45;&gt;BaseClass -->
<g id="edge30" class="edge"><title>Population&#45;&gt;BaseClass</title>
<path fill="none" stroke="red" stroke-dasharray="5,2" d="M826.749,-272.012C778.986,-275.899 706.881,-284.639 647,-304 615.603,-314.151 606.772,-317.394 581,-338 552.136,-361.078 525.893,-394.821 509.722,-417.782"/>
<polygon fill="red" stroke="red" points="506.637,-416.089 503.832,-426.306 512.396,-420.069 506.637,-416.089"/>
</g>
<!-- http://xmlns.com/foaf/0.1/Group -->
<g id="node32" class="node"><title>http://xmlns.com/foaf/0.1/Group</title>
<a xlink:href="./#Population" xlink:title="http://xmlns.com/foaf/0.1/Group">
<ellipse fill="none" stroke="gray" cx="1119" cy="-356" rx="139.976" ry="18"/>
<text text-anchor="middle" x="1119" y="-352.3" font-family="Helvetica,sans-Serif" font-size="14.00" fill="gray">http://xmlns.com/foaf/0.1/Group</text>
</a>
</g>
<!-- Population&#45;&gt;http://xmlns.com/foaf/0.1/Group -->
<g id="edge32" class="edge"><title>Population&#45;&gt;http://xmlns.com/foaf/0.1/Group</title>
<path fill="none" stroke="red" stroke-dasharray="5,2" d="M914.155,-281.597C953.66,-295.753 1018.28,-318.909 1064.38,-335.427"/>
<polygon fill="red" stroke="red" points="1063.32,-338.767 1073.92,-338.846 1065.68,-332.177 1063.32,-338.767"/>
</g>
<!-- SexCategory -->
<g id="node36" class="node"><title>SexCategory</title>
<a xlink:href="./#SexCategory" xlink:title="SexCategory">
<ellipse fill="none" stroke="black" cx="459" cy="-356" rx="64.189" ry="18"/>
<text text-anchor="middle" x="459" y="-352.3" font-family="Helvetica,sans-Serif" font-size="14.00">SexCategory</text>
</a>
</g>
<!-- Population&#45;&gt;SexCategory -->
<g id="edge56" class="edge"><title>Population&#45;&gt;SexCategory</title>
<a xlink:href="./#sexCategory" xlink:title="sexCategory">
<path fill="none" stroke="darkslategray" d="M825.71,-269.491C717.983,-271.039 482.43,-277.455 458,-304 452.202,-310.3 450.926,-319.117 451.583,-327.65"/>
<polygon fill="darkslategray" stroke="darkslategray" points="448.158,-328.395 453.171,-337.729 455.073,-327.307 448.158,-328.395"/>
</a>
<a xlink:href="./#sexCategory" xlink:title="sexCategory">
<text text-anchor="middle" x="498.5" y="-308.3" font-family="Helvetica,sans-Serif" font-size="14.00">sexCategory</text>
</a>
</g>
<!-- http://www.w3.org/2001/XMLSchema#int -->
<g id="node43" class="node"><title>http://www.w3.org/2001/XMLSchema#int</title>
<a xlink:href="./#http://www.w3.org/2001/XMLSchema#int" xlink:title="http://www.w3.org/2001/XMLSchema#int">
<ellipse fill="none" stroke="gray" cx="744" cy="-444" rx="176.569" ry="18"/>
<text text-anchor="middle" x="744" y="-440.3" font-family="Helvetica,sans-Serif" font-size="14.00" fill="gray">http://www.w3.org/2001/XMLSchema#int</text>
</a>
</g>
<!-- Population&#45;&gt;http://www.w3.org/2001/XMLSchema#int -->
<g id="edge46" class="edge"><title>Population&#45;&gt;http://www.w3.org/2001/XMLSchema#int</title>
<a xlink:href="./#householdCount" xlink:title="householdCount">
<path fill="none" stroke="darkslategray" d="M838.71,-279.893C809.767,-289.968 772.543,-308.017 753,-338 737.993,-361.024 737.499,-393.179 739.652,-415.823"/>
<polygon fill="darkslategray" stroke="darkslategray" points="736.181,-416.27 740.828,-425.791 743.133,-415.45 736.181,-416.27"/>
</a>
<a xlink:href="./#householdCount" xlink:title="householdCount">
<text text-anchor="middle" x="805" y="-352.3" font-family="Helvetica,sans-Serif" font-size="14.00">householdCount</text>
</a>
</g>
<!-- Population&#45;&gt;http://www.w3.org/2001/XMLSchema#int -->
<g id="edge52" class="edge"><title>Population&#45;&gt;http://www.w3.org/2001/XMLSchema#int</title>
<a xlink:href="./#personCount" xlink:title="personCount">
<path fill="none" stroke="darkslategray" d="M879.426,-286.268C879.134,-308.53 875.686,-347.522 857,-374 842.155,-395.034 818.671,-410.87 796.948,-422.031"/>
<polygon fill="darkslategray" stroke="darkslategray" points="795.213,-418.983 787.776,-426.529 798.296,-425.268 795.213,-418.983"/>
</a>
<a xlink:href="./#personCount" xlink:title="personCount">
<text text-anchor="middle" x="914" y="-352.3" font-family="Helvetica,sans-Serif" font-size="14.00">personCount</text>
</a>
</g>
<!-- http://www.w3.org/2000/01/rdf&#45;schema#Literal -->
<g id="node46" class="node"><title>http://www.w3.org/2000/01/rdf&#45;schema#Literal</title>
<a xlink:href="./#http://www.w3.org/2000/01/rdf-schema#Literal" xlink:title="http://www.w3.org/2000/01/rdf&#45;schema#Literal">
<ellipse fill="none" stroke="gray" cx="1476" cy="-356" rx="198.765" ry="18"/>
<text text-anchor="middle" x="1476" y="-352.3" font-family="Helvetica,sans-Serif" font-size="14.00" fill="gray">http://www.w3.org/2000/01/rdf&#45;schema#Literal</text>
</a>
</g>
<!-- Population&#45;&gt;http://www.w3.org/2000/01/rdf&#45;schema#Literal -->
<g id="edge48" class="edge"><title>Population&#45;&gt;http://www.w3.org/2000/01/rdf&#45;schema#Literal</title>
<a xlink:href="./#method" xlink:title="method">
<path fill="none" stroke="darkslategray" d="M923.737,-278.032C937.868,-280.754 953.562,-283.642 968,-286 1098.49,-307.309 1248.6,-327.122 1351.61,-339.999"/>
<polygon fill="darkslategray" stroke="darkslategray" points="1351.39,-343.499 1361.75,-341.263 1352.26,-336.552 1351.39,-343.499"/>
</a>
<a xlink:href="./#method" xlink:title="method">
<text text-anchor="middle" x="1214.5" y="-308.3" font-family="Helvetica,sans-Serif" font-size="14.00">method</text>
</a>
</g>
<!-- Country -->
<g id="node48" class="node"><title>Country</title>
<a xlink:href="./#Country" xlink:title="Country">
<ellipse fill="none" stroke="gray" cx="1735" cy="-356" rx="42.4939" ry="18"/>
<text text-anchor="middle" x="1735" y="-352.3" font-family="Helvetica,sans-Serif" font-size="14.00" fill="gray">Country</text>
</a>
</g>
<!-- Population&#45;&gt;Country -->
<g id="edge50" class="edge"><title>Population&#45;&gt;Country</title>
<a xlink:href="./#nationality" xlink:title="nationality">
<path fill="none" stroke="darkslategray" d="M922.738,-278.467C937.098,-281.277 953.176,-284.106 968,-286 1284.05,-326.371 1370.52,-275.78 1683,-338 1686.82,-338.761 1690.75,-339.714 1694.66,-340.779"/>
<polygon fill="darkslategray" stroke="darkslategray" points="1693.67,-344.136 1704.25,-343.609 1695.65,-337.422 1693.67,-344.136"/>
</a>
<a xlink:href="./#nationality" xlink:title="nationality">
<text text-anchor="middle" x="1594" y="-308.3" font-family="Helvetica,sans-Serif" font-size="14.00">nationality</text>
</a>
</g>
<!-- Organisation -->
<g id="node54" class="node"><title>Organisation</title>
<a xlink:href="./#Organisation" xlink:title="Organisation">
<ellipse fill="none" stroke="gray" cx="1858" cy="-356" rx="62.2891" ry="18"/>
<text text-anchor="middle" x="1858" y="-352.3" font-family="Helvetica,sans-Serif" font-size="14.00" fill="gray">Organisation</text>
</a>
</g>
<!-- Population&#45;&gt;Organisation -->
<g id="edge58" class="edge"><title>Population&#45;&gt;Organisation</title>
<a xlink:href="./#source" xlink:title="source">
<path fill="none" stroke="darkslategray" d="M922.246,-278.714C936.717,-281.575 952.986,-284.372 968,-286 1260.17,-317.673 1337.24,-268.746 1629,-304 1690.41,-311.42 1759.54,-327.983 1805.63,-340.23"/>
<polygon fill="darkslategray" stroke="darkslategray" points="1804.82,-343.638 1815.39,-342.851 1806.64,-336.878 1804.82,-343.638"/>
</a>
<a xlink:href="./#source" xlink:title="source">
<text text-anchor="middle" x="1739" y="-308.3" font-family="Helvetica,sans-Serif" font-size="14.00">source</text>
</a>
</g>
<!-- AgeGroup&#45;&gt;BaseClass -->
<g id="edge4" class="edge"><title>AgeGroup&#45;&gt;BaseClass</title>
<path fill="none" stroke="red" stroke-dasharray="5,2" d="M621.303,-372.41C605.506,-382.9 583.807,-396.849 564,-408 554.006,-413.626 542.983,-419.304 532.664,-424.401"/>
<polygon fill="red" stroke="red" points="530.889,-421.373 523.434,-428.901 533.957,-427.665 530.889,-421.373"/>
</g>
<!-- AgeGroup&#45;&gt;http://www.w3.org/2001/XMLSchema#int -->
<g id="edge44" class="edge"><title>AgeGroup&#45;&gt;http://www.w3.org/2001/XMLSchema#int</title>
<a xlink:href="./#fromAge" xlink:title="fromAge">
<path fill="none" stroke="darkslategray" d="M623.784,-372.686C612.904,-383.044 603.331,-396.733 612,-408 617.348,-414.951 630.628,-420.807 646.81,-425.621"/>
<polygon fill="darkslategray" stroke="darkslategray" points="646.064,-429.046 656.635,-428.335 647.928,-422.299 646.064,-429.046"/>
</a>
<a xlink:href="./#fromAge" xlink:title="fromAge">
<text text-anchor="middle" x="640" y="-396.3" font-family="Helvetica,sans-Serif" font-size="14.00">fromAge</text>
</a>
</g>
<!-- AgeGroup&#45;&gt;http://www.w3.org/2001/XMLSchema#int -->
<g id="edge60" class="edge"><title>AgeGroup&#45;&gt;http://www.w3.org/2001/XMLSchema#int</title>
<a xlink:href="./#toAge" xlink:title="toAge">
<path fill="none" stroke="darkslategray" d="M657.476,-373.585C666.41,-384.062 678.711,-397.545 691,-408 696.135,-412.368 701.84,-416.647 707.551,-420.629"/>
<polygon fill="darkslategray" stroke="darkslategray" points="705.606,-423.539 715.855,-426.227 709.519,-417.735 705.606,-423.539"/>
</a>
<a xlink:href="./#toAge" xlink:title="toAge">
<text text-anchor="middle" x="710.5" y="-396.3" font-family="Helvetica,sans-Serif" font-size="14.00">toAge</text>
</a>
</g>
<!-- AgeGroupSet -->
<g id="node7" class="node"><title>AgeGroupSet</title>
<a xlink:href="./#AgeGroupSet" xlink:title="AgeGroupSet">
<ellipse fill="none" stroke="black" cx="259" cy="-356" rx="67.6881" ry="18"/>
<text text-anchor="middle" x="259" y="-352.3" font-family="Helvetica,sans-Serif" font-size="14.00">AgeGroupSet</text>
</a>
</g>
<!-- AgeGroupSet&#45;&gt;BaseClass -->
<g id="edge6" class="edge"><title>AgeGroupSet&#45;&gt;BaseClass</title>
<path fill="none" stroke="red" stroke-dasharray="5,2" d="M296.856,-370.913C338.104,-386.072 404.056,-410.311 447.941,-426.44"/>
<polygon fill="red" stroke="red" points="446.905,-429.788 457.499,-429.953 449.32,-423.218 446.905,-429.788"/>
</g>
<!-- http://www.w3.org/1999/02/22&#45;rdf&#45;syntax&#45;ns#Bag -->
<g id="node9" class="node"><title>http://www.w3.org/1999/02/22&#45;rdf&#45;syntax&#45;ns#Bag</title>
<a xlink:href="./#AgeGroupSet" xlink:title="http://www.w3.org/1999/02/22&#45;rdf&#45;syntax&#45;ns#Bag">
<ellipse fill="none" stroke="gray" cx="209" cy="-444" rx="209.863" ry="18"/>
<text text-anchor="middle" x="209" y="-440.3" font-family="Helvetica,sans-Serif" font-size="14.00" fill="gray">http://www.w3.org/1999/02/22&#45;rdf&#45;syntax&#45;ns#Bag</text>
</a>
</g>
<!-- AgeGroupSet&#45;&gt;http://www.w3.org/1999/02/22&#45;rdf&#45;syntax&#45;ns#Bag -->
<g id="edge8" class="edge"><title>AgeGroupSet&#45;&gt;http://www.w3.org/1999/02/22&#45;rdf&#45;syntax&#45;ns#Bag</title>
<path fill="none" stroke="red" stroke-dasharray="5,2" d="M249.122,-373.991C241.978,-386.278 232.195,-403.105 224.078,-417.066"/>
<polygon fill="red" stroke="red" points="221.029,-415.346 219.029,-425.75 227.081,-418.864 221.029,-415.346"/>
</g>
<!-- Casualty -->
<g id="node11" class="node"><title>Casualty</title>
<a xlink:href="./#Casualty" xlink:title="Casualty">
<ellipse fill="none" stroke="black" cx="1189" cy="-92" rx="46.2923" ry="18"/>
<text text-anchor="middle" x="1189" y="-88.3" font-family="Helvetica,sans-Serif" font-size="14.00">Casualty</text>
</a>
</g>
<!-- Casualty&#45;&gt;AffectedPopulation -->
<g id="edge10" class="edge"><title>Casualty&#45;&gt;AffectedPopulation</title>
<path fill="none" stroke="red" stroke-dasharray="5,2" d="M1163.57,-107.201C1138.82,-121.02 1100.93,-142.182 1072.68,-157.957"/>
<polygon fill="red" stroke="red" points="1070.9,-154.941 1063.88,-162.873 1074.32,-161.053 1070.9,-154.941"/>
</g>
<!-- Dead -->
<g id="node13" class="node"><title>Dead</title>
<a xlink:href="./#Dead" xlink:title="Dead">
<ellipse fill="none" stroke="black" cx="1236" cy="-18" rx="33.2948" ry="18"/>
<text text-anchor="middle" x="1236" y="-14.3" font-family="Helvetica,sans-Serif" font-size="14.00">Dead</text>
</a>
</g>
<!-- Dead&#45;&gt;Casualty -->
<g id="edge12" class="edge"><title>Dead&#45;&gt;Casualty</title>
<path fill="none" stroke="red" stroke-dasharray="5,2" d="M1225.33,-35.3379C1219.47,-44.3232 1212.07,-55.6657 1205.47,-65.7638"/>
<polygon fill="red" stroke="red" points="1202.48,-63.9401 1199.95,-74.2271 1208.35,-67.7665 1202.48,-63.9401"/>
</g>
<!-- Displaced -->
<g id="node15" class="node"><title>Displaced</title>
<a xlink:href="./#Displaced" xlink:title="Displaced">
<ellipse fill="none" stroke="black" cx="588" cy="-92" rx="51.9908" ry="18"/>
<text text-anchor="middle" x="588" y="-88.3" font-family="Helvetica,sans-Serif" font-size="14.00">Displaced</text>
</a>
</g>
<!-- Displaced&#45;&gt;AffectedPopulation -->
<g id="edge14" class="edge"><title>Displaced&#45;&gt;AffectedPopulation</title>
<path fill="none" stroke="red" stroke-dasharray="5,2" d="M632.083,-101.481C709.226,-116.323 869.368,-147.133 962.858,-165.12"/>
<polygon fill="red" stroke="red" points="962.324,-168.582 972.805,-167.034 963.647,-161.708 962.324,-168.582"/>
</g>
<!-- http://www.opengis.net/geosparql#Feature -->
<g id="node51" class="node"><title>http://www.opengis.net/geosparql#Feature</title>
<a xlink:href="./#http://www.opengis.net/geosparql#Feature" xlink:title="http://www.opengis.net/geosparql#Feature">
<ellipse fill="none" stroke="gray" cx="576" cy="-180" rx="183.867" ry="18"/>
<text text-anchor="middle" x="576" y="-176.3" font-family="Helvetica,sans-Serif" font-size="14.00" fill="gray">http://www.opengis.net/geosparql#Feature</text>
</a>
</g>
<!-- Displaced&#45;&gt;http://www.opengis.net/geosparql#Feature -->
<g id="edge54" class="edge"><title>Displaced&#45;&gt;http://www.opengis.net/geosparql#Feature</title>
<a xlink:href="./#placeOfOrigin" xlink:title="placeOfOrigin">
<path fill="none" stroke="darkslategray" d="M585.629,-109.991C583.98,-121.81 581.745,-137.829 579.843,-151.458"/>
<polygon fill="darkslategray" stroke="darkslategray" points="576.323,-151.362 578.407,-161.75 583.255,-152.33 576.323,-151.362"/>
</a>
<a xlink:href="./#placeOfOrigin" xlink:title="placeOfOrigin">
<text text-anchor="middle" x="628" y="-132.3" font-family="Helvetica,sans-Serif" font-size="14.00">placeOfOrigin</text>
</a>
</g>
<!-- HostPopulation -->
<g id="node17" class="node"><title>HostPopulation</title>
<a xlink:href="./#HostPopulation" xlink:title="HostPopulation">
<ellipse fill="none" stroke="black" cx="1009" cy="-18" rx="73.387" ry="18"/>
<text text-anchor="middle" x="1009" y="-14.3" font-family="Helvetica,sans-Serif" font-size="14.00">HostPopulation</text>
</a>
</g>
<!-- NonDisplaced -->
<g id="node19" class="node"><title>NonDisplaced</title>
<a xlink:href="./#NonDisplaced" xlink:title="NonDisplaced">
<ellipse fill="none" stroke="black" cx="1009" cy="-92" rx="68.7879" ry="18"/>
<text text-anchor="middle" x="1009" y="-88.3" font-family="Helvetica,sans-Serif" font-size="14.00">NonDisplaced</text>
</a>
</g>
<!-- HostPopulation&#45;&gt;NonDisplaced -->
<g id="edge16" class="edge"><title>HostPopulation&#45;&gt;NonDisplaced</title>
<path fill="none" stroke="red" stroke-dasharray="5,2" d="M1009,-36.063C1009,-44.1928 1009,-54.1239 1009,-63.2953"/>
<polygon fill="red" stroke="red" points="1005.5,-63.5593 1009,-73.5593 1012.5,-63.5594 1005.5,-63.5593"/>
</g>
<!-- NonDisplaced&#45;&gt;AffectedPopulation -->
<g id="edge24" class="edge"><title>NonDisplaced&#45;&gt;AffectedPopulation</title>
<path fill="none" stroke="red" stroke-dasharray="5,2" d="M1014.14,-109.991C1017.75,-121.927 1022.65,-138.147 1026.8,-151.862"/>
<polygon fill="red" stroke="red" points="1023.54,-153.191 1029.78,-161.75 1030.24,-151.165 1023.54,-153.191"/>
</g>
<!-- IDP -->
<g id="node20" class="node"><title>IDP</title>
<a xlink:href="./#IDP" xlink:title="IDP">
<ellipse fill="none" stroke="black" cx="588" cy="-18" rx="27" ry="18"/>
<text text-anchor="middle" x="588" y="-14.3" font-family="Helvetica,sans-Serif" font-size="14.00">IDP</text>
</a>
</g>
<!-- IDP&#45;&gt;Displaced -->
<g id="edge18" class="edge"><title>IDP&#45;&gt;Displaced</title>
<path fill="none" stroke="red" stroke-dasharray="5,2" d="M588,-36.063C588,-44.1928 588,-54.1239 588,-63.2953"/>
<polygon fill="red" stroke="red" points="584.5,-63.5593 588,-73.5593 591.5,-63.5594 584.5,-63.5593"/>
</g>
<!-- Injured -->
<g id="node22" class="node"><title>Injured</title>
<a xlink:href="./#Injured" xlink:title="Injured">
<ellipse fill="none" stroke="black" cx="1326" cy="-18" rx="38.9931" ry="18"/>
<text text-anchor="middle" x="1326" y="-14.3" font-family="Helvetica,sans-Serif" font-size="14.00">Injured</text>
</a>
</g>
<!-- Injured&#45;&gt;Casualty -->
<g id="edge20" class="edge"><title>Injured&#45;&gt;Casualty</title>
<path fill="none" stroke="red" stroke-dasharray="5,2" d="M1301.19,-32.0387C1279.82,-43.2721 1248.7,-59.6249 1224.66,-72.2608"/>
<polygon fill="red" stroke="red" points="1222.72,-69.3253 1215.49,-77.0757 1225.98,-75.5217 1222.72,-69.3253"/>
</g>
<!-- Missing -->
<g id="node24" class="node"><title>Missing</title>
<a xlink:href="./#Missing" xlink:title="Missing">
<ellipse fill="none" stroke="black" cx="1143" cy="-18" rx="42.4939" ry="18"/>
<text text-anchor="middle" x="1143" y="-14.3" font-family="Helvetica,sans-Serif" font-size="14.00">Missing</text>
</a>
</g>
<!-- Missing&#45;&gt;Casualty -->
<g id="edge22" class="edge"><title>Missing&#45;&gt;Casualty</title>
<path fill="none" stroke="red" stroke-dasharray="5,2" d="M1153.67,-35.6992C1159.36,-44.6048 1166.48,-55.7476 1172.83,-65.693"/>
<polygon fill="red" stroke="red" points="1170.06,-67.8487 1178.39,-74.3913 1175.95,-64.08 1170.06,-67.8487"/>
</g>
<!-- NonHostPopulation -->
<g id="node27" class="node"><title>NonHostPopulation</title>
<a xlink:href="./#NonHostPopulation" xlink:title="NonHostPopulation">
<ellipse fill="none" stroke="black" cx="828" cy="-18" rx="89.8845" ry="18"/>
<text text-anchor="middle" x="828" y="-14.3" font-family="Helvetica,sans-Serif" font-size="14.00">NonHostPopulation</text>
</a>
</g>
<!-- NonHostPopulation&#45;&gt;NonDisplaced -->
<g id="edge26" class="edge"><title>NonHostPopulation&#45;&gt;NonDisplaced</title>
<path fill="none" stroke="red" stroke-dasharray="5,2" d="M866.385,-34.2693C894.758,-45.5555 933.496,-60.9653 963.439,-72.8763"/>
<polygon fill="red" stroke="red" points="962.242,-76.1667 972.827,-76.6109 964.829,-69.6625 962.242,-76.1667"/>
</g>
<!-- Others -->
<g id="node29" class="node"><title>Others</title>
<a xlink:href="./#Others" xlink:title="Others">
<ellipse fill="none" stroke="black" cx="671" cy="-18" rx="38.1938" ry="18"/>
<text text-anchor="middle" x="671" y="-14.3" font-family="Helvetica,sans-Serif" font-size="14.00">Others</text>
</a>
</g>
<!-- Others&#45;&gt;Displaced -->
<g id="edge28" class="edge"><title>Others&#45;&gt;Displaced</title>
<path fill="none" stroke="red" stroke-dasharray="5,2" d="M653.398,-34.2693C641.97,-44.1828 626.874,-57.2778 614.066,-68.3886"/>
<polygon fill="red" stroke="red" points="611.7,-65.8074 606.44,-75.0041 616.287,-71.0952 611.7,-65.8074"/>
</g>
<!-- RefugeesAsylumSeekers -->
<g id="node34" class="node"><title>RefugeesAsylumSeekers</title>
<a xlink:href="./#RefugeesAsylumSeekers" xlink:title="RefugeesAsylumSeekers">
<ellipse fill="none" stroke="black" cx="427" cy="-18" rx="116.18" ry="18"/>
<text text-anchor="middle" x="427" y="-14.3" font-family="Helvetica,sans-Serif" font-size="14.00">RefugeesAsylumSeekers</text>
</a>
</g>
<!-- RefugeesAsylumSeekers&#45;&gt;Displaced -->
<g id="edge34" class="edge"><title>RefugeesAsylumSeekers&#45;&gt;Displaced</title>
<path fill="none" stroke="red" stroke-dasharray="5,2" d="M463.132,-35.1582C488.481,-46.4945 522.366,-61.6483 548.442,-73.3093"/>
<polygon fill="red" stroke="red" points="547.107,-76.5465 557.665,-77.4339 549.965,-70.1564 547.107,-76.5465"/>
</g>
<!-- SexCategory&#45;&gt;BaseClass -->
<g id="edge36" class="edge"><title>SexCategory&#45;&gt;BaseClass</title>
<path fill="none" stroke="red" stroke-dasharray="5,2" d="M465.717,-373.991C470.514,-386.123 477.06,-402.68 482.537,-416.535"/>
<polygon fill="red" stroke="red" points="479.365,-418.032 486.297,-426.044 485.875,-415.458 479.365,-418.032"/>
</g>
<!-- TotalPopulation -->
<g id="node38" class="node"><title>TotalPopulation</title>
<a xlink:href="./#TotalPopulation" xlink:title="TotalPopulation">
<ellipse fill="none" stroke="black" cx="853" cy="-180" rx="74.9875" ry="18"/>
<text text-anchor="middle" x="853" y="-176.3" font-family="Helvetica,sans-Serif" font-size="14.00">TotalPopulation</text>
</a>
</g>
<!-- TotalPopulation&#45;&gt;Population -->
<g id="edge38" class="edge"><title>TotalPopulation&#45;&gt;Population</title>
<path fill="none" stroke="red" stroke-dasharray="5,2" d="M858.137,-197.991C861.769,-210.005 866.713,-226.359 870.877,-240.131"/>
<polygon fill="red" stroke="red" points="867.63,-241.485 873.874,-250.044 874.33,-239.459 867.63,-241.485"/>
</g>
</g>
</svg>
