<?xml version="1.0" encoding="UTF-8" standalone="no"?>
<!DOCTYPE svg PUBLIC "-//W3C//DTD SVG 1.1//EN"
 "http://www.w3.org/Graphics/SVG/1.1/DTD/svg11.dtd">
<!-- Generated by graphviz version 2.28.0 (20121022.1408)
 -->
<!-- Title: _anonymous_0 Pages: 1 -->
<svg width="1902pt" height="470pt"
 viewBox="0.00 0.00 1902.00 470.00" xmlns="http://www.w3.org/2000/svg" xmlns:xlink="http://www.w3.org/1999/xlink">
<g id="graph1" class="graph" transform="scale(1 1) rotate(0) translate(4 466)">
<title>_anonymous_0</title>
<polygon fill="white" stroke="white" points="-4,5 -4,-466 1899,-466 1899,5 -4,5"/>
<!-- AffectedPopulation -->
<g id="node1" class="node"><title>AffectedPopulation</title>
<a xlink:href="./#AffectedPopulation" xlink:title="AffectedPopulation">
<ellipse fill="none" stroke="black" cx="1049" cy="-180" rx="90.1842" ry="18"/>
<text text-anchor="middle" x="1049" y="-176.3" font-family="Helvetica,sans-Serif" font-size="14.00">AffectedPopulation</text>
</a>
</g>
<!-- Population -->
<g id="node3" class="node"><title>Population</title>
<a xlink:href="./#Population" xlink:title="Population">
<ellipse fill="none" stroke="black" cx="891" cy="-268" rx="54.6905" ry="18"/>
<text text-anchor="middle" x="891" y="-264.3" font-family="Helvetica,sans-Serif" font-size="14.00">Population</text>
</a>
</g>
<!-- AffectedPopulation&#45;&gt;Population -->
<g id="edge2" class="edge"><title>AffectedPopulation&#45;&gt;Population</title>
<path fill="none" stroke="red" stroke-dasharray="5,2" d="M1019.28,-197.176C993.099,-211.427 954.893,-232.223 926.987,-247.412"/>
<polygon fill="red" stroke="red" points="925.061,-244.476 917.951,-252.331 928.407,-250.624 925.061,-244.476"/>
</g>
<!-- Emergency -->
<g id="node40" class="node"><title>Emergency</title>
<a xlink:href="./#Emergency" xlink:title="Emergency">
<ellipse fill="none" stroke="gray" cx="1049" cy="-268" rx="59.2899" ry="18"/>
<text text-anchor="middle" x="1049" y="-264.3" font-family="Helvetica,sans-Serif" font-size="14.00" fill="gray">Emergency</text>
</a>
</g>
<!-- AffectedPopulation&#45;&gt;Emergency -->
<g id="edge40" class="edge"><title>AffectedPopulation&#45;&gt;Emergency</title>
<a xlink:href="./#affectedBy" xlink:title="affectedBy">
<path fill="none" stroke="darkslategray" d="M1049,-198.403C1049,-210.254 1049,-226.183 1049,-239.708"/>
<polygon fill="darkslategray" stroke="darkslategray" points="1045.5,-239.916 1049,-249.916 1052.5,-239.916 1045.5,-239.916"/>
</a>
<a xlink:href="./#affectedBy" xlink:title="affectedBy">
<text text-anchor="middle" x="1084.5" y="-220.3" font-family="Helvetica,sans-Serif" font-size="14.00">affectedBy</text>
</a>
</g>
<!-- AgeGroup -->
<g id="node4" class="node"><title>AgeGroup</title>
<a xlink:href="./#AgeGroup" xlink:title="AgeGroup">
<ellipse fill="none" stroke="black" cx="655" cy="-356" rx="53.8905" ry="18"/>
<text text-anchor="middle" x="655" y="-352.3" font-family="Helvetica,sans-Serif" font-size="14.00">AgeGroup</text>
</a>
</g>
<!-- Population&#45;&gt;AgeGroup -->
<g id="edge42" class="edge"><title>Population&#45;&gt;AgeGroup</title>
<a xlink:href="./#ageGroup" xlink:title="ageGroup">
<path fill="none" stroke="darkslategray" d="M837.607,-271.284C780.959,-274.769 696.328,-283.352 672,-304 664.942,-309.99 660.801,-318.995 658.377,-327.778"/>
<polygon fill="darkslategray" stroke="darkslategray" points="654.904,-327.285 656.247,-337.794 661.75,-328.741 654.904,-327.285"/>
</a>
<a xlink:href="./#ageGroup" xlink:title="ageGroup">
<text text-anchor="middle" x="704" y="-308.3" font-family="Helvetica,sans-Serif" font-size="14.00">ageGroup</text>
</a>
</g>
<!-- BaseClass -->
<g id="node5" class="node"><title>BaseClass</title>
<a xlink:href="./#SexCategory" xlink:title="BaseClass">
<ellipse fill="none" stroke="gray" cx="501" cy="-444" rx="55.7903" ry="18"/>
<text text-anchor="middle" x="501" y="-440.3" font-family="Helvetica,sans-Serif" font-size="14.00" fill="gray">BaseClass</text>
</a>
</g>
<!-- Population&#45;&gt;BaseClass -->
<g id="edge30" class="edge"><title>Population&#45;&gt;BaseClass</title>
<path fill="none" stroke="red" stroke-dasharray="5,2" d="M838.057,-272.021C790.086,-275.906 717.945,-284.639 658,-304 626.6,-314.141 617.941,-317.608 592,-338 562.403,-361.266 535.073,-395.187 518.245,-418.125"/>
<polygon fill="red" stroke="red" points="515.336,-416.175 512.327,-426.334 521.015,-420.269 515.336,-416.175"/>
</g>
<!-- http://xmlns.com/foaf/0.1/Group -->
<g id="node32" class="node"><title>http://xmlns.com/foaf/0.1/Group</title>
<a xlink:href="./#Population" xlink:title="http://xmlns.com/foaf/0.1/Group">
<ellipse fill="none" stroke="gray" cx="1132" cy="-356" rx="139.976" ry="18"/>
<text text-anchor="middle" x="1132" y="-352.3" font-family="Helvetica,sans-Serif" font-size="14.00" fill="gray">http://xmlns.com/foaf/0.1/Group</text>
</a>
</g>
<!-- Population&#45;&gt;http://xmlns.com/foaf/0.1/Group -->
<g id="edge32" class="edge"><title>Population&#45;&gt;http://xmlns.com/foaf/0.1/Group</title>
<path fill="none" stroke="red" stroke-dasharray="5,2" d="M926.56,-281.69C966.288,-295.866 1031.08,-318.986 1077.27,-335.471"/>
<polygon fill="red" stroke="red" points="1076.24,-338.818 1086.83,-338.882 1078.59,-332.225 1076.24,-338.818"/>
</g>
<!-- SexCategory -->
<g id="node36" class="node"><title>SexCategory</title>
<a xlink:href="./#SexCategory" xlink:title="SexCategory">
<ellipse fill="none" stroke="black" cx="467" cy="-356" rx="66.0889" ry="18"/>
<text text-anchor="middle" x="467" y="-352.3" font-family="Helvetica,sans-Serif" font-size="14.00">SexCategory</text>
</a>
</g>
<!-- Population&#45;&gt;SexCategory -->
<g id="edge56" class="edge"><title>Population&#45;&gt;SexCategory</title>
<a xlink:href="./#sexCategory" xlink:title="sexCategory">
<path fill="none" stroke="darkslategray" d="M836.663,-269.448C727.47,-270.916 489.699,-277.188 465,-304 459.195,-310.301 458.06,-319.118 458.896,-327.651"/>
<polygon fill="darkslategray" stroke="darkslategray" points="455.494,-328.509 460.711,-337.73 462.384,-327.268 455.494,-328.509"/>
</a>
<a xlink:href="./#sexCategory" xlink:title="sexCategory">
<text text-anchor="middle" x="507" y="-308.3" font-family="Helvetica,sans-Serif" font-size="14.00">sexCategory</text>
</a>
</g>
<!-- http://www.w3.org/2001/XMLSchema#int -->
<g id="node43" class="node"><title>http://www.w3.org/2001/XMLSchema#int</title>
<a xlink:href="./#http://www.w3.org/2001/XMLSchema#int" xlink:title="http://www.w3.org/2001/XMLSchema#int">
<ellipse fill="none" stroke="gray" cx="755" cy="-444" rx="180.068" ry="18"/>
<text text-anchor="middle" x="755" y="-440.3" font-family="Helvetica,sans-Serif" font-size="14.00" fill="gray">http://www.w3.org/2001/XMLSchema#int</text>
</a>
</g>
<!-- Population&#45;&gt;http://www.w3.org/2001/XMLSchema#int -->
<g id="edge46" class="edge"><title>Population&#45;&gt;http://www.w3.org/2001/XMLSchema#int</title>
<a xlink:href="./#householdCount" xlink:title="householdCount">
<path fill="none" stroke="darkslategray" d="M850.093,-279.911C820.969,-289.961 783.644,-307.972 764,-338 748.955,-360.999 748.467,-393.158 750.633,-415.81"/>
<polygon fill="darkslategray" stroke="darkslategray" points="747.162,-416.264 751.814,-425.783 754.113,-415.44 747.162,-416.264"/>
</a>
<a xlink:href="./#householdCount" xlink:title="householdCount">
<text text-anchor="middle" x="816.5" y="-352.3" font-family="Helvetica,sans-Serif" font-size="14.00">householdCount</text>
</a>
</g>
<!-- Population&#45;&gt;http://www.w3.org/2001/XMLSchema#int -->
<g id="edge52" class="edge"><title>Population&#45;&gt;http://www.w3.org/2001/XMLSchema#int</title>
<a xlink:href="./#personCount" xlink:title="personCount">
<path fill="none" stroke="darkslategray" d="M891.442,-286.279C891.168,-308.554 887.738,-347.559 869,-374 854.077,-395.058 830.51,-410.866 808.668,-422.001"/>
<polygon fill="darkslategray" stroke="darkslategray" points="806.904,-418.967 799.443,-426.489 809.966,-425.262 806.904,-418.967"/>
</a>
<a xlink:href="./#personCount" xlink:title="personCount">
<text text-anchor="middle" x="926.5" y="-352.3" font-family="Helvetica,sans-Serif" font-size="14.00">personCount</text>
</a>
</g>
<!-- http://www.w3.org/2000/01/rdf&#45;schema#Literal -->
<g id="node46" class="node"><title>http://www.w3.org/2000/01/rdf&#45;schema#Literal</title>
<a xlink:href="./#http://www.w3.org/2000/01/rdf-schema#Literal" xlink:title="http://www.w3.org/2000/01/rdf&#45;schema#Literal">
<ellipse fill="none" stroke="gray" cx="1490" cy="-356" rx="200.365" ry="18"/>
<text text-anchor="middle" x="1490" y="-352.3" font-family="Helvetica,sans-Serif" font-size="14.00" fill="gray">http://www.w3.org/2000/01/rdf&#45;schema#Literal</text>
</a>
</g>
<!-- Population&#45;&gt;http://www.w3.org/2000/01/rdf&#45;schema#Literal -->
<g id="edge48" class="edge"><title>Population&#45;&gt;http://www.w3.org/2000/01/rdf&#45;schema#Literal</title>
<a xlink:href="./#method" xlink:title="method">
<path fill="none" stroke="darkslategray" d="M936.243,-278.021C950.533,-280.743 966.402,-283.634 981,-286 1111.77,-307.199 1262.17,-327.029 1365.38,-339.941"/>
<polygon fill="darkslategray" stroke="darkslategray" points="1365.17,-343.443 1375.53,-341.208 1366.04,-336.497 1365.17,-343.443"/>
</a>
<a xlink:href="./#method" xlink:title="method">
<text text-anchor="middle" x="1228.5" y="-308.3" font-family="Helvetica,sans-Serif" font-size="14.00">method</text>
</a>
</g>
<!-- Country -->
<g id="node48" class="node"><title>Country</title>
<a xlink:href="./#Country" xlink:title="Country">
<ellipse fill="none" stroke="gray" cx="1752" cy="-356" rx="44.393" ry="18"/>
<text text-anchor="middle" x="1752" y="-352.3" font-family="Helvetica,sans-Serif" font-size="14.00" fill="gray">Country</text>
</a>
</g>
<!-- Population&#45;&gt;Country -->
<g id="edge50" class="edge"><title>Population&#45;&gt;Country</title>
<a xlink:href="./#nationality" xlink:title="nationality">
<path fill="none" stroke="darkslategray" d="M935.234,-278.463C949.756,-281.273 966.013,-284.103 981,-286 1298.41,-326.177 1385.03,-276.451 1699,-338 1702.68,-338.721 1706.46,-339.614 1710.22,-340.609"/>
<polygon fill="darkslategray" stroke="darkslategray" points="1709.51,-344.045 1720.08,-343.439 1711.44,-337.316 1709.51,-344.045"/>
</a>
<a xlink:href="./#nationality" xlink:title="nationality">
<text text-anchor="middle" x="1611.5" y="-308.3" font-family="Helvetica,sans-Serif" font-size="14.00">nationality</text>
</a>
</g>
<!-- Source -->
<g id="node54" class="node"><title>Source</title>
<a xlink:href="./#Source" xlink:title="Source">
<ellipse fill="none" stroke="gray" cx="1854" cy="-356" rx="40.0939" ry="18"/>
<text text-anchor="middle" x="1854" y="-352.3" font-family="Helvetica,sans-Serif" font-size="14.00" fill="gray">Source</text>
</a>
</g>
<!-- Population&#45;&gt;Source -->
<g id="edge58" class="edge"><title>Population&#45;&gt;Source</title>
<a xlink:href="./#source" xlink:title="source">
<path fill="none" stroke="darkslategray" d="M934.736,-278.714C949.371,-281.575 965.822,-284.372 981,-286 1275.86,-317.622 1353.58,-268.463 1648,-304 1718.88,-312.556 1736.26,-318.709 1805,-338 1807.98,-338.837 1811.05,-339.755 1814.12,-340.719"/>
<polygon fill="darkslategray" stroke="darkslategray" points="1813.27,-344.123 1823.86,-343.904 1815.44,-337.47 1813.27,-344.123"/>
</a>
<a xlink:href="./#source" xlink:title="source">
<text text-anchor="middle" x="1759" y="-308.3" font-family="Helvetica,sans-Serif" font-size="14.00">source</text>
</a>
</g>
<!-- AgeGroup&#45;&gt;BaseClass -->
<g id="edge4" class="edge"><title>AgeGroup&#45;&gt;BaseClass</title>
<path fill="none" stroke="red" stroke-dasharray="5,2" d="M632.032,-372.452C616.045,-382.961 594.076,-396.915 574,-408 563.627,-413.727 552.169,-419.478 541.466,-424.616"/>
<polygon fill="red" stroke="red" points="539.84,-421.513 532.301,-428.957 542.837,-427.84 539.84,-421.513"/>
</g>
<!-- AgeGroup&#45;&gt;http://www.w3.org/2001/XMLSchema#int -->
<g id="edge44" class="edge"><title>AgeGroup&#45;&gt;http://www.w3.org/2001/XMLSchema#int</title>
<a xlink:href="./#fromAge" xlink:title="fromAge">
<path fill="none" stroke="darkslategray" d="M634.273,-372.625C623.104,-382.957 613.243,-396.641 622,-408 627.362,-414.955 640.624,-420.803 656.804,-425.606"/>
<polygon fill="darkslategray" stroke="darkslategray" points="656.059,-429.031 666.63,-428.314 657.919,-422.283 656.059,-429.031"/>
</a>
<a xlink:href="./#fromAge" xlink:title="fromAge">
<text text-anchor="middle" x="650" y="-396.3" font-family="Helvetica,sans-Serif" font-size="14.00">fromAge</text>
</a>
</g>
<!-- AgeGroup&#45;&gt;http://www.w3.org/2001/XMLSchema#int -->
<g id="edge60" class="edge"><title>AgeGroup&#45;&gt;http://www.w3.org/2001/XMLSchema#int</title>
<a xlink:href="./#toAge" xlink:title="toAge">
<path fill="none" stroke="darkslategray" d="M668.1,-373.646C676.808,-384.146 688.841,-397.634 701,-408 706.141,-412.383 711.866,-416.648 717.612,-420.606"/>
<polygon fill="darkslategray" stroke="darkslategray" points="715.715,-423.548 725.981,-426.165 719.587,-417.717 715.715,-423.548"/>
</a>
<a xlink:href="./#toAge" xlink:title="toAge">
<text text-anchor="middle" x="721" y="-396.3" font-family="Helvetica,sans-Serif" font-size="14.00">toAge</text>
</a>
</g>
<!-- AgeGroupSet -->
<g id="node7" class="node"><title>AgeGroupSet</title>
<a xlink:href="./#AgeGroupSet" xlink:title="AgeGroupSet">
<ellipse fill="none" stroke="black" cx="263" cy="-356" rx="68.7879" ry="18"/>
<text text-anchor="middle" x="263" y="-352.3" font-family="Helvetica,sans-Serif" font-size="14.00">AgeGroupSet</text>
</a>
</g>
<!-- AgeGroupSet&#45;&gt;BaseClass -->
<g id="edge6" class="edge"><title>AgeGroupSet&#45;&gt;BaseClass</title>
<path fill="none" stroke="red" stroke-dasharray="5,2" d="M301.503,-370.913C343.667,-386.148 411.21,-410.555 455.841,-426.682"/>
<polygon fill="red" stroke="red" points="454.682,-429.985 465.276,-430.091 457.061,-423.401 454.682,-429.985"/>
</g>
<!-- http://www.w3.org/1999/02/22&#45;rdf&#45;syntax&#45;ns#Bag -->
<g id="node9" class="node"><title>http://www.w3.org/1999/02/22&#45;rdf&#45;syntax&#45;ns#Bag</title>
<a xlink:href="./#AgeGroupSet" xlink:title="http://www.w3.org/1999/02/22&#45;rdf&#45;syntax&#45;ns#Bag">
<ellipse fill="none" stroke="gray" cx="213" cy="-444" rx="213.662" ry="18"/>
<text text-anchor="middle" x="213" y="-440.3" font-family="Helvetica,sans-Serif" font-size="14.00" fill="gray">http://www.w3.org/1999/02/22&#45;rdf&#45;syntax&#45;ns#Bag</text>
</a>
</g>
<!-- AgeGroupSet&#45;&gt;http://www.w3.org/1999/02/22&#45;rdf&#45;syntax&#45;ns#Bag -->
<g id="edge8" class="edge"><title>AgeGroupSet&#45;&gt;http://www.w3.org/1999/02/22&#45;rdf&#45;syntax&#45;ns#Bag</title>
<path fill="none" stroke="red" stroke-dasharray="5,2" d="M253.122,-373.991C245.978,-386.278 236.195,-403.105 228.078,-417.066"/>
<polygon fill="red" stroke="red" points="225.029,-415.346 223.029,-425.75 231.081,-418.864 225.029,-415.346"/>
</g>
<!-- Casualty -->
<g id="node11" class="node"><title>Casualty</title>
<a xlink:href="./#Casualty" xlink:title="Casualty">
<ellipse fill="none" stroke="black" cx="1207" cy="-92" rx="47.3916" ry="18"/>
<text text-anchor="middle" x="1207" y="-88.3" font-family="Helvetica,sans-Serif" font-size="14.00">Casualty</text>
</a>
</g>
<!-- Casualty&#45;&gt;AffectedPopulation -->
<g id="edge10" class="edge"><title>Casualty&#45;&gt;AffectedPopulation</title>
<path fill="none" stroke="red" stroke-dasharray="5,2" d="M1180.91,-107.201C1155.52,-121.02 1116.64,-142.182 1087.66,-157.957"/>
<polygon fill="red" stroke="red" points="1085.74,-155.018 1078.63,-162.873 1089.09,-161.166 1085.74,-155.018"/>
</g>
<!-- Dead -->
<g id="node13" class="node"><title>Dead</title>
<a xlink:href="./#Dead" xlink:title="Dead">
<ellipse fill="none" stroke="black" cx="1254" cy="-18" rx="33.2948" ry="18"/>
<text text-anchor="middle" x="1254" y="-14.3" font-family="Helvetica,sans-Serif" font-size="14.00">Dead</text>
</a>
</g>
<!-- Dead&#45;&gt;Casualty -->
<g id="edge12" class="edge"><title>Dead&#45;&gt;Casualty</title>
<path fill="none" stroke="red" stroke-dasharray="5,2" d="M1243.33,-35.3379C1237.47,-44.3232 1230.07,-55.6657 1223.47,-65.7638"/>
<polygon fill="red" stroke="red" points="1220.48,-63.9401 1217.95,-74.2271 1226.35,-67.7665 1220.48,-63.9401"/>
</g>
<!-- Displaced -->
<g id="node15" class="node"><title>Displaced</title>
<a xlink:href="./#Displaced" xlink:title="Displaced">
<ellipse fill="none" stroke="black" cx="593" cy="-92" rx="51.9908" ry="18"/>
<text text-anchor="middle" x="593" y="-88.3" font-family="Helvetica,sans-Serif" font-size="14.00">Displaced</text>
</a>
</g>
<!-- Displaced&#45;&gt;AffectedPopulation -->
<g id="edge14" class="edge"><title>Displaced&#45;&gt;AffectedPopulation</title>
<path fill="none" stroke="red" stroke-dasharray="5,2" d="M637.138,-101.324C715.607,-116.123 880.113,-147.148 975.771,-165.189"/>
<polygon fill="red" stroke="red" points="975.186,-168.641 985.661,-167.055 976.483,-161.762 975.186,-168.641"/>
</g>
<!-- http://www.opengis.net/geosparql#Feature -->
<g id="node51" class="node"><title>http://www.opengis.net/geosparql#Feature</title>
<a xlink:href="./#http://www.opengis.net/geosparql#Feature" xlink:title="http://www.opengis.net/geosparql#Feature">
<ellipse fill="none" stroke="gray" cx="583" cy="-180" rx="187.667" ry="18"/>
<text text-anchor="middle" x="583" y="-176.3" font-family="Helvetica,sans-Serif" font-size="14.00" fill="gray">http://www.opengis.net/geosparql#Feature</text>
</a>
</g>
<!-- Displaced&#45;&gt;http://www.opengis.net/geosparql#Feature -->
<g id="edge54" class="edge"><title>Displaced&#45;&gt;http://www.opengis.net/geosparql#Feature</title>
<a xlink:href="./#placeOfOrigin" xlink:title="placeOfOrigin">
<path fill="none" stroke="darkslategray" d="M591.024,-109.991C589.65,-121.81 587.787,-137.829 586.203,-151.458"/>
<polygon fill="darkslategray" stroke="darkslategray" points="582.684,-151.413 585.006,-161.75 589.637,-152.221 582.684,-151.413"/>
</a>
<a xlink:href="./#placeOfOrigin" xlink:title="placeOfOrigin">
<text text-anchor="middle" x="633" y="-132.3" font-family="Helvetica,sans-Serif" font-size="14.00">placeOfOrigin</text>
</a>
</g>
<!-- HostPopulation -->
<g id="node17" class="node"><title>HostPopulation</title>
<a xlink:href="./#HostPopulation" xlink:title="HostPopulation">
<ellipse fill="none" stroke="black" cx="1024" cy="-18" rx="75.2868" ry="18"/>
<text text-anchor="middle" x="1024" y="-14.3" font-family="Helvetica,sans-Serif" font-size="14.00">HostPopulation</text>
</a>
</g>
<!-- NonDisplaced -->
<g id="node19" class="node"><title>NonDisplaced</title>
<a xlink:href="./#NonDisplaced" xlink:title="NonDisplaced">
<ellipse fill="none" stroke="black" cx="1024" cy="-92" rx="69.5877" ry="18"/>
<text text-anchor="middle" x="1024" y="-88.3" font-family="Helvetica,sans-Serif" font-size="14.00">NonDisplaced</text>
</a>
</g>
<!-- HostPopulation&#45;&gt;NonDisplaced -->
<g id="edge16" class="edge"><title>HostPopulation&#45;&gt;NonDisplaced</title>
<path fill="none" stroke="red" stroke-dasharray="5,2" d="M1024,-36.063C1024,-44.1928 1024,-54.1239 1024,-63.2953"/>
<polygon fill="red" stroke="red" points="1020.5,-63.5593 1024,-73.5593 1027.5,-63.5594 1020.5,-63.5593"/>
</g>
<!-- NonDisplaced&#45;&gt;AffectedPopulation -->
<g id="edge24" class="edge"><title>NonDisplaced&#45;&gt;AffectedPopulation</title>
<path fill="none" stroke="red" stroke-dasharray="5,2" d="M1028.94,-109.991C1032.41,-121.927 1037.12,-138.147 1041.11,-151.862"/>
<polygon fill="red" stroke="red" points="1037.83,-153.125 1043.99,-161.75 1044.55,-151.171 1037.83,-153.125"/>
</g>
<!-- IDP -->
<g id="node20" class="node"><title>IDP</title>
<a xlink:href="./#IDP" xlink:title="IDP">
<ellipse fill="none" stroke="black" cx="593" cy="-18" rx="27" ry="18"/>
<text text-anchor="middle" x="593" y="-14.3" font-family="Helvetica,sans-Serif" font-size="14.00">IDP</text>
</a>
</g>
<!-- IDP&#45;&gt;Displaced -->
<g id="edge18" class="edge"><title>IDP&#45;&gt;Displaced</title>
<path fill="none" stroke="red" stroke-dasharray="5,2" d="M593,-36.063C593,-44.1928 593,-54.1239 593,-63.2953"/>
<polygon fill="red" stroke="red" points="589.5,-63.5593 593,-73.5593 596.5,-63.5594 589.5,-63.5593"/>
</g>
<!-- Injured -->
<g id="node22" class="node"><title>Injured</title>
<a xlink:href="./#Injured" xlink:title="Injured">
<ellipse fill="none" stroke="black" cx="1344" cy="-18" rx="38.9931" ry="18"/>
<text text-anchor="middle" x="1344" y="-14.3" font-family="Helvetica,sans-Serif" font-size="14.00">Injured</text>
</a>
</g>
<!-- Injured&#45;&gt;Casualty -->
<g id="edge20" class="edge"><title>Injured&#45;&gt;Casualty</title>
<path fill="none" stroke="red" stroke-dasharray="5,2" d="M1319.19,-32.0387C1297.82,-43.2721 1266.7,-59.6249 1242.66,-72.2608"/>
<polygon fill="red" stroke="red" points="1240.72,-69.3253 1233.49,-77.0757 1243.98,-75.5217 1240.72,-69.3253"/>
</g>
<!-- Missing -->
<g id="node24" class="node"><title>Missing</title>
<a xlink:href="./#Missing" xlink:title="Missing">
<ellipse fill="none" stroke="black" cx="1160" cy="-18" rx="42.7926" ry="18"/>
<text text-anchor="middle" x="1160" y="-14.3" font-family="Helvetica,sans-Serif" font-size="14.00">Missing</text>
</a>
</g>
<!-- Missing&#45;&gt;Casualty -->
<g id="edge22" class="edge"><title>Missing&#45;&gt;Casualty</title>
<path fill="none" stroke="red" stroke-dasharray="5,2" d="M1170.9,-35.6992C1176.77,-44.6957 1184.14,-55.9753 1190.68,-65.9971"/>
<polygon fill="red" stroke="red" points="1187.76,-67.9307 1196.16,-74.3913 1193.62,-64.1043 1187.76,-67.9307"/>
</g>
<!-- NonHostPopulation -->
<g id="node27" class="node"><title>NonHostPopulation</title>
<a xlink:href="./#NonHostPopulation" xlink:title="NonHostPopulation">
<ellipse fill="none" stroke="black" cx="838" cy="-18" rx="92.8835" ry="18"/>
<text text-anchor="middle" x="838" y="-14.3" font-family="Helvetica,sans-Serif" font-size="14.00">NonHostPopulation</text>
</a>
</g>
<!-- NonHostPopulation&#45;&gt;NonDisplaced -->
<g id="edge26" class="edge"><title>NonHostPopulation&#45;&gt;NonDisplaced</title>
<path fill="none" stroke="red" stroke-dasharray="5,2" d="M877.902,-34.4458C907.087,-45.7432 946.763,-61.1019 977.404,-72.9628"/>
<polygon fill="red" stroke="red" points="976.421,-76.3353 987.01,-76.6813 978.948,-69.8073 976.421,-76.3353"/>
</g>
<!-- Others -->
<g id="node29" class="node"><title>Others</title>
<a xlink:href="./#Others" xlink:title="Others">
<ellipse fill="none" stroke="black" cx="677" cy="-18" rx="38.9931" ry="18"/>
<text text-anchor="middle" x="677" y="-14.3" font-family="Helvetica,sans-Serif" font-size="14.00">Others</text>
</a>
</g>
<!-- Others&#45;&gt;Displaced -->
<g id="edge28" class="edge"><title>Others&#45;&gt;Displaced</title>
<path fill="none" stroke="red" stroke-dasharray="5,2" d="M659.186,-34.2693C647.62,-44.1828 632.343,-57.2778 619.38,-68.3886"/>
<polygon fill="red" stroke="red" points="616.977,-65.8388 611.662,-75.0041 621.532,-71.1536 616.977,-65.8388"/>
</g>
<!-- RefugeesAsylumSeekers -->
<g id="node34" class="node"><title>RefugeesAsylumSeekers</title>
<a xlink:href="./#RefugeesAsylumSeekers" xlink:title="RefugeesAsylumSeekers">
<ellipse fill="none" stroke="black" cx="430" cy="-18" rx="117.779" ry="18"/>
<text text-anchor="middle" x="430" y="-14.3" font-family="Helvetica,sans-Serif" font-size="14.00">RefugeesAsylumSeekers</text>
</a>
</g>
<!-- RefugeesAsylumSeekers&#45;&gt;Displaced -->
<g id="edge34" class="edge"><title>RefugeesAsylumSeekers&#45;&gt;Displaced</title>
<path fill="none" stroke="red" stroke-dasharray="5,2" d="M466.58,-35.1582C492.245,-46.4945 526.551,-61.6483 552.95,-73.3093"/>
<polygon fill="red" stroke="red" points="551.726,-76.5949 562.288,-77.4339 554.555,-70.1917 551.726,-76.5949"/>
</g>
<!-- SexCategory&#45;&gt;BaseClass -->
<g id="edge36" class="edge"><title>SexCategory&#45;&gt;BaseClass</title>
<path fill="none" stroke="red" stroke-dasharray="5,2" d="M473.717,-373.991C478.514,-386.123 485.06,-402.68 490.537,-416.535"/>
<polygon fill="red" stroke="red" points="487.365,-418.032 494.297,-426.044 493.875,-415.458 487.365,-418.032"/>
</g>
<!-- TotalPopulation -->
<g id="node38" class="node"><title>TotalPopulation</title>
<a xlink:href="./#TotalPopulation" xlink:title="TotalPopulation">
<ellipse fill="none" stroke="black" cx="865" cy="-180" rx="76.0865" ry="18"/>
<text text-anchor="middle" x="865" y="-176.3" font-family="Helvetica,sans-Serif" font-size="14.00">TotalPopulation</text>
</a>
</g>
<!-- TotalPopulation&#45;&gt;Population -->
<g id="edge38" class="edge"><title>TotalPopulation&#45;&gt;Population</title>
<path fill="none" stroke="red" stroke-dasharray="5,2" d="M870.137,-197.991C873.769,-210.005 878.713,-226.359 882.877,-240.131"/>
<polygon fill="red" stroke="red" points="879.63,-241.485 885.874,-250.044 886.33,-239.459 879.63,-241.485"/>
</g>
</g>
</svg>
