<?xml version="1.0" encoding="UTF-8" standalone="no"?>
<!DOCTYPE svg PUBLIC "-//W3C//DTD SVG 1.1//EN"
 "http://www.w3.org/Graphics/SVG/1.1/DTD/svg11.dtd">
<!-- Generated by graphviz version 2.28.0 (20120807.1341)
 -->
<!-- Title: _anonymous_0 Pages: 1 -->
<svg width="2801pt" height="308pt"
 viewBox="0.00 0.00 2801.00 308.00" xmlns="http://www.w3.org/2000/svg" xmlns:xlink="http://www.w3.org/1999/xlink">
<g id="graph1" class="graph" transform="scale(1 1) rotate(0) translate(4 304)">
<title>_anonymous_0</title>
<polygon fill="white" stroke="white" points="-4,5 -4,-304 2798,-304 2798,5 -4,5"/>
<!-- ApprovalLevel -->
<g id="node1" class="node"><title>ApprovalLevel</title>
<a xlink:href="./#ApprovalLevel" xlink:title="ApprovalLevel">
<ellipse fill="none" stroke="black" cx="414" cy="-106" rx="72.2875" ry="18"/>
<text text-anchor="middle" x="414" y="-102.3" font-family="Helvetica,sans-Serif" font-size="14.00">ApprovalLevel</text>
</a>
</g>
<!-- BaseClass -->
<g id="node2" class="node"><title>BaseClass</title>
<a xlink:href="./#BaseClass" xlink:title="BaseClass">
<ellipse fill="none" stroke="gray" cx="200" cy="-194" rx="55.7903" ry="18"/>
<text text-anchor="middle" x="200" y="-190.3" font-family="Helvetica,sans-Serif" font-size="14.00" fill="gray">BaseClass</text>
</a>
</g>
<!-- ApprovalLevel&#45;&gt;BaseClass -->
<g id="edge2" class="edge"><title>ApprovalLevel&#45;&gt;BaseClass</title>
<path fill="none" stroke="red" stroke-dasharray="5,2" d="M390.81,-123.08C373.996,-134.149 350.373,-148.512 328,-158 324.236,-159.596 285.273,-170.188 251.313,-179.306"/>
<polygon fill="red" stroke="red" points="250.194,-175.983 241.442,-181.953 252.007,-182.744 250.194,-175.983"/>
</g>
<!-- http://www.w3.org/2000/01/rdf&#45;schema#Literal -->
<g id="node24" class="node"><title>http://www.w3.org/2000/01/rdf&#45;schema#Literal</title>
<a xlink:href="./#http://www.w3.org/2000/01/rdf-schema#Literal" xlink:title="http://www.w3.org/2000/01/rdf&#45;schema#Literal">
<ellipse fill="none" stroke="gray" cx="200" cy="-282" rx="200.365" ry="18"/>
<text text-anchor="middle" x="200" y="-278.3" font-family="Helvetica,sans-Serif" font-size="14.00" fill="gray">http://www.w3.org/2000/01/rdf&#45;schema#Literal</text>
</a>
</g>
<!-- BaseClass&#45;&gt;http://www.w3.org/2000/01/rdf&#45;schema#Literal -->
<g id="edge26" class="edge"><title>BaseClass&#45;&gt;http://www.w3.org/2000/01/rdf&#45;schema#Literal</title>
<a xlink:href="./#comment" xlink:title="comment">
<path fill="none" stroke="darkslategray" d="M155.691,-204.946C129.588,-213.06 104.002,-226.412 117,-246 120.379,-251.092 124.661,-255.445 129.49,-259.166"/>
<polygon fill="darkslategray" stroke="darkslategray" points="127.803,-262.247 138.073,-264.85 131.668,-256.411 127.803,-262.247"/>
</a>
<a xlink:href="./#comment" xlink:title="comment">
<text text-anchor="middle" x="147.5" y="-234.3" font-family="Helvetica,sans-Serif" font-size="14.00">comment</text>
</a>
</g>
<!-- BaseClass&#45;&gt;http://www.w3.org/2000/01/rdf&#45;schema#Literal -->
<g id="edge30" class="edge"><title>BaseClass&#45;&gt;http://www.w3.org/2000/01/rdf&#45;schema#Literal</title>
<a xlink:href="./#description" xlink:title="description">
<path fill="none" stroke="darkslategray" d="M200,-212.403C200,-224.254 200,-240.183 200,-253.708"/>
<polygon fill="darkslategray" stroke="darkslategray" points="196.5,-253.916 200,-263.916 203.5,-253.916 196.5,-253.916"/>
</a>
<a xlink:href="./#description" xlink:title="description">
<text text-anchor="middle" x="235.5" y="-234.3" font-family="Helvetica,sans-Serif" font-size="14.00">description</text>
</a>
</g>
<!-- BaseClass&#45;&gt;http://www.w3.org/2000/01/rdf&#45;schema#Literal -->
<g id="edge44" class="edge"><title>BaseClass&#45;&gt;http://www.w3.org/2000/01/rdf&#45;schema#Literal</title>
<a xlink:href="./#title" xlink:title="title">
<path fill="none" stroke="darkslategray" d="M240.402,-206.661C262.347,-215.246 282.97,-228.47 272,-246 269.005,-250.786 265.147,-254.935 260.776,-258.528"/>
<polygon fill="darkslategray" stroke="darkslategray" points="258.585,-255.79 252.429,-264.412 262.619,-261.511 258.585,-255.79"/>
</a>
<a xlink:href="./#title" xlink:title="title">
<text text-anchor="middle" x="288" y="-234.3" font-family="Helvetica,sans-Serif" font-size="14.00">title</text>
</a>
</g>
<!-- http://www.w3.org/2001/XMLSchema#date -->
<g id="node26" class="node"><title>http://www.w3.org/2001/XMLSchema#date</title>
<a xlink:href="./#http://www.w3.org/2001/XMLSchema#date" xlink:title="http://www.w3.org/2001/XMLSchema#date">
<ellipse fill="none" stroke="gray" cx="1338" cy="-282" rx="188.467" ry="18"/>
<text text-anchor="middle" x="1338" y="-278.3" font-family="Helvetica,sans-Serif" font-size="14.00" fill="gray">http://www.w3.org/2001/XMLSchema#date</text>
</a>
</g>
<!-- BaseClass&#45;&gt;http://www.w3.org/2001/XMLSchema#date -->
<g id="edge28" class="edge"><title>BaseClass&#45;&gt;http://www.w3.org/2001/XMLSchema#date</title>
<a xlink:href="./#date" xlink:title="date">
<path fill="none" stroke="darkslategray" d="M239.976,-206.667C248.194,-208.722 256.831,-210.637 265,-212 567.455,-262.475 923.555,-276.584 1139.92,-280.214"/>
<polygon fill="darkslategray" stroke="darkslategray" points="1140.06,-283.716 1150.12,-280.379 1140.18,-276.717 1140.06,-283.716"/>
</a>
<a xlink:href="./#date" xlink:title="date">
<text text-anchor="middle" x="513.5" y="-234.3" font-family="Helvetica,sans-Serif" font-size="14.00">date</text>
</a>
</g>
<!-- BaseClass&#45;&gt;http://www.w3.org/2001/XMLSchema#date -->
<g id="edge66" class="edge"><title>BaseClass&#45;&gt;http://www.w3.org/2001/XMLSchema#date</title>
<a xlink:href="./#validityDate" xlink:title="validityDate">
<path fill="none" stroke="darkslategray" d="M239.618,-206.648C247.94,-208.732 256.709,-210.662 265,-212 276.097,-213.791 878.375,-251.976 1175.61,-270.755"/>
<polygon fill="darkslategray" stroke="darkslategray" points="1175.41,-274.25 1185.61,-271.387 1175.85,-267.263 1175.41,-274.25"/>
</a>
<a xlink:href="./#validityDate" xlink:title="validityDate">
<text text-anchor="middle" x="814.5" y="-234.3" font-family="Helvetica,sans-Serif" font-size="14.00">validityDate</text>
</a>
</g>
<!-- DataContainer -->
<g id="node4" class="node"><title>DataContainer</title>
<a xlink:href="./#DataContainer" xlink:title="DataContainer">
<ellipse fill="none" stroke="black" cx="654" cy="-18" rx="70.3881" ry="18"/>
<text text-anchor="middle" x="654" y="-14.3" font-family="Helvetica,sans-Serif" font-size="14.00">DataContainer</text>
</a>
</g>
<!-- DataContainer&#45;&gt;ApprovalLevel -->
<g id="edge22" class="edge"><title>DataContainer&#45;&gt;ApprovalLevel</title>
<a xlink:href="./#approvedAtLevel" xlink:title="approvedAtLevel">
<path fill="none" stroke="darkslategray" d="M585.259,-21.5853C527.466,-25.175 450.743,-33.7181 428,-54 421.203,-60.0615 417.571,-69.0819 415.673,-77.8585"/>
<polygon fill="darkslategray" stroke="darkslategray" points="412.195,-77.4453 414.154,-87.8575 419.116,-78.4966 412.195,-77.4453"/>
</a>
<a xlink:href="./#approvedAtLevel" xlink:title="approvedAtLevel">
<text text-anchor="middle" x="484.5" y="-58.3" font-family="Helvetica,sans-Serif" font-size="14.00">approvedAtLevel</text>
</a>
</g>
<!-- DataContainer&#45;&gt;BaseClass -->
<g id="edge4" class="edge"><title>DataContainer&#45;&gt;BaseClass</title>
<path fill="none" stroke="red" stroke-dasharray="5,2" d="M584.977,-21.4064C516.725,-26.524 411.414,-41.9849 333,-88 331.581,-88.8327 267.147,-139.816 228.497,-170.425"/>
<polygon fill="red" stroke="red" points="225.874,-168.037 220.208,-176.989 230.22,-173.524 225.874,-168.037"/>
</g>
<!-- HXLer -->
<g id="node6" class="node"><title>HXLer</title>
<a xlink:href="./#HXLer" xlink:title="HXLer">
<ellipse fill="none" stroke="black" cx="546" cy="-106" rx="38.1938" ry="18"/>
<text text-anchor="middle" x="546" y="-102.3" font-family="Helvetica,sans-Serif" font-size="14.00">HXLer</text>
</a>
</g>
<!-- DataContainer&#45;&gt;HXLer -->
<g id="edge24" class="edge"><title>DataContainer&#45;&gt;HXLer</title>
<a xlink:href="./#approvedBy" xlink:title="approvedBy">
<path fill="none" stroke="darkslategray" d="M593.563,-27.2646C577.428,-32.4024 561.562,-40.682 551,-54 545.792,-60.5677 543.74,-69.2092 543.226,-77.5085"/>
<polygon fill="darkslategray" stroke="darkslategray" points="539.727,-77.6736 543.277,-87.6558 546.727,-77.6384 539.727,-77.6736"/>
</a>
<a xlink:href="./#approvedBy" xlink:title="approvedBy">
<text text-anchor="middle" x="591.5" y="-58.3" font-family="Helvetica,sans-Serif" font-size="14.00">approvedBy</text>
</a>
</g>
<!-- DataContainer&#45;&gt;HXLer -->
<g id="edge40" class="edge"><title>DataContainer&#45;&gt;HXLer</title>
<a xlink:href="./#reportedBy" xlink:title="reportedBy">
<path fill="none" stroke="darkslategray" d="M650.206,-36.0635C646.992,-47.0035 641.369,-60.8235 632,-70 620.381,-81.3808 604.561,-89.2274 589.657,-94.5579"/>
<polygon fill="darkslategray" stroke="darkslategray" points="588.46,-91.267 580.049,-97.7092 590.641,-97.9184 588.46,-91.267"/>
</a>
<a xlink:href="./#reportedBy" xlink:title="reportedBy">
<text text-anchor="middle" x="681" y="-58.3" font-family="Helvetica,sans-Serif" font-size="14.00">reportedBy</text>
</a>
</g>
<!-- ReportCategory -->
<g id="node10" class="node"><title>ReportCategory</title>
<a xlink:href="./#ReportCategory" xlink:title="ReportCategory">
<ellipse fill="none" stroke="black" cx="200" cy="-106" rx="78.7863" ry="18"/>
<text text-anchor="middle" x="200" y="-102.3" font-family="Helvetica,sans-Serif" font-size="14.00">ReportCategory</text>
</a>
</g>
<!-- DataContainer&#45;&gt;ReportCategory -->
<g id="edge38" class="edge"><title>DataContainer&#45;&gt;ReportCategory</title>
<a xlink:href="./#reportCategory" xlink:title="reportCategory">
<path fill="none" stroke="darkslategray" d="M583.849,-19.3522C463.171,-20.6885 226.688,-26.7912 201,-54 195.122,-60.2262 193.541,-69.0242 193.851,-77.5633"/>
<polygon fill="darkslategray" stroke="darkslategray" points="190.391,-78.1219 195.003,-87.6604 197.346,-77.328 190.391,-78.1219"/>
</a>
<a xlink:href="./#reportCategory" xlink:title="reportCategory">
<text text-anchor="middle" x="250.5" y="-58.3" font-family="Helvetica,sans-Serif" font-size="14.00">reportCategory</text>
</a>
</g>
<!-- Emergency -->
<g id="node20" class="node"><title>Emergency</title>
<a xlink:href="./#Emergency" xlink:title="Emergency">
<ellipse fill="none" stroke="gray" cx="2403" cy="-106" rx="59.2899" ry="18"/>
<text text-anchor="middle" x="2403" y="-102.3" font-family="Helvetica,sans-Serif" font-size="14.00" fill="gray">Emergency</text>
</a>
</g>
<!-- DataContainer&#45;&gt;Emergency -->
<g id="edge20" class="edge"><title>DataContainer&#45;&gt;Emergency</title>
<a xlink:href="./#aboutEmergency" xlink:title="aboutEmergency">
<path fill="none" stroke="darkslategray" d="M723.924,-19.3271C1031.54,-20.9111 2252.66,-28.7688 2330,-54 2347.77,-59.7973 2365.04,-71.4945 2378.32,-82.2256"/>
<polygon fill="darkslategray" stroke="darkslategray" points="2376.13,-84.9606 2386.03,-88.721 2380.64,-79.6045 2376.13,-84.9606"/>
</a>
<a xlink:href="./#aboutEmergency" xlink:title="aboutEmergency">
<text text-anchor="middle" x="2415.5" y="-58.3" font-family="Helvetica,sans-Serif" font-size="14.00">aboutEmergency</text>
</a>
</g>
<!-- DataContainer&#45;&gt;http://www.w3.org/2001/XMLSchema#date -->
<g id="edge54" class="edge"><title>DataContainer&#45;&gt;http://www.w3.org/2001/XMLSchema#date</title>
<a xlink:href="./#validFrom" xlink:title="validFrom">
<path fill="none" stroke="darkslategray" d="M721.534,-23.0667C954.743,-37.8169 1715.58,-92.0885 1782,-176 1791.93,-188.546 1792.32,-199.771 1782,-212 1748.92,-251.206 1632.66,-268.34 1527.41,-275.732"/>
<polygon fill="darkslategray" stroke="darkslategray" points="1527,-272.252 1517.26,-276.418 1527.48,-279.236 1527,-272.252"/>
</a>
<a xlink:href="./#validFrom" xlink:title="validFrom">
<text text-anchor="middle" x="1785" y="-146.3" font-family="Helvetica,sans-Serif" font-size="14.00">validFrom</text>
</a>
</g>
<!-- DataContainer&#45;&gt;http://www.w3.org/2001/XMLSchema#date -->
<g id="edge64" class="edge"><title>DataContainer&#45;&gt;http://www.w3.org/2001/XMLSchema#date</title>
<a xlink:href="./#validUntil" xlink:title="validUntil">
<path fill="none" stroke="darkslategray" d="M723.576,-20.201C1022.93,-26.0806 2190.89,-56.5833 2297,-176 2377.43,-266.522 2479.69,-205.369 1968,-246 1815.7,-258.094 1642.35,-267.399 1516.09,-273.364"/>
<polygon fill="darkslategray" stroke="darkslategray" points="1515.77,-269.875 1505.94,-273.841 1516.09,-276.867 1515.77,-269.875"/>
</a>
<a xlink:href="./#validUntil" xlink:title="validUntil">
<text text-anchor="middle" x="2301" y="-146.3" font-family="Helvetica,sans-Serif" font-size="14.00">validUntil</text>
</a>
</g>
<!-- http://xmlns.com/foaf/0.1/Document -->
<g id="node32" class="node"><title>http://xmlns.com/foaf/0.1/Document</title>
<a xlink:href="./#http://xmlns.com/foaf/0.1/Document" xlink:title="http://xmlns.com/foaf/0.1/Document">
<ellipse fill="none" stroke="gray" cx="2637" cy="-106" rx="156.772" ry="18"/>
<text text-anchor="middle" x="2637" y="-102.3" font-family="Helvetica,sans-Serif" font-size="14.00" fill="gray">http://xmlns.com/foaf/0.1/Document</text>
</a>
</g>
<!-- DataContainer&#45;&gt;http://xmlns.com/foaf/0.1/Document -->
<g id="edge36" class="edge"><title>DataContainer&#45;&gt;http://xmlns.com/foaf/0.1/Document</title>
<a xlink:href="./#relatedInfo" xlink:title="relatedInfo">
<path fill="none" stroke="darkslategray" d="M724.055,-19.1643C1037.11,-20.0583 2300.25,-25.4209 2475,-54 2513.37,-60.275 2555.19,-73.6163 2586.73,-85.0797"/>
<polygon fill="darkslategray" stroke="darkslategray" points="2585.58,-88.3857 2596.17,-88.5671 2588.01,-81.8192 2585.58,-88.3857"/>
</a>
<a xlink:href="./#relatedInfo" xlink:title="relatedInfo">
<text text-anchor="middle" x="2572.5" y="-58.3" font-family="Helvetica,sans-Serif" font-size="14.00">relatedInfo</text>
</a>
</g>
<!-- HXLer&#45;&gt;BaseClass -->
<g id="edge8" class="edge"><title>HXLer&#45;&gt;BaseClass</title>
<path fill="none" stroke="red" stroke-dasharray="5,2" d="M516.189,-117.373C509.265,-119.66 501.902,-121.997 495,-124 434.751,-141.488 419.262,-144.479 358,-158 316.889,-167.073 306.053,-166.669 265,-176 260.408,-177.044 255.647,-178.181 250.886,-179.357"/>
<polygon fill="red" stroke="red" points="250.006,-175.969 241.164,-181.805 251.716,-182.757 250.006,-175.969"/>
</g>
<!-- http://xmlns.com/foaf/0.1/Agent -->
<g id="node7" class="node"><title>http://xmlns.com/foaf/0.1/Agent</title>
<a xlink:href="./#HXLer" xlink:title="http://xmlns.com/foaf/0.1/Agent">
<ellipse fill="none" stroke="gray" cx="413" cy="-194" rx="139.175" ry="18"/>
<text text-anchor="middle" x="413" y="-190.3" font-family="Helvetica,sans-Serif" font-size="14.00" fill="gray">http://xmlns.com/foaf/0.1/Agent</text>
</a>
</g>
<!-- HXLer&#45;&gt;http://xmlns.com/foaf/0.1/Agent -->
<g id="edge6" class="edge"><title>HXLer&#45;&gt;http://xmlns.com/foaf/0.1/Agent</title>
<path fill="none" stroke="red" stroke-dasharray="5,2" d="M524.335,-121.009C503.619,-134.404 472.038,-154.825 447.795,-170.501"/>
<polygon fill="red" stroke="red" points="445.726,-167.671 439.229,-176.04 449.527,-173.549 445.726,-167.671"/>
</g>
<!-- ReportCategory&#45;&gt;BaseClass -->
<g id="edge10" class="edge"><title>ReportCategory&#45;&gt;BaseClass</title>
<path fill="none" stroke="red" stroke-dasharray="5,2" d="M200,-124.403C200,-136.254 200,-152.183 200,-165.708"/>
<polygon fill="red" stroke="red" points="196.5,-165.916 200,-175.916 203.5,-165.916 196.5,-165.916"/>
</g>
<!-- ReportCategorySet -->
<g id="node12" class="node"><title>ReportCategorySet</title>
<a xlink:href="./#ReportCategorySet" xlink:title="ReportCategorySet">
<ellipse fill="none" stroke="black" cx="737" cy="-106" rx="92.8835" ry="18"/>
<text text-anchor="middle" x="737" y="-102.3" font-family="Helvetica,sans-Serif" font-size="14.00">ReportCategorySet</text>
</a>
</g>
<!-- ReportCategorySet&#45;&gt;BaseClass -->
<g id="edge12" class="edge"><title>ReportCategorySet&#45;&gt;BaseClass</title>
<path fill="none" stroke="red" stroke-dasharray="5,2" d="M668.505,-118.143C601.818,-128.859 497.559,-145.265 407,-158 344.004,-166.859 327.46,-163.926 265,-176 260.24,-176.92 255.313,-177.99 250.397,-179.136"/>
<polygon fill="red" stroke="red" points="249.271,-175.807 240.382,-181.572 250.926,-182.609 249.271,-175.807"/>
</g>
<!-- http://www.w3.org/1999/02/22&#45;rdf&#45;syntax&#45;ns#Bag -->
<g id="node14" class="node"><title>http://www.w3.org/1999/02/22&#45;rdf&#45;syntax&#45;ns#Bag</title>
<a xlink:href="./#ReportCategorySet" xlink:title="http://www.w3.org/1999/02/22&#45;rdf&#45;syntax&#45;ns#Bag">
<ellipse fill="none" stroke="gray" cx="784" cy="-194" rx="213.662" ry="18"/>
<text text-anchor="middle" x="784" y="-190.3" font-family="Helvetica,sans-Serif" font-size="14.00" fill="gray">http://www.w3.org/1999/02/22&#45;rdf&#45;syntax&#45;ns#Bag</text>
</a>
</g>
<!-- ReportCategorySet&#45;&gt;http://www.w3.org/1999/02/22&#45;rdf&#45;syntax&#45;ns#Bag -->
<g id="edge14" class="edge"><title>ReportCategorySet&#45;&gt;http://www.w3.org/1999/02/22&#45;rdf&#45;syntax&#45;ns#Bag</title>
<path fill="none" stroke="red" stroke-dasharray="5,2" d="M746.286,-123.991C752.937,-136.161 762.022,-152.785 769.608,-166.666"/>
<polygon fill="red" stroke="red" points="766.706,-168.654 774.573,-175.75 772.848,-165.297 766.706,-168.654"/>
</g>
<!-- ReportingPeriod -->
<g id="node16" class="node"><title>ReportingPeriod</title>
<a xlink:href="./#ReportingPeriod" xlink:title="ReportingPeriod">
<ellipse fill="none" stroke="black" cx="1321" cy="-106" rx="79.0865" ry="18"/>
<text text-anchor="middle" x="1321" y="-102.3" font-family="Helvetica,sans-Serif" font-size="14.00">ReportingPeriod</text>
</a>
</g>
<!-- ReportingPeriod&#45;&gt;BaseClass -->
<g id="edge16" class="edge"><title>ReportingPeriod&#45;&gt;BaseClass</title>
<path fill="none" stroke="red" stroke-dasharray="5,2" d="M1245.3,-111.549C1011.44,-125.656 313.259,-168.186 265,-176 259.948,-176.818 254.719,-177.855 249.521,-179.012"/>
<polygon fill="red" stroke="red" points="248.542,-175.647 239.619,-181.358 250.157,-182.458 248.542,-175.647"/>
</g>
<!-- http://purl.org/dc/terms/PeriodOfTime -->
<g id="node19" class="node"><title>http://purl.org/dc/terms/PeriodOfTime</title>
<a xlink:href="./#http://purl.org/dc/terms/PeriodOfTime" xlink:title="http://purl.org/dc/terms/PeriodOfTime">
<ellipse fill="none" stroke="black" cx="2123" cy="-194" rx="165.171" ry="18"/>
<text text-anchor="middle" x="2123" y="-190.3" font-family="Helvetica,sans-Serif" font-size="14.00">http://purl.org/dc/terms/PeriodOfTime</text>
</a>
</g>
<!-- ReportingPeriod&#45;&gt;http://purl.org/dc/terms/PeriodOfTime -->
<g id="edge18" class="edge"><title>ReportingPeriod&#45;&gt;http://purl.org/dc/terms/PeriodOfTime</title>
<path fill="none" stroke="red" stroke-dasharray="5,2" d="M1390.19,-114.883C1480.02,-125.073 1641.67,-143.258 1780,-158 1851.33,-165.602 1931.04,-173.756 1995.66,-180.28"/>
<polygon fill="red" stroke="red" points="1995.59,-183.791 2005.89,-181.313 1996.3,-176.827 1995.59,-183.791"/>
</g>
<!-- ReportingPeriod&#45;&gt;http://www.w3.org/2001/XMLSchema#date -->
<g id="edge34" class="edge"><title>ReportingPeriod&#45;&gt;http://www.w3.org/2001/XMLSchema#date</title>
<a xlink:href="./#end" xlink:title="end">
<path fill="none" stroke="darkslategray" d="M1314.12,-124.236C1306.71,-145.155 1296.88,-181.426 1304,-212 1304.55,-214.364 1315.45,-236.31 1324.76,-254.826"/>
<polygon fill="darkslategray" stroke="darkslategray" points="1321.66,-256.452 1329.28,-263.807 1327.91,-253.302 1321.66,-256.452"/>
</a>
<a xlink:href="./#end" xlink:title="end">
<text text-anchor="middle" x="1316.5" y="-190.3" font-family="Helvetica,sans-Serif" font-size="14.00">end</text>
</a>
</g>
<!-- ReportingPeriod&#45;&gt;http://www.w3.org/2001/XMLSchema#date -->
<g id="edge42" class="edge"><title>ReportingPeriod&#45;&gt;http://www.w3.org/2001/XMLSchema#date</title>
<a xlink:href="./#start" xlink:title="start">
<path fill="none" stroke="darkslategray" d="M1323.11,-123.998C1324.82,-137.955 1327.21,-158.242 1329,-176 1331.66,-202.353 1334.19,-232.478 1335.88,-253.682"/>
<polygon fill="darkslategray" stroke="darkslategray" points="1332.41,-254.197 1336.69,-263.89 1339.39,-253.645 1332.41,-254.197"/>
</a>
<a xlink:href="./#start" xlink:title="start">
<text text-anchor="middle" x="1347.5" y="-190.3" font-family="Helvetica,sans-Serif" font-size="14.00">start</text>
</a>
</g>
<!-- http://www.w3.org/2001/XMLSchema#duration -->
<g id="node29" class="node"><title>http://www.w3.org/2001/XMLSchema#duration</title>
<a xlink:href="./#http://www.w3.org/2001/XMLSchema#duration" xlink:title="http://www.w3.org/2001/XMLSchema#duration">
<ellipse fill="none" stroke="gray" cx="2349" cy="-282" rx="203.364" ry="18"/>
<text text-anchor="middle" x="2349" y="-278.3" font-family="Helvetica,sans-Serif" font-size="14.00" fill="gray">http://www.w3.org/2001/XMLSchema#duration</text>
</a>
</g>
<!-- http://purl.org/dc/terms/PeriodOfTime&#45;&gt;http://www.w3.org/2001/XMLSchema#duration -->
<g id="edge32" class="edge"><title>http://purl.org/dc/terms/PeriodOfTime&#45;&gt;http://www.w3.org/2001/XMLSchema#duration</title>
<a xlink:href="./#duration" xlink:title="duration">
<path fill="none" stroke="darkslategray" d="M2166.04,-211.378C2202.96,-225.425 2256.29,-245.721 2295.86,-260.778"/>
<polygon fill="darkslategray" stroke="darkslategray" points="2294.76,-264.104 2305.35,-264.39 2297.25,-257.562 2294.76,-264.104"/>
</a>
<a xlink:href="./#duration" xlink:title="duration">
<text text-anchor="middle" x="2282" y="-234.3" font-family="Helvetica,sans-Serif" font-size="14.00">duration</text>
</a>
</g>
<!-- http://www.opengis.net/geosparql#Feature -->
<g id="node38" class="node"><title>http://www.opengis.net/geosparql#Feature</title>
<a xlink:href="./#http://www.opengis.net/geosparql#Feature" xlink:title="http://www.opengis.net/geosparql#Feature">
<ellipse fill="none" stroke="gray" cx="1586" cy="-194" rx="187.667" ry="18"/>
<text text-anchor="middle" x="1586" y="-190.3" font-family="Helvetica,sans-Serif" font-size="14.00" fill="gray">http://www.opengis.net/geosparql#Feature</text>
</a>
</g>
<!-- http://www.opengis.net/geosparql#Feature&#45;&gt;http://www.w3.org/2001/XMLSchema#date -->
<g id="edge46" class="edge"><title>http://www.opengis.net/geosparql#Feature&#45;&gt;http://www.w3.org/2001/XMLSchema#date</title>
<a xlink:href="./#validFrom" xlink:title="validFrom">
<path fill="none" stroke="darkslategray" d="M1554.56,-211.859C1533.38,-222.713 1504.56,-236.514 1478,-246 1460.02,-252.423 1440.33,-258.124 1421.56,-262.963"/>
<polygon fill="darkslategray" stroke="darkslategray" points="1420.67,-259.576 1411.83,-265.415 1422.38,-266.364 1420.67,-259.576"/>
</a>
<a xlink:href="./#validFrom" xlink:title="validFrom">
<text text-anchor="middle" x="1547" y="-234.3" font-family="Helvetica,sans-Serif" font-size="14.00">validFrom</text>
</a>
</g>
<!-- http://www.opengis.net/geosparql#Feature&#45;&gt;http://www.w3.org/2001/XMLSchema#date -->
<g id="edge56" class="edge"><title>http://www.opengis.net/geosparql#Feature&#45;&gt;http://www.w3.org/2001/XMLSchema#date</title>
<a xlink:href="./#validUntil" xlink:title="validUntil">
<path fill="none" stroke="darkslategray" d="M1483.08,-209.134C1459.84,-214.18 1435.65,-220.951 1414,-230 1397.25,-237.003 1380.3,-247.917 1366.68,-257.854"/>
<polygon fill="darkslategray" stroke="darkslategray" points="1364.56,-255.071 1358.66,-263.872 1368.76,-260.671 1364.56,-255.071"/>
</a>
<a xlink:href="./#validUntil" xlink:title="validUntil">
<text text-anchor="middle" x="1444" y="-234.3" font-family="Helvetica,sans-Serif" font-size="14.00">validUntil</text>
</a>
</g>
<!-- Population -->
<g id="node40" class="node"><title>Population</title>
<a xlink:href="./#Population" xlink:title="Population">
<ellipse fill="none" stroke="gray" cx="1885" cy="-194" rx="54.6905" ry="18"/>
<text text-anchor="middle" x="1885" y="-190.3" font-family="Helvetica,sans-Serif" font-size="14.00" fill="gray">Population</text>
</a>
</g>
<!-- Population&#45;&gt;http://www.w3.org/2001/XMLSchema#date -->
<g id="edge48" class="edge"><title>Population&#45;&gt;http://www.w3.org/2001/XMLSchema#date</title>
<a xlink:href="./#validFrom" xlink:title="validFrom">
<path fill="none" stroke="darkslategray" d="M1862.91,-210.749C1842.02,-225.635 1813.73,-245.739 1813,-246 1762.02,-264.318 1638.78,-273.054 1530.61,-277.217"/>
<polygon fill="darkslategray" stroke="darkslategray" points="1530.39,-273.723 1520.53,-277.594 1530.65,-280.718 1530.39,-273.723"/>
</a>
<a xlink:href="./#validFrom" xlink:title="validFrom">
<text text-anchor="middle" x="1866" y="-234.3" font-family="Helvetica,sans-Serif" font-size="14.00">validFrom</text>
</a>
</g>
<!-- Population&#45;&gt;http://www.w3.org/2001/XMLSchema#date -->
<g id="edge58" class="edge"><title>Population&#45;&gt;http://www.w3.org/2001/XMLSchema#date</title>
<a xlink:href="./#validUntil" xlink:title="validUntil">
<path fill="none" stroke="darkslategray" d="M1897.18,-211.602C1903.68,-222.624 1908.72,-236.718 1900,-246 1887.02,-259.811 1683.49,-269.734 1525.06,-275.411"/>
<polygon fill="darkslategray" stroke="darkslategray" points="1524.56,-271.926 1514.69,-275.779 1524.81,-278.922 1524.56,-271.926"/>
</a>
<a xlink:href="./#validUntil" xlink:title="validUntil">
<text text-anchor="middle" x="1934" y="-234.3" font-family="Helvetica,sans-Serif" font-size="14.00">validUntil</text>
</a>
</g>
<!-- Organisation -->
<g id="node42" class="node"><title>Organisation</title>
<a xlink:href="./#Organisation" xlink:title="Organisation">
<ellipse fill="none" stroke="gray" cx="1079" cy="-194" rx="63.0888" ry="18"/>
<text text-anchor="middle" x="1079" y="-190.3" font-family="Helvetica,sans-Serif" font-size="14.00" fill="gray">Organisation</text>
</a>
</g>
<!-- Organisation&#45;&gt;http://www.w3.org/2001/XMLSchema#date -->
<g id="edge50" class="edge"><title>Organisation&#45;&gt;http://www.w3.org/2001/XMLSchema#date</title>
<a xlink:href="./#validFrom" xlink:title="validFrom">
<path fill="none" stroke="darkslategray" d="M1032.44,-206.193C1005.24,-214.878 979.105,-228.401 995,-246 1007,-259.285 1082.68,-267.797 1159.91,-273.096"/>
<polygon fill="darkslategray" stroke="darkslategray" points="1160.11,-276.616 1170.32,-273.79 1160.58,-269.632 1160.11,-276.616"/>
</a>
<a xlink:href="./#validFrom" xlink:title="validFrom">
<text text-anchor="middle" x="1027" y="-234.3" font-family="Helvetica,sans-Serif" font-size="14.00">validFrom</text>
</a>
</g>
<!-- Organisation&#45;&gt;http://www.w3.org/2001/XMLSchema#date -->
<g id="edge60" class="edge"><title>Organisation&#45;&gt;http://www.w3.org/2001/XMLSchema#date</title>
<a xlink:href="./#validUntil" xlink:title="validUntil">
<path fill="none" stroke="darkslategray" d="M1080.92,-212.295C1083.13,-223.626 1087.86,-237.806 1098,-246 1111.74,-257.095 1142.23,-264.677 1177.02,-269.857"/>
<polygon fill="darkslategray" stroke="darkslategray" points="1176.55,-273.325 1186.94,-271.255 1177.53,-266.394 1176.55,-273.325"/>
</a>
<a xlink:href="./#validUntil" xlink:title="validUntil">
<text text-anchor="middle" x="1128" y="-234.3" font-family="Helvetica,sans-Serif" font-size="14.00">validUntil</text>
</a>
</g>
<!-- Situation -->
<g id="node44" class="node"><title>Situation</title>
<a xlink:href="./#Situation" xlink:title="Situation">
<ellipse fill="none" stroke="gray" cx="1207" cy="-194" rx="46.5926" ry="18"/>
<text text-anchor="middle" x="1207" y="-190.3" font-family="Helvetica,sans-Serif" font-size="14.00" fill="gray">Situation</text>
</a>
</g>
<!-- Situation&#45;&gt;http://www.w3.org/2001/XMLSchema#date -->
<g id="edge52" class="edge"><title>Situation&#45;&gt;http://www.w3.org/2001/XMLSchema#date</title>
<a xlink:href="./#validFrom" xlink:title="validFrom">
<path fill="none" stroke="darkslategray" d="M1182.37,-209.488C1168.16,-219.684 1154.91,-233.659 1165,-246 1171.91,-254.447 1188.36,-260.902 1208.52,-265.821"/>
<polygon fill="darkslategray" stroke="darkslategray" points="1207.82,-269.252 1218.35,-268.044 1209.37,-262.425 1207.82,-269.252"/>
</a>
<a xlink:href="./#validFrom" xlink:title="validFrom">
<text text-anchor="middle" x="1197" y="-234.3" font-family="Helvetica,sans-Serif" font-size="14.00">validFrom</text>
</a>
</g>
<!-- Situation&#45;&gt;http://www.w3.org/2001/XMLSchema#date -->
<g id="edge62" class="edge"><title>Situation&#45;&gt;http://www.w3.org/2001/XMLSchema#date</title>
<a xlink:href="./#validUntil" xlink:title="validUntil">
<path fill="none" stroke="darkslategray" d="M1218.4,-211.507C1226.67,-222.486 1238.71,-236.57 1252,-246 1259.71,-251.47 1268.4,-256.27 1277.21,-260.42"/>
<polygon fill="darkslategray" stroke="darkslategray" points="1275.85,-263.645 1286.41,-264.511 1278.69,-257.249 1275.85,-263.645"/>
</a>
<a xlink:href="./#validUntil" xlink:title="validUntil">
<text text-anchor="middle" x="1282" y="-234.3" font-family="Helvetica,sans-Serif" font-size="14.00">validUntil</text>
</a>
</g>
</g>
</svg>
