<?xml version="1.0" encoding="UTF-8" standalone="no"?>
<!DOCTYPE svg PUBLIC "-//W3C//DTD SVG 1.1//EN"
 "http://www.w3.org/Graphics/SVG/1.1/DTD/svg11.dtd">
<!-- Generated by graphviz version 2.28.0 (20110507.0327)
 -->
<!-- Title: _anonymous_0 Pages: 1 -->
<svg width="1079pt" height="402pt"
 viewBox="0.00 0.00 1079.00 402.00" xmlns="http://www.w3.org/2000/svg" xmlns:xlink="http://www.w3.org/1999/xlink">
<g id="graph1" class="graph" transform="scale(1 1) rotate(0) translate(4 398)">
<title>_anonymous_0</title>
<polygon fill="white" stroke="white" points="-4,5 -4,-398 1076,-398 1076,5 -4,5"/>
<!-- ApprovalLevel -->
<g id="node1" class="node"><title>ApprovalLevel</title>
<a xlink:href="./#ApprovalLevel" xlink:title="ApprovalLevel">
<ellipse fill="none" stroke="black" cx="398" cy="-160" rx="69.5877" ry="18"/>
<text text-anchor="middle" x="398" y="-156.3" font-family="Helvetica,sans-Serif" font-size="14.00">ApprovalLevel</text>
</a>
</g>
<!-- BaseClass -->
<g id="node2" class="node"><title>BaseClass</title>
<a xlink:href="./#BaseClass" xlink:title="BaseClass">
<ellipse fill="none" stroke="gray" cx="398" cy="-288" rx="55.7903" ry="18"/>
<text text-anchor="middle" x="398" y="-284.3" font-family="Helvetica,sans-Serif" font-size="14.00" fill="gray">BaseClass</text>
</a>
</g>
<!-- ApprovalLevel&#45;&gt;BaseClass -->
<g id="edge2" class="edge"><title>ApprovalLevel&#45;&gt;BaseClass</title>
<path fill="none" stroke="red" stroke-dasharray="5,2" d="M398,-178.256C398,-199.274 398,-235.031 398,-259.775"/>
<polygon fill="red" stroke="red" points="394.5,-259.953 398,-269.953 401.5,-259.953 394.5,-259.953"/>
</g>
<!-- http://www.w3.org/2000/01/rdf&#45;schema#Literal -->
<g id="node27" class="node"><title>http://www.w3.org/2000/01/rdf&#45;schema#Literal</title>
<a xlink:href="./#http://www.w3.org/2000/01/rdf-schema#Literal" xlink:title="http://www.w3.org/2000/01/rdf&#45;schema#Literal">
<ellipse fill="none" stroke="gray" cx="398" cy="-376" rx="198.765" ry="18"/>
<text text-anchor="middle" x="398" y="-372.3" font-family="Helvetica,sans-Serif" font-size="14.00" fill="gray">http://www.w3.org/2000/01/rdf&#45;schema#Literal</text>
</a>
</g>
<!-- BaseClass&#45;&gt;http://www.w3.org/2000/01/rdf&#45;schema#Literal -->
<g id="edge30" class="edge"><title>BaseClass&#45;&gt;http://www.w3.org/2000/01/rdf&#45;schema#Literal</title>
<a xlink:href="./#comment" xlink:title="comment">
<path fill="none" stroke="darkslategray" d="M351.972,-298.234C338.051,-303.412 324.274,-311.472 316,-324 307.698,-336.57 315.326,-346.598 328.723,-354.321"/>
<polygon fill="darkslategray" stroke="darkslategray" points="327.212,-357.479 337.72,-358.834 330.35,-351.222 327.212,-357.479"/>
</a>
<a xlink:href="./#comment" xlink:title="comment">
<text text-anchor="middle" x="346" y="-328.3" font-family="Helvetica,sans-Serif" font-size="14.00">comment</text>
</a>
</g>
<!-- BaseClass&#45;&gt;http://www.w3.org/2000/01/rdf&#45;schema#Literal -->
<g id="edge34" class="edge"><title>BaseClass&#45;&gt;http://www.w3.org/2000/01/rdf&#45;schema#Literal</title>
<a xlink:href="./#description" xlink:title="description">
<path fill="none" stroke="darkslategray" d="M398,-306.403C398,-318.254 398,-334.183 398,-347.708"/>
<polygon fill="darkslategray" stroke="darkslategray" points="394.5,-347.916 398,-357.916 401.5,-347.916 394.5,-347.916"/>
</a>
<a xlink:href="./#description" xlink:title="description">
<text text-anchor="middle" x="433" y="-328.3" font-family="Helvetica,sans-Serif" font-size="14.00">description</text>
</a>
</g>
<!-- BaseClass&#45;&gt;http://www.w3.org/2000/01/rdf&#45;schema#Literal -->
<g id="edge42" class="edge"><title>BaseClass&#45;&gt;http://www.w3.org/2000/01/rdf&#45;schema#Literal</title>
<a xlink:href="./#title" xlink:title="title">
<path fill="none" stroke="darkslategray" d="M437.843,-300.75C459.484,-309.371 479.821,-322.602 469,-340 466.006,-344.814 462.134,-348.985 457.743,-352.596"/>
<polygon fill="darkslategray" stroke="darkslategray" points="455.515,-349.884 449.36,-358.507 459.549,-355.605 455.515,-349.884"/>
</a>
<a xlink:href="./#title" xlink:title="title">
<text text-anchor="middle" x="483" y="-328.3" font-family="Helvetica,sans-Serif" font-size="14.00">title</text>
</a>
</g>
<!-- http://www.w3.org/2001/XMLSchema#date -->
<g id="node29" class="node"><title>http://www.w3.org/2001/XMLSchema#date</title>
<a xlink:href="./#http://www.w3.org/2001/XMLSchema#date" xlink:title="http://www.w3.org/2001/XMLSchema#date">
<ellipse fill="none" stroke="gray" cx="885" cy="-376" rx="185.467" ry="18"/>
<text text-anchor="middle" x="885" y="-372.3" font-family="Helvetica,sans-Serif" font-size="14.00" fill="gray">http://www.w3.org/2001/XMLSchema#date</text>
</a>
</g>
<!-- BaseClass&#45;&gt;http://www.w3.org/2001/XMLSchema#date -->
<g id="edge32" class="edge"><title>BaseClass&#45;&gt;http://www.w3.org/2001/XMLSchema#date</title>
<a xlink:href="./#date" xlink:title="date">
<path fill="none" stroke="darkslategray" d="M445.582,-297.403C525.03,-311.432 686.163,-339.887 789.669,-358.165"/>
<polygon fill="darkslategray" stroke="darkslategray" points="789.356,-361.664 799.812,-359.957 790.573,-354.771 789.356,-361.664"/>
</a>
<a xlink:href="./#date" xlink:title="date">
<text text-anchor="middle" x="700" y="-328.3" font-family="Helvetica,sans-Serif" font-size="14.00">date</text>
</a>
</g>
<!-- DataContainer -->
<g id="node4" class="node"><title>DataContainer</title>
<a xlink:href="./#DataContainer" xlink:title="DataContainer">
<ellipse fill="none" stroke="black" cx="449" cy="-18" rx="69.5877" ry="18"/>
<text text-anchor="middle" x="449" y="-14.3" font-family="Helvetica,sans-Serif" font-size="14.00">DataContainer</text>
</a>
</g>
<!-- DataContainer&#45;&gt;ApprovalLevel -->
<g id="edge26" class="edge"><title>DataContainer&#45;&gt;ApprovalLevel</title>
<a xlink:href="./#approvedAtLevel" xlink:title="approvedAtLevel">
<path fill="none" stroke="darkslategray" d="M405.407,-32.1469C395.363,-37.3115 385.904,-44.385 380,-54 365.331,-77.8888 374.342,-110.297 384.135,-132.763"/>
<polygon fill="darkslategray" stroke="darkslategray" points="381.057,-134.444 388.459,-142.024 387.399,-131.482 381.057,-134.444"/>
</a>
<a xlink:href="./#approvedAtLevel" xlink:title="approvedAtLevel">
<text text-anchor="middle" x="434.5" y="-58.3" font-family="Helvetica,sans-Serif" font-size="14.00">approvedAtLevel</text>
</a>
</g>
<!-- DataContainer&#45;&gt;BaseClass -->
<g id="edge4" class="edge"><title>DataContainer&#45;&gt;BaseClass</title>
<path fill="none" stroke="red" stroke-dasharray="5,2" d="M500.164,-30.2663C509.104,-32.202 518.319,-34.1763 527,-36 566.494,-44.2972 590.448,-22.7631 616,-54 620.502,-59.5042 618.017,-63.1808 616,-70 588.241,-163.864 488.474,-234.561 434.045,-267.146"/>
<polygon fill="red" stroke="red" points="432.243,-264.146 425.397,-272.231 435.791,-270.18 432.243,-264.146"/>
</g>
<!-- HXLer -->
<g id="node6" class="node"><title>HXLer</title>
<a xlink:href="./#HXLer" xlink:title="HXLer">
<ellipse fill="none" stroke="black" cx="216" cy="-106" rx="37.0935" ry="18"/>
<text text-anchor="middle" x="216" y="-102.3" font-family="Helvetica,sans-Serif" font-size="14.00">HXLer</text>
</a>
</g>
<!-- DataContainer&#45;&gt;HXLer -->
<g id="edge28" class="edge"><title>DataContainer&#45;&gt;HXLer</title>
<a xlink:href="./#approvedBy" xlink:title="approvedBy">
<path fill="none" stroke="darkslategray" d="M386.26,-25.7741C354.569,-30.8007 316.129,-39.4102 284,-54 279.323,-56.1236 259.623,-71.0204 242.622,-84.1697"/>
<polygon fill="darkslategray" stroke="darkslategray" points="240.323,-81.5235 234.571,-90.4207 244.616,-87.0526 240.323,-81.5235"/>
</a>
<a xlink:href="./#approvedBy" xlink:title="approvedBy">
<text text-anchor="middle" x="322.5" y="-58.3" font-family="Helvetica,sans-Serif" font-size="14.00">approvedBy</text>
</a>
</g>
<!-- DataContainer&#45;&gt;HXLer -->
<g id="edge40" class="edge"><title>DataContainer&#45;&gt;HXLer</title>
<a xlink:href="./#reportedBy" xlink:title="reportedBy">
<path fill="none" stroke="darkslategray" d="M379.508,-18.3683C310.506,-19.4033 211.558,-25.9437 187,-54 179.558,-62.5025 184.012,-73.2133 191.449,-82.6218"/>
<polygon fill="darkslategray" stroke="darkslategray" points="188.916,-85.04 198.202,-90.1415 194.124,-80.3628 188.916,-85.04"/>
</a>
<a xlink:href="./#reportedBy" xlink:title="reportedBy">
<text text-anchor="middle" x="222.5" y="-58.3" font-family="Helvetica,sans-Serif" font-size="14.00">reportedBy</text>
</a>
</g>
<!-- ReportCategory -->
<g id="node12" class="node"><title>ReportCategory</title>
<a xlink:href="./#ReportCategory" xlink:title="ReportCategory">
<ellipse fill="none" stroke="black" cx="76" cy="-160" rx="76.8869" ry="18"/>
<text text-anchor="middle" x="76" y="-156.3" font-family="Helvetica,sans-Serif" font-size="14.00">ReportCategory</text>
</a>
</g>
<!-- DataContainer&#45;&gt;ReportCategory -->
<g id="edge38" class="edge"><title>DataContainer&#45;&gt;ReportCategory</title>
<a xlink:href="./#reportCategory" xlink:title="reportCategory">
<path fill="none" stroke="darkslategray" d="M380.22,-20.8988C280.207,-24.354 104.28,-33.3196 84,-54 64.264,-74.1257 65.3993,-108.097 69.4242,-131.935"/>
<polygon fill="darkslategray" stroke="darkslategray" points="65.9935,-132.629 71.3426,-141.774 72.8641,-131.289 65.9935,-132.629"/>
</a>
<a xlink:href="./#reportCategory" xlink:title="reportCategory">
<text text-anchor="middle" x="132" y="-58.3" font-family="Helvetica,sans-Serif" font-size="14.00">reportCategory</text>
</a>
</g>
<!-- Emergency -->
<g id="node23" class="node"><title>Emergency</title>
<a xlink:href="./#Emergency" xlink:title="Emergency">
<ellipse fill="none" stroke="gray" cx="515" cy="-106" rx="57.6901" ry="18"/>
<text text-anchor="middle" x="515" y="-102.3" font-family="Helvetica,sans-Serif" font-size="14.00" fill="gray">Emergency</text>
</a>
</g>
<!-- DataContainer&#45;&gt;Emergency -->
<g id="edge24" class="edge"><title>DataContainer&#45;&gt;Emergency</title>
<a xlink:href="./#aboutEmergency" xlink:title="aboutEmergency">
<path fill="none" stroke="darkslategray" d="M473.319,-34.9069C480.326,-40.3415 487.544,-46.8677 493,-54 498.498,-61.1872 502.922,-69.9584 506.32,-78.1865"/>
<polygon fill="darkslategray" stroke="darkslategray" points="503.148,-79.6949 509.959,-87.8106 509.696,-77.219 503.148,-79.6949"/>
</a>
<a xlink:href="./#aboutEmergency" xlink:title="aboutEmergency">
<text text-anchor="middle" x="557.5" y="-58.3" font-family="Helvetica,sans-Serif" font-size="14.00">aboutEmergency</text>
</a>
</g>
<!-- DataContainer&#45;&gt;http://www.w3.org/2001/XMLSchema#date -->
<g id="edge44" class="edge"><title>DataContainer&#45;&gt;http://www.w3.org/2001/XMLSchema#date</title>
<a xlink:href="./#validOn" xlink:title="validOn">
<path fill="none" stroke="darkslategray" d="M497.904,-30.7712C507.506,-32.7667 517.535,-34.6322 527,-36 625.824,-50.2818 971,-5.149 971,-105 971,-105 971,-105 971,-289 971,-316.215 949.2,-337.826 927.551,-352.577"/>
<polygon fill="darkslategray" stroke="darkslategray" points="925.505,-349.732 918.989,-358.086 929.293,-355.618 925.505,-349.732"/>
</a>
<a xlink:href="./#validOn" xlink:title="validOn">
<text text-anchor="middle" x="995" y="-210.3" font-family="Helvetica,sans-Serif" font-size="14.00">validOn</text>
</a>
</g>
<!-- http://xmlns.com/foaf/0.1/Document -->
<g id="node32" class="node"><title>http://xmlns.com/foaf/0.1/Document</title>
<a xlink:href="./#http://xmlns.com/foaf/0.1/Document" xlink:title="http://xmlns.com/foaf/0.1/Document">
<ellipse fill="none" stroke="gray" cx="786" cy="-106" rx="156.772" ry="18"/>
<text text-anchor="middle" x="786" y="-102.3" font-family="Helvetica,sans-Serif" font-size="14.00" fill="gray">http://xmlns.com/foaf/0.1/Document</text>
</a>
</g>
<!-- DataContainer&#45;&gt;http://xmlns.com/foaf/0.1/Document -->
<g id="edge36" class="edge"><title>DataContainer&#45;&gt;http://xmlns.com/foaf/0.1/Document</title>
<a xlink:href="./#relatedInfo" xlink:title="relatedInfo">
<path fill="none" stroke="darkslategray" d="M499.243,-30.5127C508.453,-32.4626 517.998,-34.3782 527,-36 582.672,-46.0298 598.247,-39.7839 653,-54 682.714,-61.7151 714.885,-73.9404 740.143,-84.4875"/>
<polygon fill="darkslategray" stroke="darkslategray" points="738.892,-87.7586 749.465,-88.4348 741.622,-81.3126 738.892,-87.7586"/>
</a>
<a xlink:href="./#relatedInfo" xlink:title="relatedInfo">
<text text-anchor="middle" x="736.5" y="-58.3" font-family="Helvetica,sans-Serif" font-size="14.00">relatedInfo</text>
</a>
</g>
<!-- HXLer&#45;&gt;BaseClass -->
<g id="edge8" class="edge"><title>HXLer&#45;&gt;BaseClass</title>
<path fill="none" stroke="red" stroke-dasharray="5,2" d="M218.876,-124.254C224.134,-150.727 237.677,-201.494 268,-232 288.528,-252.652 318.006,-265.981 343.703,-274.337"/>
<polygon fill="red" stroke="red" points="342.753,-277.706 353.34,-277.3 344.811,-271.016 342.753,-277.706"/>
</g>
<!-- http://xmlns.com/foaf/0.1/Agent -->
<g id="node7" class="node"><title>http://xmlns.com/foaf/0.1/Agent</title>
<a xlink:href="./#Source" xlink:title="http://xmlns.com/foaf/0.1/Agent">
<ellipse fill="none" stroke="gray" cx="178" cy="-288" rx="138.375" ry="18"/>
<text text-anchor="middle" x="178" y="-284.3" font-family="Helvetica,sans-Serif" font-size="14.00" fill="gray">http://xmlns.com/foaf/0.1/Agent</text>
</a>
</g>
<!-- HXLer&#45;&gt;http://xmlns.com/foaf/0.1/Agent -->
<g id="edge6" class="edge"><title>HXLer&#45;&gt;http://xmlns.com/foaf/0.1/Agent</title>
<path fill="none" stroke="red" stroke-dasharray="5,2" d="M212.425,-123.934C205.833,-155.158 191.712,-222.048 183.756,-259.735"/>
<polygon fill="red" stroke="red" points="180.234,-259.473 181.593,-269.98 187.083,-260.919 180.234,-259.473"/>
</g>
<!-- Source -->
<g id="node11" class="node"><title>Source</title>
<a xlink:href="./#Source" xlink:title="Source">
<ellipse fill="none" stroke="black" cx="317" cy="-214" rx="40.0939" ry="18"/>
<text text-anchor="middle" x="317" y="-210.3" font-family="Helvetica,sans-Serif" font-size="14.00">Source</text>
</a>
</g>
<!-- HXLer&#45;&gt;Source -->
<g id="edge10" class="edge"><title>HXLer&#45;&gt;Source</title>
<path fill="none" stroke="red" stroke-dasharray="5,2" d="M237.133,-120.818C245.606,-126.833 255.191,-134.27 263,-142 277.127,-155.985 290.663,-173.795 300.65,-188.079"/>
<polygon fill="red" stroke="red" points="297.845,-190.178 306.382,-196.452 303.621,-186.223 297.845,-190.178"/>
</g>
<!-- Source&#45;&gt;BaseClass -->
<g id="edge20" class="edge"><title>Source&#45;&gt;BaseClass</title>
<path fill="none" stroke="red" stroke-dasharray="5,2" d="M334.178,-230.269C345.149,-240.022 359.584,-252.853 371.951,-263.845"/>
<polygon fill="red" stroke="red" points="369.922,-266.724 379.721,-270.752 374.572,-261.492 369.922,-266.724"/>
</g>
<!-- Source&#45;&gt;http://xmlns.com/foaf/0.1/Agent -->
<g id="edge18" class="edge"><title>Source&#45;&gt;http://xmlns.com/foaf/0.1/Agent</title>
<path fill="none" stroke="red" stroke-dasharray="5,2" d="M291.828,-228.039C271.592,-238.521 242.75,-253.46 219.163,-265.678"/>
<polygon fill="red" stroke="red" points="217.349,-262.676 210.08,-270.383 220.569,-268.892 217.349,-262.676"/>
</g>
<!-- ReportCategory&#45;&gt;BaseClass -->
<g id="edge12" class="edge"><title>ReportCategory&#45;&gt;BaseClass</title>
<path fill="none" stroke="red" stroke-dasharray="5,2" d="M98.7966,-177.227C128.663,-197.719 183.328,-232.632 235,-252 273.197,-266.317 285.131,-261.373 325,-270 331.494,-271.405 338.302,-272.926 345.04,-274.461"/>
<polygon fill="red" stroke="red" points="344.288,-277.879 354.818,-276.707 345.855,-271.057 344.288,-277.879"/>
</g>
<!-- ReportCategorySet -->
<g id="node14" class="node"><title>ReportCategorySet</title>
<a xlink:href="./#ReportCategorySet" xlink:title="ReportCategorySet">
<ellipse fill="none" stroke="black" cx="720" cy="-214" rx="90.9839" ry="18"/>
<text text-anchor="middle" x="720" y="-210.3" font-family="Helvetica,sans-Serif" font-size="14.00">ReportCategorySet</text>
</a>
</g>
<!-- ReportCategorySet&#45;&gt;BaseClass -->
<g id="edge14" class="edge"><title>ReportCategorySet&#45;&gt;BaseClass</title>
<path fill="none" stroke="red" stroke-dasharray="5,2" d="M681.623,-230.418C661.962,-237.828 637.486,-246.314 615,-252 565.271,-264.576 551.638,-261.823 501,-270 486.463,-272.347 470.778,-274.917 456.138,-277.332"/>
<polygon fill="red" stroke="red" points="455.493,-273.891 446.197,-278.974 456.634,-280.797 455.493,-273.891"/>
</g>
<!-- http://www.w3.org/1999/02/22&#45;rdf&#45;syntax&#45;ns#Bag -->
<g id="node16" class="node"><title>http://www.w3.org/1999/02/22&#45;rdf&#45;syntax&#45;ns#Bag</title>
<a xlink:href="./#ReportCategorySet" xlink:title="http://www.w3.org/1999/02/22&#45;rdf&#45;syntax&#45;ns#Bag">
<ellipse fill="none" stroke="gray" cx="720" cy="-288" rx="209.863" ry="18"/>
<text text-anchor="middle" x="720" y="-284.3" font-family="Helvetica,sans-Serif" font-size="14.00" fill="gray">http://www.w3.org/1999/02/22&#45;rdf&#45;syntax&#45;ns#Bag</text>
</a>
</g>
<!-- ReportCategorySet&#45;&gt;http://www.w3.org/1999/02/22&#45;rdf&#45;syntax&#45;ns#Bag -->
<g id="edge16" class="edge"><title>ReportCategorySet&#45;&gt;http://www.w3.org/1999/02/22&#45;rdf&#45;syntax&#45;ns#Bag</title>
<path fill="none" stroke="red" stroke-dasharray="5,2" d="M720,-232.063C720,-240.193 720,-250.124 720,-259.295"/>
<polygon fill="red" stroke="red" points="716.5,-259.559 720,-269.559 723.5,-259.559 716.5,-259.559"/>
</g>
<!-- System -->
<g id="node20" class="node"><title>System</title>
<a xlink:href="./#System" xlink:title="System">
<ellipse fill="none" stroke="black" cx="313" cy="-106" rx="42.4939" ry="18"/>
<text text-anchor="middle" x="313" y="-102.3" font-family="Helvetica,sans-Serif" font-size="14.00">System</text>
</a>
</g>
<!-- System&#45;&gt;Source -->
<g id="edge22" class="edge"><title>System&#45;&gt;Source</title>
<path fill="none" stroke="red" stroke-dasharray="5,2" d="M313.643,-124.031C314.269,-140.622 315.231,-166.117 315.965,-185.569"/>
<polygon fill="red" stroke="red" points="312.471,-185.799 316.346,-195.659 319.466,-185.534 312.471,-185.799"/>
</g>
<!-- http://purl.org/dc/terms/PeriodOfTime -->
<g id="node22" class="node"><title>http://purl.org/dc/terms/PeriodOfTime</title>
<a xlink:href="./#http://purl.org/dc/terms/PeriodOfTime" xlink:title="http://purl.org/dc/terms/PeriodOfTime">
<ellipse fill="none" stroke="black" cx="700" cy="-18" rx="163.571" ry="18"/>
<text text-anchor="middle" x="700" y="-14.3" font-family="Helvetica,sans-Serif" font-size="14.00">http://purl.org/dc/terms/PeriodOfTime</text>
</a>
</g>
</g>
</svg>
