<?xml version="1.0" encoding="UTF-8" standalone="no"?>
<!DOCTYPE svg PUBLIC "-//W3C//DTD SVG 1.1//EN"
 "http://www.w3.org/Graphics/SVG/1.1/DTD/svg11.dtd">
<!-- Generated by graphviz version 2.28.0 (20121022.1408)
 -->
<!-- Title: _anonymous_0 Pages: 1 -->
<svg width="1087pt" height="402pt"
 viewBox="0.00 0.00 1087.00 402.00" xmlns="http://www.w3.org/2000/svg" xmlns:xlink="http://www.w3.org/1999/xlink">
<g id="graph1" class="graph" transform="scale(1 1) rotate(0) translate(4 398)">
<title>_anonymous_0</title>
<polygon fill="white" stroke="white" points="-4,5 -4,-398 1084,-398 1084,5 -4,5"/>
<!-- ApprovalLevel -->
<g id="node1" class="node"><title>ApprovalLevel</title>
<a xlink:href="./#ApprovalLevel" xlink:title="ApprovalLevel">
<ellipse fill="none" stroke="black" cx="398" cy="-160" rx="72.2875" ry="18"/>
<text text-anchor="middle" x="398" y="-156.3" font-family="Helvetica,sans-Serif" font-size="14.00">ApprovalLevel</text>
</a>
</g>
<!-- BaseClass -->
<g id="node2" class="node"><title>BaseClass</title>
<a xlink:href="./#BaseClass" xlink:title="BaseClass">
<ellipse fill="none" stroke="gray" cx="398" cy="-288" rx="55.7903" ry="18"/>
<text text-anchor="middle" x="398" y="-284.3" font-family="Helvetica,sans-Serif" font-size="14.00" fill="gray">BaseClass</text>
</a>
</g>
<!-- ApprovalLevel&#45;&gt;BaseClass -->
<g id="edge2" class="edge"><title>ApprovalLevel&#45;&gt;BaseClass</title>
<path fill="none" stroke="red" stroke-dasharray="5,2" d="M398,-178.256C398,-199.274 398,-235.031 398,-259.775"/>
<polygon fill="red" stroke="red" points="394.5,-259.953 398,-269.953 401.5,-259.953 394.5,-259.953"/>
</g>
<!-- http://www.w3.org/2000/01/rdf&#45;schema#Literal -->
<g id="node27" class="node"><title>http://www.w3.org/2000/01/rdf&#45;schema#Literal</title>
<a xlink:href="./#http://www.w3.org/2000/01/rdf-schema#Literal" xlink:title="http://www.w3.org/2000/01/rdf&#45;schema#Literal">
<ellipse fill="none" stroke="gray" cx="398" cy="-376" rx="200.365" ry="18"/>
<text text-anchor="middle" x="398" y="-372.3" font-family="Helvetica,sans-Serif" font-size="14.00" fill="gray">http://www.w3.org/2000/01/rdf&#45;schema#Literal</text>
</a>
</g>
<!-- BaseClass&#45;&gt;http://www.w3.org/2000/01/rdf&#45;schema#Literal -->
<g id="edge30" class="edge"><title>BaseClass&#45;&gt;http://www.w3.org/2000/01/rdf&#45;schema#Literal</title>
<a xlink:href="./#comment" xlink:title="comment">
<path fill="none" stroke="darkslategray" d="M353.691,-298.946C327.588,-307.06 302.002,-320.412 315,-340 318.379,-345.092 322.661,-349.445 327.49,-353.166"/>
<polygon fill="darkslategray" stroke="darkslategray" points="325.803,-356.247 336.073,-358.85 329.668,-350.411 325.803,-356.247"/>
</a>
<a xlink:href="./#comment" xlink:title="comment">
<text text-anchor="middle" x="345.5" y="-328.3" font-family="Helvetica,sans-Serif" font-size="14.00">comment</text>
</a>
</g>
<!-- BaseClass&#45;&gt;http://www.w3.org/2000/01/rdf&#45;schema#Literal -->
<g id="edge34" class="edge"><title>BaseClass&#45;&gt;http://www.w3.org/2000/01/rdf&#45;schema#Literal</title>
<a xlink:href="./#description" xlink:title="description">
<path fill="none" stroke="darkslategray" d="M398,-306.403C398,-318.254 398,-334.183 398,-347.708"/>
<polygon fill="darkslategray" stroke="darkslategray" points="394.5,-347.916 398,-357.916 401.5,-347.916 394.5,-347.916"/>
</a>
<a xlink:href="./#description" xlink:title="description">
<text text-anchor="middle" x="433.5" y="-328.3" font-family="Helvetica,sans-Serif" font-size="14.00">description</text>
</a>
</g>
<!-- BaseClass&#45;&gt;http://www.w3.org/2000/01/rdf&#45;schema#Literal -->
<g id="edge42" class="edge"><title>BaseClass&#45;&gt;http://www.w3.org/2000/01/rdf&#45;schema#Literal</title>
<a xlink:href="./#title" xlink:title="title">
<path fill="none" stroke="darkslategray" d="M439.68,-300.004C451.521,-305.264 463.069,-312.925 470,-324 477.395,-335.817 470.434,-345.677 458.39,-353.478"/>
<polygon fill="darkslategray" stroke="darkslategray" points="456.362,-350.603 449.354,-358.549 459.787,-356.707 456.362,-350.603"/>
</a>
<a xlink:href="./#title" xlink:title="title">
<text text-anchor="middle" x="486" y="-328.3" font-family="Helvetica,sans-Serif" font-size="14.00">title</text>
</a>
</g>
<!-- http://www.w3.org/2001/XMLSchema#date -->
<g id="node29" class="node"><title>http://www.w3.org/2001/XMLSchema#date</title>
<a xlink:href="./#http://www.w3.org/2001/XMLSchema#date" xlink:title="http://www.w3.org/2001/XMLSchema#date">
<ellipse fill="none" stroke="gray" cx="890" cy="-376" rx="188.467" ry="18"/>
<text text-anchor="middle" x="890" y="-372.3" font-family="Helvetica,sans-Serif" font-size="14.00" fill="gray">http://www.w3.org/2001/XMLSchema#date</text>
</a>
</g>
<!-- BaseClass&#45;&gt;http://www.w3.org/2001/XMLSchema#date -->
<g id="edge32" class="edge"><title>BaseClass&#45;&gt;http://www.w3.org/2001/XMLSchema#date</title>
<a xlink:href="./#date" xlink:title="date">
<path fill="none" stroke="darkslategray" d="M445.622,-297.324C525.755,-311.331 689.042,-339.873 793.801,-358.185"/>
<polygon fill="darkslategray" stroke="darkslategray" points="793.298,-361.65 803.751,-359.924 794.503,-354.754 793.298,-361.65"/>
</a>
<a xlink:href="./#date" xlink:title="date">
<text text-anchor="middle" x="703.5" y="-328.3" font-family="Helvetica,sans-Serif" font-size="14.00">date</text>
</a>
</g>
<!-- DataContainer -->
<g id="node4" class="node"><title>DataContainer</title>
<a xlink:href="./#DataContainer" xlink:title="DataContainer">
<ellipse fill="none" stroke="black" cx="451" cy="-18" rx="70.3881" ry="18"/>
<text text-anchor="middle" x="451" y="-14.3" font-family="Helvetica,sans-Serif" font-size="14.00">DataContainer</text>
</a>
</g>
<!-- DataContainer&#45;&gt;ApprovalLevel -->
<g id="edge26" class="edge"><title>DataContainer&#45;&gt;ApprovalLevel</title>
<a xlink:href="./#approvedAtLevel" xlink:title="approvedAtLevel">
<path fill="none" stroke="darkslategray" d="M406.173,-31.8928C395.837,-37.0594 386.097,-44.1974 380,-54 365.195,-77.8046 374.231,-110.229 384.067,-132.721"/>
<polygon fill="darkslategray" stroke="darkslategray" points="380.999,-134.423 388.411,-141.994 387.338,-131.453 380.999,-134.423"/>
</a>
<a xlink:href="./#approvedAtLevel" xlink:title="approvedAtLevel">
<text text-anchor="middle" x="436.5" y="-58.3" font-family="Helvetica,sans-Serif" font-size="14.00">approvedAtLevel</text>
</a>
</g>
<!-- DataContainer&#45;&gt;BaseClass -->
<g id="edge4" class="edge"><title>DataContainer&#45;&gt;BaseClass</title>
<path fill="none" stroke="red" stroke-dasharray="5,2" d="M502.815,-30.2952C511.87,-32.2277 521.205,-34.1935 530,-36 572.7,-44.7707 634.362,-28.1978 622,-70 593.855,-165.171 491.179,-235.303 435.129,-267.462"/>
<polygon fill="red" stroke="red" points="433.218,-264.522 426.222,-272.478 436.653,-270.621 433.218,-264.522"/>
</g>
<!-- HXLer -->
<g id="node6" class="node"><title>HXLer</title>
<a xlink:href="./#HXLer" xlink:title="HXLer">
<ellipse fill="none" stroke="black" cx="211" cy="-106" rx="38.1938" ry="18"/>
<text text-anchor="middle" x="211" y="-102.3" font-family="Helvetica,sans-Serif" font-size="14.00">HXLer</text>
</a>
</g>
<!-- DataContainer&#45;&gt;HXLer -->
<g id="edge28" class="edge"><title>DataContainer&#45;&gt;HXLer</title>
<a xlink:href="./#approvedBy" xlink:title="approvedBy">
<path fill="none" stroke="darkslategray" d="M386.842,-25.4218C353.856,-30.3691 313.63,-39.014 280,-54 277.581,-55.0779 256.555,-70.6981 238.342,-84.3703"/>
<polygon fill="darkslategray" stroke="darkslategray" points="236.138,-81.6484 230.248,-90.4557 240.344,-87.2433 236.138,-81.6484"/>
</a>
<a xlink:href="./#approvedBy" xlink:title="approvedBy">
<text text-anchor="middle" x="320.5" y="-58.3" font-family="Helvetica,sans-Serif" font-size="14.00">approvedBy</text>
</a>
</g>
<!-- DataContainer&#45;&gt;HXLer -->
<g id="edge40" class="edge"><title>DataContainer&#45;&gt;HXLer</title>
<a xlink:href="./#reportedBy" xlink:title="reportedBy">
<path fill="none" stroke="darkslategray" d="M383.635,-23.1164C307.773,-28.4538 193.273,-38.9025 180,-54 172.41,-62.633 177.22,-73.3611 185.108,-82.7474"/>
<polygon fill="darkslategray" stroke="darkslategray" points="182.819,-85.4189 192.253,-90.2408 187.885,-80.5882 182.819,-85.4189"/>
</a>
<a xlink:href="./#reportedBy" xlink:title="reportedBy">
<text text-anchor="middle" x="217" y="-58.3" font-family="Helvetica,sans-Serif" font-size="14.00">reportedBy</text>
</a>
</g>
<!-- ReportCategory -->
<g id="node12" class="node"><title>ReportCategory</title>
<a xlink:href="./#ReportCategory" xlink:title="ReportCategory">
<ellipse fill="none" stroke="black" cx="78" cy="-160" rx="78.7863" ry="18"/>
<text text-anchor="middle" x="78" y="-156.3" font-family="Helvetica,sans-Serif" font-size="14.00">ReportCategory</text>
</a>
</g>
<!-- DataContainer&#45;&gt;ReportCategory -->
<g id="edge38" class="edge"><title>DataContainer&#45;&gt;ReportCategory</title>
<a xlink:href="./#reportCategory" xlink:title="reportCategory">
<path fill="none" stroke="darkslategray" d="M381.459,-20.4931C278.201,-23.4393 94.258,-31.7742 74,-54 55.0529,-74.7876 60.3797,-108.623 67.6139,-132.249"/>
<polygon fill="darkslategray" stroke="darkslategray" points="64.3825,-133.622 70.8783,-141.992 71.0198,-131.398 64.3825,-133.622"/>
</a>
<a xlink:href="./#reportCategory" xlink:title="reportCategory">
<text text-anchor="middle" x="123.5" y="-58.3" font-family="Helvetica,sans-Serif" font-size="14.00">reportCategory</text>
</a>
</g>
<!-- Emergency -->
<g id="node23" class="node"><title>Emergency</title>
<a xlink:href="./#Emergency" xlink:title="Emergency">
<ellipse fill="none" stroke="gray" cx="519" cy="-106" rx="59.2899" ry="18"/>
<text text-anchor="middle" x="519" y="-102.3" font-family="Helvetica,sans-Serif" font-size="14.00" fill="gray">Emergency</text>
</a>
</g>
<!-- DataContainer&#45;&gt;Emergency -->
<g id="edge24" class="edge"><title>DataContainer&#45;&gt;Emergency</title>
<a xlink:href="./#aboutEmergency" xlink:title="aboutEmergency">
<path fill="none" stroke="darkslategray" d="M476.922,-35.0908C484.098,-40.4487 491.435,-46.8864 497,-54 502.637,-61.2059 507.117,-70.0755 510.524,-78.3859"/>
<polygon fill="darkslategray" stroke="darkslategray" points="507.248,-79.6167 514.035,-87.7515 513.802,-77.1593 507.248,-79.6167"/>
</a>
<a xlink:href="./#aboutEmergency" xlink:title="aboutEmergency">
<text text-anchor="middle" x="562.5" y="-58.3" font-family="Helvetica,sans-Serif" font-size="14.00">aboutEmergency</text>
</a>
</g>
<!-- DataContainer&#45;&gt;http://www.w3.org/2001/XMLSchema#date -->
<g id="edge44" class="edge"><title>DataContainer&#45;&gt;http://www.w3.org/2001/XMLSchema#date</title>
<a xlink:href="./#validOn" xlink:title="validOn">
<path fill="none" stroke="darkslategray" d="M500.536,-30.7712C510.261,-32.7667 520.417,-34.6322 530,-36 629.284,-50.171 976,-4.7098 976,-105 976,-105 976,-105 976,-289 976,-316.215 954.2,-337.826 932.551,-352.577"/>
<polygon fill="darkslategray" stroke="darkslategray" points="930.505,-349.732 923.989,-358.086 934.293,-355.618 930.505,-349.732"/>
</a>
<a xlink:href="./#validOn" xlink:title="validOn">
<text text-anchor="middle" x="1000.5" y="-210.3" font-family="Helvetica,sans-Serif" font-size="14.00">validOn</text>
</a>
</g>
<!-- http://xmlns.com/foaf/0.1/Document -->
<g id="node32" class="node"><title>http://xmlns.com/foaf/0.1/Document</title>
<a xlink:href="./#http://xmlns.com/foaf/0.1/Document" xlink:title="http://xmlns.com/foaf/0.1/Document">
<ellipse fill="none" stroke="gray" cx="791" cy="-106" rx="156.772" ry="18"/>
<text text-anchor="middle" x="791" y="-102.3" font-family="Helvetica,sans-Serif" font-size="14.00" fill="gray">http://xmlns.com/foaf/0.1/Document</text>
</a>
</g>
<!-- DataContainer&#45;&gt;http://xmlns.com/foaf/0.1/Document -->
<g id="edge36" class="edge"><title>DataContainer&#45;&gt;http://xmlns.com/foaf/0.1/Document</title>
<a xlink:href="./#relatedInfo" xlink:title="relatedInfo">
<path fill="none" stroke="darkslategray" d="M501.888,-30.5242C511.215,-32.473 520.883,-34.3852 530,-36 587.002,-46.0959 602.964,-39.4725 659,-54 688.522,-61.6538 720.453,-73.8773 745.513,-84.4388"/>
<polygon fill="darkslategray" stroke="darkslategray" points="744.191,-87.68 754.762,-88.3922 746.943,-81.2434 744.191,-87.68"/>
</a>
<a xlink:href="./#relatedInfo" xlink:title="relatedInfo">
<text text-anchor="middle" x="742.5" y="-58.3" font-family="Helvetica,sans-Serif" font-size="14.00">relatedInfo</text>
</a>
</g>
<!-- HXLer&#45;&gt;BaseClass -->
<g id="edge8" class="edge"><title>HXLer&#45;&gt;BaseClass</title>
<path fill="none" stroke="red" stroke-dasharray="5,2" d="M214.469,-124.279C220.628,-150.785 235.867,-201.596 267,-232 287.968,-252.477 317.693,-265.794 343.529,-274.187"/>
<polygon fill="red" stroke="red" points="342.627,-277.571 353.214,-277.166 344.685,-270.88 342.627,-277.571"/>
</g>
<!-- http://xmlns.com/foaf/0.1/Agent -->
<g id="node7" class="node"><title>http://xmlns.com/foaf/0.1/Agent</title>
<a xlink:href="./#Source" xlink:title="http://xmlns.com/foaf/0.1/Agent">
<ellipse fill="none" stroke="gray" cx="181" cy="-288" rx="139.175" ry="18"/>
<text text-anchor="middle" x="181" y="-284.3" font-family="Helvetica,sans-Serif" font-size="14.00" fill="gray">http://xmlns.com/foaf/0.1/Agent</text>
</a>
</g>
<!-- HXLer&#45;&gt;http://xmlns.com/foaf/0.1/Agent -->
<g id="edge6" class="edge"><title>HXLer&#45;&gt;http://xmlns.com/foaf/0.1/Agent</title>
<path fill="none" stroke="red" stroke-dasharray="5,2" d="M208.123,-124.259C202.904,-155.573 191.837,-221.979 185.572,-259.566"/>
<polygon fill="red" stroke="red" points="182.06,-259.354 183.868,-269.793 188.964,-260.505 182.06,-259.354"/>
</g>
<!-- Source -->
<g id="node11" class="node"><title>Source</title>
<a xlink:href="./#Source" xlink:title="Source">
<ellipse fill="none" stroke="black" cx="316" cy="-214" rx="40.0939" ry="18"/>
<text text-anchor="middle" x="316" y="-210.3" font-family="Helvetica,sans-Serif" font-size="14.00">Source</text>
</a>
</g>
<!-- HXLer&#45;&gt;Source -->
<g id="edge10" class="edge"><title>HXLer&#45;&gt;Source</title>
<path fill="none" stroke="red" stroke-dasharray="5,2" d="M234.007,-120.548C243.212,-126.523 253.602,-134.002 262,-142 276.488,-155.798 290.105,-173.75 300.041,-188.151"/>
<polygon fill="red" stroke="red" points="297.236,-190.252 305.726,-196.59 303.041,-186.341 297.236,-190.252"/>
</g>
<!-- Source&#45;&gt;BaseClass -->
<g id="edge20" class="edge"><title>Source&#45;&gt;BaseClass</title>
<path fill="none" stroke="red" stroke-dasharray="5,2" d="M333.39,-230.269C344.497,-240.022 359.11,-252.853 371.629,-263.845"/>
<polygon fill="red" stroke="red" points="369.672,-266.784 379.495,-270.752 374.29,-261.524 369.672,-266.784"/>
</g>
<!-- Source&#45;&gt;http://xmlns.com/foaf/0.1/Agent -->
<g id="edge18" class="edge"><title>Source&#45;&gt;http://xmlns.com/foaf/0.1/Agent</title>
<path fill="none" stroke="red" stroke-dasharray="5,2" d="M291.239,-228.206C271.703,-238.625 244.055,-253.371 221.334,-265.488"/>
<polygon fill="red" stroke="red" points="219.434,-262.535 212.258,-270.329 222.729,-268.711 219.434,-262.535"/>
</g>
<!-- ReportCategory&#45;&gt;BaseClass -->
<g id="edge12" class="edge"><title>ReportCategory&#45;&gt;BaseClass</title>
<path fill="none" stroke="red" stroke-dasharray="5,2" d="M100.285,-177.327C129.502,-197.927 183.043,-232.955 234,-252 274.254,-267.044 287.011,-260.857 329,-270 334.425,-271.181 340.074,-272.473 345.702,-273.799"/>
<polygon fill="red" stroke="red" points="345.215,-277.281 355.755,-276.207 346.846,-270.474 345.215,-277.281"/>
</g>
<!-- ReportCategorySet -->
<g id="node14" class="node"><title>ReportCategorySet</title>
<a xlink:href="./#ReportCategorySet" xlink:title="ReportCategorySet">
<ellipse fill="none" stroke="black" cx="727" cy="-214" rx="92.8835" ry="18"/>
<text text-anchor="middle" x="727" y="-210.3" font-family="Helvetica,sans-Serif" font-size="14.00">ReportCategorySet</text>
</a>
</g>
<!-- ReportCategorySet&#45;&gt;BaseClass -->
<g id="edge14" class="edge"><title>ReportCategorySet&#45;&gt;BaseClass</title>
<path fill="none" stroke="red" stroke-dasharray="5,2" d="M687.873,-230.419C667.833,-237.83 642.891,-246.315 620,-252 569.366,-264.576 555.535,-261.869 504,-270 488.596,-272.43 471.938,-275.088 456.491,-277.565"/>
<polygon fill="red" stroke="red" points="455.859,-274.121 446.54,-279.162 456.968,-281.033 455.859,-274.121"/>
</g>
<!-- http://www.w3.org/1999/02/22&#45;rdf&#45;syntax&#45;ns#Bag -->
<g id="node16" class="node"><title>http://www.w3.org/1999/02/22&#45;rdf&#45;syntax&#45;ns#Bag</title>
<a xlink:href="./#ReportCategorySet" xlink:title="http://www.w3.org/1999/02/22&#45;rdf&#45;syntax&#45;ns#Bag">
<ellipse fill="none" stroke="gray" cx="727" cy="-288" rx="213.662" ry="18"/>
<text text-anchor="middle" x="727" y="-284.3" font-family="Helvetica,sans-Serif" font-size="14.00" fill="gray">http://www.w3.org/1999/02/22&#45;rdf&#45;syntax&#45;ns#Bag</text>
</a>
</g>
<!-- ReportCategorySet&#45;&gt;http://www.w3.org/1999/02/22&#45;rdf&#45;syntax&#45;ns#Bag -->
<g id="edge16" class="edge"><title>ReportCategorySet&#45;&gt;http://www.w3.org/1999/02/22&#45;rdf&#45;syntax&#45;ns#Bag</title>
<path fill="none" stroke="red" stroke-dasharray="5,2" d="M727,-232.063C727,-240.193 727,-250.124 727,-259.295"/>
<polygon fill="red" stroke="red" points="723.5,-259.559 727,-269.559 730.5,-259.559 723.5,-259.559"/>
</g>
<!-- System -->
<g id="node20" class="node"><title>System</title>
<a xlink:href="./#System" xlink:title="System">
<ellipse fill="none" stroke="black" cx="311" cy="-106" rx="43.5923" ry="18"/>
<text text-anchor="middle" x="311" y="-102.3" font-family="Helvetica,sans-Serif" font-size="14.00">System</text>
</a>
</g>
<!-- System&#45;&gt;Source -->
<g id="edge22" class="edge"><title>System&#45;&gt;Source</title>
<path fill="none" stroke="red" stroke-dasharray="5,2" d="M311.803,-124.031C312.586,-140.622 313.789,-166.117 314.706,-185.569"/>
<polygon fill="red" stroke="red" points="311.215,-185.835 315.182,-195.659 318.207,-185.506 311.215,-185.835"/>
</g>
<!-- http://purl.org/dc/terms/PeriodOfTime -->
<g id="node22" class="node"><title>http://purl.org/dc/terms/PeriodOfTime</title>
<a xlink:href="./#http://purl.org/dc/terms/PeriodOfTime" xlink:title="http://purl.org/dc/terms/PeriodOfTime">
<ellipse fill="none" stroke="black" cx="704" cy="-18" rx="165.171" ry="18"/>
<text text-anchor="middle" x="704" y="-14.3" font-family="Helvetica,sans-Serif" font-size="14.00">http://purl.org/dc/terms/PeriodOfTime</text>
</a>
</g>
</g>
</svg>
