<?xml version="1.0" encoding="UTF-8" standalone="no"?>
<!DOCTYPE svg PUBLIC "-//W3C//DTD SVG 1.1//EN"
 "http://www.w3.org/Graphics/SVG/1.1/DTD/svg11.dtd">
<!-- Generated by graphviz version 2.28.0 (20110507.0327)
 -->
<!-- Title: _anonymous_0 Pages: 1 -->
<svg width="2770pt" height="308pt"
 viewBox="0.00 0.00 2770.00 308.00" xmlns="http://www.w3.org/2000/svg" xmlns:xlink="http://www.w3.org/1999/xlink">
<g id="graph1" class="graph" transform="scale(1 1) rotate(0) translate(4 304)">
<title>_anonymous_0</title>
<polygon fill="white" stroke="white" points="-4,5 -4,-304 2767,-304 2767,5 -4,5"/>
<!-- ApprovalLevel -->
<g id="node1" class="node"><title>ApprovalLevel</title>
<a xlink:href="./#ApprovalLevel" xlink:title="ApprovalLevel">
<ellipse fill="none" stroke="black" cx="407" cy="-106" rx="69.5877" ry="18"/>
<text text-anchor="middle" x="407" y="-102.3" font-family="Helvetica,sans-Serif" font-size="14.00">ApprovalLevel</text>
</a>
</g>
<!-- BaseClass -->
<g id="node2" class="node"><title>BaseClass</title>
<a xlink:href="./#BaseClass" xlink:title="BaseClass">
<ellipse fill="none" stroke="gray" cx="198" cy="-194" rx="55.7903" ry="18"/>
<text text-anchor="middle" x="198" y="-190.3" font-family="Helvetica,sans-Serif" font-size="14.00" fill="gray">BaseClass</text>
</a>
</g>
<!-- ApprovalLevel&#45;&gt;BaseClass -->
<g id="edge2" class="edge"><title>ApprovalLevel&#45;&gt;BaseClass</title>
<path fill="none" stroke="red" stroke-dasharray="5,2" d="M384.386,-123.069C367.98,-134.132 344.912,-148.494 323,-158 315.934,-161.065 280.77,-170.838 249.531,-179.279"/>
<polygon fill="red" stroke="red" points="248.313,-175.983 239.567,-181.963 250.133,-182.742 248.313,-175.983"/>
</g>
<!-- http://www.w3.org/2000/01/rdf&#45;schema#Literal -->
<g id="node24" class="node"><title>http://www.w3.org/2000/01/rdf&#45;schema#Literal</title>
<a xlink:href="./#http://www.w3.org/2000/01/rdf-schema#Literal" xlink:title="http://www.w3.org/2000/01/rdf&#45;schema#Literal">
<ellipse fill="none" stroke="gray" cx="198" cy="-282" rx="198.765" ry="18"/>
<text text-anchor="middle" x="198" y="-278.3" font-family="Helvetica,sans-Serif" font-size="14.00" fill="gray">http://www.w3.org/2000/01/rdf&#45;schema#Literal</text>
</a>
</g>
<!-- BaseClass&#45;&gt;http://www.w3.org/2000/01/rdf&#45;schema#Literal -->
<g id="edge26" class="edge"><title>BaseClass&#45;&gt;http://www.w3.org/2000/01/rdf&#45;schema#Literal</title>
<a xlink:href="./#comment" xlink:title="comment">
<path fill="none" stroke="darkslategray" d="M151.972,-204.234C138.051,-209.412 124.274,-217.472 116,-230 107.698,-242.57 115.326,-252.598 128.723,-260.321"/>
<polygon fill="darkslategray" stroke="darkslategray" points="127.212,-263.479 137.72,-264.834 130.35,-257.222 127.212,-263.479"/>
</a>
<a xlink:href="./#comment" xlink:title="comment">
<text text-anchor="middle" x="146" y="-234.3" font-family="Helvetica,sans-Serif" font-size="14.00">comment</text>
</a>
</g>
<!-- BaseClass&#45;&gt;http://www.w3.org/2000/01/rdf&#45;schema#Literal -->
<g id="edge30" class="edge"><title>BaseClass&#45;&gt;http://www.w3.org/2000/01/rdf&#45;schema#Literal</title>
<a xlink:href="./#description" xlink:title="description">
<path fill="none" stroke="darkslategray" d="M198,-212.403C198,-224.254 198,-240.183 198,-253.708"/>
<polygon fill="darkslategray" stroke="darkslategray" points="194.5,-253.916 198,-263.916 201.5,-253.916 194.5,-253.916"/>
</a>
<a xlink:href="./#description" xlink:title="description">
<text text-anchor="middle" x="233" y="-234.3" font-family="Helvetica,sans-Serif" font-size="14.00">description</text>
</a>
</g>
<!-- BaseClass&#45;&gt;http://www.w3.org/2000/01/rdf&#45;schema#Literal -->
<g id="edge44" class="edge"><title>BaseClass&#45;&gt;http://www.w3.org/2000/01/rdf&#45;schema#Literal</title>
<a xlink:href="./#title" xlink:title="title">
<path fill="none" stroke="darkslategray" d="M237.843,-206.75C259.484,-215.371 279.821,-228.602 269,-246 266.006,-250.814 262.134,-254.985 257.743,-258.596"/>
<polygon fill="darkslategray" stroke="darkslategray" points="255.515,-255.884 249.36,-264.507 259.549,-261.605 255.515,-255.884"/>
</a>
<a xlink:href="./#title" xlink:title="title">
<text text-anchor="middle" x="283" y="-234.3" font-family="Helvetica,sans-Serif" font-size="14.00">title</text>
</a>
</g>
<!-- http://www.w3.org/2001/XMLSchema#date -->
<g id="node26" class="node"><title>http://www.w3.org/2001/XMLSchema#date</title>
<a xlink:href="./#http://www.w3.org/2001/XMLSchema#date" xlink:title="http://www.w3.org/2001/XMLSchema#date">
<ellipse fill="none" stroke="gray" cx="1323" cy="-282" rx="185.467" ry="18"/>
<text text-anchor="middle" x="1323" y="-278.3" font-family="Helvetica,sans-Serif" font-size="14.00" fill="gray">http://www.w3.org/2001/XMLSchema#date</text>
</a>
</g>
<!-- BaseClass&#45;&gt;http://www.w3.org/2001/XMLSchema#date -->
<g id="edge28" class="edge"><title>BaseClass&#45;&gt;http://www.w3.org/2001/XMLSchema#date</title>
<a xlink:href="./#date" xlink:title="date">
<path fill="none" stroke="darkslategray" d="M237.976,-206.667C246.194,-208.722 254.831,-210.637 263,-212 562.477,-261.978 915.168,-276.211 1128.77,-280.005"/>
<polygon fill="darkslategray" stroke="darkslategray" points="1128.77,-283.505 1138.83,-280.178 1128.89,-276.506 1128.77,-283.505"/>
</a>
<a xlink:href="./#date" xlink:title="date">
<text text-anchor="middle" x="508" y="-234.3" font-family="Helvetica,sans-Serif" font-size="14.00">date</text>
</a>
</g>
<!-- BaseClass&#45;&gt;http://www.w3.org/2001/XMLSchema#date -->
<g id="edge66" class="edge"><title>BaseClass&#45;&gt;http://www.w3.org/2001/XMLSchema#date</title>
<a xlink:href="./#validityDate" xlink:title="validityDate">
<path fill="none" stroke="darkslategray" d="M237.619,-206.643C245.941,-208.727 254.71,-210.659 263,-212 273.964,-213.774 869.119,-251.979 1162.7,-270.76"/>
<polygon fill="darkslategray" stroke="darkslategray" points="1162.81,-274.274 1173.02,-271.42 1163.26,-267.288 1162.81,-274.274"/>
</a>
<a xlink:href="./#validityDate" xlink:title="validityDate">
<text text-anchor="middle" x="803.5" y="-234.3" font-family="Helvetica,sans-Serif" font-size="14.00">validityDate</text>
</a>
</g>
<!-- DataContainer -->
<g id="node4" class="node"><title>DataContainer</title>
<a xlink:href="./#DataContainer" xlink:title="DataContainer">
<ellipse fill="none" stroke="black" cx="639" cy="-18" rx="69.5877" ry="18"/>
<text text-anchor="middle" x="639" y="-14.3" font-family="Helvetica,sans-Serif" font-size="14.00">DataContainer</text>
</a>
</g>
<!-- DataContainer&#45;&gt;ApprovalLevel -->
<g id="edge22" class="edge"><title>DataContainer&#45;&gt;ApprovalLevel</title>
<a xlink:href="./#approvedAtLevel" xlink:title="approvedAtLevel">
<path fill="none" stroke="darkslategray" d="M571.309,-21.9868C515.715,-25.8295 442.724,-34.5181 421,-54 414.22,-60.0803 410.592,-69.105 408.692,-77.8797"/>
<polygon fill="darkslategray" stroke="darkslategray" points="405.215,-77.4611 407.169,-87.8742 412.135,-78.5156 405.215,-77.4611"/>
</a>
<a xlink:href="./#approvedAtLevel" xlink:title="approvedAtLevel">
<text text-anchor="middle" x="475.5" y="-58.3" font-family="Helvetica,sans-Serif" font-size="14.00">approvedAtLevel</text>
</a>
</g>
<!-- DataContainer&#45;&gt;BaseClass -->
<g id="edge4" class="edge"><title>DataContainer&#45;&gt;BaseClass</title>
<path fill="none" stroke="red" stroke-dasharray="5,2" d="M571.046,-21.7434C504.786,-27.1336 403.276,-42.8114 328,-88 325.225,-89.6658 263.117,-140.057 225.766,-170.415"/>
<polygon fill="red" stroke="red" points="223.304,-167.906 217.753,-176.93 227.72,-173.337 223.304,-167.906"/>
</g>
<!-- HXLer -->
<g id="node6" class="node"><title>HXLer</title>
<a xlink:href="./#HXLer" xlink:title="HXLer">
<ellipse fill="none" stroke="black" cx="536" cy="-106" rx="37.0935" ry="18"/>
<text text-anchor="middle" x="536" y="-102.3" font-family="Helvetica,sans-Serif" font-size="14.00">HXLer</text>
</a>
</g>
<!-- DataContainer&#45;&gt;HXLer -->
<g id="edge24" class="edge"><title>DataContainer&#45;&gt;HXLer</title>
<a xlink:href="./#approvedBy" xlink:title="approvedBy">
<path fill="none" stroke="darkslategray" d="M580.447,-27.7324C565.022,-32.8861 549.934,-41.057 540,-54 534.905,-60.6381 533.019,-69.2982 532.669,-77.5927"/>
<polygon fill="darkslategray" stroke="darkslategray" points="529.173,-77.8147 532.922,-87.724 536.171,-77.6396 529.173,-77.8147"/>
</a>
<a xlink:href="./#approvedBy" xlink:title="approvedBy">
<text text-anchor="middle" x="578.5" y="-58.3" font-family="Helvetica,sans-Serif" font-size="14.00">approvedBy</text>
</a>
</g>
<!-- DataContainer&#45;&gt;HXLer -->
<g id="edge40" class="edge"><title>DataContainer&#45;&gt;HXLer</title>
<a xlink:href="./#reportedBy" xlink:title="reportedBy">
<path fill="none" stroke="darkslategray" d="M635.141,-35.9979C631.9,-46.9102 626.27,-60.724 617,-70 606.369,-80.6375 591.98,-88.2635 578.278,-93.6233"/>
<polygon fill="darkslategray" stroke="darkslategray" points="576.717,-90.4649 568.486,-97.1363 579.081,-97.0537 576.717,-90.4649"/>
</a>
<a xlink:href="./#reportedBy" xlink:title="reportedBy">
<text text-anchor="middle" x="663.5" y="-58.3" font-family="Helvetica,sans-Serif" font-size="14.00">reportedBy</text>
</a>
</g>
<!-- ReportCategory -->
<g id="node10" class="node"><title>ReportCategory</title>
<a xlink:href="./#ReportCategory" xlink:title="ReportCategory">
<ellipse fill="none" stroke="black" cx="198" cy="-106" rx="76.8869" ry="18"/>
<text text-anchor="middle" x="198" y="-102.3" font-family="Helvetica,sans-Serif" font-size="14.00">ReportCategory</text>
</a>
</g>
<!-- DataContainer&#45;&gt;ReportCategory -->
<g id="edge38" class="edge"><title>DataContainer&#45;&gt;ReportCategory</title>
<a xlink:href="./#reportCategory" xlink:title="reportCategory">
<path fill="none" stroke="darkslategray" d="M569.928,-19.515C452.425,-21.1098 223.859,-27.6088 199,-54 193.129,-60.2328 191.55,-69.0325 191.859,-77.5711"/>
<polygon fill="darkslategray" stroke="darkslategray" points="188.399,-78.1274 193.01,-87.6666 195.354,-77.3345 188.399,-78.1274"/>
</a>
<a xlink:href="./#reportCategory" xlink:title="reportCategory">
<text text-anchor="middle" x="247" y="-58.3" font-family="Helvetica,sans-Serif" font-size="14.00">reportCategory</text>
</a>
</g>
<!-- Emergency -->
<g id="node20" class="node"><title>Emergency</title>
<a xlink:href="./#Emergency" xlink:title="Emergency">
<ellipse fill="none" stroke="gray" cx="2374" cy="-106" rx="57.6901" ry="18"/>
<text text-anchor="middle" x="2374" y="-102.3" font-family="Helvetica,sans-Serif" font-size="14.00" fill="gray">Emergency</text>
</a>
</g>
<!-- DataContainer&#45;&gt;Emergency -->
<g id="edge20" class="edge"><title>DataContainer&#45;&gt;Emergency</title>
<a xlink:href="./#aboutEmergency" xlink:title="aboutEmergency">
<path fill="none" stroke="darkslategray" d="M708.13,-19.323C1012.96,-20.8916 2225.32,-28.7022 2302,-54 2319.42,-59.7478 2336.3,-71.2799 2349.33,-81.9261"/>
<polygon fill="darkslategray" stroke="darkslategray" points="2347.43,-84.9005 2357.31,-88.7245 2351.97,-79.5735 2347.43,-84.9005"/>
</a>
<a xlink:href="./#aboutEmergency" xlink:title="aboutEmergency">
<text text-anchor="middle" x="2385.5" y="-58.3" font-family="Helvetica,sans-Serif" font-size="14.00">aboutEmergency</text>
</a>
</g>
<!-- DataContainer&#45;&gt;http://www.w3.org/2001/XMLSchema#date -->
<g id="edge54" class="edge"><title>DataContainer&#45;&gt;http://www.w3.org/2001/XMLSchema#date</title>
<a xlink:href="./#validFrom" xlink:title="validFrom">
<path fill="none" stroke="darkslategray" d="M705.608,-23.0764C936.531,-37.9068 1692.27,-92.5361 1758,-176 1767.9,-188.57 1768.3,-199.753 1758,-212 1725.59,-250.552 1611.34,-267.699 1508.06,-275.261"/>
<polygon fill="darkslategray" stroke="darkslategray" points="1507.52,-271.791 1497.79,-275.985 1508.01,-278.773 1507.52,-271.791"/>
</a>
<a xlink:href="./#validFrom" xlink:title="validFrom">
<text text-anchor="middle" x="1759.5" y="-146.3" font-family="Helvetica,sans-Serif" font-size="14.00">validFrom</text>
</a>
</g>
<!-- DataContainer&#45;&gt;http://www.w3.org/2001/XMLSchema#date -->
<g id="edge64" class="edge"><title>DataContainer&#45;&gt;http://www.w3.org/2001/XMLSchema#date</title>
<a xlink:href="./#validUntil" xlink:title="validUntil">
<path fill="none" stroke="darkslategray" d="M707.986,-20.2483C1004.8,-26.3255 2162.85,-57.5332 2268,-176 2348.32,-266.495 2449.65,-205.129 1939,-246 1790.36,-257.897 1621.22,-267.205 1497.83,-273.222"/>
<polygon fill="darkslategray" stroke="darkslategray" points="1497.35,-269.741 1487.53,-273.721 1497.69,-276.732 1497.35,-269.741"/>
</a>
<a xlink:href="./#validUntil" xlink:title="validUntil">
<text text-anchor="middle" x="2270" y="-146.3" font-family="Helvetica,sans-Serif" font-size="14.00">validUntil</text>
</a>
</g>
<!-- http://xmlns.com/foaf/0.1/Document -->
<g id="node32" class="node"><title>http://xmlns.com/foaf/0.1/Document</title>
<a xlink:href="./#http://xmlns.com/foaf/0.1/Document" xlink:title="http://xmlns.com/foaf/0.1/Document">
<ellipse fill="none" stroke="gray" cx="2606" cy="-106" rx="156.772" ry="18"/>
<text text-anchor="middle" x="2606" y="-102.3" font-family="Helvetica,sans-Serif" font-size="14.00" fill="gray">http://xmlns.com/foaf/0.1/Document</text>
</a>
</g>
<!-- DataContainer&#45;&gt;http://xmlns.com/foaf/0.1/Document -->
<g id="edge36" class="edge"><title>DataContainer&#45;&gt;http://xmlns.com/foaf/0.1/Document</title>
<a xlink:href="./#relatedInfo" xlink:title="relatedInfo">
<path fill="none" stroke="darkslategray" d="M708.18,-19.1745C1018.04,-20.1143 2270.74,-25.6493 2444,-54 2482.37,-60.2783 2524.19,-73.6195 2555.73,-85.082"/>
<polygon fill="darkslategray" stroke="darkslategray" points="2554.58,-88.388 2565.17,-88.5691 2557,-81.8215 2554.58,-88.388"/>
</a>
<a xlink:href="./#relatedInfo" xlink:title="relatedInfo">
<text text-anchor="middle" x="2541.5" y="-58.3" font-family="Helvetica,sans-Serif" font-size="14.00">relatedInfo</text>
</a>
</g>
<!-- HXLer&#45;&gt;BaseClass -->
<g id="edge8" class="edge"><title>HXLer&#45;&gt;BaseClass</title>
<path fill="none" stroke="red" stroke-dasharray="5,2" d="M506.714,-117.15C499.636,-119.496 492.072,-121.913 485,-124 426.895,-141.145 412.058,-144.499 353,-158 313.234,-167.091 302.749,-166.835 263,-176 258.411,-177.058 253.653,-178.205 248.893,-179.387"/>
<polygon fill="red" stroke="red" points="248.01,-176 239.173,-181.844 249.726,-182.786 248.01,-176"/>
</g>
<!-- http://xmlns.com/foaf/0.1/Agent -->
<g id="node7" class="node"><title>http://xmlns.com/foaf/0.1/Agent</title>
<a xlink:href="./#HXLer" xlink:title="http://xmlns.com/foaf/0.1/Agent">
<ellipse fill="none" stroke="gray" cx="410" cy="-194" rx="138.375" ry="18"/>
<text text-anchor="middle" x="410" y="-190.3" font-family="Helvetica,sans-Serif" font-size="14.00" fill="gray">http://xmlns.com/foaf/0.1/Agent</text>
</a>
</g>
<!-- HXLer&#45;&gt;http://xmlns.com/foaf/0.1/Agent -->
<g id="edge6" class="edge"><title>HXLer&#45;&gt;http://xmlns.com/foaf/0.1/Agent</title>
<path fill="none" stroke="red" stroke-dasharray="5,2" d="M515.475,-121.009C495.936,-134.345 466.193,-154.646 443.266,-170.294"/>
<polygon fill="red" stroke="red" points="441.135,-167.511 434.849,-176.04 445.082,-173.293 441.135,-167.511"/>
</g>
<!-- ReportCategory&#45;&gt;BaseClass -->
<g id="edge10" class="edge"><title>ReportCategory&#45;&gt;BaseClass</title>
<path fill="none" stroke="red" stroke-dasharray="5,2" d="M198,-124.403C198,-136.254 198,-152.183 198,-165.708"/>
<polygon fill="red" stroke="red" points="194.5,-165.916 198,-175.916 201.5,-165.916 194.5,-165.916"/>
</g>
<!-- ReportCategorySet -->
<g id="node12" class="node"><title>ReportCategorySet</title>
<a xlink:href="./#ReportCategorySet" xlink:title="ReportCategorySet">
<ellipse fill="none" stroke="black" cx="727" cy="-106" rx="90.9839" ry="18"/>
<text text-anchor="middle" x="727" y="-102.3" font-family="Helvetica,sans-Serif" font-size="14.00">ReportCategorySet</text>
</a>
</g>
<!-- ReportCategorySet&#45;&gt;BaseClass -->
<g id="edge12" class="edge"><title>ReportCategorySet&#45;&gt;BaseClass</title>
<path fill="none" stroke="red" stroke-dasharray="5,2" d="M659.644,-118.05C593.776,-128.735 490.595,-145.151 401,-158 339.774,-166.781 323.707,-164.151 263,-176 258.242,-176.929 253.315,-178.004 248.401,-179.154"/>
<polygon fill="red" stroke="red" points="247.273,-175.826 238.387,-181.595 248.931,-182.627 247.273,-175.826"/>
</g>
<!-- http://www.w3.org/1999/02/22&#45;rdf&#45;syntax&#45;ns#Bag -->
<g id="node14" class="node"><title>http://www.w3.org/1999/02/22&#45;rdf&#45;syntax&#45;ns#Bag</title>
<a xlink:href="./#ReportCategorySet" xlink:title="http://www.w3.org/1999/02/22&#45;rdf&#45;syntax&#45;ns#Bag">
<ellipse fill="none" stroke="gray" cx="776" cy="-194" rx="209.863" ry="18"/>
<text text-anchor="middle" x="776" y="-190.3" font-family="Helvetica,sans-Serif" font-size="14.00" fill="gray">http://www.w3.org/1999/02/22&#45;rdf&#45;syntax&#45;ns#Bag</text>
</a>
</g>
<!-- ReportCategorySet&#45;&gt;http://www.w3.org/1999/02/22&#45;rdf&#45;syntax&#45;ns#Bag -->
<g id="edge14" class="edge"><title>ReportCategorySet&#45;&gt;http://www.w3.org/1999/02/22&#45;rdf&#45;syntax&#45;ns#Bag</title>
<path fill="none" stroke="red" stroke-dasharray="5,2" d="M736.681,-123.991C743.615,-136.161 753.087,-152.785 760.996,-166.666"/>
<polygon fill="red" stroke="red" points="758.18,-168.794 766.172,-175.75 764.262,-165.329 758.18,-168.794"/>
</g>
<!-- ReportingPeriod -->
<g id="node16" class="node"><title>ReportingPeriod</title>
<a xlink:href="./#ReportingPeriod" xlink:title="ReportingPeriod">
<ellipse fill="none" stroke="black" cx="1306" cy="-106" rx="78.7863" ry="18"/>
<text text-anchor="middle" x="1306" y="-102.3" font-family="Helvetica,sans-Serif" font-size="14.00">ReportingPeriod</text>
</a>
</g>
<!-- ReportingPeriod&#45;&gt;BaseClass -->
<g id="edge16" class="edge"><title>ReportingPeriod&#45;&gt;BaseClass</title>
<path fill="none" stroke="red" stroke-dasharray="5,2" d="M1230.6,-111.158C1007.07,-123.602 357.658,-160.634 263,-176 257.948,-176.82 252.719,-177.858 247.521,-179.016"/>
<polygon fill="red" stroke="red" points="246.543,-175.651 237.62,-181.363 248.158,-182.462 246.543,-175.651"/>
</g>
<!-- http://purl.org/dc/terms/PeriodOfTime -->
<g id="node19" class="node"><title>http://purl.org/dc/terms/PeriodOfTime</title>
<a xlink:href="./#http://purl.org/dc/terms/PeriodOfTime" xlink:title="http://purl.org/dc/terms/PeriodOfTime">
<ellipse fill="none" stroke="black" cx="2096" cy="-194" rx="163.571" ry="18"/>
<text text-anchor="middle" x="2096" y="-190.3" font-family="Helvetica,sans-Serif" font-size="14.00">http://purl.org/dc/terms/PeriodOfTime</text>
</a>
</g>
<!-- ReportingPeriod&#45;&gt;http://purl.org/dc/terms/PeriodOfTime -->
<g id="edge18" class="edge"><title>ReportingPeriod&#45;&gt;http://purl.org/dc/terms/PeriodOfTime</title>
<path fill="none" stroke="red" stroke-dasharray="5,2" d="M1374.21,-114.951C1462.35,-125.175 1620.57,-143.356 1756,-158 1826.56,-165.63 1905.4,-173.77 1969.38,-180.278"/>
<polygon fill="red" stroke="red" points="1969.22,-183.779 1979.52,-181.308 1969.93,-176.815 1969.22,-183.779"/>
</g>
<!-- ReportingPeriod&#45;&gt;http://www.w3.org/2001/XMLSchema#date -->
<g id="edge34" class="edge"><title>ReportingPeriod&#45;&gt;http://www.w3.org/2001/XMLSchema#date</title>
<a xlink:href="./#end" xlink:title="end">
<path fill="none" stroke="darkslategray" d="M1299.12,-124.236C1291.71,-145.155 1281.88,-181.426 1289,-212 1289.55,-214.364 1300.45,-236.31 1309.76,-254.826"/>
<polygon fill="darkslategray" stroke="darkslategray" points="1306.66,-256.452 1314.28,-263.807 1312.91,-253.302 1306.66,-256.452"/>
</a>
<a xlink:href="./#end" xlink:title="end">
<text text-anchor="middle" x="1301.5" y="-190.3" font-family="Helvetica,sans-Serif" font-size="14.00">end</text>
</a>
</g>
<!-- ReportingPeriod&#45;&gt;http://www.w3.org/2001/XMLSchema#date -->
<g id="edge42" class="edge"><title>ReportingPeriod&#45;&gt;http://www.w3.org/2001/XMLSchema#date</title>
<a xlink:href="./#start" xlink:title="start">
<path fill="none" stroke="darkslategray" d="M1308.11,-123.998C1309.82,-137.955 1312.21,-158.242 1314,-176 1316.66,-202.353 1319.19,-232.478 1320.88,-253.682"/>
<polygon fill="darkslategray" stroke="darkslategray" points="1317.41,-254.197 1321.69,-263.89 1324.39,-253.645 1317.41,-254.197"/>
</a>
<a xlink:href="./#start" xlink:title="start">
<text text-anchor="middle" x="1332" y="-190.3" font-family="Helvetica,sans-Serif" font-size="14.00">start</text>
</a>
</g>
<!-- http://www.w3.org/2001/XMLSchema#duration -->
<g id="node29" class="node"><title>http://www.w3.org/2001/XMLSchema#duration</title>
<a xlink:href="./#http://www.w3.org/2001/XMLSchema#duration" xlink:title="http://www.w3.org/2001/XMLSchema#duration">
<ellipse fill="none" stroke="gray" cx="2321" cy="-282" rx="200.365" ry="18"/>
<text text-anchor="middle" x="2321" y="-278.3" font-family="Helvetica,sans-Serif" font-size="14.00" fill="gray">http://www.w3.org/2001/XMLSchema#duration</text>
</a>
</g>
<!-- http://purl.org/dc/terms/PeriodOfTime&#45;&gt;http://www.w3.org/2001/XMLSchema#duration -->
<g id="edge32" class="edge"><title>http://purl.org/dc/terms/PeriodOfTime&#45;&gt;http://www.w3.org/2001/XMLSchema#duration</title>
<a xlink:href="./#duration" xlink:title="duration">
<path fill="none" stroke="darkslategray" d="M2138.85,-211.378C2175.52,-225.396 2228.48,-245.635 2267.84,-260.683"/>
<polygon fill="darkslategray" stroke="darkslategray" points="2266.95,-264.089 2277.54,-264.39 2269.45,-257.55 2266.95,-264.089"/>
</a>
<a xlink:href="./#duration" xlink:title="duration">
<text text-anchor="middle" x="2253.5" y="-234.3" font-family="Helvetica,sans-Serif" font-size="14.00">duration</text>
</a>
</g>
<!-- http://www.opengis.net/geosparql#Feature -->
<g id="node38" class="node"><title>http://www.opengis.net/geosparql#Feature</title>
<a xlink:href="./#http://www.opengis.net/geosparql#Feature" xlink:title="http://www.opengis.net/geosparql#Feature">
<ellipse fill="none" stroke="gray" cx="1566" cy="-194" rx="183.867" ry="18"/>
<text text-anchor="middle" x="1566" y="-190.3" font-family="Helvetica,sans-Serif" font-size="14.00" fill="gray">http://www.opengis.net/geosparql#Feature</text>
</a>
</g>
<!-- http://www.opengis.net/geosparql#Feature&#45;&gt;http://www.w3.org/2001/XMLSchema#date -->
<g id="edge46" class="edge"><title>http://www.opengis.net/geosparql#Feature&#45;&gt;http://www.w3.org/2001/XMLSchema#date</title>
<a xlink:href="./#validFrom" xlink:title="validFrom">
<path fill="none" stroke="darkslategray" d="M1534.85,-211.815C1513.86,-222.651 1485.31,-236.447 1459,-246 1441.52,-252.349 1422.38,-258.022 1404.12,-262.858"/>
<polygon fill="darkslategray" stroke="darkslategray" points="1403.18,-259.486 1394.38,-265.384 1404.93,-266.262 1403.18,-259.486"/>
</a>
<a xlink:href="./#validFrom" xlink:title="validFrom">
<text text-anchor="middle" x="1527.5" y="-234.3" font-family="Helvetica,sans-Serif" font-size="14.00">validFrom</text>
</a>
</g>
<!-- http://www.opengis.net/geosparql#Feature&#45;&gt;http://www.w3.org/2001/XMLSchema#date -->
<g id="edge56" class="edge"><title>http://www.opengis.net/geosparql#Feature&#45;&gt;http://www.w3.org/2001/XMLSchema#date</title>
<a xlink:href="./#validUntil" xlink:title="validUntil">
<path fill="none" stroke="darkslategray" d="M1466.95,-209.219C1444.11,-214.273 1420.29,-221.027 1399,-230 1382.27,-237.052 1365.33,-247.971 1351.7,-257.899"/>
<polygon fill="darkslategray" stroke="darkslategray" points="1349.58,-255.113 1343.68,-263.91 1353.78,-260.716 1349.58,-255.113"/>
</a>
<a xlink:href="./#validUntil" xlink:title="validUntil">
<text text-anchor="middle" x="1427" y="-234.3" font-family="Helvetica,sans-Serif" font-size="14.00">validUntil</text>
</a>
</g>
<!-- Population -->
<g id="node40" class="node"><title>Population</title>
<a xlink:href="./#Population" xlink:title="Population">
<ellipse fill="none" stroke="gray" cx="1860" cy="-194" rx="53.8905" ry="18"/>
<text text-anchor="middle" x="1860" y="-190.3" font-family="Helvetica,sans-Serif" font-size="14.00" fill="gray">Population</text>
</a>
</g>
<!-- Population&#45;&gt;http://www.w3.org/2001/XMLSchema#date -->
<g id="edge48" class="edge"><title>Population&#45;&gt;http://www.w3.org/2001/XMLSchema#date</title>
<a xlink:href="./#validFrom" xlink:title="validFrom">
<path fill="none" stroke="darkslategray" d="M1838.52,-210.641C1818.15,-225.441 1790.44,-245.478 1789,-246 1739.15,-264.138 1618.61,-272.879 1512.62,-277.089"/>
<polygon fill="darkslategray" stroke="darkslategray" points="1512.27,-273.6 1502.41,-277.483 1512.54,-280.595 1512.27,-273.6"/>
</a>
<a xlink:href="./#validFrom" xlink:title="validFrom">
<text text-anchor="middle" x="1841.5" y="-234.3" font-family="Helvetica,sans-Serif" font-size="14.00">validFrom</text>
</a>
</g>
<!-- Population&#45;&gt;http://www.w3.org/2001/XMLSchema#date -->
<g id="edge58" class="edge"><title>Population&#45;&gt;http://www.w3.org/2001/XMLSchema#date</title>
<a xlink:href="./#validUntil" xlink:title="validUntil">
<path fill="none" stroke="darkslategray" d="M1872.18,-211.599C1878.68,-222.619 1883.72,-236.714 1875,-246 1850.49,-272.115 1667.06,-279.679 1518.27,-281.444"/>
<polygon fill="darkslategray" stroke="darkslategray" points="1518.03,-277.946 1508.07,-281.557 1518.11,-284.946 1518.03,-277.946"/>
</a>
<a xlink:href="./#validUntil" xlink:title="validUntil">
<text text-anchor="middle" x="1907" y="-234.3" font-family="Helvetica,sans-Serif" font-size="14.00">validUntil</text>
</a>
</g>
<!-- Organisation -->
<g id="node42" class="node"><title>Organisation</title>
<a xlink:href="./#Organisation" xlink:title="Organisation">
<ellipse fill="none" stroke="gray" cx="1066" cy="-194" rx="62.2891" ry="18"/>
<text text-anchor="middle" x="1066" y="-190.3" font-family="Helvetica,sans-Serif" font-size="14.00" fill="gray">Organisation</text>
</a>
</g>
<!-- Organisation&#45;&gt;http://www.w3.org/2001/XMLSchema#date -->
<g id="edge50" class="edge"><title>Organisation&#45;&gt;http://www.w3.org/2001/XMLSchema#date</title>
<a xlink:href="./#validFrom" xlink:title="validFrom">
<path fill="none" stroke="darkslategray" d="M1023.09,-207.131C998.558,-216.157 975.327,-229.704 990,-246 1001.61,-258.894 1074.82,-267.374 1149.64,-272.752"/>
<polygon fill="darkslategray" stroke="darkslategray" points="1149.51,-276.251 1159.73,-273.458 1150,-269.268 1149.51,-276.251"/>
</a>
<a xlink:href="./#validFrom" xlink:title="validFrom">
<text text-anchor="middle" x="1021.5" y="-234.3" font-family="Helvetica,sans-Serif" font-size="14.00">validFrom</text>
</a>
</g>
<!-- Organisation&#45;&gt;http://www.w3.org/2001/XMLSchema#date -->
<g id="edge60" class="edge"><title>Organisation&#45;&gt;http://www.w3.org/2001/XMLSchema#date</title>
<a xlink:href="./#validUntil" xlink:title="validUntil">
<path fill="none" stroke="darkslategray" d="M1070.39,-212.404C1074.19,-223.784 1080.88,-237.977 1092,-246 1106.28,-256.302 1137.46,-263.642 1172.42,-268.845"/>
<polygon fill="darkslategray" stroke="darkslategray" points="1171.97,-272.317 1182.37,-270.256 1172.96,-265.386 1171.97,-272.317"/>
</a>
<a xlink:href="./#validUntil" xlink:title="validUntil">
<text text-anchor="middle" x="1120" y="-234.3" font-family="Helvetica,sans-Serif" font-size="14.00">validUntil</text>
</a>
</g>
<!-- Situation -->
<g id="node44" class="node"><title>Situation</title>
<a xlink:href="./#Situation" xlink:title="Situation">
<ellipse fill="none" stroke="gray" cx="1193" cy="-194" rx="46.2923" ry="18"/>
<text text-anchor="middle" x="1193" y="-190.3" font-family="Helvetica,sans-Serif" font-size="14.00" fill="gray">Situation</text>
</a>
</g>
<!-- Situation&#45;&gt;http://www.w3.org/2001/XMLSchema#date -->
<g id="edge52" class="edge"><title>Situation&#45;&gt;http://www.w3.org/2001/XMLSchema#date</title>
<a xlink:href="./#validFrom" xlink:title="validFrom">
<path fill="none" stroke="darkslategray" d="M1170.38,-209.759C1157.35,-220.08 1145.32,-234.092 1155,-246 1161.74,-254.294 1177.91,-260.688 1197.68,-265.596"/>
<polygon fill="darkslategray" stroke="darkslategray" points="1197.12,-269.058 1207.65,-267.887 1198.69,-262.236 1197.12,-269.058"/>
</a>
<a xlink:href="./#validFrom" xlink:title="validFrom">
<text text-anchor="middle" x="1186.5" y="-234.3" font-family="Helvetica,sans-Serif" font-size="14.00">validFrom</text>
</a>
</g>
<!-- Situation&#45;&gt;http://www.w3.org/2001/XMLSchema#date -->
<g id="edge62" class="edge"><title>Situation&#45;&gt;http://www.w3.org/2001/XMLSchema#date</title>
<a xlink:href="./#validUntil" xlink:title="validUntil">
<path fill="none" stroke="darkslategray" d="M1205.42,-211.395C1214.37,-222.324 1227.24,-236.394 1241,-246 1248.72,-251.393 1257.41,-256.2 1266.16,-260.395"/>
<polygon fill="darkslategray" stroke="darkslategray" points="1264.72,-263.584 1275.27,-264.543 1267.62,-257.213 1264.72,-263.584"/>
</a>
<a xlink:href="./#validUntil" xlink:title="validUntil">
<text text-anchor="middle" x="1269" y="-234.3" font-family="Helvetica,sans-Serif" font-size="14.00">validUntil</text>
</a>
</g>
</g>
</svg>
