<?xml version="1.0" encoding="UTF-8" standalone="no"?>
<!DOCTYPE svg PUBLIC "-//W3C//DTD SVG 1.1//EN"
 "http://www.w3.org/Graphics/SVG/1.1/DTD/svg11.dtd">
<!-- Generated by graphviz version 2.28.0 (20121022.1408)
 -->
<!-- Title: _anonymous_0 Pages: 1 -->
<svg width="1191pt" height="402pt"
 viewBox="0.00 0.00 1191.00 402.00" xmlns="http://www.w3.org/2000/svg" xmlns:xlink="http://www.w3.org/1999/xlink">
<g id="graph1" class="graph" transform="scale(1 1) rotate(0) translate(4 398)">
<title>_anonymous_0</title>
<polygon fill="white" stroke="white" points="-4,5 -4,-398 1188,-398 1188,5 -4,5"/>
<!-- ApprovalLevel -->
<g id="node1" class="node"><title>ApprovalLevel</title>
<a xlink:href="./#ApprovalLevel" xlink:title="ApprovalLevel">
<ellipse fill="none" stroke="black" cx="511" cy="-160" rx="72.2875" ry="18"/>
<text text-anchor="middle" x="511" y="-156.3" font-family="Helvetica,sans-Serif" font-size="14.00">ApprovalLevel</text>
</a>
</g>
<!-- BaseClass -->
<g id="node2" class="node"><title>BaseClass</title>
<a xlink:href="./#BaseClass" xlink:title="BaseClass">
<ellipse fill="none" stroke="gray" cx="477" cy="-288" rx="55.7903" ry="18"/>
<text text-anchor="middle" x="477" y="-284.3" font-family="Helvetica,sans-Serif" font-size="14.00" fill="gray">BaseClass</text>
</a>
</g>
<!-- ApprovalLevel&#45;&gt;BaseClass -->
<g id="edge2" class="edge"><title>ApprovalLevel&#45;&gt;BaseClass</title>
<path fill="none" stroke="red" stroke-dasharray="5,2" d="M506.415,-177.993C500.737,-199.035 490.996,-235.133 484.289,-259.987"/>
<polygon fill="red" stroke="red" points="480.847,-259.307 481.621,-269.874 487.606,-261.131 480.847,-259.307"/>
</g>
<!-- http://www.w3.org/2000/01/rdf&#45;schema#Literal -->
<g id="node27" class="node"><title>http://www.w3.org/2000/01/rdf&#45;schema#Literal</title>
<a xlink:href="./#http://www.w3.org/2000/01/rdf-schema#Literal" xlink:title="http://www.w3.org/2000/01/rdf&#45;schema#Literal">
<ellipse fill="none" stroke="gray" cx="477" cy="-376" rx="200.365" ry="18"/>
<text text-anchor="middle" x="477" y="-372.3" font-family="Helvetica,sans-Serif" font-size="14.00" fill="gray">http://www.w3.org/2000/01/rdf&#45;schema#Literal</text>
</a>
</g>
<!-- BaseClass&#45;&gt;http://www.w3.org/2000/01/rdf&#45;schema#Literal -->
<g id="edge30" class="edge"><title>BaseClass&#45;&gt;http://www.w3.org/2000/01/rdf&#45;schema#Literal</title>
<a xlink:href="./#comment" xlink:title="comment">
<path fill="none" stroke="darkslategray" d="M432.691,-298.946C406.588,-307.06 381.002,-320.412 394,-340 397.379,-345.092 401.661,-349.445 406.49,-353.166"/>
<polygon fill="darkslategray" stroke="darkslategray" points="404.803,-356.247 415.073,-358.85 408.668,-350.411 404.803,-356.247"/>
</a>
<a xlink:href="./#comment" xlink:title="comment">
<text text-anchor="middle" x="424.5" y="-328.3" font-family="Helvetica,sans-Serif" font-size="14.00">comment</text>
</a>
</g>
<!-- BaseClass&#45;&gt;http://www.w3.org/2000/01/rdf&#45;schema#Literal -->
<g id="edge34" class="edge"><title>BaseClass&#45;&gt;http://www.w3.org/2000/01/rdf&#45;schema#Literal</title>
<a xlink:href="./#description" xlink:title="description">
<path fill="none" stroke="darkslategray" d="M477,-306.403C477,-318.254 477,-334.183 477,-347.708"/>
<polygon fill="darkslategray" stroke="darkslategray" points="473.5,-347.916 477,-357.916 480.5,-347.916 473.5,-347.916"/>
</a>
<a xlink:href="./#description" xlink:title="description">
<text text-anchor="middle" x="512.5" y="-328.3" font-family="Helvetica,sans-Serif" font-size="14.00">description</text>
</a>
</g>
<!-- BaseClass&#45;&gt;http://www.w3.org/2000/01/rdf&#45;schema#Literal -->
<g id="edge44" class="edge"><title>BaseClass&#45;&gt;http://www.w3.org/2000/01/rdf&#45;schema#Literal</title>
<a xlink:href="./#title" xlink:title="title">
<path fill="none" stroke="darkslategray" d="M517.402,-300.661C539.347,-309.246 559.97,-322.47 549,-340 546.005,-344.786 542.147,-348.935 537.776,-352.528"/>
<polygon fill="darkslategray" stroke="darkslategray" points="535.585,-349.79 529.429,-358.412 539.619,-355.511 535.585,-349.79"/>
</a>
<a xlink:href="./#title" xlink:title="title">
<text text-anchor="middle" x="565" y="-328.3" font-family="Helvetica,sans-Serif" font-size="14.00">title</text>
</a>
</g>
<!-- http://www.w3.org/2001/XMLSchema#date -->
<g id="node29" class="node"><title>http://www.w3.org/2001/XMLSchema#date</title>
<a xlink:href="./#http://www.w3.org/2001/XMLSchema#date" xlink:title="http://www.w3.org/2001/XMLSchema#date">
<ellipse fill="none" stroke="gray" cx="994" cy="-376" rx="188.467" ry="18"/>
<text text-anchor="middle" x="994" y="-372.3" font-family="Helvetica,sans-Serif" font-size="14.00" fill="gray">http://www.w3.org/2001/XMLSchema#date</text>
</a>
</g>
<!-- BaseClass&#45;&gt;http://www.w3.org/2001/XMLSchema#date -->
<g id="edge32" class="edge"><title>BaseClass&#45;&gt;http://www.w3.org/2001/XMLSchema#date</title>
<a xlink:href="./#date" xlink:title="date">
<path fill="none" stroke="darkslategray" d="M517.762,-300.355C525.763,-302.387 534.118,-304.372 542,-306 653.461,-329.018 781.85,-347.896 873.244,-360.051"/>
<polygon fill="darkslategray" stroke="darkslategray" points="872.991,-363.548 883.363,-361.39 873.909,-356.609 872.991,-363.548"/>
</a>
<a xlink:href="./#date" xlink:title="date">
<text text-anchor="middle" x="742.5" y="-328.3" font-family="Helvetica,sans-Serif" font-size="14.00">date</text>
</a>
</g>
<!-- DataContainer -->
<g id="node4" class="node"><title>DataContainer</title>
<a xlink:href="./#DataContainer" xlink:title="DataContainer">
<ellipse fill="none" stroke="black" cx="575" cy="-18" rx="70.3881" ry="18"/>
<text text-anchor="middle" x="575" y="-14.3" font-family="Helvetica,sans-Serif" font-size="14.00">DataContainer</text>
</a>
</g>
<!-- DataContainer&#45;&gt;ApprovalLevel -->
<g id="edge26" class="edge"><title>DataContainer&#45;&gt;ApprovalLevel</title>
<a xlink:href="./#approvedAtLevel" xlink:title="approvedAtLevel">
<path fill="none" stroke="darkslategray" d="M535.174,-32.9353C526.003,-38.0937 517.373,-44.9671 512,-54 498.001,-77.5346 500.086,-109.601 504.199,-132.085"/>
<polygon fill="darkslategray" stroke="darkslategray" points="500.793,-132.893 506.251,-141.974 507.647,-131.471 500.793,-132.893"/>
</a>
<a xlink:href="./#approvedAtLevel" xlink:title="approvedAtLevel">
<text text-anchor="middle" x="568.5" y="-58.3" font-family="Helvetica,sans-Serif" font-size="14.00">approvedAtLevel</text>
</a>
</g>
<!-- DataContainer&#45;&gt;BaseClass -->
<g id="edge4" class="edge"><title>DataContainer&#45;&gt;BaseClass</title>
<path fill="none" stroke="red" stroke-dasharray="5,2" d="M606.296,-34.1114C613.768,-39.3154 620.792,-45.9174 625,-54 632.169,-67.7693 622.828,-73.6116 617,-88 601.006,-127.488 606.767,-141.99 584,-178 562.483,-212.032 528.85,-244.038 505.042,-264.45"/>
<polygon fill="red" stroke="red" points="502.765,-261.792 497.376,-270.914 507.277,-267.144 502.765,-261.792"/>
</g>
<!-- HXLer -->
<g id="node6" class="node"><title>HXLer</title>
<a xlink:href="./#HXLer" xlink:title="HXLer">
<ellipse fill="none" stroke="black" cx="189" cy="-106" rx="38.1938" ry="18"/>
<text text-anchor="middle" x="189" y="-102.3" font-family="Helvetica,sans-Serif" font-size="14.00">HXLer</text>
</a>
</g>
<!-- DataContainer&#45;&gt;HXLer -->
<g id="edge28" class="edge"><title>DataContainer&#45;&gt;HXLer</title>
<a xlink:href="./#approvedBy" xlink:title="approvedBy">
<path fill="none" stroke="darkslategray" d="M507.818,-23.3719C435.408,-28.7475 325.257,-39.0369 286,-54 274.364,-58.4351 273.777,-63.7609 263,-70 251.257,-76.7985 237.98,-83.3943 225.947,-88.9929"/>
<polygon fill="darkslategray" stroke="darkslategray" points="224.259,-85.9161 216.616,-93.254 227.167,-92.2836 224.259,-85.9161"/>
</a>
<a xlink:href="./#approvedBy" xlink:title="approvedBy">
<text text-anchor="middle" x="326.5" y="-58.3" font-family="Helvetica,sans-Serif" font-size="14.00">approvedBy</text>
</a>
</g>
<!-- DataContainer&#45;&gt;HXLer -->
<g id="edge42" class="edge"><title>DataContainer&#45;&gt;HXLer</title>
<a xlink:href="./#reportedBy" xlink:title="reportedBy">
<path fill="none" stroke="darkslategray" d="M505.245,-20.2608C398.866,-22.9153 206.129,-30.8896 185,-54 179.056,-60.5015 178.318,-69.621 179.645,-78.3538"/>
<polygon fill="darkslategray" stroke="darkslategray" points="176.274,-79.3095 181.963,-88.2477 183.09,-77.713 176.274,-79.3095"/>
</a>
<a xlink:href="./#reportedBy" xlink:title="reportedBy">
<text text-anchor="middle" x="222" y="-58.3" font-family="Helvetica,sans-Serif" font-size="14.00">reportedBy</text>
</a>
</g>
<!-- ReportCategory -->
<g id="node12" class="node"><title>ReportCategory</title>
<a xlink:href="./#ReportCategory" xlink:title="ReportCategory">
<ellipse fill="none" stroke="black" cx="355" cy="-160" rx="78.7863" ry="18"/>
<text text-anchor="middle" x="355" y="-156.3" font-family="Helvetica,sans-Serif" font-size="14.00">ReportCategory</text>
</a>
</g>
<!-- DataContainer&#45;&gt;ReportCategory -->
<g id="edge40" class="edge"><title>DataContainer&#45;&gt;ReportCategory</title>
<a xlink:href="./#reportCategory" xlink:title="reportCategory">
<path fill="none" stroke="darkslategray" d="M511.793,-25.8125C469.933,-31.4412 419.761,-40.6832 403,-54 378.667,-73.333 366.201,-107.766 360.154,-131.915"/>
<polygon fill="darkslategray" stroke="darkslategray" points="356.693,-131.349 357.873,-141.878 363.516,-132.911 356.693,-131.349"/>
</a>
<a xlink:href="./#reportCategory" xlink:title="reportCategory">
<text text-anchor="middle" x="452.5" y="-58.3" font-family="Helvetica,sans-Serif" font-size="14.00">reportCategory</text>
</a>
</g>
<!-- Emergency -->
<g id="node23" class="node"><title>Emergency</title>
<a xlink:href="./#Emergency" xlink:title="Emergency">
<ellipse fill="none" stroke="gray" cx="685" cy="-106" rx="59.2899" ry="18"/>
<text text-anchor="middle" x="685" y="-102.3" font-family="Helvetica,sans-Serif" font-size="14.00" fill="gray">Emergency</text>
</a>
</g>
<!-- DataContainer&#45;&gt;Emergency -->
<g id="edge24" class="edge"><title>DataContainer&#45;&gt;Emergency</title>
<a xlink:href="./#aboutEmergency" xlink:title="aboutEmergency">
<path fill="none" stroke="darkslategray" d="M616.933,-32.4781C629.446,-37.8418 642.587,-44.9386 653,-54 660.959,-60.9261 667.617,-70.3191 672.762,-79.1568"/>
<polygon fill="darkslategray" stroke="darkslategray" points="669.73,-80.9091 677.567,-88.039 675.887,-77.5782 669.73,-80.9091"/>
</a>
<a xlink:href="./#aboutEmergency" xlink:title="aboutEmergency">
<text text-anchor="middle" x="722.5" y="-58.3" font-family="Helvetica,sans-Serif" font-size="14.00">aboutEmergency</text>
</a>
</g>
<!-- DataContainer&#45;&gt;http://www.w3.org/2001/XMLSchema#date -->
<g id="edge46" class="edge"><title>DataContainer&#45;&gt;http://www.w3.org/2001/XMLSchema#date</title>
<a xlink:href="./#validOn" xlink:title="validOn">
<path fill="none" stroke="darkslategray" d="M624.536,-30.7712C634.261,-32.7667 644.417,-34.6322 654,-36 754.154,-50.2951 1104,-3.83127 1104,-105 1104,-105 1104,-105 1104,-289 1104,-319.164 1078.01,-340.323 1051.3,-354.105"/>
<polygon fill="darkslategray" stroke="darkslategray" points="1049.72,-350.982 1042.25,-358.498 1052.77,-357.279 1049.72,-350.982"/>
</a>
<a xlink:href="./#validOn" xlink:title="validOn">
<text text-anchor="middle" x="1128.5" y="-210.3" font-family="Helvetica,sans-Serif" font-size="14.00">validOn</text>
</a>
</g>
<!-- http://xmlns.com/foaf/0.1/Document -->
<g id="node33" class="node"><title>http://xmlns.com/foaf/0.1/Document</title>
<a xlink:href="./#http://xmlns.com/foaf/0.1/Document" xlink:title="http://xmlns.com/foaf/0.1/Document">
<ellipse fill="none" stroke="gray" cx="919" cy="-106" rx="156.772" ry="18"/>
<text text-anchor="middle" x="919" y="-102.3" font-family="Helvetica,sans-Serif" font-size="14.00" fill="gray">http://xmlns.com/foaf/0.1/Document</text>
</a>
</g>
<!-- DataContainer&#45;&gt;http://xmlns.com/foaf/0.1/Document -->
<g id="edge38" class="edge"><title>DataContainer&#45;&gt;http://xmlns.com/foaf/0.1/Document</title>
<a xlink:href="./#relatedInfo" xlink:title="relatedInfo">
<path fill="none" stroke="darkslategray" d="M625.889,-30.5162C635.217,-32.4658 644.883,-34.3803 654,-36 710.563,-46.0494 726.31,-39.8962 782,-54 812.676,-61.7689 845.97,-74.0686 872.055,-84.6425"/>
<polygon fill="darkslategray" stroke="darkslategray" points="870.741,-87.8864 881.321,-88.4485 873.401,-81.4114 870.741,-87.8864"/>
</a>
<a xlink:href="./#relatedInfo" xlink:title="relatedInfo">
<text text-anchor="middle" x="866.5" y="-58.3" font-family="Helvetica,sans-Serif" font-size="14.00">relatedInfo</text>
</a>
</g>
<!-- HXLer&#45;&gt;BaseClass -->
<g id="edge8" class="edge"><title>HXLer&#45;&gt;BaseClass</title>
<path fill="none" stroke="red" stroke-dasharray="5,2" d="M205.453,-122.482C222.015,-137.638 248.67,-160.881 274,-178 327.922,-214.443 395.297,-248.589 437.247,-268.639"/>
<polygon fill="red" stroke="red" points="435.777,-271.816 446.311,-272.941 438.778,-265.492 435.777,-271.816"/>
</g>
<!-- http://xmlns.com/foaf/0.1/Agent -->
<g id="node7" class="node"><title>http://xmlns.com/foaf/0.1/Agent</title>
<a xlink:href="./#Source" xlink:title="http://xmlns.com/foaf/0.1/Agent">
<ellipse fill="none" stroke="gray" cx="139" cy="-288" rx="139.175" ry="18"/>
<text text-anchor="middle" x="139" y="-284.3" font-family="Helvetica,sans-Serif" font-size="14.00" fill="gray">http://xmlns.com/foaf/0.1/Agent</text>
</a>
</g>
<!-- HXLer&#45;&gt;http://xmlns.com/foaf/0.1/Agent -->
<g id="edge6" class="edge"><title>HXLer&#45;&gt;http://xmlns.com/foaf/0.1/Agent</title>
<path fill="none" stroke="red" stroke-dasharray="5,2" d="M177.058,-123.383C165.343,-140.517 148.22,-168.673 141,-196 135.466,-216.945 135.286,-241.555 136.312,-259.897"/>
<polygon fill="red" stroke="red" points="132.823,-260.171 137.024,-269.897 139.805,-259.674 132.823,-260.171"/>
</g>
<!-- Source -->
<g id="node11" class="node"><title>Source</title>
<a xlink:href="./#Source" xlink:title="Source">
<ellipse fill="none" stroke="black" cx="190" cy="-214" rx="40.0939" ry="18"/>
<text text-anchor="middle" x="190" y="-210.3" font-family="Helvetica,sans-Serif" font-size="14.00">Source</text>
</a>
</g>
<!-- HXLer&#45;&gt;Source -->
<g id="edge10" class="edge"><title>HXLer&#45;&gt;Source</title>
<path fill="none" stroke="red" stroke-dasharray="5,2" d="M189.161,-124.031C189.317,-140.622 189.558,-166.117 189.741,-185.569"/>
<polygon fill="red" stroke="red" points="186.242,-185.693 189.836,-195.659 193.242,-185.627 186.242,-185.693"/>
</g>
<!-- Source&#45;&gt;BaseClass -->
<g id="edge20" class="edge"><title>Source&#45;&gt;BaseClass</title>
<path fill="none" stroke="red" stroke-dasharray="5,2" d="M208.304,-230.043C218.735,-237.828 232.405,-246.772 246,-252 299.612,-272.617 364.595,-281.134 411.964,-284.63"/>
<polygon fill="red" stroke="red" points="411.881,-288.132 422.096,-285.321 412.357,-281.148 411.881,-288.132"/>
</g>
<!-- Source&#45;&gt;http://xmlns.com/foaf/0.1/Agent -->
<g id="edge18" class="edge"><title>Source&#45;&gt;http://xmlns.com/foaf/0.1/Agent</title>
<path fill="none" stroke="red" stroke-dasharray="5,2" d="M178.427,-231.338C172.108,-240.259 164.143,-251.504 157.029,-261.547"/>
<polygon fill="red" stroke="red" points="153.983,-259.792 151.059,-269.975 159.695,-263.838 153.983,-259.792"/>
</g>
<!-- ReportCategory&#45;&gt;BaseClass -->
<g id="edge12" class="edge"><title>ReportCategory&#45;&gt;BaseClass</title>
<path fill="none" stroke="red" stroke-dasharray="5,2" d="M371.201,-177.732C392.465,-199.693 429.916,-238.372 454.08,-263.328"/>
<polygon fill="red" stroke="red" points="451.649,-265.85 461.12,-270.599 456.678,-260.981 451.649,-265.85"/>
</g>
<!-- ReportCategorySet -->
<g id="node14" class="node"><title>ReportCategorySet</title>
<a xlink:href="./#ReportCategorySet" xlink:title="ReportCategorySet">
<ellipse fill="none" stroke="black" cx="745" cy="-214" rx="92.8835" ry="18"/>
<text text-anchor="middle" x="745" y="-210.3" font-family="Helvetica,sans-Serif" font-size="14.00">ReportCategorySet</text>
</a>
</g>
<!-- ReportCategorySet&#45;&gt;BaseClass -->
<g id="edge14" class="edge"><title>ReportCategorySet&#45;&gt;BaseClass</title>
<path fill="none" stroke="red" stroke-dasharray="5,2" d="M694.855,-229.201C669.969,-236.184 639.435,-244.657 612,-252 580.969,-260.305 573.095,-261.936 542,-270 537.627,-271.134 533.089,-272.314 528.536,-273.501"/>
<polygon fill="red" stroke="red" points="527.396,-270.181 518.604,-276.092 529.164,-276.954 527.396,-270.181"/>
</g>
<!-- http://www.w3.org/1999/02/22&#45;rdf&#45;syntax&#45;ns#Bag -->
<g id="node16" class="node"><title>http://www.w3.org/1999/02/22&#45;rdf&#45;syntax&#45;ns#Bag</title>
<a xlink:href="./#ReportCategorySet" xlink:title="http://www.w3.org/1999/02/22&#45;rdf&#45;syntax&#45;ns#Bag">
<ellipse fill="none" stroke="gray" cx="765" cy="-288" rx="213.662" ry="18"/>
<text text-anchor="middle" x="765" y="-284.3" font-family="Helvetica,sans-Serif" font-size="14.00" fill="gray">http://www.w3.org/1999/02/22&#45;rdf&#45;syntax&#45;ns#Bag</text>
</a>
</g>
<!-- ReportCategorySet&#45;&gt;http://www.w3.org/1999/02/22&#45;rdf&#45;syntax&#45;ns#Bag -->
<g id="edge16" class="edge"><title>ReportCategorySet&#45;&gt;http://www.w3.org/1999/02/22&#45;rdf&#45;syntax&#45;ns#Bag</title>
<path fill="none" stroke="red" stroke-dasharray="5,2" d="M749.74,-232.063C752.047,-240.37 754.877,-250.556 757.47,-259.892"/>
<polygon fill="red" stroke="red" points="754.107,-260.861 760.155,-269.559 760.851,-258.987 754.107,-260.861"/>
</g>
<!-- System -->
<g id="node20" class="node"><title>System</title>
<a xlink:href="./#System" xlink:title="System">
<ellipse fill="none" stroke="black" cx="72" cy="-18" rx="43.5923" ry="18"/>
<text text-anchor="middle" x="72" y="-14.3" font-family="Helvetica,sans-Serif" font-size="14.00">System</text>
</a>
</g>
<!-- System&#45;&gt;HXLer -->
<g id="edge36" class="edge"><title>System&#45;&gt;HXLer</title>
<a xlink:href="./#operatedBy" xlink:title="operatedBy">
<path fill="none" stroke="darkslategray" d="M73.8321,-36.1522C75.8508,-47.1295 80.0919,-60.9579 89,-70 103.225,-84.4389 123.732,-92.9325 142.478,-97.9236"/>
<polygon fill="darkslategray" stroke="darkslategray" points="141.828,-101.367 152.368,-100.289 143.457,-94.5588 141.828,-101.367"/>
</a>
<a xlink:href="./#operatedBy" xlink:title="operatedBy">
<text text-anchor="middle" x="127.5" y="-58.3" font-family="Helvetica,sans-Serif" font-size="14.00">operatedBy</text>
</a>
</g>
<!-- System&#45;&gt;Source -->
<g id="edge22" class="edge"><title>System&#45;&gt;Source</title>
<path fill="none" stroke="red" stroke-dasharray="5,2" d="M70.4501,-36.0839C70.1429,-46.2583 70.8517,-59.2418 75,-70 93.9863,-119.239 136.552,-164.63 164.232,-190.536"/>
<polygon fill="red" stroke="red" points="162.222,-193.442 171.957,-197.623 166.954,-188.284 162.222,-193.442"/>
</g>
<!-- http://purl.org/dc/terms/PeriodOfTime -->
<g id="node22" class="node"><title>http://purl.org/dc/terms/PeriodOfTime</title>
<a xlink:href="./#http://purl.org/dc/terms/PeriodOfTime" xlink:title="http://purl.org/dc/terms/PeriodOfTime">
<ellipse fill="none" stroke="black" cx="828" cy="-18" rx="165.171" ry="18"/>
<text text-anchor="middle" x="828" y="-14.3" font-family="Helvetica,sans-Serif" font-size="14.00">http://purl.org/dc/terms/PeriodOfTime</text>
</a>
</g>
</g>
</svg>
