<?xml version="1.0" encoding="UTF-8" standalone="no"?>
<!DOCTYPE svg PUBLIC "-//W3C//DTD SVG 1.1//EN"
 "http://www.w3.org/Graphics/SVG/1.1/DTD/svg11.dtd">
<!-- Generated by graphviz version 2.28.0 (20120807.1341)
 -->
<!-- Title: _anonymous_0 Pages: 1 -->
<svg width="1647pt" height="308pt"
 viewBox="0.00 0.00 1647.00 308.00" xmlns="http://www.w3.org/2000/svg" xmlns:xlink="http://www.w3.org/1999/xlink">
<g id="graph1" class="graph" transform="scale(1 1) rotate(0) translate(4 304)">
<title>_anonymous_0</title>
<polygon fill="white" stroke="white" points="-4,5 -4,-304 1644,-304 1644,5 -4,5"/>
<!-- ApprovalLevel -->
<g id="node1" class="node"><title>ApprovalLevel</title>
<a xlink:href="./#ApprovalLevel" xlink:title="ApprovalLevel">
<ellipse fill="none" stroke="black" cx="331" cy="-106" rx="72.2875" ry="18"/>
<text text-anchor="middle" x="331" y="-102.3" font-family="Helvetica,sans-Serif" font-size="14.00">ApprovalLevel</text>
</a>
</g>
<!-- BaseClass -->
<g id="node2" class="node"><title>BaseClass</title>
<a xlink:href="./#BaseClass" xlink:title="BaseClass">
<ellipse fill="none" stroke="gray" cx="200" cy="-194" rx="55.7903" ry="18"/>
<text text-anchor="middle" x="200" y="-190.3" font-family="Helvetica,sans-Serif" font-size="14.00" fill="gray">BaseClass</text>
</a>
</g>
<!-- ApprovalLevel&#45;&gt;BaseClass -->
<g id="edge2" class="edge"><title>ApprovalLevel&#45;&gt;BaseClass</title>
<path fill="none" stroke="red" stroke-dasharray="5,2" d="M306.667,-122.974C285.672,-136.758 255.186,-156.771 232.178,-171.876"/>
<polygon fill="red" stroke="red" points="230.2,-168.987 223.761,-177.401 234.041,-174.839 230.2,-168.987"/>
</g>
<!-- http://www.w3.org/2000/01/rdf&#45;schema#Literal -->
<g id="node24" class="node"><title>http://www.w3.org/2000/01/rdf&#45;schema#Literal</title>
<a xlink:href="./#http://www.w3.org/2000/01/rdf-schema#Literal" xlink:title="http://www.w3.org/2000/01/rdf&#45;schema#Literal">
<ellipse fill="none" stroke="gray" cx="200" cy="-282" rx="200.365" ry="18"/>
<text text-anchor="middle" x="200" y="-278.3" font-family="Helvetica,sans-Serif" font-size="14.00" fill="gray">http://www.w3.org/2000/01/rdf&#45;schema#Literal</text>
</a>
</g>
<!-- BaseClass&#45;&gt;http://www.w3.org/2000/01/rdf&#45;schema#Literal -->
<g id="edge26" class="edge"><title>BaseClass&#45;&gt;http://www.w3.org/2000/01/rdf&#45;schema#Literal</title>
<a xlink:href="./#comment" xlink:title="comment">
<path fill="none" stroke="darkslategray" d="M155.691,-204.946C129.588,-213.06 104.002,-226.412 117,-246 120.379,-251.092 124.661,-255.445 129.49,-259.166"/>
<polygon fill="darkslategray" stroke="darkslategray" points="127.803,-262.247 138.073,-264.85 131.668,-256.411 127.803,-262.247"/>
</a>
<a xlink:href="./#comment" xlink:title="comment">
<text text-anchor="middle" x="147.5" y="-234.3" font-family="Helvetica,sans-Serif" font-size="14.00">comment</text>
</a>
</g>
<!-- BaseClass&#45;&gt;http://www.w3.org/2000/01/rdf&#45;schema#Literal -->
<g id="edge30" class="edge"><title>BaseClass&#45;&gt;http://www.w3.org/2000/01/rdf&#45;schema#Literal</title>
<a xlink:href="./#description" xlink:title="description">
<path fill="none" stroke="darkslategray" d="M200,-212.403C200,-224.254 200,-240.183 200,-253.708"/>
<polygon fill="darkslategray" stroke="darkslategray" points="196.5,-253.916 200,-263.916 203.5,-253.916 196.5,-253.916"/>
</a>
<a xlink:href="./#description" xlink:title="description">
<text text-anchor="middle" x="235.5" y="-234.3" font-family="Helvetica,sans-Serif" font-size="14.00">description</text>
</a>
</g>
<!-- BaseClass&#45;&gt;http://www.w3.org/2000/01/rdf&#45;schema#Literal -->
<g id="edge44" class="edge"><title>BaseClass&#45;&gt;http://www.w3.org/2000/01/rdf&#45;schema#Literal</title>
<a xlink:href="./#title" xlink:title="title">
<path fill="none" stroke="darkslategray" d="M241.68,-206.004C253.521,-211.264 265.069,-218.925 272,-230 279.395,-241.817 272.434,-251.677 260.39,-259.478"/>
<polygon fill="darkslategray" stroke="darkslategray" points="258.362,-256.603 251.354,-264.549 261.787,-262.707 258.362,-256.603"/>
</a>
<a xlink:href="./#title" xlink:title="title">
<text text-anchor="middle" x="288" y="-234.3" font-family="Helvetica,sans-Serif" font-size="14.00">title</text>
</a>
</g>
<!-- http://www.w3.org/2001/XMLSchema#date -->
<g id="node26" class="node"><title>http://www.w3.org/2001/XMLSchema#date</title>
<a xlink:href="./#http://www.w3.org/2001/XMLSchema#date" xlink:title="http://www.w3.org/2001/XMLSchema#date">
<ellipse fill="none" stroke="gray" cx="1026" cy="-282" rx="188.467" ry="18"/>
<text text-anchor="middle" x="1026" y="-278.3" font-family="Helvetica,sans-Serif" font-size="14.00" fill="gray">http://www.w3.org/2001/XMLSchema#date</text>
</a>
</g>
<!-- BaseClass&#45;&gt;http://www.w3.org/2001/XMLSchema#date -->
<g id="edge28" class="edge"><title>BaseClass&#45;&gt;http://www.w3.org/2001/XMLSchema#date</title>
<a xlink:href="./#date" xlink:title="date">
<path fill="none" stroke="darkslategray" d="M239.993,-206.567C248.21,-208.631 256.842,-210.573 265,-212 463.038,-246.63 693.294,-264.44 848.221,-273.208"/>
<polygon fill="darkslategray" stroke="darkslategray" points="848.136,-276.709 858.316,-273.773 848.527,-269.72 848.136,-276.709"/>
</a>
<a xlink:href="./#date" xlink:title="date">
<text text-anchor="middle" x="508.5" y="-234.3" font-family="Helvetica,sans-Serif" font-size="14.00">date</text>
</a>
</g>
<!-- DataContainer -->
<g id="node4" class="node"><title>DataContainer</title>
<a xlink:href="./#DataContainer" xlink:title="DataContainer">
<ellipse fill="none" stroke="black" cx="517" cy="-18" rx="70.3881" ry="18"/>
<text text-anchor="middle" x="517" y="-14.3" font-family="Helvetica,sans-Serif" font-size="14.00">DataContainer</text>
</a>
</g>
<!-- DataContainer&#45;&gt;ApprovalLevel -->
<g id="edge22" class="edge"><title>DataContainer&#45;&gt;ApprovalLevel</title>
<a xlink:href="./#approvedAtLevel" xlink:title="approvedAtLevel">
<path fill="none" stroke="darkslategray" d="M452.202,-24.9398C409.824,-30.1345 359.542,-39.216 344,-54 337.599,-60.089 334.179,-68.8535 332.401,-77.404"/>
<polygon fill="darkslategray" stroke="darkslategray" points="328.903,-77.1393 330.956,-87.5332 335.833,-78.1274 328.903,-77.1393"/>
</a>
<a xlink:href="./#approvedAtLevel" xlink:title="approvedAtLevel">
<text text-anchor="middle" x="400.5" y="-58.3" font-family="Helvetica,sans-Serif" font-size="14.00">approvedAtLevel</text>
</a>
</g>
<!-- DataContainer&#45;&gt;BaseClass -->
<g id="edge4" class="edge"><title>DataContainer&#45;&gt;BaseClass</title>
<path fill="none" stroke="red" stroke-dasharray="5,2" d="M457.428,-27.5206C388.161,-38.5735 279.531,-59.8255 250,-88 227.604,-109.368 214.1,-142.801 206.87,-166.184"/>
<polygon fill="red" stroke="red" points="203.496,-165.254 204.064,-175.833 210.217,-167.209 203.496,-165.254"/>
</g>
<!-- HXLer -->
<g id="node6" class="node"><title>HXLer</title>
<a xlink:href="./#HXLer" xlink:title="HXLer">
<ellipse fill="none" stroke="black" cx="463" cy="-106" rx="38.1938" ry="18"/>
<text text-anchor="middle" x="463" y="-102.3" font-family="Helvetica,sans-Serif" font-size="14.00">HXLer</text>
</a>
</g>
<!-- DataContainer&#45;&gt;HXLer -->
<g id="edge24" class="edge"><title>DataContainer&#45;&gt;HXLer</title>
<a xlink:href="./#approvedBy" xlink:title="approvedBy">
<path fill="none" stroke="darkslategray" d="M485.407,-34.1655C477.787,-39.3697 470.541,-45.9583 466,-54 461.997,-61.0884 460.479,-69.6496 460.178,-77.7163"/>
<polygon fill="darkslategray" stroke="darkslategray" points="456.682,-77.9412 460.378,-87.8705 463.681,-77.8036 456.682,-77.9412"/>
</a>
<a xlink:href="./#approvedBy" xlink:title="approvedBy">
<text text-anchor="middle" x="506.5" y="-58.3" font-family="Helvetica,sans-Serif" font-size="14.00">approvedBy</text>
</a>
</g>
<!-- DataContainer&#45;&gt;HXLer -->
<g id="edge40" class="edge"><title>DataContainer&#45;&gt;HXLer</title>
<a xlink:href="./#reportedBy" xlink:title="reportedBy">
<path fill="none" stroke="darkslategray" d="M536.591,-35.364C546.31,-45.511 554.522,-58.7177 547,-70 538.158,-83.2633 523.237,-91.5086 508.402,-96.631"/>
<polygon fill="darkslategray" stroke="darkslategray" points="507.283,-93.313 498.731,-99.5675 509.317,-100.011 507.283,-93.313"/>
</a>
<a xlink:href="./#reportedBy" xlink:title="reportedBy">
<text text-anchor="middle" x="587" y="-58.3" font-family="Helvetica,sans-Serif" font-size="14.00">reportedBy</text>
</a>
</g>
<!-- ReportCategory -->
<g id="node10" class="node"><title>ReportCategory</title>
<a xlink:href="./#ReportCategory" xlink:title="ReportCategory">
<ellipse fill="none" stroke="black" cx="120" cy="-106" rx="78.7863" ry="18"/>
<text text-anchor="middle" x="120" y="-102.3" font-family="Helvetica,sans-Serif" font-size="14.00">ReportCategory</text>
</a>
</g>
<!-- DataContainer&#45;&gt;ReportCategory -->
<g id="edge38" class="edge"><title>DataContainer&#45;&gt;ReportCategory</title>
<a xlink:href="./#reportCategory" xlink:title="reportCategory">
<path fill="none" stroke="darkslategray" d="M446.964,-20.111C338.421,-22.5681 139.725,-30.2861 118,-54 112.213,-60.3173 111.082,-69.1376 111.916,-77.6691"/>
<polygon fill="darkslategray" stroke="darkslategray" points="108.514,-78.5218 113.728,-87.7449 115.403,-77.2834 108.514,-78.5218"/>
</a>
<a xlink:href="./#reportCategory" xlink:title="reportCategory">
<text text-anchor="middle" x="167.5" y="-58.3" font-family="Helvetica,sans-Serif" font-size="14.00">reportCategory</text>
</a>
</g>
<!-- Emergency -->
<g id="node20" class="node"><title>Emergency</title>
<a xlink:href="./#Emergency" xlink:title="Emergency">
<ellipse fill="none" stroke="gray" cx="1246" cy="-106" rx="59.2899" ry="18"/>
<text text-anchor="middle" x="1246" y="-102.3" font-family="Helvetica,sans-Serif" font-size="14.00" fill="gray">Emergency</text>
</a>
</g>
<!-- DataContainer&#45;&gt;Emergency -->
<g id="edge20" class="edge"><title>DataContainer&#45;&gt;Emergency</title>
<a xlink:href="./#aboutEmergency" xlink:title="aboutEmergency">
<path fill="none" stroke="darkslategray" d="M586.003,-21.5826C679.471,-25.6389 851.377,-35.075 997,-54 1078.17,-64.5486 1098.04,-70.5108 1178,-88 1182.73,-89.0344 1187.63,-90.1578 1192.54,-91.3176"/>
<polygon fill="darkslategray" stroke="darkslategray" points="1192.02,-94.7926 1202.56,-93.7324 1193.66,-87.9874 1192.02,-94.7926"/>
</a>
<a xlink:href="./#aboutEmergency" xlink:title="aboutEmergency">
<text text-anchor="middle" x="1149.5" y="-58.3" font-family="Helvetica,sans-Serif" font-size="14.00">aboutEmergency</text>
</a>
</g>
<!-- DataContainer&#45;&gt;http://www.w3.org/2001/XMLSchema#date -->
<g id="edge46" class="edge"><title>DataContainer&#45;&gt;http://www.w3.org/2001/XMLSchema#date</title>
<a xlink:href="./#validOn" xlink:title="validOn">
<path fill="none" stroke="darkslategray" d="M587.292,-18.9788C696.024,-23.1184 903.167,-48.4511 1006,-176 1023.6,-197.825 1027.39,-230.458 1027.54,-253.541"/>
<polygon fill="darkslategray" stroke="darkslategray" points="1024.04,-253.655 1027.38,-263.709 1031.04,-253.766 1024.04,-253.655"/>
</a>
<a xlink:href="./#validOn" xlink:title="validOn">
<text text-anchor="middle" x="1013.5" y="-146.3" font-family="Helvetica,sans-Serif" font-size="14.00">validOn</text>
</a>
</g>
<!-- http://xmlns.com/foaf/0.1/Document -->
<g id="node32" class="node"><title>http://xmlns.com/foaf/0.1/Document</title>
<a xlink:href="./#http://xmlns.com/foaf/0.1/Document" xlink:title="http://xmlns.com/foaf/0.1/Document">
<ellipse fill="none" stroke="gray" cx="1480" cy="-106" rx="156.772" ry="18"/>
<text text-anchor="middle" x="1480" y="-102.3" font-family="Helvetica,sans-Serif" font-size="14.00" fill="gray">http://xmlns.com/foaf/0.1/Document</text>
</a>
</g>
<!-- DataContainer&#45;&gt;http://xmlns.com/foaf/0.1/Document -->
<g id="edge36" class="edge"><title>DataContainer&#45;&gt;http://xmlns.com/foaf/0.1/Document</title>
<a xlink:href="./#relatedInfo" xlink:title="relatedInfo">
<path fill="none" stroke="darkslategray" d="M587.002,-19.413C712.219,-20.8472 982.638,-27.1014 1209,-54 1274.9,-61.831 1348.89,-76.1351 1402.89,-87.6058"/>
<polygon fill="darkslategray" stroke="darkslategray" points="1402.22,-91.0421 1412.73,-89.7125 1403.69,-84.1971 1402.22,-91.0421"/>
</a>
<a xlink:href="./#relatedInfo" xlink:title="relatedInfo">
<text text-anchor="middle" x="1340.5" y="-58.3" font-family="Helvetica,sans-Serif" font-size="14.00">relatedInfo</text>
</a>
</g>
<!-- HXLer&#45;&gt;BaseClass -->
<g id="edge8" class="edge"><title>HXLer&#45;&gt;BaseClass</title>
<path fill="none" stroke="red" stroke-dasharray="5,2" d="M432.808,-117.103C425.969,-119.381 418.737,-121.781 412,-124 355.554,-142.593 290.557,-163.704 247.57,-177.624"/>
<polygon fill="red" stroke="red" points="246.376,-174.332 237.94,-180.741 248.532,-180.991 246.376,-174.332"/>
</g>
<!-- http://xmlns.com/foaf/0.1/Agent -->
<g id="node7" class="node"><title>http://xmlns.com/foaf/0.1/Agent</title>
<a xlink:href="./#HXLer" xlink:title="http://xmlns.com/foaf/0.1/Agent">
<ellipse fill="none" stroke="gray" cx="413" cy="-194" rx="139.175" ry="18"/>
<text text-anchor="middle" x="413" y="-190.3" font-family="Helvetica,sans-Serif" font-size="14.00" fill="gray">http://xmlns.com/foaf/0.1/Agent</text>
</a>
</g>
<!-- HXLer&#45;&gt;http://xmlns.com/foaf/0.1/Agent -->
<g id="edge6" class="edge"><title>HXLer&#45;&gt;http://xmlns.com/foaf/0.1/Agent</title>
<path fill="none" stroke="red" stroke-dasharray="5,2" d="M453.359,-123.582C446.19,-135.914 436.268,-152.979 428.056,-167.103"/>
<polygon fill="red" stroke="red" points="424.954,-165.476 422.953,-175.881 431.005,-168.995 424.954,-165.476"/>
</g>
<!-- ReportCategory&#45;&gt;BaseClass -->
<g id="edge10" class="edge"><title>ReportCategory&#45;&gt;BaseClass</title>
<path fill="none" stroke="red" stroke-dasharray="5,2" d="M135.805,-123.991C147.793,-136.877 164.424,-154.756 177.754,-169.086"/>
<polygon fill="red" stroke="red" points="175.396,-171.69 184.77,-176.628 180.522,-166.922 175.396,-171.69"/>
</g>
<!-- ReportCategorySet -->
<g id="node12" class="node"><title>ReportCategorySet</title>
<a xlink:href="./#ReportCategorySet" xlink:title="ReportCategorySet">
<ellipse fill="none" stroke="black" cx="698" cy="-106" rx="92.8835" ry="18"/>
<text text-anchor="middle" x="698" y="-102.3" font-family="Helvetica,sans-Serif" font-size="14.00">ReportCategorySet</text>
</a>
</g>
<!-- ReportCategorySet&#45;&gt;BaseClass -->
<g id="edge12" class="edge"><title>ReportCategorySet&#45;&gt;BaseClass</title>
<path fill="none" stroke="red" stroke-dasharray="5,2" d="M623.274,-116.645C536.646,-128.349 389.785,-149.805 265,-176 260.323,-176.982 255.479,-178.085 250.64,-179.245"/>
<polygon fill="red" stroke="red" points="249.638,-175.887 240.771,-181.686 251.319,-182.682 249.638,-175.887"/>
</g>
<!-- http://www.w3.org/1999/02/22&#45;rdf&#45;syntax&#45;ns#Bag -->
<g id="node14" class="node"><title>http://www.w3.org/1999/02/22&#45;rdf&#45;syntax&#45;ns#Bag</title>
<a xlink:href="./#ReportCategorySet" xlink:title="http://www.w3.org/1999/02/22&#45;rdf&#45;syntax&#45;ns#Bag">
<ellipse fill="none" stroke="gray" cx="784" cy="-194" rx="213.662" ry="18"/>
<text text-anchor="middle" x="784" y="-190.3" font-family="Helvetica,sans-Serif" font-size="14.00" fill="gray">http://www.w3.org/1999/02/22&#45;rdf&#45;syntax&#45;ns#Bag</text>
</a>
</g>
<!-- ReportCategorySet&#45;&gt;http://www.w3.org/1999/02/22&#45;rdf&#45;syntax&#45;ns#Bag -->
<g id="edge14" class="edge"><title>ReportCategorySet&#45;&gt;http://www.w3.org/1999/02/22&#45;rdf&#45;syntax&#45;ns#Bag</title>
<path fill="none" stroke="red" stroke-dasharray="5,2" d="M714.991,-123.991C727.83,-136.83 745.624,-154.624 759.928,-168.928"/>
<polygon fill="red" stroke="red" points="757.498,-171.448 767.044,-176.044 762.448,-166.498 757.498,-171.448"/>
</g>
<!-- ReportingPeriod -->
<g id="node16" class="node"><title>ReportingPeriod</title>
<a xlink:href="./#ReportingPeriod" xlink:title="ReportingPeriod">
<ellipse fill="none" stroke="black" cx="1090" cy="-106" rx="79.0865" ry="18"/>
<text text-anchor="middle" x="1090" y="-102.3" font-family="Helvetica,sans-Serif" font-size="14.00">ReportingPeriod</text>
</a>
</g>
<!-- ReportingPeriod&#45;&gt;BaseClass -->
<g id="edge16" class="edge"><title>ReportingPeriod&#45;&gt;BaseClass</title>
<path fill="none" stroke="red" stroke-dasharray="5,2" d="M1076.81,-123.956C1066.37,-135.921 1050.66,-151.016 1033,-158 953.627,-189.396 349.526,-164.121 265,-176 259.862,-176.722 254.546,-177.707 249.271,-178.84"/>
<polygon fill="red" stroke="red" points="248.179,-175.501 239.232,-181.175 249.765,-182.319 248.179,-175.501"/>
</g>
<!-- http://purl.org/dc/terms/PeriodOfTime -->
<g id="node19" class="node"><title>http://purl.org/dc/terms/PeriodOfTime</title>
<a xlink:href="./#http://purl.org/dc/terms/PeriodOfTime" xlink:title="http://purl.org/dc/terms/PeriodOfTime">
<ellipse fill="none" stroke="black" cx="1390" cy="-194" rx="165.171" ry="18"/>
<text text-anchor="middle" x="1390" y="-190.3" font-family="Helvetica,sans-Serif" font-size="14.00">http://purl.org/dc/terms/PeriodOfTime</text>
</a>
</g>
<!-- ReportingPeriod&#45;&gt;http://purl.org/dc/terms/PeriodOfTime -->
<g id="edge18" class="edge"><title>ReportingPeriod&#45;&gt;http://purl.org/dc/terms/PeriodOfTime</title>
<path fill="none" stroke="red" stroke-dasharray="5,2" d="M1137.21,-120.532C1187.56,-134.968 1267.7,-157.941 1324.23,-174.145"/>
<polygon fill="red" stroke="red" points="1323.56,-177.596 1334.14,-176.987 1325.49,-170.867 1323.56,-177.596"/>
</g>
<!-- ReportingPeriod&#45;&gt;http://www.w3.org/2001/XMLSchema#date -->
<g id="edge34" class="edge"><title>ReportingPeriod&#45;&gt;http://www.w3.org/2001/XMLSchema#date</title>
<a xlink:href="./#end" xlink:title="end">
<path fill="none" stroke="darkslategray" d="M1084.04,-124.191C1074.85,-150.518 1056.57,-202.365 1040,-246 1038.95,-248.753 1037.84,-251.62 1036.72,-254.475"/>
<polygon fill="darkslategray" stroke="darkslategray" points="1033.4,-253.372 1032.96,-263.957 1039.9,-255.956 1033.4,-253.372"/>
</a>
<a xlink:href="./#end" xlink:title="end">
<text text-anchor="middle" x="1078.5" y="-190.3" font-family="Helvetica,sans-Serif" font-size="14.00">end</text>
</a>
</g>
<!-- ReportingPeriod&#45;&gt;http://www.w3.org/2001/XMLSchema#date -->
<g id="edge42" class="edge"><title>ReportingPeriod&#45;&gt;http://www.w3.org/2001/XMLSchema#date</title>
<a xlink:href="./#start" xlink:title="start">
<path fill="none" stroke="darkslategray" d="M1095.14,-124.129C1100.63,-145.57 1107.01,-183 1095,-212 1087.58,-229.925 1072.98,-245.621 1059.13,-257.495"/>
<polygon fill="darkslategray" stroke="darkslategray" points="1056.65,-255 1051.11,-264.033 1061.07,-260.425 1056.65,-255"/>
</a>
<a xlink:href="./#start" xlink:title="start">
<text text-anchor="middle" x="1116.5" y="-190.3" font-family="Helvetica,sans-Serif" font-size="14.00">start</text>
</a>
</g>
<!-- http://www.w3.org/2001/XMLSchema#duration -->
<g id="node29" class="node"><title>http://www.w3.org/2001/XMLSchema#duration</title>
<a xlink:href="./#http://www.w3.org/2001/XMLSchema#duration" xlink:title="http://www.w3.org/2001/XMLSchema#duration">
<ellipse fill="none" stroke="gray" cx="1436" cy="-282" rx="203.364" ry="18"/>
<text text-anchor="middle" x="1436" y="-278.3" font-family="Helvetica,sans-Serif" font-size="14.00" fill="gray">http://www.w3.org/2001/XMLSchema#duration</text>
</a>
</g>
<!-- http://purl.org/dc/terms/PeriodOfTime&#45;&gt;http://www.w3.org/2001/XMLSchema#duration -->
<g id="edge32" class="edge"><title>http://purl.org/dc/terms/PeriodOfTime&#45;&gt;http://www.w3.org/2001/XMLSchema#duration</title>
<a xlink:href="./#duration" xlink:title="duration">
<path fill="none" stroke="darkslategray" d="M1399.09,-211.991C1405.6,-224.161 1414.49,-240.785 1421.91,-254.666"/>
<polygon fill="darkslategray" stroke="darkslategray" points="1418.97,-256.583 1426.77,-263.75 1425.14,-253.281 1418.97,-256.583"/>
</a>
<a xlink:href="./#duration" xlink:title="duration">
<text text-anchor="middle" x="1443" y="-234.3" font-family="Helvetica,sans-Serif" font-size="14.00">duration</text>
</a>
</g>
</g>
</svg>
