<?xml version="1.0" encoding="UTF-8" standalone="no"?>
<!DOCTYPE svg PUBLIC "-//W3C//DTD SVG 1.1//EN"
 "http://www.w3.org/Graphics/SVG/1.1/DTD/svg11.dtd">
<!-- Generated by graphviz version 2.28.0 (20120807.1341)
 -->
<!-- Title: _anonymous_0 Pages: 1 -->
<svg width="1367pt" height="308pt"
 viewBox="0.00 0.00 1367.00 308.00" xmlns="http://www.w3.org/2000/svg" xmlns:xlink="http://www.w3.org/1999/xlink">
<g id="graph1" class="graph" transform="scale(1 1) rotate(0) translate(4 304)">
<title>_anonymous_0</title>
<polygon fill="white" stroke="white" points="-4,5 -4,-304 1364,-304 1364,5 -4,5"/>
<!-- ApprovalLevel -->
<g id="node1" class="node"><title>ApprovalLevel</title>
<a xlink:href="./#ApprovalLevel" xlink:title="ApprovalLevel">
<ellipse fill="none" stroke="black" cx="176" cy="-106" rx="72.2875" ry="18"/>
<text text-anchor="middle" x="176" y="-102.3" font-family="Helvetica,sans-Serif" font-size="14.00">ApprovalLevel</text>
</a>
</g>
<!-- BaseClass -->
<g id="node2" class="node"><title>BaseClass</title>
<a xlink:href="./#BaseClass" xlink:title="BaseClass">
<ellipse fill="none" stroke="gray" cx="352" cy="-194" rx="55.7903" ry="18"/>
<text text-anchor="middle" x="352" y="-190.3" font-family="Helvetica,sans-Serif" font-size="14.00" fill="gray">BaseClass</text>
</a>
</g>
<!-- ApprovalLevel&#45;&gt;BaseClass -->
<g id="edge2" class="edge"><title>ApprovalLevel&#45;&gt;BaseClass</title>
<path fill="none" stroke="red" stroke-dasharray="5,2" d="M207.465,-122.375C237.162,-136.886 281.756,-158.676 313.549,-174.211"/>
<polygon fill="red" stroke="red" points="312.042,-177.37 322.563,-178.616 315.115,-171.081 312.042,-177.37"/>
</g>
<!-- http://www.w3.org/2000/01/rdf&#45;schema#Literal -->
<g id="node21" class="node"><title>http://www.w3.org/2000/01/rdf&#45;schema#Literal</title>
<a xlink:href="./#http://www.w3.org/2000/01/rdf-schema#Literal" xlink:title="http://www.w3.org/2000/01/rdf&#45;schema#Literal">
<ellipse fill="none" stroke="gray" cx="352" cy="-282" rx="200.365" ry="18"/>
<text text-anchor="middle" x="352" y="-278.3" font-family="Helvetica,sans-Serif" font-size="14.00" fill="gray">http://www.w3.org/2000/01/rdf&#45;schema#Literal</text>
</a>
</g>
<!-- BaseClass&#45;&gt;http://www.w3.org/2000/01/rdf&#45;schema#Literal -->
<g id="edge22" class="edge"><title>BaseClass&#45;&gt;http://www.w3.org/2000/01/rdf&#45;schema#Literal</title>
<a xlink:href="./#comment" xlink:title="comment">
<path fill="none" stroke="darkslategray" d="M307.691,-204.946C281.588,-213.06 256.002,-226.412 269,-246 272.379,-251.092 276.661,-255.445 281.49,-259.166"/>
<polygon fill="darkslategray" stroke="darkslategray" points="279.803,-262.247 290.073,-264.85 283.668,-256.411 279.803,-262.247"/>
</a>
<a xlink:href="./#comment" xlink:title="comment">
<text text-anchor="middle" x="299.5" y="-234.3" font-family="Helvetica,sans-Serif" font-size="14.00">comment</text>
</a>
</g>
<!-- BaseClass&#45;&gt;http://www.w3.org/2000/01/rdf&#45;schema#Literal -->
<g id="edge26" class="edge"><title>BaseClass&#45;&gt;http://www.w3.org/2000/01/rdf&#45;schema#Literal</title>
<a xlink:href="./#description" xlink:title="description">
<path fill="none" stroke="darkslategray" d="M352,-212.403C352,-224.254 352,-240.183 352,-253.708"/>
<polygon fill="darkslategray" stroke="darkslategray" points="348.5,-253.916 352,-263.916 355.5,-253.916 348.5,-253.916"/>
</a>
<a xlink:href="./#description" xlink:title="description">
<text text-anchor="middle" x="387.5" y="-234.3" font-family="Helvetica,sans-Serif" font-size="14.00">description</text>
</a>
</g>
<!-- BaseClass&#45;&gt;http://www.w3.org/2000/01/rdf&#45;schema#Literal -->
<g id="edge34" class="edge"><title>BaseClass&#45;&gt;http://www.w3.org/2000/01/rdf&#45;schema#Literal</title>
<a xlink:href="./#title" xlink:title="title">
<path fill="none" stroke="darkslategray" d="M392.402,-206.661C414.347,-215.246 434.97,-228.47 424,-246 421.005,-250.786 417.147,-254.935 412.776,-258.528"/>
<polygon fill="darkslategray" stroke="darkslategray" points="410.585,-255.79 404.429,-264.412 414.619,-261.511 410.585,-255.79"/>
</a>
<a xlink:href="./#title" xlink:title="title">
<text text-anchor="middle" x="440" y="-234.3" font-family="Helvetica,sans-Serif" font-size="14.00">title</text>
</a>
</g>
<!-- http://www.w3.org/2001/XMLSchema#date -->
<g id="node23" class="node"><title>http://www.w3.org/2001/XMLSchema#date</title>
<a xlink:href="./#http://www.w3.org/2001/XMLSchema#date" xlink:title="http://www.w3.org/2001/XMLSchema#date">
<ellipse fill="none" stroke="gray" cx="820" cy="-282" rx="188.467" ry="18"/>
<text text-anchor="middle" x="820" y="-278.3" font-family="Helvetica,sans-Serif" font-size="14.00" fill="gray">http://www.w3.org/2001/XMLSchema#date</text>
</a>
</g>
<!-- BaseClass&#45;&gt;http://www.w3.org/2001/XMLSchema#date -->
<g id="edge24" class="edge"><title>BaseClass&#45;&gt;http://www.w3.org/2001/XMLSchema#date</title>
<a xlink:href="./#date" xlink:title="date">
<path fill="none" stroke="darkslategray" d="M392.786,-206.241C400.785,-208.283 409.133,-210.301 417,-212 516.142,-233.41 630.161,-252.416 711.563,-265.032"/>
<polygon fill="darkslategray" stroke="darkslategray" points="711.408,-268.549 721.825,-266.615 712.475,-261.631 711.408,-268.549"/>
</a>
<a xlink:href="./#date" xlink:title="date">
<text text-anchor="middle" x="608.5" y="-234.3" font-family="Helvetica,sans-Serif" font-size="14.00">date</text>
</a>
</g>
<!-- DataContainer -->
<g id="node4" class="node"><title>DataContainer</title>
<a xlink:href="./#DataContainer" xlink:title="DataContainer">
<ellipse fill="none" stroke="black" cx="504" cy="-18" rx="70.3881" ry="18"/>
<text text-anchor="middle" x="504" y="-14.3" font-family="Helvetica,sans-Serif" font-size="14.00">DataContainer</text>
</a>
</g>
<!-- DataContainer&#45;&gt;ApprovalLevel -->
<g id="edge18" class="edge"><title>DataContainer&#45;&gt;ApprovalLevel</title>
<a xlink:href="./#approvedAtLevel" xlink:title="approvedAtLevel">
<path fill="none" stroke="darkslategray" d="M434.943,-21.4608C343.076,-25.4572 190.176,-34.9118 173,-54 167.264,-60.3748 166.288,-69.2092 167.296,-77.736"/>
<polygon fill="darkslategray" stroke="darkslategray" points="163.917,-78.6857 169.322,-87.7982 170.779,-77.3041 163.917,-78.6857"/>
</a>
<a xlink:href="./#approvedAtLevel" xlink:title="approvedAtLevel">
<text text-anchor="middle" x="229.5" y="-58.3" font-family="Helvetica,sans-Serif" font-size="14.00">approvedAtLevel</text>
</a>
</g>
<!-- DataContainer&#45;&gt;BaseClass -->
<g id="edge4" class="edge"><title>DataContainer&#45;&gt;BaseClass</title>
<path fill="none" stroke="red" stroke-dasharray="5,2" d="M497.289,-35.9961C492.258,-46.9076 484.444,-60.7212 474,-70 459.122,-83.2176 448.676,-75.7402 433,-88 404.822,-110.037 381.01,-144.003 366.645,-167.299"/>
<polygon fill="red" stroke="red" points="363.591,-165.587 361.435,-175.96 369.589,-169.195 363.591,-165.587"/>
</g>
<!-- HXLer -->
<g id="node6" class="node"><title>HXLer</title>
<a xlink:href="./#HXLer" xlink:title="HXLer">
<ellipse fill="none" stroke="black" cx="321" cy="-106" rx="38.1938" ry="18"/>
<text text-anchor="middle" x="321" y="-102.3" font-family="Helvetica,sans-Serif" font-size="14.00">HXLer</text>
</a>
</g>
<!-- DataContainer&#45;&gt;HXLer -->
<g id="edge32" class="edge"><title>DataContainer&#45;&gt;HXLer</title>
<a xlink:href="./#reportedBy" xlink:title="reportedBy">
<path fill="none" stroke="darkslategray" d="M434.694,-21.1067C380.355,-24.3921 311.009,-32.7573 293,-54 285.927,-62.3427 289.847,-72.7521 296.726,-81.9874"/>
<polygon fill="darkslategray" stroke="darkslategray" points="294.174,-84.389 303.33,-89.7195 299.497,-79.8426 294.174,-84.389"/>
</a>
<a xlink:href="./#reportedBy" xlink:title="reportedBy">
<text text-anchor="middle" x="330" y="-58.3" font-family="Helvetica,sans-Serif" font-size="14.00">reportedBy</text>
</a>
</g>
<!-- DataContainer&#45;&gt;HXLer -->
<g id="edge20" class="edge"><title>DataContainer&#45;&gt;HXLer</title>
<a xlink:href="./#approvedBy" xlink:title="approvedBy">
<path fill="none" stroke="darkslategray" d="M454.921,-30.9164C435.144,-36.6209 412.455,-44.3398 393,-54 391.768,-54.612 369.223,-70.6131 349.686,-84.5301"/>
<polygon fill="darkslategray" stroke="darkslategray" points="347.401,-81.8608 341.289,-90.515 351.464,-87.5611 347.401,-81.8608"/>
</a>
<a xlink:href="./#approvedBy" xlink:title="approvedBy">
<text text-anchor="middle" x="433.5" y="-58.3" font-family="Helvetica,sans-Serif" font-size="14.00">approvedBy</text>
</a>
</g>
<!-- ReportCategory -->
<g id="node10" class="node"><title>ReportCategory</title>
<a xlink:href="./#ReportCategory" xlink:title="ReportCategory">
<ellipse fill="none" stroke="black" cx="521" cy="-106" rx="78.7863" ry="18"/>
<text text-anchor="middle" x="521" y="-102.3" font-family="Helvetica,sans-Serif" font-size="14.00">ReportCategory</text>
</a>
</g>
<!-- DataContainer&#45;&gt;ReportCategory -->
<g id="edge30" class="edge"><title>DataContainer&#45;&gt;ReportCategory</title>
<a xlink:href="./#reportCategory" xlink:title="reportCategory">
<path fill="none" stroke="darkslategray" d="M507.359,-35.9908C509.718,-47.9273 512.924,-64.1468 515.636,-77.8623"/>
<polygon fill="darkslategray" stroke="darkslategray" points="512.217,-78.6187 517.59,-87.7501 519.084,-77.2612 512.217,-78.6187"/>
</a>
<a xlink:href="./#reportCategory" xlink:title="reportCategory">
<text text-anchor="middle" x="564.5" y="-58.3" font-family="Helvetica,sans-Serif" font-size="14.00">reportCategory</text>
</a>
</g>
<!-- Emergency -->
<g id="node17" class="node"><title>Emergency</title>
<a xlink:href="./#Emergency" xlink:title="Emergency">
<ellipse fill="none" stroke="gray" cx="969" cy="-106" rx="59.2899" ry="18"/>
<text text-anchor="middle" x="969" y="-102.3" font-family="Helvetica,sans-Serif" font-size="14.00" fill="gray">Emergency</text>
</a>
</g>
<!-- DataContainer&#45;&gt;Emergency -->
<g id="edge16" class="edge"><title>DataContainer&#45;&gt;Emergency</title>
<a xlink:href="./#aboutEmergency" xlink:title="aboutEmergency">
<path fill="none" stroke="darkslategray" d="M553.521,-30.8798C563.247,-32.8658 573.408,-34.7 583,-36 652.039,-45.3563 830.171,-31.185 896,-54 913.541,-60.0793 930.687,-71.6761 943.95,-82.277"/>
<polygon fill="darkslategray" stroke="darkslategray" points="941.745,-84.9957 951.675,-88.6906 946.217,-79.6099 941.745,-84.9957"/>
</a>
<a xlink:href="./#aboutEmergency" xlink:title="aboutEmergency">
<text text-anchor="middle" x="982.5" y="-58.3" font-family="Helvetica,sans-Serif" font-size="14.00">aboutEmergency</text>
</a>
</g>
<!-- DataContainer&#45;&gt;http://www.w3.org/2001/XMLSchema#date -->
<g id="edge36" class="edge"><title>DataContainer&#45;&gt;http://www.w3.org/2001/XMLSchema#date</title>
<a xlink:href="./#validOn" xlink:title="validOn">
<path fill="none" stroke="darkslategray" d="M555.713,-30.3092C642.76,-49.383 809.399,-86.0743 812,-88 859.76,-123.356 878.044,-154.784 862,-212 857.643,-227.538 848.717,-243.049 840.21,-255.417"/>
<polygon fill="darkslategray" stroke="darkslategray" points="837.161,-253.662 834.161,-263.823 842.842,-257.751 837.161,-253.662"/>
</a>
<a xlink:href="./#validOn" xlink:title="validOn">
<text text-anchor="middle" x="890.5" y="-146.3" font-family="Helvetica,sans-Serif" font-size="14.00">validOn</text>
</a>
</g>
<!-- http://xmlns.com/foaf/0.1/Document -->
<g id="node26" class="node"><title>http://xmlns.com/foaf/0.1/Document</title>
<a xlink:href="./#http://xmlns.com/foaf/0.1/Document" xlink:title="http://xmlns.com/foaf/0.1/Document">
<ellipse fill="none" stroke="gray" cx="1203" cy="-106" rx="156.772" ry="18"/>
<text text-anchor="middle" x="1203" y="-102.3" font-family="Helvetica,sans-Serif" font-size="14.00" fill="gray">http://xmlns.com/foaf/0.1/Document</text>
</a>
</g>
<!-- DataContainer&#45;&gt;http://xmlns.com/foaf/0.1/Document -->
<g id="edge28" class="edge"><title>DataContainer&#45;&gt;http://xmlns.com/foaf/0.1/Document</title>
<a xlink:href="./#relatedInfo" xlink:title="relatedInfo">
<path fill="none" stroke="darkslategray" d="M553.08,-30.934C562.935,-32.9416 573.257,-34.77 583,-36 785.549,-61.57 840.89,-18.8602 1042,-54 1079.66,-60.5803 1120.72,-73.6878 1151.95,-84.9664"/>
<polygon fill="darkslategray" stroke="darkslategray" points="1151.14,-88.395 1161.73,-88.5535 1153.55,-81.8233 1151.14,-88.395"/>
</a>
<a xlink:href="./#relatedInfo" xlink:title="relatedInfo">
<text text-anchor="middle" x="1139.5" y="-58.3" font-family="Helvetica,sans-Serif" font-size="14.00">relatedInfo</text>
</a>
</g>
<!-- HXLer&#45;&gt;BaseClass -->
<g id="edge8" class="edge"><title>HXLer&#45;&gt;BaseClass</title>
<path fill="none" stroke="red" stroke-dasharray="5,2" d="M327.125,-123.991C331.498,-136.123 337.466,-152.68 342.46,-166.535"/>
<polygon fill="red" stroke="red" points="339.204,-167.824 345.888,-176.044 345.79,-165.45 339.204,-167.824"/>
</g>
<!-- http://xmlns.com/foaf/0.1/Agent -->
<g id="node7" class="node"><title>http://xmlns.com/foaf/0.1/Agent</title>
<a xlink:href="./#HXLer" xlink:title="http://xmlns.com/foaf/0.1/Agent">
<ellipse fill="none" stroke="gray" cx="139" cy="-194" rx="139.175" ry="18"/>
<text text-anchor="middle" x="139" y="-190.3" font-family="Helvetica,sans-Serif" font-size="14.00" fill="gray">http://xmlns.com/foaf/0.1/Agent</text>
</a>
</g>
<!-- HXLer&#45;&gt;http://xmlns.com/foaf/0.1/Agent -->
<g id="edge6" class="edge"><title>HXLer&#45;&gt;http://xmlns.com/foaf/0.1/Agent</title>
<path fill="none" stroke="red" stroke-dasharray="5,2" d="M294.924,-119.322C265.78,-133.093 218.1,-155.623 183.126,-172.149"/>
<polygon fill="red" stroke="red" points="181.622,-168.989 174.076,-176.425 184.613,-175.318 181.622,-168.989"/>
</g>
<!-- ReportCategory&#45;&gt;BaseClass -->
<g id="edge10" class="edge"><title>ReportCategory&#45;&gt;BaseClass</title>
<path fill="none" stroke="red" stroke-dasharray="5,2" d="M493.191,-122.915C474.85,-133.246 450.202,-146.817 428,-158 416.749,-163.667 404.4,-169.51 392.987,-174.761"/>
<polygon fill="red" stroke="red" points="391.31,-171.679 383.666,-179.015 394.216,-178.047 391.31,-171.679"/>
</g>
<!-- ReportCategorySet -->
<g id="node12" class="node"><title>ReportCategorySet</title>
<a xlink:href="./#ReportCategorySet" xlink:title="ReportCategorySet">
<ellipse fill="none" stroke="black" cx="711" cy="-106" rx="92.8835" ry="18"/>
<text text-anchor="middle" x="711" y="-102.3" font-family="Helvetica,sans-Serif" font-size="14.00">ReportCategorySet</text>
</a>
</g>
<!-- ReportCategorySet&#45;&gt;BaseClass -->
<g id="edge12" class="edge"><title>ReportCategorySet&#45;&gt;BaseClass</title>
<path fill="none" stroke="red" stroke-dasharray="5,2" d="M653.158,-120.121C593.793,-133.693 498.799,-155.708 417,-176 412.615,-177.088 408.069,-178.236 403.51,-179.4"/>
<polygon fill="red" stroke="red" points="402.381,-176.077 393.571,-181.961 404.128,-182.856 402.381,-176.077"/>
</g>
<!-- http://www.w3.org/1999/02/22&#45;rdf&#45;syntax&#45;ns#Bag -->
<g id="node14" class="node"><title>http://www.w3.org/1999/02/22&#45;rdf&#45;syntax&#45;ns#Bag</title>
<a xlink:href="./#ReportCategorySet" xlink:title="http://www.w3.org/1999/02/22&#45;rdf&#45;syntax&#45;ns#Bag">
<ellipse fill="none" stroke="gray" cx="640" cy="-194" rx="213.662" ry="18"/>
<text text-anchor="middle" x="640" y="-190.3" font-family="Helvetica,sans-Serif" font-size="14.00" fill="gray">http://www.w3.org/1999/02/22&#45;rdf&#45;syntax&#45;ns#Bag</text>
</a>
</g>
<!-- ReportCategorySet&#45;&gt;http://www.w3.org/1999/02/22&#45;rdf&#45;syntax&#45;ns#Bag -->
<g id="edge14" class="edge"><title>ReportCategorySet&#45;&gt;http://www.w3.org/1999/02/22&#45;rdf&#45;syntax&#45;ns#Bag</title>
<path fill="none" stroke="red" stroke-dasharray="5,2" d="M696.973,-123.991C686.635,-136.512 672.406,-153.747 660.755,-167.86"/>
<polygon fill="red" stroke="red" points="657.909,-165.81 654.241,-175.75 663.307,-170.267 657.909,-165.81"/>
</g>
<!-- http://purl.org/dc/terms/PeriodOfTime -->
<g id="node16" class="node"><title>http://purl.org/dc/terms/PeriodOfTime</title>
<a xlink:href="./#http://purl.org/dc/terms/PeriodOfTime" xlink:title="http://purl.org/dc/terms/PeriodOfTime">
<ellipse fill="none" stroke="black" cx="757" cy="-18" rx="165.171" ry="18"/>
<text text-anchor="middle" x="757" y="-14.3" font-family="Helvetica,sans-Serif" font-size="14.00">http://purl.org/dc/terms/PeriodOfTime</text>
</a>
</g>
</g>
</svg>
