<?xml version="1.0" encoding="UTF-8" standalone="no"?>
<!DOCTYPE svg PUBLIC "-//W3C//DTD SVG 1.1//EN"
 "http://www.w3.org/Graphics/SVG/1.1/DTD/svg11.dtd">
<!-- Generated by graphviz version 2.28.0 (20110507.0327)
 -->
<!-- Title: _anonymous_0 Pages: 1 -->
<svg width="1695pt" height="294pt"
 viewBox="0.00 0.00 1695.00 294.00" xmlns="http://www.w3.org/2000/svg" xmlns:xlink="http://www.w3.org/1999/xlink">
<g id="graph1" class="graph" transform="scale(1 1) rotate(0) translate(4 290)">
<title>_anonymous_0</title>
<polygon fill="white" stroke="white" points="-4,5 -4,-290 1692,-290 1692,5 -4,5"/>
<!-- ApprovalLevel -->
<g id="node1" class="node"><title>ApprovalLevel</title>
<a xlink:href="./#ApprovalLevel" xlink:title="ApprovalLevel">
<ellipse fill="none" stroke="black" cx="90" cy="-106" rx="69.5877" ry="18"/>
<text text-anchor="middle" x="90" y="-102.3" font-family="Helvetica,sans-Serif" font-size="14.00">ApprovalLevel</text>
</a>
</g>
<!-- BaseClass -->
<g id="node2" class="node"><title>BaseClass</title>
<a xlink:href="./#BaseClass" xlink:title="BaseClass">
<ellipse fill="none" stroke="gray" cx="470" cy="-180" rx="55.7903" ry="18"/>
<text text-anchor="middle" x="470" y="-176.3" font-family="Helvetica,sans-Serif" font-size="14.00" fill="gray">BaseClass</text>
</a>
</g>
<!-- ApprovalLevel&#45;&gt;BaseClass -->
<g id="edge2" class="edge"><title>ApprovalLevel&#45;&gt;BaseClass</title>
<path fill="none" stroke="red" stroke-dasharray="5,2" d="M148.629,-115.746C212.101,-125.562 316.175,-142.665 405,-162 409.669,-163.016 414.509,-164.143 419.345,-165.318"/>
<polygon fill="red" stroke="red" points="418.659,-168.754 429.209,-167.78 420.354,-161.963 418.659,-168.754"/>
</g>
<!-- http://www.w3.org/2000/01/rdf&#45;schema#Literal -->
<g id="node24" class="node"><title>http://www.w3.org/2000/01/rdf&#45;schema#Literal</title>
<a xlink:href="./#http://www.w3.org/2000/01/rdf-schema#Literal" xlink:title="http://www.w3.org/2000/01/rdf&#45;schema#Literal">
<ellipse fill="none" stroke="gray" cx="198" cy="-268" rx="198.765" ry="18"/>
<text text-anchor="middle" x="198" y="-264.3" font-family="Helvetica,sans-Serif" font-size="14.00" fill="gray">http://www.w3.org/2000/01/rdf&#45;schema#Literal</text>
</a>
</g>
<!-- BaseClass&#45;&gt;http://www.w3.org/2000/01/rdf&#45;schema#Literal -->
<g id="edge26" class="edge"><title>BaseClass&#45;&gt;http://www.w3.org/2000/01/rdf&#45;schema#Literal</title>
<a xlink:href="./#comment" xlink:title="comment">
<path fill="none" stroke="darkslategray" d="M430.011,-192.588C421.794,-194.65 413.16,-196.587 405,-198 382.361,-201.921 214.689,-199.214 199,-216 193.153,-222.256 191.58,-231.061 191.887,-239.598"/>
<polygon fill="darkslategray" stroke="darkslategray" points="188.427,-240.146 193.032,-249.688 195.382,-239.357 188.427,-240.146"/>
</a>
<a xlink:href="./#comment" xlink:title="comment">
<text text-anchor="middle" x="229" y="-220.3" font-family="Helvetica,sans-Serif" font-size="14.00">comment</text>
</a>
</g>
<!-- BaseClass&#45;&gt;http://www.w3.org/2000/01/rdf&#45;schema#Literal -->
<g id="edge30" class="edge"><title>BaseClass&#45;&gt;http://www.w3.org/2000/01/rdf&#45;schema#Literal</title>
<a xlink:href="./#description" xlink:title="description">
<path fill="none" stroke="darkslategray" d="M429.246,-192.394C421.245,-194.423 412.887,-196.397 405,-198 350.859,-209.007 333.378,-195.684 282,-216 270.42,-220.579 269.521,-225.34 259,-232 252.182,-236.316 244.818,-240.737 237.645,-244.92"/>
<polygon fill="darkslategray" stroke="darkslategray" points="235.633,-242.04 228.717,-250.066 239.128,-248.105 235.633,-242.04"/>
</a>
<a xlink:href="./#description" xlink:title="description">
<text text-anchor="middle" x="317" y="-220.3" font-family="Helvetica,sans-Serif" font-size="14.00">description</text>
</a>
</g>
<!-- BaseClass&#45;&gt;http://www.w3.org/2000/01/rdf&#45;schema#Literal -->
<g id="edge44" class="edge"><title>BaseClass&#45;&gt;http://www.w3.org/2000/01/rdf&#45;schema#Literal</title>
<a xlink:href="./#title" xlink:title="title">
<path fill="none" stroke="darkslategray" d="M438.604,-194.925C406.679,-209.028 360.698,-229.159 352,-232 331.863,-238.578 309.853,-244.373 288.935,-249.259"/>
<polygon fill="darkslategray" stroke="darkslategray" points="288.058,-245.869 279.091,-251.512 289.62,-252.693 288.058,-245.869"/>
</a>
<a xlink:href="./#title" xlink:title="title">
<text text-anchor="middle" x="401" y="-220.3" font-family="Helvetica,sans-Serif" font-size="14.00">title</text>
</a>
</g>
<!-- http://www.w3.org/2001/XMLSchema#date -->
<g id="node26" class="node"><title>http://www.w3.org/2001/XMLSchema#date</title>
<a xlink:href="./#http://www.w3.org/2001/XMLSchema#date" xlink:title="http://www.w3.org/2001/XMLSchema#date">
<ellipse fill="none" stroke="gray" cx="600" cy="-268" rx="185.467" ry="18"/>
<text text-anchor="middle" x="600" y="-264.3" font-family="Helvetica,sans-Serif" font-size="14.00" fill="gray">http://www.w3.org/2001/XMLSchema#date</text>
</a>
</g>
<!-- BaseClass&#45;&gt;http://www.w3.org/2001/XMLSchema#date -->
<g id="edge28" class="edge"><title>BaseClass&#45;&gt;http://www.w3.org/2001/XMLSchema#date</title>
<a xlink:href="./#date" xlink:title="date">
<path fill="none" stroke="darkslategray" d="M440.628,-195.318C424.274,-205.207 409.195,-218.892 420,-232 427.287,-240.841 444.706,-247.477 465.983,-252.449"/>
<polygon fill="darkslategray" stroke="darkslategray" points="465.493,-255.924 476.007,-254.619 466.974,-249.083 465.493,-255.924"/>
</a>
<a xlink:href="./#date" xlink:title="date">
<text text-anchor="middle" x="434" y="-220.3" font-family="Helvetica,sans-Serif" font-size="14.00">date</text>
</a>
</g>
<!-- BaseClass&#45;&gt;http://www.w3.org/2001/XMLSchema#date -->
<g id="edge34" class="edge"><title>BaseClass&#45;&gt;http://www.w3.org/2001/XMLSchema#date</title>
<a xlink:href="./#end" xlink:title="end">
<path fill="none" stroke="darkslategray" d="M465.49,-198.335C463.767,-209.11 463.699,-222.645 471,-232 476.202,-238.666 488.897,-244.372 504.396,-249.126"/>
<polygon fill="darkslategray" stroke="darkslategray" points="503.79,-252.593 514.366,-251.963 505.706,-245.86 503.79,-252.593"/>
</a>
<a xlink:href="./#end" xlink:title="end">
<text text-anchor="middle" x="483.5" y="-220.3" font-family="Helvetica,sans-Serif" font-size="14.00">end</text>
</a>
</g>
<!-- BaseClass&#45;&gt;http://www.w3.org/2001/XMLSchema#date -->
<g id="edge42" class="edge"><title>BaseClass&#45;&gt;http://www.w3.org/2001/XMLSchema#date</title>
<a xlink:href="./#start" xlink:title="start">
<path fill="none" stroke="darkslategray" d="M483.163,-197.837C492.309,-208.681 505.281,-222.48 519,-232 526.579,-237.259 535.074,-241.981 543.636,-246.127"/>
<polygon fill="darkslategray" stroke="darkslategray" points="542.364,-249.394 552.911,-250.398 545.292,-243.036 542.364,-249.394"/>
</a>
<a xlink:href="./#start" xlink:title="start">
<text text-anchor="middle" x="533" y="-220.3" font-family="Helvetica,sans-Serif" font-size="14.00">start</text>
</a>
</g>
<!-- BaseClass&#45;&gt;http://www.w3.org/2001/XMLSchema#date -->
<g id="edge46" class="edge"><title>BaseClass&#45;&gt;http://www.w3.org/2001/XMLSchema#date</title>
<a xlink:href="./#validityDate" xlink:title="validityDate">
<path fill="none" stroke="darkslategray" d="M505.064,-193.963C518.707,-199.754 534.122,-207.257 547,-216 558.06,-223.508 568.938,-233.405 577.932,-242.48"/>
<polygon fill="darkslategray" stroke="darkslategray" points="575.554,-245.056 585.008,-249.84 580.601,-240.205 575.554,-245.056"/>
</a>
<a xlink:href="./#validityDate" xlink:title="validityDate">
<text text-anchor="middle" x="602.5" y="-220.3" font-family="Helvetica,sans-Serif" font-size="14.00">validityDate</text>
</a>
</g>
<!-- BaseClass&#45;&gt;http://www.w3.org/2001/XMLSchema#date -->
<g id="edge48" class="edge"><title>BaseClass&#45;&gt;http://www.w3.org/2001/XMLSchema#date</title>
<a xlink:href="./#validityEnd" xlink:title="validityEnd">
<path fill="none" stroke="darkslategray" d="M523.832,-184.584C568.877,-188.839 628.11,-197.795 643,-216 650.406,-225.054 645.275,-234.902 636.347,-243.509"/>
<polygon fill="darkslategray" stroke="darkslategray" points="633.918,-240.978 628.539,-250.106 638.436,-246.325 633.918,-240.978"/>
</a>
<a xlink:href="./#validityEnd" xlink:title="validityEnd">
<text text-anchor="middle" x="681" y="-220.3" font-family="Helvetica,sans-Serif" font-size="14.00">validityEnd</text>
</a>
</g>
<!-- BaseClass&#45;&gt;http://www.w3.org/2001/XMLSchema#date -->
<g id="edge50" class="edge"><title>BaseClass&#45;&gt;http://www.w3.org/2001/XMLSchema#date</title>
<a xlink:href="./#validityStart" xlink:title="validityStart">
<path fill="none" stroke="darkslategray" d="M525.451,-180.688C591.038,-181.642 694.442,-187.748 719,-216 731.799,-230.724 722.24,-241.326 704.011,-248.909"/>
<polygon fill="darkslategray" stroke="darkslategray" points="702.629,-245.688 694.427,-252.394 705.021,-252.267 702.629,-245.688"/>
</a>
<a xlink:href="./#validityStart" xlink:title="validityStart">
<text text-anchor="middle" x="761" y="-220.3" font-family="Helvetica,sans-Serif" font-size="14.00">validityStart</text>
</a>
</g>
<!-- DataContainer -->
<g id="node4" class="node"><title>DataContainer</title>
<a xlink:href="./#DataContainer" xlink:title="DataContainer">
<ellipse fill="none" stroke="black" cx="383" cy="-18" rx="69.5877" ry="18"/>
<text text-anchor="middle" x="383" y="-14.3" font-family="Helvetica,sans-Serif" font-size="14.00">DataContainer</text>
</a>
</g>
<!-- DataContainer&#45;&gt;ApprovalLevel -->
<g id="edge22" class="edge"><title>DataContainer&#45;&gt;ApprovalLevel</title>
<a xlink:href="./#approvedAtLevel" xlink:title="approvedAtLevel">
<path fill="none" stroke="darkslategray" d="M315.846,-22.4671C234.329,-27.3697 105.839,-37.6032 91,-54 85.2546,-60.3488 83.7064,-69.1768 84.0046,-77.7057"/>
<polygon fill="darkslategray" stroke="darkslategray" points="80.5405,-78.223 85.126,-87.7741 87.4975,-77.4481 80.5405,-78.223"/>
</a>
<a xlink:href="./#approvedAtLevel" xlink:title="approvedAtLevel">
<text text-anchor="middle" x="145.5" y="-58.3" font-family="Helvetica,sans-Serif" font-size="14.00">approvedAtLevel</text>
</a>
</g>
<!-- DataContainer&#45;&gt;BaseClass -->
<g id="edge4" class="edge"><title>DataContainer&#45;&gt;BaseClass</title>
<path fill="none" stroke="red" stroke-dasharray="5,2" d="M378.43,-36.2542C373.637,-58.1576 368.723,-96.409 384,-124 393.042,-140.331 409.202,-152.534 425.092,-161.241"/>
<polygon fill="red" stroke="red" points="423.862,-164.543 434.36,-165.969 427.043,-158.307 423.862,-164.543"/>
</g>
<!-- HXLer -->
<g id="node6" class="node"><title>HXLer</title>
<a xlink:href="./#HXLer" xlink:title="HXLer">
<ellipse fill="none" stroke="black" cx="274" cy="-106" rx="37.0935" ry="18"/>
<text text-anchor="middle" x="274" y="-102.3" font-family="Helvetica,sans-Serif" font-size="14.00">HXLer</text>
</a>
</g>
<!-- DataContainer&#45;&gt;HXLer -->
<g id="edge24" class="edge"><title>DataContainer&#45;&gt;HXLer</title>
<a xlink:href="./#approvedBy" xlink:title="approvedBy">
<path fill="none" stroke="darkslategray" d="M331.705,-30.1145C317.342,-35.3428 302.739,-42.9573 292,-54 285.601,-60.5798 281.465,-69.5705 278.796,-78.1717"/>
<polygon fill="darkslategray" stroke="darkslategray" points="275.389,-77.3654 276.289,-87.922 282.169,-79.1084 275.389,-77.3654"/>
</a>
<a xlink:href="./#approvedBy" xlink:title="approvedBy">
<text text-anchor="middle" x="330.5" y="-58.3" font-family="Helvetica,sans-Serif" font-size="14.00">approvedBy</text>
</a>
</g>
<!-- DataContainer&#45;&gt;HXLer -->
<g id="edge40" class="edge"><title>DataContainer&#45;&gt;HXLer</title>
<a xlink:href="./#reportedBy" xlink:title="reportedBy">
<path fill="none" stroke="darkslategray" d="M316.796,-23.565C272.91,-28.129 220.934,-37.0223 207,-54 194.559,-69.1587 213.554,-82.4349 234.456,-91.639"/>
<polygon fill="darkslategray" stroke="darkslategray" points="233.184,-94.9002 243.765,-95.4505 235.837,-88.4222 233.184,-94.9002"/>
</a>
<a xlink:href="./#reportedBy" xlink:title="reportedBy">
<text text-anchor="middle" x="242.5" y="-58.3" font-family="Helvetica,sans-Serif" font-size="14.00">reportedBy</text>
</a>
</g>
<!-- ReportCategory -->
<g id="node10" class="node"><title>ReportCategory</title>
<a xlink:href="./#ReportCategory" xlink:title="ReportCategory">
<ellipse fill="none" stroke="black" cx="470" cy="-106" rx="76.8869" ry="18"/>
<text text-anchor="middle" x="470" y="-102.3" font-family="Helvetica,sans-Serif" font-size="14.00">ReportCategory</text>
</a>
</g>
<!-- DataContainer&#45;&gt;ReportCategory -->
<g id="edge38" class="edge"><title>DataContainer&#45;&gt;ReportCategory</title>
<a xlink:href="./#reportCategory" xlink:title="reportCategory">
<path fill="none" stroke="darkslategray" d="M399.774,-35.5817C412.809,-48.4667 431.071,-66.5188 445.705,-80.9845"/>
<polygon fill="darkslategray" stroke="darkslategray" points="443.408,-83.6348 452.98,-88.1758 448.329,-78.6565 443.408,-83.6348"/>
</a>
<a xlink:href="./#reportCategory" xlink:title="reportCategory">
<text text-anchor="middle" x="483" y="-58.3" font-family="Helvetica,sans-Serif" font-size="14.00">reportCategory</text>
</a>
</g>
<!-- Emergency -->
<g id="node20" class="node"><title>Emergency</title>
<a xlink:href="./#Emergency" xlink:title="Emergency">
<ellipse fill="none" stroke="gray" cx="623" cy="-106" rx="57.6901" ry="18"/>
<text text-anchor="middle" x="623" y="-102.3" font-family="Helvetica,sans-Serif" font-size="14.00" fill="gray">Emergency</text>
</a>
</g>
<!-- DataContainer&#45;&gt;Emergency -->
<g id="edge20" class="edge"><title>DataContainer&#45;&gt;Emergency</title>
<a xlink:href="./#aboutEmergency" xlink:title="aboutEmergency">
<path fill="none" stroke="darkslategray" d="M440.522,-28.0412C469.484,-33.6385 504.772,-42.0742 535,-54 554.819,-61.8191 575.504,-73.5967 591.836,-83.8644"/>
<polygon fill="darkslategray" stroke="darkslategray" points="590.122,-86.9233 600.429,-89.3787 593.903,-81.0321 590.122,-86.9233"/>
</a>
<a xlink:href="./#aboutEmergency" xlink:title="aboutEmergency">
<text text-anchor="middle" x="622.5" y="-58.3" font-family="Helvetica,sans-Serif" font-size="14.00">aboutEmergency</text>
</a>
</g>
<!-- http://xmlns.com/foaf/0.1/Document -->
<g id="node32" class="node"><title>http://xmlns.com/foaf/0.1/Document</title>
<a xlink:href="./#http://xmlns.com/foaf/0.1/Document" xlink:title="http://xmlns.com/foaf/0.1/Document">
<ellipse fill="none" stroke="gray" cx="855" cy="-106" rx="156.772" ry="18"/>
<text text-anchor="middle" x="855" y="-102.3" font-family="Helvetica,sans-Serif" font-size="14.00" fill="gray">http://xmlns.com/foaf/0.1/Document</text>
</a>
</g>
<!-- DataContainer&#45;&gt;http://xmlns.com/foaf/0.1/Document -->
<g id="edge36" class="edge"><title>DataContainer&#45;&gt;http://xmlns.com/foaf/0.1/Document</title>
<a xlink:href="./#relatedInfo" xlink:title="relatedInfo">
<path fill="none" stroke="darkslategray" d="M449.199,-23.5648C509.925,-28.5094 602.139,-37.9306 681,-54 720.584,-62.066 764.208,-74.8613 797.873,-85.6174"/>
<polygon fill="darkslategray" stroke="darkslategray" points="796.946,-88.996 807.538,-88.7366 799.096,-82.3344 796.946,-88.996"/>
</a>
<a xlink:href="./#relatedInfo" xlink:title="relatedInfo">
<text text-anchor="middle" x="778.5" y="-58.3" font-family="Helvetica,sans-Serif" font-size="14.00">relatedInfo</text>
</a>
</g>
<!-- HXLer&#45;&gt;BaseClass -->
<g id="edge8" class="edge"><title>HXLer&#45;&gt;BaseClass</title>
<path fill="none" stroke="red" stroke-dasharray="5,2" d="M298.175,-119.863C313.127,-127.503 332.865,-137.029 351,-144 372.517,-152.271 396.847,-159.745 417.874,-165.642"/>
<polygon fill="red" stroke="red" points="417.022,-169.038 427.592,-168.322 418.883,-162.29 417.022,-169.038"/>
</g>
<!-- http://xmlns.com/foaf/0.1/Agent -->
<g id="node7" class="node"><title>http://xmlns.com/foaf/0.1/Agent</title>
<a xlink:href="./#HXLer" xlink:title="http://xmlns.com/foaf/0.1/Agent">
<ellipse fill="none" stroke="gray" cx="258" cy="-180" rx="138.375" ry="18"/>
<text text-anchor="middle" x="258" y="-176.3" font-family="Helvetica,sans-Serif" font-size="14.00" fill="gray">http://xmlns.com/foaf/0.1/Agent</text>
</a>
</g>
<!-- HXLer&#45;&gt;http://xmlns.com/foaf/0.1/Agent -->
<g id="edge6" class="edge"><title>HXLer&#45;&gt;http://xmlns.com/foaf/0.1/Agent</title>
<path fill="none" stroke="red" stroke-dasharray="5,2" d="M270.208,-124.063C268.382,-132.281 266.147,-142.34 264.09,-151.594"/>
<polygon fill="red" stroke="red" points="260.628,-151.038 261.876,-161.559 267.462,-152.557 260.628,-151.038"/>
</g>
<!-- ReportCategory&#45;&gt;BaseClass -->
<g id="edge10" class="edge"><title>ReportCategory&#45;&gt;BaseClass</title>
<path fill="none" stroke="red" stroke-dasharray="5,2" d="M470,-124.063C470,-132.193 470,-142.124 470,-151.295"/>
<polygon fill="red" stroke="red" points="466.5,-151.559 470,-161.559 473.5,-151.559 466.5,-151.559"/>
</g>
<!-- ReportCategorySet -->
<g id="node12" class="node"><title>ReportCategorySet</title>
<a xlink:href="./#ReportCategorySet" xlink:title="ReportCategorySet">
<ellipse fill="none" stroke="black" cx="1121" cy="-106" rx="90.9839" ry="18"/>
<text text-anchor="middle" x="1121" y="-102.3" font-family="Helvetica,sans-Serif" font-size="14.00">ReportCategorySet</text>
</a>
</g>
<!-- ReportCategorySet&#45;&gt;BaseClass -->
<g id="edge12" class="edge"><title>ReportCategorySet&#45;&gt;BaseClass</title>
<path fill="none" stroke="red" stroke-dasharray="5,2" d="M1056.17,-118.573C1044.17,-120.528 1031.72,-122.429 1020,-124 844.368,-147.536 635.943,-165.734 533.415,-174.05"/>
<polygon fill="red" stroke="red" points="532.918,-170.579 523.232,-174.872 533.481,-177.556 532.918,-170.579"/>
</g>
<!-- http://www.w3.org/1999/02/22&#45;rdf&#45;syntax&#45;ns#Bag -->
<g id="node14" class="node"><title>http://www.w3.org/1999/02/22&#45;rdf&#45;syntax&#45;ns#Bag</title>
<a xlink:href="./#ReportCategorySet" xlink:title="http://www.w3.org/1999/02/22&#45;rdf&#45;syntax&#45;ns#Bag">
<ellipse fill="none" stroke="gray" cx="1095" cy="-180" rx="209.863" ry="18"/>
<text text-anchor="middle" x="1095" y="-176.3" font-family="Helvetica,sans-Serif" font-size="14.00" fill="gray">http://www.w3.org/1999/02/22&#45;rdf&#45;syntax&#45;ns#Bag</text>
</a>
</g>
<!-- ReportCategorySet&#45;&gt;http://www.w3.org/1999/02/22&#45;rdf&#45;syntax&#45;ns#Bag -->
<g id="edge14" class="edge"><title>ReportCategorySet&#45;&gt;http://www.w3.org/1999/02/22&#45;rdf&#45;syntax&#45;ns#Bag</title>
<path fill="none" stroke="red" stroke-dasharray="5,2" d="M1114.84,-124.063C1111.84,-132.37 1108.16,-142.556 1104.79,-151.892"/>
<polygon fill="red" stroke="red" points="1101.4,-150.965 1101.3,-161.559 1107.99,-153.343 1101.4,-150.965"/>
</g>
<!-- ReportingPeriod -->
<g id="node16" class="node"><title>ReportingPeriod</title>
<a xlink:href="./#ReportingPeriod" xlink:title="ReportingPeriod">
<ellipse fill="none" stroke="black" cx="1334" cy="-106" rx="78.7863" ry="18"/>
<text text-anchor="middle" x="1334" y="-102.3" font-family="Helvetica,sans-Serif" font-size="14.00">ReportingPeriod</text>
</a>
</g>
<!-- ReportingPeriod&#45;&gt;BaseClass -->
<g id="edge16" class="edge"><title>ReportingPeriod&#45;&gt;BaseClass</title>
<path fill="none" stroke="red" stroke-dasharray="5,2" d="M1271.99,-117.109C1255.15,-119.617 1236.9,-122.122 1220,-124 967.323,-152.065 665.102,-169.257 534.904,-175.879"/>
<polygon fill="red" stroke="red" points="534.52,-172.394 524.709,-176.394 534.873,-179.385 534.52,-172.394"/>
</g>
<!-- http://purl.org/dc/terms/PeriodOfTime -->
<g id="node19" class="node"><title>http://purl.org/dc/terms/PeriodOfTime</title>
<a xlink:href="./#http://purl.org/dc/terms/PeriodOfTime" xlink:title="http://purl.org/dc/terms/PeriodOfTime">
<ellipse fill="none" stroke="black" cx="1487" cy="-180" rx="163.571" ry="18"/>
<text text-anchor="middle" x="1487" y="-176.3" font-family="Helvetica,sans-Serif" font-size="14.00">http://purl.org/dc/terms/PeriodOfTime</text>
</a>
</g>
<!-- ReportingPeriod&#45;&gt;http://purl.org/dc/terms/PeriodOfTime -->
<g id="edge18" class="edge"><title>ReportingPeriod&#45;&gt;http://purl.org/dc/terms/PeriodOfTime</title>
<path fill="none" stroke="red" stroke-dasharray="5,2" d="M1366.82,-122.446C1388.84,-132.806 1418.11,-146.581 1442.25,-157.942"/>
<polygon fill="red" stroke="red" points="1441.03,-161.234 1451.57,-162.325 1444.01,-154.9 1441.03,-161.234"/>
</g>
<!-- http://www.w3.org/2001/XMLSchema#duration -->
<g id="node29" class="node"><title>http://www.w3.org/2001/XMLSchema#duration</title>
<a xlink:href="./#http://www.w3.org/2001/XMLSchema#duration" xlink:title="http://www.w3.org/2001/XMLSchema#duration">
<ellipse fill="none" stroke="gray" cx="1487" cy="-268" rx="200.365" ry="18"/>
<text text-anchor="middle" x="1487" y="-264.3" font-family="Helvetica,sans-Serif" font-size="14.00" fill="gray">http://www.w3.org/2001/XMLSchema#duration</text>
</a>
</g>
<!-- http://purl.org/dc/terms/PeriodOfTime&#45;&gt;http://www.w3.org/2001/XMLSchema#duration -->
<g id="edge32" class="edge"><title>http://purl.org/dc/terms/PeriodOfTime&#45;&gt;http://www.w3.org/2001/XMLSchema#duration</title>
<a xlink:href="./#duration" xlink:title="duration">
<path fill="none" stroke="darkslategray" d="M1487,-198.403C1487,-210.254 1487,-226.183 1487,-239.708"/>
<polygon fill="darkslategray" stroke="darkslategray" points="1483.5,-239.916 1487,-249.916 1490.5,-239.916 1483.5,-239.916"/>
</a>
<a xlink:href="./#duration" xlink:title="duration">
<text text-anchor="middle" x="1512.5" y="-220.3" font-family="Helvetica,sans-Serif" font-size="14.00">duration</text>
</a>
</g>
</g>
</svg>
