<?xml version="1.0" encoding="UTF-8" standalone="no"?>
<!DOCTYPE svg PUBLIC "-//W3C//DTD SVG 1.1//EN"
 "http://www.w3.org/Graphics/SVG/1.1/DTD/svg11.dtd">
<!-- Generated by graphviz version 2.28.0 (20120807.1341)
 -->
<!-- Title: _anonymous_0 Pages: 1 -->
<svg width="1218pt" height="206pt"
 viewBox="0.00 0.00 1218.00 206.00" xmlns="http://www.w3.org/2000/svg" xmlns:xlink="http://www.w3.org/1999/xlink">
<g id="graph1" class="graph" transform="scale(1 1) rotate(0) translate(4 202)">
<title>_anonymous_0</title>
<polygon fill="white" stroke="white" points="-4,5 -4,-202 1215,-202 1215,5 -4,5"/>
<!-- Organisation -->
<g id="node1" class="node"><title>Organisation</title>
<a xlink:href="./#Organisation" xlink:title="Organisation">
<ellipse fill="none" stroke="black" cx="449" cy="-18" rx="63.0888" ry="18"/>
<text text-anchor="middle" x="449" y="-14.3" font-family="Helvetica,sans-Serif" font-size="14.00">Organisation</text>
</a>
</g>
<!-- http://xmlns.com/foaf/0.1/Organisation -->
<g id="node3" class="node"><title>http://xmlns.com/foaf/0.1/Organisation</title>
<a xlink:href="./#http://xmlns.com/foaf/0.1/Organisation" xlink:title="http://xmlns.com/foaf/0.1/Organisation">
<ellipse fill="none" stroke="black" cx="915" cy="-106" rx="165.971" ry="18"/>
<text text-anchor="middle" x="915" y="-102.3" font-family="Helvetica,sans-Serif" font-size="14.00">http://xmlns.com/foaf/0.1/Organisation</text>
</a>
</g>
<!-- Organisation&#45;&gt;http://xmlns.com/foaf/0.1/Organisation -->
<g id="edge2" class="edge"><title>Organisation&#45;&gt;http://xmlns.com/foaf/0.1/Organisation</title>
<path fill="none" stroke="red" stroke-dasharray="5,2" d="M508.068,-24.4983C562.999,-30.121 646.962,-40.0161 719,-54 763.518,-62.6417 812.928,-75.5208 851.001,-86.1742"/>
<polygon fill="red" stroke="red" points="850.35,-89.6271 860.925,-88.9723 852.25,-82.8898 850.35,-89.6271"/>
</g>
<!-- BaseClass -->
<g id="node4" class="node"><title>BaseClass</title>
<a xlink:href="./#Response" xlink:title="BaseClass">
<ellipse fill="none" stroke="gray" cx="1155" cy="-106" rx="55.7903" ry="18"/>
<text text-anchor="middle" x="1155" y="-102.3" font-family="Helvetica,sans-Serif" font-size="14.00" fill="gray">BaseClass</text>
</a>
</g>
<!-- Organisation&#45;&gt;BaseClass -->
<g id="edge4" class="edge"><title>Organisation&#45;&gt;BaseClass</title>
<path fill="none" stroke="red" stroke-dasharray="5,2" d="M510.31,-22.6468C624.769,-30.1094 878.437,-49.739 1089,-88 1094.04,-88.9152 1099.26,-90.0067 1104.45,-91.1886"/>
<polygon fill="red" stroke="red" points="1103.82,-94.6369 1114.36,-93.5506 1105.45,-87.8276 1103.82,-94.6369"/>
</g>
<!-- http://www.w3.org/2000/01/rdf&#45;schema#Literal -->
<g id="node10" class="node"><title>http://www.w3.org/2000/01/rdf&#45;schema#Literal</title>
<a xlink:href="./#http://www.w3.org/2000/01/rdf-schema#Literal" xlink:title="http://www.w3.org/2000/01/rdf&#45;schema#Literal">
<ellipse fill="none" stroke="gray" cx="200" cy="-106" rx="200.365" ry="18"/>
<text text-anchor="middle" x="200" y="-102.3" font-family="Helvetica,sans-Serif" font-size="14.00" fill="gray">http://www.w3.org/2000/01/rdf&#45;schema#Literal</text>
</a>
</g>
<!-- Organisation&#45;&gt;http://www.w3.org/2000/01/rdf&#45;schema#Literal -->
<g id="edge10" class="edge"><title>Organisation&#45;&gt;http://www.w3.org/2000/01/rdf&#45;schema#Literal</title>
<a xlink:href="./#abbreviation" xlink:title="abbreviation">
<path fill="none" stroke="darkslategray" d="M386.896,-21.4807C299.424,-25.6224 148.67,-35.3885 132,-54 122.216,-64.9237 130.275,-75.0516 143.798,-83.3555"/>
<polygon fill="darkslategray" stroke="darkslategray" points="142.36,-86.558 152.813,-88.2809 145.716,-80.415 142.36,-86.558"/>
</a>
<a xlink:href="./#abbreviation" xlink:title="abbreviation">
<text text-anchor="middle" x="171.5" y="-58.3" font-family="Helvetica,sans-Serif" font-size="14.00">abbreviation</text>
</a>
</g>
<!-- Organisation&#45;&gt;http://www.w3.org/2000/01/rdf&#45;schema#Literal -->
<g id="edge12" class="edge"><title>Organisation&#45;&gt;http://www.w3.org/2000/01/rdf&#45;schema#Literal</title>
<a xlink:href="./#orgDisplayName" xlink:title="orgDisplayName">
<path fill="none" stroke="darkslategray" d="M388.866,-23.42C334.409,-28.375 259,-37.9023 234,-54 224.74,-59.9627 217.41,-69.4403 211.963,-78.616"/>
<polygon fill="darkslategray" stroke="darkslategray" points="208.811,-77.0871 207.142,-87.5497 214.971,-80.4114 208.811,-77.0871"/>
</a>
<a xlink:href="./#orgDisplayName" xlink:title="orgDisplayName">
<text text-anchor="middle" x="288.5" y="-58.3" font-family="Helvetica,sans-Serif" font-size="14.00">orgDisplayName</text>
</a>
</g>
<!-- Organisation&#45;&gt;http://www.w3.org/2000/01/rdf&#45;schema#Literal -->
<g id="edge14" class="edge"><title>Organisation&#45;&gt;http://www.w3.org/2000/01/rdf&#45;schema#Literal</title>
<a xlink:href="./#orgName" xlink:title="orgName">
<path fill="none" stroke="darkslategray" d="M411.861,-32.7304C397.246,-38.6276 380.52,-46.0028 366,-54 355.093,-60.0075 354.35,-64.8779 343,-70 327.81,-76.8551 311.081,-82.4887 294.582,-87.0784"/>
<polygon fill="darkslategray" stroke="darkslategray" points="293.667,-83.7001 284.908,-89.6614 295.473,-90.4632 293.667,-83.7001"/>
</a>
<a xlink:href="./#orgName" xlink:title="orgName">
<text text-anchor="middle" x="396.5" y="-58.3" font-family="Helvetica,sans-Serif" font-size="14.00">orgName</text>
</a>
</g>
<!-- Organisation&#45;&gt;http://www.w3.org/2000/01/rdf&#45;schema#Literal -->
<g id="edge16" class="edge"><title>Organisation&#45;&gt;http://www.w3.org/2000/01/rdf&#45;schema#Literal</title>
<a xlink:href="./#orgNativeName" xlink:title="orgNativeName">
<path fill="none" stroke="darkslategray" d="M445.996,-36.3291C443.097,-47.6754 437.527,-61.8595 427,-70 414.334,-79.795 387.275,-86.8889 356.101,-92.0125"/>
<polygon fill="darkslategray" stroke="darkslategray" points="355.19,-88.6119 345.847,-93.6077 356.267,-95.5287 355.19,-88.6119"/>
</a>
<a xlink:href="./#orgNativeName" xlink:title="orgNativeName">
<text text-anchor="middle" x="491.5" y="-58.3" font-family="Helvetica,sans-Serif" font-size="14.00">orgNativeName</text>
</a>
</g>
<!-- http://xmlns.com/foaf/0.1/Document -->
<g id="node15" class="node"><title>http://xmlns.com/foaf/0.1/Document</title>
<a xlink:href="./#http://xmlns.com/foaf/0.1/Document" xlink:title="http://xmlns.com/foaf/0.1/Document">
<ellipse fill="none" stroke="gray" cx="575" cy="-106" rx="156.772" ry="18"/>
<text text-anchor="middle" x="575" y="-102.3" font-family="Helvetica,sans-Serif" font-size="14.00" fill="gray">http://xmlns.com/foaf/0.1/Document</text>
</a>
</g>
<!-- Organisation&#45;&gt;http://xmlns.com/foaf/0.1/Document -->
<g id="edge18" class="edge"><title>Organisation&#45;&gt;http://xmlns.com/foaf/0.1/Document</title>
<a xlink:href="./#organisationHomepage" xlink:title="organisationHomepage">
<path fill="none" stroke="darkslategray" d="M502.177,-27.7765C520.049,-32.9339 538.984,-41.097 553,-54 560.01,-60.4535 564.886,-69.5234 568.231,-78.2283"/>
<polygon fill="darkslategray" stroke="darkslategray" points="564.917,-79.3546 571.39,-87.7425 571.561,-77.1491 564.917,-79.3546"/>
</a>
<a xlink:href="./#organisationHomepage" xlink:title="organisationHomepage">
<text text-anchor="middle" x="640" y="-58.3" font-family="Helvetica,sans-Serif" font-size="14.00">organisationHomepage</text>
</a>
</g>
<!-- http://xmlns.com/foaf/0.1/Agent -->
<g id="node8" class="node"><title>http://xmlns.com/foaf/0.1/Agent</title>
<a xlink:href="./#http://xmlns.com/foaf/0.1/Organisation" xlink:title="http://xmlns.com/foaf/0.1/Agent">
<ellipse fill="none" stroke="gray" cx="915" cy="-180" rx="139.175" ry="18"/>
<text text-anchor="middle" x="915" y="-176.3" font-family="Helvetica,sans-Serif" font-size="14.00" fill="gray">http://xmlns.com/foaf/0.1/Agent</text>
</a>
</g>
<!-- http://xmlns.com/foaf/0.1/Organisation&#45;&gt;http://xmlns.com/foaf/0.1/Agent -->
<g id="edge8" class="edge"><title>http://xmlns.com/foaf/0.1/Organisation&#45;&gt;http://xmlns.com/foaf/0.1/Agent</title>
<path fill="none" stroke="red" stroke-dasharray="5,2" d="M915,-124.063C915,-132.193 915,-142.124 915,-151.295"/>
<polygon fill="red" stroke="red" points="911.5,-151.559 915,-161.559 918.5,-151.559 911.5,-151.559"/>
</g>
<!-- Response -->
<g id="node6" class="node"><title>Response</title>
<a xlink:href="./#Response" xlink:title="Response">
<ellipse fill="none" stroke="black" cx="1155" cy="-18" rx="53.8905" ry="18"/>
<text text-anchor="middle" x="1155" y="-14.3" font-family="Helvetica,sans-Serif" font-size="14.00">Response</text>
</a>
</g>
<!-- Response&#45;&gt;BaseClass -->
<g id="edge6" class="edge"><title>Response&#45;&gt;BaseClass</title>
<path fill="none" stroke="red" stroke-dasharray="5,2" d="M1155,-36.4034C1155,-48.2541 1155,-64.1831 1155,-77.7083"/>
<polygon fill="red" stroke="red" points="1151.5,-77.916 1155,-87.916 1158.5,-77.916 1151.5,-77.916"/>
</g>
</g>
</svg>
