<?xml version="1.0" encoding="UTF-8" standalone="no"?>
<!DOCTYPE svg PUBLIC "-//W3C//DTD SVG 1.1//EN"
 "http://www.w3.org/Graphics/SVG/1.1/DTD/svg11.dtd">
<!-- Generated by graphviz version 2.28.0 (20110507.0327)
 -->
<!-- Title: _anonymous_0 Pages: 1 -->
<svg width="1215pt" height="206pt"
 viewBox="0.00 0.00 1215.00 206.00" xmlns="http://www.w3.org/2000/svg" xmlns:xlink="http://www.w3.org/1999/xlink">
<g id="graph1" class="graph" transform="scale(1 1) rotate(0) translate(4 202)">
<title>_anonymous_0</title>
<polygon fill="white" stroke="white" points="-4,5 -4,-202 1212,-202 1212,5 -4,5"/>
<!-- Organisation -->
<g id="node1" class="node"><title>Organisation</title>
<a xlink:href="./#Organisation" xlink:title="Organisation">
<ellipse fill="none" stroke="black" cx="451" cy="-18" rx="62.2891" ry="18"/>
<text text-anchor="middle" x="451" y="-14.3" font-family="Helvetica,sans-Serif" font-size="14.00">Organisation</text>
</a>
</g>
<!-- http://xmlns.com/foaf/0.1/Organisation -->
<g id="node3" class="node"><title>http://xmlns.com/foaf/0.1/Organisation</title>
<a xlink:href="./#http://xmlns.com/foaf/0.1/Organisation" xlink:title="http://xmlns.com/foaf/0.1/Organisation">
<ellipse fill="none" stroke="black" cx="912" cy="-106" rx="165.971" ry="18"/>
<text text-anchor="middle" x="912" y="-102.3" font-family="Helvetica,sans-Serif" font-size="14.00">http://xmlns.com/foaf/0.1/Organisation</text>
</a>
</g>
<!-- Organisation&#45;&gt;http://xmlns.com/foaf/0.1/Organisation -->
<g id="edge2" class="edge"><title>Organisation&#45;&gt;http://xmlns.com/foaf/0.1/Organisation</title>
<path fill="none" stroke="red" stroke-dasharray="5,2" d="M508.784,-24.6765C562.287,-30.408 643.918,-40.362 714,-54 758.779,-62.7141 808.498,-75.5319 846.913,-86.1371"/>
<polygon fill="red" stroke="red" points="846.356,-89.6152 856.928,-88.9227 848.232,-82.8711 846.356,-89.6152"/>
</g>
<!-- BaseClass -->
<g id="node4" class="node"><title>BaseClass</title>
<a xlink:href="./#Response" xlink:title="BaseClass">
<ellipse fill="none" stroke="gray" cx="1152" cy="-106" rx="55.7903" ry="18"/>
<text text-anchor="middle" x="1152" y="-102.3" font-family="Helvetica,sans-Serif" font-size="14.00" fill="gray">BaseClass</text>
</a>
</g>
<!-- Organisation&#45;&gt;BaseClass -->
<g id="edge4" class="edge"><title>Organisation&#45;&gt;BaseClass</title>
<path fill="none" stroke="red" stroke-dasharray="5,2" d="M511.386,-22.657C624.737,-30.1627 876.806,-49.8972 1086,-88 1091.04,-88.9173 1096.26,-90.0102 1101.45,-91.193"/>
<polygon fill="red" stroke="red" points="1100.82,-94.6412 1111.36,-93.5561 1102.45,-87.8321 1100.82,-94.6412"/>
</g>
<!-- http://www.w3.org/2000/01/rdf&#45;schema#Literal -->
<g id="node10" class="node"><title>http://www.w3.org/2000/01/rdf&#45;schema#Literal</title>
<a xlink:href="./#http://www.w3.org/2000/01/rdf-schema#Literal" xlink:title="http://www.w3.org/2000/01/rdf&#45;schema#Literal">
<ellipse fill="none" stroke="gray" cx="198" cy="-106" rx="198.765" ry="18"/>
<text text-anchor="middle" x="198" y="-102.3" font-family="Helvetica,sans-Serif" font-size="14.00" fill="gray">http://www.w3.org/2000/01/rdf&#45;schema#Literal</text>
</a>
</g>
<!-- Organisation&#45;&gt;http://www.w3.org/2000/01/rdf&#45;schema#Literal -->
<g id="edge10" class="edge"><title>Organisation&#45;&gt;http://www.w3.org/2000/01/rdf&#45;schema#Literal</title>
<a xlink:href="./#abbreviation" xlink:title="abbreviation">
<path fill="none" stroke="darkslategray" d="M389.907,-21.5992C304.309,-25.8775 157.261,-35.7997 141,-54 131.928,-64.1536 139.269,-74.3554 151.329,-82.9379"/>
<polygon fill="darkslategray" stroke="darkslategray" points="149.493,-85.9184 159.811,-88.3272 153.247,-80.0101 149.493,-85.9184"/>
</a>
<a xlink:href="./#abbreviation" xlink:title="abbreviation">
<text text-anchor="middle" x="179.5" y="-58.3" font-family="Helvetica,sans-Serif" font-size="14.00">abbreviation</text>
</a>
</g>
<!-- Organisation&#45;&gt;http://www.w3.org/2000/01/rdf&#45;schema#Literal -->
<g id="edge12" class="edge"><title>Organisation&#45;&gt;http://www.w3.org/2000/01/rdf&#45;schema#Literal</title>
<a xlink:href="./#orgDisplayName" xlink:title="orgDisplayName">
<path fill="none" stroke="darkslategray" d="M392.385,-24.2121C339.484,-29.7299 266.212,-39.6406 241,-54 230.213,-60.1436 220.921,-70.0834 213.763,-79.5634"/>
<polygon fill="darkslategray" stroke="darkslategray" points="210.704,-77.8272 207.807,-88.0181 216.427,-81.8583 210.704,-77.8272"/>
</a>
<a xlink:href="./#orgDisplayName" xlink:title="orgDisplayName">
<text text-anchor="middle" x="294" y="-58.3" font-family="Helvetica,sans-Serif" font-size="14.00">orgDisplayName</text>
</a>
</g>
<!-- Organisation&#45;&gt;http://www.w3.org/2000/01/rdf&#45;schema#Literal -->
<g id="edge14" class="edge"><title>Organisation&#45;&gt;http://www.w3.org/2000/01/rdf&#45;schema#Literal</title>
<a xlink:href="./#orgName" xlink:title="orgName">
<path fill="none" stroke="darkslategray" d="M414.776,-32.8342C400.515,-38.7457 384.189,-46.1035 370,-54 359.119,-60.0554 358.374,-64.9308 347,-70 331.378,-76.9627 314.192,-82.6367 297.216,-87.2299"/>
<polygon fill="darkslategray" stroke="darkslategray" points="296.06,-83.9137 287.258,-89.811 297.817,-90.6898 296.06,-83.9137"/>
</a>
<a xlink:href="./#orgName" xlink:title="orgName">
<text text-anchor="middle" x="399.5" y="-58.3" font-family="Helvetica,sans-Serif" font-size="14.00">orgName</text>
</a>
</g>
<!-- Organisation&#45;&gt;http://www.w3.org/2000/01/rdf&#45;schema#Literal -->
<g id="edge16" class="edge"><title>Organisation&#45;&gt;http://www.w3.org/2000/01/rdf&#45;schema#Literal</title>
<a xlink:href="./#orgNativeName" xlink:title="orgNativeName">
<path fill="none" stroke="darkslategray" d="M448.003,-36.3379C445.107,-47.6881 439.537,-61.8732 429,-70 415.938,-80.0741 387.858,-87.2798 355.621,-92.4229"/>
<polygon fill="darkslategray" stroke="darkslategray" points="354.859,-88.9981 345.495,-93.9537 355.906,-95.9195 354.859,-88.9981"/>
</a>
<a xlink:href="./#orgNativeName" xlink:title="orgNativeName">
<text text-anchor="middle" x="491" y="-58.3" font-family="Helvetica,sans-Serif" font-size="14.00">orgNativeName</text>
</a>
</g>
<!-- http://xmlns.com/foaf/0.1/Document -->
<g id="node15" class="node"><title>http://xmlns.com/foaf/0.1/Document</title>
<a xlink:href="./#http://xmlns.com/foaf/0.1/Document" xlink:title="http://xmlns.com/foaf/0.1/Document">
<ellipse fill="none" stroke="gray" cx="572" cy="-106" rx="156.772" ry="18"/>
<text text-anchor="middle" x="572" y="-102.3" font-family="Helvetica,sans-Serif" font-size="14.00" fill="gray">http://xmlns.com/foaf/0.1/Document</text>
</a>
</g>
<!-- Organisation&#45;&gt;http://xmlns.com/foaf/0.1/Document -->
<g id="edge18" class="edge"><title>Organisation&#45;&gt;http://xmlns.com/foaf/0.1/Document</title>
<a xlink:href="./#organisationHomepage" xlink:title="organisationHomepage">
<path fill="none" stroke="darkslategray" d="M501.902,-28.3609C518.843,-33.5684 536.749,-41.6136 550,-54 556.961,-60.5066 561.826,-69.5885 565.176,-78.2883"/>
<polygon fill="darkslategray" stroke="darkslategray" points="561.861,-79.4119 568.345,-87.7907 568.501,-77.197 561.861,-79.4119"/>
</a>
<a xlink:href="./#organisationHomepage" xlink:title="organisationHomepage">
<text text-anchor="middle" x="636" y="-58.3" font-family="Helvetica,sans-Serif" font-size="14.00">organisationHomepage</text>
</a>
</g>
<!-- http://xmlns.com/foaf/0.1/Agent -->
<g id="node8" class="node"><title>http://xmlns.com/foaf/0.1/Agent</title>
<a xlink:href="./#http://xmlns.com/foaf/0.1/Organisation" xlink:title="http://xmlns.com/foaf/0.1/Agent">
<ellipse fill="none" stroke="gray" cx="912" cy="-180" rx="138.375" ry="18"/>
<text text-anchor="middle" x="912" y="-176.3" font-family="Helvetica,sans-Serif" font-size="14.00" fill="gray">http://xmlns.com/foaf/0.1/Agent</text>
</a>
</g>
<!-- http://xmlns.com/foaf/0.1/Organisation&#45;&gt;http://xmlns.com/foaf/0.1/Agent -->
<g id="edge8" class="edge"><title>http://xmlns.com/foaf/0.1/Organisation&#45;&gt;http://xmlns.com/foaf/0.1/Agent</title>
<path fill="none" stroke="red" stroke-dasharray="5,2" d="M912,-124.063C912,-132.193 912,-142.124 912,-151.295"/>
<polygon fill="red" stroke="red" points="908.5,-151.559 912,-161.559 915.5,-151.559 908.5,-151.559"/>
</g>
<!-- Response -->
<g id="node6" class="node"><title>Response</title>
<a xlink:href="./#Response" xlink:title="Response">
<ellipse fill="none" stroke="black" cx="1152" cy="-18" rx="53.8905" ry="18"/>
<text text-anchor="middle" x="1152" y="-14.3" font-family="Helvetica,sans-Serif" font-size="14.00">Response</text>
</a>
</g>
<!-- Response&#45;&gt;BaseClass -->
<g id="edge6" class="edge"><title>Response&#45;&gt;BaseClass</title>
<path fill="none" stroke="red" stroke-dasharray="5,2" d="M1152,-36.4034C1152,-48.2541 1152,-64.1831 1152,-77.7083"/>
<polygon fill="red" stroke="red" points="1148.5,-77.916 1152,-87.916 1155.5,-77.916 1148.5,-77.916"/>
</g>
</g>
</svg>
