<?xml version="1.0" encoding="UTF-8" standalone="no"?>
<!DOCTYPE svg PUBLIC "-//W3C//DTD SVG 1.1//EN"
 "http://www.w3.org/Graphics/SVG/1.1/DTD/svg11.dtd">
<!-- Generated by graphviz version 2.28.0 (20121022.1408)
 -->
<!-- Title: _anonymous_0 Pages: 1 -->
<svg width="1316pt" height="206pt"
 viewBox="0.00 0.00 1316.00 206.00" xmlns="http://www.w3.org/2000/svg" xmlns:xlink="http://www.w3.org/1999/xlink">
<g id="graph1" class="graph" transform="scale(1 1) rotate(0) translate(4 202)">
<title>_anonymous_0</title>
<polygon fill="white" stroke="white" points="-4,5 -4,-202 1313,-202 1313,5 -4,5"/>
<!-- Organisation -->
<g id="node1" class="node"><title>Organisation</title>
<a xlink:href="./#Organisation" xlink:title="Organisation">
<ellipse fill="none" stroke="black" cx="463" cy="-18" rx="63.0888" ry="18"/>
<text text-anchor="middle" x="463" y="-14.3" font-family="Helvetica,sans-Serif" font-size="14.00">Organisation</text>
</a>
</g>
<!-- http://xmlns.com/foaf/0.1/Organisation -->
<g id="node3" class="node"><title>http://xmlns.com/foaf/0.1/Organisation</title>
<a xlink:href="./#http://xmlns.com/foaf/0.1/Organisation" xlink:title="http://xmlns.com/foaf/0.1/Organisation">
<ellipse fill="none" stroke="black" cx="1013" cy="-106" rx="165.971" ry="18"/>
<text text-anchor="middle" x="1013" y="-102.3" font-family="Helvetica,sans-Serif" font-size="14.00">http://xmlns.com/foaf/0.1/Organisation</text>
</a>
</g>
<!-- Organisation&#45;&gt;http://xmlns.com/foaf/0.1/Organisation -->
<g id="edge2" class="edge"><title>Organisation&#45;&gt;http://xmlns.com/foaf/0.1/Organisation</title>
<path fill="none" stroke="red" stroke-dasharray="5,2" d="M523.96,-22.8178C592.082,-27.6576 705.49,-37.4316 802,-54 850.829,-62.3828 905.15,-75.6049 946.446,-86.4857"/>
<polygon fill="red" stroke="red" points="945.554,-89.87 956.117,-89.0537 947.35,-83.1045 945.554,-89.87"/>
</g>
<!-- BaseClass -->
<g id="node4" class="node"><title>BaseClass</title>
<a xlink:href="./#Response" xlink:title="BaseClass">
<ellipse fill="none" stroke="gray" cx="1253" cy="-106" rx="55.7903" ry="18"/>
<text text-anchor="middle" x="1253" y="-102.3" font-family="Helvetica,sans-Serif" font-size="14.00" fill="gray">BaseClass</text>
</a>
</g>
<!-- Organisation&#45;&gt;BaseClass -->
<g id="edge4" class="edge"><title>Organisation&#45;&gt;BaseClass</title>
<path fill="none" stroke="red" stroke-dasharray="5,2" d="M524.964,-21.4825C650.667,-27.2693 944.318,-44.6104 1187,-88 1192.11,-88.9137 1197.41,-90.0136 1202.68,-91.2089"/>
<polygon fill="red" stroke="red" points="1202.18,-94.6891 1212.72,-93.6016 1203.81,-87.8796 1202.18,-94.6891"/>
</g>
<!-- Source -->
<g id="node6" class="node"><title>Source</title>
<a xlink:href="./#Organisation" xlink:title="Source">
<ellipse fill="none" stroke="gray" cx="40" cy="-106" rx="40.0939" ry="18"/>
<text text-anchor="middle" x="40" y="-102.3" font-family="Helvetica,sans-Serif" font-size="14.00" fill="gray">Source</text>
</a>
</g>
<!-- Organisation&#45;&gt;Source -->
<g id="edge6" class="edge"><title>Organisation&#45;&gt;Source</title>
<path fill="none" stroke="red" stroke-dasharray="5,2" d="M401.065,-21.7313C340.98,-25.4628 247.616,-34.1361 169,-54 136.495,-62.213 101.194,-76.5755 75.7509,-87.9704"/>
<polygon fill="red" stroke="red" points="74.1627,-84.8477 66.5086,-92.1733 77.0604,-91.2198 74.1627,-84.8477"/>
</g>
<!-- http://www.w3.org/2000/01/rdf&#45;schema#Literal -->
<g id="node12" class="node"><title>http://www.w3.org/2000/01/rdf&#45;schema#Literal</title>
<a xlink:href="./#http://www.w3.org/2000/01/rdf-schema#Literal" xlink:title="http://www.w3.org/2000/01/rdf&#45;schema#Literal">
<ellipse fill="none" stroke="gray" cx="298" cy="-106" rx="200.365" ry="18"/>
<text text-anchor="middle" x="298" y="-102.3" font-family="Helvetica,sans-Serif" font-size="14.00" fill="gray">http://www.w3.org/2000/01/rdf&#45;schema#Literal</text>
</a>
</g>
<!-- Organisation&#45;&gt;http://www.w3.org/2000/01/rdf&#45;schema#Literal -->
<g id="edge12" class="edge"><title>Organisation&#45;&gt;http://www.w3.org/2000/01/rdf&#45;schema#Literal</title>
<a xlink:href="./#abbreviation" xlink:title="abbreviation">
<path fill="none" stroke="darkslategray" d="M401.495,-22.284C322.158,-27.16 192.555,-37.5486 178,-54 165.11,-68.5699 174.397,-79.105 192.424,-86.6723"/>
<polygon fill="darkslategray" stroke="darkslategray" points="191.323,-89.9965 201.917,-90.1534 193.733,-83.4244 191.323,-89.9965"/>
</a>
<a xlink:href="./#abbreviation" xlink:title="abbreviation">
<text text-anchor="middle" x="217.5" y="-58.3" font-family="Helvetica,sans-Serif" font-size="14.00">abbreviation</text>
</a>
</g>
<!-- Organisation&#45;&gt;http://www.w3.org/2000/01/rdf&#45;schema#Literal -->
<g id="edge14" class="edge"><title>Organisation&#45;&gt;http://www.w3.org/2000/01/rdf&#45;schema#Literal</title>
<a xlink:href="./#ftsId" xlink:title="ftsId">
<path fill="none" stroke="darkslategray" d="M401.864,-22.4987C354.83,-26.6186 295.356,-35.4283 280,-54 274.112,-61.1208 275.41,-70.3031 279.24,-78.9097"/>
<polygon fill="darkslategray" stroke="darkslategray" points="276.292,-80.813 284.17,-87.8982 282.43,-77.4471 276.292,-80.813"/>
</a>
<a xlink:href="./#ftsId" xlink:title="ftsId">
<text text-anchor="middle" x="294.5" y="-58.3" font-family="Helvetica,sans-Serif" font-size="14.00">ftsId</text>
</a>
</g>
<!-- Organisation&#45;&gt;http://www.w3.org/2000/01/rdf&#45;schema#Literal -->
<g id="edge16" class="edge"><title>Organisation&#45;&gt;http://www.w3.org/2000/01/rdf&#45;schema#Literal</title>
<a xlink:href="./#orgDisplayName" xlink:title="orgDisplayName">
<path fill="none" stroke="darkslategray" d="M405.296,-25.2483C380.934,-30.0969 353.333,-38.7077 332,-54 323.048,-60.4168 315.778,-69.9812 310.292,-79.0993"/>
<polygon fill="darkslategray" stroke="darkslategray" points="307.182,-77.4908 305.404,-87.9355 313.307,-80.8788 307.182,-77.4908"/>
</a>
<a xlink:href="./#orgDisplayName" xlink:title="orgDisplayName">
<text text-anchor="middle" x="386.5" y="-58.3" font-family="Helvetica,sans-Serif" font-size="14.00">orgDisplayName</text>
</a>
</g>
<!-- Organisation&#45;&gt;http://www.w3.org/2000/01/rdf&#45;schema#Literal -->
<g id="edge18" class="edge"><title>Organisation&#45;&gt;http://www.w3.org/2000/01/rdf&#45;schema#Literal</title>
<a xlink:href="./#orgName" xlink:title="orgName">
<path fill="none" stroke="darkslategray" d="M459.764,-36.0421C456.762,-47.2603 451.163,-61.4091 441,-70 433.012,-76.7524 423.924,-82.2403 414.292,-86.6955"/>
<polygon fill="darkslategray" stroke="darkslategray" points="412.759,-83.5436 404.908,-90.6582 415.482,-89.9922 412.759,-83.5436"/>
</a>
<a xlink:href="./#orgName" xlink:title="orgName">
<text text-anchor="middle" x="483.5" y="-58.3" font-family="Helvetica,sans-Serif" font-size="14.00">orgName</text>
</a>
</g>
<!-- Organisation&#45;&gt;http://www.w3.org/2000/01/rdf&#45;schema#Literal -->
<g id="edge20" class="edge"><title>Organisation&#45;&gt;http://www.w3.org/2000/01/rdf&#45;schema#Literal</title>
<a xlink:href="./#orgNativeName" xlink:title="orgNativeName">
<path fill="none" stroke="darkslategray" d="M495.895,-33.4485C513.493,-43.177 529.412,-56.6284 518,-70 509.178,-80.3361 488.622,-87.6349 463.439,-92.7851"/>
<polygon fill="darkslategray" stroke="darkslategray" points="462.749,-89.3536 453.576,-94.6556 464.053,-96.2311 462.749,-89.3536"/>
</a>
<a xlink:href="./#orgNativeName" xlink:title="orgNativeName">
<text text-anchor="middle" x="573.5" y="-58.3" font-family="Helvetica,sans-Serif" font-size="14.00">orgNativeName</text>
</a>
</g>
<!-- http://xmlns.com/foaf/0.1/Document -->
<g id="node18" class="node"><title>http://xmlns.com/foaf/0.1/Document</title>
<a xlink:href="./#http://xmlns.com/foaf/0.1/Document" xlink:title="http://xmlns.com/foaf/0.1/Document">
<ellipse fill="none" stroke="gray" cx="673" cy="-106" rx="156.772" ry="18"/>
<text text-anchor="middle" x="673" y="-102.3" font-family="Helvetica,sans-Serif" font-size="14.00" fill="gray">http://xmlns.com/foaf/0.1/Document</text>
</a>
</g>
<!-- Organisation&#45;&gt;http://xmlns.com/foaf/0.1/Document -->
<g id="edge22" class="edge"><title>Organisation&#45;&gt;http://xmlns.com/foaf/0.1/Document</title>
<a xlink:href="./#organisationHomepage" xlink:title="organisationHomepage">
<path fill="none" stroke="darkslategray" d="M524.409,-22.4594C557.3,-26.5681 597.424,-35.3559 629,-54 639.639,-60.282 648.991,-70.0658 656.306,-79.3908"/>
<polygon fill="darkslategray" stroke="darkslategray" points="653.684,-81.7325 662.43,-87.712 659.322,-77.5834 653.684,-81.7325"/>
</a>
<a xlink:href="./#organisationHomepage" xlink:title="organisationHomepage">
<text text-anchor="middle" x="723" y="-58.3" font-family="Helvetica,sans-Serif" font-size="14.00">organisationHomepage</text>
</a>
</g>
<!-- http://xmlns.com/foaf/0.1/Agent -->
<g id="node10" class="node"><title>http://xmlns.com/foaf/0.1/Agent</title>
<a xlink:href="./#http://xmlns.com/foaf/0.1/Organisation" xlink:title="http://xmlns.com/foaf/0.1/Agent">
<ellipse fill="none" stroke="gray" cx="1013" cy="-180" rx="139.175" ry="18"/>
<text text-anchor="middle" x="1013" y="-176.3" font-family="Helvetica,sans-Serif" font-size="14.00" fill="gray">http://xmlns.com/foaf/0.1/Agent</text>
</a>
</g>
<!-- http://xmlns.com/foaf/0.1/Organisation&#45;&gt;http://xmlns.com/foaf/0.1/Agent -->
<g id="edge10" class="edge"><title>http://xmlns.com/foaf/0.1/Organisation&#45;&gt;http://xmlns.com/foaf/0.1/Agent</title>
<path fill="none" stroke="red" stroke-dasharray="5,2" d="M1013,-124.063C1013,-132.193 1013,-142.124 1013,-151.295"/>
<polygon fill="red" stroke="red" points="1009.5,-151.559 1013,-161.559 1016.5,-151.559 1009.5,-151.559"/>
</g>
<!-- Response -->
<g id="node8" class="node"><title>Response</title>
<a xlink:href="./#Response" xlink:title="Response">
<ellipse fill="none" stroke="black" cx="1253" cy="-18" rx="53.8905" ry="18"/>
<text text-anchor="middle" x="1253" y="-14.3" font-family="Helvetica,sans-Serif" font-size="14.00">Response</text>
</a>
</g>
<!-- Response&#45;&gt;BaseClass -->
<g id="edge8" class="edge"><title>Response&#45;&gt;BaseClass</title>
<path fill="none" stroke="red" stroke-dasharray="5,2" d="M1253,-36.4034C1253,-48.2541 1253,-64.1831 1253,-77.7083"/>
<polygon fill="red" stroke="red" points="1249.5,-77.916 1253,-87.916 1256.5,-77.916 1249.5,-77.916"/>
</g>
</g>
</svg>
