<?xml version="1.0" encoding="UTF-8" standalone="no"?>
<!DOCTYPE svg PUBLIC "-//W3C//DTD SVG 1.1//EN"
 "http://www.w3.org/Graphics/SVG/1.1/DTD/svg11.dtd">
<!-- Generated by graphviz version 2.28.0 (20110507.0327)
 -->
<!-- Title: _anonymous_0 Pages: 1 -->
<svg width="1314pt" height="206pt"
 viewBox="0.00 0.00 1314.00 206.00" xmlns="http://www.w3.org/2000/svg" xmlns:xlink="http://www.w3.org/1999/xlink">
<g id="graph1" class="graph" transform="scale(1 1) rotate(0) translate(4 202)">
<title>_anonymous_0</title>
<polygon fill="white" stroke="white" points="-4,5 -4,-202 1311,-202 1311,5 -4,5"/>
<!-- Organisation -->
<g id="node1" class="node"><title>Organisation</title>
<a xlink:href="./#Organisation" xlink:title="Organisation">
<ellipse fill="none" stroke="black" cx="468" cy="-18" rx="62.2891" ry="18"/>
<text text-anchor="middle" x="468" y="-14.3" font-family="Helvetica,sans-Serif" font-size="14.00">Organisation</text>
</a>
</g>
<!-- http://xmlns.com/foaf/0.1/Organisation -->
<g id="node3" class="node"><title>http://xmlns.com/foaf/0.1/Organisation</title>
<a xlink:href="./#http://xmlns.com/foaf/0.1/Organisation" xlink:title="http://xmlns.com/foaf/0.1/Organisation">
<ellipse fill="none" stroke="black" cx="1011" cy="-106" rx="165.971" ry="18"/>
<text text-anchor="middle" x="1011" y="-102.3" font-family="Helvetica,sans-Serif" font-size="14.00">http://xmlns.com/foaf/0.1/Organisation</text>
</a>
</g>
<!-- Organisation&#45;&gt;http://xmlns.com/foaf/0.1/Organisation -->
<g id="edge2" class="edge"><title>Organisation&#45;&gt;http://xmlns.com/foaf/0.1/Organisation</title>
<path fill="none" stroke="red" stroke-dasharray="5,2" d="M527.936,-23.0149C594.307,-28.0039 704.314,-37.8855 798,-54 847.264,-62.4737 902.1,-75.6933 943.795,-86.5502"/>
<polygon fill="red" stroke="red" points="942.999,-89.9597 953.56,-89.1121 944.776,-83.1889 942.999,-89.9597"/>
</g>
<!-- BaseClass -->
<g id="node4" class="node"><title>BaseClass</title>
<a xlink:href="./#Response" xlink:title="BaseClass">
<ellipse fill="none" stroke="gray" cx="1251" cy="-106" rx="55.7903" ry="18"/>
<text text-anchor="middle" x="1251" y="-102.3" font-family="Helvetica,sans-Serif" font-size="14.00" fill="gray">BaseClass</text>
</a>
</g>
<!-- Organisation&#45;&gt;BaseClass -->
<g id="edge4" class="edge"><title>Organisation&#45;&gt;BaseClass</title>
<path fill="none" stroke="red" stroke-dasharray="5,2" d="M529.36,-21.5588C653.839,-27.4838 944.637,-45.0624 1185,-88 1190.11,-88.9129 1195.41,-90.0123 1200.68,-91.2073"/>
<polygon fill="red" stroke="red" points="1200.18,-94.6875 1210.72,-93.5996 1201.81,-87.878 1200.18,-94.6875"/>
</g>
<!-- Source -->
<g id="node6" class="node"><title>Source</title>
<a xlink:href="./#Organisation" xlink:title="Source">
<ellipse fill="none" stroke="gray" cx="40" cy="-106" rx="40.0939" ry="18"/>
<text text-anchor="middle" x="40" y="-102.3" font-family="Helvetica,sans-Serif" font-size="14.00" fill="gray">Source</text>
</a>
</g>
<!-- Organisation&#45;&gt;Source -->
<g id="edge6" class="edge"><title>Organisation&#45;&gt;Source</title>
<path fill="none" stroke="red" stroke-dasharray="5,2" d="M407.503,-22.2489C348.528,-26.3676 256.638,-35.3222 179,-54 143.342,-62.5784 104.254,-77.4364 76.6363,-88.9098"/>
<polygon fill="red" stroke="red" points="75.2285,-85.7049 67.3702,-92.811 77.9448,-92.1564 75.2285,-85.7049"/>
</g>
<!-- http://www.w3.org/2000/01/rdf&#45;schema#Literal -->
<g id="node12" class="node"><title>http://www.w3.org/2000/01/rdf&#45;schema#Literal</title>
<a xlink:href="./#http://www.w3.org/2000/01/rdf-schema#Literal" xlink:title="http://www.w3.org/2000/01/rdf&#45;schema#Literal">
<ellipse fill="none" stroke="gray" cx="297" cy="-106" rx="198.765" ry="18"/>
<text text-anchor="middle" x="297" y="-102.3" font-family="Helvetica,sans-Serif" font-size="14.00" fill="gray">http://www.w3.org/2000/01/rdf&#45;schema#Literal</text>
</a>
</g>
<!-- Organisation&#45;&gt;http://www.w3.org/2000/01/rdf&#45;schema#Literal -->
<g id="edge12" class="edge"><title>Organisation&#45;&gt;http://www.w3.org/2000/01/rdf&#45;schema#Literal</title>
<a xlink:href="./#abbreviation" xlink:title="abbreviation">
<path fill="none" stroke="darkslategray" d="M407.57,-22.3623C329.621,-27.3275 202.286,-37.8175 188,-54 175.755,-67.8713 185.027,-78.2488 202.394,-85.8897"/>
<polygon fill="darkslategray" stroke="darkslategray" points="201.553,-89.3161 212.143,-89.6399 204.067,-82.7828 201.553,-89.3161"/>
</a>
<a xlink:href="./#abbreviation" xlink:title="abbreviation">
<text text-anchor="middle" x="226.5" y="-58.3" font-family="Helvetica,sans-Serif" font-size="14.00">abbreviation</text>
</a>
</g>
<!-- Organisation&#45;&gt;http://www.w3.org/2000/01/rdf&#45;schema#Literal -->
<g id="edge14" class="edge"><title>Organisation&#45;&gt;http://www.w3.org/2000/01/rdf&#45;schema#Literal</title>
<a xlink:href="./#ftsId" xlink:title="ftsId">
<path fill="none" stroke="darkslategray" d="M407.856,-22.6404C361.587,-26.8446 303.085,-35.6987 288,-54 282.492,-60.682 282.402,-69.5548 284.434,-78.0242"/>
<polygon fill="darkslategray" stroke="darkslategray" points="281.143,-79.222 287.595,-87.6258 287.792,-77.0328 281.143,-79.222"/>
</a>
<a xlink:href="./#ftsId" xlink:title="ftsId">
<text text-anchor="middle" x="302.5" y="-58.3" font-family="Helvetica,sans-Serif" font-size="14.00">ftsId</text>
</a>
</g>
<!-- Organisation&#45;&gt;http://www.w3.org/2000/01/rdf&#45;schema#Literal -->
<g id="edge16" class="edge"><title>Organisation&#45;&gt;http://www.w3.org/2000/01/rdf&#45;schema#Literal</title>
<a xlink:href="./#orgDisplayName" xlink:title="orgDisplayName">
<path fill="none" stroke="darkslategray" d="M413.019,-26.5081C389.204,-31.5953 361.84,-40.0444 340,-54 329.689,-60.5888 320.565,-70.4261 313.404,-79.7082"/>
<polygon fill="darkslategray" stroke="darkslategray" points="310.449,-77.8203 307.402,-87.9674 316.112,-81.9355 310.449,-77.8203"/>
</a>
<a xlink:href="./#orgDisplayName" xlink:title="orgDisplayName">
<text text-anchor="middle" x="393" y="-58.3" font-family="Helvetica,sans-Serif" font-size="14.00">orgDisplayName</text>
</a>
</g>
<!-- Organisation&#45;&gt;http://www.w3.org/2000/01/rdf&#45;schema#Literal -->
<g id="edge18" class="edge"><title>Organisation&#45;&gt;http://www.w3.org/2000/01/rdf&#45;schema#Literal</title>
<a xlink:href="./#orgName" xlink:title="orgName">
<path fill="none" stroke="darkslategray" d="M464.789,-36.0723C461.798,-47.304 456.202,-61.4566 446,-70 437.655,-76.9879 428.166,-82.6356 418.113,-87.1932"/>
<polygon fill="darkslategray" stroke="darkslategray" points="416.636,-84.0167 408.738,-91.0794 419.316,-90.4831 416.636,-84.0167"/>
</a>
<a xlink:href="./#orgName" xlink:title="orgName">
<text text-anchor="middle" x="487.5" y="-58.3" font-family="Helvetica,sans-Serif" font-size="14.00">orgName</text>
</a>
</g>
<!-- Organisation&#45;&gt;http://www.w3.org/2000/01/rdf&#45;schema#Literal -->
<g id="edge20" class="edge"><title>Organisation&#45;&gt;http://www.w3.org/2000/01/rdf&#45;schema#Literal</title>
<a xlink:href="./#orgNativeName" xlink:title="orgNativeName">
<path fill="none" stroke="darkslategray" d="M499.841,-33.6326C516.858,-43.4367 532.209,-56.9031 521,-70 511.951,-80.5733 490.808,-87.9758 464.945,-93.1526"/>
<polygon fill="darkslategray" stroke="darkslategray" points="464.011,-89.7659 454.816,-95.0296 465.287,-96.6487 464.011,-89.7659"/>
</a>
<a xlink:href="./#orgNativeName" xlink:title="orgNativeName">
<text text-anchor="middle" x="574" y="-58.3" font-family="Helvetica,sans-Serif" font-size="14.00">orgNativeName</text>
</a>
</g>
<!-- http://xmlns.com/foaf/0.1/Document -->
<g id="node18" class="node"><title>http://xmlns.com/foaf/0.1/Document</title>
<a xlink:href="./#http://xmlns.com/foaf/0.1/Document" xlink:title="http://xmlns.com/foaf/0.1/Document">
<ellipse fill="none" stroke="gray" cx="671" cy="-106" rx="156.772" ry="18"/>
<text text-anchor="middle" x="671" y="-102.3" font-family="Helvetica,sans-Serif" font-size="14.00" fill="gray">http://xmlns.com/foaf/0.1/Document</text>
</a>
</g>
<!-- Organisation&#45;&gt;http://xmlns.com/foaf/0.1/Document -->
<g id="edge22" class="edge"><title>Organisation&#45;&gt;http://xmlns.com/foaf/0.1/Document</title>
<a xlink:href="./#organisationHomepage" xlink:title="organisationHomepage">
<path fill="none" stroke="darkslategray" d="M527.979,-23.1042C559.27,-27.4155 597.142,-36.1909 627,-54 637.611,-60.3291 646.958,-70.1212 654.277,-79.4396"/>
<polygon fill="darkslategray" stroke="darkslategray" points="651.655,-81.7803 660.407,-87.7513 657.289,-77.6257 651.655,-81.7803"/>
</a>
<a xlink:href="./#organisationHomepage" xlink:title="organisationHomepage">
<text text-anchor="middle" x="720" y="-58.3" font-family="Helvetica,sans-Serif" font-size="14.00">organisationHomepage</text>
</a>
</g>
<!-- http://xmlns.com/foaf/0.1/Agent -->
<g id="node10" class="node"><title>http://xmlns.com/foaf/0.1/Agent</title>
<a xlink:href="./#http://xmlns.com/foaf/0.1/Organisation" xlink:title="http://xmlns.com/foaf/0.1/Agent">
<ellipse fill="none" stroke="gray" cx="1011" cy="-180" rx="138.375" ry="18"/>
<text text-anchor="middle" x="1011" y="-176.3" font-family="Helvetica,sans-Serif" font-size="14.00" fill="gray">http://xmlns.com/foaf/0.1/Agent</text>
</a>
</g>
<!-- http://xmlns.com/foaf/0.1/Organisation&#45;&gt;http://xmlns.com/foaf/0.1/Agent -->
<g id="edge10" class="edge"><title>http://xmlns.com/foaf/0.1/Organisation&#45;&gt;http://xmlns.com/foaf/0.1/Agent</title>
<path fill="none" stroke="red" stroke-dasharray="5,2" d="M1011,-124.063C1011,-132.193 1011,-142.124 1011,-151.295"/>
<polygon fill="red" stroke="red" points="1007.5,-151.559 1011,-161.559 1014.5,-151.559 1007.5,-151.559"/>
</g>
<!-- Response -->
<g id="node8" class="node"><title>Response</title>
<a xlink:href="./#Response" xlink:title="Response">
<ellipse fill="none" stroke="black" cx="1251" cy="-18" rx="53.8905" ry="18"/>
<text text-anchor="middle" x="1251" y="-14.3" font-family="Helvetica,sans-Serif" font-size="14.00">Response</text>
</a>
</g>
<!-- Response&#45;&gt;BaseClass -->
<g id="edge8" class="edge"><title>Response&#45;&gt;BaseClass</title>
<path fill="none" stroke="red" stroke-dasharray="5,2" d="M1251,-36.4034C1251,-48.2541 1251,-64.1831 1251,-77.7083"/>
<polygon fill="red" stroke="red" points="1247.5,-77.916 1251,-87.916 1254.5,-77.916 1247.5,-77.916"/>
</g>
</g>
</svg>
