<?xml version="1.0" encoding="UTF-8" standalone="no"?>
<!DOCTYPE svg PUBLIC "-//W3C//DTD SVG 1.1//EN"
 "http://www.w3.org/Graphics/SVG/1.1/DTD/svg11.dtd">
<!-- Generated by graphviz version 2.28.0 (20120807.1341)
 -->
<!-- Title: _anonymous_0 Pages: 1 -->
<svg width="1218pt" height="206pt"
 viewBox="0.00 0.00 1218.00 206.00" xmlns="http://www.w3.org/2000/svg" xmlns:xlink="http://www.w3.org/1999/xlink">
<g id="graph1" class="graph" transform="scale(1 1) rotate(0) translate(4 202)">
<title>_anonymous_0</title>
<polygon fill="white" stroke="white" points="-4,5 -4,-202 1215,-202 1215,5 -4,5"/>
<!-- Organisation -->
<g id="node1" class="node"><title>Organisation</title>
<a xlink:href="./#Organisation" xlink:title="Organisation">
<ellipse fill="none" stroke="black" cx="423" cy="-18" rx="63.0888" ry="18"/>
<text text-anchor="middle" x="423" y="-14.3" font-family="Helvetica,sans-Serif" font-size="14.00">Organisation</text>
</a>
</g>
<!-- http://xmlns.com/foaf/0.1/Organisation -->
<g id="node3" class="node"><title>http://xmlns.com/foaf/0.1/Organisation</title>
<a xlink:href="./#http://xmlns.com/foaf/0.1/Organisation" xlink:title="http://xmlns.com/foaf/0.1/Organisation">
<ellipse fill="none" stroke="black" cx="915" cy="-106" rx="165.971" ry="18"/>
<text text-anchor="middle" x="915" y="-102.3" font-family="Helvetica,sans-Serif" font-size="14.00">http://xmlns.com/foaf/0.1/Organisation</text>
</a>
</g>
<!-- Organisation&#45;&gt;http://xmlns.com/foaf/0.1/Organisation -->
<g id="edge2" class="edge"><title>Organisation&#45;&gt;http://xmlns.com/foaf/0.1/Organisation</title>
<path fill="none" stroke="red" stroke-dasharray="5,2" d="M482.894,-23.6595C542.947,-28.8985 637.889,-38.7262 719,-54 763.724,-62.4219 813.327,-75.3647 851.442,-86.1041"/>
<polygon fill="red" stroke="red" points="850.798,-89.5594 861.373,-88.9255 852.711,-82.8259 850.798,-89.5594"/>
</g>
<!-- BaseClass -->
<g id="node4" class="node"><title>BaseClass</title>
<a xlink:href="./#Response" xlink:title="BaseClass">
<ellipse fill="none" stroke="gray" cx="1155" cy="-106" rx="55.7903" ry="18"/>
<text text-anchor="middle" x="1155" y="-102.3" font-family="Helvetica,sans-Serif" font-size="14.00" fill="gray">BaseClass</text>
</a>
</g>
<!-- Organisation&#45;&gt;BaseClass -->
<g id="edge4" class="edge"><title>Organisation&#45;&gt;BaseClass</title>
<path fill="none" stroke="red" stroke-dasharray="5,2" d="M484.499,-22.2501C602.494,-29.1738 868.519,-48.1127 1089,-88 1094.11,-88.9242 1099.4,-90.0309 1104.67,-91.2305"/>
<polygon fill="red" stroke="red" points="1104.18,-94.7105 1114.72,-93.6282 1105.8,-87.9018 1104.18,-94.7105"/>
</g>
<!-- http://www.w3.org/2000/01/rdf&#45;schema#Literal -->
<g id="node10" class="node"><title>http://www.w3.org/2000/01/rdf&#45;schema#Literal</title>
<a xlink:href="./#http://www.w3.org/2000/01/rdf-schema#Literal" xlink:title="http://www.w3.org/2000/01/rdf&#45;schema#Literal">
<ellipse fill="none" stroke="gray" cx="200" cy="-106" rx="200.365" ry="18"/>
<text text-anchor="middle" x="200" y="-102.3" font-family="Helvetica,sans-Serif" font-size="14.00" fill="gray">http://www.w3.org/2000/01/rdf&#45;schema#Literal</text>
</a>
</g>
<!-- Organisation&#45;&gt;http://www.w3.org/2000/01/rdf&#45;schema#Literal -->
<g id="edge10" class="edge"><title>Organisation&#45;&gt;http://www.w3.org/2000/01/rdf&#45;schema#Literal</title>
<a xlink:href="./#abbreviation" xlink:title="abbreviation">
<path fill="none" stroke="darkslategray" d="M360.632,-20.6191C303.464,-23.5278 224.662,-31.6111 204,-54 198.176,-60.3106 196.181,-69.1293 195.953,-77.6614"/>
<polygon fill="darkslategray" stroke="darkslategray" points="192.461,-77.9087 196.413,-87.7387 199.453,-77.5895 192.461,-77.9087"/>
</a>
<a xlink:href="./#abbreviation" xlink:title="abbreviation">
<text text-anchor="middle" x="243.5" y="-58.3" font-family="Helvetica,sans-Serif" font-size="14.00">abbreviation</text>
</a>
</g>
<!-- Organisation&#45;&gt;http://www.w3.org/2000/01/rdf&#45;schema#Literal -->
<g id="edge12" class="edge"><title>Organisation&#45;&gt;http://www.w3.org/2000/01/rdf&#45;schema#Literal</title>
<a xlink:href="./#ftsId" xlink:title="ftsId">
<path fill="none" stroke="darkslategray" d="M374.751,-29.7466C353.13,-35.4857 327.676,-43.5495 306,-54 294.783,-59.4078 293.907,-63.9925 283,-70 273.761,-75.0884 263.629,-79.9251 253.716,-84.2894"/>
<polygon fill="darkslategray" stroke="darkslategray" points="252.126,-81.1631 244.316,-88.3218 254.886,-87.5962 252.126,-81.1631"/>
</a>
<a xlink:href="./#ftsId" xlink:title="ftsId">
<text text-anchor="middle" x="320.5" y="-58.3" font-family="Helvetica,sans-Serif" font-size="14.00">ftsId</text>
</a>
</g>
<!-- Organisation&#45;&gt;http://www.w3.org/2000/01/rdf&#45;schema#Literal -->
<g id="edge14" class="edge"><title>Organisation&#45;&gt;http://www.w3.org/2000/01/rdf&#45;schema#Literal</title>
<a xlink:href="./#orgDisplayName" xlink:title="orgDisplayName">
<path fill="none" stroke="darkslategray" d="M393.478,-33.9852C382.215,-39.9385 369.358,-47.023 358,-54 347.39,-60.518 346.315,-64.8006 335,-70 320.607,-76.6139 304.753,-82.1332 289.126,-86.6854"/>
<polygon fill="darkslategray" stroke="darkslategray" points="288.127,-83.3304 279.44,-89.3959 290.014,-90.0714 288.127,-83.3304"/>
</a>
<a xlink:href="./#orgDisplayName" xlink:title="orgDisplayName">
<text text-anchor="middle" x="412.5" y="-58.3" font-family="Helvetica,sans-Serif" font-size="14.00">orgDisplayName</text>
</a>
</g>
<!-- Organisation&#45;&gt;http://www.w3.org/2000/01/rdf&#45;schema#Literal -->
<g id="edge16" class="edge"><title>Organisation&#45;&gt;http://www.w3.org/2000/01/rdf&#45;schema#Literal</title>
<a xlink:href="./#orgName" xlink:title="orgName">
<path fill="none" stroke="darkslategray" d="M450.176,-34.4574C464.607,-44.6 477.412,-58.1337 467,-70 458.763,-79.3869 410.889,-87.0352 357.9,-92.761"/>
<polygon fill="darkslategray" stroke="darkslategray" points="357.533,-89.2801 347.955,-93.8077 358.266,-96.2417 357.533,-89.2801"/>
</a>
<a xlink:href="./#orgName" xlink:title="orgName">
<text text-anchor="middle" x="501.5" y="-58.3" font-family="Helvetica,sans-Serif" font-size="14.00">orgName</text>
</a>
</g>
<!-- Organisation&#45;&gt;http://www.w3.org/2000/01/rdf&#45;schema#Literal -->
<g id="edge18" class="edge"><title>Organisation&#45;&gt;http://www.w3.org/2000/01/rdf&#45;schema#Literal</title>
<a xlink:href="./#orgNativeName" xlink:title="orgNativeName">
<path fill="none" stroke="darkslategray" d="M360.802,-21.1245C269.426,-24.8948 107.747,-34.2901 90,-54 77.4114,-67.9811 87.0201,-78.4161 104.861,-86.0771"/>
<polygon fill="darkslategray" stroke="darkslategray" points="103.628,-89.3527 114.22,-89.6184 106.106,-82.8057 103.628,-89.3527"/>
</a>
<a xlink:href="./#orgNativeName" xlink:title="orgNativeName">
<text text-anchor="middle" x="141.5" y="-58.3" font-family="Helvetica,sans-Serif" font-size="14.00">orgNativeName</text>
</a>
</g>
<!-- http://xmlns.com/foaf/0.1/Document -->
<g id="node16" class="node"><title>http://xmlns.com/foaf/0.1/Document</title>
<a xlink:href="./#http://xmlns.com/foaf/0.1/Document" xlink:title="http://xmlns.com/foaf/0.1/Document">
<ellipse fill="none" stroke="gray" cx="575" cy="-106" rx="156.772" ry="18"/>
<text text-anchor="middle" x="575" y="-102.3" font-family="Helvetica,sans-Serif" font-size="14.00" fill="gray">http://xmlns.com/foaf/0.1/Document</text>
</a>
</g>
<!-- Organisation&#45;&gt;http://xmlns.com/foaf/0.1/Document -->
<g id="edge20" class="edge"><title>Organisation&#45;&gt;http://xmlns.com/foaf/0.1/Document</title>
<a xlink:href="./#organisationHomepage" xlink:title="organisationHomepage">
<path fill="none" stroke="darkslategray" d="M482.979,-23.8151C507.064,-28.4301 533.645,-37.2539 553,-54 560.206,-60.2345 565.126,-69.2544 568.453,-77.9805"/>
<polygon fill="darkslategray" stroke="darkslategray" points="565.142,-79.1193 571.567,-87.5438 571.798,-76.9515 565.142,-79.1193"/>
</a>
<a xlink:href="./#organisationHomepage" xlink:title="organisationHomepage">
<text text-anchor="middle" x="640" y="-58.3" font-family="Helvetica,sans-Serif" font-size="14.00">organisationHomepage</text>
</a>
</g>
<!-- http://xmlns.com/foaf/0.1/Agent -->
<g id="node8" class="node"><title>http://xmlns.com/foaf/0.1/Agent</title>
<a xlink:href="./#http://xmlns.com/foaf/0.1/Organisation" xlink:title="http://xmlns.com/foaf/0.1/Agent">
<ellipse fill="none" stroke="gray" cx="915" cy="-180" rx="139.175" ry="18"/>
<text text-anchor="middle" x="915" y="-176.3" font-family="Helvetica,sans-Serif" font-size="14.00" fill="gray">http://xmlns.com/foaf/0.1/Agent</text>
</a>
</g>
<!-- http://xmlns.com/foaf/0.1/Organisation&#45;&gt;http://xmlns.com/foaf/0.1/Agent -->
<g id="edge8" class="edge"><title>http://xmlns.com/foaf/0.1/Organisation&#45;&gt;http://xmlns.com/foaf/0.1/Agent</title>
<path fill="none" stroke="red" stroke-dasharray="5,2" d="M915,-124.063C915,-132.193 915,-142.124 915,-151.295"/>
<polygon fill="red" stroke="red" points="911.5,-151.559 915,-161.559 918.5,-151.559 911.5,-151.559"/>
</g>
<!-- Response -->
<g id="node6" class="node"><title>Response</title>
<a xlink:href="./#Response" xlink:title="Response">
<ellipse fill="none" stroke="black" cx="1155" cy="-18" rx="53.8905" ry="18"/>
<text text-anchor="middle" x="1155" y="-14.3" font-family="Helvetica,sans-Serif" font-size="14.00">Response</text>
</a>
</g>
<!-- Response&#45;&gt;BaseClass -->
<g id="edge6" class="edge"><title>Response&#45;&gt;BaseClass</title>
<path fill="none" stroke="red" stroke-dasharray="5,2" d="M1155,-36.4034C1155,-48.2541 1155,-64.1831 1155,-77.7083"/>
<polygon fill="red" stroke="red" points="1151.5,-77.916 1155,-87.916 1158.5,-77.916 1151.5,-77.916"/>
</g>
</g>
</svg>
