<?xml version="1.0" encoding="UTF-8" standalone="no"?>
<!DOCTYPE svg PUBLIC "-//W3C//DTD SVG 1.1//EN"
 "http://www.w3.org/Graphics/SVG/1.1/DTD/svg11.dtd">
<!-- Generated by graphviz version 2.28.0 (20121022.1408)
 -->
<!-- Title: _anonymous_0 Pages: 1 -->
<svg width="1515pt" height="206pt"
 viewBox="0.00 0.00 1515.00 206.00" xmlns="http://www.w3.org/2000/svg" xmlns:xlink="http://www.w3.org/1999/xlink">
<g id="graph1" class="graph" transform="scale(1 1) rotate(0) translate(4 202)">
<title>_anonymous_0</title>
<polygon fill="white" stroke="white" points="-4,5 -4,-202 1512,-202 1512,5 -4,5"/>
<!-- Organisation -->
<g id="node1" class="node"><title>Organisation</title>
<a xlink:href="./#Organisation" xlink:title="Organisation">
<ellipse fill="none" stroke="black" cx="654" cy="-18" rx="63.0888" ry="18"/>
<text text-anchor="middle" x="654" y="-14.3" font-family="Helvetica,sans-Serif" font-size="14.00">Organisation</text>
</a>
</g>
<!-- http://xmlns.com/foaf/0.1/Organisation -->
<g id="node3" class="node"><title>http://xmlns.com/foaf/0.1/Organisation</title>
<a xlink:href="./#http://xmlns.com/foaf/0.1/Organisation" xlink:title="http://xmlns.com/foaf/0.1/Organisation">
<ellipse fill="none" stroke="black" cx="165" cy="-106" rx="165.971" ry="18"/>
<text text-anchor="middle" x="165" y="-102.3" font-family="Helvetica,sans-Serif" font-size="14.00">http://xmlns.com/foaf/0.1/Organisation</text>
</a>
</g>
<!-- Organisation&#45;&gt;http://xmlns.com/foaf/0.1/Organisation -->
<g id="edge2" class="edge"><title>Organisation&#45;&gt;http://xmlns.com/foaf/0.1/Organisation</title>
<path fill="none" stroke="red" stroke-dasharray="5,2" d="M601.668,-28.2035C519.763,-42.6082 360.134,-70.682 258.237,-88.6024"/>
<polygon fill="red" stroke="red" points="257.498,-85.1787 248.255,-90.358 258.71,-92.0729 257.498,-85.1787"/>
</g>
<!-- BaseClass -->
<g id="node4" class="node"><title>BaseClass</title>
<a xlink:href="./#Organisation" xlink:title="BaseClass">
<ellipse fill="none" stroke="gray" cx="405" cy="-106" rx="55.7903" ry="18"/>
<text text-anchor="middle" x="405" y="-102.3" font-family="Helvetica,sans-Serif" font-size="14.00" fill="gray">BaseClass</text>
</a>
</g>
<!-- Organisation&#45;&gt;BaseClass -->
<g id="edge4" class="edge"><title>Organisation&#45;&gt;BaseClass</title>
<path fill="none" stroke="red" stroke-dasharray="5,2" d="M607.801,-30.3865C583.784,-36.6688 554.078,-45.0092 528,-54 499.956,-63.6685 469.122,-76.4582 445.341,-86.8109"/>
<polygon fill="red" stroke="red" points="443.69,-83.7133 435.939,-90.9366 446.503,-90.1233 443.69,-83.7133"/>
</g>
<!-- Source -->
<g id="node6" class="node"><title>Source</title>
<a xlink:href="./#Organisation" xlink:title="Source">
<ellipse fill="none" stroke="gray" cx="519" cy="-106" rx="40.0939" ry="18"/>
<text text-anchor="middle" x="519" y="-102.3" font-family="Helvetica,sans-Serif" font-size="14.00" fill="gray">Source</text>
</a>
</g>
<!-- Organisation&#45;&gt;Source -->
<g id="edge6" class="edge"><title>Organisation&#45;&gt;Source</title>
<path fill="none" stroke="red" stroke-dasharray="5,2" d="M599.562,-27.1924C580.291,-32.3031 559.557,-40.5863 544,-54 536.621,-60.3626 531.213,-69.4117 527.355,-78.1255"/>
<polygon fill="red" stroke="red" points="524.009,-77.0718 523.635,-87.66 530.53,-79.6164 524.009,-77.0718"/>
</g>
<!-- http://www.w3.org/2000/01/rdf&#45;schema#Literal -->
<g id="node13" class="node"><title>http://www.w3.org/2000/01/rdf&#45;schema#Literal</title>
<a xlink:href="./#http://www.w3.org/2000/01/rdf-schema#Literal" xlink:title="http://www.w3.org/2000/01/rdf&#45;schema#Literal">
<ellipse fill="none" stroke="gray" cx="777" cy="-106" rx="200.365" ry="18"/>
<text text-anchor="middle" x="777" y="-102.3" font-family="Helvetica,sans-Serif" font-size="14.00" fill="gray">http://www.w3.org/2000/01/rdf&#45;schema#Literal</text>
</a>
</g>
<!-- Organisation&#45;&gt;http://www.w3.org/2000/01/rdf&#45;schema#Literal -->
<g id="edge12" class="edge"><title>Organisation&#45;&gt;http://www.w3.org/2000/01/rdf&#45;schema#Literal</title>
<a xlink:href="./#abbreviation" xlink:title="abbreviation">
<path fill="none" stroke="darkslategray" d="M600.962,-27.726C567.922,-35.4346 534.862,-48.8084 553,-70 561.993,-80.507 582.927,-87.8829 608.569,-93.0549"/>
<polygon fill="darkslategray" stroke="darkslategray" points="608.14,-96.5352 618.613,-94.9312 609.425,-89.6542 608.14,-96.5352"/>
</a>
<a xlink:href="./#abbreviation" xlink:title="abbreviation">
<text text-anchor="middle" x="592.5" y="-58.3" font-family="Helvetica,sans-Serif" font-size="14.00">abbreviation</text>
</a>
</g>
<!-- Organisation&#45;&gt;http://www.w3.org/2000/01/rdf&#45;schema#Literal -->
<g id="edge14" class="edge"><title>Organisation&#45;&gt;http://www.w3.org/2000/01/rdf&#45;schema#Literal</title>
<a xlink:href="./#ftsId" xlink:title="ftsId">
<path fill="none" stroke="darkslategray" d="M649.536,-36.2988C647.831,-47.0603 647.766,-60.5927 655,-70 659.525,-75.8845 664.971,-80.8264 671.019,-84.9718"/>
<polygon fill="darkslategray" stroke="darkslategray" points="669.235,-87.9834 679.607,-90.1447 672.847,-81.9871 669.235,-87.9834"/>
</a>
<a xlink:href="./#ftsId" xlink:title="ftsId">
<text text-anchor="middle" x="669.5" y="-58.3" font-family="Helvetica,sans-Serif" font-size="14.00">ftsId</text>
</a>
</g>
<!-- Organisation&#45;&gt;http://www.w3.org/2000/01/rdf&#45;schema#Literal -->
<g id="edge16" class="edge"><title>Organisation&#45;&gt;http://www.w3.org/2000/01/rdf&#45;schema#Literal</title>
<a xlink:href="./#orgDisplayName" xlink:title="orgDisplayName">
<path fill="none" stroke="darkslategray" d="M668.668,-35.5085C678.743,-46.2141 692.814,-59.9815 707,-70 713.94,-74.9014 721.666,-79.4965 729.38,-83.6426"/>
<polygon fill="darkslategray" stroke="darkslategray" points="727.892,-86.8132 738.383,-88.295 731.106,-80.5945 727.892,-86.8132"/>
</a>
<a xlink:href="./#orgDisplayName" xlink:title="orgDisplayName">
<text text-anchor="middle" x="761.5" y="-58.3" font-family="Helvetica,sans-Serif" font-size="14.00">orgDisplayName</text>
</a>
</g>
<!-- Organisation&#45;&gt;http://www.w3.org/2000/01/rdf&#45;schema#Literal -->
<g id="edge18" class="edge"><title>Organisation&#45;&gt;http://www.w3.org/2000/01/rdf&#45;schema#Literal</title>
<a xlink:href="./#orgName" xlink:title="orgName">
<path fill="none" stroke="darkslategray" d="M713.703,-24.1309C754.388,-29.0085 803.125,-38.0459 816,-54 823.055,-62.7418 818.511,-72.5047 810.407,-81.13"/>
<polygon fill="darkslategray" stroke="darkslategray" points="807.888,-78.6926 802.939,-88.0603 812.65,-83.8236 807.888,-78.6926"/>
</a>
<a xlink:href="./#orgName" xlink:title="orgName">
<text text-anchor="middle" x="850.5" y="-58.3" font-family="Helvetica,sans-Serif" font-size="14.00">orgName</text>
</a>
</g>
<!-- Organisation&#45;&gt;http://www.w3.org/2000/01/rdf&#45;schema#Literal -->
<g id="edge20" class="edge"><title>Organisation&#45;&gt;http://www.w3.org/2000/01/rdf&#45;schema#Literal</title>
<a xlink:href="./#orgNativeName" xlink:title="orgNativeName">
<path fill="none" stroke="darkslategray" d="M717.028,-19.6542C777.834,-21.7818 863.711,-29.2422 885,-54 896.916,-67.8569 887.825,-78.2175 870.78,-85.8468"/>
<polygon fill="darkslategray" stroke="darkslategray" points="869.248,-82.6879 861.211,-89.5915 871.799,-89.2066 869.248,-82.6879"/>
</a>
<a xlink:href="./#orgNativeName" xlink:title="orgNativeName">
<text text-anchor="middle" x="942.5" y="-58.3" font-family="Helvetica,sans-Serif" font-size="14.00">orgNativeName</text>
</a>
</g>
<!-- http://xmlns.com/foaf/0.1/Document -->
<g id="node19" class="node"><title>http://xmlns.com/foaf/0.1/Document</title>
<a xlink:href="./#http://xmlns.com/foaf/0.1/Document" xlink:title="http://xmlns.com/foaf/0.1/Document">
<ellipse fill="none" stroke="gray" cx="1152" cy="-106" rx="156.772" ry="18"/>
<text text-anchor="middle" x="1152" y="-102.3" font-family="Helvetica,sans-Serif" font-size="14.00" fill="gray">http://xmlns.com/foaf/0.1/Document</text>
</a>
</g>
<!-- Organisation&#45;&gt;http://xmlns.com/foaf/0.1/Document -->
<g id="edge22" class="edge"><title>Organisation&#45;&gt;http://xmlns.com/foaf/0.1/Document</title>
<a xlink:href="./#organisationHomepage" xlink:title="organisationHomepage">
<path fill="none" stroke="darkslategray" d="M716.151,-21.243C785.536,-24.6879 900.844,-33.2313 998,-54 1033.01,-61.4848 1071.23,-74.1128 1100.83,-84.93"/>
<polygon fill="darkslategray" stroke="darkslategray" points="1099.93,-88.3285 1110.52,-88.5189 1102.36,-81.7641 1099.93,-88.3285"/>
</a>
<a xlink:href="./#organisationHomepage" xlink:title="organisationHomepage">
<text text-anchor="middle" x="1129" y="-58.3" font-family="Helvetica,sans-Serif" font-size="14.00">organisationHomepage</text>
</a>
</g>
<!-- http://xmlns.com/foaf/0.1/Agent -->
<g id="node11" class="node"><title>http://xmlns.com/foaf/0.1/Agent</title>
<a xlink:href="./#http://xmlns.com/foaf/0.1/Organisation" xlink:title="http://xmlns.com/foaf/0.1/Agent">
<ellipse fill="none" stroke="gray" cx="165" cy="-180" rx="139.175" ry="18"/>
<text text-anchor="middle" x="165" y="-176.3" font-family="Helvetica,sans-Serif" font-size="14.00" fill="gray">http://xmlns.com/foaf/0.1/Agent</text>
</a>
</g>
<!-- http://xmlns.com/foaf/0.1/Organisation&#45;&gt;http://xmlns.com/foaf/0.1/Agent -->
<g id="edge10" class="edge"><title>http://xmlns.com/foaf/0.1/Organisation&#45;&gt;http://xmlns.com/foaf/0.1/Agent</title>
<path fill="none" stroke="red" stroke-dasharray="5,2" d="M165,-124.063C165,-132.193 165,-142.124 165,-151.295"/>
<polygon fill="red" stroke="red" points="161.5,-151.559 165,-161.559 168.5,-151.559 161.5,-151.559"/>
</g>
<!-- Response -->
<g id="node8" class="node"><title>Response</title>
<a xlink:href="./#Response" xlink:title="Response">
<ellipse fill="none" stroke="black" cx="1417" cy="-18" rx="53.8905" ry="18"/>
<text text-anchor="middle" x="1417" y="-14.3" font-family="Helvetica,sans-Serif" font-size="14.00">Response</text>
</a>
</g>
<!-- LocatedBaseClass -->
<g id="node9" class="node"><title>LocatedBaseClass</title>
<a xlink:href="./#Response" xlink:title="LocatedBaseClass">
<ellipse fill="none" stroke="gray" cx="1417" cy="-106" rx="90.1842" ry="18"/>
<text text-anchor="middle" x="1417" y="-102.3" font-family="Helvetica,sans-Serif" font-size="14.00" fill="gray">LocatedBaseClass</text>
</a>
</g>
<!-- Response&#45;&gt;LocatedBaseClass -->
<g id="edge8" class="edge"><title>Response&#45;&gt;LocatedBaseClass</title>
<path fill="none" stroke="red" stroke-dasharray="5,2" d="M1417,-36.4034C1417,-48.2541 1417,-64.1831 1417,-77.7083"/>
<polygon fill="red" stroke="red" points="1413.5,-77.916 1417,-87.916 1420.5,-77.916 1413.5,-77.916"/>
</g>
</g>
</svg>
