<?xml version="1.0" encoding="UTF-8" standalone="no"?>
<!DOCTYPE svg PUBLIC "-//W3C//DTD SVG 1.1//EN"
 "http://www.w3.org/Graphics/SVG/1.1/DTD/svg11.dtd">
<!-- Generated by graphviz version 2.28.0 (20121022.1408)
 -->
<!-- Title: _anonymous_0 Pages: 1 -->
<svg width="1263pt" height="220pt"
 viewBox="0.00 0.00 1263.00 220.00" xmlns="http://www.w3.org/2000/svg" xmlns:xlink="http://www.w3.org/1999/xlink">
<g id="graph1" class="graph" transform="scale(1 1) rotate(0) translate(4 216)">
<title>_anonymous_0</title>
<polygon fill="white" stroke="white" points="-4,5 -4,-216 1260,-216 1260,5 -4,5"/>
<!-- Emergency -->
<g id="node1" class="node"><title>Emergency</title>
<a xlink:href="./#Emergency" xlink:title="Emergency">
<ellipse fill="none" stroke="black" cx="329" cy="-18" rx="59.2899" ry="18"/>
<text text-anchor="middle" x="329" y="-14.3" font-family="Helvetica,sans-Serif" font-size="14.00">Emergency</text>
</a>
</g>
<!-- Situation -->
<g id="node3" class="node"><title>Situation</title>
<a xlink:href="./#Situation" xlink:title="Situation">
<ellipse fill="none" stroke="black" cx="200" cy="-106" rx="46.5926" ry="18"/>
<text text-anchor="middle" x="200" y="-102.3" font-family="Helvetica,sans-Serif" font-size="14.00">Situation</text>
</a>
</g>
<!-- Emergency&#45;&gt;Situation -->
<g id="edge2" class="edge"><title>Emergency&#45;&gt;Situation</title>
<path fill="none" stroke="red" stroke-dasharray="5,2" d="M305.639,-34.574C284.651,-48.5661 253.688,-69.2078 230.705,-84.5303"/>
<polygon fill="red" stroke="red" points="228.703,-81.6581 222.324,-90.1174 232.586,-87.4825 228.703,-81.6581"/>
</g>
<!-- http://www.w3.org/2001/XMLSchema#string -->
<g id="node18" class="node"><title>http://www.w3.org/2001/XMLSchema#string</title>
<a xlink:href="./#http://www.w3.org/2001/XMLSchema#string" xlink:title="http://www.w3.org/2001/XMLSchema#string">
<ellipse fill="none" stroke="gray" cx="458" cy="-106" rx="193.066" ry="18"/>
<text text-anchor="middle" x="458" y="-102.3" font-family="Helvetica,sans-Serif" font-size="14.00" fill="gray">http://www.w3.org/2001/XMLSchema#string</text>
</a>
</g>
<!-- Emergency&#45;&gt;http://www.w3.org/2001/XMLSchema#string -->
<g id="edge16" class="edge"><title>Emergency&#45;&gt;http://www.w3.org/2001/XMLSchema#string</title>
<a xlink:href="./#hasGLIDEnumber" xlink:title="hasGLIDEnumber">
<path fill="none" stroke="darkslategray" d="M352.361,-34.574C372.359,-47.9062 401.413,-67.2756 423.992,-82.3282"/>
<polygon fill="darkslategray" stroke="darkslategray" points="422.343,-85.4353 432.605,-88.0701 426.226,-79.6109 422.343,-85.4353"/>
</a>
<a xlink:href="./#hasGLIDEnumber" xlink:title="hasGLIDEnumber">
<text text-anchor="middle" x="463.5" y="-58.3" font-family="Helvetica,sans-Serif" font-size="14.00">hasGLIDEnumber</text>
</a>
</g>
<!-- LocatedBaseClass -->
<g id="node5" class="node"><title>LocatedBaseClass</title>
<a xlink:href="./#Situation" xlink:title="LocatedBaseClass">
<ellipse fill="none" stroke="gray" cx="562" cy="-194" rx="90.1842" ry="18"/>
<text text-anchor="middle" x="562" y="-190.3" font-family="Helvetica,sans-Serif" font-size="14.00" fill="gray">LocatedBaseClass</text>
</a>
</g>
<!-- Situation&#45;&gt;LocatedBaseClass -->
<g id="edge8" class="edge"><title>Situation&#45;&gt;LocatedBaseClass</title>
<path fill="none" stroke="red" stroke-dasharray="5,2" d="M234.839,-118.005C241.821,-120.089 249.124,-122.184 256,-124 336.051,-145.146 428.947,-165.512 491.197,-178.566"/>
<polygon fill="red" stroke="red" points="490.796,-182.058 501.301,-180.677 492.228,-175.206 490.796,-182.058"/>
</g>
<!-- http://www.w3.org/2000/01/rdf&#45;schema#Literal -->
<g id="node14" class="node"><title>http://www.w3.org/2000/01/rdf&#45;schema#Literal</title>
<a xlink:href="./#http://www.w3.org/2000/01/rdf-schema#Literal" xlink:title="http://www.w3.org/2000/01/rdf&#45;schema#Literal">
<ellipse fill="none" stroke="gray" cx="200" cy="-194" rx="200.365" ry="18"/>
<text text-anchor="middle" x="200" y="-190.3" font-family="Helvetica,sans-Serif" font-size="14.00" fill="gray">http://www.w3.org/2000/01/rdf&#45;schema#Literal</text>
</a>
</g>
<!-- Situation&#45;&gt;http://www.w3.org/2000/01/rdf&#45;schema#Literal -->
<g id="edge12" class="edge"><title>Situation&#45;&gt;http://www.w3.org/2000/01/rdf&#45;schema#Literal</title>
<a xlink:href="./#commonTitle" xlink:title="commonTitle">
<path fill="none" stroke="darkslategray" d="M200,-124.403C200,-136.254 200,-152.183 200,-165.708"/>
<polygon fill="darkslategray" stroke="darkslategray" points="196.5,-165.916 200,-175.916 203.5,-165.916 196.5,-165.916"/>
</a>
<a xlink:href="./#commonTitle" xlink:title="commonTitle">
<text text-anchor="middle" x="242.5" y="-146.3" font-family="Helvetica,sans-Serif" font-size="14.00">commonTitle</text>
</a>
</g>
<!-- Incident -->
<g id="node4" class="node"><title>Incident</title>
<a xlink:href="./#Incident" xlink:title="Incident">
<ellipse fill="none" stroke="black" cx="713" cy="-106" rx="44.393" ry="18"/>
<text text-anchor="middle" x="713" y="-102.3" font-family="Helvetica,sans-Serif" font-size="14.00">Incident</text>
</a>
</g>
<!-- Incident&#45;&gt;LocatedBaseClass -->
<g id="edge4" class="edge"><title>Incident&#45;&gt;LocatedBaseClass</title>
<path fill="none" stroke="red" stroke-dasharray="5,2" d="M688.403,-121.009C664.302,-134.735 627.247,-155.84 599.478,-171.655"/>
<polygon fill="red" stroke="red" points="597.406,-168.807 590.448,-176.798 600.87,-174.89 597.406,-168.807"/>
</g>
<!-- Need -->
<g id="node7" class="node"><title>Need</title>
<a xlink:href="./#Need" xlink:title="Need">
<ellipse fill="none" stroke="black" cx="903" cy="-18" rx="34.394" ry="18"/>
<text text-anchor="middle" x="903" y="-14.3" font-family="Helvetica,sans-Serif" font-size="14.00">Need</text>
</a>
</g>
<!-- BaseClass -->
<g id="node8" class="node"><title>BaseClass</title>
<a xlink:href="./#BaseClass" xlink:title="BaseClass">
<ellipse fill="none" stroke="gray" cx="903" cy="-106" rx="55.7903" ry="18"/>
<text text-anchor="middle" x="903" y="-102.3" font-family="Helvetica,sans-Serif" font-size="14.00" fill="gray">BaseClass</text>
</a>
</g>
<!-- Need&#45;&gt;BaseClass -->
<g id="edge6" class="edge"><title>Need&#45;&gt;BaseClass</title>
<path fill="none" stroke="red" stroke-dasharray="5,2" d="M903,-36.4034C903,-48.2541 903,-64.1831 903,-77.7083"/>
<polygon fill="red" stroke="red" points="899.5,-77.916 903,-87.916 906.5,-77.916 899.5,-77.916"/>
</g>
<!-- http://www.w3.org/2001/XMLSchema#int -->
<g id="node16" class="node"><title>http://www.w3.org/2001/XMLSchema#int</title>
<a xlink:href="./#http://www.w3.org/2001/XMLSchema#int" xlink:title="http://www.w3.org/2001/XMLSchema#int">
<ellipse fill="none" stroke="gray" cx="903" cy="-194" rx="180.068" ry="18"/>
<text text-anchor="middle" x="903" y="-190.3" font-family="Helvetica,sans-Serif" font-size="14.00" fill="gray">http://www.w3.org/2001/XMLSchema#int</text>
</a>
</g>
<!-- BaseClass&#45;&gt;http://www.w3.org/2001/XMLSchema#int -->
<g id="edge14" class="edge"><title>BaseClass&#45;&gt;http://www.w3.org/2001/XMLSchema#int</title>
<a xlink:href="./#count" xlink:title="count">
<path fill="none" stroke="darkslategray" d="M903,-124.403C903,-136.254 903,-152.183 903,-165.708"/>
<polygon fill="darkslategray" stroke="darkslategray" points="899.5,-165.916 903,-175.916 906.5,-165.916 899.5,-165.916"/>
</a>
<a xlink:href="./#count" xlink:title="count">
<text text-anchor="middle" x="921" y="-146.3" font-family="Helvetica,sans-Serif" font-size="14.00">count</text>
</a>
</g>
<!-- http://xmlns.com/foaf/0.1/Agent -->
<g id="node11" class="node"><title>http://xmlns.com/foaf/0.1/Agent</title>
<a xlink:href="./#http://xmlns.com/foaf/0.1/Agent" xlink:title="http://xmlns.com/foaf/0.1/Agent">
<ellipse fill="none" stroke="black" cx="1116" cy="-106" rx="139.175" ry="18"/>
<text text-anchor="middle" x="1116" y="-102.3" font-family="Helvetica,sans-Serif" font-size="14.00">http://xmlns.com/foaf/0.1/Agent</text>
</a>
</g>
<!-- http://xmlns.com/foaf/0.1/Group -->
<g id="node12" class="node"><title>http://xmlns.com/foaf/0.1/Group</title>
<a xlink:href="./#http://xmlns.com/foaf/0.1/Group" xlink:title="http://xmlns.com/foaf/0.1/Group">
<ellipse fill="none" stroke="black" cx="1116" cy="-18" rx="139.976" ry="18"/>
<text text-anchor="middle" x="1116" y="-14.3" font-family="Helvetica,sans-Serif" font-size="14.00">http://xmlns.com/foaf/0.1/Group</text>
</a>
</g>
<!-- http://xmlns.com/foaf/0.1/Group&#45;&gt;http://xmlns.com/foaf/0.1/Agent -->
<g id="edge10" class="edge"><title>http://xmlns.com/foaf/0.1/Group&#45;&gt;http://xmlns.com/foaf/0.1/Agent</title>
<path fill="none" stroke="red" stroke-dasharray="5,2" d="M1116,-36.4034C1116,-48.2541 1116,-64.1831 1116,-77.7083"/>
<polygon fill="red" stroke="red" points="1112.5,-77.916 1116,-87.916 1119.5,-77.916 1112.5,-77.916"/>
</g>
</g>
</svg>
