<?xml version="1.0" encoding="UTF-8" standalone="no"?>
<!DOCTYPE svg PUBLIC "-//W3C//DTD SVG 1.1//EN"
 "http://www.w3.org/Graphics/SVG/1.1/DTD/svg11.dtd">
<!-- Generated by graphviz version 2.28.0 (20121022.1408)
 -->
<!-- Title: _anonymous_0 Pages: 1 -->
<svg width="3138pt" height="116pt"
 viewBox="0.00 0.00 3138.00 116.00" xmlns="http://www.w3.org/2000/svg" xmlns:xlink="http://www.w3.org/1999/xlink">
<g id="graph1" class="graph" transform="scale(1 1) rotate(0) translate(4 112)">
<title>_anonymous_0</title>
<polygon fill="white" stroke="white" points="-4,5 -4,-112 3135,-112 3135,5 -4,5"/>
<!-- BoreholeDrilling -->
<g id="node1" class="node"><title>BoreholeDrilling</title>
<a xlink:href="./#BoreholeDrilling" xlink:title="BoreholeDrilling">
<ellipse fill="none" stroke="black" cx="76" cy="-18" rx="76.8869" ry="18"/>
<text text-anchor="middle" x="76" y="-14.3" font-family="Helvetica,sans-Serif" font-size="14.00">BoreholeDrilling</text>
</a>
</g>
<!-- Activity -->
<g id="node2" class="node"><title>Activity</title>
<a xlink:href="./#WaterTrucking" xlink:title="Activity">
<ellipse fill="none" stroke="gray" cx="1190" cy="-90" rx="42.7926" ry="18"/>
<text text-anchor="middle" x="1190" y="-86.3" font-family="Helvetica,sans-Serif" font-size="14.00" fill="gray">Activity</text>
</a>
</g>
<!-- BoreholeDrilling&#45;&gt;Activity -->
<g id="edge2" class="edge"><title>BoreholeDrilling&#45;&gt;Activity</title>
<path fill="none" stroke="red" stroke-dasharray="5,2" d="M129.942,-30.8927C140.527,-32.8776 151.578,-34.7081 162,-36 533.442,-82.0453 985.173,-88.2234 1137.21,-88.9476"/>
<polygon fill="red" stroke="red" points="1137.2,-92.4475 1147.21,-88.9893 1137.23,-85.4475 1137.2,-92.4475"/>
</g>
<!-- CommunalLatrineBuilding -->
<g id="node4" class="node"><title>CommunalLatrineBuilding</title>
<a xlink:href="./#CommunalLatrineBuilding" xlink:title="CommunalLatrineBuilding">
<ellipse fill="none" stroke="black" cx="287" cy="-18" rx="116.18" ry="18"/>
<text text-anchor="middle" x="287" y="-14.3" font-family="Helvetica,sans-Serif" font-size="14.00">CommunalLatrineBuilding</text>
</a>
</g>
<!-- CommunalLatrineBuilding&#45;&gt;Activity -->
<g id="edge4" class="edge"><title>CommunalLatrineBuilding&#45;&gt;Activity</title>
<path fill="none" stroke="red" stroke-dasharray="5,2" d="M368.602,-30.9012C383.04,-32.7774 397.947,-34.5673 412,-36 684.483,-63.7785 1012.19,-80.7522 1137.65,-86.6499"/>
<polygon fill="red" stroke="red" points="1137.6,-90.151 1147.75,-87.121 1137.92,-83.1586 1137.6,-90.151"/>
</g>
<!-- CommunalLatrineRehabilitation -->
<g id="node6" class="node"><title>CommunalLatrineRehabilitation</title>
<a xlink:href="./#CommunalLatrineRehabilitation" xlink:title="CommunalLatrineRehabilitation">
<ellipse fill="none" stroke="black" cx="561" cy="-18" rx="139.976" ry="18"/>
<text text-anchor="middle" x="561" y="-14.3" font-family="Helvetica,sans-Serif" font-size="14.00">CommunalLatrineRehabilitation</text>
</a>
</g>
<!-- CommunalLatrineRehabilitation&#45;&gt;Activity -->
<g id="edge6" class="edge"><title>CommunalLatrineRehabilitation&#45;&gt;Activity</title>
<path fill="none" stroke="red" stroke-dasharray="5,2" d="M661.581,-30.5261C677.77,-32.3667 694.347,-34.2428 710,-36 866.321,-53.5478 1051.34,-73.8427 1139.02,-83.4322"/>
<polygon fill="red" stroke="red" points="1138.9,-86.94 1149.22,-84.5477 1139.66,-79.9814 1138.9,-86.94"/>
</g>
<!-- HygieneKit -->
<g id="node8" class="node"><title>HygieneKit</title>
<a xlink:href="./#HygieneKit" xlink:title="HygieneKit">
<ellipse fill="none" stroke="black" cx="2689" cy="-18" rx="57.6901" ry="18"/>
<text text-anchor="middle" x="2689" y="-14.3" font-family="Helvetica,sans-Serif" font-size="14.00">HygieneKit</text>
</a>
</g>
<!-- Kit -->
<g id="node9" class="node"><title>Kit</title>
<a xlink:href="./#HygieneKit" xlink:title="Kit">
<ellipse fill="none" stroke="gray" cx="2689" cy="-90" rx="27" ry="18"/>
<text text-anchor="middle" x="2689" y="-86.3" font-family="Helvetica,sans-Serif" font-size="14.00" fill="gray">Kit</text>
</a>
</g>
<!-- HygieneKit&#45;&gt;Kit -->
<g id="edge8" class="edge"><title>HygieneKit&#45;&gt;Kit</title>
<path fill="none" stroke="red" stroke-dasharray="5,2" d="M2689,-36.3034C2689,-44.0173 2689,-53.2875 2689,-61.8876"/>
<polygon fill="red" stroke="red" points="2685.5,-61.8956 2689,-71.8957 2692.5,-61.8957 2685.5,-61.8956"/>
</g>
<!-- HygieneKitDistribution -->
<g id="node11" class="node"><title>HygieneKitDistribution</title>
<a xlink:href="./#HygieneKitDistribution" xlink:title="HygieneKitDistribution">
<ellipse fill="none" stroke="black" cx="2869" cy="-18" rx="104.782" ry="18"/>
<text text-anchor="middle" x="2869" y="-14.3" font-family="Helvetica,sans-Serif" font-size="14.00">HygieneKitDistribution</text>
</a>
</g>
<!-- Distribution -->
<g id="node12" class="node"><title>Distribution</title>
<a xlink:href="./#HygieneKitDistribution" xlink:title="Distribution">
<ellipse fill="none" stroke="gray" cx="2869" cy="-90" rx="57.6901" ry="18"/>
<text text-anchor="middle" x="2869" y="-86.3" font-family="Helvetica,sans-Serif" font-size="14.00" fill="gray">Distribution</text>
</a>
</g>
<!-- HygieneKitDistribution&#45;&gt;Distribution -->
<g id="edge10" class="edge"><title>HygieneKitDistribution&#45;&gt;Distribution</title>
<path fill="none" stroke="red" stroke-dasharray="5,2" d="M2869,-36.3034C2869,-44.0173 2869,-53.2875 2869,-61.8876"/>
<polygon fill="red" stroke="red" points="2865.5,-61.8956 2869,-71.8957 2872.5,-61.8957 2865.5,-61.8956"/>
</g>
<!-- HygienePromotion -->
<g id="node14" class="node"><title>HygienePromotion</title>
<a xlink:href="./#HygienePromotion" xlink:title="HygienePromotion">
<ellipse fill="none" stroke="black" cx="808" cy="-18" rx="89.0842" ry="18"/>
<text text-anchor="middle" x="808" y="-14.3" font-family="Helvetica,sans-Serif" font-size="14.00">HygienePromotion</text>
</a>
</g>
<!-- HygienePromotion&#45;&gt;Activity -->
<g id="edge12" class="edge"><title>HygienePromotion&#45;&gt;Activity</title>
<path fill="none" stroke="red" stroke-dasharray="5,2" d="M871.508,-30.6377C947.585,-44.5785 1073.33,-67.6199 1141.85,-80.1759"/>
<polygon fill="red" stroke="red" points="1141.46,-83.6642 1151.93,-82.024 1142.73,-76.7788 1141.46,-83.6642"/>
</g>
<!-- PipeBuilding -->
<g id="node16" class="node"><title>PipeBuilding</title>
<a xlink:href="./#PipeBuilding" xlink:title="PipeBuilding">
<ellipse fill="none" stroke="black" cx="978" cy="-18" rx="63.0888" ry="18"/>
<text text-anchor="middle" x="978" y="-14.3" font-family="Helvetica,sans-Serif" font-size="14.00">PipeBuilding</text>
</a>
</g>
<!-- PipeBuilding&#45;&gt;Activity -->
<g id="edge14" class="edge"><title>PipeBuilding&#45;&gt;Activity</title>
<path fill="none" stroke="red" stroke-dasharray="5,2" d="M1017.88,-32.1665C1054.98,-44.4182 1110.08,-62.6129 1147.89,-75.0962"/>
<polygon fill="red" stroke="red" points="1146.99,-78.4857 1157.59,-78.2977 1149.19,-71.8387 1146.99,-78.4857"/>
</g>
<!-- RainwaterCatchmentBuilding -->
<g id="node18" class="node"><title>RainwaterCatchmentBuilding</title>
<a xlink:href="./#RainwaterCatchmentBuilding" xlink:title="RainwaterCatchmentBuilding">
<ellipse fill="none" stroke="black" cx="1190" cy="-18" rx="131.077" ry="18"/>
<text text-anchor="middle" x="1190" y="-14.3" font-family="Helvetica,sans-Serif" font-size="14.00">RainwaterCatchmentBuilding</text>
</a>
</g>
<!-- RainwaterCatchmentBuilding&#45;&gt;Activity -->
<g id="edge16" class="edge"><title>RainwaterCatchmentBuilding&#45;&gt;Activity</title>
<path fill="none" stroke="red" stroke-dasharray="5,2" d="M1190,-36.3034C1190,-44.0173 1190,-53.2875 1190,-61.8876"/>
<polygon fill="red" stroke="red" points="1186.5,-61.8956 1190,-71.8957 1193.5,-61.8957 1186.5,-61.8956"/>
</g>
<!-- RainwaterCatchmentRehabilitation -->
<g id="node20" class="node"><title>RainwaterCatchmentRehabilitation</title>
<a xlink:href="./#RainwaterCatchmentRehabilitation" xlink:title="RainwaterCatchmentRehabilitation">
<ellipse fill="none" stroke="black" cx="1493" cy="-18" rx="154.073" ry="18"/>
<text text-anchor="middle" x="1493" y="-14.3" font-family="Helvetica,sans-Serif" font-size="14.00">RainwaterCatchmentRehabilitation</text>
</a>
</g>
<!-- RainwaterCatchmentRehabilitation&#45;&gt;Activity -->
<g id="edge18" class="edge"><title>RainwaterCatchmentRehabilitation&#45;&gt;Activity</title>
<path fill="none" stroke="red" stroke-dasharray="5,2" d="M1426.88,-34.2753C1369.37,-47.5605 1287.5,-66.4753 1236.62,-78.2302"/>
<polygon fill="red" stroke="red" points="1235.52,-74.8923 1226.56,-80.5535 1237.09,-81.7127 1235.52,-74.8923"/>
</g>
<!-- ShallowWellImprovement -->
<g id="node22" class="node"><title>ShallowWellImprovement</title>
<a xlink:href="./#ShallowWellImprovement" xlink:title="ShallowWellImprovement">
<ellipse fill="none" stroke="black" cx="1783" cy="-18" rx="117.779" ry="18"/>
<text text-anchor="middle" x="1783" y="-14.3" font-family="Helvetica,sans-Serif" font-size="14.00">ShallowWellImprovement</text>
</a>
</g>
<!-- ShallowWellImprovement&#45;&gt;Activity -->
<g id="edge20" class="edge"><title>ShallowWellImprovement&#45;&gt;Activity</title>
<path fill="none" stroke="red" stroke-dasharray="5,2" d="M1698.66,-30.5275C1684.43,-32.4048 1669.8,-34.292 1656,-36 1504.97,-54.6952 1326.08,-74.3426 1240.51,-83.5868"/>
<polygon fill="red" stroke="red" points="1240.12,-80.1092 1230.55,-84.6618 1240.87,-87.0688 1240.12,-80.1092"/>
</g>
<!-- SolidWasteContainerInstallment -->
<g id="node24" class="node"><title>SolidWasteContainerInstallment</title>
<a xlink:href="./#SolidWasteContainerInstallment" xlink:title="SolidWasteContainerInstallment">
<ellipse fill="none" stroke="black" cx="2062" cy="-18" rx="143.775" ry="18"/>
<text text-anchor="middle" x="2062" y="-14.3" font-family="Helvetica,sans-Serif" font-size="14.00">SolidWasteContainerInstallment</text>
</a>
</g>
<!-- SolidWasteContainerInstallment&#45;&gt;Activity -->
<g id="edge22" class="edge"><title>SolidWasteContainerInstallment&#45;&gt;Activity</title>
<path fill="none" stroke="red" stroke-dasharray="5,2" d="M1960.83,-30.7771C1943.55,-32.6351 1925.77,-34.4512 1909,-36 1659.47,-59.0514 1360.48,-78.4634 1242.01,-85.8298"/>
<polygon fill="red" stroke="red" points="1241.55,-82.3517 1231.78,-86.4636 1241.98,-89.3383 1241.55,-82.3517"/>
</g>
<!-- WASHCluster -->
<g id="node26" class="node"><title>WASHCluster</title>
<a xlink:href="./#WASHCluster" xlink:title="WASHCluster">
<ellipse fill="none" stroke="black" cx="3061" cy="-18" rx="69.5877" ry="18"/>
<text text-anchor="middle" x="3061" y="-14.3" font-family="Helvetica,sans-Serif" font-size="14.00">WASHCluster</text>
</a>
</g>
<!-- Cluster -->
<g id="node27" class="node"><title>Cluster</title>
<a xlink:href="./#WASHCluster" xlink:title="Cluster">
<ellipse fill="none" stroke="gray" cx="3061" cy="-90" rx="40.0939" ry="18"/>
<text text-anchor="middle" x="3061" y="-86.3" font-family="Helvetica,sans-Serif" font-size="14.00" fill="gray">Cluster</text>
</a>
</g>
<!-- WASHCluster&#45;&gt;Cluster -->
<g id="edge24" class="edge"><title>WASHCluster&#45;&gt;Cluster</title>
<path fill="none" stroke="red" stroke-dasharray="5,2" d="M3061,-36.3034C3061,-44.0173 3061,-53.2875 3061,-61.8876"/>
<polygon fill="red" stroke="red" points="3057.5,-61.8956 3061,-71.8957 3064.5,-61.8957 3057.5,-61.8956"/>
</g>
<!-- WaterSourceChlorination -->
<g id="node29" class="node"><title>WaterSourceChlorination</title>
<a xlink:href="./#WaterSourceChlorination" xlink:title="WaterSourceChlorination">
<ellipse fill="none" stroke="black" cx="2338" cy="-18" rx="114.28" ry="18"/>
<text text-anchor="middle" x="2338" y="-14.3" font-family="Helvetica,sans-Serif" font-size="14.00">WaterSourceChlorination</text>
</a>
</g>
<!-- WaterSourceChlorination&#45;&gt;Activity -->
<g id="edge26" class="edge"><title>WaterSourceChlorination&#45;&gt;Activity</title>
<path fill="none" stroke="red" stroke-dasharray="5,2" d="M2258.4,-30.9255C2243.67,-32.8454 2228.39,-34.644 2214,-36 1843.18,-70.9521 1394.49,-84.1744 1242.92,-87.8391"/>
<polygon fill="red" stroke="red" points="1242.44,-84.3495 1232.52,-88.0867 1242.61,-91.3475 1242.44,-84.3495"/>
</g>
<!-- WaterTrucking -->
<g id="node31" class="node"><title>WaterTrucking</title>
<a xlink:href="./#WaterTrucking" xlink:title="WaterTrucking">
<ellipse fill="none" stroke="black" cx="2542" cy="-18" rx="71.4873" ry="18"/>
<text text-anchor="middle" x="2542" y="-14.3" font-family="Helvetica,sans-Serif" font-size="14.00">WaterTrucking</text>
</a>
</g>
<!-- WaterTrucking&#45;&gt;Activity -->
<g id="edge28" class="edge"><title>WaterTrucking&#45;&gt;Activity</title>
<path fill="none" stroke="red" stroke-dasharray="5,2" d="M2491.66,-30.9075C2481.56,-32.9172 2470.98,-34.7532 2461,-36 2219.36,-66.1854 1450.86,-83.695 1242.53,-87.9679"/>
<polygon fill="red" stroke="red" points="1242.39,-84.4699 1232.46,-88.1729 1242.53,-91.4684 1242.39,-84.4699"/>
</g>
</g>
</svg>
