<?xml version="1.0" encoding="UTF-8" standalone="no"?>
<!DOCTYPE svg PUBLIC "-//W3C//DTD SVG 1.1//EN"
 "http://www.w3.org/Graphics/SVG/1.1/DTD/svg11.dtd">
<!-- Generated by graphviz version 2.28.0 (20110507.0327)
 -->
<!-- Title: _anonymous_0 Pages: 1 -->
<svg width="3090pt" height="116pt"
 viewBox="0.00 0.00 3090.00 116.00" xmlns="http://www.w3.org/2000/svg" xmlns:xlink="http://www.w3.org/1999/xlink">
<g id="graph1" class="graph" transform="scale(1 1) rotate(0) translate(4 112)">
<title>_anonymous_0</title>
<polygon fill="white" stroke="white" points="-4,5 -4,-112 3087,-112 3087,5 -4,5"/>
<!-- BoreholeDrilling -->
<g id="node1" class="node"><title>BoreholeDrilling</title>
<a xlink:href="./#BoreholeDrilling" xlink:title="BoreholeDrilling">
<ellipse fill="none" stroke="black" cx="76" cy="-18" rx="76.0865" ry="18"/>
<text text-anchor="middle" x="76" y="-14.3" font-family="Helvetica,sans-Serif" font-size="14.00">BoreholeDrilling</text>
</a>
</g>
<!-- Activity -->
<g id="node2" class="node"><title>Activity</title>
<a xlink:href="./#WaterTrucking" xlink:title="Activity">
<ellipse fill="none" stroke="gray" cx="1175" cy="-90" rx="39.7935" ry="18"/>
<text text-anchor="middle" x="1175" y="-86.3" font-family="Helvetica,sans-Serif" font-size="14.00" fill="gray">Activity</text>
</a>
</g>
<!-- BoreholeDrilling&#45;&gt;Activity -->
<g id="edge2" class="edge"><title>BoreholeDrilling&#45;&gt;Activity</title>
<path fill="none" stroke="red" stroke-dasharray="5,2" d="M129.311,-30.8915C139.773,-32.8765 150.697,-34.7074 161,-36 529.525,-82.2353 978.289,-88.2656 1125.59,-88.9519"/>
<polygon fill="red" stroke="red" points="1125.66,-92.4521 1135.67,-88.9926 1125.68,-85.4522 1125.66,-92.4521"/>
</g>
<!-- CommunalLatrineBuilding -->
<g id="node4" class="node"><title>CommunalLatrineBuilding</title>
<a xlink:href="./#CommunalLatrineBuilding" xlink:title="CommunalLatrineBuilding">
<ellipse fill="none" stroke="black" cx="286" cy="-18" rx="115.88" ry="18"/>
<text text-anchor="middle" x="286" y="-14.3" font-family="Helvetica,sans-Serif" font-size="14.00">CommunalLatrineBuilding</text>
</a>
</g>
<!-- CommunalLatrineBuilding&#45;&gt;Activity -->
<g id="edge4" class="edge"><title>CommunalLatrineBuilding&#45;&gt;Activity</title>
<path fill="none" stroke="red" stroke-dasharray="5,2" d="M366.948,-30.894C381.271,-32.771 396.059,-34.563 410,-36 679.582,-63.7863 1004.15,-80.895 1125.8,-86.7376"/>
<polygon fill="red" stroke="red" points="1125.76,-90.2395 1135.91,-87.2198 1126.09,-83.2474 1125.76,-90.2395"/>
</g>
<!-- CommunalLatrineRehabilitation -->
<g id="node6" class="node"><title>CommunalLatrineRehabilitation</title>
<a xlink:href="./#CommunalLatrineRehabilitation" xlink:title="CommunalLatrineRehabilitation">
<ellipse fill="none" stroke="black" cx="557" cy="-18" rx="137.576" ry="18"/>
<text text-anchor="middle" x="557" y="-14.3" font-family="Helvetica,sans-Serif" font-size="14.00">CommunalLatrineRehabilitation</text>
</a>
</g>
<!-- CommunalLatrineRehabilitation&#45;&gt;Activity -->
<g id="edge6" class="edge"><title>CommunalLatrineRehabilitation&#45;&gt;Activity</title>
<path fill="none" stroke="red" stroke-dasharray="5,2" d="M656.232,-30.5179C672.203,-32.3596 688.557,-34.2382 704,-36 858.612,-53.6391 1041.82,-74.1399 1127.01,-83.6487"/>
<polygon fill="red" stroke="red" points="1126.82,-87.1493 1137.14,-84.7802 1127.59,-80.1925 1126.82,-87.1493"/>
</g>
<!-- HygieneKit -->
<g id="node8" class="node"><title>HygieneKit</title>
<a xlink:href="./#HygieneKit" xlink:title="HygieneKit">
<ellipse fill="none" stroke="black" cx="2653" cy="-18" rx="55.4913" ry="18"/>
<text text-anchor="middle" x="2653" y="-14.3" font-family="Helvetica,sans-Serif" font-size="14.00">HygieneKit</text>
</a>
</g>
<!-- Kit -->
<g id="node9" class="node"><title>Kit</title>
<a xlink:href="./#HygieneKit" xlink:title="Kit">
<ellipse fill="none" stroke="gray" cx="2653" cy="-90" rx="27" ry="18"/>
<text text-anchor="middle" x="2653" y="-86.3" font-family="Helvetica,sans-Serif" font-size="14.00" fill="gray">Kit</text>
</a>
</g>
<!-- HygieneKit&#45;&gt;Kit -->
<g id="edge8" class="edge"><title>HygieneKit&#45;&gt;Kit</title>
<path fill="none" stroke="red" stroke-dasharray="5,2" d="M2653,-36.3034C2653,-44.0173 2653,-53.2875 2653,-61.8876"/>
<polygon fill="red" stroke="red" points="2649.5,-61.8956 2653,-71.8957 2656.5,-61.8957 2649.5,-61.8956"/>
</g>
<!-- HygieneKitDistribution -->
<g id="node11" class="node"><title>HygieneKitDistribution</title>
<a xlink:href="./#HygieneKitDistribution" xlink:title="HygieneKitDistribution">
<ellipse fill="none" stroke="black" cx="2827" cy="-18" rx="100.983" ry="18"/>
<text text-anchor="middle" x="2827" y="-14.3" font-family="Helvetica,sans-Serif" font-size="14.00">HygieneKitDistribution</text>
</a>
</g>
<!-- Distribution -->
<g id="node12" class="node"><title>Distribution</title>
<a xlink:href="./#HygieneKitDistribution" xlink:title="Distribution">
<ellipse fill="none" stroke="gray" cx="2827" cy="-90" rx="56.59" ry="18"/>
<text text-anchor="middle" x="2827" y="-86.3" font-family="Helvetica,sans-Serif" font-size="14.00" fill="gray">Distribution</text>
</a>
</g>
<!-- HygieneKitDistribution&#45;&gt;Distribution -->
<g id="edge10" class="edge"><title>HygieneKitDistribution&#45;&gt;Distribution</title>
<path fill="none" stroke="red" stroke-dasharray="5,2" d="M2827,-36.3034C2827,-44.0173 2827,-53.2875 2827,-61.8876"/>
<polygon fill="red" stroke="red" points="2823.5,-61.8956 2827,-71.8957 2830.5,-61.8957 2823.5,-61.8956"/>
</g>
<!-- HygienePromotion -->
<g id="node14" class="node"><title>HygienePromotion</title>
<a xlink:href="./#HygienePromotion" xlink:title="HygienePromotion">
<ellipse fill="none" stroke="black" cx="800" cy="-18" rx="87.1846" ry="18"/>
<text text-anchor="middle" x="800" y="-14.3" font-family="Helvetica,sans-Serif" font-size="14.00">HygienePromotion</text>
</a>
</g>
<!-- HygienePromotion&#45;&gt;Activity -->
<g id="edge12" class="edge"><title>HygienePromotion&#45;&gt;Activity</title>
<path fill="none" stroke="red" stroke-dasharray="5,2" d="M862.345,-30.6377C937.467,-44.6605 1061.92,-67.8915 1128.91,-80.3966"/>
<polygon fill="red" stroke="red" points="1128.68,-83.9139 1139.15,-82.3084 1129.96,-77.0328 1128.68,-83.9139"/>
</g>
<!-- PipeBuilding -->
<g id="node16" class="node"><title>PipeBuilding</title>
<a xlink:href="./#PipeBuilding" xlink:title="PipeBuilding">
<ellipse fill="none" stroke="black" cx="967" cy="-18" rx="62.2891" ry="18"/>
<text text-anchor="middle" x="967" y="-14.3" font-family="Helvetica,sans-Serif" font-size="14.00">PipeBuilding</text>
</a>
</g>
<!-- PipeBuilding&#45;&gt;Activity -->
<g id="edge14" class="edge"><title>PipeBuilding&#45;&gt;Activity</title>
<path fill="none" stroke="red" stroke-dasharray="5,2" d="M1006.12,-32.1665C1042.85,-44.5273 1097.56,-62.9373 1134.67,-75.4282"/>
<polygon fill="red" stroke="red" points="1133.58,-78.754 1144.18,-78.6265 1135.81,-72.1197 1133.58,-78.754"/>
</g>
<!-- RainwaterCatchmentBuilding -->
<g id="node18" class="node"><title>RainwaterCatchmentBuilding</title>
<a xlink:href="./#RainwaterCatchmentBuilding" xlink:title="RainwaterCatchmentBuilding">
<ellipse fill="none" stroke="black" cx="1175" cy="-18" rx="128.077" ry="18"/>
<text text-anchor="middle" x="1175" y="-14.3" font-family="Helvetica,sans-Serif" font-size="14.00">RainwaterCatchmentBuilding</text>
</a>
</g>
<!-- RainwaterCatchmentBuilding&#45;&gt;Activity -->
<g id="edge16" class="edge"><title>RainwaterCatchmentBuilding&#45;&gt;Activity</title>
<path fill="none" stroke="red" stroke-dasharray="5,2" d="M1175,-36.3034C1175,-44.0173 1175,-53.2875 1175,-61.8876"/>
<polygon fill="red" stroke="red" points="1171.5,-61.8956 1175,-71.8957 1178.5,-61.8957 1171.5,-61.8956"/>
</g>
<!-- RainwaterCatchmentRehabilitation -->
<g id="node20" class="node"><title>RainwaterCatchmentRehabilitation</title>
<a xlink:href="./#RainwaterCatchmentRehabilitation" xlink:title="RainwaterCatchmentRehabilitation">
<ellipse fill="none" stroke="black" cx="1472" cy="-18" rx="150.574" ry="18"/>
<text text-anchor="middle" x="1472" y="-14.3" font-family="Helvetica,sans-Serif" font-size="14.00">RainwaterCatchmentRehabilitation</text>
</a>
</g>
<!-- RainwaterCatchmentRehabilitation&#45;&gt;Activity -->
<g id="edge18" class="edge"><title>RainwaterCatchmentRehabilitation&#45;&gt;Activity</title>
<path fill="none" stroke="red" stroke-dasharray="5,2" d="M1407.19,-34.2753C1350.18,-47.7111 1268.75,-66.9047 1219.01,-78.627"/>
<polygon fill="red" stroke="red" points="1218.13,-75.2382 1209.2,-80.939 1219.74,-82.0516 1218.13,-75.2382"/>
</g>
<!-- ShallowWellImprovement -->
<g id="node22" class="node"><title>ShallowWellImprovement</title>
<a xlink:href="./#ShallowWellImprovement" xlink:title="ShallowWellImprovement">
<ellipse fill="none" stroke="black" cx="1756" cy="-18" rx="115.88" ry="18"/>
<text text-anchor="middle" x="1756" y="-14.3" font-family="Helvetica,sans-Serif" font-size="14.00">ShallowWellImprovement</text>
</a>
</g>
<!-- ShallowWellImprovement&#45;&gt;Activity -->
<g id="edge20" class="edge"><title>ShallowWellImprovement&#45;&gt;Activity</title>
<path fill="none" stroke="red" stroke-dasharray="5,2" d="M1672.99,-30.5197C1658.98,-32.3978 1644.58,-34.2875 1631,-36 1482.37,-54.7422 1306.17,-74.5339 1223.01,-83.7303"/>
<polygon fill="red" stroke="red" points="1222.42,-80.2747 1212.86,-84.8513 1223.19,-87.2324 1222.42,-80.2747"/>
</g>
<!-- SolidWasteContainerInstallment -->
<g id="node24" class="node"><title>SolidWasteContainerInstallment</title>
<a xlink:href="./#SolidWasteContainerInstallment" xlink:title="SolidWasteContainerInstallment">
<ellipse fill="none" stroke="black" cx="2032" cy="-18" rx="142.175" ry="18"/>
<text text-anchor="middle" x="2032" y="-14.3" font-family="Helvetica,sans-Serif" font-size="14.00">SolidWasteContainerInstallment</text>
</a>
</g>
<!-- SolidWasteContainerInstallment&#45;&gt;Activity -->
<g id="edge22" class="edge"><title>SolidWasteContainerInstallment&#45;&gt;Activity</title>
<path fill="none" stroke="red" stroke-dasharray="5,2" d="M1931.49,-30.7632C1914.32,-32.6228 1896.66,-34.443 1880,-36 1633.8,-59.0146 1338.49,-78.6291 1223.84,-85.9421"/>
<polygon fill="red" stroke="red" points="1223.39,-82.4632 1213.63,-86.5907 1223.84,-89.4491 1223.39,-82.4632"/>
</g>
<!-- WASHCluster -->
<g id="node26" class="node"><title>WASHCluster</title>
<a xlink:href="./#WASHCluster" xlink:title="WASHCluster">
<ellipse fill="none" stroke="black" cx="3014" cy="-18" rx="68.4888" ry="18"/>
<text text-anchor="middle" x="3014" y="-14.3" font-family="Helvetica,sans-Serif" font-size="14.00">WASHCluster</text>
</a>
</g>
<!-- Cluster -->
<g id="node27" class="node"><title>Cluster</title>
<a xlink:href="./#WASHCluster" xlink:title="Cluster">
<ellipse fill="none" stroke="gray" cx="3014" cy="-90" rx="40.0939" ry="18"/>
<text text-anchor="middle" x="3014" y="-86.3" font-family="Helvetica,sans-Serif" font-size="14.00" fill="gray">Cluster</text>
</a>
</g>
<!-- WASHCluster&#45;&gt;Cluster -->
<g id="edge24" class="edge"><title>WASHCluster&#45;&gt;Cluster</title>
<path fill="none" stroke="red" stroke-dasharray="5,2" d="M3014,-36.3034C3014,-44.0173 3014,-53.2875 3014,-61.8876"/>
<polygon fill="red" stroke="red" points="3010.5,-61.8956 3014,-71.8957 3017.5,-61.8957 3010.5,-61.8956"/>
</g>
<!-- WaterSourceChlorination -->
<g id="node29" class="node"><title>WaterSourceChlorination</title>
<a xlink:href="./#WaterSourceChlorination" xlink:title="WaterSourceChlorination">
<ellipse fill="none" stroke="black" cx="2306" cy="-18" rx="113.98" ry="18"/>
<text text-anchor="middle" x="2306" y="-14.3" font-family="Helvetica,sans-Serif" font-size="14.00">WaterSourceChlorination</text>
</a>
</g>
<!-- WaterSourceChlorination&#45;&gt;Activity -->
<g id="edge26" class="edge"><title>WaterSourceChlorination&#45;&gt;Activity</title>
<path fill="none" stroke="red" stroke-dasharray="5,2" d="M2227.05,-30.9207C2212.43,-32.841 2197.27,-34.6411 2183,-36 1815.87,-70.9594 1371.15,-84.258 1224.51,-87.8836"/>
<polygon fill="red" stroke="red" points="1224.39,-84.3856 1214.48,-88.1281 1224.56,-91.3835 1224.39,-84.3856"/>
</g>
<!-- WaterTrucking -->
<g id="node31" class="node"><title>WaterTrucking</title>
<a xlink:href="./#WaterTrucking" xlink:title="WaterTrucking">
<ellipse fill="none" stroke="black" cx="2509" cy="-18" rx="70.6878" ry="18"/>
<text text-anchor="middle" x="2509" y="-14.3" font-family="Helvetica,sans-Serif" font-size="14.00">WaterTrucking</text>
</a>
</g>
<!-- WaterTrucking&#45;&gt;Activity -->
<g id="edge28" class="edge"><title>WaterTrucking&#45;&gt;Activity</title>
<path fill="none" stroke="red" stroke-dasharray="5,2" d="M2459.09,-30.8165C2448.86,-32.8603 2438.12,-34.7324 2428,-36 2188.84,-65.948 1426.16,-83.737 1224.37,-87.9984"/>
<polygon fill="red" stroke="red" points="1224.28,-84.4994 1214.36,-88.2085 1224.43,-91.4979 1224.28,-84.4994"/>
</g>
</g>
</svg>
