<?xml version="1.0" encoding="UTF-8" standalone="no"?>
<!DOCTYPE svg PUBLIC "-//W3C//DTD SVG 1.1//EN"
 "http://www.w3.org/Graphics/SVG/1.1/DTD/svg11.dtd">
<!-- Generated by graphviz version 2.26.3 (20100126.1600)
 -->
<!-- Title: _anonymous_0 Pages: 1 -->
<svg width="2262pt" height="382pt"
 viewBox="0.00 0.00 2262.00 382.00" xmlns="http://www.w3.org/2000/svg" xmlns:xlink="http://www.w3.org/1999/xlink">
<g id="graph1" class="graph" transform="scale(1 1) rotate(0) translate(4 378)">
<title>_anonymous_0</title>
<polygon fill="white" stroke="white" points="-4,5 -4,-378 2259,-378 2259,5 -4,5"/>
<!-- Bladder -->
<g id="node1" class="node"><title>Bladder</title>
<a xlink:href="./#Bladder" xlink:title="Bladder">
<ellipse fill="none" stroke="black" cx="2034" cy="-180" rx="44.945" ry="18"/>
<text text-anchor="middle" x="2034" y="-175.4" font-family="Helvetica,sans-Serif" font-size="14.00">Bladder</text>
</a>
</g>
<!-- NonFoodItem -->
<g id="node3" class="node"><title>NonFoodItem</title>
<a xlink:href="./#NonFoodItem" xlink:title="NonFoodItem">
<ellipse fill="none" stroke="black" cx="1226" cy="-268" rx="69.9366" ry="18"/>
<text text-anchor="middle" x="1226" y="-263.4" font-family="Helvetica,sans-Serif" font-size="14.00">NonFoodItem</text>
</a>
</g>
<!-- Bladder&#45;&gt;NonFoodItem -->
<g id="edge2" class="edge"><title>Bladder&#45;&gt;NonFoodItem</title>
<path fill="none" stroke="red" stroke-dasharray="5,2" d="M2000.88,-192.213C1994.05,-194.4 1986.85,-196.467 1980,-198 1852.85,-226.466 1470.54,-252.818 1304.45,-263.263"/>
<polygon fill="red" stroke="red" points="1304.07,-259.78 1294.31,-263.898 1304.5,-266.766 1304.07,-259.78"/>
</g>
<!-- http://www.w3.org/2000/01/rdf&#45;schema#Literal -->
<g id="node52" class="node"><title>http://www.w3.org/2000/01/rdf&#45;schema#Literal</title>
<a xlink:href="./#http://www.w3.org/2000/01/rdf-schema#Literal" xlink:title="http://www.w3.org/2000/01/rdf&#45;schema#Literal">
<ellipse fill="none" stroke="gray" cx="539" cy="-356" rx="208.796" ry="18"/>
<text text-anchor="middle" x="539" y="-351.4" font-family="Helvetica,sans-Serif" font-size="14.00" fill="gray">http://www.w3.org/2000/01/rdf&#45;schema#Literal</text>
</a>
</g>
<!-- NonFoodItem&#45;&gt;http://www.w3.org/2000/01/rdf&#45;schema#Literal -->
<g id="edge50" class="edge"><title>NonFoodItem&#45;&gt;http://www.w3.org/2000/01/rdf&#45;schema#Literal</title>
<a xlink:href="./#dateOfDistribution" xlink:title="dateOfDistribution">
<path fill="none" stroke="darkslategray" d="M1163.21,-276.043C1050.85,-290.435 813.393,-320.852 665.909,-339.744"/>
<polygon fill="darkslategray" stroke="darkslategray" points="665.362,-336.285 655.888,-341.027 666.252,-343.228 665.362,-336.285"/>
</a>
<a xlink:href="./#dateOfDistribution" xlink:title="dateOfDistribution">
<text text-anchor="middle" x="1004.5" y="-307.4" font-family="Helvetica,sans-Serif" font-size="14.00">dateOfDistribution</text>
</a>
</g>
<!-- Blanket -->
<g id="node4" class="node"><title>Blanket</title>
<a xlink:href="./#Blanket" xlink:title="Blanket">
<ellipse fill="none" stroke="black" cx="543" cy="-180" rx="43.1021" ry="18"/>
<text text-anchor="middle" x="543" y="-175.4" font-family="Helvetica,sans-Serif" font-size="14.00">Blanket</text>
</a>
</g>
<!-- Blanket&#45;&gt;NonFoodItem -->
<g id="edge4" class="edge"><title>Blanket&#45;&gt;NonFoodItem</title>
<path fill="none" stroke="red" stroke-dasharray="5,2" d="M558.282,-196.869C570.434,-209.022 588.572,-224.543 608,-232 656.919,-250.775 989.949,-261.837 1145.83,-266.041"/>
<polygon fill="red" stroke="red" points="1146.2,-269.552 1156.29,-266.32 1146.39,-262.555 1146.2,-269.552"/>
</g>
<!-- Bucket -->
<g id="node6" class="node"><title>Bucket</title>
<a xlink:href="./#Bucket" xlink:title="Bucket">
<ellipse fill="none" stroke="black" cx="922" cy="-92" rx="40.92" ry="18"/>
<text text-anchor="middle" x="922" y="-87.4" font-family="Helvetica,sans-Serif" font-size="14.00">Bucket</text>
</a>
</g>
<!-- BucketJerryCan -->
<g id="node8" class="node"><title>BucketJerryCan</title>
<a xlink:href="./#BucketJerryCan" xlink:title="BucketJerryCan">
<ellipse fill="none" stroke="black" cx="859" cy="-180" rx="79.9985" ry="18"/>
<text text-anchor="middle" x="859" y="-175.4" font-family="Helvetica,sans-Serif" font-size="14.00">BucketJerryCan</text>
</a>
</g>
<!-- Bucket&#45;&gt;BucketJerryCan -->
<g id="edge6" class="edge"><title>Bucket&#45;&gt;BucketJerryCan</title>
<path fill="none" stroke="red" stroke-dasharray="5,2" d="M909.553,-109.386C900.526,-121.996 888.154,-139.278 877.909,-153.588"/>
<polygon fill="red" stroke="red" points="874.829,-151.877 871.853,-162.046 880.52,-155.952 874.829,-151.877"/>
</g>
<!-- BucketJerryCan&#45;&gt;NonFoodItem -->
<g id="edge8" class="edge"><title>BucketJerryCan&#45;&gt;NonFoodItem</title>
<path fill="none" stroke="red" stroke-dasharray="5,2" d="M913.944,-193.174C981.126,-209.284 1094.51,-236.471 1164.53,-253.261"/>
<polygon fill="red" stroke="red" points="1164,-256.732 1174.54,-255.66 1165.63,-249.925 1164,-256.732"/>
</g>
<!-- CommunityToolKit -->
<g id="node10" class="node"><title>CommunityToolKit</title>
<a xlink:href="./#CommunityToolKit" xlink:title="CommunityToolKit">
<ellipse fill="none" stroke="black" cx="210" cy="-18" rx="91.2316" ry="18"/>
<text text-anchor="middle" x="210" y="-13.4" font-family="Helvetica,sans-Serif" font-size="14.00">CommunityToolKit</text>
</a>
</g>
<!-- ToolKit -->
<g id="node12" class="node"><title>ToolKit</title>
<a xlink:href="./#ToolKit" xlink:title="ToolKit">
<ellipse fill="none" stroke="black" cx="300" cy="-92" rx="41.7645" ry="18"/>
<text text-anchor="middle" x="300" y="-87.4" font-family="Helvetica,sans-Serif" font-size="14.00">ToolKit</text>
</a>
</g>
<!-- CommunityToolKit&#45;&gt;ToolKit -->
<g id="edge10" class="edge"><title>CommunityToolKit&#45;&gt;ToolKit</title>
<path fill="none" stroke="red" stroke-dasharray="5,2" d="M231.329,-35.537C243.64,-45.6596 259.256,-58.4994 272.485,-69.3763"/>
<polygon fill="red" stroke="red" points="270.415,-72.2057 280.362,-75.8533 274.861,-66.7987 270.415,-72.2057"/>
</g>
<!-- Kit -->
<g id="node22" class="node"><title>Kit</title>
<a xlink:href="./#Kit" xlink:title="Kit">
<ellipse fill="none" stroke="black" cx="300" cy="-180" rx="27" ry="18"/>
<text text-anchor="middle" x="300" y="-175.4" font-family="Helvetica,sans-Serif" font-size="14.00">Kit</text>
</a>
</g>
<!-- ToolKit&#45;&gt;Kit -->
<g id="edge44" class="edge"><title>ToolKit&#45;&gt;Kit</title>
<path fill="none" stroke="red" stroke-dasharray="5,2" d="M300,-110.234C300,-122.151 300,-137.962 300,-151.518"/>
<polygon fill="red" stroke="red" points="296.5,-151.79 300,-161.79 303.5,-151.79 296.5,-151.79"/>
</g>
<!-- Cot -->
<g id="node13" class="node"><title>Cot</title>
<a xlink:href="./#Cot" xlink:title="Cot">
<ellipse fill="none" stroke="black" cx="734" cy="-180" rx="27.0036" ry="18"/>
<text text-anchor="middle" x="734" y="-175.4" font-family="Helvetica,sans-Serif" font-size="14.00">Cot</text>
</a>
</g>
<!-- Cot&#45;&gt;NonFoodItem -->
<g id="edge12" class="edge"><title>Cot&#45;&gt;NonFoodItem</title>
<path fill="none" stroke="red" stroke-dasharray="5,2" d="M754.859,-191.795C759.71,-194.15 764.939,-196.39 770,-198 898.375,-238.837 1054.9,-256.23 1147.17,-263.357"/>
<polygon fill="red" stroke="red" points="1147.04,-266.856 1157.27,-264.116 1147.56,-259.876 1147.04,-266.856"/>
</g>
<!-- FamilyTent -->
<g id="node15" class="node"><title>FamilyTent</title>
<a xlink:href="./#FamilyTent" xlink:title="FamilyTent">
<ellipse fill="none" stroke="black" cx="2195" cy="-92" rx="59.2013" ry="18"/>
<text text-anchor="middle" x="2195" y="-87.4" font-family="Helvetica,sans-Serif" font-size="14.00">FamilyTent</text>
</a>
</g>
<!-- Tent -->
<g id="node17" class="node"><title>Tent</title>
<a xlink:href="./#Tent" xlink:title="Tent">
<ellipse fill="none" stroke="black" cx="2128" cy="-180" rx="31.0281" ry="18"/>
<text text-anchor="middle" x="2128" y="-175.4" font-family="Helvetica,sans-Serif" font-size="14.00">Tent</text>
</a>
</g>
<!-- FamilyTent&#45;&gt;Tent -->
<g id="edge14" class="edge"><title>FamilyTent&#45;&gt;Tent</title>
<path fill="none" stroke="red" stroke-dasharray="5,2" d="M2181.44,-109.808C2171.47,-122.907 2157.79,-140.874 2146.77,-155.352"/>
<polygon fill="red" stroke="red" points="2143.9,-153.332 2140.63,-163.409 2149.47,-157.573 2143.9,-153.332"/>
</g>
<!-- Tent&#45;&gt;NonFoodItem -->
<g id="edge42" class="edge"><title>Tent&#45;&gt;NonFoodItem</title>
<path fill="none" stroke="red" stroke-dasharray="5,2" d="M2104.33,-192.07C2099.06,-194.351 2093.43,-196.491 2088,-198 1965.52,-232.031 1930.6,-220.489 1804,-232 1626.07,-248.179 1416.65,-259.243 1305.2,-264.497"/>
<polygon fill="red" stroke="red" points="1304.88,-261.009 1295.05,-264.973 1305.2,-268.001 1304.88,-261.009"/>
</g>
<!-- FamilyToolKit -->
<g id="node18" class="node"><title>FamilyToolKit</title>
<a xlink:href="./#FamilyToolKit" xlink:title="FamilyToolKit">
<ellipse fill="none" stroke="black" cx="389" cy="-18" rx="69.9366" ry="18"/>
<text text-anchor="middle" x="389" y="-13.4" font-family="Helvetica,sans-Serif" font-size="14.00">FamilyToolKit</text>
</a>
</g>
<!-- FamilyToolKit&#45;&gt;ToolKit -->
<g id="edge16" class="edge"><title>FamilyToolKit&#45;&gt;ToolKit</title>
<path fill="none" stroke="red" stroke-dasharray="5,2" d="M367.908,-35.537C355.734,-45.6596 340.291,-58.4994 327.21,-69.3763"/>
<polygon fill="red" stroke="red" points="324.871,-66.7686 319.42,-75.8533 329.347,-72.1511 324.871,-66.7686"/>
</g>
<!-- HygieneKit -->
<g id="node20" class="node"><title>HygieneKit</title>
<a xlink:href="./#HygieneKit" xlink:title="HygieneKit">
<ellipse fill="none" stroke="black" cx="57" cy="-92" rx="57.1889" ry="18"/>
<text text-anchor="middle" x="57" y="-87.4" font-family="Helvetica,sans-Serif" font-size="14.00">HygieneKit</text>
</a>
</g>
<!-- HygieneKit&#45;&gt;Kit -->
<g id="edge18" class="edge"><title>HygieneKit&#45;&gt;Kit</title>
<path fill="none" stroke="red" stroke-dasharray="5,2" d="M94.7021,-105.653C141.798,-122.709 221.644,-151.624 266.623,-167.913"/>
<polygon fill="red" stroke="red" points="265.606,-171.267 276.2,-171.381 267.99,-164.685 265.606,-171.267"/>
</g>
<!-- Kit&#45;&gt;NonFoodItem -->
<g id="edge48" class="edge"><title>Kit&#45;&gt;NonFoodItem</title>
<a xlink:href="./#containsItem" xlink:title="containsItem">
<path fill="none" stroke="darkslategray" d="M306.198,-197.751C311.377,-209.675 320.03,-224.526 333,-232 367.865,-252.092 932.776,-263.263 1145.67,-266.776"/>
<polygon fill="darkslategray" stroke="darkslategray" points="1145.79,-270.278 1155.85,-266.942 1145.9,-263.279 1145.79,-270.278"/>
</a>
<a xlink:href="./#containsItem" xlink:title="containsItem">
<text text-anchor="middle" x="375" y="-219.4" font-family="Helvetica,sans-Serif" font-size="14.00">containsItem</text>
</a>
</g>
<!-- Kit&#45;&gt;http://www.w3.org/2000/01/rdf&#45;schema#Literal -->
<g id="edge52" class="edge"><title>Kit&#45;&gt;http://www.w3.org/2000/01/rdf&#45;schema#Literal</title>
<a xlink:href="./#dateOfDistribution" xlink:title="dateOfDistribution">
<path fill="none" stroke="darkslategray" d="M300.978,-198.429C302.375,-209.161 305.612,-222.421 313,-232 352.608,-283.354 419.79,-316.301 470.638,-335.226"/>
<polygon fill="darkslategray" stroke="darkslategray" points="469.66,-338.594 480.254,-338.711 472.045,-332.013 469.66,-338.594"/>
</a>
<a xlink:href="./#dateOfDistribution" xlink:title="dateOfDistribution">
<text text-anchor="middle" x="429.5" y="-263.4" font-family="Helvetica,sans-Serif" font-size="14.00">dateOfDistribution</text>
</a>
</g>
<!-- IndividualItem -->
<g id="node23" class="node"><title>IndividualItem</title>
<a xlink:href="./#IndividualItem" xlink:title="IndividualItem">
<ellipse fill="none" stroke="black" cx="1027" cy="-180" rx="69.9366" ry="18"/>
<text text-anchor="middle" x="1027" y="-175.4" font-family="Helvetica,sans-Serif" font-size="14.00">IndividualItem</text>
</a>
</g>
<!-- IndividualItem&#45;&gt;NonFoodItem -->
<g id="edge20" class="edge"><title>IndividualItem&#45;&gt;NonFoodItem</title>
<path fill="none" stroke="red" stroke-dasharray="5,2" d="M1062.58,-195.733C1095.83,-210.436 1145.59,-232.444 1181.47,-248.307"/>
<polygon fill="red" stroke="red" points="1180.17,-251.56 1190.73,-252.404 1183,-245.158 1180.17,-251.56"/>
</g>
<!-- JerryCan -->
<g id="node25" class="node"><title>JerryCan</title>
<a xlink:href="./#JerryCan" xlink:title="JerryCan">
<ellipse fill="none" stroke="black" cx="812" cy="-92" rx="50.9823" ry="18"/>
<text text-anchor="middle" x="812" y="-87.4" font-family="Helvetica,sans-Serif" font-size="14.00">JerryCan</text>
</a>
</g>
<!-- JerryCan&#45;&gt;BucketJerryCan -->
<g id="edge22" class="edge"><title>JerryCan&#45;&gt;BucketJerryCan</title>
<path fill="none" stroke="red" stroke-dasharray="5,2" d="M821.511,-109.808C828.093,-122.131 836.976,-138.764 844.444,-152.746"/>
<polygon fill="red" stroke="red" points="841.543,-154.744 849.342,-161.916 847.718,-151.447 841.543,-154.744"/>
</g>
<!-- KitchenSet -->
<g id="node27" class="node"><title>KitchenSet</title>
<a xlink:href="./#KitchenSet" xlink:title="KitchenSet">
<ellipse fill="none" stroke="black" cx="1174" cy="-180" rx="59.0322" ry="18"/>
<text text-anchor="middle" x="1174" y="-175.4" font-family="Helvetica,sans-Serif" font-size="14.00">KitchenSet</text>
</a>
</g>
<!-- KitchenSet&#45;&gt;NonFoodItem -->
<g id="edge24" class="edge"><title>KitchenSet&#45;&gt;NonFoodItem</title>
<path fill="none" stroke="red" stroke-dasharray="5,2" d="M1184.52,-197.808C1191.87,-210.25 1201.82,-227.085 1210.13,-241.149"/>
<polygon fill="red" stroke="red" points="1207.21,-243.088 1215.31,-249.916 1213.24,-239.526 1207.21,-243.088"/>
</g>
<!-- LargeTent -->
<g id="node29" class="node"><title>LargeTent</title>
<a xlink:href="./#LargeTent" xlink:title="LargeTent">
<ellipse fill="none" stroke="black" cx="2061" cy="-92" rx="57.0197" ry="18"/>
<text text-anchor="middle" x="2061" y="-87.4" font-family="Helvetica,sans-Serif" font-size="14.00">LargeTent</text>
</a>
</g>
<!-- LargeTent&#45;&gt;Tent -->
<g id="edge26" class="edge"><title>LargeTent&#45;&gt;Tent</title>
<path fill="none" stroke="red" stroke-dasharray="5,2" d="M2074.56,-109.808C2084.53,-122.907 2098.21,-140.874 2109.23,-155.352"/>
<polygon fill="red" stroke="red" points="2106.53,-157.573 2115.37,-163.409 2112.1,-153.332 2106.53,-157.573"/>
</g>
<!-- Mat -->
<g id="node31" class="node"><title>Mat</title>
<a xlink:href="./#Mat" xlink:title="Mat">
<ellipse fill="none" stroke="black" cx="1278" cy="-180" rx="27.0036" ry="18"/>
<text text-anchor="middle" x="1278" y="-175.4" font-family="Helvetica,sans-Serif" font-size="14.00">Mat</text>
</a>
</g>
<!-- Mat&#45;&gt;NonFoodItem -->
<g id="edge28" class="edge"><title>Mat&#45;&gt;NonFoodItem</title>
<path fill="none" stroke="red" stroke-dasharray="5,2" d="M1267.97,-196.967C1260.57,-209.504 1250.33,-226.822 1241.83,-241.219"/>
<polygon fill="red" stroke="red" points="1238.6,-239.789 1236.53,-250.179 1244.63,-243.35 1238.6,-239.789"/>
</g>
<!-- MosquitoNet -->
<g id="node33" class="node"><title>MosquitoNet</title>
<a xlink:href="./#MosquitoNet" xlink:title="MosquitoNet">
<ellipse fill="none" stroke="black" cx="1388" cy="-180" rx="65.2386" ry="18"/>
<text text-anchor="middle" x="1388" y="-175.4" font-family="Helvetica,sans-Serif" font-size="14.00">MosquitoNet</text>
</a>
</g>
<!-- MosquitoNet&#45;&gt;NonFoodItem -->
<g id="edge30" class="edge"><title>MosquitoNet&#45;&gt;NonFoodItem</title>
<path fill="none" stroke="red" stroke-dasharray="5,2" d="M1358.29,-196.141C1332.08,-210.378 1293.69,-231.228 1265.02,-246.806"/>
<polygon fill="red" stroke="red" points="1263.19,-243.815 1256.07,-251.664 1266.53,-249.966 1263.19,-243.815"/>
</g>
<!-- Pole -->
<g id="node35" class="node"><title>Pole</title>
<a xlink:href="./#Pole" xlink:title="Pole">
<ellipse fill="none" stroke="black" cx="1502" cy="-180" rx="30.8577" ry="18"/>
<text text-anchor="middle" x="1502" y="-175.4" font-family="Helvetica,sans-Serif" font-size="14.00">Pole</text>
</a>
</g>
<!-- Pole&#45;&gt;NonFoodItem -->
<g id="edge32" class="edge"><title>Pole&#45;&gt;NonFoodItem</title>
<path fill="none" stroke="red" stroke-dasharray="5,2" d="M1477.68,-191.571C1472.55,-193.832 1467.14,-196.091 1462,-198 1403.09,-219.878 1334,-239.717 1285.85,-252.642"/>
<polygon fill="red" stroke="red" points="1284.67,-249.335 1275.9,-255.293 1286.47,-256.099 1284.67,-249.335"/>
</g>
<!-- Rope -->
<g id="node37" class="node"><title>Rope</title>
<a xlink:href="./#Rope" xlink:title="Rope">
<ellipse fill="none" stroke="black" cx="1585" cy="-180" rx="34.2118" ry="18"/>
<text text-anchor="middle" x="1585" y="-175.4" font-family="Helvetica,sans-Serif" font-size="14.00">Rope</text>
</a>
</g>
<!-- Rope&#45;&gt;NonFoodItem -->
<g id="edge34" class="edge"><title>Rope&#45;&gt;NonFoodItem</title>
<path fill="none" stroke="red" stroke-dasharray="5,2" d="M1558.88,-191.745C1553.37,-193.994 1547.54,-196.204 1542,-198 1458.91,-224.925 1360.23,-244.96 1295.52,-256.545"/>
<polygon fill="red" stroke="red" points="1294.67,-253.141 1285.43,-258.332 1295.89,-260.034 1294.67,-253.141"/>
</g>
<!-- Sheet -->
<g id="node39" class="node"><title>Sheet</title>
<a xlink:href="./#Sheet" xlink:title="Sheet">
<ellipse fill="none" stroke="black" cx="1674" cy="-180" rx="37.0651" ry="18"/>
<text text-anchor="middle" x="1674" y="-175.4" font-family="Helvetica,sans-Serif" font-size="14.00">Sheet</text>
</a>
</g>
<!-- Sheet&#45;&gt;NonFoodItem -->
<g id="edge36" class="edge"><title>Sheet&#45;&gt;NonFoodItem</title>
<path fill="none" stroke="red" stroke-dasharray="5,2" d="M1646.05,-191.816C1640.15,-194.059 1633.92,-196.249 1628,-198 1516.6,-230.942 1382.96,-250.404 1301.29,-260.138"/>
<polygon fill="red" stroke="red" points="1300.63,-256.692 1291.1,-261.334 1301.44,-263.644 1300.63,-256.692"/>
</g>
<!-- ShelterCluster -->
<g id="node41" class="node"><title>ShelterCluster</title>
<a xlink:href="./#ShelterCluster" xlink:title="ShelterCluster">
<ellipse fill="none" stroke="black" cx="621" cy="-92" rx="73.7902" ry="18"/>
<text text-anchor="middle" x="621" y="-87.4" font-family="Helvetica,sans-Serif" font-size="14.00">ShelterCluster</text>
</a>
</g>
<!-- ShelterCluster&#45;&gt;NonFoodItem -->
<g id="edge54" class="edge"><title>ShelterCluster&#45;&gt;NonFoodItem</title>
<a xlink:href="./#distributes" xlink:title="distributes">
<path fill="none" stroke="darkslategray" d="M616.737,-110.021C612.353,-133.508 608.917,-174.363 631,-198 665.619,-235.055 992.788,-256.277 1146.69,-264.284"/>
<polygon fill="darkslategray" stroke="darkslategray" points="1146.85,-267.797 1157.02,-264.815 1147.21,-260.806 1146.85,-267.797"/>
</a>
<a xlink:href="./#distributes" xlink:title="distributes">
<text text-anchor="middle" x="664.5" y="-175.4" font-family="Helvetica,sans-Serif" font-size="14.00">distributes</text>
</a>
</g>
<!-- ShelterCluster&#45;&gt;Kit -->
<g id="edge56" class="edge"><title>ShelterCluster&#45;&gt;Kit</title>
<a xlink:href="./#distributes" xlink:title="distributes">
<path fill="none" stroke="darkslategray" d="M571.547,-105.557C506.015,-123.522 392.038,-154.768 334.842,-170.448"/>
<polygon fill="darkslategray" stroke="darkslategray" points="333.896,-167.079 325.177,-173.098 335.746,-173.829 333.896,-167.079"/>
</a>
<a xlink:href="./#distributes" xlink:title="distributes">
<text text-anchor="middle" x="523.5" y="-131.4" font-family="Helvetica,sans-Serif" font-size="14.00">distributes</text>
</a>
</g>
<!-- ShelterKit -->
<g id="node42" class="node"><title>ShelterKit</title>
<a xlink:href="./#ShelterKit" xlink:title="ShelterKit">
<ellipse fill="none" stroke="black" cx="186" cy="-92" rx="53.838" ry="18"/>
<text text-anchor="middle" x="186" y="-87.4" font-family="Helvetica,sans-Serif" font-size="14.00">ShelterKit</text>
</a>
</g>
<!-- ShelterKit&#45;&gt;Kit -->
<g id="edge38" class="edge"><title>ShelterKit&#45;&gt;Kit</title>
<path fill="none" stroke="red" stroke-dasharray="5,2" d="M207.443,-108.552C226.292,-123.103 253.779,-144.321 273.902,-159.854"/>
<polygon fill="red" stroke="red" points="271.974,-162.787 282.029,-166.127 276.251,-157.246 271.974,-162.787"/>
</g>
<!-- SupplyingAgency -->
<g id="node44" class="node"><title>SupplyingAgency</title>
<a xlink:href="./#SupplyingAgency" xlink:title="SupplyingAgency">
<ellipse fill="none" stroke="black" cx="444" cy="-92" rx="83.8525" ry="18"/>
<text text-anchor="middle" x="444" y="-87.4" font-family="Helvetica,sans-Serif" font-size="14.00">SupplyingAgency</text>
</a>
</g>
<!-- SupplyingAgency&#45;&gt;NonFoodItem -->
<g id="edge58" class="edge"><title>SupplyingAgency&#45;&gt;NonFoodItem</title>
<a xlink:href="./#supplies" xlink:title="supplies">
<path fill="none" stroke="darkslategray" d="M436.821,-110.288C429.099,-133.319 420.372,-172.905 440,-198 478.651,-247.416 514.962,-222.666 577,-232 684.409,-248.16 997.266,-260.373 1145.85,-265.437"/>
<polygon fill="darkslategray" stroke="darkslategray" points="1146.15,-268.949 1156.26,-265.789 1146.39,-261.953 1146.15,-268.949"/>
</a>
<a xlink:href="./#supplies" xlink:title="supplies">
<text text-anchor="middle" x="465.5" y="-175.4" font-family="Helvetica,sans-Serif" font-size="14.00">supplies</text>
</a>
</g>
<!-- SupplyingAgency&#45;&gt;Kit -->
<g id="edge60" class="edge"><title>SupplyingAgency&#45;&gt;Kit</title>
<a xlink:href="./#supplies" xlink:title="supplies">
<path fill="none" stroke="darkslategray" d="M404.586,-108.021C391.936,-113.73 378.08,-120.596 366,-128 351.347,-136.981 336.203,-148.709 324.123,-158.753"/>
<polygon fill="darkslategray" stroke="darkslategray" points="321.663,-156.25 316.293,-165.383 326.186,-161.592 321.663,-156.25"/>
</a>
<a xlink:href="./#supplies" xlink:title="supplies">
<text text-anchor="middle" x="391.5" y="-131.4" font-family="Helvetica,sans-Serif" font-size="14.00">supplies</text>
</a>
</g>
<!-- Tarpaulin -->
<g id="node45" class="node"><title>Tarpaulin</title>
<a xlink:href="./#Tarpaulin" xlink:title="Tarpaulin">
<ellipse fill="none" stroke="black" cx="1780" cy="-180" rx="51.1517" ry="18"/>
<text text-anchor="middle" x="1780" y="-175.4" font-family="Helvetica,sans-Serif" font-size="14.00">Tarpaulin</text>
</a>
</g>
<!-- Tarpaulin&#45;&gt;NonFoodItem -->
<g id="edge40" class="edge"><title>Tarpaulin&#45;&gt;NonFoodItem</title>
<path fill="none" stroke="red" stroke-dasharray="5,2" d="M1742.08,-192.066C1734.79,-194.189 1727.19,-196.27 1720,-198 1574.81,-232.935 1401.14,-252.563 1303.19,-261.657"/>
<polygon fill="red" stroke="red" points="1302.72,-258.186 1293.08,-262.583 1303.36,-265.156 1302.72,-258.186"/>
</g>
<!-- WaterFilter -->
<g id="node49" class="node"><title>WaterFilter</title>
<a xlink:href="./#WaterFilter" xlink:title="WaterFilter">
<ellipse fill="none" stroke="black" cx="1910" cy="-180" rx="61.0447" ry="18"/>
<text text-anchor="middle" x="1910" y="-175.4" font-family="Helvetica,sans-Serif" font-size="14.00">WaterFilter</text>
</a>
</g>
<!-- WaterFilter&#45;&gt;NonFoodItem -->
<g id="edge46" class="edge"><title>WaterFilter&#45;&gt;NonFoodItem</title>
<path fill="none" stroke="red" stroke-dasharray="5,2" d="M1864.98,-192.36C1856.71,-194.407 1848.12,-196.385 1840,-198 1649.75,-235.815 1421.99,-255.131 1304.58,-263.216"/>
<polygon fill="red" stroke="red" points="1304,-259.748 1294.26,-263.918 1304.47,-266.732 1304,-259.748"/>
</g>
</g>
</svg>
