<?xml version="1.0" encoding="UTF-8" standalone="no"?>
<!DOCTYPE svg PUBLIC "-//W3C//DTD SVG 1.1//EN"
 "http://www.w3.org/Graphics/SVG/1.1/DTD/svg11.dtd">
<!-- Generated by graphviz version 2.26.3 (20100126.1600)
 -->
<!-- Title: _anonymous_0 Pages: 1 -->
<svg width="3022pt" height="530pt"
 viewBox="0.00 0.00 3022.00 530.00" xmlns="http://www.w3.org/2000/svg" xmlns:xlink="http://www.w3.org/1999/xlink">
<g id="graph1" class="graph" transform="scale(1 1) rotate(0) translate(4 526)">
<title>_anonymous_0</title>
<polygon fill="white" stroke="white" points="-4,5 -4,-526 3019,-526 3019,5 -4,5"/>
<!-- AffectedPopulation -->
<g id="node1" class="node"><title>AffectedPopulation</title>
<a xlink:href="./#AffectedPopulation" xlink:title="AffectedPopulation">
<ellipse fill="none" stroke="black" cx="575" cy="-166" rx="94.7578" ry="18"/>
<text text-anchor="middle" x="575" y="-161.4" font-family="Helvetica,sans-Serif" font-size="14.00">AffectedPopulation</text>
</a>
</g>
<!-- Population -->
<g id="node3" class="node"><title>Population</title>
<a xlink:href="./#Population" xlink:title="Population">
<ellipse fill="none" stroke="black" cx="584" cy="-342" rx="57.0197" ry="18"/>
<text text-anchor="middle" x="584" y="-337.4" font-family="Helvetica,sans-Serif" font-size="14.00">Population</text>
</a>
</g>
<!-- AffectedPopulation&#45;&gt;Population -->
<g id="edge2" class="edge"><title>AffectedPopulation&#45;&gt;Population</title>
<path fill="none" stroke="red" stroke-dasharray="5,2" d="M575.196,-184.019C575.499,-205.12 576.241,-241.121 578,-272 578.786,-285.795 580.051,-301.088 581.217,-313.852"/>
<polygon fill="red" stroke="red" points="577.741,-314.262 582.161,-323.891 584.71,-313.607 577.741,-314.262"/>
</g>
<!-- Emergency -->
<g id="node12" class="node"><title>Emergency</title>
<a xlink:href="./#Emergency" xlink:title="Emergency">
<ellipse fill="none" stroke="black" cx="1028" cy="-254" rx="59.8749" ry="18"/>
<text text-anchor="middle" x="1028" y="-249.4" font-family="Helvetica,sans-Serif" font-size="14.00">Emergency</text>
</a>
</g>
<!-- AffectedPopulation&#45;&gt;Emergency -->
<g id="edge50" class="edge"><title>AffectedPopulation&#45;&gt;Emergency</title>
<a xlink:href="./#affectedBy" xlink:title="affectedBy">
<path fill="none" stroke="darkslategray" d="M641.355,-178.89C729.204,-195.956 882.857,-225.804 967.605,-242.268"/>
<polygon fill="darkslategray" stroke="darkslategray" points="967.105,-245.736 977.589,-244.207 968.44,-238.864 967.105,-245.736"/>
</a>
<a xlink:href="./#affectedBy" xlink:title="affectedBy">
<text text-anchor="middle" x="878.5" y="-205.4" font-family="Helvetica,sans-Serif" font-size="14.00">affectedBy</text>
</a>
</g>
<!-- http://xmlns.com/foaf/0.1/Group -->
<g id="node44" class="node"><title>http://xmlns.com/foaf/0.1/Group</title>
<a xlink:href="./#http://xmlns.com/foaf/0.1/Group" xlink:title="http://xmlns.com/foaf/0.1/Group">
<ellipse fill="none" stroke="black" cx="330" cy="-430" rx="146.239" ry="18"/>
<text text-anchor="middle" x="330" y="-425.4" font-family="Helvetica,sans-Serif" font-size="14.00">http://xmlns.com/foaf/0.1/Group</text>
</a>
</g>
<!-- Population&#45;&gt;http://xmlns.com/foaf/0.1/Group -->
<g id="edge38" class="edge"><title>Population&#45;&gt;http://xmlns.com/foaf/0.1/Group</title>
<path fill="none" stroke="red" stroke-dasharray="5,2" d="M526.946,-343.524C464.67,-346.373 370.294,-354.547 344,-378 337.23,-384.038 333.581,-392.97 331.659,-401.734"/>
<polygon fill="red" stroke="red" points="328.178,-401.345 330.114,-411.761 335.096,-402.411 328.178,-401.345"/>
</g>
<!-- http://www.w3.org/2000/01/rdf&#45;schema#Literal -->
<g id="node56" class="node"><title>http://www.w3.org/2000/01/rdf&#45;schema#Literal</title>
<a xlink:href="./#http://www.w3.org/2000/01/rdf-schema#Literal" xlink:title="http://www.w3.org/2000/01/rdf&#45;schema#Literal">
<ellipse fill="none" stroke="gray" cx="1324" cy="-430" rx="208.796" ry="18"/>
<text text-anchor="middle" x="1324" y="-425.4" font-family="Helvetica,sans-Serif" font-size="14.00" fill="gray">http://www.w3.org/2000/01/rdf&#45;schema#Literal</text>
</a>
</g>
<!-- Population&#45;&gt;http://www.w3.org/2000/01/rdf&#45;schema#Literal -->
<g id="edge72" class="edge"><title>Population&#45;&gt;http://www.w3.org/2000/01/rdf&#45;schema#Literal</title>
<a xlink:href="./#householdCount" xlink:title="householdCount">
<path fill="none" stroke="darkslategray" d="M529.259,-347.272C467.622,-353.772 374.619,-365.502 364,-378 359.396,-383.419 359.067,-388.878 364,-394 376.804,-407.293 831.138,-419.42 1110.11,-425.634"/>
<polygon fill="darkslategray" stroke="darkslategray" points="1110.3,-429.139 1120.37,-425.862 1110.45,-422.141 1110.3,-429.139"/>
</a>
<a xlink:href="./#householdCount" xlink:title="householdCount">
<text text-anchor="middle" x="416.5" y="-381.4" font-family="Helvetica,sans-Serif" font-size="14.00">householdCount</text>
</a>
</g>
<!-- Population&#45;&gt;http://www.w3.org/2000/01/rdf&#45;schema#Literal -->
<g id="edge92" class="edge"><title>Population&#45;&gt;http://www.w3.org/2000/01/rdf&#45;schema#Literal</title>
<a xlink:href="./#personCount" xlink:title="personCount">
<path fill="none" stroke="darkslategray" d="M536.41,-352.104C505.339,-360.753 473.663,-374.853 492,-394 513.049,-415.98 866.401,-424.62 1105.78,-427.96"/>
<polygon fill="darkslategray" stroke="darkslategray" points="1105.97,-431.463 1116.02,-428.1 1106.07,-424.463 1105.97,-431.463"/>
</a>
<a xlink:href="./#personCount" xlink:title="personCount">
<text text-anchor="middle" x="533.5" y="-381.4" font-family="Helvetica,sans-Serif" font-size="14.00">personCount</text>
</a>
</g>
<!-- Population&#45;&gt;http://www.w3.org/2000/01/rdf&#45;schema#Literal -->
<g id="edge94" class="edge"><title>Population&#45;&gt;http://www.w3.org/2000/01/rdf&#45;schema#Literal</title>
<a xlink:href="./#populationDescription" xlink:title="populationDescription">
<path fill="none" stroke="darkslategray" d="M583.8,-360.05C584.721,-371.632 588.03,-385.959 598,-394 617.904,-410.052 903.672,-420.209 1110.64,-425.501"/>
<polygon fill="darkslategray" stroke="darkslategray" points="1110.66,-429.003 1120.75,-425.757 1110.84,-422.005 1110.66,-429.003"/>
</a>
<a xlink:href="./#populationDescription" xlink:title="populationDescription">
<text text-anchor="middle" x="667.5" y="-381.4" font-family="Helvetica,sans-Serif" font-size="14.00">populationDescription</text>
</a>
</g>
<!-- Population&#45;&gt;http://www.w3.org/2000/01/rdf&#45;schema#Literal -->
<g id="edge96" class="edge"><title>Population&#45;&gt;http://www.w3.org/2000/01/rdf&#45;schema#Literal</title>
<a xlink:href="./#provenanceInfo" xlink:title="provenanceInfo">
<path fill="none" stroke="darkslategray" d="M636.22,-349.268C666.55,-354.705 704.975,-363.72 737,-378 748.373,-383.071 748.243,-389.897 760,-394 793.959,-405.851 974.049,-415.937 1121.73,-422.391"/>
<polygon fill="darkslategray" stroke="darkslategray" points="1121.71,-425.894 1131.85,-422.831 1122.02,-418.9 1121.71,-425.894"/>
</a>
<a xlink:href="./#provenanceInfo" xlink:title="provenanceInfo">
<text text-anchor="middle" x="810" y="-381.4" font-family="Helvetica,sans-Serif" font-size="14.00">provenanceInfo</text>
</a>
</g>
<!-- AgeGroup -->
<g id="node4" class="node"><title>AgeGroup</title>
<a xlink:href="./#AgeGroup" xlink:title="AgeGroup">
<ellipse fill="none" stroke="black" cx="819" cy="-254" rx="53.838" ry="18"/>
<text text-anchor="middle" x="819" y="-249.4" font-family="Helvetica,sans-Serif" font-size="14.00">AgeGroup</text>
</a>
</g>
<!-- AgeGroup&#45;&gt;Population -->
<g id="edge4" class="edge"><title>AgeGroup&#45;&gt;Population</title>
<path fill="none" stroke="red" stroke-dasharray="5,2" d="M783.053,-267.461C742.206,-282.757 675.413,-307.769 630.598,-324.55"/>
<polygon fill="red" stroke="red" points="629.245,-321.32 621.107,-328.105 631.7,-327.875 629.245,-321.32"/>
</g>
<!-- AgeGroup&#45;&gt;http://www.w3.org/2000/01/rdf&#45;schema#Literal -->
<g id="edge64" class="edge"><title>AgeGroup&#45;&gt;http://www.w3.org/2000/01/rdf&#45;schema#Literal</title>
<a xlink:href="./#fromAge" xlink:title="fromAge">
<path fill="none" stroke="darkslategray" d="M813.66,-272.189C808.187,-294.759 802.688,-333.5 820,-360 830.662,-376.321 842.628,-369.154 860,-378 872.772,-384.504 874.31,-389.754 888,-394 931.789,-407.582 1031.24,-416.36 1124.12,-421.845"/>
<polygon fill="darkslategray" stroke="darkslategray" points="1124.06,-425.347 1134.24,-422.431 1124.46,-418.358 1124.06,-425.347"/>
</a>
<a xlink:href="./#fromAge" xlink:title="fromAge">
<text text-anchor="middle" x="848.5" y="-337.4" font-family="Helvetica,sans-Serif" font-size="14.00">fromAge</text>
</a>
</g>
<!-- AgeGroup&#45;&gt;http://www.w3.org/2000/01/rdf&#45;schema#Literal -->
<g id="edge106" class="edge"><title>AgeGroup&#45;&gt;http://www.w3.org/2000/01/rdf&#45;schema#Literal</title>
<a xlink:href="./#toAge" xlink:title="toAge">
<path fill="none" stroke="darkslategray" d="M834.853,-271.496C847.01,-285.287 863.874,-305.254 877,-324 897.681,-353.534 887.543,-374.705 918,-394 936.782,-405.898 1034.97,-414.79 1130.08,-420.761"/>
<polygon fill="darkslategray" stroke="darkslategray" points="1129.96,-424.26 1140.16,-421.383 1130.39,-417.273 1129.96,-424.26"/>
</a>
<a xlink:href="./#toAge" xlink:title="toAge">
<text text-anchor="middle" x="912" y="-337.4" font-family="Helvetica,sans-Serif" font-size="14.00">toAge</text>
</a>
</g>
<!-- Casualty -->
<g id="node6" class="node"><title>Casualty</title>
<a xlink:href="./#Casualty" xlink:title="Casualty">
<ellipse fill="none" stroke="black" cx="422" cy="-92" rx="48.9699" ry="18"/>
<text text-anchor="middle" x="422" y="-87.4" font-family="Helvetica,sans-Serif" font-size="14.00">Casualty</text>
</a>
</g>
<!-- Casualty&#45;&gt;AffectedPopulation -->
<g id="edge6" class="edge"><title>Casualty&#45;&gt;AffectedPopulation</title>
<path fill="none" stroke="red" stroke-dasharray="5,2" d="M451.863,-106.444C474.402,-117.345 505.674,-132.47 531.064,-144.75"/>
<polygon fill="red" stroke="red" points="529.598,-147.929 540.124,-149.132 532.646,-141.627 529.598,-147.929"/>
</g>
<!-- Dead -->
<g id="node8" class="node"><title>Dead</title>
<a xlink:href="./#Dead" xlink:title="Dead">
<ellipse fill="none" stroke="black" cx="263" cy="-18" rx="34.2118" ry="18"/>
<text text-anchor="middle" x="263" y="-13.4" font-family="Helvetica,sans-Serif" font-size="14.00">Dead</text>
</a>
</g>
<!-- Dead&#45;&gt;Casualty -->
<g id="edge8" class="edge"><title>Dead&#45;&gt;Casualty</title>
<path fill="none" stroke="red" stroke-dasharray="5,2" d="M288.546,-29.8894C313.894,-41.6864 353.097,-59.9319 382.466,-73.6003"/>
<polygon fill="red" stroke="red" points="381.082,-76.8169 391.625,-77.8633 384.036,-70.4706 381.082,-76.8169"/>
</g>
<!-- Displaced -->
<g id="node10" class="node"><title>Displaced</title>
<a xlink:href="./#Displaced" xlink:title="Displaced">
<ellipse fill="none" stroke="black" cx="575" cy="-92" rx="52.9948" ry="18"/>
<text text-anchor="middle" x="575" y="-87.4" font-family="Helvetica,sans-Serif" font-size="14.00">Displaced</text>
</a>
</g>
<!-- Displaced&#45;&gt;AffectedPopulation -->
<g id="edge10" class="edge"><title>Displaced&#45;&gt;AffectedPopulation</title>
<path fill="none" stroke="red" stroke-dasharray="5,2" d="M575,-110.292C575,-118.536 575,-128.462 575,-137.638"/>
<polygon fill="red" stroke="red" points="571.5,-137.918 575,-147.918 578.5,-137.918 571.5,-137.918"/>
</g>
<!-- Situation -->
<g id="node14" class="node"><title>Situation</title>
<a xlink:href="./#Situation" xlink:title="Situation">
<ellipse fill="none" stroke="black" cx="1166" cy="-342" rx="49.1393" ry="18"/>
<text text-anchor="middle" x="1166" y="-337.4" font-family="Helvetica,sans-Serif" font-size="14.00">Situation</text>
</a>
</g>
<!-- Emergency&#45;&gt;Situation -->
<g id="edge12" class="edge"><title>Emergency&#45;&gt;Situation</title>
<path fill="none" stroke="red" stroke-dasharray="5,2" d="M1076.64,-264.737C1103.63,-271.521 1133.76,-280.731 1144,-290 1151.08,-296.405 1155.95,-305.459 1159.28,-314.221"/>
<polygon fill="red" stroke="red" points="1155.98,-315.409 1162.41,-323.833 1162.64,-313.241 1155.98,-315.409"/>
</g>
<!-- GLIDEnumber -->
<g id="node20" class="node"><title>GLIDEnumber</title>
<a xlink:href="./#GLIDEnumber" xlink:title="GLIDEnumber">
<ellipse fill="none" stroke="black" cx="1028" cy="-342" rx="71.107" ry="18"/>
<text text-anchor="middle" x="1028" y="-337.4" font-family="Helvetica,sans-Serif" font-size="14.00">GLIDEnumber</text>
</a>
</g>
<!-- Emergency&#45;&gt;GLIDEnumber -->
<g id="edge66" class="edge"><title>Emergency&#45;&gt;GLIDEnumber</title>
<a xlink:href="./#hasGLIDEnumber" xlink:title="hasGLIDEnumber">
<path fill="none" stroke="darkslategray" d="M1028,-272.234C1028,-284.151 1028,-299.962 1028,-313.518"/>
<polygon fill="darkslategray" stroke="darkslategray" points="1024.5,-313.79 1028,-323.79 1031.5,-313.79 1024.5,-313.79"/>
</a>
<a xlink:href="./#hasGLIDEnumber" xlink:title="hasGLIDEnumber">
<text text-anchor="middle" x="1084" y="-293.4" font-family="Helvetica,sans-Serif" font-size="14.00">hasGLIDEnumber</text>
</a>
</g>
<!-- Situation&#45;&gt;http://www.w3.org/2000/01/rdf&#45;schema#Literal -->
<g id="edge56" class="edge"><title>Situation&#45;&gt;http://www.w3.org/2000/01/rdf&#45;schema#Literal</title>
<a xlink:href="./#commonTitle" xlink:title="commonTitle">
<path fill="none" stroke="darkslategray" d="M1130.09,-354.357C1122.84,-356.506 1115.23,-358.521 1108,-360 1030.37,-375.874 879.604,-335.462 933,-394 946.616,-408.927 1031.48,-417.75 1118.68,-422.92"/>
<polygon fill="darkslategray" stroke="darkslategray" points="1118.58,-426.42 1128.77,-423.502 1118.98,-419.432 1118.58,-426.42"/>
</a>
<a xlink:href="./#commonTitle" xlink:title="commonTitle">
<text text-anchor="middle" x="975.5" y="-381.4" font-family="Helvetica,sans-Serif" font-size="14.00">commonTitle</text>
</a>
</g>
<!-- Situation&#45;&gt;http://www.w3.org/2000/01/rdf&#45;schema#Literal -->
<g id="edge102" class="edge"><title>Situation&#45;&gt;http://www.w3.org/2000/01/rdf&#45;schema#Literal</title>
<a xlink:href="./#situationDescription" xlink:title="situationDescription">
<path fill="none" stroke="darkslategray" d="M1128.62,-353.831C1121.78,-355.932 1114.68,-358.066 1108,-360 1078.38,-368.571 1059.76,-353.532 1041,-378 1036.67,-383.643 1036.3,-388.664 1041,-394 1049.59,-403.751 1098.7,-411.558 1153.66,-417.375"/>
<polygon fill="darkslategray" stroke="darkslategray" points="1153.31,-420.857 1163.62,-418.401 1154.03,-413.894 1153.31,-420.857"/>
</a>
<a xlink:href="./#situationDescription" xlink:title="situationDescription">
<text text-anchor="middle" x="1104.5" y="-381.4" font-family="Helvetica,sans-Serif" font-size="14.00">situationDescription</text>
</a>
</g>
<!-- Female -->
<g id="node15" class="node"><title>Female</title>
<a xlink:href="./#Female" xlink:title="Female">
<ellipse fill="none" stroke="black" cx="43" cy="-430" rx="43.1021" ry="18"/>
<text text-anchor="middle" x="43" y="-425.4" font-family="Helvetica,sans-Serif" font-size="14.00">Female</text>
</a>
</g>
<!-- http://xmlns.com/foaf/0.1/Agent -->
<g id="node17" class="node"><title>http://xmlns.com/foaf/0.1/Agent</title>
<a xlink:href="./#http://xmlns.com/foaf/0.1/Agent" xlink:title="http://xmlns.com/foaf/0.1/Agent">
<ellipse fill="none" stroke="black" cx="233" cy="-504" rx="145.068" ry="18"/>
<text text-anchor="middle" x="233" y="-499.4" font-family="Helvetica,sans-Serif" font-size="14.00">http://xmlns.com/foaf/0.1/Agent</text>
</a>
</g>
<!-- Female&#45;&gt;http://xmlns.com/foaf/0.1/Agent -->
<g id="edge14" class="edge"><title>Female&#45;&gt;http://xmlns.com/foaf/0.1/Agent</title>
<path fill="none" stroke="red" stroke-dasharray="5,2" d="M74.8017,-442.386C103.166,-453.433 145.286,-469.838 178.935,-482.943"/>
<polygon fill="red" stroke="red" points="178.042,-486.351 188.631,-486.719 180.583,-479.829 178.042,-486.351"/>
</g>
<!-- Sex -->
<g id="node19" class="node"><title>Sex</title>
<a xlink:href="./#Sex" xlink:title="Sex">
<ellipse fill="none" stroke="black" cx="43" cy="-504" rx="27.0036" ry="18"/>
<text text-anchor="middle" x="43" y="-499.4" font-family="Helvetica,sans-Serif" font-size="14.00">Sex</text>
</a>
</g>
<!-- Female&#45;&gt;Sex -->
<g id="edge16" class="edge"><title>Female&#45;&gt;Sex</title>
<path fill="none" stroke="red" stroke-dasharray="5,2" d="M43,-448.292C43,-456.536 43,-466.462 43,-475.638"/>
<polygon fill="red" stroke="red" points="39.5001,-475.918 43,-485.918 46.5001,-475.918 39.5001,-475.918"/>
</g>
<!-- IDP -->
<g id="node21" class="node"><title>IDP</title>
<a xlink:href="./#IDP" xlink:title="IDP">
<ellipse fill="none" stroke="black" cx="542" cy="-18" rx="27" ry="18"/>
<text text-anchor="middle" x="542" y="-13.4" font-family="Helvetica,sans-Serif" font-size="14.00">IDP</text>
</a>
</g>
<!-- IDP&#45;&gt;Displaced -->
<g id="edge18" class="edge"><title>IDP&#45;&gt;Displaced</title>
<path fill="none" stroke="red" stroke-dasharray="5,2" d="M549.821,-35.537C553.709,-44.2559 558.496,-54.9906 562.848,-64.7505"/>
<polygon fill="red" stroke="red" points="559.737,-66.3673 567.006,-74.0749 566.13,-63.5163 559.737,-66.3673"/>
</g>
<!-- Indicator -->
<g id="node23" class="node"><title>Indicator</title>
<a xlink:href="./#Indicator" xlink:title="Indicator">
<ellipse fill="none" stroke="black" cx="1938" cy="-342" rx="49.1393" ry="18"/>
<text text-anchor="middle" x="1938" y="-337.4" font-family="Helvetica,sans-Serif" font-size="14.00">Indicator</text>
</a>
</g>
<!-- Indicator&#45;&gt;Indicator -->
<g id="edge100" class="edge"><title>Indicator&#45;&gt;Indicator</title>
<a xlink:href="./#relatedIndicator" xlink:title="relatedIndicator">
<path fill="none" stroke="darkslategray" d="M1981.82,-333.768C1994.86,-334.014 2005,-336.758 2005,-342 2005,-345.768 1999.76,-348.245 1991.97,-349.432"/>
<polygon fill="darkslategray" stroke="darkslategray" points="1991.51,-345.957 1981.82,-350.232 1992.06,-352.935 1991.51,-345.957"/>
</a>
<a xlink:href="./#relatedIndicator" xlink:title="relatedIndicator">
<text text-anchor="middle" x="2057" y="-337.4" font-family="Helvetica,sans-Serif" font-size="14.00">relatedIndicator</text>
</a>
</g>
<!-- IndicatorUnit -->
<g id="node24" class="node"><title>IndicatorUnit</title>
<a xlink:href="./#IndicatorUnit" xlink:title="IndicatorUnit">
<ellipse fill="none" stroke="black" cx="2351" cy="-430" rx="67.082" ry="18"/>
<text text-anchor="middle" x="2351" y="-425.4" font-family="Helvetica,sans-Serif" font-size="14.00">IndicatorUnit</text>
</a>
</g>
<!-- Indicator&#45;&gt;IndicatorUnit -->
<g id="edge78" class="edge"><title>Indicator&#45;&gt;IndicatorUnit</title>
<a xlink:href="./#inUnit" xlink:title="inUnit">
<path fill="none" stroke="darkslategray" d="M1987.15,-343.239C2123.89,-346.925 2499.93,-358.771 2518,-378 2522.87,-383.182 2522.51,-388.505 2518,-394 2491.83,-425.856 2467.29,-403.248 2427,-412 2421.7,-413.151 2416.2,-414.382 2410.69,-415.64"/>
<polygon fill="darkslategray" stroke="darkslategray" points="2409.77,-412.261 2400.81,-417.921 2411.35,-419.082 2409.77,-412.261"/>
</a>
<a xlink:href="./#inUnit" xlink:title="inUnit">
<text text-anchor="middle" x="2539.5" y="-381.4" font-family="Helvetica,sans-Serif" font-size="14.00">inUnit</text>
</a>
</g>
<!-- Indicator&#45;&gt;http://www.w3.org/2000/01/rdf&#45;schema#Literal -->
<g id="edge54" class="edge"><title>Indicator&#45;&gt;http://www.w3.org/2000/01/rdf&#45;schema#Literal</title>
<a xlink:href="./#benchmark" xlink:title="benchmark">
<path fill="none" stroke="darkslategray" d="M1890.44,-346.374C1829.62,-352.417 1727.98,-364.157 1693,-378 1681.42,-382.582 1681.67,-389.663 1670,-394 1639.64,-405.279 1574,-413.426 1507.96,-419.085"/>
<polygon fill="darkslategray" stroke="darkslategray" points="1507.46,-415.614 1497.79,-419.937 1508.05,-422.59 1507.46,-415.614"/>
</a>
<a xlink:href="./#benchmark" xlink:title="benchmark">
<text text-anchor="middle" x="1728.5" y="-381.4" font-family="Helvetica,sans-Serif" font-size="14.00">benchmark</text>
</a>
</g>
<!-- Indicator&#45;&gt;http://www.w3.org/2000/01/rdf&#45;schema#Literal -->
<g id="edge60" class="edge"><title>Indicator&#45;&gt;http://www.w3.org/2000/01/rdf&#45;schema#Literal</title>
<a xlink:href="./#dataSource" xlink:title="dataSource">
<path fill="none" stroke="darkslategray" d="M1891.96,-348.384C1861.28,-353.732 1820.58,-362.969 1787,-378 1775.63,-383.088 1775.72,-389.792 1764,-394 1721.15,-409.384 1623.32,-418.243 1530.76,-423.319"/>
<polygon fill="darkslategray" stroke="darkslategray" points="1530.47,-419.83 1520.67,-423.859 1530.84,-426.82 1530.47,-419.83"/>
</a>
<a xlink:href="./#dataSource" xlink:title="dataSource">
<text text-anchor="middle" x="1825.5" y="-381.4" font-family="Helvetica,sans-Serif" font-size="14.00">dataSource</text>
</a>
</g>
<!-- Indicator&#45;&gt;http://www.w3.org/2000/01/rdf&#45;schema#Literal -->
<g id="edge62" class="edge"><title>Indicator&#45;&gt;http://www.w3.org/2000/01/rdf&#45;schema#Literal</title>
<a xlink:href="./#denominator" xlink:title="denominator">
<path fill="none" stroke="darkslategray" d="M1915.3,-358.059C1893.82,-373.238 1864.74,-393.737 1864,-394 1831.96,-405.317 1663.72,-415.339 1523.42,-421.916"/>
<polygon fill="darkslategray" stroke="darkslategray" points="1523.2,-418.422 1513.37,-422.383 1523.52,-425.415 1523.2,-418.422"/>
</a>
<a xlink:href="./#denominator" xlink:title="denominator">
<text text-anchor="middle" x="1927" y="-381.4" font-family="Helvetica,sans-Serif" font-size="14.00">denominator</text>
</a>
</g>
<!-- Indicator&#45;&gt;http://www.w3.org/2000/01/rdf&#45;schema#Literal -->
<g id="edge68" class="edge"><title>Indicator&#45;&gt;http://www.w3.org/2000/01/rdf&#45;schema#Literal</title>
<a xlink:href="./#hasStandard" xlink:title="hasStandard">
<path fill="none" stroke="darkslategray" d="M1958.52,-358.72C1969.46,-369.588 1978.82,-383.615 1969,-394 1954,-409.865 1718.48,-419.751 1536.33,-425.061"/>
<polygon fill="darkslategray" stroke="darkslategray" points="1536.23,-421.562 1526.34,-425.349 1536.43,-428.56 1536.23,-421.562"/>
</a>
<a xlink:href="./#hasStandard" xlink:title="hasStandard">
<text text-anchor="middle" x="2015" y="-381.4" font-family="Helvetica,sans-Serif" font-size="14.00">hasStandard</text>
</a>
</g>
<!-- Indicator&#45;&gt;http://www.w3.org/2000/01/rdf&#45;schema#Literal -->
<g id="edge70" class="edge"><title>Indicator&#45;&gt;http://www.w3.org/2000/01/rdf&#45;schema#Literal</title>
<a xlink:href="./#hasValue" xlink:title="hasValue">
<path fill="none" stroke="darkslategray" d="M1985.64,-346.825C2030.42,-353.119 2086.98,-366.718 2061,-394 2043.06,-412.839 1751.06,-422.266 1540.08,-426.639"/>
<polygon fill="darkslategray" stroke="darkslategray" points="1539.71,-423.146 1529.78,-426.85 1539.85,-430.144 1539.71,-423.146"/>
</a>
<a xlink:href="./#hasValue" xlink:title="hasValue">
<text text-anchor="middle" x="2096.5" y="-381.4" font-family="Helvetica,sans-Serif" font-size="14.00">hasValue</text>
</a>
</g>
<!-- Indicator&#45;&gt;http://www.w3.org/2000/01/rdf&#45;schema#Literal -->
<g id="edge80" class="edge"><title>Indicator&#45;&gt;http://www.w3.org/2000/01/rdf&#45;schema#Literal</title>
<a xlink:href="./#indicatorID" xlink:title="indicatorID">
<path fill="none" stroke="darkslategray" d="M1986.76,-344.251C2037.54,-347.738 2112.13,-356.47 2130,-378 2134.54,-383.472 2134.91,-388.861 2130,-394 2109.81,-415.111 1773.63,-423.995 1541.89,-427.623"/>
<polygon fill="darkslategray" stroke="darkslategray" points="1541.57,-424.128 1531.62,-427.782 1541.67,-431.127 1541.57,-424.128"/>
</a>
<a xlink:href="./#indicatorID" xlink:title="indicatorID">
<text text-anchor="middle" x="2168" y="-381.4" font-family="Helvetica,sans-Serif" font-size="14.00">indicatorID</text>
</a>
</g>
<!-- Indicator&#45;&gt;http://www.w3.org/2000/01/rdf&#45;schema#Literal -->
<g id="edge82" class="edge"><title>Indicator&#45;&gt;http://www.w3.org/2000/01/rdf&#45;schema#Literal</title>
<a xlink:href="./#indicatorNote" xlink:title="indicatorNote">
<path fill="none" stroke="darkslategray" d="M1986.48,-345.071C2060.01,-350.228 2192.73,-361.689 2207,-378 2211.68,-383.351 2211.92,-388.87 2207,-394 2184.25,-417.695 1796.7,-425.798 1542.66,-428.567"/>
<polygon fill="darkslategray" stroke="darkslategray" points="1542.51,-425.068 1532.55,-428.675 1542.59,-432.068 1542.51,-425.068"/>
</a>
<a xlink:href="./#indicatorNote" xlink:title="indicatorNote">
<text text-anchor="middle" x="2254" y="-381.4" font-family="Helvetica,sans-Serif" font-size="14.00">indicatorNote</text>
</a>
</g>
<!-- Indicator&#45;&gt;http://www.w3.org/2000/01/rdf&#45;schema#Literal -->
<g id="edge84" class="edge"><title>Indicator&#45;&gt;http://www.w3.org/2000/01/rdf&#45;schema#Literal</title>
<a xlink:href="./#indicatorReferences" xlink:title="indicatorReferences">
<path fill="none" stroke="darkslategray" d="M1986.98,-343.261C2081.41,-346.202 2281.24,-355.087 2302,-378 2306.77,-383.27 2306.93,-388.88 2302,-394 2288.89,-407.601 1821.76,-419.683 1537.92,-425.789"/>
<polygon fill="darkslategray" stroke="darkslategray" points="1537.82,-422.291 1527.9,-426.004 1537.97,-429.289 1537.82,-422.291"/>
</a>
<a xlink:href="./#indicatorReferences" xlink:title="indicatorReferences">
<text text-anchor="middle" x="2371.5" y="-381.4" font-family="Helvetica,sans-Serif" font-size="14.00">indicatorReferences</text>
</a>
</g>
<!-- Indicator&#45;&gt;http://www.w3.org/2000/01/rdf&#45;schema#Literal -->
<g id="edge86" class="edge"><title>Indicator&#45;&gt;http://www.w3.org/2000/01/rdf&#45;schema#Literal</title>
<a xlink:href="./#indicatorTitle" xlink:title="indicatorTitle">
<path fill="none" stroke="darkslategray" d="M1888.78,-342.613C1729.84,-344.832 1239.18,-353.634 1216,-378 1203.24,-391.417 1212.4,-401.789 1229.78,-409.613"/>
<polygon fill="darkslategray" stroke="darkslategray" points="1228.96,-413.053 1239.55,-413.474 1231.53,-406.543 1228.96,-413.053"/>
</a>
<a xlink:href="./#indicatorTitle" xlink:title="indicatorTitle">
<text text-anchor="middle" x="1259" y="-381.4" font-family="Helvetica,sans-Serif" font-size="14.00">indicatorTitle</text>
</a>
</g>
<!-- Indicator&#45;&gt;http://www.w3.org/2000/01/rdf&#45;schema#Literal -->
<g id="edge88" class="edge"><title>Indicator&#45;&gt;http://www.w3.org/2000/01/rdf&#45;schema#Literal</title>
<a xlink:href="./#measurementMethodology" xlink:title="measurementMethodology">
<path fill="none" stroke="darkslategray" d="M1888.89,-343.085C1746.85,-346.458 1344.45,-357.766 1325,-378 1319.04,-384.201 1317.38,-392.988 1317.64,-401.578"/>
<polygon fill="darkslategray" stroke="darkslategray" points="1314.19,-402.209 1318.75,-411.77 1321.14,-401.449 1314.19,-402.209"/>
</a>
<a xlink:href="./#measurementMethodology" xlink:title="measurementMethodology">
<text text-anchor="middle" x="1411.5" y="-381.4" font-family="Helvetica,sans-Serif" font-size="14.00">measurementMethodology</text>
</a>
</g>
<!-- Indicator&#45;&gt;http://www.w3.org/2000/01/rdf&#45;schema#Literal -->
<g id="edge90" class="edge"><title>Indicator&#45;&gt;http://www.w3.org/2000/01/rdf&#45;schema#Literal</title>
<a xlink:href="./#numerator" xlink:title="numerator">
<path fill="none" stroke="darkslategray" d="M1888.87,-343.074C1793.64,-345.674 1587.46,-353.97 1521,-378 1509.29,-382.234 1509.44,-389.083 1498,-394 1480.62,-401.468 1461.59,-407.424 1442.69,-412.164"/>
<polygon fill="darkslategray" stroke="darkslategray" points="1441.73,-408.794 1432.83,-414.533 1443.37,-415.6 1441.73,-408.794"/>
</a>
<a xlink:href="./#numerator" xlink:title="numerator">
<text text-anchor="middle" x="1555" y="-381.4" font-family="Helvetica,sans-Serif" font-size="14.00">numerator</text>
</a>
</g>
<!-- Indicator&#45;&gt;http://www.w3.org/2000/01/rdf&#45;schema#Literal -->
<g id="edge98" class="edge"><title>Indicator&#45;&gt;http://www.w3.org/2000/01/rdf&#45;schema#Literal</title>
<a xlink:href="./#rationale" xlink:title="rationale">
<path fill="none" stroke="darkslategray" d="M1889.16,-343.845C1809.97,-347.415 1657.41,-356.861 1608,-378 1597.85,-382.343 1599.09,-389.524 1589,-394 1568.64,-403.032 1526.31,-410.351 1481.34,-415.972"/>
<polygon fill="darkslategray" stroke="darkslategray" points="1480.91,-412.499 1471.4,-417.182 1481.75,-419.447 1480.91,-412.499"/>
</a>
<a xlink:href="./#rationale" xlink:title="rationale">
<text text-anchor="middle" x="1637" y="-381.4" font-family="Helvetica,sans-Serif" font-size="14.00">rationale</text>
</a>
</g>
<!-- http://xmlns.com/foaf/0.1/Document -->
<g id="node59" class="node"><title>http://xmlns.com/foaf/0.1/Document</title>
<a xlink:href="./#http://xmlns.com/foaf/0.1/Document" xlink:title="http://xmlns.com/foaf/0.1/Document">
<ellipse fill="none" stroke="gray" cx="2600" cy="-430" rx="163.851" ry="18"/>
<text text-anchor="middle" x="2600" y="-425.4" font-family="Helvetica,sans-Serif" font-size="14.00" fill="gray">http://xmlns.com/foaf/0.1/Document</text>
</a>
</g>
<!-- Indicator&#45;&gt;http://xmlns.com/foaf/0.1/Document -->
<g id="edge58" class="edge"><title>Indicator&#45;&gt;http://xmlns.com/foaf/0.1/Document</title>
<a xlink:href="./#dataSource" xlink:title="dataSource">
<path fill="none" stroke="darkslategray" d="M1987.34,-342.441C2125.97,-344.016 2512.09,-350.819 2562,-378 2572.45,-383.691 2580.78,-393.637 2586.94,-403.316"/>
<polygon fill="darkslategray" stroke="darkslategray" points="2583.94,-405.117 2592,-412.001 2589.99,-401.597 2583.94,-405.117"/>
</a>
<a xlink:href="./#dataSource" xlink:title="dataSource">
<text text-anchor="middle" x="2618.5" y="-381.4" font-family="Helvetica,sans-Serif" font-size="14.00">dataSource</text>
</a>
</g>
<!-- Sector -->
<g id="node69" class="node"><title>Sector</title>
<a xlink:href="./#Sector" xlink:title="Sector">
<ellipse fill="none" stroke="gray" cx="2823" cy="-430" rx="40.92" ry="18"/>
<text text-anchor="middle" x="2823" y="-425.4" font-family="Helvetica,sans-Serif" font-size="14.00" fill="gray">Sector</text>
</a>
</g>
<!-- Indicator&#45;&gt;Sector -->
<g id="edge76" class="edge"><title>Indicator&#45;&gt;Sector</title>
<a xlink:href="./#inSector" xlink:title="inSector">
<path fill="none" stroke="darkslategray" d="M1987.05,-342.879C2127.76,-345.647 2530.99,-355.383 2661,-378 2703.86,-385.455 2751.01,-401.541 2783.34,-413.861"/>
<polygon fill="darkslategray" stroke="darkslategray" points="2782.29,-417.206 2792.88,-417.549 2784.82,-410.677 2782.29,-417.206"/>
</a>
<a xlink:href="./#inSector" xlink:title="inSector">
<text text-anchor="middle" x="2751.5" y="-381.4" font-family="Helvetica,sans-Serif" font-size="14.00">inSector</text>
</a>
</g>
<!-- Organisation -->
<g id="node84" class="node"><title>Organisation</title>
<a xlink:href="./#Organisation" xlink:title="Organisation">
<ellipse fill="none" stroke="gray" cx="2948" cy="-430" rx="65.9119" ry="18"/>
<text text-anchor="middle" x="2948" y="-425.4" font-family="Helvetica,sans-Serif" font-size="14.00" fill="gray">Organisation</text>
</a>
</g>
<!-- Indicator&#45;&gt;Organisation -->
<g id="edge104" class="edge"><title>Indicator&#45;&gt;Organisation</title>
<a xlink:href="./#submittingOrganization" xlink:title="submittingOrganization">
<path fill="none" stroke="darkslategray" d="M1987.1,-342.402C2143.45,-343.946 2628.53,-350.857 2783,-378 2823.75,-385.16 2868.42,-399.671 2900.99,-411.548"/>
<polygon fill="darkslategray" stroke="darkslategray" points="2900.1,-414.95 2910.69,-415.139 2902.53,-408.386 2900.1,-414.95"/>
</a>
<a xlink:href="./#submittingOrganization" xlink:title="submittingOrganization">
<text text-anchor="middle" x="2922" y="-381.4" font-family="Helvetica,sans-Serif" font-size="14.00">submittingOrganization</text>
</a>
</g>
<!-- Injured -->
<g id="node25" class="node"><title>Injured</title>
<a xlink:href="./#Injured" xlink:title="Injured">
<ellipse fill="none" stroke="black" cx="355" cy="-18" rx="40.2492" ry="18"/>
<text text-anchor="middle" x="355" y="-13.4" font-family="Helvetica,sans-Serif" font-size="14.00">Injured</text>
</a>
</g>
<!-- Injured&#45;&gt;Casualty -->
<g id="edge20" class="edge"><title>Injured&#45;&gt;Casualty</title>
<path fill="none" stroke="red" stroke-dasharray="5,2" d="M370.203,-34.7917C378.902,-44.3997 389.976,-56.6301 399.649,-67.3143"/>
<polygon fill="red" stroke="red" points="397.086,-69.6973 406.392,-74.7612 402.275,-64.999 397.086,-69.6973"/>
</g>
<!-- InputIndicator -->
<g id="node27" class="node"><title>InputIndicator</title>
<a xlink:href="./#InputIndicator" xlink:title="InputIndicator">
<ellipse fill="none" stroke="black" cx="1226" cy="-254" rx="69.9366" ry="18"/>
<text text-anchor="middle" x="1226" y="-249.4" font-family="Helvetica,sans-Serif" font-size="14.00">InputIndicator</text>
</a>
</g>
<!-- InputIndicator&#45;&gt;Indicator -->
<g id="edge22" class="edge"><title>InputIndicator&#45;&gt;Indicator</title>
<path fill="none" stroke="red" stroke-dasharray="5,2" d="M1288.19,-262.468C1366.31,-273.03 1504.5,-291.469 1623,-306 1713.05,-317.042 1817.72,-328.789 1880.86,-335.755"/>
<polygon fill="red" stroke="red" points="1880.68,-339.257 1891.01,-336.874 1881.45,-332.299 1880.68,-339.257"/>
</g>
<!-- Male -->
<g id="node29" class="node"><title>Male</title>
<a xlink:href="./#Male" xlink:title="Male">
<ellipse fill="none" stroke="black" cx="135" cy="-430" rx="31.0281" ry="18"/>
<text text-anchor="middle" x="135" y="-425.4" font-family="Helvetica,sans-Serif" font-size="14.00">Male</text>
</a>
</g>
<!-- Male&#45;&gt;http://xmlns.com/foaf/0.1/Agent -->
<g id="edge24" class="edge"><title>Male&#45;&gt;http://xmlns.com/foaf/0.1/Agent</title>
<path fill="none" stroke="red" stroke-dasharray="5,2" d="M154.362,-444.62C167.634,-454.642 185.554,-468.173 200.935,-479.788"/>
<polygon fill="red" stroke="red" points="199.084,-482.776 209.173,-486.008 203.302,-477.189 199.084,-482.776"/>
</g>
<!-- Male&#45;&gt;Sex -->
<g id="edge26" class="edge"><title>Male&#45;&gt;Sex</title>
<path fill="none" stroke="red" stroke-dasharray="5,2" d="M116.824,-444.62C103.038,-455.708 83.9126,-471.092 68.5825,-483.423"/>
<polygon fill="red" stroke="red" points="66.1128,-480.918 60.5143,-489.912 70.5001,-486.372 66.1128,-480.918"/>
</g>
<!-- Missing -->
<g id="node32" class="node"><title>Missing</title>
<a xlink:href="./#Missing" xlink:title="Missing">
<ellipse fill="none" stroke="black" cx="455" cy="-18" rx="41.7645" ry="18"/>
<text text-anchor="middle" x="455" y="-13.4" font-family="Helvetica,sans-Serif" font-size="14.00">Missing</text>
</a>
</g>
<!-- Missing&#45;&gt;Casualty -->
<g id="edge28" class="edge"><title>Missing&#45;&gt;Casualty</title>
<path fill="none" stroke="red" stroke-dasharray="5,2" d="M447.012,-35.9133C443.149,-44.5752 438.429,-55.1588 434.135,-64.7891"/>
<polygon fill="red" stroke="red" points="430.906,-63.4366 430.029,-73.9951 437.299,-66.2876 430.906,-63.4366"/>
</g>
<!-- Need -->
<g id="node34" class="node"><title>Need</title>
<a xlink:href="./#Need" xlink:title="Need">
<ellipse fill="none" stroke="black" cx="1505" cy="-254" rx="34.2118" ry="18"/>
<text text-anchor="middle" x="1505" y="-249.4" font-family="Helvetica,sans-Serif" font-size="14.00">Need</text>
</a>
</g>
<!-- Need&#45;&gt;Indicator -->
<g id="edge52" class="edge"><title>Need&#45;&gt;Indicator</title>
<a xlink:href="./#basedOn" xlink:title="basedOn">
<path fill="none" stroke="darkslategray" d="M1532.86,-264.517C1540.32,-267.143 1548.42,-269.828 1556,-272 1669.13,-304.407 1805.57,-325.163 1880.94,-335.091"/>
<polygon fill="darkslategray" stroke="darkslategray" points="1880.8,-338.602 1891.17,-336.421 1881.7,-331.66 1880.8,-338.602"/>
</a>
<a xlink:href="./#basedOn" xlink:title="basedOn">
<text text-anchor="middle" x="1719" y="-293.4" font-family="Helvetica,sans-Serif" font-size="14.00">basedOn</text>
</a>
</g>
<!-- Need&#45;&gt;http://www.w3.org/2000/01/rdf&#45;schema#Literal -->
<g id="edge74" class="edge"><title>Need&#45;&gt;http://www.w3.org/2000/01/rdf&#45;schema#Literal</title>
<a xlink:href="./#identifiedAt" xlink:title="identifiedAt">
<path fill="none" stroke="darkslategray" d="M1474.39,-262.065C1404.63,-281.13 1237.45,-330.917 1206,-378 1196.68,-391.952 1202.93,-402.192 1216.44,-409.697"/>
<polygon fill="darkslategray" stroke="darkslategray" points="1215.16,-412.966 1225.71,-414.026 1218.13,-406.624 1215.16,-412.966"/>
</a>
<a xlink:href="./#identifiedAt" xlink:title="identifiedAt">
<text text-anchor="middle" x="1325.5" y="-337.4" font-family="Helvetica,sans-Serif" font-size="14.00">identifiedAt</text>
</a>
</g>
<!-- NonDisplaced -->
<g id="node35" class="node"><title>NonDisplaced</title>
<a xlink:href="./#NonDisplaced" xlink:title="NonDisplaced">
<ellipse fill="none" stroke="black" cx="716" cy="-92" rx="69.7653" ry="18"/>
<text text-anchor="middle" x="716" y="-87.4" font-family="Helvetica,sans-Serif" font-size="14.00">NonDisplaced</text>
</a>
</g>
<!-- NonDisplaced&#45;&gt;AffectedPopulation -->
<g id="edge30" class="edge"><title>NonDisplaced&#45;&gt;AffectedPopulation</title>
<path fill="none" stroke="red" stroke-dasharray="5,2" d="M685.057,-108.24C664.912,-118.812 638.396,-132.728 616.439,-144.252"/>
<polygon fill="red" stroke="red" points="614.568,-141.281 607.34,-149.027 617.821,-147.479 614.568,-141.281"/>
</g>
<!-- Others -->
<g id="node37" class="node"><title>Others</title>
<a xlink:href="./#Others" xlink:title="Others">
<ellipse fill="none" stroke="black" cx="628" cy="-18" rx="40.92" ry="18"/>
<text text-anchor="middle" x="628" y="-13.4" font-family="Helvetica,sans-Serif" font-size="14.00">Others</text>
</a>
</g>
<!-- Others&#45;&gt;Displaced -->
<g id="edge32" class="edge"><title>Others&#45;&gt;Displaced</title>
<path fill="none" stroke="red" stroke-dasharray="5,2" d="M615.44,-35.537C608.887,-44.686 600.745,-56.0545 593.487,-66.1873"/>
<polygon fill="red" stroke="red" points="590.631,-64.1646 587.654,-74.3325 596.322,-68.2405 590.631,-64.1646"/>
</g>
<!-- OutcomeIndicator -->
<g id="node39" class="node"><title>OutcomeIndicator</title>
<a xlink:href="./#OutcomeIndicator" xlink:title="OutcomeIndicator">
<ellipse fill="none" stroke="black" cx="1655" cy="-254" rx="89.8899" ry="18"/>
<text text-anchor="middle" x="1655" y="-249.4" font-family="Helvetica,sans-Serif" font-size="14.00">OutcomeIndicator</text>
</a>
</g>
<!-- OutcomeIndicator&#45;&gt;Indicator -->
<g id="edge34" class="edge"><title>OutcomeIndicator&#45;&gt;Indicator</title>
<path fill="none" stroke="red" stroke-dasharray="5,2" d="M1703.97,-269.228C1756.44,-285.542 1839.12,-311.252 1890.86,-327.343"/>
<polygon fill="red" stroke="red" points="1889.88,-330.701 1900.47,-330.329 1891.96,-324.017 1889.88,-330.701"/>
</g>
<!-- OutputIndicator -->
<g id="node41" class="node"><title>OutputIndicator</title>
<a xlink:href="./#OutputIndicator" xlink:title="OutputIndicator">
<ellipse fill="none" stroke="black" cx="1842" cy="-254" rx="79.1568" ry="18"/>
<text text-anchor="middle" x="1842" y="-249.4" font-family="Helvetica,sans-Serif" font-size="14.00">OutputIndicator</text>
</a>
</g>
<!-- OutputIndicator&#45;&gt;Indicator -->
<g id="edge36" class="edge"><title>OutputIndicator&#45;&gt;Indicator</title>
<path fill="none" stroke="red" stroke-dasharray="5,2" d="M1861.43,-271.808C1876.02,-285.188 1896.16,-303.647 1912.12,-318.278"/>
<polygon fill="red" stroke="red" points="1909.84,-320.937 1919.58,-325.114 1914.57,-315.777 1909.84,-320.937"/>
</g>
<!-- http://xmlns.com/foaf/0.1/Group&#45;&gt;http://xmlns.com/foaf/0.1/Agent -->
<g id="edge48" class="edge"><title>http://xmlns.com/foaf/0.1/Group&#45;&gt;http://xmlns.com/foaf/0.1/Agent</title>
<path fill="none" stroke="red" stroke-dasharray="5,2" d="M306.519,-447.913C293.982,-457.477 278.374,-469.385 264.768,-479.764"/>
<polygon fill="red" stroke="red" points="262.429,-477.147 256.601,-485.995 266.674,-482.712 262.429,-477.147"/>
</g>
<!-- ProxyInputIndicator -->
<g id="node45" class="node"><title>ProxyInputIndicator</title>
<a xlink:href="./#ProxyInputIndicator" xlink:title="ProxyInputIndicator">
<ellipse fill="none" stroke="black" cx="2034" cy="-254" rx="94.7578" ry="18"/>
<text text-anchor="middle" x="2034" y="-249.4" font-family="Helvetica,sans-Serif" font-size="14.00">ProxyInputIndicator</text>
</a>
</g>
<!-- ProxyInputIndicator&#45;&gt;Indicator -->
<g id="edge40" class="edge"><title>ProxyInputIndicator&#45;&gt;Indicator</title>
<path fill="none" stroke="red" stroke-dasharray="5,2" d="M2014.57,-271.808C1999.98,-285.188 1979.84,-303.647 1963.88,-318.278"/>
<polygon fill="red" stroke="red" points="1961.43,-315.777 1956.42,-325.114 1966.16,-320.937 1961.43,-315.777"/>
</g>
<!-- ProxyOutcomeIndicator -->
<g id="node47" class="node"><title>ProxyOutcomeIndicator</title>
<a xlink:href="./#ProxyOutcomeIndicator" xlink:title="ProxyOutcomeIndicator">
<ellipse fill="none" stroke="black" cx="2261" cy="-254" rx="114.039" ry="18"/>
<text text-anchor="middle" x="2261" y="-249.4" font-family="Helvetica,sans-Serif" font-size="14.00">ProxyOutcomeIndicator</text>
</a>
</g>
<!-- ProxyOutcomeIndicator&#45;&gt;Indicator -->
<g id="edge42" class="edge"><title>ProxyOutcomeIndicator&#45;&gt;Indicator</title>
<path fill="none" stroke="red" stroke-dasharray="5,2" d="M2203.63,-269.631C2142.1,-286.393 2045.44,-312.729 1987.25,-328.583"/>
<polygon fill="red" stroke="red" points="1986.28,-325.219 1977.55,-331.225 1988.12,-331.973 1986.28,-325.219"/>
</g>
<!-- RefugeesAsylumSeekers -->
<g id="node49" class="node"><title>RefugeesAsylumSeekers</title>
<a xlink:href="./#RefugeesAsylumSeekers" xlink:title="RefugeesAsylumSeekers">
<ellipse fill="none" stroke="black" cx="806" cy="-18" rx="118.906" ry="18"/>
<text text-anchor="middle" x="806" y="-13.4" font-family="Helvetica,sans-Serif" font-size="14.00">RefugeesAsylumSeekers</text>
</a>
</g>
<!-- RefugeesAsylumSeekers&#45;&gt;Displaced -->
<g id="edge44" class="edge"><title>RefugeesAsylumSeekers&#45;&gt;Displaced</title>
<path fill="none" stroke="red" stroke-dasharray="5,2" d="M755.02,-34.3312C715.869,-46.8731 662.155,-64.0802 623.609,-76.4284"/>
<polygon fill="red" stroke="red" points="622.115,-73.2316 613.66,-79.6155 624.251,-79.8979 622.115,-73.2316"/>
</g>
<!-- TotalPopulation -->
<g id="node51" class="node"><title>TotalPopulation</title>
<a xlink:href="./#TotalPopulation" xlink:title="TotalPopulation">
<ellipse fill="none" stroke="black" cx="667" cy="-254" rx="79.8276" ry="18"/>
<text text-anchor="middle" x="667" y="-249.4" font-family="Helvetica,sans-Serif" font-size="14.00">TotalPopulation</text>
</a>
</g>
<!-- TotalPopulation&#45;&gt;Population -->
<g id="edge46" class="edge"><title>TotalPopulation&#45;&gt;Population</title>
<path fill="none" stroke="red" stroke-dasharray="5,2" d="M650.204,-271.808C637.974,-284.775 621.243,-302.513 607.661,-316.913"/>
<polygon fill="red" stroke="red" points="604.803,-314.842 600.488,-324.519 609.896,-319.645 604.803,-314.842"/>
</g>
</g>
</svg>
