<?xml version="1.0" encoding="UTF-8" standalone="no"?>
<!DOCTYPE svg PUBLIC "-//W3C//DTD SVG 1.1//EN"
 "http://www.w3.org/Graphics/SVG/1.1/DTD/svg11.dtd">
<!-- Generated by graphviz version 2.26.3 (20100126.1600)
 -->
<!-- Title: _anonymous_0 Pages: 1 -->
<svg width="1323pt" height="206pt"
 viewBox="0.00 0.00 1323.00 206.00" xmlns="http://www.w3.org/2000/svg" xmlns:xlink="http://www.w3.org/1999/xlink">
<g id="graph1" class="graph" transform="scale(1 1) rotate(0) translate(4 202)">
<title>_anonymous_0</title>
<polygon fill="white" stroke="white" points="-4,5 -4,-202 1320,-202 1320,5 -4,5"/>
<!-- ReportingPeriod -->
<g id="node1" class="node"><title>ReportingPeriod</title>
<a xlink:href="./#ReportingPeriod" xlink:title="ReportingPeriod">
<ellipse fill="none" stroke="black" cx="173" cy="-18" rx="82.0108" ry="18"/>
<text text-anchor="middle" x="173" y="-13.4" font-family="Helvetica,sans-Serif" font-size="14.00">ReportingPeriod</text>
</a>
</g>
<!-- http://purl.org/dc/terms/PeriodOfTime -->
<g id="node3" class="node"><title>http://purl.org/dc/terms/PeriodOfTime</title>
<a xlink:href="./#http://purl.org/dc/terms/PeriodOfTime" xlink:title="http://purl.org/dc/terms/PeriodOfTime">
<ellipse fill="none" stroke="black" cx="173" cy="-92" rx="173.242" ry="18"/>
<text text-anchor="middle" x="173" y="-87.4" font-family="Helvetica,sans-Serif" font-size="14.00">http://purl.org/dc/terms/PeriodOfTime</text>
</a>
</g>
<!-- ReportingPeriod&#45;&gt;http://purl.org/dc/terms/PeriodOfTime -->
<g id="edge2" class="edge"><title>ReportingPeriod&#45;&gt;http://purl.org/dc/terms/PeriodOfTime</title>
<path fill="none" stroke="red" stroke-dasharray="5,2" d="M173,-36.2921C173,-44.5365 173,-54.4624 173,-63.6378"/>
<polygon fill="red" stroke="red" points="169.5,-63.9182 173,-73.9183 176.5,-63.9183 169.5,-63.9182"/>
</g>
<!-- http://www.w3.org/2000/01/rdf&#45;schema#Literal -->
<g id="node5" class="node"><title>http://www.w3.org/2000/01/rdf&#45;schema#Literal</title>
<a xlink:href="./#http://www.w3.org/2000/01/rdf-schema#Literal" xlink:title="http://www.w3.org/2000/01/rdf&#45;schema#Literal">
<ellipse fill="none" stroke="gray" cx="546" cy="-180" rx="208.796" ry="18"/>
<text text-anchor="middle" x="546" y="-175.4" font-family="Helvetica,sans-Serif" font-size="14.00" fill="gray">http://www.w3.org/2000/01/rdf&#45;schema#Literal</text>
</a>
</g>
<!-- http://purl.org/dc/terms/PeriodOfTime&#45;&gt;http://www.w3.org/2000/01/rdf&#45;schema#Literal -->
<g id="edge10" class="edge"><title>http://purl.org/dc/terms/PeriodOfTime&#45;&gt;http://www.w3.org/2000/01/rdf&#45;schema#Literal</title>
<a xlink:href="./#end" xlink:title="end">
<path fill="none" stroke="darkslategray" d="M160.982,-110.391C155.442,-121.379 151.727,-134.92 160,-144 173.353,-158.656 256.194,-167.448 341.725,-172.668"/>
<polygon fill="darkslategray" stroke="darkslategray" points="341.704,-176.173 351.893,-173.271 342.118,-169.185 341.704,-176.173"/>
</a>
<a xlink:href="./#end" xlink:title="end">
<text text-anchor="middle" x="172.5" y="-131.4" font-family="Helvetica,sans-Serif" font-size="14.00">end</text>
</a>
</g>
<!-- http://purl.org/dc/terms/PeriodOfTime&#45;&gt;http://www.w3.org/2000/01/rdf&#45;schema#Literal -->
<g id="edge18" class="edge"><title>http://purl.org/dc/terms/PeriodOfTime&#45;&gt;http://www.w3.org/2000/01/rdf&#45;schema#Literal</title>
<a xlink:href="./#start" xlink:title="start">
<path fill="none" stroke="darkslategray" d="M185.195,-110.088C194.18,-121.845 207.498,-136.358 223,-144 247.766,-156.209 300.807,-164.344 356.883,-169.737"/>
<polygon fill="darkslategray" stroke="darkslategray" points="356.73,-173.237 367.011,-170.678 357.378,-166.267 356.73,-173.237"/>
</a>
<a xlink:href="./#start" xlink:title="start">
<text text-anchor="middle" x="238.5" y="-131.4" font-family="Helvetica,sans-Serif" font-size="14.00">start</text>
</a>
</g>
<!-- Activity -->
<g id="node4" class="node"><title>Activity</title>
<a xlink:href="./#Activity" xlink:title="Activity">
<ellipse fill="none" stroke="gray" cx="433" cy="-92" rx="41.7645" ry="18"/>
<text text-anchor="middle" x="433" y="-87.4" font-family="Helvetica,sans-Serif" font-size="14.00" fill="gray">Activity</text>
</a>
</g>
<!-- Activity&#45;&gt;http://www.w3.org/2000/01/rdf&#45;schema#Literal -->
<g id="edge4" class="edge"><title>Activity&#45;&gt;http://www.w3.org/2000/01/rdf&#45;schema#Literal</title>
<a xlink:href="./#actualEnd" xlink:title="actualEnd">
<path fill="none" stroke="darkslategray" d="M396.159,-100.785C383.174,-103.807 368.459,-107.145 355,-110 313.816,-118.735 288.792,-95.525 262,-128 257.475,-133.485 257.298,-138.665 262,-144 270.641,-153.805 320.126,-161.63 375.432,-167.447"/>
<polygon fill="darkslategray" stroke="darkslategray" points="375.145,-170.936 385.45,-168.474 375.859,-163.973 375.145,-170.936"/>
</a>
<a xlink:href="./#actualEnd" xlink:title="actualEnd">
<text text-anchor="middle" x="295" y="-131.4" font-family="Helvetica,sans-Serif" font-size="14.00">actualEnd</text>
</a>
</g>
<!-- Activity&#45;&gt;http://www.w3.org/2000/01/rdf&#45;schema#Literal -->
<g id="edge6" class="edge"><title>Activity&#45;&gt;http://www.w3.org/2000/01/rdf&#45;schema#Literal</title>
<a xlink:href="./#actualStart" xlink:title="actualStart">
<path fill="none" stroke="darkslategray" d="M396.129,-100.768C367.226,-109.378 334.447,-124.111 351,-144 358.272,-152.737 374.769,-159.363 395.248,-164.384"/>
<polygon fill="darkslategray" stroke="darkslategray" points="394.731,-167.855 405.257,-166.651 396.277,-161.028 394.731,-167.855"/>
</a>
<a xlink:href="./#actualStart" xlink:title="actualStart">
<text text-anchor="middle" x="388" y="-131.4" font-family="Helvetica,sans-Serif" font-size="14.00">actualStart</text>
</a>
</g>
<!-- Activity&#45;&gt;http://www.w3.org/2000/01/rdf&#45;schema#Literal -->
<g id="edge12" class="edge"><title>Activity&#45;&gt;http://www.w3.org/2000/01/rdf&#45;schema#Literal</title>
<a xlink:href="./#plannedEnd" xlink:title="plannedEnd">
<path fill="none" stroke="darkslategray" d="M434.199,-110.393C435.824,-121.382 439.548,-134.923 448,-144 453.095,-149.472 459.093,-154.115 465.57,-158.054"/>
<polygon fill="darkslategray" stroke="darkslategray" points="464.203,-161.295 474.66,-163.002 467.55,-155.147 464.203,-161.295"/>
</a>
<a xlink:href="./#plannedEnd" xlink:title="plannedEnd">
<text text-anchor="middle" x="486" y="-131.4" font-family="Helvetica,sans-Serif" font-size="14.00">plannedEnd</text>
</a>
</g>
<!-- Activity&#45;&gt;http://www.w3.org/2000/01/rdf&#45;schema#Literal -->
<g id="edge14" class="edge"><title>Activity&#45;&gt;http://www.w3.org/2000/01/rdf&#45;schema#Literal</title>
<a xlink:href="./#plannedStart" xlink:title="plannedStart">
<path fill="none" stroke="darkslategray" d="M471.318,-99.893C489.203,-105.248 509.658,-113.992 524,-128 530.653,-134.498 535.396,-143.322 538.732,-151.855"/>
<polygon fill="darkslategray" stroke="darkslategray" points="535.504,-153.236 542.031,-161.582 542.133,-150.988 535.504,-153.236"/>
</a>
<a xlink:href="./#plannedStart" xlink:title="plannedStart">
<text text-anchor="middle" x="576.5" y="-131.4" font-family="Helvetica,sans-Serif" font-size="14.00">plannedStart</text>
</a>
</g>
<!-- http://www.w3.org/2002/07/owl#Thing -->
<g id="node8" class="node"><title>http://www.w3.org/2002/07/owl#Thing</title>
<a xlink:href="./#http://www.w3.org/2002/07/owl#Thing" xlink:title="http://www.w3.org/2002/07/owl#Thing">
<ellipse fill="none" stroke="gray" cx="687" cy="-92" rx="171.059" ry="18"/>
<text text-anchor="middle" x="687" y="-87.4" font-family="Helvetica,sans-Serif" font-size="14.00" fill="gray">http://www.w3.org/2002/07/owl#Thing</text>
</a>
</g>
<!-- http://www.w3.org/2002/07/owl#Thing&#45;&gt;http://www.w3.org/2000/01/rdf&#45;schema#Literal -->
<g id="edge8" class="edge"><title>http://www.w3.org/2002/07/owl#Thing&#45;&gt;http://www.w3.org/2000/01/rdf&#45;schema#Literal</title>
<a xlink:href="./#end" xlink:title="end">
<path fill="none" stroke="darkslategray" d="M667.491,-109.963C655.278,-120.658 638.891,-134.041 623,-144 615.103,-148.949 606.416,-153.648 597.809,-157.918"/>
<polygon fill="darkslategray" stroke="darkslategray" points="596.037,-154.886 588.543,-162.374 599.072,-161.194 596.037,-154.886"/>
</a>
<a xlink:href="./#end" xlink:title="end">
<text text-anchor="middle" x="657.5" y="-131.4" font-family="Helvetica,sans-Serif" font-size="14.00">end</text>
</a>
</g>
<!-- http://www.w3.org/2002/07/owl#Thing&#45;&gt;http://www.w3.org/2000/01/rdf&#45;schema#Literal -->
<g id="edge16" class="edge"><title>http://www.w3.org/2002/07/owl#Thing&#45;&gt;http://www.w3.org/2000/01/rdf&#45;schema#Literal</title>
<a xlink:href="./#start" xlink:title="start">
<path fill="none" stroke="darkslategray" d="M686.876,-110.079C685.842,-121.227 682.688,-135.055 674,-144 668.017,-150.16 654.701,-155.78 638.819,-160.654"/>
<polygon fill="darkslategray" stroke="darkslategray" points="637.84,-157.293 629.208,-163.436 639.787,-164.018 637.84,-157.293"/>
</a>
<a xlink:href="./#start" xlink:title="start">
<text text-anchor="middle" x="697.5" y="-131.4" font-family="Helvetica,sans-Serif" font-size="14.00">start</text>
</a>
</g>
<!-- http://www.w3.org/2002/07/owl#Thing&#45;&gt;http://www.w3.org/2000/01/rdf&#45;schema#Literal -->
<g id="edge20" class="edge"><title>http://www.w3.org/2002/07/owl#Thing&#45;&gt;http://www.w3.org/2000/01/rdf&#45;schema#Literal</title>
<a xlink:href="./#http://purl.org/dc/terms/date" xlink:title="http://purl.org/dc/terms/date">
<path fill="none" stroke="darkslategray" d="M708.304,-110.23C717.906,-120.64 725.406,-133.64 717,-144 710.652,-151.824 696.086,-158.012 677.994,-162.885"/>
<polygon fill="darkslategray" stroke="darkslategray" points="677.094,-159.502 668.237,-165.315 678.786,-166.295 677.094,-159.502"/>
</a>
<a xlink:href="./#http://purl.org/dc/terms/date" xlink:title="http://purl.org/dc/terms/date">
<text text-anchor="middle" x="810.5" y="-131.4" font-family="Helvetica,sans-Serif" font-size="14.00">http://purl.org/dc/terms/date</text>
</a>
</g>
<!-- OutcomeToDate -->
<g id="node16" class="node"><title>OutcomeToDate</title>
<a xlink:href="./#OutcomeToDate" xlink:title="OutcomeToDate">
<ellipse fill="none" stroke="gray" cx="960" cy="-92" rx="84.0232" ry="18"/>
<text text-anchor="middle" x="960" y="-87.4" font-family="Helvetica,sans-Serif" font-size="14.00" fill="gray">OutcomeToDate</text>
</a>
</g>
<!-- OutcomeToDate&#45;&gt;http://www.w3.org/2000/01/rdf&#45;schema#Literal -->
<g id="edge22" class="edge"><title>OutcomeToDate&#45;&gt;http://www.w3.org/2000/01/rdf&#45;schema#Literal</title>
<a xlink:href="./#http://purl.org/dc/terms/date" xlink:title="http://purl.org/dc/terms/date">
<path fill="none" stroke="darkslategray" d="M946.446,-109.899C936.4,-121.73 921.613,-136.408 905,-144 875.399,-157.528 810.676,-166.005 744.223,-171.303"/>
<polygon fill="darkslategray" stroke="darkslategray" points="743.68,-167.834 733.979,-172.094 744.219,-174.813 743.68,-167.834"/>
</a>
<a xlink:href="./#http://purl.org/dc/terms/date" xlink:title="http://purl.org/dc/terms/date">
<text text-anchor="middle" x="1017.5" y="-131.4" font-family="Helvetica,sans-Serif" font-size="14.00">http://purl.org/dc/terms/date</text>
</a>
</g>
<!-- OutputToDate -->
<g id="node18" class="node"><title>OutputToDate</title>
<a xlink:href="./#OutputToDate" xlink:title="OutputToDate">
<ellipse fill="none" stroke="gray" cx="1164" cy="-92" rx="73.7902" ry="18"/>
<text text-anchor="middle" x="1164" y="-87.4" font-family="Helvetica,sans-Serif" font-size="14.00" fill="gray">OutputToDate</text>
</a>
</g>
<!-- OutputToDate&#45;&gt;http://www.w3.org/2000/01/rdf&#45;schema#Literal -->
<g id="edge24" class="edge"><title>OutputToDate&#45;&gt;http://www.w3.org/2000/01/rdf&#45;schema#Literal</title>
<a xlink:href="./#http://purl.org/dc/terms/date" xlink:title="http://purl.org/dc/terms/date">
<path fill="none" stroke="darkslategray" d="M1151.68,-109.82C1142.31,-121.777 1128.29,-136.639 1112,-144 1079.47,-158.703 902.109,-168.302 754.479,-173.86"/>
<polygon fill="darkslategray" stroke="darkslategray" points="754.214,-170.368 744.351,-174.237 754.475,-177.363 754.214,-170.368"/>
</a>
<a xlink:href="./#http://purl.org/dc/terms/date" xlink:title="http://purl.org/dc/terms/date">
<text text-anchor="middle" x="1224.5" y="-131.4" font-family="Helvetica,sans-Serif" font-size="14.00">http://purl.org/dc/terms/date</text>
</a>
</g>
</g>
</svg>
