<?xml version="1.0" encoding="UTF-8" standalone="no"?>
<!DOCTYPE svg PUBLIC "-//W3C//DTD SVG 1.1//EN"
 "http://www.w3.org/Graphics/SVG/1.1/DTD/svg11.dtd">
<!-- Generated by graphviz version 2.26.3 (20100126.1600)
 -->
<!-- Title: _anonymous_0 Pages: 1 -->
<svg width="1078pt" height="308pt"
 viewBox="0.00 0.00 1078.00 308.00" xmlns="http://www.w3.org/2000/svg" xmlns:xlink="http://www.w3.org/1999/xlink">
<g id="graph1" class="graph" transform="scale(1 1) rotate(0) translate(4 304)">
<title>_anonymous_0</title>
<polygon fill="white" stroke="white" points="-4,5 -4,-304 1075,-304 1075,5 -4,5"/>
<!-- AdminUnit -->
<g id="node1" class="node"><title>AdminUnit</title>
<a xlink:href="./#AdminUnit" xlink:title="AdminUnit">
<ellipse fill="none" stroke="black" cx="207" cy="-18" rx="55.1765" ry="18"/>
<text text-anchor="middle" x="207" y="-13.4" font-family="Helvetica,sans-Serif" font-size="14.00">AdminUnit</text>
</a>
</g>
<!-- AdminUnit&#45;&gt;AdminUnit -->
<g id="edge30" class="edge"><title>AdminUnit&#45;&gt;AdminUnit</title>
<a xlink:href="./#inAdminUnit" xlink:title="inAdminUnit">
<path fill="none" stroke="darkslategray" d="M256.129,-9.80035C269.66,-10.1965 280,-12.9297 280,-18 280,-21.7235 274.424,-24.1866 266.102,-25.3893"/>
<polygon fill="darkslategray" stroke="darkslategray" points="265.813,-21.9012 256.129,-26.1996 266.38,-28.8782 265.813,-21.9012"/>
</a>
<a xlink:href="./#inAdminUnit" xlink:title="inAdminUnit">
<text text-anchor="middle" x="318.5" y="-13.4" font-family="Helvetica,sans-Serif" font-size="14.00">inAdminUnit</text>
</a>
</g>
<!-- Feature -->
<g id="node3" class="node"><title>Feature</title>
<a xlink:href="./#Feature" xlink:title="Feature">
<ellipse fill="none" stroke="black" cx="424" cy="-106" rx="45.1145" ry="18"/>
<text text-anchor="middle" x="424" y="-101.4" font-family="Helvetica,sans-Serif" font-size="14.00">Feature</text>
</a>
</g>
<!-- AdminUnit&#45;&gt;Feature -->
<g id="edge2" class="edge"><title>AdminUnit&#45;&gt;Feature</title>
<path fill="none" stroke="red" stroke-dasharray="5,2" d="M241.865,-32.1387C280.352,-47.7465 342.245,-72.8458 383.021,-89.3816"/>
<polygon fill="red" stroke="red" points="381.815,-92.6695 392.397,-93.1842 384.446,-86.1826 381.815,-92.6695"/>
</g>
<!-- AdminUnitLevel -->
<g id="node4" class="node"><title>AdminUnitLevel</title>
<a xlink:href="./#AdminUnitLevel" xlink:title="AdminUnitLevel">
<ellipse fill="none" stroke="black" cx="208" cy="-106" rx="77.8152" ry="18"/>
<text text-anchor="middle" x="208" y="-101.4" font-family="Helvetica,sans-Serif" font-size="14.00">AdminUnitLevel</text>
</a>
</g>
<!-- AdminUnit&#45;&gt;AdminUnitLevel -->
<g id="edge14" class="edge"><title>AdminUnit&#45;&gt;AdminUnitLevel</title>
<a xlink:href="./#atLevel" xlink:title="atLevel">
<path fill="none" stroke="darkslategray" d="M207.207,-36.2337C207.343,-48.1508 207.522,-63.9616 207.676,-77.5183"/>
<polygon fill="darkslategray" stroke="darkslategray" points="204.18,-77.8302 207.793,-87.7897 211.179,-77.7505 204.18,-77.8302"/>
</a>
<a xlink:href="./#atLevel" xlink:title="atLevel">
<text text-anchor="middle" x="231" y="-57.4" font-family="Helvetica,sans-Serif" font-size="14.00">atLevel</text>
</a>
</g>
<!-- Geometry -->
<g id="node8" class="node"><title>Geometry</title>
<a xlink:href="./#Geometry" xlink:title="Geometry">
<ellipse fill="none" stroke="black" cx="486" cy="-194" rx="53.838" ry="18"/>
<text text-anchor="middle" x="486" y="-189.4" font-family="Helvetica,sans-Serif" font-size="14.00">Geometry</text>
</a>
</g>
<!-- Feature&#45;&gt;Geometry -->
<g id="edge28" class="edge"><title>Feature&#45;&gt;Geometry</title>
<a xlink:href="./#hasGeometry" xlink:title="hasGeometry">
<path fill="none" stroke="darkslategray" d="M422.828,-124.111C422.978,-134.73 424.684,-147.983 431,-158 434.721,-163.902 439.802,-169.039 445.381,-173.439"/>
<polygon fill="darkslategray" stroke="darkslategray" points="443.616,-176.476 453.811,-179.361 447.64,-170.748 443.616,-176.476"/>
</a>
<a xlink:href="./#hasGeometry" xlink:title="hasGeometry">
<text text-anchor="middle" x="475" y="-145.4" font-family="Helvetica,sans-Serif" font-size="14.00">hasGeometry</text>
</a>
</g>
<!-- BoundingBox -->
<g id="node5" class="node"><title>BoundingBox</title>
<a xlink:href="./#BoundingBox" xlink:title="BoundingBox">
<ellipse fill="none" stroke="black" cx="67" cy="-18" rx="67.082" ry="18"/>
<text text-anchor="middle" x="67" y="-13.4" font-family="Helvetica,sans-Serif" font-size="14.00">BoundingBox</text>
</a>
</g>
<!-- Polygon -->
<g id="node7" class="node"><title>Polygon</title>
<a xlink:href="./#Polygon" xlink:title="Polygon">
<ellipse fill="none" stroke="black" cx="67" cy="-106" rx="45.1145" ry="18"/>
<text text-anchor="middle" x="67" y="-101.4" font-family="Helvetica,sans-Serif" font-size="14.00">Polygon</text>
</a>
</g>
<!-- BoundingBox&#45;&gt;Polygon -->
<g id="edge4" class="edge"><title>BoundingBox&#45;&gt;Polygon</title>
<path fill="none" stroke="red" stroke-dasharray="5,2" d="M67,-36.2337C67,-48.1508 67,-63.9616 67,-77.5183"/>
<polygon fill="red" stroke="red" points="63.5001,-77.7897 67,-87.7897 70.5001,-77.7897 63.5001,-77.7897"/>
</g>
<!-- Polygon&#45;&gt;Geometry -->
<g id="edge10" class="edge"><title>Polygon&#45;&gt;Geometry</title>
<path fill="none" stroke="red" stroke-dasharray="5,2" d="M100.786,-118.022C107.439,-120.174 114.403,-122.276 121,-124 227.425,-151.812 353.975,-173.625 426.647,-185.095"/>
<polygon fill="red" stroke="red" points="426.115,-188.555 436.537,-186.645 427.199,-181.639 426.115,-188.555"/>
</g>
<!-- Geometry&#45;&gt;Geometry -->
<g id="edge22" class="edge"><title>Geometry&#45;&gt;Geometry</title>
<a xlink:href="./#contains" xlink:title="contains">
<path fill="none" stroke="darkslategray" d="M540.007,-192.567C550.529,-192.733 558,-193.211 558,-194 558,-194.493 555.081,-194.865 550.324,-195.115"/>
<polygon fill="darkslategray" stroke="darkslategray" points="549.894,-191.626 540.007,-195.433 550.111,-198.623 549.894,-191.626"/>
</a>
<a xlink:href="./#contains" xlink:title="contains">
<text text-anchor="middle" x="585.5" y="-189.4" font-family="Helvetica,sans-Serif" font-size="14.00">contains</text>
</a>
</g>
<!-- Geometry&#45;&gt;Geometry -->
<g id="edge24" class="edge"><title>Geometry&#45;&gt;Geometry</title>
<a xlink:href="./#crosses" xlink:title="crosses">
<path fill="none" stroke="darkslategray" d="M527.769,-182.519C566.368,-177.693 613,-181.52 613,-194 613,-205.408 574.038,-209.586 537.863,-206.534"/>
<polygon fill="darkslategray" stroke="darkslategray" points="538.078,-203.037 527.769,-205.481 537.352,-209.999 538.078,-203.037"/>
</a>
<a xlink:href="./#crosses" xlink:title="crosses">
<text text-anchor="middle" x="638" y="-189.4" font-family="Helvetica,sans-Serif" font-size="14.00">crosses</text>
</a>
</g>
<!-- Geometry&#45;&gt;Geometry -->
<g id="edge26" class="edge"><title>Geometry&#45;&gt;Geometry</title>
<a xlink:href="./#equals" xlink:title="equals">
<path fill="none" stroke="darkslategray" d="M528.416,-182.809C583.274,-175.231 663,-178.961 663,-194 663,-208.128 592.636,-212.276 538.631,-206.443"/>
<polygon fill="darkslategray" stroke="darkslategray" points="538.767,-202.934 528.416,-205.191 537.916,-209.882 538.767,-202.934"/>
</a>
<a xlink:href="./#equals" xlink:title="equals">
<text text-anchor="middle" x="684.5" y="-189.4" font-family="Helvetica,sans-Serif" font-size="14.00">equals</text>
</a>
</g>
<!-- Geometry&#45;&gt;Geometry -->
<g id="edge32" class="edge"><title>Geometry&#45;&gt;Geometry</title>
<a xlink:href="./#intersects" xlink:title="intersects">
<path fill="none" stroke="darkslategray" d="M528.537,-182.904C595.995,-173.006 706,-176.705 706,-194 706,-210.45 606.476,-214.6 538.705,-206.449"/>
<polygon fill="darkslategray" stroke="darkslategray" points="538.911,-202.946 528.537,-205.096 537.988,-209.885 538.911,-202.946"/>
</a>
<a xlink:href="./#intersects" xlink:title="intersects">
<text text-anchor="middle" x="738" y="-189.4" font-family="Helvetica,sans-Serif" font-size="14.00">intersects</text>
</a>
</g>
<!-- Geometry&#45;&gt;Geometry -->
<g id="edge34" class="edge"><title>Geometry&#45;&gt;Geometry</title>
<a xlink:href="./#near" xlink:title="near">
<path fill="none" stroke="darkslategray" d="M529.126,-183.164C613.078,-170.818 770,-174.43 770,-194 770,-212.806 625.098,-216.876 539.284,-206.21"/>
<polygon fill="darkslategray" stroke="darkslategray" points="539.504,-202.708 529.126,-204.836 538.566,-209.645 539.504,-202.708"/>
</a>
<a xlink:href="./#near" xlink:title="near">
<text text-anchor="middle" x="785" y="-189.4" font-family="Helvetica,sans-Serif" font-size="14.00">near</text>
</a>
</g>
<!-- Geometry&#45;&gt;Geometry -->
<g id="edge36" class="edge"><title>Geometry&#45;&gt;Geometry</title>
<a xlink:href="./#overlaps" xlink:title="overlaps">
<path fill="none" stroke="darkslategray" d="M529.085,-182.998C620.852,-168.751 800,-172.418 800,-194 800,-214.823 633.227,-218.969 539.076,-206.438"/>
<polygon fill="darkslategray" stroke="darkslategray" points="539.481,-202.96 529.085,-205.002 538.485,-209.889 539.481,-202.96"/>
</a>
<a xlink:href="./#overlaps" xlink:title="overlaps">
<text text-anchor="middle" x="827.5" y="-189.4" font-family="Helvetica,sans-Serif" font-size="14.00">overlaps</text>
</a>
</g>
<!-- Geometry&#45;&gt;Geometry -->
<g id="edge38" class="edge"><title>Geometry&#45;&gt;Geometry</title>
<a xlink:href="./#touches" xlink:title="touches">
<path fill="none" stroke="darkslategray" d="M529.146,-183.096C633.488,-166.658 855,-170.293 855,-194 855,-216.966 647.116,-221.095 539.261,-206.387"/>
<polygon fill="darkslategray" stroke="darkslategray" points="539.548,-202.891 529.146,-204.904 538.533,-209.817 539.548,-202.891"/>
</a>
<a xlink:href="./#touches" xlink:title="touches">
<text text-anchor="middle" x="881" y="-189.4" font-family="Helvetica,sans-Serif" font-size="14.00">touches</text>
</a>
</g>
<!-- Geometry&#45;&gt;Geometry -->
<g id="edge40" class="edge"><title>Geometry&#45;&gt;Geometry</title>
<a xlink:href="./#within" xlink:title="within">
<path fill="none" stroke="darkslategray" d="M529.198,-183.124C644.823,-164.593 907,-168.219 907,-194 907,-219.051 659.463,-223.184 539.365,-206.398"/>
<polygon fill="darkslategray" stroke="darkslategray" points="539.606,-202.895 529.198,-204.876 538.57,-209.818 539.606,-202.895"/>
</a>
<a xlink:href="./#within" xlink:title="within">
<text text-anchor="middle" x="925.5" y="-189.4" font-family="Helvetica,sans-Serif" font-size="14.00">within</text>
</a>
</g>
<!-- http://www.w3.org/2000/01/rdf&#45;schema#Literal -->
<g id="node14" class="node"><title>http://www.w3.org/2000/01/rdf&#45;schema#Literal</title>
<a xlink:href="./#http://www.w3.org/2000/01/rdf-schema#Literal" xlink:title="http://www.w3.org/2000/01/rdf&#45;schema#Literal">
<ellipse fill="none" stroke="gray" cx="486" cy="-282" rx="208.796" ry="18"/>
<text text-anchor="middle" x="486" y="-277.4" font-family="Helvetica,sans-Serif" font-size="14.00" fill="gray">http://www.w3.org/2000/01/rdf&#45;schema#Literal</text>
</a>
</g>
<!-- Geometry&#45;&gt;http://www.w3.org/2000/01/rdf&#45;schema#Literal -->
<g id="edge12" class="edge"><title>Geometry&#45;&gt;http://www.w3.org/2000/01/rdf&#45;schema#Literal</title>
<a xlink:href="./#asWKT" xlink:title="asWKT">
<path fill="none" stroke="darkslategray" d="M486,-212.234C486,-224.151 486,-239.962 486,-253.518"/>
<polygon fill="darkslategray" stroke="darkslategray" points="482.5,-253.79 486,-263.79 489.5,-253.79 482.5,-253.79"/>
</a>
<a xlink:href="./#asWKT" xlink:title="asWKT">
<text text-anchor="middle" x="510" y="-233.4" font-family="Helvetica,sans-Serif" font-size="14.00">asWKT</text>
</a>
</g>
<!-- LineString -->
<g id="node9" class="node"><title>LineString</title>
<a xlink:href="./#LineString" xlink:title="LineString">
<ellipse fill="none" stroke="black" cx="542" cy="-106" rx="55.0073" ry="18"/>
<text text-anchor="middle" x="542" y="-101.4" font-family="Helvetica,sans-Serif" font-size="14.00">LineString</text>
</a>
</g>
<!-- LineString&#45;&gt;Geometry -->
<g id="edge6" class="edge"><title>LineString&#45;&gt;Geometry</title>
<path fill="none" stroke="red" stroke-dasharray="5,2" d="M537.516,-124.255C534.438,-134.674 529.688,-147.674 523,-158 520.339,-162.109 517.129,-166.104 513.725,-169.846"/>
<polygon fill="red" stroke="red" points="511.086,-167.538 506.581,-177.127 516.082,-172.441 511.086,-167.538"/>
</g>
<!-- Point -->
<g id="node11" class="node"><title>Point</title>
<a xlink:href="./#Point" xlink:title="Point">
<ellipse fill="none" stroke="black" cx="648" cy="-106" rx="33.0404" ry="18"/>
<text text-anchor="middle" x="648" y="-101.4" font-family="Helvetica,sans-Serif" font-size="14.00">Point</text>
</a>
</g>
<!-- Point&#45;&gt;Geometry -->
<g id="edge8" class="edge"><title>Point&#45;&gt;Geometry</title>
<path fill="none" stroke="red" stroke-dasharray="5,2" d="M624.444,-118.796C597.927,-133.2 554.488,-156.797 523.337,-173.718"/>
<polygon fill="red" stroke="red" points="521.616,-170.67 514.499,-178.519 524.957,-176.821 521.616,-170.67"/>
</g>
<!-- Emergency -->
<g id="node17" class="node"><title>Emergency</title>
<a xlink:href="./#Emergency" xlink:title="Emergency">
<ellipse fill="none" stroke="gray" cx="653" cy="-18" rx="59.8749" ry="18"/>
<text text-anchor="middle" x="653" y="-13.4" font-family="Helvetica,sans-Serif" font-size="14.00" fill="gray">Emergency</text>
</a>
</g>
<!-- Emergency&#45;&gt;Feature -->
<g id="edge16" class="edge"><title>Emergency&#45;&gt;Feature</title>
<a xlink:href="./#atLocation" xlink:title="atLocation">
<path fill="none" stroke="darkslategray" d="M635.522,-35.2487C622.632,-46.9364 604.084,-61.711 585,-70 540.768,-89.2116 524.793,-76.3401 478,-88 474.434,-88.8885 470.765,-89.8988 467.097,-90.9766"/>
<polygon fill="darkslategray" stroke="darkslategray" points="465.988,-87.6559 457.466,-93.9503 468.053,-94.3444 465.988,-87.6559"/>
</a>
<a xlink:href="./#atLocation" xlink:title="atLocation">
<text text-anchor="middle" x="646" y="-57.4" font-family="Helvetica,sans-Serif" font-size="14.00">atLocation</text>
</a>
</g>
<!-- Situation -->
<g id="node19" class="node"><title>Situation</title>
<a xlink:href="./#Situation" xlink:title="Situation">
<ellipse fill="none" stroke="gray" cx="424" cy="-18" rx="49.1393" ry="18"/>
<text text-anchor="middle" x="424" y="-13.4" font-family="Helvetica,sans-Serif" font-size="14.00" fill="gray">Situation</text>
</a>
</g>
<!-- Situation&#45;&gt;Feature -->
<g id="edge18" class="edge"><title>Situation&#45;&gt;Feature</title>
<a xlink:href="./#atLocation" xlink:title="atLocation">
<path fill="none" stroke="darkslategray" d="M424,-36.2337C424,-48.1508 424,-63.9616 424,-77.5183"/>
<polygon fill="darkslategray" stroke="darkslategray" points="420.5,-77.7897 424,-87.7897 427.5,-77.7897 420.5,-77.7897"/>
</a>
<a xlink:href="./#atLocation" xlink:title="atLocation">
<text text-anchor="middle" x="459" y="-57.4" font-family="Helvetica,sans-Serif" font-size="14.00">atLocation</text>
</a>
</g>
<!-- Activity -->
<g id="node21" class="node"><title>Activity</title>
<a xlink:href="./#Activity" xlink:title="Activity">
<ellipse fill="none" stroke="gray" cx="533" cy="-18" rx="41.7645" ry="18"/>
<text text-anchor="middle" x="533" y="-13.4" font-family="Helvetica,sans-Serif" font-size="14.00" fill="gray">Activity</text>
</a>
</g>
<!-- Activity&#45;&gt;Feature -->
<g id="edge20" class="edge"><title>Activity&#45;&gt;Feature</title>
<a xlink:href="./#atLocation" xlink:title="atLocation">
<path fill="none" stroke="darkslategray" d="M524.228,-35.6551C518.079,-46.6345 509.005,-60.4333 498,-70 488.993,-77.8293 477.986,-84.3821 467.242,-89.6579"/>
<polygon fill="darkslategray" stroke="darkslategray" points="465.533,-86.5919 457.925,-93.9655 468.471,-92.9457 465.533,-86.5919"/>
</a>
<a xlink:href="./#atLocation" xlink:title="atLocation">
<text text-anchor="middle" x="546" y="-57.4" font-family="Helvetica,sans-Serif" font-size="14.00">atLocation</text>
</a>
</g>
</g>
</svg>
