<?xml version="1.0" encoding="UTF-8" standalone="no"?>
<!DOCTYPE svg PUBLIC "-//W3C//DTD SVG 1.1//EN"
 "http://www.w3.org/Graphics/SVG/1.1/DTD/svg11.dtd">
<!-- Generated by graphviz version 2.26.3 (20100126.1600)
 -->
<!-- Title: _anonymous_0 Pages: 1 -->
<svg width="1932pt" height="456pt"
 viewBox="0.00 0.00 1932.00 456.00" xmlns="http://www.w3.org/2000/svg" xmlns:xlink="http://www.w3.org/1999/xlink">
<g id="graph1" class="graph" transform="scale(1 1) rotate(0) translate(4 452)">
<title>_anonymous_0</title>
<polygon fill="white" stroke="white" points="-4,5 -4,-452 1929,-452 1929,5 -4,5"/>
<!-- AffectedPopulation -->
<g id="node1" class="node"><title>AffectedPopulation</title>
<a xlink:href="./#AffectedPopulation" xlink:title="AffectedPopulation">
<ellipse fill="none" stroke="black" cx="988" cy="-166" rx="94.7578" ry="18"/>
<text text-anchor="middle" x="988" y="-161.4" font-family="Helvetica,sans-Serif" font-size="14.00">AffectedPopulation</text>
</a>
</g>
<!-- Population -->
<g id="node3" class="node"><title>Population</title>
<a xlink:href="./#Population" xlink:title="Population">
<ellipse fill="none" stroke="black" cx="1306" cy="-254" rx="57.0197" ry="18"/>
<text text-anchor="middle" x="1306" y="-249.4" font-family="Helvetica,sans-Serif" font-size="14.00">Population</text>
</a>
</g>
<!-- AffectedPopulation&#45;&gt;Population -->
<g id="edge2" class="edge"><title>AffectedPopulation&#45;&gt;Population</title>
<path fill="none" stroke="red" stroke-dasharray="5,2" d="M1041.94,-180.928C1100.91,-197.245 1194.76,-223.217 1253.25,-239.402"/>
<polygon fill="red" stroke="red" points="1252.46,-242.815 1263.03,-242.109 1254.33,-236.069 1252.46,-242.815"/>
</g>
<!-- Emergency -->
<g id="node14" class="node"><title>Emergency</title>
<a xlink:href="./#Emergency" xlink:title="Emergency">
<ellipse fill="none" stroke="black" cx="623" cy="-254" rx="59.8749" ry="18"/>
<text text-anchor="middle" x="623" y="-249.4" font-family="Helvetica,sans-Serif" font-size="14.00">Emergency</text>
</a>
</g>
<!-- AffectedPopulation&#45;&gt;Emergency -->
<g id="edge40" class="edge"><title>AffectedPopulation&#45;&gt;Emergency</title>
<a xlink:href="./#affectedBy" xlink:title="affectedBy">
<path fill="none" stroke="darkslategray" d="M928.951,-180.237C860.246,-196.801 747.599,-223.96 679.849,-240.294"/>
<polygon fill="darkslategray" stroke="darkslategray" points="678.684,-236.975 669.783,-242.721 680.324,-243.78 678.684,-236.975"/>
</a>
<a xlink:href="./#affectedBy" xlink:title="affectedBy">
<text text-anchor="middle" x="875.5" y="-205.4" font-family="Helvetica,sans-Serif" font-size="14.00">affectedBy</text>
</a>
</g>
<!-- http://xmlns.com/foaf/0.1/Group -->
<g id="node37" class="node"><title>http://xmlns.com/foaf/0.1/Group</title>
<a xlink:href="./#http://xmlns.com/foaf/0.1/Group" xlink:title="http://xmlns.com/foaf/0.1/Group">
<ellipse fill="none" stroke="black" cx="1170" cy="-342" rx="146.239" ry="18"/>
<text text-anchor="middle" x="1170" y="-337.4" font-family="Helvetica,sans-Serif" font-size="14.00">http://xmlns.com/foaf/0.1/Group</text>
</a>
</g>
<!-- Population&#45;&gt;http://xmlns.com/foaf/0.1/Group -->
<g id="edge32" class="edge"><title>Population&#45;&gt;http://xmlns.com/foaf/0.1/Group</title>
<path fill="none" stroke="red" stroke-dasharray="5,2" d="M1280.74,-270.346C1259.76,-283.921 1229.65,-303.402 1206.12,-318.625"/>
<polygon fill="red" stroke="red" points="1203.96,-315.859 1197.46,-324.23 1207.76,-321.736 1203.96,-315.859"/>
</g>
<!-- http://www.w3.org/2000/01/rdf&#45;schema#Literal -->
<g id="node47" class="node"><title>http://www.w3.org/2000/01/rdf&#45;schema#Literal</title>
<a xlink:href="./#http://www.w3.org/2000/01/rdf-schema#Literal" xlink:title="http://www.w3.org/2000/01/rdf&#45;schema#Literal">
<ellipse fill="none" stroke="gray" cx="1543" cy="-342" rx="208.796" ry="18"/>
<text text-anchor="middle" x="1543" y="-337.4" font-family="Helvetica,sans-Serif" font-size="14.00" fill="gray">http://www.w3.org/2000/01/rdf&#45;schema#Literal</text>
</a>
</g>
<!-- Population&#45;&gt;http://www.w3.org/2000/01/rdf&#45;schema#Literal -->
<g id="edge46" class="edge"><title>Population&#45;&gt;http://www.w3.org/2000/01/rdf&#45;schema#Literal</title>
<a xlink:href="./#count" xlink:title="count">
<path fill="none" stroke="darkslategray" d="M1301.03,-271.972C1299.13,-283.078 1299.03,-296.898 1307,-306 1313.9,-313.88 1352.16,-321.151 1395.94,-327.065"/>
<polygon fill="darkslategray" stroke="darkslategray" points="1395.58,-330.548 1405.95,-328.383 1396.49,-323.608 1395.58,-330.548"/>
</a>
<a xlink:href="./#count" xlink:title="count">
<text text-anchor="middle" x="1325.5" y="-293.4" font-family="Helvetica,sans-Serif" font-size="14.00">count</text>
</a>
</g>
<!-- Population&#45;&gt;http://www.w3.org/2000/01/rdf&#45;schema#Literal -->
<g id="edge56" class="edge"><title>Population&#45;&gt;http://www.w3.org/2000/01/rdf&#45;schema#Literal</title>
<a xlink:href="./#provenanceInfo" xlink:title="provenanceInfo">
<path fill="none" stroke="darkslategray" d="M1326.03,-271.125C1340.45,-282.6 1360.82,-297.172 1381,-306 1397.37,-313.162 1415.31,-318.967 1433.11,-323.652"/>
<polygon fill="darkslategray" stroke="darkslategray" points="1432.42,-327.087 1442.97,-326.141 1434.13,-320.3 1432.42,-327.087"/>
</a>
<a xlink:href="./#provenanceInfo" xlink:title="provenanceInfo">
<text text-anchor="middle" x="1431" y="-293.4" font-family="Helvetica,sans-Serif" font-size="14.00">provenanceInfo</text>
</a>
</g>
<!-- AgeGroup -->
<g id="node4" class="node"><title>AgeGroup</title>
<a xlink:href="./#AgeGroup" xlink:title="AgeGroup">
<ellipse fill="none" stroke="black" cx="1660" cy="-166" rx="53.838" ry="18"/>
<text text-anchor="middle" x="1660" y="-161.4" font-family="Helvetica,sans-Serif" font-size="14.00">AgeGroup</text>
</a>
</g>
<!-- AgeGroup&#45;&gt;Population -->
<g id="edge4" class="edge"><title>AgeGroup&#45;&gt;Population</title>
<path fill="none" stroke="red" stroke-dasharray="5,2" d="M1632.7,-181.857C1611.19,-193.64 1580.08,-209.146 1551,-218 1548.8,-218.669 1440.12,-234.523 1368.26,-244.966"/>
<polygon fill="red" stroke="red" points="1367.33,-241.564 1357.94,-246.465 1368.34,-248.491 1367.33,-241.564"/>
</g>
<!-- http://www.w3.org/2001/XMLSchema#int -->
<g id="node49" class="node"><title>http://www.w3.org/2001/XMLSchema#int</title>
<a xlink:href="./#http://www.w3.org/2001/XMLSchema#int" xlink:title="http://www.w3.org/2001/XMLSchema#int">
<ellipse fill="none" stroke="gray" cx="1740" cy="-254" rx="183.805" ry="18"/>
<text text-anchor="middle" x="1740" y="-249.4" font-family="Helvetica,sans-Serif" font-size="14.00" fill="gray">http://www.w3.org/2001/XMLSchema#int</text>
</a>
</g>
<!-- AgeGroup&#45;&gt;http://www.w3.org/2001/XMLSchema#int -->
<g id="edge48" class="edge"><title>AgeGroup&#45;&gt;http://www.w3.org/2001/XMLSchema#int</title>
<a xlink:href="./#fromAge" xlink:title="fromAge">
<path fill="none" stroke="darkslategray" d="M1655.8,-184.261C1654.4,-194.933 1654.56,-208.189 1661,-218 1664.29,-223.003 1668.46,-227.321 1673.15,-231.045"/>
<polygon fill="darkslategray" stroke="darkslategray" points="1671.27,-233.997 1681.5,-236.768 1675.23,-228.225 1671.27,-233.997"/>
</a>
<a xlink:href="./#fromAge" xlink:title="fromAge">
<text text-anchor="middle" x="1689.5" y="-205.4" font-family="Helvetica,sans-Serif" font-size="14.00">fromAge</text>
</a>
</g>
<!-- AgeGroup&#45;&gt;http://www.w3.org/2001/XMLSchema#int -->
<g id="edge58" class="edge"><title>AgeGroup&#45;&gt;http://www.w3.org/2001/XMLSchema#int</title>
<a xlink:href="./#toAge" xlink:title="toAge">
<path fill="none" stroke="darkslategray" d="M1691.58,-180.834C1701.01,-186.433 1710.76,-193.535 1718,-202 1723.95,-208.959 1728.49,-217.766 1731.86,-226.144"/>
<polygon fill="darkslategray" stroke="darkslategray" points="1728.6,-227.424 1735.28,-235.646 1735.18,-225.052 1728.6,-227.424"/>
</a>
<a xlink:href="./#toAge" xlink:title="toAge">
<text text-anchor="middle" x="1747" y="-205.4" font-family="Helvetica,sans-Serif" font-size="14.00">toAge</text>
</a>
</g>
<!-- AsylumSeeker -->
<g id="node6" class="node"><title>AsylumSeeker</title>
<a xlink:href="./#AsylumSeeker" xlink:title="AsylumSeeker">
<ellipse fill="none" stroke="black" cx="646" cy="-18" rx="71.949" ry="18"/>
<text text-anchor="middle" x="646" y="-13.4" font-family="Helvetica,sans-Serif" font-size="14.00">AsylumSeeker</text>
</a>
</g>
<!-- Displaced -->
<g id="node8" class="node"><title>Displaced</title>
<a xlink:href="./#Displaced" xlink:title="Displaced">
<ellipse fill="none" stroke="black" cx="829" cy="-92" rx="52.9948" ry="18"/>
<text text-anchor="middle" x="829" y="-87.4" font-family="Helvetica,sans-Serif" font-size="14.00">Displaced</text>
</a>
</g>
<!-- AsylumSeeker&#45;&gt;Displaced -->
<g id="edge6" class="edge"><title>AsylumSeeker&#45;&gt;Displaced</title>
<path fill="none" stroke="red" stroke-dasharray="5,2" d="M683.918,-33.3328C713.392,-45.2512 754.318,-61.8007 785.191,-74.2848"/>
<polygon fill="red" stroke="red" points="784.251,-77.6801 794.834,-78.1842 786.875,-71.1906 784.251,-77.6801"/>
</g>
<!-- Displaced&#45;&gt;AffectedPopulation -->
<g id="edge12" class="edge"><title>Displaced&#45;&gt;AffectedPopulation</title>
<path fill="none" stroke="red" stroke-dasharray="5,2" d="M860.413,-106.62C883.869,-117.537 916.27,-132.616 942.551,-144.848"/>
<polygon fill="red" stroke="red" points="941.385,-148.165 951.928,-149.212 944.339,-141.819 941.385,-148.165"/>
</g>
<!-- Casualty -->
<g id="node9" class="node"><title>Casualty</title>
<a xlink:href="./#Casualty" xlink:title="Casualty">
<ellipse fill="none" stroke="black" cx="988" cy="-92" rx="48.9699" ry="18"/>
<text text-anchor="middle" x="988" y="-87.4" font-family="Helvetica,sans-Serif" font-size="14.00">Casualty</text>
</a>
</g>
<!-- Casualty&#45;&gt;AffectedPopulation -->
<g id="edge8" class="edge"><title>Casualty&#45;&gt;AffectedPopulation</title>
<path fill="none" stroke="red" stroke-dasharray="5,2" d="M988,-110.292C988,-118.536 988,-128.462 988,-137.638"/>
<polygon fill="red" stroke="red" points="984.5,-137.918 988,-147.918 991.5,-137.918 984.5,-137.918"/>
</g>
<!-- Death -->
<g id="node11" class="node"><title>Death</title>
<a xlink:href="./#Death" xlink:title="Death">
<ellipse fill="none" stroke="black" cx="961" cy="-18" rx="37.0651" ry="18"/>
<text text-anchor="middle" x="961" y="-13.4" font-family="Helvetica,sans-Serif" font-size="14.00">Death</text>
</a>
</g>
<!-- Death&#45;&gt;Casualty -->
<g id="edge10" class="edge"><title>Death&#45;&gt;Casualty</title>
<path fill="none" stroke="red" stroke-dasharray="5,2" d="M967.536,-35.9133C970.663,-44.4849 974.478,-54.9385 977.962,-64.4878"/>
<polygon fill="red" stroke="red" points="974.715,-65.8006 981.431,-73.9951 981.291,-63.4012 974.715,-65.8006"/>
</g>
<!-- Situation -->
<g id="node16" class="node"><title>Situation</title>
<a xlink:href="./#Situation" xlink:title="Situation">
<ellipse fill="none" stroke="black" cx="197" cy="-342" rx="49.1393" ry="18"/>
<text text-anchor="middle" x="197" y="-337.4" font-family="Helvetica,sans-Serif" font-size="14.00">Situation</text>
</a>
</g>
<!-- Emergency&#45;&gt;Situation -->
<g id="edge14" class="edge"><title>Emergency&#45;&gt;Situation</title>
<path fill="none" stroke="red" stroke-dasharray="5,2" d="M569.571,-262.218C497.597,-273.73 365.742,-296.377 255,-324 251.196,-324.949 247.273,-326.002 243.346,-327.109"/>
<polygon fill="red" stroke="red" points="242.26,-323.78 233.643,-329.943 244.223,-330.499 242.26,-323.78"/>
</g>
<!-- GLIDEnumber -->
<g id="node22" class="node"><title>GLIDEnumber</title>
<a xlink:href="./#GLIDEnumber" xlink:title="GLIDEnumber">
<ellipse fill="none" stroke="black" cx="935" cy="-342" rx="71.107" ry="18"/>
<text text-anchor="middle" x="935" y="-337.4" font-family="Helvetica,sans-Serif" font-size="14.00">GLIDEnumber</text>
</a>
</g>
<!-- Emergency&#45;&gt;GLIDEnumber -->
<g id="edge50" class="edge"><title>Emergency&#45;&gt;GLIDEnumber</title>
<a xlink:href="./#hasGLIDEnumber" xlink:title="hasGLIDEnumber">
<path fill="none" stroke="darkslategray" d="M667.04,-266.422C722.174,-281.972 816.742,-308.645 877.526,-325.789"/>
<polygon fill="darkslategray" stroke="darkslategray" points="876.776,-329.214 887.351,-328.56 878.676,-322.477 876.776,-329.214"/>
</a>
<a xlink:href="./#hasGLIDEnumber" xlink:title="hasGLIDEnumber">
<text text-anchor="middle" x="863" y="-293.4" font-family="Helvetica,sans-Serif" font-size="14.00">hasGLIDEnumber</text>
</a>
</g>
<!-- http://www.w3.org/2001/XMLSchema#String -->
<g id="node45" class="node"><title>http://www.w3.org/2001/XMLSchema#String</title>
<a xlink:href="./#http://www.w3.org/2001/XMLSchema#String" xlink:title="http://www.w3.org/2001/XMLSchema#String">
<ellipse fill="none" stroke="gray" cx="543" cy="-342" rx="199.234" ry="18"/>
<text text-anchor="middle" x="543" y="-337.4" font-family="Helvetica,sans-Serif" font-size="14.00" fill="gray">http://www.w3.org/2001/XMLSchema#String</text>
</a>
</g>
<!-- Emergency&#45;&gt;http://www.w3.org/2001/XMLSchema#String -->
<g id="edge44" class="edge"><title>Emergency&#45;&gt;http://www.w3.org/2001/XMLSchema#String</title>
<a xlink:href="./#commonTitle" xlink:title="commonTitle">
<path fill="none" stroke="darkslategray" d="M607.195,-271.386C595.515,-284.234 579.426,-301.931 566.277,-316.395"/>
<polygon fill="darkslategray" stroke="darkslategray" points="563.459,-314.292 559.322,-324.046 568.638,-319.001 563.459,-314.292"/>
</a>
<a xlink:href="./#commonTitle" xlink:title="commonTitle">
<text text-anchor="middle" x="633.5" y="-293.4" font-family="Helvetica,sans-Serif" font-size="14.00">commonTitle</text>
</a>
</g>
<!-- http://www.w3.org/2001/XMLSchema#string -->
<g id="node56" class="node"><title>http://www.w3.org/2001/XMLSchema#string</title>
<a xlink:href="./#http://www.w3.org/2001/XMLSchema#string" xlink:title="http://www.w3.org/2001/XMLSchema#string">
<ellipse fill="none" stroke="gray" cx="197" cy="-430" rx="197.221" ry="18"/>
<text text-anchor="middle" x="197" y="-425.4" font-family="Helvetica,sans-Serif" font-size="14.00" fill="gray">http://www.w3.org/2001/XMLSchema#string</text>
</a>
</g>
<!-- Situation&#45;&gt;http://www.w3.org/2001/XMLSchema#string -->
<g id="edge60" class="edge"><title>Situation&#45;&gt;http://www.w3.org/2001/XMLSchema#string</title>
<a xlink:href="./#http://purl.org/dc/terms/description" xlink:title="http://purl.org/dc/terms/description">
<path fill="none" stroke="darkslategray" d="M197,-360.234C197,-372.151 197,-387.962 197,-401.518"/>
<polygon fill="darkslategray" stroke="darkslategray" points="193.5,-401.79 197,-411.79 200.5,-401.79 193.5,-401.79"/>
</a>
<a xlink:href="./#http://purl.org/dc/terms/description" xlink:title="http://purl.org/dc/terms/description">
<text text-anchor="middle" x="307.5" y="-381.4" font-family="Helvetica,sans-Serif" font-size="14.00">http://purl.org/dc/terms/description</text>
</a>
</g>
<!-- Female -->
<g id="node17" class="node"><title>Female</title>
<a xlink:href="./#Female" xlink:title="Female">
<ellipse fill="none" stroke="black" cx="803" cy="-342" rx="43.1021" ry="18"/>
<text text-anchor="middle" x="803" y="-337.4" font-family="Helvetica,sans-Serif" font-size="14.00">Female</text>
</a>
</g>
<!-- http://xmlns.com/foaf/0.1/Agent -->
<g id="node19" class="node"><title>http://xmlns.com/foaf/0.1/Agent</title>
<a xlink:href="./#http://xmlns.com/foaf/0.1/Agent" xlink:title="http://xmlns.com/foaf/0.1/Agent">
<ellipse fill="none" stroke="black" cx="803" cy="-430" rx="145.068" ry="18"/>
<text text-anchor="middle" x="803" y="-425.4" font-family="Helvetica,sans-Serif" font-size="14.00">http://xmlns.com/foaf/0.1/Agent</text>
</a>
</g>
<!-- Female&#45;&gt;http://xmlns.com/foaf/0.1/Agent -->
<g id="edge16" class="edge"><title>Female&#45;&gt;http://xmlns.com/foaf/0.1/Agent</title>
<path fill="none" stroke="red" stroke-dasharray="5,2" d="M803,-360.234C803,-372.151 803,-387.962 803,-401.518"/>
<polygon fill="red" stroke="red" points="799.5,-401.79 803,-411.79 806.5,-401.79 799.5,-401.79"/>
</g>
<!-- Gender -->
<g id="node21" class="node"><title>Gender</title>
<a xlink:href="./#Gender" xlink:title="Gender">
<ellipse fill="none" stroke="black" cx="556" cy="-430" rx="43.1021" ry="18"/>
<text text-anchor="middle" x="556" y="-425.4" font-family="Helvetica,sans-Serif" font-size="14.00">Gender</text>
</a>
</g>
<!-- Female&#45;&gt;Gender -->
<g id="edge18" class="edge"><title>Female&#45;&gt;Gender</title>
<path fill="none" stroke="red" stroke-dasharray="5,2" d="M770.2,-353.686C726.003,-369.432 647.266,-397.484 598.554,-414.839"/>
<polygon fill="red" stroke="red" points="597.181,-411.613 588.935,-418.266 599.53,-418.207 597.181,-411.613"/>
</g>
<!-- IDP -->
<g id="node23" class="node"><title>IDP</title>
<a xlink:href="./#IDP" xlink:title="IDP">
<ellipse fill="none" stroke="black" cx="763" cy="-18" rx="27" ry="18"/>
<text text-anchor="middle" x="763" y="-13.4" font-family="Helvetica,sans-Serif" font-size="14.00">IDP</text>
</a>
</g>
<!-- IDP&#45;&gt;Displaced -->
<g id="edge20" class="edge"><title>IDP&#45;&gt;Displaced</title>
<path fill="none" stroke="red" stroke-dasharray="5,2" d="M776.997,-33.6935C785.583,-43.3208 796.774,-55.8677 806.573,-66.855"/>
<polygon fill="red" stroke="red" points="804.138,-69.3824 813.406,-74.5158 809.362,-64.7231 804.138,-69.3824"/>
</g>
<!-- Indicator -->
<g id="node25" class="node"><title>Indicator</title>
<a xlink:href="./#Indicator" xlink:title="Indicator">
<ellipse fill="none" stroke="black" cx="1489" cy="-254" rx="49.1393" ry="18"/>
<text text-anchor="middle" x="1489" y="-249.4" font-family="Helvetica,sans-Serif" font-size="14.00">Indicator</text>
</a>
</g>
<!-- Indicator&#45;&gt;http://www.w3.org/2000/01/rdf&#45;schema#Literal -->
<g id="edge52" class="edge"><title>Indicator&#45;&gt;http://www.w3.org/2000/01/rdf&#45;schema#Literal</title>
<a xlink:href="./#hasStandard" xlink:title="hasStandard">
<path fill="none" stroke="darkslategray" d="M1485.37,-272.379C1484.24,-282.839 1484.49,-295.839 1490,-306 1492.33,-310.297 1495.42,-314.179 1498.94,-317.663"/>
<polygon fill="darkslategray" stroke="darkslategray" points="1496.79,-320.43 1506.67,-324.258 1501.34,-315.105 1496.79,-320.43"/>
</a>
<a xlink:href="./#hasStandard" xlink:title="hasStandard">
<text text-anchor="middle" x="1532" y="-293.4" font-family="Helvetica,sans-Serif" font-size="14.00">hasStandard</text>
</a>
</g>
<!-- Indicator&#45;&gt;http://www.w3.org/2000/01/rdf&#45;schema#Literal -->
<g id="edge54" class="edge"><title>Indicator&#45;&gt;http://www.w3.org/2000/01/rdf&#45;schema#Literal</title>
<a xlink:href="./#hasValue" xlink:title="hasValue">
<path fill="none" stroke="darkslategray" d="M1527.25,-265.587C1547.09,-272.449 1568.34,-281.449 1574,-290 1579.49,-298.28 1576.7,-307.533 1571,-315.912"/>
<polygon fill="darkslategray" stroke="darkslategray" points="1568.08,-313.952 1564.52,-323.932 1573.53,-318.349 1568.08,-313.952"/>
</a>
<a xlink:href="./#hasValue" xlink:title="hasValue">
<text text-anchor="middle" x="1605.5" y="-293.4" font-family="Helvetica,sans-Serif" font-size="14.00">hasValue</text>
</a>
</g>
<!-- Injured -->
<g id="node26" class="node"><title>Injured</title>
<a xlink:href="./#Injured" xlink:title="Injured">
<ellipse fill="none" stroke="black" cx="1056" cy="-18" rx="40.2492" ry="18"/>
<text text-anchor="middle" x="1056" y="-13.4" font-family="Helvetica,sans-Serif" font-size="14.00">Injured</text>
</a>
</g>
<!-- Injured&#45;&gt;Casualty -->
<g id="edge22" class="edge"><title>Injured&#45;&gt;Casualty</title>
<path fill="none" stroke="red" stroke-dasharray="5,2" d="M1040.57,-34.7917C1031.74,-44.3997 1020.5,-56.6301 1010.68,-67.3143"/>
<polygon fill="red" stroke="red" points="1008.03,-65.0297 1003.84,-74.7612 1013.18,-69.7661 1008.03,-65.0297"/>
</g>
<!-- Male -->
<g id="node28" class="node"><title>Male</title>
<a xlink:href="./#Male" xlink:title="Male">
<ellipse fill="none" stroke="black" cx="295" cy="-342" rx="31.0281" ry="18"/>
<text text-anchor="middle" x="295" y="-337.4" font-family="Helvetica,sans-Serif" font-size="14.00">Male</text>
</a>
</g>
<!-- Male&#45;&gt;http://xmlns.com/foaf/0.1/Agent -->
<g id="edge24" class="edge"><title>Male&#45;&gt;http://xmlns.com/foaf/0.1/Agent</title>
<path fill="none" stroke="red" stroke-dasharray="5,2" d="M318.702,-353.967C323.965,-356.255 329.59,-358.424 335,-360 388.466,-375.577 403.913,-369.838 459,-378 540.578,-390.087 632.989,-404.072 701.474,-414.493"/>
<polygon fill="red" stroke="red" points="700.988,-417.959 711.4,-416.004 702.041,-411.039 700.988,-417.959"/>
</g>
<!-- Male&#45;&gt;Gender -->
<g id="edge26" class="edge"><title>Male&#45;&gt;Gender</title>
<path fill="none" stroke="red" stroke-dasharray="5,2" d="M318.777,-353.723C324.035,-356.025 329.639,-358.262 335,-360 372.562,-372.175 384.131,-366.819 422,-378 454.719,-387.66 490.707,-401.832 517.142,-412.943"/>
<polygon fill="red" stroke="red" points="515.852,-416.197 526.425,-416.883 518.587,-409.754 515.852,-416.197"/>
</g>
<!-- Missing -->
<g id="node31" class="node"><title>Missing</title>
<a xlink:href="./#Missing" xlink:title="Missing">
<ellipse fill="none" stroke="black" cx="1156" cy="-18" rx="41.7645" ry="18"/>
<text text-anchor="middle" x="1156" y="-13.4" font-family="Helvetica,sans-Serif" font-size="14.00">Missing</text>
</a>
</g>
<!-- Missing&#45;&gt;Casualty -->
<g id="edge28" class="edge"><title>Missing&#45;&gt;Casualty</title>
<path fill="none" stroke="red" stroke-dasharray="5,2" d="M1126.35,-31.0594C1099.32,-42.9653 1059.13,-60.6672 1029.03,-73.9288"/>
<polygon fill="red" stroke="red" points="1027.38,-70.8314 1019.63,-78.0655 1030.2,-77.2375 1027.38,-70.8314"/>
</g>
<!-- Need -->
<g id="node33" class="node"><title>Need</title>
<a xlink:href="./#Need" xlink:title="Need">
<ellipse fill="none" stroke="black" cx="1489" cy="-166" rx="34.2118" ry="18"/>
<text text-anchor="middle" x="1489" y="-161.4" font-family="Helvetica,sans-Serif" font-size="14.00">Need</text>
</a>
</g>
<!-- Need&#45;&gt;Indicator -->
<g id="edge42" class="edge"><title>Need&#45;&gt;Indicator</title>
<a xlink:href="./#basedOn" xlink:title="basedOn">
<path fill="none" stroke="darkslategray" d="M1489,-184.234C1489,-196.151 1489,-211.962 1489,-225.518"/>
<polygon fill="darkslategray" stroke="darkslategray" points="1485.5,-225.79 1489,-235.79 1492.5,-225.79 1485.5,-225.79"/>
</a>
<a xlink:href="./#basedOn" xlink:title="basedOn">
<text text-anchor="middle" x="1518" y="-205.4" font-family="Helvetica,sans-Serif" font-size="14.00">basedOn</text>
</a>
</g>
<!-- NonDisplaced -->
<g id="node34" class="node"><title>NonDisplaced</title>
<a xlink:href="./#NonDisplaced" xlink:title="NonDisplaced">
<ellipse fill="none" stroke="black" cx="1125" cy="-92" rx="69.7653" ry="18"/>
<text text-anchor="middle" x="1125" y="-87.4" font-family="Helvetica,sans-Serif" font-size="14.00">NonDisplaced</text>
</a>
</g>
<!-- NonDisplaced&#45;&gt;AffectedPopulation -->
<g id="edge30" class="edge"><title>NonDisplaced&#45;&gt;AffectedPopulation</title>
<path fill="none" stroke="red" stroke-dasharray="5,2" d="M1094.6,-108.423C1075.23,-118.883 1049.91,-132.559 1028.81,-143.958"/>
<polygon fill="red" stroke="red" points="1026.88,-141.019 1019.75,-148.851 1030.21,-147.178 1026.88,-141.019"/>
</g>
<!-- http://xmlns.com/foaf/0.1/Group&#45;&gt;http://xmlns.com/foaf/0.1/Agent -->
<g id="edge38" class="edge"><title>http://xmlns.com/foaf/0.1/Group&#45;&gt;http://xmlns.com/foaf/0.1/Agent</title>
<path fill="none" stroke="red" stroke-dasharray="5,2" d="M1103.11,-358.038C1040.09,-373.151 945.718,-395.779 879.675,-411.615"/>
<polygon fill="red" stroke="red" points="878.645,-408.262 869.737,-413.998 880.277,-415.07 878.645,-408.262"/>
</g>
<!-- Refugee -->
<g id="node38" class="node"><title>Refugee</title>
<a xlink:href="./#Refugee" xlink:title="Refugee">
<ellipse fill="none" stroke="black" cx="857" cy="-18" rx="48.9699" ry="18"/>
<text text-anchor="middle" x="857" y="-13.4" font-family="Helvetica,sans-Serif" font-size="14.00">Refugee</text>
</a>
</g>
<!-- Refugee&#45;&gt;Displaced -->
<g id="edge34" class="edge"><title>Refugee&#45;&gt;Displaced</title>
<path fill="none" stroke="red" stroke-dasharray="5,2" d="M850.222,-35.9133C846.979,-44.4849 843.023,-54.9385 839.41,-64.4878"/>
<polygon fill="red" stroke="red" points="836.078,-63.4036 835.813,-73.9951 842.625,-65.8809 836.078,-63.4036"/>
</g>
<!-- TotalPopulation -->
<g id="node40" class="node"><title>TotalPopulation</title>
<a xlink:href="./#TotalPopulation" xlink:title="TotalPopulation">
<ellipse fill="none" stroke="black" cx="1306" cy="-166" rx="79.8276" ry="18"/>
<text text-anchor="middle" x="1306" y="-161.4" font-family="Helvetica,sans-Serif" font-size="14.00">TotalPopulation</text>
</a>
</g>
<!-- TotalPopulation&#45;&gt;Population -->
<g id="edge36" class="edge"><title>TotalPopulation&#45;&gt;Population</title>
<path fill="none" stroke="red" stroke-dasharray="5,2" d="M1306,-184.234C1306,-196.151 1306,-211.962 1306,-225.518"/>
<polygon fill="red" stroke="red" points="1302.5,-225.79 1306,-235.79 1309.5,-225.79 1302.5,-225.79"/>
</g>
</g>
</svg>
